M48
;Layer_Color=9474304
;FILE_FORMAT=2:5
INCH,LZ
;TYPE=PLATED
T1F00S00C0.00787
T2F00S00C0.01181
T3F00S00C0.03937
T4F00S00C0.05118
T5F00S00C0.06496
T6F00S00C0.08858
T7F00S00C0.09449
%
T01
X0227715Y0060446
X0233621
X0239526
X0245431
X0251337
X0257242
X0263148
X0269054
X0274959
X0280865
X028677
X0292676
X0298581
X0296593Y0067212
X0290688
X0284782
X0278877
X0273562Y0068223
Y0075112
X0270669Y007815
X0268012Y0080742
X0267913Y0084646
X0267933Y0088187
X0274036Y0091425
X0277658Y0091437
Y0087598
X0273562Y0082002
X0276476Y007815
X0280217Y0077264
X0282951Y0071963
X0284547Y0081791
X0288296Y0085913
X029536Y0085221
Y0078922
X0301573Y0078458
X030173Y0082675
Y0085234
Y0087793
Y0090352
X0294025Y0092483
X0295304Y0100017
X0287321Y0100337
X0288896Y0105089
Y0108309
X0293602Y0107103
X0296949
X0307874Y0105807
X0315794Y0104126
X0315686Y0098221
X031901Y0090561
X0319053Y0087793
Y0082675
X0319097Y0079388
Y0075845
X0315495Y0074602
X0313287Y0069125
X0313118Y0066449
X030927Y0064796
X0306841Y0071935
X0301573Y0072003
X0302447Y0067989
X0327801Y0079134
X0319076Y0109035
X0312554Y0112048
X0316713Y011624
X0320889Y0120416
X032313Y0123031
X0319716Y0124499
X0316015
X0316094Y0128141
X0319795
X0319535Y0132395
X0315991
X0315989Y0136476
X0319533
X0310814Y0138602
Y0128602
X0303708Y0125433
X0286601Y0128602
X0282339Y0126634
Y0120728
X0282214Y0115836
Y0111875
X0274664Y0114161
X0271897Y0117618
Y0121161
X026796Y0121063
Y011752
X026691Y0125984
X0275658Y0125982
Y0120077
X0274508Y0106102
X0274803Y0097146
X0265374Y0096937
Y0101267
Y0105598
X0261043
X0256713
Y0101267
X0261043
Y0096937
X0256713
X0246573Y009733
Y0101267
X0245688Y0106306
X0244093Y0108661
X0247835Y0111319
X0258091Y0114358
X0253955Y0119968
X0255335Y0125984
X0258169Y0134646
X0260827Y0137697
X0265945Y0136221
X0272759Y0137046
X0280504Y0138172
X0282094Y0139556
X0286601Y0138602
X0282277Y0132539
X0251575Y0137795
X0239961
X0234154Y0139075
X0230807
X0232434Y0132087
X0231102Y0126476
X0235236
X0226529Y0124902
X0226476Y012185
X0225387Y0132087
X0225689Y0110925
X023189
X0231988Y010689
X0229038
X0228937Y0099803
X0231988
X023988Y0101267
Y009733
X0241732Y0093307
Y0090945
X0247146Y0091634
X0245747Y0084978
X0239447
X0235433Y0090945
Y0093307
X0225295Y0094291
Y0090354
X0223228Y0076378
X0226772Y0074803
X022441Y0067421
X0234842Y0067716
X0243444Y0067212
X0249349
X0255255
X026116
X0260531Y0081595
X0250197
X0244488Y007874
X0246871Y0074592
X0235071Y0078782
X0239094Y0104528
X0235138Y0114987
X0231004Y0114961
X0327428Y0117387
X0327506Y0122251
X0327603Y012622
X0218701Y0124705
X0218794Y0121949
X0220079Y0116425
X0213871Y0116334
Y0109408
X0211312
Y0106849
X0213871
X0211312Y010429
Y0101731
Y0099172
X0213871Y0101731
X0218989
Y0099172
X0221548
Y0101731
Y010429
X0218989Y0106849
Y0109408
X0221548
X021643
Y010429
X0206004Y010561
X0202756Y0105598
X0202854Y0112697
X0205906
X0195571Y0113091
Y010689
X0188203Y0107713
X0183203
X0178203
X0173228Y0109252
X0170472Y0114567
X0166732Y011446
X0162894Y0110531
X0159961Y0112205
X0162894Y0118602
X0162106Y0124016
X0157874
Y0130217
X0162008
X0162795Y0134153
Y0138189
X0166732Y0138135
X0170374Y0136221
X0173249Y0134759
X0173223Y0138165
X0180925Y0138779
X0182756Y013478
X0179055
X0178203Y0128972
X0183203
X0188203
X0187416Y0134664
X0191116
X0188189Y0138878
X0199606Y0134055
X0202702Y013411
Y0126925
X0199873
X0201969Y0119685
X0195669
X0207283Y0124016
X0213583
X0211116Y0130629
Y0133188
Y0135747
X0213675
X0211116Y0138306
X0216234
X0221353
X0218794Y0135747
X0221353Y0133188
Y0130629
X0218794
X0216234Y0133188
X0218989Y0092425
X0212049Y0092618
X0213287Y0087992
Y0084842
X0209449Y008563
X0205906Y0085827
X0201969
X020575Y0092618
X0205492Y0098819
X0199193Y0098816
X0188189Y0101279
X018189
X0170374Y0100098
X0166732Y0098676
X0161732Y0099423
X0161713Y0104528
X0158563Y0101969
Y009685
X0166732Y0090784
Y0082892
X016565Y0074803
X0169882
Y0062795
X0165748Y0062894
X0166339Y0055807
X0160039
X0159941Y0059961
X0154724Y0056791
X0143701
X0136024Y0053543
X0136122Y0048622
X0140521Y0037372
X0145669Y0036516
X0149213
X0149409Y0032745
Y0028445
X0149016Y0023819
X0145473
X0140354Y0019783
X0136614Y0018898
Y0015748
X0132874Y0016831
Y0013878
X0134252Y0019882
X0132892Y0023862
X0132936Y0029767
X0137795Y0028346
Y0032697
X0154823Y0031102
X0161122
X0160138Y0024213
Y0019193
Y0014665
Y0009154
X0154724Y0009449
X014685
X014889Y0002953
X0140999
X0133107
X0125215
X0117323
X0118983Y000935
X0123314Y0009422
X0127165Y0009449
X0137008
X0140354Y0013878
X0122961Y0021063
X0119278Y0021151
X0115453Y0021457
Y0017913
X0110635Y0017618
Y0014075
Y0021551
X011063Y0027854
X0115953Y0028287
X0109449Y0035039
Y0038976
Y0042913
Y0054724
X0113386
X0114567Y0050295
X0114241Y006114
X0120509
X0124902Y0067421
Y0071161
X0124803Y0075
X0123814Y0080216
X0127657Y0080315
X0131398Y0080315
X0130709Y0070473
Y0064173
X0114272Y0067421
X0108268Y006811
Y007441
X0114272Y0074902
X0114472Y0080216
X0110728Y0080118
X0118498
X0117913Y0092125
X0114472Y0092028
X0111028
X0111024Y0098032
X0111417Y0103543
X0108268
X0108366Y0110793
X0111417Y0110876
X0116831Y0112008
X0116929Y010935
Y0106791
Y0104232
X0119488
X0116929Y0101673
X0116831Y009685
X012313
X0124213Y0092028
X0127657Y0092126
X0131595Y0092224
X0133688Y0101279
Y0107579
X0133661Y0112259
Y0118559
X0131988Y0123327
X0132087Y0129134
X0126673Y0127067
Y0124311
X0126374Y0120571
X0126366Y0117717
X0127165Y0111909
X0124606
Y010935
X0127165Y0106791
Y0104232
Y0101673
X0124606
Y0104232
X0122047Y0106791
X0119587Y0109252
X0119488Y0111909
X0119039Y0117717
X011909Y0120571
X0118701Y0124311
Y0127067
X0121555Y0132492
X0124114Y0132579
Y0135039
X0124132Y0138007
X0121573Y0138204
X0121555Y0140169
X0118996Y013761
X0116652Y0139877
X0113779Y0140256
X0113878Y013761
Y0135051
Y013248
X0116652Y0135054
X0107532Y0134646
X0104704
X010575Y0127572
X010795Y0129361
X010993Y0127491
X0112795Y0122736
X0106496
X0105644Y0117747
X0107961Y0115877
X0110126Y0117687
X0100689Y0122933
X0096476Y0124291
Y0129291
X0096457Y0134252
X0096476Y0139291
X0091476Y012939
Y0124291
Y0119291
Y0114291
Y0109291
Y0104291
X0096476
Y0099291
Y0094291
Y0089291
X0091476
X0086476
Y0094291
X0081476
X0076476
Y0099291
X0081476
Y0104291
Y0109291
X0076476
Y0114291
X0071476
Y0119291
X0076378
X0081476
Y0114291
X0086476
X0096476Y0109291
X0100591Y0108957
X0100886Y0097342
X0104724Y0098032
X0104429Y0089567
Y0083268
X0097736Y0080905
X0091437
X0084941Y0080776
X0084055Y0078513
X0083957Y0082942
X0079626Y00823
Y0078953
X007687Y0074213
Y0067913
X0076772Y0063957
Y0060256
X007126Y0062205
X006623Y0062106
X0071161Y0068504
X0070571Y0074213
X0072441Y0079314
Y0082267
X0066929Y0082185
X0065847Y008563
X0066476Y0089291
Y0094291
Y0099291
X0071476
Y0104291
X0076476
X0066476
Y0109291
Y0114291
Y0119291
Y0124291
Y0129291
Y0134291
Y0139291
X0071476
Y0134291
Y0129291
Y0124291
X0076476
Y0129291
Y0134291
X0081476
Y0139291
X0076476
X0086476Y0134291
X0081476Y0129291
Y0124291
X0071476Y0109291
Y0094291
Y0089291
X0076476
X0081476
X0086476Y0099291
X0091476
Y0094291
X0088189Y0074016
Y0067716
X0088189Y0063327
X0082677Y0072894
X009376
X0100984Y0074114
Y0067028
X0101645Y006114
X0107944
X0101978Y0034425
Y0030882
X0103642Y0023862
Y0019783
X0091831Y0019685
Y0023917
X0086024Y0024902
Y0021358
X0081595Y0023917
X0077461
X0073514Y0024766
X0073517Y002122
X0068701Y0020768
Y0016732
X0068701Y0011811
Y0007579
X0073327Y0006496
X0073354Y0002953
X0081245
X0081201Y0006398
X0081391Y0011811
X0077559
X0085827Y000748
X0089137Y0002953
X0090167Y0030488
X0090174Y0033179
X008502Y0033232
Y0029531
X0081184
Y0033232
X0077348
Y0029531
X0073514Y0029529
X0073512Y0033232
X0069676
X0066472
X0066394Y0029531
X0069676
X0069095Y0045177
X0072211Y0045276
X0075328Y0045177
X0078445
X0078445Y0048819
X0075328
X0072146
X0069095
Y0052362
X0072211
X0075328
X0078445
X008099Y0051195
Y0046274
X008504Y0038366
X008876Y0038386
X0093012
X0096555
X0066719Y0046274
Y0051195
X015935Y0045768
Y0037697
X0163248
X0167224Y0035335
X0170375Y0038327
X0174125Y003708
X0176148Y003957
X0182972Y0034252
Y0031004
X0182894Y0027067
X0187992
X0192992
X0192815Y0035925
X0187992
Y0044902
X0197992
X020315Y004439
X0205315Y0046358
X0207579Y004439
X0207874Y0049803
Y0052756
Y0055709
Y0058661
X0204724Y005748
X0201969Y0054724
X0196949Y0055098
X0195276Y0058661
X0198031Y0061417
X0200787Y0063779
X0202559Y006752
X0207874
Y0071457
X0204921
X0202362Y007559
X0207874Y0075394
X0215748Y0073721
Y007126
Y0068898
X0218504Y0070079
Y0067421
X022181Y0060446
X0215748Y0058661
Y0055709
Y0052756
Y0049803
X0201969Y0047539
X020315Y0034547
X0205413Y0032677
X0207677Y0034547
X021191Y003537
Y0027479
X0208268Y0027461
X0205906Y0019291
X0194095Y000748
X018835Y0002953
X0180458
X0172566
X0164674
X0156782
X0176378Y0009449
X0176279Y0016634
X0184252Y0009449
X017126Y0031004
X0173622Y0049508
X0174539Y0058414
X0179724Y00625
X0180512Y0052658
X0191339Y00625
X0196063Y0065059
X0198031Y0035925
X0155453Y0037697
X0152658Y0038333
X0141831Y009685
X0143701Y009941
X0143012Y0109291
X0146555
X0145669Y0115354
X0144606Y0121161
X0141456Y0121176
X013752Y0121161
X01375Y0125197
X014248Y0126772
X014748
X015248
X0152461Y012126
Y0117717
X0148307Y0121161
X0138583Y0115354
Y0109055
X0142126Y0132874
Y0137106
X0166732Y0130243
X0170276Y0127657
X0173347Y0128263
X0170472Y0120866
X0166732Y0122352
Y0106568
X0217717Y0082284
X0220472Y0079134
X0064665Y0082185
X0057776Y0082382
X0057677Y0079232
X0054528
Y0082382
Y0085532
X0057677
X0056496Y0089272
X0056476Y0094291
Y0099291
X0051476
X0046476
Y0104291
X0051476
Y0109291
X0056476
X0061476
Y0114291
Y0119291
Y0124291
X0056476
Y0129291
X0051476
X0051496Y0134252
Y0139272
X0056476Y0139291
X0061476
Y0134291
Y0129291
X0056476Y0134291
X0046476
Y0129291
Y0124291
Y0119291
Y0114291
X0051476
X0056476
Y0119291
X0051476
Y0124291
X0038976Y0126279
X0039046Y0122146
X0038007Y0114961
X0030708
X002372Y0115059
X0027067Y0122146
X0027235Y0126279
X0027067Y0131582
X0027235Y0135716
X0038976
X0039046Y0131582
X0038829Y0140748
X0046476Y0139291
Y0109291
X0056476Y0104291
X0061476
Y0099291
X0046476Y0094291
Y0089291
X0038681Y0090158
X0032972
X0029035Y0092421
X0025394Y0092323
X0021921
X001437Y0093701
X0010236
X0009055Y01
X0014961
X0003051Y0096153
Y0104044
Y0088261
Y0080369
Y0072477
X0003642Y0065354
X0010403
X0017164
X0023925
X0030686
X0040059Y0066678
X0043209
X0048917Y0068012
X0054528Y006752
X0054419Y0062106
X0059832Y0062205
X0059842Y0068012
X0065158Y006752
Y007126
X0065158Y0075
X0054528
X0048917Y0074311
X0043209Y0073819
X0040157
X003878Y0081398
X0045079
X0033465Y0079528
Y0083275
X002876Y0081004
X0025394
X0022146
X0014173Y0081791
X0010341
X0009055Y0076378
X0014961
X0017164Y003189
X0017815Y0026083
X0014272
X0014272Y0020571
X0017815
X0022835Y0019291
Y0023228
Y0027165
X0023925Y003189
X0030686
X0038583Y0031102
X0046457
Y0037008
X0053642Y0033169
X0057284
X0061221Y0033268
X0061211Y0029531
X0060328Y0024606
X0063871
X0057087Y0020472
Y0016929
X0056791Y0011607
Y0007776
X005757Y0002953
X0049678
X0049705Y0006496
X0050394Y0011417
X0046457
X004252
X0041732Y0006398
X0041786Y0002953
X0033894
X0033563Y0010039
Y0013871
X0021654Y0013976
Y0009744
X001811Y0002953
X0026002
X004252Y0017323
X0050394
X0065462Y0002953
X0063779Y0038484
X0038583Y0042913
X0048219Y0062205
X0010403Y003189
X0003642
X0003642Y0026181
Y0020571
X0027235Y0141043
X0027264Y0144882
X0038878Y0145276
X0044291Y014685
X0042815Y0156201
X0050689Y0156201
X0058599Y0156201
X0056398Y0150984
X0056271Y014685
X0062303Y0146949
X0062402Y0150984
X0055315Y0161024
Y0165256
X0049114Y0168209
Y0175061
X0053827Y0174508
X0057356Y0174494
X0057469Y0178559
Y018226
Y0185646
Y0189297
X0063223Y0189494
Y0184494
Y0179493
Y0174494
X0051083Y0181102
X0046161Y0182283
X0042323Y0182382
X0044193Y0188681
X0051863Y0188098
X0058465Y0194685
X0058465Y0199803
X005315Y0200394
Y0206693
X0058563Y0207382
X0056299Y0214173
X0059571Y0217351
Y022365
X0065059Y0222047
Y022559
X0064959Y0232017
Y0243434
X0065059Y0249213
Y0252756
X0059547Y025561
Y0249311
X0053673Y0251882
X0049803
X0044488Y0253543
X0036614
X003248Y0251969
X0028611
X0030489Y0244587
X0023728
X0016967
X0017567Y0249882
X0021063Y0250197
Y025561
X0017567Y0255295
X0009299Y0249882
X0010206Y0244587
X0003445
X000235Y0249882
Y0255394
X002041Y0269882
X0028302
X0028445Y0263976
X0032677
X0036614Y0261417
X0044488
X0044193Y0266339
X0044085Y0269882
X0036194
X0051977
X0059869
X0053952Y0263506
X0049606Y0263595
X0052362Y0245669
X0044488
X0036614
X0040551Y0214173
Y0206299
X0046949Y0206299
Y0199213
X0040551Y0198425
X0033661Y0195857
X0028346Y0196161
X0024515
X0027031Y0203888
X0033661Y020374
X0030489Y0211122
X0023728
X0016967
X0010206
X0003445
X0003355Y0203888
X0011247
X0019139
X0024477Y018435
X0028346
X0028445Y0178248
X0024508Y0178248
X0033661Y0180073
Y0187965
X0038878Y0175061
Y0168209
X0028642Y0166437
X0024409
X0021161Y0164764
X0018802Y0166929
X0016535Y0164862
Y015561
X0018799Y0153445
X0021063Y0155413
X0064828Y0194685
X0048425Y0214173
X006649Y0217056
X0071879Y0217028
X0071816Y0221772
X0078347Y0221949
X0079035Y0217028
X0079921Y0212303
X0080807Y0206496
X0085827Y0205276
X0087795Y0214173
X0095669
X0103543
X0102165Y0206594
X009685Y0205276
X0100197Y0200394
X0104134Y0200295
X0111417Y0198425
X0115867Y0197878
X0121752
X0126919Y0197835
X013189Y0197933
X0139665Y0199508
X0144095Y0199606
X0148302Y0200984
Y0197441
X0156201Y0197441
X0160335Y0197485
X0166634Y0196653
X0170177Y0196555
X0166732Y0191535
X0166634Y0186417
X0166732Y0181299
X0162569Y0178973
X0162569Y0176864
X0156664
X0156664Y0178973
X0156398Y0185559
X0160267
X0150787Y0190551
X0144095Y0187911
X0139469
X0135039Y0190551
X01375Y0177461
Y0171555
X014124Y0174508
X014498
X014439Y0177461
Y0171555
X0140979Y0165847
Y0162015
X01375Y0156102
X0129662
X0131004Y0162008
Y0165945
X0119095Y0165855
Y0162106
X012177Y0156102
X012254Y0149311
X0116241
X0116437Y0142728
X0118996Y0142717
X0121555Y0142728
X0124213Y0142815
X0131102Y0141732
X0132776Y0148721
X0129429
X013748Y0148031
X014248
X0147441
X015248
X0153338Y0156102
X0152854Y0162008
X0152756Y0165945
X0152433Y0170183
X0158339
X0170276Y0169685
X0176055Y0170183
Y0168074
X0177559Y0165748
X0182283Y0166535
X0187992Y0167618
Y0163898
Y016063
Y0156929
Y0153543
X0184449
X0187402Y0148031
Y0146063
X0188203Y0141929
X0181004
X0181102Y0146063
Y0148031
X0180523Y0159646
X0193701Y0157736
Y0162736
Y0167736
X0199677Y0170183
X0205583
X0206693Y0178543
X0211122Y0177067
X021624Y0178937
X021063Y0184055
X0205416Y0188871
X020057Y0186509
X0200367Y0178517
X0191938Y0179816
X0189379
Y0182375
X0191938
Y0184934
Y0187493
X0189379
X0191938Y0190052
X0194882Y0193701
X0199311Y0193602
X0196538Y0199128
X019439Y0204429
X0186516Y0204528
X0186551Y0207972
X017866
Y0204331
X0177264Y0198425
X0185138
X0188583Y0193701
X0184261Y0190052
Y0187493
X0181702
Y0190052
Y0184934
Y0182375
X0184252Y0182382
Y0179823
X0181693
X0180286Y0176864
X0186191
X018682Y0179816
Y0184934
X0173622Y0181496
X0174381Y0176864
X0173622Y0188583
X0178417Y021317
Y0216713
X018248Y0216732
Y0213189
X0187078Y0215926
X019311Y0215846
X0202298Y0212577
X0204508Y0222661
X0202267Y0228051
X0195617Y0228584
X0187795Y0223721
X0175984
X0162205Y0222441
Y0227665
Y023289
Y0238114
X0149442Y0246337
Y0252636
X0150229Y0256967
X0146686
Y0261297
X0150229
X0150582Y0269882
X014269
X0142717Y0266339
X0142028Y0260464
Y0256594
X0130217Y0256398
Y026063
X0124606Y0260647
X0126906Y0269882
X0119014
X0111122
X0112992Y0260647
X0113567Y0237882
X0113659Y0229035
X0118568Y0228867
Y0220048
X0113567
X0108568
X0112402Y0216142
Y0204429
X0111417Y0190551
X0103543
X0097532Y0188677
X0091528Y0188795
Y0182496
X0097532Y0182378
X0107972Y0180315
X0110236Y0182382
X01125Y0180315
Y0170994
X0110138Y0168898
X0107944Y0170965
X0103543Y0170866
X0084483Y0174494
Y0179493
Y0184494
Y0189494
X0079626Y0195394
Y0199094
X0074606Y0201673
X0074508Y0206496
X0069355Y0207382
X0069193Y0203642
Y0199902
X0074606Y0195374
X0091339Y0195709
X0090575Y0223847
X010219
X0108568Y0228937
X0123567Y0237882
X0131102Y0222047
X0138976
X0142703Y0215969
X0148622Y0218898
Y0212598
X0153051Y0212598
Y0216142
X0154724Y0206299
X0150758Y0176864
X0145446Y0156102
X0157776Y0142028
X0162303
X0166732Y0146063
X0170768Y0142421
X0196725Y014498
X0203024
X0211116Y0140865
X0213675
X0218996Y0141079
X0219965Y0147047
X0213666
X0214961Y0152736
Y0157736
Y0162736
X0215109Y0167815
X022147Y0167717
X0218013Y0193318
X0212107Y0193388
X0207045Y0196428
X0203096Y020082
X02125Y0223631
Y0231496
X0209055Y0231358
X02125Y0239415
Y0247307
X0208957Y0247244
X0202262Y0245473
X0202165Y0241504
X0206094Y0240978
X0195768Y0250457
X0198228Y0252918
X02125Y0255199
X0189862Y0261185
X0187303Y0258823
X0182283Y0261417
X0178347
Y0253543
X0174409
X0169783Y0260796
Y0264665
X0174213Y0266339
X0174257Y0269882
X0166365
X0158474
X0157874Y0262594
X0156867Y0254257
X0134744Y0266535
X0134843Y0270079
X0091437Y0269882
X0083545
X0083563Y0266339
X0075603Y0266326
X0075653Y0269882
X0067761
X0071879Y0259031
X0071949Y0253031
X0078248Y0252854
X0079035Y0259154
X0089468Y0254626
X008937Y025059
X0088508Y0245698
X0084611
X0092406
X0088508Y0237627
X007879Y0232017
X0071875Y0233345
Y0242105
X007879Y0243434
X0123721Y0214252
X0113878Y0156102
X0113779Y0142815
X010765Y0141679
X0104724
X0096457Y0143307
X0085323Y0147053
X0087008Y0149218
X0085335Y0151285
X0082275Y0156201
X0074213Y0156201
X0074311Y0150787
X0074304Y0146949
X0066392Y0156201
X0067028Y0161221
Y016509
X0074114Y0165157
X0086024Y0165188
Y0161319
X0193701Y0152736
X0185759Y0235263
X0185728Y0241437
X0185759Y0247744
X0182185Y0266339
X0182149Y0269882
X0190041
X0197933
X0223918Y0193318
X0229824
X0226863Y0186638
X0222146Y0184055
X0222539Y0178937
X022753Y0176864
X0229205Y0170183
X0235232Y0165544
X0240932Y0169195
X0243311Y0163789
X0249964Y0164346
X025619Y0164106
X0258268Y0160531
X0255143Y0158294
X0263386Y0157579
X0261722Y016725
X0265265
X0264567Y017126
X0270925Y0171319
X0275984Y017126
X0282283
X0281374Y0167669
X028502Y0167816
X0286002Y0163572
Y0159871
X0279938Y0160227
X0276488Y0159915
Y0163615
X0273246Y016731
X0270925Y0177657
X0265925
X0260236Y0176279
X0254528
X0254626Y0182579
X0260236
X0262296Y0186638
X0256391
X0250485
X024458
X0244646Y0180217
X0244848Y0174617
X023934Y0176746
X0237402Y0186597
X0248658Y0170105
X024527Y0158218
X0253712Y0149976
X025946Y0148624
X0264407Y0145398
X0268583Y0141222
X0272451Y0146802
X0268275Y0150978
X0279429Y0152657
X0281693Y015502
Y0150197
X0292323Y0150492
Y0154724
X0290574Y0162919
X0294749Y0167095
X0298925Y017127
X0303937Y0172244
X0304045Y0180565
X0303635Y0186638
X0297729
X0291824
X0285918
X0280012
X0277068Y0193318
X0282973
X0280925Y0198917
X0275925
X0270925
X0271063Y0204134
X026752
X0268268Y0208158
X0276142
X0284016
X028937Y0198009
X0294784Y0193318
X030069
X0306595Y0193272
X031246Y0192585
X0309724Y0188386
X031494Y0184239
X0321231Y0180578
X0326944Y0179082
X0327506Y0174409
X0327495Y0170343
X032223Y0173017
X0315551Y0172244
X0315567Y0153685
Y0150142
X0320685
Y0153685
X0325197Y019717
X0327165Y0199311
X0325197Y020187
X0299764Y0208158
X0298233Y0179521
X0293372Y0176167
X0289196Y0171992
X0284646Y0175886
Y0179429
X0280925Y0177657
X0275925
X0268201Y0186638
X0271162Y0193318
X0259351
X0260394Y0208158
X025252
X0244646
X0231004Y0143898
X0224705
X0276626Y0142626
T02
X0091142Y0043865
X0095669
Y0053393
X0091142
X0056391
X0051863
Y0043865
X0056391
X0053887Y0227671
X0057355Y0230582
X0051231Y023788
X0047763Y023497
X0134227Y0235211
X014038Y0241364
T03
X0226831Y0200886
X0236831
X0246831
X0256831
T04
X0138918Y007061
X0158918
X0176663Y0071398
X0196663
Y0091398
X0176663
X0158918Y009061
X0138918
T05
X0008268Y0152756
Y0168504
T06
X0012205Y0135039
Y0186221
T07
X0099051Y00085
X020535
X00085
X0009402Y0114882
X0033661Y0156055
X00085Y0264405
X0099051
X020535
X0211516Y0208071
X0166831
X016598Y0156138
X0099051
X0303776
M30
