G04*
G04 #@! TF.GenerationSoftware,Altium Limited,Altium Designer,19.0.15 (446)*
G04*
G04 Layer_Color=128*
%FSLAX25Y25*%
%MOIN*%
G70*
G01*
G75*
%ADD10R,0.03543X0.03937*%
%ADD11R,0.03937X0.03543*%
%ADD12R,0.02441X0.02284*%
%ADD14R,0.03740X0.03937*%
%ADD16R,0.02441X0.02441*%
%ADD25R,0.04528X0.07087*%
%ADD26R,0.07087X0.04528*%
%ADD37R,0.02441X0.02441*%
%ADD41R,0.03937X0.03740*%
%ADD58R,0.03150X0.01181*%
%ADD75R,0.04134X0.08661*%
%ADD76R,0.03937X0.04134*%
%ADD79R,0.08661X0.04134*%
%ADD80R,0.04134X0.03937*%
%ADD219R,0.06890X0.09646*%
%ADD220R,0.01968X0.04724*%
%ADD221R,0.03740X0.03740*%
%ADD222R,0.03740X0.03740*%
D10*
X194882Y193701D02*
D03*
X188583D02*
D03*
X231004Y143898D02*
D03*
X224705D02*
D03*
X231890Y110925D02*
D03*
X225590D02*
D03*
X76870Y74213D02*
D03*
X70571D02*
D03*
X116831Y96850D02*
D03*
X123130D02*
D03*
X215171Y167717D02*
D03*
X221470D02*
D03*
X245747Y84978D02*
D03*
X239447D02*
D03*
X241732Y92224D02*
D03*
X235433D02*
D03*
X87106Y119390D02*
D03*
X80807D02*
D03*
Y124311D02*
D03*
X87106D02*
D03*
X80709Y139173D02*
D03*
X87008D02*
D03*
D11*
X88189Y67716D02*
D03*
Y74016D02*
D03*
X59842Y68012D02*
D03*
Y74311D02*
D03*
X152461Y148031D02*
D03*
Y141732D02*
D03*
X138583Y109055D02*
D03*
Y115354D02*
D03*
X158169Y101870D02*
D03*
Y108169D02*
D03*
X100886Y103642D02*
D03*
Y97342D02*
D03*
X100689Y129232D02*
D03*
Y122933D02*
D03*
X86319Y104429D02*
D03*
Y110728D02*
D03*
X100787Y108957D02*
D03*
Y115256D02*
D03*
X100787Y139625D02*
D03*
Y133326D02*
D03*
D12*
X176279Y20354D02*
D03*
Y16654D02*
D03*
X123721Y210551D02*
D03*
Y214252D02*
D03*
X24508Y184331D02*
D03*
Y180630D02*
D03*
D14*
X188189Y101279D02*
D03*
X181890D02*
D03*
D16*
X113878Y159646D02*
D03*
Y156102D02*
D03*
X82284Y159744D02*
D03*
Y156201D02*
D03*
X121752Y159646D02*
D03*
Y156102D02*
D03*
X74213Y159744D02*
D03*
Y156201D02*
D03*
X50689Y159744D02*
D03*
Y156201D02*
D03*
X137500Y159646D02*
D03*
Y156102D02*
D03*
X62500Y159843D02*
D03*
Y156299D02*
D03*
X54823Y152461D02*
D03*
Y156004D02*
D03*
X26969Y200394D02*
D03*
Y203937D02*
D03*
X66437Y152657D02*
D03*
Y156201D02*
D03*
X182185Y266339D02*
D03*
Y269882D02*
D03*
X153347Y152559D02*
D03*
Y156102D02*
D03*
X315567Y150142D02*
D03*
Y153685D02*
D03*
X174213Y266339D02*
D03*
Y269882D02*
D03*
X46654Y152559D02*
D03*
Y156102D02*
D03*
X194390Y204232D02*
D03*
Y207776D02*
D03*
X125984Y152461D02*
D03*
Y156004D02*
D03*
X133563Y152461D02*
D03*
Y156004D02*
D03*
X320685Y150142D02*
D03*
Y153685D02*
D03*
X133071Y6496D02*
D03*
Y2953D02*
D03*
X140945Y6496D02*
D03*
Y2953D02*
D03*
X180512Y6496D02*
D03*
Y2953D02*
D03*
X41732Y6398D02*
D03*
Y2854D02*
D03*
X44193Y266339D02*
D03*
Y269882D02*
D03*
X49705Y6496D02*
D03*
Y2953D02*
D03*
X51968Y266339D02*
D03*
Y269882D02*
D03*
X73327Y6496D02*
D03*
Y2953D02*
D03*
X186516Y204232D02*
D03*
Y207776D02*
D03*
X142717Y266339D02*
D03*
Y269882D02*
D03*
X134744Y266339D02*
D03*
Y269882D02*
D03*
X83563Y266339D02*
D03*
Y269882D02*
D03*
X188386Y6398D02*
D03*
Y2854D02*
D03*
X75590Y266339D02*
D03*
Y269882D02*
D03*
X81201Y6398D02*
D03*
Y2854D02*
D03*
X265265Y163706D02*
D03*
Y167250D02*
D03*
X261722Y163706D02*
D03*
Y167250D02*
D03*
X267913Y84646D02*
D03*
Y88189D02*
D03*
X267960Y121063D02*
D03*
Y117520D02*
D03*
X271897Y121161D02*
D03*
Y117618D02*
D03*
D25*
X50787Y93602D02*
D03*
X62205D02*
D03*
X72539Y80709D02*
D03*
X83957D02*
D03*
X33465Y81398D02*
D03*
X44882D02*
D03*
X130709Y134941D02*
D03*
X142126D02*
D03*
X86221Y148917D02*
D03*
X74803D02*
D03*
D26*
X110236Y181398D02*
D03*
Y169980D02*
D03*
X25394Y92421D02*
D03*
Y81004D02*
D03*
X18802Y165886D02*
D03*
Y154469D02*
D03*
X107973Y128347D02*
D03*
Y116929D02*
D03*
D37*
X170276Y191535D02*
D03*
X166732D02*
D03*
X213779Y76279D02*
D03*
X210236D02*
D03*
X213779Y68405D02*
D03*
X210236D02*
D03*
X213779Y60532D02*
D03*
X210236D02*
D03*
X213779Y52658D02*
D03*
X210236D02*
D03*
X213779Y88090D02*
D03*
X210236D02*
D03*
X213779Y84153D02*
D03*
X210236D02*
D03*
X213779Y80216D02*
D03*
X210236D02*
D03*
X213779Y72342D02*
D03*
X210236D02*
D03*
X213779Y64468D02*
D03*
X210236D02*
D03*
X213779Y56595D02*
D03*
X210236D02*
D03*
X162795Y138189D02*
D03*
X166339D02*
D03*
X162894Y118602D02*
D03*
X166437D02*
D03*
X170472Y114567D02*
D03*
X166929D02*
D03*
X170768Y142421D02*
D03*
X167224D02*
D03*
X37402Y171457D02*
D03*
X33858D02*
D03*
X170472Y106595D02*
D03*
X166929D02*
D03*
X170276Y171063D02*
D03*
X166732D02*
D03*
X170374Y176575D02*
D03*
X166831D02*
D03*
X37303Y180118D02*
D03*
X33760D02*
D03*
X170472Y130315D02*
D03*
X166929D02*
D03*
X30020Y175787D02*
D03*
X33563D02*
D03*
X29921Y191437D02*
D03*
X33465D02*
D03*
X208957Y231496D02*
D03*
X212500D02*
D03*
X208957Y223622D02*
D03*
X212500D02*
D03*
X37205Y195866D02*
D03*
X33661D02*
D03*
X37205Y203740D02*
D03*
X33661D02*
D03*
X162894Y110531D02*
D03*
X166437D02*
D03*
X162795Y134153D02*
D03*
X166339D02*
D03*
X208268Y27461D02*
D03*
X211811D02*
D03*
X17815Y20571D02*
D03*
X14272D02*
D03*
X21063Y250197D02*
D03*
X17520D02*
D03*
X208957Y247244D02*
D03*
X212500D02*
D03*
X170177Y196555D02*
D03*
X166634D02*
D03*
X21063Y255610D02*
D03*
X17520D02*
D03*
X17815Y26083D02*
D03*
X14272D02*
D03*
X146555Y109291D02*
D03*
X143012D02*
D03*
X243424Y101267D02*
D03*
X239880D02*
D03*
X243424Y97330D02*
D03*
X239880D02*
D03*
X270472Y103445D02*
D03*
X266929D02*
D03*
X270472Y107776D02*
D03*
X266929D02*
D03*
X270472Y99114D02*
D03*
X266929D02*
D03*
X270472Y94784D02*
D03*
X266929D02*
D03*
X274114Y91437D02*
D03*
X277658D02*
D03*
X274114Y87598D02*
D03*
X277658D02*
D03*
D41*
X142323Y141831D02*
D03*
Y148130D02*
D03*
D58*
X62008Y85348D02*
D03*
Y83380D02*
D03*
Y81411D02*
D03*
Y79443D02*
D03*
X50197D02*
D03*
Y81411D02*
D03*
Y83380D02*
D03*
Y85348D02*
D03*
D75*
X182874Y30610D02*
D03*
X171260D02*
D03*
D76*
X177067Y24606D02*
D03*
D79*
X112205Y216043D02*
D03*
Y204429D02*
D03*
D80*
X118209Y210236D02*
D03*
D219*
X56102Y82396D02*
D03*
D220*
X186663Y69193D02*
D03*
X148918Y68405D02*
D03*
D221*
X86811Y129232D02*
D03*
X80905D02*
D03*
D222*
X92323Y134055D02*
D03*
Y139961D02*
D03*
M02*
