G04*
G04 #@! TF.GenerationSoftware,Altium Limited,Altium Designer,19.0.15 (446)*
G04*
G04 Layer_Physical_Order=1*
G04 Layer_Color=255*
%FSLAX25Y25*%
%MOIN*%
G70*
G01*
G75*
%ADD10R,0.03543X0.03937*%
%ADD11R,0.03937X0.03543*%
%ADD12R,0.02441X0.02284*%
%ADD13R,0.02284X0.02441*%
%ADD14R,0.03740X0.03937*%
%ADD15R,0.04528X0.05709*%
%ADD16R,0.02441X0.02441*%
%ADD17R,0.04134X0.05512*%
%ADD18R,0.03937X0.03937*%
%ADD19R,0.33858X0.04331*%
%ADD20R,0.05906X0.03937*%
%ADD21R,0.02402X0.06102*%
%ADD22R,0.06102X0.02402*%
%ADD23R,0.01417X0.02598*%
%ADD24O,0.00984X0.03347*%
%ADD25R,0.04528X0.07087*%
%ADD26R,0.07087X0.04528*%
G04:AMPARAMS|DCode=27|XSize=45.28mil|YSize=70.87mil|CornerRadius=0mil|HoleSize=0mil|Usage=FLASHONLY|Rotation=135.000|XOffset=0mil|YOffset=0mil|HoleType=Round|Shape=Rectangle|*
%AMROTATEDRECTD27*
4,1,4,0.04106,0.00905,-0.00905,-0.04106,-0.04106,-0.00905,0.00905,0.04106,0.04106,0.00905,0.0*
%
%ADD27ROTATEDRECTD27*%

%ADD28C,0.01378*%
%ADD29R,0.05709X0.04528*%
%ADD30R,0.04331X0.05709*%
%ADD31R,0.05709X0.04331*%
%ADD32R,0.11614X0.09386*%
%ADD33R,0.01181X0.01772*%
%ADD34R,0.02657X0.01181*%
%ADD35R,0.01772X0.01181*%
%ADD36R,0.04528X0.07087*%
%ADD37R,0.02441X0.02441*%
%ADD38R,0.02992X0.05000*%
G04:AMPARAMS|DCode=39|XSize=24.02mil|YSize=49.02mil|CornerRadius=0mil|HoleSize=0mil|Usage=FLASHONLY|Rotation=315.000|XOffset=0mil|YOffset=0mil|HoleType=Round|Shape=Rectangle|*
%AMROTATEDRECTD39*
4,1,4,-0.02582,-0.00884,0.00884,0.02582,0.02582,0.00884,-0.00884,-0.02582,-0.02582,-0.00884,0.0*
%
%ADD39ROTATEDRECTD39*%

G04:AMPARAMS|DCode=40|XSize=40.95mil|YSize=70.87mil|CornerRadius=0mil|HoleSize=0mil|Usage=FLASHONLY|Rotation=315.000|XOffset=0mil|YOffset=0mil|HoleType=Round|Shape=Rectangle|*
%AMROTATEDRECTD40*
4,1,4,-0.03953,-0.01058,0.01058,0.03953,0.03953,0.01058,-0.01058,-0.03953,-0.03953,-0.01058,0.0*
%
%ADD40ROTATEDRECTD40*%

%ADD41R,0.03937X0.03740*%
%ADD42R,0.11024X0.04331*%
%ADD43R,0.07087X0.04528*%
%ADD44R,0.05000X0.02992*%
%ADD45R,0.03740X0.05512*%
%ADD46R,0.05906X0.01772*%
%ADD47R,0.02362X0.06102*%
%ADD48O,0.03347X0.00984*%
%ADD49R,0.14370X0.14370*%
%ADD50C,0.02559*%
%ADD51R,0.19685X0.07874*%
%ADD52R,0.03543X0.01968*%
%ADD53R,0.02402X0.04213*%
%ADD54R,0.02992X0.05984*%
%ADD55R,0.01772X0.05906*%
%ADD56R,0.04331X0.02165*%
%ADD57R,0.01339X0.03937*%
%ADD58R,0.03150X0.01181*%
%ADD59R,0.02559X0.03740*%
%ADD60R,0.00591X0.00591*%
%ADD61R,0.01378X0.01181*%
%ADD62R,0.02114X0.04528*%
%ADD63R,0.11717X0.01870*%
%ADD64O,0.03150X0.01181*%
%ADD65O,0.01181X0.03150*%
%ADD66R,0.10630X0.06890*%
%ADD67R,0.05118X0.03740*%
%ADD68R,0.02953X0.05118*%
%ADD69R,0.02953X0.07087*%
%ADD70R,0.05118X0.05118*%
%ADD71R,0.03543X0.06299*%
%ADD72R,0.06890X0.03898*%
%ADD73R,0.03898X0.02402*%
%ADD74R,0.06102X0.02362*%
%ADD75R,0.04134X0.08661*%
%ADD76R,0.03937X0.04134*%
G04:AMPARAMS|DCode=77|XSize=68.9mil|YSize=38.98mil|CornerRadius=0mil|HoleSize=0mil|Usage=FLASHONLY|Rotation=40.000|XOffset=0mil|YOffset=0mil|HoleType=Round|Shape=Rectangle|*
%AMROTATEDRECTD77*
4,1,4,-0.01386,-0.03707,-0.03892,-0.00721,0.01386,0.03707,0.03892,0.00721,-0.01386,-0.03707,0.0*
%
%ADD77ROTATEDRECTD77*%

G04:AMPARAMS|DCode=78|XSize=38.98mil|YSize=24.02mil|CornerRadius=0mil|HoleSize=0mil|Usage=FLASHONLY|Rotation=40.000|XOffset=0mil|YOffset=0mil|HoleType=Round|Shape=Rectangle|*
%AMROTATEDRECTD78*
4,1,4,-0.00721,-0.02173,-0.02265,-0.00333,0.00721,0.02173,0.02265,0.00333,-0.00721,-0.02173,0.0*
%
%ADD78ROTATEDRECTD78*%

%ADD79R,0.08661X0.04134*%
%ADD80R,0.04134X0.03937*%
%ADD81R,0.03937X0.03937*%
%ADD82R,0.05512X0.04134*%
%ADD179C,0.01024*%
%ADD180C,0.00945*%
%ADD181C,0.00984*%
%ADD182C,0.00866*%
%ADD183C,0.00945*%
%ADD184C,0.01406*%
%ADD185C,0.00866*%
%ADD186C,0.00787*%
%ADD187C,0.00591*%
%ADD188C,0.01181*%
%ADD189C,0.01968*%
%ADD190C,0.00417*%
%ADD191C,0.02756*%
%ADD192C,0.03937*%
%ADD193C,0.00394*%
%ADD194C,0.01406*%
%ADD195C,0.01000*%
%ADD196R,0.03543X0.44587*%
%ADD197R,0.25441X0.07972*%
%ADD198R,0.32766X0.03543*%
%ADD199R,0.47923X0.03543*%
%ADD200R,0.03543X0.50492*%
%ADD201R,0.03543X1.28346*%
%ADD202R,0.18049X0.23720*%
%ADD203R,0.15748X0.27500*%
%ADD204R,1.26969X0.03543*%
%ADD205C,0.13780*%
%ADD206C,0.07874*%
%ADD207C,0.08858*%
%ADD208C,0.17323*%
%ADD209C,0.06693*%
%ADD210R,0.06693X0.06693*%
%ADD211C,0.01968*%
%ADD212C,0.02362*%
G36*
X79749Y246288D02*
X77142D01*
Y243631D01*
X75207D01*
X74940Y244131D01*
X74956Y244154D01*
X75047Y244615D01*
Y246584D01*
X74956Y247044D01*
X74695Y247435D01*
X74304Y247696D01*
X73843Y247788D01*
X73382Y247696D01*
X72992Y247435D01*
X72730Y247044D01*
X72639Y246584D01*
Y244615D01*
X72730Y244154D01*
X72746Y244131D01*
X72479Y243631D01*
X72277D01*
X71875Y243711D01*
X71472Y243631D01*
X71270D01*
X71003Y244131D01*
X71019Y244154D01*
X71110Y244615D01*
Y246584D01*
X71019Y247044D01*
X70758Y247435D01*
X70367Y247696D01*
X69906Y247788D01*
X69445Y247696D01*
X69055Y247435D01*
X68793Y247044D01*
X68702Y246584D01*
Y244615D01*
X68793Y244154D01*
X68809Y244131D01*
X68542Y243631D01*
X66607D01*
Y246288D01*
X63705D01*
Y250492D01*
X79749D01*
Y246288D01*
D02*
G37*
G36*
X79823Y245187D02*
Y240174D01*
X79749D01*
X78812Y239987D01*
X78017Y239457D01*
X77486Y238662D01*
X77300Y237725D01*
X77486Y236788D01*
X78017Y235994D01*
X78812Y235463D01*
X79749Y235277D01*
X79823D01*
Y229802D01*
X77781D01*
Y231820D01*
X77594Y232272D01*
X77142Y232459D01*
X75207D01*
X75118Y232422D01*
X75022Y232431D01*
X74900Y232332D01*
X74755Y232272D01*
X74748Y232253D01*
X74304Y231948D01*
X73843Y232040D01*
X73382Y231948D01*
X72939Y232253D01*
X72931Y232272D01*
X72786Y232332D01*
X72664Y232431D01*
X72568Y232422D01*
X72479Y232459D01*
X72277D01*
X72217Y232434D01*
X72152Y232447D01*
X71875Y232391D01*
X71597Y232447D01*
X71533Y232434D01*
X71472Y232459D01*
X71270D01*
X71181Y232422D01*
X71085Y232431D01*
X70963Y232332D01*
X70818Y232272D01*
X70811Y232253D01*
X70367Y231948D01*
X69906Y232040D01*
X69445Y231948D01*
X69002Y232253D01*
X68994Y232272D01*
X68849Y232332D01*
X68727Y232431D01*
X68631Y232422D01*
X68542Y232459D01*
X66607D01*
X66155Y232272D01*
X65968Y231820D01*
Y229802D01*
X63878D01*
Y235237D01*
X64001D01*
X64953Y235426D01*
X65760Y235965D01*
X66300Y236773D01*
X66489Y237725D01*
X66300Y238678D01*
X65760Y239485D01*
X64953Y240024D01*
X64001Y240214D01*
X63878D01*
Y245649D01*
X65968D01*
Y243631D01*
X66155Y243179D01*
X66607Y242991D01*
X68542D01*
X68631Y243028D01*
X68727Y243019D01*
X68849Y243119D01*
X68994Y243179D01*
X69002Y243197D01*
X69445Y243502D01*
X69906Y243411D01*
X70367Y243502D01*
X70811Y243197D01*
X70818Y243179D01*
X70963Y243119D01*
X71085Y243019D01*
X71181Y243028D01*
X71270Y242991D01*
X71472D01*
X71533Y243017D01*
X71597Y243004D01*
X71875Y243059D01*
X72152Y243004D01*
X72217Y243017D01*
X72277Y242991D01*
X72479D01*
X72568Y243028D01*
X72664Y243019D01*
X72786Y243119D01*
X72931Y243179D01*
X72939Y243197D01*
X73382Y243502D01*
X73843Y243411D01*
X74304Y243502D01*
X74748Y243197D01*
X74755Y243179D01*
X74900Y243119D01*
X75022Y243019D01*
X75118Y243028D01*
X75207Y242991D01*
X77142D01*
X77594Y243179D01*
X77781Y243631D01*
Y245649D01*
X79749D01*
X79823Y245187D01*
D02*
G37*
G36*
X186960Y232212D02*
X184558D01*
Y250795D01*
X186960D01*
Y232212D01*
D02*
G37*
G36*
X125064Y226465D02*
X120064D01*
Y217056D01*
X117071D01*
Y223040D01*
X115064D01*
Y217056D01*
X112071D01*
Y223040D01*
X110064D01*
Y217056D01*
X107071D01*
Y231465D01*
X112071D01*
Y240875D01*
X115064D01*
Y231465D01*
X122071D01*
Y240875D01*
X125064D01*
Y226465D01*
D02*
G37*
G36*
X77142Y229162D02*
X79926D01*
Y224213D01*
X63705D01*
Y229162D01*
X66607D01*
Y231820D01*
X68542D01*
X68809Y231320D01*
X68793Y231296D01*
X68702Y230836D01*
Y228867D01*
X68793Y228406D01*
X69055Y228015D01*
X69445Y227754D01*
X69906Y227663D01*
X70367Y227754D01*
X70758Y228015D01*
X71019Y228406D01*
X71110Y228867D01*
Y230836D01*
X71019Y231296D01*
X71003Y231320D01*
X71270Y231820D01*
X71472D01*
X71875Y231740D01*
X72277Y231820D01*
X72479D01*
X72746Y231320D01*
X72730Y231296D01*
X72639Y230836D01*
Y228867D01*
X72730Y228406D01*
X72992Y228015D01*
X73382Y227754D01*
X73843Y227663D01*
X74304Y227754D01*
X74695Y228015D01*
X74956Y228406D01*
X75047Y228867D01*
Y230836D01*
X74956Y231296D01*
X74940Y231320D01*
X75207Y231820D01*
X77142D01*
Y229162D01*
D02*
G37*
G36*
X163406Y220886D02*
X161004D01*
Y239469D01*
X163406D01*
Y220886D01*
D02*
G37*
G36*
X235434Y208681D02*
X234614Y207862D01*
X234378Y207897D01*
X234114Y208093D01*
Y208169D01*
X232476D01*
X231964Y208681D01*
X233603Y210319D01*
X233795D01*
X235434Y208681D01*
D02*
G37*
G36*
X323698Y209972D02*
X324458Y209657D01*
X325434Y208681D01*
X323741Y206988D01*
X323657D01*
X321964Y208681D01*
X323329Y210045D01*
X323698Y209972D01*
D02*
G37*
G36*
X208470Y272038D02*
X208470Y272038D01*
X209041Y272038D01*
X210162Y271815D01*
X211219Y271377D01*
X212169Y270742D01*
X212574Y270338D01*
X212965Y269947D01*
X213579Y269027D01*
X214002Y268006D01*
X214218Y266921D01*
X214218Y266368D01*
X214218Y206114D01*
X210674Y206108D01*
X210674Y262775D01*
X210673Y262775D01*
X210647Y263310D01*
X210438Y264361D01*
X210029Y265350D01*
X209434Y266241D01*
X209074Y266638D01*
X209073Y266638D01*
X208608Y267060D01*
X207564Y267757D01*
X206404Y268238D01*
X205173Y268482D01*
X204545Y268513D01*
X17418Y268513D01*
X17424Y272038D01*
X208470Y272038D01*
D02*
G37*
G36*
X302934Y201181D02*
X301199Y199446D01*
X299464Y201181D01*
X300536Y202253D01*
X301862D01*
X302934Y201181D01*
D02*
G37*
G36*
X297934D02*
X296199Y199446D01*
X294464Y201181D01*
X295536Y202253D01*
X296862D01*
X297934Y201181D01*
D02*
G37*
G36*
X312934D02*
X311199Y199446D01*
X309464Y201181D01*
X310536Y202253D01*
X311862D01*
X312934Y201181D01*
D02*
G37*
G36*
X307934D02*
X306199Y199446D01*
X304464Y201181D01*
X305536Y202253D01*
X306862D01*
X307934Y201181D01*
D02*
G37*
G36*
X317934D02*
X316199Y199446D01*
X314464Y201181D01*
X315536Y202253D01*
X316862D01*
X317934Y201181D01*
D02*
G37*
G36*
X300434Y198681D02*
X299935Y198183D01*
X299405Y198113D01*
X298208Y197617D01*
X298106Y197539D01*
X296964Y198681D01*
X298699Y200416D01*
X300434Y198681D01*
D02*
G37*
G36*
X310434D02*
X309216Y197464D01*
X309077Y197571D01*
X307880Y198067D01*
X307533Y198112D01*
X306964Y198681D01*
X308699Y200416D01*
X310434Y198681D01*
D02*
G37*
G36*
X315434D02*
X314018Y197266D01*
X313745Y197379D01*
X313194Y197452D01*
X311964Y198681D01*
X313699Y200416D01*
X315434Y198681D01*
D02*
G37*
G36*
X305434D02*
X304472Y197720D01*
X304113Y197571D01*
X303672Y197233D01*
X303172Y197617D01*
X302927Y197718D01*
X301964Y198681D01*
X303699Y200416D01*
X305434Y198681D01*
D02*
G37*
G36*
X319980Y199134D02*
Y198228D01*
X318699Y196947D01*
X316964Y198681D01*
X318699Y200416D01*
X319980Y199134D01*
D02*
G37*
G36*
X133212Y196678D02*
X114629D01*
Y199079D01*
X133212D01*
Y196678D01*
D02*
G37*
G36*
X192913Y189291D02*
X192413Y189004D01*
X191938Y189099D01*
X191324Y188977D01*
X190803Y188628D01*
X190455Y188108D01*
X190333Y187493D01*
X190455Y186879D01*
X190803Y186358D01*
Y186069D01*
X190455Y185548D01*
X190333Y184934D01*
X190455Y184320D01*
X190803Y183799D01*
Y183510D01*
X190455Y182989D01*
X190333Y182375D01*
X190455Y181761D01*
X190658Y181457D01*
X190297Y181097D01*
X189994Y181299D01*
X189379Y181422D01*
X188765Y181299D01*
X188244Y180951D01*
X187896Y180430D01*
X187774Y179816D01*
X187849Y179437D01*
X187517Y178937D01*
X186110D01*
X185781Y179437D01*
X185858Y179823D01*
X185735Y180437D01*
X185387Y180958D01*
X184866Y181306D01*
X184252Y181429D01*
X183637Y181306D01*
X183117Y180958D01*
X182768Y180437D01*
X182646Y179823D01*
X182723Y179437D01*
X182394Y178937D01*
X180709D01*
Y185707D01*
X181209Y185986D01*
X181702Y185887D01*
X182317Y186010D01*
X182837Y186358D01*
X183186Y186879D01*
X183308Y187493D01*
X183186Y188108D01*
X182983Y188411D01*
X183343Y188771D01*
X183647Y188569D01*
X184261Y188446D01*
X184876Y188569D01*
X185397Y188917D01*
X185440Y188982D01*
X186065Y189018D01*
X186321Y188847D01*
X186820Y188748D01*
X187319Y188847D01*
X187743Y189130D01*
X187799Y189214D01*
X188400D01*
X188457Y189130D01*
X188880Y188847D01*
X189379Y188748D01*
X189878Y188847D01*
X190302Y189130D01*
X190585Y189553D01*
X190684Y190052D01*
X190585Y190551D01*
X190857Y191043D01*
X192913D01*
Y189291D01*
D02*
G37*
G36*
X232934Y181181D02*
X231780Y180027D01*
X231281Y180060D01*
X231040Y180374D01*
X230092Y181101D01*
X229935Y181652D01*
X231199Y182916D01*
X232934Y181181D01*
D02*
G37*
G36*
X234996Y179119D02*
X234545Y178030D01*
X234509Y177757D01*
X233699Y176946D01*
X232203Y178443D01*
X232063Y178780D01*
X233699Y180416D01*
X234996Y179119D01*
D02*
G37*
G36*
X235434Y173681D02*
X234089Y172337D01*
X233599Y172434D01*
X233504Y172665D01*
X232715Y173693D01*
X232598Y173783D01*
X232565Y174282D01*
X233699Y175416D01*
X235434Y173681D01*
D02*
G37*
G36*
X142520Y173228D02*
X141339Y172047D01*
X139961D01*
Y176969D01*
X142520D01*
Y173228D01*
D02*
G37*
G36*
X205434Y163681D02*
X203699Y161946D01*
X201964Y163681D01*
X203699Y165416D01*
X205434Y163681D01*
D02*
G37*
G36*
X229005Y165110D02*
X230434Y163681D01*
X228699Y161946D01*
X226964Y163681D01*
X228407Y165124D01*
X229005Y165110D01*
D02*
G37*
G36*
X207934Y161181D02*
X206199Y159447D01*
X204464Y161181D01*
X206199Y162916D01*
X207934Y161181D01*
D02*
G37*
G36*
X231343Y162528D02*
X231722Y162034D01*
X232490Y161445D01*
X232568Y160816D01*
X231199Y159447D01*
X229464Y161181D01*
X230844Y162561D01*
X231343Y162528D01*
D02*
G37*
G36*
X227934Y161181D02*
X226199Y159447D01*
X224464Y161181D01*
X226199Y162916D01*
X227934Y161181D01*
D02*
G37*
G36*
X230434Y158681D02*
X228699Y156947D01*
X226964Y158681D01*
X228699Y160416D01*
X230434Y158681D01*
D02*
G37*
G36*
X205434D02*
X203699Y156947D01*
X201964Y158681D01*
X203699Y160416D01*
X205434Y158681D01*
D02*
G37*
G36*
X240112Y159003D02*
X240104Y158352D01*
X238699Y156947D01*
X236964Y158681D01*
X238699Y160416D01*
X240112Y159003D01*
D02*
G37*
G36*
X225434Y158681D02*
X223699Y156947D01*
X221964Y158681D01*
X223699Y160416D01*
X225434Y158681D01*
D02*
G37*
G36*
X235434D02*
X233699Y156947D01*
X231964Y158681D01*
X233699Y160416D01*
X235434Y158681D01*
D02*
G37*
G36*
X227934Y156181D02*
X226199Y154446D01*
X224464Y156181D01*
X226199Y157916D01*
X227934Y156181D01*
D02*
G37*
G36*
X207934D02*
X206199Y154446D01*
X204464Y156181D01*
X206199Y157916D01*
X207934Y156181D01*
D02*
G37*
G36*
X237934D02*
X236199Y154446D01*
X234464Y156181D01*
X236199Y157916D01*
X237934Y156181D01*
D02*
G37*
G36*
X232934D02*
X231199Y154446D01*
X229464Y156181D01*
X231199Y157916D01*
X232934Y156181D01*
D02*
G37*
G36*
X225434Y153681D02*
X224705Y152953D01*
X222693D01*
X221964Y153681D01*
X223699Y155416D01*
X225434Y153681D01*
D02*
G37*
G36*
X250099Y154016D02*
X250202Y153486D01*
X250081Y153328D01*
X248699Y151946D01*
X247345Y153301D01*
X247442Y153791D01*
X247752Y153920D01*
X248780Y154708D01*
X248821Y154762D01*
X249320Y154795D01*
X250099Y154016D01*
D02*
G37*
G36*
X235434Y153681D02*
X233699Y151946D01*
X231964Y153681D01*
X233699Y155416D01*
X235434Y153681D01*
D02*
G37*
G36*
X205434D02*
X203699Y151946D01*
X201964Y153681D01*
X203699Y155416D01*
X205434Y153681D01*
D02*
G37*
G36*
X230434D02*
X228699Y151946D01*
X226964Y153681D01*
X228699Y155416D01*
X230434Y153681D01*
D02*
G37*
G36*
X240434D02*
X238699Y151946D01*
X236964Y153681D01*
X238699Y155416D01*
X240434Y153681D01*
D02*
G37*
G36*
X232934Y151181D02*
X231199Y149446D01*
X229464Y151181D01*
X231199Y152916D01*
X232934Y151181D01*
D02*
G37*
G36*
X247934D02*
X246199Y149446D01*
X244464Y151181D01*
X246199Y152916D01*
X247934Y151181D01*
D02*
G37*
G36*
X237934D02*
X236199Y149446D01*
X234464Y151181D01*
X236199Y152916D01*
X237934Y151181D01*
D02*
G37*
G36*
X242934D02*
X241199Y149446D01*
X239464Y151181D01*
X241199Y152916D01*
X242934Y151181D01*
D02*
G37*
G36*
X245434Y148681D02*
X243699Y146947D01*
X241964Y148681D01*
X243699Y150416D01*
X245434Y148681D01*
D02*
G37*
G36*
X240434D02*
X238699Y146947D01*
X236964Y148681D01*
X238699Y150416D01*
X240434Y148681D01*
D02*
G37*
G36*
X311434Y147444D02*
X312057Y146632D01*
X312507Y146286D01*
X312540Y145788D01*
X311199Y144447D01*
X309464Y146181D01*
X310822Y147539D01*
X311434Y147444D01*
D02*
G37*
G36*
X320434Y143681D02*
X318699Y141946D01*
X317310Y143335D01*
Y144027D01*
X318699Y145416D01*
X320434Y143681D01*
D02*
G37*
G36*
X125197Y136740D02*
X124805Y136531D01*
X124697Y136529D01*
X124114Y136645D01*
X123500Y136523D01*
X122979Y136175D01*
X122631Y135654D01*
X122509Y135039D01*
X122631Y134425D01*
X122819Y134143D01*
X122459Y133782D01*
X122170Y133976D01*
X121555Y134098D01*
X120941Y133976D01*
X120420Y133627D01*
X120376Y133562D01*
X119751Y133527D01*
X119495Y133697D01*
X118996Y133797D01*
X118497Y133697D01*
X118074Y133415D01*
X118017Y133330D01*
X117416D01*
X117359Y133415D01*
X116936Y133697D01*
X116437Y133797D01*
X115938Y133697D01*
X115515Y133415D01*
X115232Y132991D01*
X115132Y132492D01*
X115232Y131993D01*
X115295Y131898D01*
X115028Y131398D01*
X112697D01*
Y133345D01*
X113197Y133612D01*
X113263Y133568D01*
X113878Y133446D01*
X114492Y133568D01*
X115013Y133916D01*
X115361Y134437D01*
X115484Y135051D01*
X115361Y135666D01*
X115013Y136187D01*
Y136475D01*
X115361Y136996D01*
X115484Y137610D01*
X115361Y138225D01*
X115087Y138635D01*
X115019Y138829D01*
X115050Y139322D01*
X115263Y139641D01*
X115385Y140256D01*
X115263Y140870D01*
X115085Y141136D01*
X115446Y141497D01*
X115823Y141245D01*
X116437Y141123D01*
X117051Y141245D01*
X117572Y141593D01*
X117920Y142114D01*
X118043Y142728D01*
X117929Y143299D01*
X117945Y143424D01*
X118146Y143799D01*
X119846D01*
X120047Y143424D01*
X120063Y143299D01*
X119949Y142728D01*
X120072Y142114D01*
X120420Y141593D01*
X120941Y141245D01*
X121555Y141123D01*
X122170Y141245D01*
X122690Y141593D01*
X123039Y142114D01*
X123161Y142728D01*
X123047Y143299D01*
X123063Y143424D01*
X123264Y143799D01*
X125197D01*
Y136740D01*
D02*
G37*
G36*
X222342Y134976D02*
X221843Y134696D01*
X221353Y134794D01*
X220738Y134671D01*
X220217Y134323D01*
X219869Y133802D01*
X219747Y133188D01*
X219847Y132685D01*
X219573Y132185D01*
X219042D01*
X218794Y132235D01*
X218545Y132185D01*
X212697D01*
Y133062D01*
X212722Y133188D01*
X212697Y133314D01*
Y135621D01*
X212722Y135747D01*
X212697Y135873D01*
Y138180D01*
X212722Y138306D01*
X212697Y138432D01*
Y139069D01*
X213197Y139355D01*
X213675Y139260D01*
X214290Y139382D01*
X214811Y139730D01*
X215159Y140251D01*
X215281Y140865D01*
X215159Y141480D01*
X215127Y141528D01*
X215394Y142028D01*
X217180D01*
X217479Y141527D01*
X217390Y141079D01*
X217513Y140465D01*
X217861Y139944D01*
X218382Y139596D01*
X218996Y139474D01*
X219611Y139596D01*
X220131Y139944D01*
X220479Y140465D01*
X220602Y141079D01*
X220513Y141527D01*
X220812Y142028D01*
X222342D01*
Y134976D01*
D02*
G37*
G36*
X245434Y123681D02*
X243699Y121947D01*
X241964Y123681D01*
X243699Y125416D01*
X245434Y123681D01*
D02*
G37*
G36*
X242934Y121181D02*
X241199Y119447D01*
X240551Y120094D01*
Y120374D01*
Y122268D01*
X241199Y122916D01*
X242934Y121181D01*
D02*
G37*
G36*
X247934D02*
X246199Y119447D01*
X244464Y121181D01*
X246199Y122916D01*
X247934Y121181D01*
D02*
G37*
G36*
X245434Y118681D02*
X243699Y116946D01*
X241964Y118681D01*
X243699Y120416D01*
X245434Y118681D01*
D02*
G37*
G36*
X297934Y116181D02*
X296199Y114446D01*
X294464Y116181D01*
X296199Y117916D01*
X297934Y116181D01*
D02*
G37*
G36*
X302934D02*
X301199Y114446D01*
X299464Y116181D01*
X301199Y117916D01*
X302934Y116181D01*
D02*
G37*
G36*
X307934D02*
X306199Y114446D01*
X304464Y116181D01*
X306199Y117916D01*
X307934Y116181D01*
D02*
G37*
G36*
X292934D02*
X291199Y114446D01*
X289464Y116181D01*
X291199Y117916D01*
X292934Y116181D01*
D02*
G37*
G36*
X242934D02*
X241199Y114446D01*
X240551Y115094D01*
Y117268D01*
X241199Y117916D01*
X242934Y116181D01*
D02*
G37*
G36*
X300434Y113681D02*
X299860Y113107D01*
X297538D01*
X296964Y113681D01*
X298699Y115416D01*
X300434Y113681D01*
D02*
G37*
G36*
X305434D02*
X303699Y111946D01*
X301964Y113681D01*
X303699Y115416D01*
X305434Y113681D01*
D02*
G37*
G36*
X128642Y105689D02*
X128142Y105474D01*
X127780Y105716D01*
X127165Y105838D01*
X126551Y105716D01*
X126030Y105368D01*
X125682Y104847D01*
X125560Y104232D01*
X125682Y103618D01*
X125885Y103314D01*
X125524Y102954D01*
X125221Y103157D01*
X124606Y103279D01*
X123992Y103157D01*
X123471Y102809D01*
X123427Y102743D01*
X122802Y102708D01*
X122547Y102878D01*
X122047Y102978D01*
X121548Y102878D01*
X121125Y102596D01*
X121068Y102511D01*
X120467D01*
X120411Y102596D01*
X119987Y102878D01*
X119488Y102978D01*
X118989Y102878D01*
X118566Y102596D01*
X118283Y102173D01*
X118184Y101673D01*
X118283Y101174D01*
X118508Y100838D01*
X118408Y100518D01*
X118286Y100338D01*
X115551D01*
Y102658D01*
X116051Y102925D01*
X116315Y102749D01*
X116929Y102627D01*
X117544Y102749D01*
X118064Y103097D01*
X118413Y103618D01*
X118535Y104232D01*
X118413Y104847D01*
X118064Y105368D01*
Y105656D01*
X118413Y106177D01*
X118535Y106791D01*
X118413Y107406D01*
X118064Y107927D01*
Y108215D01*
X118413Y108736D01*
X118535Y109350D01*
X118413Y109965D01*
X118210Y110268D01*
X118570Y110629D01*
X118874Y110426D01*
X119488Y110304D01*
X120103Y110426D01*
X120624Y110774D01*
X120972Y111295D01*
X121094Y111909D01*
X120972Y112524D01*
X120927Y112591D01*
X121194Y113091D01*
X122900D01*
X123167Y112591D01*
X123123Y112524D01*
X123001Y111909D01*
X123123Y111295D01*
X123471Y110774D01*
X123992Y110426D01*
X124606Y110304D01*
X125221Y110426D01*
X125742Y110774D01*
X126090Y111295D01*
X126212Y111909D01*
X126090Y112524D01*
X126045Y112591D01*
X126312Y113091D01*
X128642D01*
Y105689D01*
D02*
G37*
G36*
X307664Y111451D02*
X307719Y110966D01*
X307470Y110718D01*
X306589Y110602D01*
X305497Y110149D01*
X304464Y111181D01*
X306199Y112916D01*
X307664Y111451D01*
D02*
G37*
G36*
X256955Y113223D02*
X257225Y113042D01*
X257071Y112812D01*
X256987Y112390D01*
Y110027D01*
X257071Y109605D01*
X257310Y109247D01*
X257668Y109007D01*
X258091Y108923D01*
X258513Y109007D01*
X258825Y109216D01*
X258977Y109257D01*
X259173D01*
X259324Y109216D01*
X259637Y109007D01*
X260059Y108923D01*
X260482Y109007D01*
X260840Y109247D01*
X260847Y109257D01*
X261240D01*
X261247Y109247D01*
X261605Y109007D01*
X262028Y108923D01*
X262450Y109007D01*
X262762Y109216D01*
X262913Y109257D01*
X263110D01*
X263261Y109216D01*
X263574Y109007D01*
X263996Y108923D01*
X264419Y109007D01*
X264731Y109216D01*
X264882Y109257D01*
X265079D01*
X265230Y109216D01*
X265542Y109007D01*
X265965Y108923D01*
X266387Y109007D01*
X266745Y109247D01*
X266752Y109257D01*
X267146D01*
X267153Y109247D01*
X267511Y109007D01*
X267933Y108923D01*
X268356Y109007D01*
X268714Y109247D01*
X268953Y109605D01*
X269037Y110027D01*
Y112069D01*
X269309Y112350D01*
X272853D01*
Y109456D01*
X272813Y109414D01*
X272459Y109203D01*
X272165Y109261D01*
X269803D01*
X269381Y109177D01*
X269023Y108938D01*
X268783Y108580D01*
X268699Y108157D01*
X268783Y107735D01*
X269023Y107377D01*
X269033Y107370D01*
Y106976D01*
X269023Y106969D01*
X268783Y106611D01*
X268699Y106189D01*
X268783Y105766D01*
X268992Y105454D01*
X269033Y105303D01*
Y105106D01*
X268992Y104955D01*
X268783Y104643D01*
X268699Y104220D01*
X268783Y103798D01*
X269023Y103440D01*
X269381Y103200D01*
X269803Y103116D01*
X272165D01*
X272459Y103175D01*
X272853Y102940D01*
Y101581D01*
X272813Y101540D01*
X272459Y101329D01*
X272165Y101387D01*
X269803D01*
X269381Y101303D01*
X269023Y101064D01*
X268783Y100706D01*
X268699Y100283D01*
X268783Y99861D01*
X268992Y99548D01*
X269033Y99397D01*
Y99200D01*
X268992Y99050D01*
X268783Y98737D01*
X268699Y98315D01*
X268783Y97892D01*
X269023Y97534D01*
X269381Y97295D01*
X269803Y97211D01*
X270833D01*
X271022Y97173D01*
X272853D01*
Y95444D01*
X272355D01*
X272165Y95481D01*
X269803D01*
X269381Y95398D01*
X269023Y95158D01*
X268783Y94800D01*
X268699Y94378D01*
X268783Y93955D01*
X269023Y93597D01*
X269381Y93358D01*
X269803Y93274D01*
X270833D01*
X271022Y93236D01*
X272821D01*
X272853Y93204D01*
Y92489D01*
X272552Y92039D01*
X272430Y91425D01*
X272552Y90810D01*
X272853Y90360D01*
Y89555D01*
X269290D01*
X269271Y89564D01*
X268998Y89948D01*
X269037Y90145D01*
Y92508D01*
X268953Y92930D01*
X268714Y93288D01*
X268356Y93527D01*
X267933Y93612D01*
X267511Y93527D01*
X267153Y93288D01*
X266913Y92930D01*
X266829Y92508D01*
Y91411D01*
X266436Y91373D01*
X266258Y92264D01*
X265728Y93058D01*
X264933Y93589D01*
X263996Y93775D01*
X263059Y93589D01*
X262265Y93058D01*
X262242Y93035D01*
X261711Y92241D01*
X261557Y91464D01*
X261163Y91502D01*
Y92508D01*
X261079Y92930D01*
X260840Y93288D01*
X260482Y93527D01*
X260059Y93612D01*
X259637Y93527D01*
X259324Y93319D01*
X259173Y93278D01*
X258977D01*
X258825Y93319D01*
X258513Y93527D01*
X258091Y93612D01*
X257668Y93527D01*
X257356Y93319D01*
X257205Y93278D01*
X257008D01*
X256857Y93319D01*
X256545Y93527D01*
X256122Y93612D01*
X255700Y93527D01*
X255342Y93288D01*
X255102Y92930D01*
X255018Y92508D01*
Y90407D01*
X254921Y90310D01*
X254787Y90110D01*
X254232Y89555D01*
X249310D01*
Y94435D01*
X249886Y95011D01*
X250086Y95144D01*
X250183Y95242D01*
X252284D01*
X252706Y95326D01*
X253064Y95566D01*
X253304Y95924D01*
X253387Y96346D01*
X253304Y96769D01*
X253095Y97081D01*
X253054Y97232D01*
Y97429D01*
X253095Y97580D01*
X253304Y97892D01*
X253387Y98315D01*
X253304Y98737D01*
X253095Y99050D01*
X253054Y99200D01*
Y99397D01*
X253095Y99548D01*
X253304Y99861D01*
X253387Y100283D01*
X253304Y100706D01*
X253064Y101064D01*
X253054Y101071D01*
Y101464D01*
X253064Y101471D01*
X253304Y101829D01*
X253387Y102252D01*
X253304Y102674D01*
X253095Y102987D01*
X253054Y103137D01*
Y103334D01*
X253095Y103485D01*
X253304Y103798D01*
X253387Y104220D01*
X253304Y104643D01*
X253095Y104955D01*
X253054Y105106D01*
Y105303D01*
X253095Y105454D01*
X253304Y105766D01*
X253387Y106189D01*
X253304Y106611D01*
X253064Y106969D01*
X253054Y106976D01*
Y107370D01*
X253064Y107377D01*
X253304Y107735D01*
X253387Y108157D01*
X253304Y108580D01*
X253064Y108938D01*
X252706Y109177D01*
X252284Y109261D01*
X249921D01*
X249704Y109218D01*
X249330Y109474D01*
X249310Y109510D01*
Y110692D01*
X249318Y110704D01*
X249440Y111319D01*
X249318Y111933D01*
X249310Y111946D01*
Y113472D01*
X253150D01*
Y112836D01*
X253134Y112812D01*
X253050Y112390D01*
Y110027D01*
X253134Y109605D01*
X253373Y109247D01*
X253731Y109007D01*
X254154Y108923D01*
X254576Y109007D01*
X254934Y109247D01*
X255173Y109605D01*
X255258Y110027D01*
Y112390D01*
X255173Y112812D01*
X255157Y112836D01*
Y113472D01*
X256789D01*
X256955Y113223D01*
D02*
G37*
G36*
X222539Y103518D02*
X222039Y103239D01*
X221548Y103336D01*
X220934Y103214D01*
X220413Y102866D01*
X220065Y102345D01*
X219942Y101731D01*
X220047Y101206D01*
X219783Y100706D01*
X219349D01*
X218989Y100777D01*
X218629Y100706D01*
X212835D01*
Y101317D01*
X212917Y101731D01*
X212835Y102144D01*
Y103876D01*
X212917Y104290D01*
X212835Y104703D01*
Y106435D01*
X212917Y106849D01*
X212835Y107262D01*
Y107674D01*
X213335Y107909D01*
X213871Y107802D01*
X214485Y107924D01*
X215006Y108273D01*
X215354Y108793D01*
X215476Y109408D01*
X215372Y109933D01*
X215635Y110433D01*
X217224D01*
X217488Y109933D01*
X217383Y109408D01*
X217506Y108793D01*
X217854Y108273D01*
X218374Y107924D01*
X218989Y107802D01*
X219603Y107924D01*
X220124Y108273D01*
X220472Y108793D01*
X220595Y109408D01*
X220490Y109933D01*
X220754Y110433D01*
X222539D01*
Y103518D01*
D02*
G37*
G36*
X325434Y103681D02*
X323699Y101946D01*
X321964Y103681D01*
X323699Y105416D01*
X325434Y103681D01*
D02*
G37*
G36*
X330101Y104014D02*
Y103348D01*
X328699Y101946D01*
X326964Y103681D01*
X328699Y105416D01*
X330101Y104014D01*
D02*
G37*
G36*
X322934Y101181D02*
X321199Y99446D01*
X320015Y100630D01*
X319985Y100703D01*
X319678Y101103D01*
X320093Y101644D01*
X320209Y101926D01*
X321199Y102916D01*
X322934Y101181D01*
D02*
G37*
G36*
X327934D02*
X326199Y99446D01*
X324464Y101181D01*
X326199Y102916D01*
X327934Y101181D01*
D02*
G37*
G36*
X305434Y98681D02*
X303699Y96947D01*
X301997Y98648D01*
Y98714D01*
X303699Y100416D01*
X305434Y98681D01*
D02*
G37*
G36*
X330101Y99014D02*
Y98348D01*
X328699Y96947D01*
X326964Y98681D01*
X328699Y100416D01*
X330101Y99014D01*
D02*
G37*
G36*
X310434Y98681D02*
X308699Y96947D01*
X306964Y98681D01*
X308699Y100416D01*
X310434Y98681D01*
D02*
G37*
G36*
X325434D02*
X323699Y96947D01*
X321964Y98681D01*
X323699Y100416D01*
X325434Y98681D01*
D02*
G37*
G36*
X322934Y96181D02*
X321927Y95175D01*
X320732D01*
X320295Y95356D01*
X320289Y95357D01*
X319985Y95740D01*
X320481Y96937D01*
X320520Y97237D01*
X321199Y97916D01*
X322934Y96181D01*
D02*
G37*
G36*
X307934D02*
X306927Y95175D01*
X305471D01*
X304464Y96181D01*
X306199Y97916D01*
X307934Y96181D01*
D02*
G37*
G36*
X327934D02*
X326435Y94682D01*
X325943Y94898D01*
Y95175D01*
X325470D01*
X324464Y96181D01*
X326199Y97916D01*
X327934Y96181D01*
D02*
G37*
G36*
X330101Y94014D02*
Y93348D01*
X329686Y92933D01*
X327712D01*
X326964Y93681D01*
X328699Y95416D01*
X330101Y94014D01*
D02*
G37*
G36*
X312163Y91951D02*
Y90411D01*
X311199Y89447D01*
X309464Y91181D01*
X311199Y92916D01*
X312163Y91951D01*
D02*
G37*
G36*
X232934Y86181D02*
X231539Y84786D01*
X230859D01*
X229717Y85928D01*
X229925Y86428D01*
X230906D01*
Y87502D01*
X231344Y87771D01*
X232934Y86181D01*
D02*
G37*
G36*
X312163Y86951D02*
Y85411D01*
X311199Y84447D01*
X309464Y86181D01*
X311199Y87916D01*
X312163Y86951D01*
D02*
G37*
G36*
Y81951D02*
Y80411D01*
Y80411D01*
X311199Y79447D01*
X309464Y81181D01*
X311199Y82916D01*
X312163Y81951D01*
D02*
G37*
G36*
X275333Y81707D02*
X274251Y80624D01*
Y69600D01*
X275333Y68518D01*
Y64285D01*
X271790D01*
Y68518D01*
X272873Y69600D01*
Y80624D01*
X271790Y81707D01*
Y85939D01*
X275333D01*
Y81707D01*
D02*
G37*
G36*
X319980Y64134D02*
Y63228D01*
X318699Y61946D01*
X317096Y63549D01*
X317417Y63967D01*
X317534Y64251D01*
X318699Y65416D01*
X319980Y64134D01*
D02*
G37*
G36*
X327769Y61345D02*
X326824Y60400D01*
X325878Y59768D01*
X324464Y61181D01*
X325390Y62106D01*
X327008D01*
X327769Y61345D01*
D02*
G37*
G36*
X322934Y61181D02*
X321199Y59447D01*
X319464Y61181D01*
X320390Y62106D01*
X322008D01*
X322934Y61181D01*
D02*
G37*
G36*
X317934D02*
X316199Y59447D01*
X314464Y61181D01*
X315316Y62032D01*
X315600Y62150D01*
X316372Y62743D01*
X317934Y61181D01*
D02*
G37*
G36*
X199488Y33484D02*
X194488D01*
Y24075D01*
X191496D01*
Y30059D01*
X189488D01*
Y24075D01*
X186496D01*
Y30059D01*
X184488D01*
Y24075D01*
X181496D01*
Y38484D01*
X186496D01*
Y47894D01*
X189488D01*
Y38484D01*
X196496D01*
Y47894D01*
X199488D01*
Y33484D01*
D02*
G37*
G36*
X137323Y36575D02*
X134921D01*
Y55158D01*
X137323D01*
Y36575D01*
D02*
G37*
G36*
X137894Y14370D02*
X135335D01*
Y18110D01*
X136516Y19291D01*
X137894D01*
Y14370D01*
D02*
G37*
G36*
X161398Y7343D02*
X158996D01*
Y25925D01*
X161398D01*
Y7343D01*
D02*
G37*
G36*
X4201Y9853D02*
Y9853D01*
X4228Y9318D01*
X4436Y8268D01*
X4846Y7278D01*
X5441Y6388D01*
X5801Y5991D01*
X5801D01*
X6267Y5568D01*
X7311Y4871D01*
X8471Y4391D01*
X9702Y4146D01*
X10329Y4115D01*
X43600Y4115D01*
X43595Y591D01*
X5834D01*
X4713Y814D01*
X3656Y1251D01*
X2706Y1886D01*
X2301Y2290D01*
X2301Y2291D01*
X1910Y2682D01*
X1296Y3601D01*
X873Y4623D01*
X657Y5707D01*
Y6260D01*
Y27538D01*
X4201Y27544D01*
X4201Y9853D01*
D02*
G37*
G36*
X213889Y82872D02*
X213889Y6338D01*
X213889Y6338D01*
X213889Y5766D01*
X213666Y4645D01*
X213228Y3589D01*
X212593Y2638D01*
X212189Y2234D01*
X212189Y2234D01*
X211798Y1843D01*
X210878Y1229D01*
X209857Y805D01*
X208772Y590D01*
X43647D01*
X43642Y4134D01*
X204626D01*
X205161Y4160D01*
X206212Y4369D01*
X207201Y4779D01*
X208092Y5374D01*
X208489Y5734D01*
X208489Y5734D01*
X208911Y6199D01*
X209608Y7243D01*
X210089Y8403D01*
X210334Y9634D01*
X210364Y10262D01*
X210364Y82878D01*
X213889Y82872D01*
D02*
G37*
D10*
X106496Y122736D02*
D03*
X112795D02*
D03*
X122540Y149311D02*
D03*
X116241D02*
D03*
X161122Y31102D02*
D03*
X154823D02*
D03*
X181097Y147024D02*
D03*
X187396D02*
D03*
X218898Y92334D02*
D03*
X225197D02*
D03*
X220079Y116425D02*
D03*
X213779D02*
D03*
X205750Y92618D02*
D03*
X212049D02*
D03*
X199193Y98819D02*
D03*
X205492D02*
D03*
X111024Y98032D02*
D03*
X104724D02*
D03*
X193110Y215945D02*
D03*
X186811D02*
D03*
X206693Y178543D02*
D03*
X200394D02*
D03*
X219965Y147047D02*
D03*
X213666D02*
D03*
X264567Y171260D02*
D03*
X270866D02*
D03*
X282283D02*
D03*
X275984D02*
D03*
X207283Y124016D02*
D03*
X213583D02*
D03*
X195669Y119685D02*
D03*
X201969D02*
D03*
X80807Y206496D02*
D03*
X74508D02*
D03*
X107944Y61140D02*
D03*
X101645D02*
D03*
X120509D02*
D03*
X114210D02*
D03*
X166339Y55807D02*
D03*
X160039D02*
D03*
X196725Y144980D02*
D03*
X203024D02*
D03*
X66131Y62205D02*
D03*
X59832D02*
D03*
X288296Y85913D02*
D03*
X281996D02*
D03*
X281022Y100337D02*
D03*
X287321D02*
D03*
D11*
X131988Y129626D02*
D03*
Y123327D02*
D03*
X76870Y67913D02*
D03*
Y74213D02*
D03*
X133688Y101279D02*
D03*
Y107579D02*
D03*
X133661Y112259D02*
D03*
Y118559D02*
D03*
X110630Y27854D02*
D03*
Y21555D02*
D03*
X195571Y113189D02*
D03*
Y106890D02*
D03*
X44193Y182382D02*
D03*
Y188681D02*
D03*
X301573Y78458D02*
D03*
Y72159D02*
D03*
X295360Y78922D02*
D03*
Y85221D02*
D03*
X91528Y182496D02*
D03*
Y188795D02*
D03*
X48917Y68012D02*
D03*
Y74311D02*
D03*
X148622Y218898D02*
D03*
Y212598D02*
D03*
X260182Y176279D02*
D03*
Y182579D02*
D03*
X254528Y182579D02*
D03*
Y176279D02*
D03*
X102165Y206594D02*
D03*
Y200295D02*
D03*
X53150Y200394D02*
D03*
Y206693D02*
D03*
X149442Y246337D02*
D03*
Y252636D02*
D03*
X59547Y255610D02*
D03*
Y249311D02*
D03*
X59571Y217351D02*
D03*
Y223650D02*
D03*
D12*
X242815Y97264D02*
D03*
Y100965D02*
D03*
X71949Y253031D02*
D03*
Y249331D02*
D03*
X71816Y221772D02*
D03*
Y225472D02*
D03*
X159941Y59961D02*
D03*
Y63661D02*
D03*
X57469Y182260D02*
D03*
Y178559D02*
D03*
X187992Y163898D02*
D03*
Y167598D02*
D03*
Y156929D02*
D03*
Y160630D02*
D03*
X57469Y185646D02*
D03*
Y189346D02*
D03*
X114567Y46575D02*
D03*
Y50276D02*
D03*
X76772Y60256D02*
D03*
Y63957D02*
D03*
X173622Y49488D02*
D03*
Y45787D02*
D03*
X85020Y29531D02*
D03*
Y33232D02*
D03*
X77348Y29531D02*
D03*
Y33232D02*
D03*
X81184Y29531D02*
D03*
Y33232D02*
D03*
X69676Y29531D02*
D03*
Y33232D02*
D03*
X73512Y29531D02*
D03*
Y33232D02*
D03*
X66394Y29531D02*
D03*
Y33232D02*
D03*
X61211Y29531D02*
D03*
Y33232D02*
D03*
X79626Y199094D02*
D03*
Y195394D02*
D03*
X196949Y51398D02*
D03*
Y55098D02*
D03*
X309744Y184665D02*
D03*
Y188366D02*
D03*
X118799Y250197D02*
D03*
Y246496D02*
D03*
X96382Y233808D02*
D03*
Y237509D02*
D03*
X286002Y159871D02*
D03*
Y163572D02*
D03*
X276488Y159915D02*
D03*
Y163615D02*
D03*
D13*
X239094Y104528D02*
D03*
X242795D02*
D03*
X144606Y121161D02*
D03*
X148307D02*
D03*
X187416Y134664D02*
D03*
X191116D02*
D03*
X179055Y134780D02*
D03*
X182756D02*
D03*
X141220Y121161D02*
D03*
X137520D02*
D03*
X251881Y130500D02*
D03*
X255582D02*
D03*
X259035Y125984D02*
D03*
X255335D02*
D03*
X250571Y74606D02*
D03*
X246870D02*
D03*
X263209Y125984D02*
D03*
X266910D02*
D03*
X170453Y45866D02*
D03*
X166752D02*
D03*
X88760Y38386D02*
D03*
X85059D02*
D03*
X189291Y51378D02*
D03*
X192992D02*
D03*
X105827Y48622D02*
D03*
X109528D02*
D03*
X313405Y188386D02*
D03*
X317106D02*
D03*
X122518Y246346D02*
D03*
X126219D02*
D03*
X99847Y237509D02*
D03*
X103548D02*
D03*
X263898Y70079D02*
D03*
X267598D02*
D03*
X256614D02*
D03*
X260315D02*
D03*
X282951Y71963D02*
D03*
X279251D02*
D03*
X262776Y130413D02*
D03*
X259075D02*
D03*
X279461Y163572D02*
D03*
X283162D02*
D03*
X316094Y128141D02*
D03*
X319795D02*
D03*
X319716Y124499D02*
D03*
X316015D02*
D03*
D14*
X38780Y81398D02*
D03*
X45079D02*
D03*
X97736Y80905D02*
D03*
X91437D02*
D03*
X216240Y178642D02*
D03*
X222539D02*
D03*
X48219Y62205D02*
D03*
X54518D02*
D03*
X64764Y194685D02*
D03*
X58465D02*
D03*
D15*
X79528Y80709D02*
D03*
X72441D02*
D03*
X58661D02*
D03*
X65748D02*
D03*
D16*
X257087Y78051D02*
D03*
Y74508D02*
D03*
X78347Y221949D02*
D03*
Y225492D02*
D03*
X78248Y252854D02*
D03*
Y249311D02*
D03*
X65059Y222047D02*
D03*
Y225590D02*
D03*
Y252756D02*
D03*
Y249213D02*
D03*
X173996Y234154D02*
D03*
Y237697D02*
D03*
X123721Y210630D02*
D03*
Y214173D02*
D03*
X110635Y14075D02*
D03*
Y17618D02*
D03*
X115453Y17913D02*
D03*
Y21457D02*
D03*
X152461Y117717D02*
D03*
Y121260D02*
D03*
X319097Y75845D02*
D03*
Y79388D02*
D03*
X173223Y134622D02*
D03*
Y138165D02*
D03*
X253642Y74606D02*
D03*
X263878D02*
D03*
X258957Y118799D02*
D03*
Y122343D02*
D03*
X253642Y78150D02*
D03*
X263878D02*
D03*
X253955Y116425D02*
D03*
Y119968D02*
D03*
X263090Y118799D02*
D03*
Y122343D02*
D03*
X178417Y213170D02*
D03*
Y216713D02*
D03*
X182480Y213189D02*
D03*
Y216732D02*
D03*
X153051Y216142D02*
D03*
Y212598D02*
D03*
X148302Y197441D02*
D03*
Y200984D02*
D03*
X86024Y21358D02*
D03*
Y24902D02*
D03*
X73517Y21220D02*
D03*
Y24764D02*
D03*
X123951Y183071D02*
D03*
Y186614D02*
D03*
D17*
X71850Y216831D02*
D03*
X78937D02*
D03*
X71879Y259031D02*
D03*
X78965D02*
D03*
X281205Y106662D02*
D03*
X288292D02*
D03*
D18*
X328000Y186221D02*
D03*
Y132693D02*
D03*
Y122152D02*
D03*
Y174409D02*
D03*
Y111824D02*
D03*
Y87028D02*
D03*
Y143104D02*
D03*
Y79134D02*
D03*
D19*
X18406Y65158D02*
D03*
Y32087D02*
D03*
X18504Y244291D02*
D03*
Y211221D02*
D03*
D20*
X40650Y48622D02*
D03*
X40748Y227756D02*
D03*
D21*
X162205Y236417D02*
D03*
Y223937D02*
D03*
X160197Y22874D02*
D03*
Y10394D02*
D03*
X136122Y39626D02*
D03*
Y52106D02*
D03*
X185759Y247744D02*
D03*
Y235263D02*
D03*
X123920Y204119D02*
D03*
Y191638D02*
D03*
D22*
X168445Y230177D02*
D03*
X155965D02*
D03*
X166437Y16634D02*
D03*
X153957D02*
D03*
X129882Y45866D02*
D03*
X142362D02*
D03*
X191999Y241504D02*
D03*
X179519D02*
D03*
X117680Y197878D02*
D03*
X130160D02*
D03*
D23*
X254251Y81608D02*
D03*
X256436Y81608D02*
D03*
X250432Y81608D02*
D03*
X260255Y81608D02*
D03*
D24*
X258091Y91326D02*
D03*
X260059D02*
D03*
X262028Y111208D02*
D03*
X260059D02*
D03*
X254154Y91326D02*
D03*
X256122D02*
D03*
X262028D02*
D03*
X263996D02*
D03*
X265965D02*
D03*
X267933D02*
D03*
Y111208D02*
D03*
X265965D02*
D03*
X263996D02*
D03*
X258091D02*
D03*
X256122D02*
D03*
X254154D02*
D03*
D25*
X280512Y152559D02*
D03*
X292323D02*
D03*
X142126Y258563D02*
D03*
X130315D02*
D03*
X66929Y163091D02*
D03*
X55118D02*
D03*
X119291Y163976D02*
D03*
X131102D02*
D03*
X56890Y9646D02*
D03*
X68701D02*
D03*
X33563Y11909D02*
D03*
X21752D02*
D03*
X103642Y21752D02*
D03*
X91831D02*
D03*
X85925Y163189D02*
D03*
X74114D02*
D03*
X152854Y163976D02*
D03*
X141043D02*
D03*
X326181Y199508D02*
D03*
X222100Y185433D02*
D03*
X210682D02*
D03*
X27165Y143012D02*
D03*
X38583D02*
D03*
X102067Y32579D02*
D03*
X90256D02*
D03*
X56890Y18701D02*
D03*
X68701D02*
D03*
X326181Y69587D02*
D03*
X282214Y92483D02*
D03*
X294025D02*
D03*
D26*
X158268Y185674D02*
D03*
Y197485D02*
D03*
X167815Y62992D02*
D03*
Y74803D02*
D03*
X159961Y112205D02*
D03*
Y124016D02*
D03*
X12303Y81890D02*
D03*
Y93701D02*
D03*
X26575Y178347D02*
D03*
Y166535D02*
D03*
X51772Y251772D02*
D03*
Y263583D02*
D03*
X30512Y252067D02*
D03*
Y263878D02*
D03*
X159941Y130217D02*
D03*
Y142028D02*
D03*
X233071Y115157D02*
D03*
Y126575D02*
D03*
X205413Y33563D02*
D03*
Y45374D02*
D03*
X26476Y184449D02*
D03*
Y196260D02*
D03*
X79528Y12008D02*
D03*
Y23819D02*
D03*
D27*
X196991Y251631D02*
D03*
X188639Y259983D02*
D03*
D28*
X116929Y101673D02*
D03*
Y104232D02*
D03*
Y106791D02*
D03*
Y109350D02*
D03*
Y111909D02*
D03*
X119488Y101673D02*
D03*
Y104232D02*
D03*
Y106791D02*
D03*
Y109350D02*
D03*
Y111909D02*
D03*
X122047Y101673D02*
D03*
Y104232D02*
D03*
Y106791D02*
D03*
Y109350D02*
D03*
Y111909D02*
D03*
X124606Y101673D02*
D03*
Y104232D02*
D03*
Y106791D02*
D03*
Y109350D02*
D03*
Y111909D02*
D03*
X127165Y101673D02*
D03*
Y104232D02*
D03*
Y106791D02*
D03*
Y109350D02*
D03*
Y111909D02*
D03*
X113878Y132492D02*
D03*
Y135051D02*
D03*
Y137610D02*
D03*
Y140169D02*
D03*
Y142728D02*
D03*
X116437Y132492D02*
D03*
Y135051D02*
D03*
Y137610D02*
D03*
Y140169D02*
D03*
Y142728D02*
D03*
X118996Y132492D02*
D03*
Y135051D02*
D03*
Y137610D02*
D03*
Y140169D02*
D03*
Y142728D02*
D03*
X121555Y132492D02*
D03*
Y135051D02*
D03*
Y137610D02*
D03*
Y140169D02*
D03*
Y142728D02*
D03*
X124114Y132492D02*
D03*
Y135051D02*
D03*
Y137610D02*
D03*
Y140169D02*
D03*
Y142728D02*
D03*
X221548Y109408D02*
D03*
Y106849D02*
D03*
Y104290D02*
D03*
Y101731D02*
D03*
Y99172D02*
D03*
X218989Y109408D02*
D03*
Y106849D02*
D03*
Y104290D02*
D03*
Y101731D02*
D03*
Y99172D02*
D03*
X216430Y109408D02*
D03*
Y106849D02*
D03*
Y104290D02*
D03*
Y101731D02*
D03*
Y99172D02*
D03*
X213871Y109408D02*
D03*
Y106849D02*
D03*
Y104290D02*
D03*
Y101731D02*
D03*
Y99172D02*
D03*
X211312Y109408D02*
D03*
Y106849D02*
D03*
Y104290D02*
D03*
Y101731D02*
D03*
Y99172D02*
D03*
X191938Y190052D02*
D03*
Y187493D02*
D03*
Y184934D02*
D03*
Y182375D02*
D03*
Y179816D02*
D03*
X189379Y190052D02*
D03*
Y187493D02*
D03*
Y184934D02*
D03*
Y182375D02*
D03*
Y179816D02*
D03*
X186820Y190052D02*
D03*
Y187493D02*
D03*
Y184934D02*
D03*
Y182375D02*
D03*
Y179816D02*
D03*
X184261Y190052D02*
D03*
Y187493D02*
D03*
Y184934D02*
D03*
Y182375D02*
D03*
Y179816D02*
D03*
X181702Y190052D02*
D03*
Y187493D02*
D03*
Y184934D02*
D03*
Y182375D02*
D03*
Y179816D02*
D03*
X211116Y130629D02*
D03*
Y133188D02*
D03*
Y135747D02*
D03*
Y138306D02*
D03*
Y140865D02*
D03*
X213675Y130629D02*
D03*
Y133188D02*
D03*
Y135747D02*
D03*
Y138306D02*
D03*
Y140865D02*
D03*
X216234Y130629D02*
D03*
Y133188D02*
D03*
Y135747D02*
D03*
Y138306D02*
D03*
Y140865D02*
D03*
X218794Y130629D02*
D03*
Y133188D02*
D03*
Y135747D02*
D03*
Y138306D02*
D03*
Y140865D02*
D03*
X221353Y130629D02*
D03*
Y133188D02*
D03*
Y135747D02*
D03*
Y138306D02*
D03*
Y140865D02*
D03*
D29*
X109930Y103821D02*
D03*
Y110907D02*
D03*
X106201Y141709D02*
D03*
Y134622D02*
D03*
X204429Y105610D02*
D03*
Y112697D02*
D03*
X200570Y193595D02*
D03*
Y186509D02*
D03*
X201234Y126969D02*
D03*
Y134055D02*
D03*
D30*
X126181Y119193D02*
D03*
X119095D02*
D03*
X138583Y115354D02*
D03*
X145669D02*
D03*
X181004Y140354D02*
D03*
X188091D02*
D03*
D31*
X131102Y148819D02*
D03*
Y141732D02*
D03*
X173622Y188583D02*
D03*
Y181496D02*
D03*
X182283Y159449D02*
D03*
Y166535D02*
D03*
X51863Y181197D02*
D03*
Y188283D02*
D03*
X41634Y73819D02*
D03*
Y66732D02*
D03*
X230406Y106947D02*
D03*
Y99861D02*
D03*
X232434Y139173D02*
D03*
Y132087D02*
D03*
X46949Y206299D02*
D03*
Y199213D02*
D03*
X100984Y74114D02*
D03*
Y67028D02*
D03*
D32*
X73812Y48728D02*
D03*
D33*
X78269Y56306D02*
D03*
X76040D02*
D03*
X73812D02*
D03*
X71584D02*
D03*
X69355D02*
D03*
Y41149D02*
D03*
X71584D02*
D03*
X73812D02*
D03*
X76040D02*
D03*
X78269D02*
D03*
D34*
X80948Y50794D02*
D03*
Y46661D02*
D03*
X66676Y50794D02*
D03*
Y46661D02*
D03*
D35*
X81391Y48728D02*
D03*
X66233D02*
D03*
D36*
X137500Y30492D02*
D03*
X149311D02*
D03*
X44390Y148917D02*
D03*
X56201D02*
D03*
X38878Y133599D02*
D03*
X27067D02*
D03*
X62402Y148917D02*
D03*
X74213D02*
D03*
X38878Y124311D02*
D03*
X27067D02*
D03*
X175984Y223721D02*
D03*
X187795D02*
D03*
X169685Y262594D02*
D03*
X157874D02*
D03*
D37*
X145473Y23819D02*
D03*
X149016D02*
D03*
X145669Y36516D02*
D03*
X149213D02*
D03*
X172736Y16634D02*
D03*
X176279D02*
D03*
X145177Y16732D02*
D03*
X148721D02*
D03*
X198622Y241504D02*
D03*
X202165D02*
D03*
X122441Y45866D02*
D03*
X118898D02*
D03*
X151870D02*
D03*
X148327D02*
D03*
X187992Y153543D02*
D03*
X184449D02*
D03*
X57356Y174494D02*
D03*
X53813D02*
D03*
X315989Y136476D02*
D03*
X319533D02*
D03*
X315991Y132395D02*
D03*
X319535D02*
D03*
X271121Y114161D02*
D03*
X274664D02*
D03*
X278670Y115836D02*
D03*
X282214D02*
D03*
X278670Y111875D02*
D03*
X282214D02*
D03*
X271063Y204134D02*
D03*
X267520D02*
D03*
X96555Y38386D02*
D03*
X93012D02*
D03*
X53642Y33169D02*
D03*
X57185D02*
D03*
X60328Y24606D02*
D03*
X63871D02*
D03*
X146260Y230217D02*
D03*
X149803D02*
D03*
X146686Y261297D02*
D03*
X150229D02*
D03*
X146686Y256967D02*
D03*
X150229D02*
D03*
D38*
X167244Y35311D02*
D03*
Y24327D02*
D03*
X177244Y35319D02*
D03*
Y24335D02*
D03*
X204508Y222661D02*
D03*
Y233646D02*
D03*
X194508Y222654D02*
D03*
Y233638D02*
D03*
X156867Y254257D02*
D03*
Y243272D02*
D03*
X166867Y254264D02*
D03*
Y243280D02*
D03*
D39*
X134721Y235705D02*
D03*
X139885Y240869D02*
D03*
D40*
X141827Y233764D02*
D03*
X132780Y242811D02*
D03*
D41*
X104429Y89567D02*
D03*
Y83268D02*
D03*
X97532Y188677D02*
D03*
Y182378D02*
D03*
X74606Y195374D02*
D03*
Y201673D02*
D03*
X108169Y74508D02*
D03*
Y68209D02*
D03*
X130709Y64173D02*
D03*
Y70473D02*
D03*
X71161Y68504D02*
D03*
Y62205D02*
D03*
D42*
X114472Y92028D02*
D03*
Y80216D02*
D03*
X127657Y92126D02*
D03*
Y80315D02*
D03*
D43*
X121161Y9350D02*
D03*
Y21161D02*
D03*
X141827Y187989D02*
D03*
Y199800D02*
D03*
D44*
X115953Y28287D02*
D03*
X126937D02*
D03*
X115945Y38287D02*
D03*
X126929D02*
D03*
X142703Y215969D02*
D03*
X131719D02*
D03*
X142711Y205969D02*
D03*
X131727D02*
D03*
D45*
X126575Y125689D02*
D03*
X118701D02*
D03*
X218655Y123327D02*
D03*
X226529D02*
D03*
X177264Y198425D02*
D03*
X185138D02*
D03*
D46*
X142717Y96850D02*
D03*
Y99410D02*
D03*
Y101969D02*
D03*
Y104528D02*
D03*
X160039D02*
D03*
Y101969D02*
D03*
Y99410D02*
D03*
Y96850D02*
D03*
X319053Y82675D02*
D03*
Y85234D02*
D03*
Y87793D02*
D03*
Y90352D02*
D03*
X301730D02*
D03*
Y87793D02*
D03*
Y85234D02*
D03*
Y82675D02*
D03*
D47*
X137480Y126772D02*
D03*
X142480D02*
D03*
X147480D02*
D03*
X152480D02*
D03*
X137480Y148031D02*
D03*
X142480D02*
D03*
X147480D02*
D03*
X152480D02*
D03*
X173203Y107713D02*
D03*
X178203D02*
D03*
X183203D02*
D03*
X188203D02*
D03*
X173203Y128972D02*
D03*
X178203D02*
D03*
X183203D02*
D03*
X188203D02*
D03*
X280925Y198917D02*
D03*
X275925D02*
D03*
X270925D02*
D03*
X265925D02*
D03*
X280925Y177657D02*
D03*
X275925D02*
D03*
X270925D02*
D03*
X265925D02*
D03*
D48*
X251102Y108157D02*
D03*
Y106189D02*
D03*
Y104220D02*
D03*
Y102252D02*
D03*
Y100283D02*
D03*
Y98315D02*
D03*
Y96346D02*
D03*
Y94378D02*
D03*
X270984D02*
D03*
Y96346D02*
D03*
Y98315D02*
D03*
Y100283D02*
D03*
Y102252D02*
D03*
Y104220D02*
D03*
Y106189D02*
D03*
Y108157D02*
D03*
D49*
X261043Y101267D02*
D03*
D50*
X96476Y89291D02*
D03*
X91476D02*
D03*
X86476D02*
D03*
X81476D02*
D03*
X76476D02*
D03*
X71476D02*
D03*
X66476D02*
D03*
X61476D02*
D03*
X56476D02*
D03*
X51476D02*
D03*
X46476D02*
D03*
X96476Y94291D02*
D03*
X91476D02*
D03*
X86476D02*
D03*
X81476D02*
D03*
X76476D02*
D03*
X71476D02*
D03*
X66476D02*
D03*
X61476D02*
D03*
X56476D02*
D03*
X51476D02*
D03*
X46476D02*
D03*
X96476Y99291D02*
D03*
X91476D02*
D03*
X86476D02*
D03*
X81476D02*
D03*
X76476D02*
D03*
X71476D02*
D03*
X66476D02*
D03*
X61476D02*
D03*
X56476D02*
D03*
X51476D02*
D03*
X46476D02*
D03*
X96476Y104291D02*
D03*
X91476D02*
D03*
X86476D02*
D03*
X81476D02*
D03*
X76476D02*
D03*
X71476D02*
D03*
X66476D02*
D03*
X61476D02*
D03*
X56476D02*
D03*
X51476D02*
D03*
X46476D02*
D03*
X96476Y109291D02*
D03*
X91476D02*
D03*
X86476D02*
D03*
X81476D02*
D03*
X76476D02*
D03*
X71476D02*
D03*
X66476D02*
D03*
X61476D02*
D03*
X56476D02*
D03*
X51476D02*
D03*
X46476D02*
D03*
X96476Y114291D02*
D03*
X91476D02*
D03*
X86476D02*
D03*
X81476D02*
D03*
X76476D02*
D03*
X71476D02*
D03*
X66476D02*
D03*
X61476D02*
D03*
X56476D02*
D03*
X51476D02*
D03*
X46476D02*
D03*
X96476Y119291D02*
D03*
X91476D02*
D03*
X86476D02*
D03*
X81476D02*
D03*
X76476D02*
D03*
X71476D02*
D03*
X66476D02*
D03*
X61476D02*
D03*
X56476D02*
D03*
X51476D02*
D03*
X46476D02*
D03*
X96476Y124291D02*
D03*
X91476D02*
D03*
X86476D02*
D03*
X81476D02*
D03*
X76476D02*
D03*
X71476D02*
D03*
X66476D02*
D03*
X61476D02*
D03*
X56476D02*
D03*
X51476D02*
D03*
X46476D02*
D03*
X96476Y129291D02*
D03*
X91476D02*
D03*
X86476D02*
D03*
X81476D02*
D03*
X76476D02*
D03*
X71476D02*
D03*
X66476D02*
D03*
X61476D02*
D03*
X56476D02*
D03*
X51476D02*
D03*
X46476D02*
D03*
X96476Y134291D02*
D03*
X91476D02*
D03*
X86476D02*
D03*
X81476D02*
D03*
X76476D02*
D03*
X71476D02*
D03*
X66476D02*
D03*
X61476D02*
D03*
X56476D02*
D03*
X51476D02*
D03*
X46476D02*
D03*
X96476Y139291D02*
D03*
X91476D02*
D03*
X86476D02*
D03*
X81476D02*
D03*
X76476D02*
D03*
X71476D02*
D03*
X66476D02*
D03*
X61476D02*
D03*
X56476D02*
D03*
X51476D02*
D03*
X46476D02*
D03*
D51*
X30708Y114961D02*
D03*
Y90158D02*
D03*
D52*
X49114Y168209D02*
D03*
X38878D02*
D03*
X49114Y175061D02*
D03*
X38878D02*
D03*
D53*
X84611Y245698D02*
D03*
X88508D02*
D03*
X92406D02*
D03*
Y237627D02*
D03*
X88508D02*
D03*
X84611D02*
D03*
X163248Y45768D02*
D03*
X159350D02*
D03*
X155453D02*
D03*
Y37697D02*
D03*
X159350D02*
D03*
X163248D02*
D03*
D54*
X113567Y220048D02*
D03*
X108568D02*
D03*
Y237882D02*
D03*
X113567D02*
D03*
X118568D02*
D03*
X123567D02*
D03*
X118568Y220048D02*
D03*
X123567D02*
D03*
X197992Y27067D02*
D03*
X192992D02*
D03*
X197992Y44902D02*
D03*
X192992D02*
D03*
X187992D02*
D03*
X182992D02*
D03*
Y27067D02*
D03*
X187992D02*
D03*
D55*
X258268Y136221D02*
D03*
X260827D02*
D03*
X263386D02*
D03*
X265945D02*
D03*
Y159055D02*
D03*
X263386D02*
D03*
X260827D02*
D03*
X258268D02*
D03*
D56*
X124902Y67421D02*
D03*
Y71161D02*
D03*
Y74902D02*
D03*
X114272D02*
D03*
Y67421D02*
D03*
X58563Y199902D02*
D03*
Y207382D02*
D03*
X69193D02*
D03*
Y203642D02*
D03*
Y199902D02*
D03*
X54528Y67520D02*
D03*
Y75000D02*
D03*
X65158D02*
D03*
Y71260D02*
D03*
Y67520D02*
D03*
D57*
X270963Y78262D02*
D03*
X273562D02*
D03*
X270963Y71963D02*
D03*
X273562D02*
D03*
X276160D02*
D03*
Y78262D02*
D03*
D58*
X140354Y19390D02*
D03*
Y16831D02*
D03*
Y14272D02*
D03*
X132874D02*
D03*
Y16831D02*
D03*
Y19390D02*
D03*
X144980Y171949D02*
D03*
Y174508D02*
D03*
Y177067D02*
D03*
X137500D02*
D03*
Y174508D02*
D03*
Y171949D02*
D03*
D59*
X136614Y16240D02*
D03*
X141240Y175098D02*
D03*
D60*
X136221Y18406D02*
D03*
X141634Y172933D02*
D03*
D61*
X137205Y18701D02*
D03*
X140650Y172638D02*
D03*
D62*
X64959Y232017D02*
D03*
X78790D02*
D03*
Y243434D02*
D03*
X64959D02*
D03*
D63*
X71875Y233345D02*
D03*
Y242105D02*
D03*
D64*
X64001Y239694D02*
D03*
Y237725D02*
D03*
Y235757D02*
D03*
X79749Y235757D02*
D03*
Y237725D02*
D03*
Y239694D02*
D03*
D65*
X67938Y229851D02*
D03*
X69906D02*
D03*
X71875D02*
D03*
X73843D02*
D03*
X75812D02*
D03*
Y245599D02*
D03*
X73843D02*
D03*
X71875D02*
D03*
X69906D02*
D03*
X67938D02*
D03*
D66*
X71875Y237725D02*
D03*
D67*
X286601Y128602D02*
D03*
Y138602D02*
D03*
X310814D02*
D03*
Y128602D02*
D03*
D68*
X303708Y125433D02*
D03*
X298708D02*
D03*
X293708D02*
D03*
Y141771D02*
D03*
X298708D02*
D03*
D69*
X303708Y140787D02*
D03*
D70*
X149213Y66358D02*
D03*
X91339Y195709D02*
D03*
X88189Y63327D02*
D03*
D71*
X154724Y56791D02*
D03*
X143701D02*
D03*
X96850Y205276D02*
D03*
X85827D02*
D03*
X93701Y72894D02*
D03*
X82677D02*
D03*
D72*
X54127Y52625D02*
D03*
Y44633D02*
D03*
X93405Y52625D02*
D03*
Y44633D02*
D03*
D73*
X46981Y48629D02*
D03*
X61273D02*
D03*
X86260D02*
D03*
X100551D02*
D03*
D74*
X63223Y189494D02*
D03*
Y184494D02*
D03*
Y179493D02*
D03*
Y174494D02*
D03*
X84483Y189494D02*
D03*
Y184494D02*
D03*
Y179493D02*
D03*
Y174494D02*
D03*
X214961Y152736D02*
D03*
Y157736D02*
D03*
Y162736D02*
D03*
Y167736D02*
D03*
X193701Y152736D02*
D03*
Y157736D02*
D03*
Y162736D02*
D03*
Y167736D02*
D03*
D75*
X239961Y137795D02*
D03*
X251575D02*
D03*
X179724Y62500D02*
D03*
X191339D02*
D03*
X315551Y174213D02*
D03*
X303937D02*
D03*
X112992Y260647D02*
D03*
X124606D02*
D03*
X102190Y223847D02*
D03*
X90575D02*
D03*
D76*
X245768Y131791D02*
D03*
X185531Y56496D02*
D03*
X309744Y180217D02*
D03*
X118799Y254643D02*
D03*
X96382Y229851D02*
D03*
D77*
X55128Y229714D02*
D03*
X49991Y235837D02*
D03*
D78*
X58033Y237369D02*
D03*
X47085Y228183D02*
D03*
D79*
X235071Y67168D02*
D03*
Y78782D02*
D03*
D80*
X241075Y72975D02*
D03*
D81*
X276142Y208158D02*
D03*
X252520D02*
D03*
X260394D02*
D03*
X268268D02*
D03*
X244646D02*
D03*
X284016D02*
D03*
X315512D02*
D03*
X291890D02*
D03*
X299764D02*
D03*
X307638D02*
D03*
D82*
X295304Y100017D02*
D03*
Y107103D02*
D03*
D179*
X263640Y74508D02*
G03*
X263878Y74606I0J336D01*
G01*
X263779Y74508D02*
X263878Y74606D01*
X263888Y74597D01*
X263640Y74508D02*
X263779D01*
X257087D02*
X263640D01*
X263888Y70089D02*
Y74597D01*
Y70089D02*
X263898Y70079D01*
X260315D02*
X263898D01*
X140354Y16831D02*
X144582D01*
D180*
X191924Y16634D02*
G03*
X197992Y22702I0J6068D01*
G01*
X46604Y227702D02*
X47085Y228183D01*
X40802Y227702D02*
X46604D01*
X40748Y227756D02*
X40802Y227702D01*
X197992Y22702D02*
Y27067D01*
X176398Y16634D02*
X191924D01*
X40657Y48629D02*
X46981D01*
X40650Y48622D02*
X40657Y48629D01*
X155945Y230197D02*
X155965Y230177D01*
X149823Y230197D02*
X155945D01*
X149803Y230217D02*
X149823Y230197D01*
X149803Y230217D02*
X149804Y230217D01*
D181*
X326342Y186024D02*
G03*
X326817Y186221I0J672D01*
G01*
X64665Y81791D02*
Y82185D01*
Y81791D02*
X65748Y80709D01*
X123567Y220048D02*
X123721Y219895D01*
Y214311D02*
Y219895D01*
X273672Y98277D02*
X274803Y97146D01*
X271022Y98277D02*
X273672D01*
X270984Y106189D02*
X274508D01*
X274028Y91433D02*
Y93590D01*
X273278Y94340D02*
X274028Y93590D01*
X271022Y94340D02*
X273278D01*
X270984Y94378D02*
X271022Y94340D01*
X274028Y91433D02*
X274036Y91425D01*
D182*
X276488Y163615D02*
G03*
X276593Y163572I104J104D01*
G01*
X58894Y237725D02*
G03*
X58033Y237369I0J-1217D01*
G01*
X166514Y45768D02*
G03*
X166752Y45866I0J336D01*
G01*
X84611Y237627D02*
G03*
X84373Y237725I-238J-238D01*
G01*
X326293Y186221D02*
Y187461D01*
X317953D02*
X326293D01*
X270727Y70769D02*
Y71457D01*
X268289Y70769D02*
X270727D01*
X267598Y70079D02*
X268289Y70769D01*
X241075Y72975D02*
X243971Y70079D01*
X256614Y70118D02*
Y70157D01*
X317106Y188307D02*
Y188386D01*
Y188307D02*
X317953Y187461D01*
X309734Y188376D02*
X313396D01*
X309744Y180217D02*
Y184665D01*
X313396Y188376D02*
X313405Y188386D01*
X123920Y191638D02*
X123951Y191607D01*
X283162Y163572D02*
X286002D01*
X123567Y220048D02*
X123619D01*
D183*
X123951Y183071D02*
G03*
X132514Y174508I8563J0D01*
G01*
X250571Y74606D02*
X252743D01*
X243971Y70079D02*
X256614D01*
X58894Y237725D02*
X64001D01*
X132514Y174508D02*
X137500D01*
X166416Y45866D02*
X166514Y45768D01*
X92406Y237509D02*
X96382D01*
X182028Y45787D02*
X182067Y45827D01*
X151870Y45768D02*
X155453D01*
X172618Y16634D02*
Y18865D01*
X123920Y205627D02*
X131385D01*
X123314Y45866D02*
X128835D01*
X170453D02*
X170492Y45827D01*
X173583D01*
X173622Y45787D01*
X163347Y45866D02*
X166416D01*
X163248Y45768D02*
X163347Y45866D01*
X173622Y45787D02*
X182028D01*
X166867Y230906D02*
Y243280D01*
Y230906D02*
X167595Y230177D01*
X168445D01*
X172618Y18865D02*
X174339Y20586D01*
X174500D01*
X166437Y16634D02*
X172618D01*
X174500Y20586D02*
X177244Y23331D01*
Y24335D01*
X151870Y45768D02*
Y45866D01*
X142362D02*
X148327D01*
X126929Y38287D02*
X127083D01*
X128106Y39311D01*
Y45138D01*
X128835Y45866D01*
X129882D01*
X187067Y53681D02*
Y54961D01*
Y53681D02*
X189291Y51457D01*
X192992Y44902D02*
Y51378D01*
X193002Y51388D02*
X196939D01*
X193987Y234158D02*
Y240736D01*
X123951Y186614D02*
Y191607D01*
X174695Y238395D02*
X176901Y240601D01*
X171043Y231200D02*
X173327Y233484D01*
X194755Y241504D02*
X198495D01*
X148734Y16732D02*
X153957Y16634D01*
X129244Y246346D02*
X132780Y242811D01*
X126219Y246346D02*
X129244D01*
X118874Y246421D02*
X122444D01*
X142713Y233764D02*
X145669Y230807D01*
X118799Y238114D02*
Y246457D01*
Y250197D02*
Y254643D01*
X103548Y237509D02*
X108194D01*
X276160Y71963D02*
X279251D01*
X96382Y229851D02*
Y233808D01*
Y237509D02*
X99847D01*
X100555Y48625D02*
X105823D01*
X81391Y48728D02*
X86161D01*
X61371D02*
X66233D01*
D184*
X282214Y92483D02*
G03*
X281996Y91958I525J-525D01*
G01*
Y85913D02*
Y91958D01*
D185*
X263878Y78150D02*
X263974Y78245D01*
Y91304D01*
X263996Y91326D01*
X77348Y25650D02*
X79179Y23819D01*
X275925Y207942D02*
X276142Y208158D01*
X275925Y198917D02*
Y207942D01*
X276593Y163572D02*
X279461D01*
X85049Y38091D02*
Y38376D01*
X81890Y38091D02*
X85049D01*
X81032D02*
X81890D01*
X66472Y33232D02*
Y34189D01*
X66394Y33232D02*
X66466Y33305D01*
X61211Y33232D02*
Y35916D01*
X84611Y237627D02*
Y237725D01*
X84373D02*
X84611D01*
X79749D02*
X84373D01*
X193110Y215846D02*
X193298D01*
X263386Y130413D02*
Y131024D01*
X254528Y176279D02*
X255610D01*
X255610Y176279D01*
X309734Y188376D02*
X309744Y188366D01*
X309724Y188386D02*
X309734Y188376D01*
X263386Y131024D02*
Y134110D01*
X262776Y130413D02*
X263386D01*
X123721Y210551D02*
X123820Y210451D01*
Y204218D02*
Y210451D01*
Y204218D02*
X123920Y204119D01*
X245768Y131791D02*
X247059Y130500D01*
X251881D01*
X259032Y130456D02*
X259075Y130413D01*
X255625Y130456D02*
X259032D01*
X255582Y130500D02*
X255625Y130456D01*
X259035Y125984D02*
X259055Y126004D01*
Y130394D01*
X259075Y130413D01*
X262776D02*
X263386Y131024D01*
X258996Y125945D02*
X259035Y125984D01*
X258996Y122382D02*
Y125945D01*
X258957Y122343D02*
X258996Y122382D01*
X263150Y125925D02*
X263209Y125984D01*
X263150Y122402D02*
Y125925D01*
X263090Y122343D02*
X263150Y122402D01*
X270727Y71457D02*
X270963Y71693D01*
Y71963D01*
X111496Y46575D02*
X114567D01*
X109528Y48543D02*
X111496Y46575D01*
X109528Y48543D02*
Y48622D01*
X114567Y46575D02*
X114921Y46220D01*
X118110D01*
X182067Y45827D02*
X182992Y44902D01*
X81003Y38091D02*
X81032D01*
X85049Y36909D02*
Y38091D01*
X196939Y51388D02*
X196949Y51398D01*
X185531Y56496D02*
X187067Y54961D01*
X189291Y51378D02*
Y51457D01*
X192992Y44902D02*
X192992Y44902D01*
X262776Y130413D02*
Y130669D01*
X262618Y130413D02*
X262776D01*
X193298Y215846D02*
X193456Y216004D01*
X193987Y234158D02*
X194508Y233638D01*
X193220Y241504D02*
X193987Y240736D01*
X191999Y241504D02*
X193220D01*
X85049Y38376D02*
X85059Y38386D01*
X85040Y38366D02*
X85049Y38376D01*
X123920Y204119D02*
Y205627D01*
X123825Y205722D02*
X123920Y205627D01*
X131385D02*
X131727Y205969D01*
X177668Y241504D02*
X179519D01*
X176901Y240736D02*
X177668Y241504D01*
X176901Y240601D02*
Y240736D01*
X198495Y241504D02*
X198543D01*
X85040Y33252D02*
Y36909D01*
X78269Y40853D02*
Y41149D01*
Y40853D02*
X81032Y38091D01*
X85020Y33232D02*
X85040Y33252D01*
X61221Y33241D02*
Y33268D01*
X61211Y33232D02*
X61221Y33241D01*
X57185Y33169D02*
X57284D01*
X63779Y38484D02*
X66986D01*
X61211Y35916D02*
X63779Y38484D01*
X66986D02*
X69355Y40853D01*
X122444Y246421D02*
X122518Y246346D01*
X118819Y246476D02*
X118874Y246421D01*
X141827Y233764D02*
X142713D01*
X145669Y230218D02*
Y230807D01*
X118799Y246457D02*
Y246496D01*
X118799Y254643D02*
X118799Y254643D01*
X118568Y237882D02*
X118799Y238114D01*
X213666Y147047D02*
X213675Y147038D01*
X108194Y237509D02*
X108568Y237882D01*
X173028Y138165D02*
X173223D01*
X172954Y138091D02*
X173028Y138165D01*
X77348Y33232D02*
Y36333D01*
X144582Y16831D02*
X144617Y16797D01*
X275925Y171319D02*
X275984Y171260D01*
X270866D02*
X270925Y171319D01*
X148499Y212475D02*
X148622Y212598D01*
X141827Y199800D02*
X143011Y200984D01*
X218655Y123327D02*
X218794Y123466D01*
X179519Y241405D02*
Y241504D01*
X92406Y237509D02*
Y237627D01*
X59571Y223650D02*
Y224143D01*
X59547Y248622D02*
Y249311D01*
X200367Y178517D02*
X200394Y178543D01*
X68617Y36333D02*
X71584Y39300D01*
X67126Y36333D02*
X68617D01*
X66466Y35673D02*
X67126Y36333D01*
X66466Y33305D02*
Y35673D01*
X71584Y39300D02*
Y41149D01*
X69355Y40853D02*
Y41149D01*
X66394Y33232D02*
X66472D01*
X105823Y48625D02*
X105827Y48622D01*
X100551Y48629D02*
X100555Y48625D01*
X86161Y48728D02*
X86260Y48629D01*
X73812Y33532D02*
Y41149D01*
X73512Y33232D02*
X73812Y33532D01*
X76040Y37641D02*
X77348Y36333D01*
X76040Y37641D02*
Y41149D01*
X81184Y29531D02*
X81197D01*
X79179Y23819D02*
X79528D01*
X77348Y33232D02*
X81184D01*
X68701Y18701D02*
X69676Y19676D01*
X73514Y24766D02*
X73517Y24764D01*
X73512Y29531D02*
X73514Y29529D01*
X61273Y48629D02*
X61371Y48728D01*
X101317Y11296D02*
X105648D01*
D186*
X246540Y97297D02*
X247558Y98315D01*
X242848Y97297D02*
X246540D01*
X242815Y97264D02*
X242848Y97297D01*
X242795Y100984D02*
Y104528D01*
Y100984D02*
X242815Y100965D01*
X278670Y111875D02*
X279497Y112702D01*
X274952Y108157D02*
X278670Y111875D01*
Y115836D01*
X270984Y108157D02*
X274952D01*
X278670Y115836D02*
X279497Y115009D01*
X270984Y98315D02*
X271022Y98277D01*
X274508Y106102D02*
Y106189D01*
X267933Y111208D02*
X267971Y111246D01*
X268621Y114161D02*
X271121D01*
X267971Y111246D02*
Y113511D01*
X268621Y114161D01*
X254154Y94378D02*
X261043Y101267D01*
X247146Y91634D02*
X247255Y91743D01*
Y93799D01*
X249310Y95854D01*
X249376D01*
X249868Y96346D01*
X251102D01*
X245747Y84978D02*
X251075D01*
X255630Y89534D01*
X270984Y100283D02*
X280969D01*
X281205Y100519D01*
Y106662D01*
X267933Y88187D02*
Y91326D01*
X218989Y115335D02*
X220079Y116425D01*
X256122Y106189D02*
Y111208D01*
X261043Y101267D02*
X262028Y102252D01*
X256713Y105598D02*
X261043Y101267D01*
X256122Y106189D02*
X256713Y105598D01*
X246573Y101267D02*
X247558Y100283D01*
X251102D01*
X255630Y89534D02*
Y89600D01*
X256122Y90092D01*
Y91326D01*
X230308Y106849D02*
X230406Y106947D01*
X247558Y98315D02*
X251102D01*
X254154Y111208D02*
Y116226D01*
X253955Y116425D02*
X254154Y116226D01*
D187*
X248234Y102252D02*
X251102D01*
X247348Y103138D02*
X248234Y102252D01*
X245969Y103138D02*
X247348D01*
X244677Y104429D02*
X245969Y103138D01*
X243110Y104429D02*
X244677D01*
X247835Y109089D02*
Y111319D01*
Y109089D02*
X248766Y108157D01*
X251102D01*
X245688Y106306D02*
X246974Y105020D01*
X247835D01*
X248634Y104220D01*
X251102D01*
X246215Y108661D02*
X248687Y106189D01*
X244093Y108661D02*
X246215D01*
X248687Y106189D02*
X251102D01*
X251102Y106189D01*
D188*
X99161Y114028D02*
X100591Y112598D01*
X96740Y114028D02*
X99161D01*
X100591Y108957D02*
Y112598D01*
X96476Y114291D02*
X96740Y114028D01*
X118701Y127067D02*
X119783D01*
X118701Y125787D02*
X119882Y126969D01*
X118701Y125394D02*
X119783Y124311D01*
X118701D02*
X119783D01*
X118701Y125689D02*
Y125787D01*
Y125394D02*
Y125689D01*
X119783Y127067D02*
X119882Y126969D01*
X301435Y82380D02*
X301730Y82675D01*
X301573Y78458D02*
X302332Y77699D01*
X319053Y87793D02*
X321360D01*
X155807Y63661D02*
X159941D01*
X155079Y64390D02*
X155807Y63661D01*
X151181Y64390D02*
X155079D01*
X149213Y66358D02*
X151181Y64390D01*
X263996Y111208D02*
X265965D01*
X267960Y117618D02*
X271897D01*
X265965Y115524D02*
X267960Y117520D01*
X265965Y111208D02*
Y115524D01*
X267960Y117520D02*
Y117618D01*
X121260Y21063D02*
X122961D01*
X120768Y21555D02*
X121260Y21063D01*
X154724Y55866D02*
Y56791D01*
X154469Y55610D02*
X154724Y55866D01*
X65158Y75000D02*
X65158D01*
X86890Y62028D02*
X88189Y63327D01*
X81496Y74213D02*
X82677Y73032D01*
Y72894D02*
Y73032D01*
X48917Y74311D02*
X49606Y75000D01*
X54419Y62106D02*
X54518Y62205D01*
X69193Y207382D02*
X69355D01*
X64764Y194685D02*
X64828D01*
X62924Y184793D02*
X63223Y184494D01*
X110630Y27854D02*
X110945Y28169D01*
X110630Y21555D02*
X110635Y21551D01*
X124803Y75000D02*
X124902Y74902D01*
X282185Y171260D02*
X282283D01*
X281988Y171063D02*
X282185Y171260D01*
X108169Y74508D02*
X108268Y74410D01*
D189*
X86476Y129291D02*
Y134291D01*
Y114291D02*
Y119291D01*
Y109291D02*
X91476D01*
X81476Y134291D02*
X86476D01*
X81476Y129291D02*
Y134291D01*
Y124291D02*
X86476D01*
X81476D02*
Y129291D01*
Y114291D02*
X86476D01*
X81476D02*
Y119291D01*
Y109291D02*
X86476D01*
X81476D02*
Y114291D01*
Y104291D02*
X86476D01*
X76476Y134291D02*
X81476D01*
X76476Y129291D02*
X81476D01*
X76476Y114291D02*
X81476D01*
X76476Y109291D02*
X81476D01*
X76476Y104291D02*
X81476D01*
X51476Y94291D02*
X56476D01*
X76476Y124291D02*
X81476D01*
X56476Y94291D02*
X61476D01*
Y99291D01*
X81476Y119291D02*
X86476D01*
X51476Y94291D02*
Y99291D01*
X76476Y119291D02*
X81476D01*
X56476Y94291D02*
X56496Y94272D01*
X56476Y94291D02*
Y99291D01*
X51476Y89291D02*
Y94291D01*
X61476Y89291D02*
X66476D01*
X86476Y109291D02*
Y114291D01*
X46476Y89291D02*
X51476D01*
X56496Y89272D02*
Y94272D01*
X61476Y94291D02*
X66476D01*
X81476Y104291D02*
Y109291D01*
X61476Y89291D02*
Y94291D01*
X81476Y119291D02*
Y124291D01*
X86476Y119291D02*
Y124291D01*
Y114291D02*
X91476D01*
X56476Y89291D02*
X56496Y89272D01*
X86476Y104291D02*
X91476D01*
X46476Y94291D02*
X51476D01*
X86476Y104291D02*
Y109291D01*
Y124291D02*
Y129291D01*
X81476D02*
X86476D01*
X56476Y89291D02*
X61476D01*
X234842Y67397D02*
Y67716D01*
Y67397D02*
X235071Y67168D01*
X114225Y61156D02*
X114241Y61171D01*
X114225Y61156D02*
X114241Y61140D01*
X114210D02*
X114225Y61156D01*
X107579Y67618D02*
X108169Y68209D01*
X318998Y79290D02*
X319097Y79388D01*
X301573Y72003D02*
Y72159D01*
X137520Y121161D02*
X137648Y121289D01*
X73819Y202461D02*
X74606Y201673D01*
X234972Y78881D02*
X235071Y78782D01*
X108268Y68110D02*
X108858Y67520D01*
X108169Y68209D02*
X108268Y68110D01*
X48219Y62205D02*
X49114Y63100D01*
X100984Y67028D02*
X101575Y67618D01*
X114173Y67520D02*
X114272Y67421D01*
X280925Y177657D02*
Y179232D01*
X281122Y179429D01*
X57469Y189297D02*
Y189346D01*
X51863Y188098D02*
Y188283D01*
X52876Y189297D01*
X48868Y67963D02*
X48917Y68012D01*
X41634Y66732D02*
X42274Y67372D01*
X70571Y69095D02*
X71161Y68504D01*
X65158Y71260D02*
X65256Y71161D01*
X53813Y174494D02*
X53827Y174508D01*
X63027Y189297D02*
X63223Y189494D01*
X124902Y71161D02*
X125000Y71063D01*
X130118D02*
X130709Y70473D01*
X107944Y61140D02*
X108169Y61365D01*
X66131Y62205D02*
X66230Y62106D01*
X93701Y72894D02*
X93760D01*
D190*
X255987Y80978D02*
X256036Y81028D01*
X255987Y79307D02*
Y80978D01*
Y79307D02*
X256075Y79220D01*
Y79063D02*
Y79220D01*
Y79063D02*
X257087Y78051D01*
X254701Y81158D02*
X254751Y81108D01*
Y80233D02*
Y81108D01*
Y80233D02*
X254782Y80202D01*
Y79290D02*
Y80202D01*
X253642Y78150D02*
X254782Y79290D01*
X255945Y81118D02*
X256036Y81028D01*
X255906Y81118D02*
Y83710D01*
X262079Y117787D02*
X263090Y118799D01*
X261870Y117787D02*
X262079D01*
X261626Y117543D02*
X261870Y117787D01*
X261626Y114404D02*
Y117543D01*
Y114404D02*
X261646Y114385D01*
Y112917D02*
Y114385D01*
X259969Y117787D02*
X260177D01*
X260421Y117543D01*
Y113906D02*
Y117543D01*
Y113906D02*
X260441Y113886D01*
Y112917D02*
Y113886D01*
X261646Y112917D02*
X262028Y112535D01*
Y111208D02*
Y112535D01*
X258957Y118799D02*
X259969Y117787D01*
X260059Y111208D02*
Y112535D01*
X260441Y112917D01*
X254251Y81608D02*
X254701Y81158D01*
Y84209D01*
X255945Y81118D02*
X256436Y81608D01*
X255906Y83710D02*
X259677Y87481D01*
X254701Y84209D02*
X258473Y87980D01*
X260059Y89999D02*
Y91326D01*
X259677Y89617D02*
X260059Y89999D01*
X259677Y87481D02*
Y89617D01*
X258091Y89999D02*
Y91326D01*
Y89999D02*
X258473Y89617D01*
Y87980D02*
Y89617D01*
D191*
X232434Y132087D02*
X232753Y131769D01*
Y126893D02*
Y131769D01*
Y126893D02*
X233071Y126575D01*
X199193Y98816D02*
Y98819D01*
X59893Y249313D02*
X59916Y249290D01*
D192*
X50866Y263583D02*
X51772D01*
D193*
X244646Y208158D02*
X244783Y208296D01*
X218898Y92334D02*
X218989Y92425D01*
X213779Y116425D02*
X213871Y116334D01*
X258091Y111208D02*
Y114358D01*
D194*
X53150Y206693D02*
X53642Y206201D01*
X51465Y188681D02*
X51863Y188283D01*
X96850Y205276D02*
Y205526D01*
X97919Y206594D01*
X85827Y205276D02*
Y205428D01*
X84758Y206496D02*
X85827Y205428D01*
D195*
X25689Y21654D02*
X26739D01*
X26214D01*
Y24802D01*
X25689Y24277D01*
D196*
X3248Y92766D02*
D03*
D197*
X316905Y156447D02*
D03*
D198*
X17662Y203740D02*
D03*
D199*
X188922Y208025D02*
D03*
X188922Y81102D02*
D03*
D200*
X33904Y180266D02*
D03*
D201*
X166732Y144882D02*
D03*
D202*
X9972Y260187D02*
D03*
D203*
X8169Y14301D02*
D03*
D204*
X101476Y156057D02*
D03*
D205*
X166831Y208071D02*
D03*
X211516D02*
D03*
X99051Y264405D02*
D03*
Y8500D02*
D03*
X9402Y114882D02*
D03*
X33661Y156055D02*
D03*
X303776Y156138D02*
D03*
X205350Y8500D02*
D03*
X165980Y156138D02*
D03*
X8500Y8500D02*
D03*
Y264405D02*
D03*
X205350D02*
D03*
X99051Y156138D02*
D03*
D206*
X196663Y71398D02*
D03*
X176663D02*
D03*
Y91398D02*
D03*
X196663D02*
D03*
X158918Y70610D02*
D03*
X138918D02*
D03*
Y90610D02*
D03*
X158918D02*
D03*
D207*
X8268Y152756D02*
D03*
Y168504D02*
D03*
D208*
X12205Y135039D02*
D03*
Y186221D02*
D03*
D209*
X256831Y200886D02*
D03*
X246831D02*
D03*
X236831D02*
D03*
D210*
X226831D02*
D03*
D211*
X207579Y228584D02*
D03*
X207382Y247146D02*
D03*
X186516Y203346D02*
D03*
X171752Y196653D02*
D03*
X171949Y169783D02*
D03*
X209547Y85925D02*
D03*
X113779Y142815D02*
D03*
Y140256D02*
D03*
X181693Y179823D02*
D03*
X184252Y182382D02*
D03*
X106496Y122736D02*
D03*
X112795D02*
D03*
X113878Y132480D02*
D03*
X118996Y142717D02*
D03*
X124213Y142815D02*
D03*
X132087Y129134D02*
D03*
X194882Y193701D02*
D03*
X188583D02*
D03*
X131988Y123327D02*
D03*
X224705Y143898D02*
D03*
X231004D02*
D03*
X225689Y110925D02*
D03*
X231890D02*
D03*
X218989Y109408D02*
D03*
X124606Y111909D02*
D03*
X121555Y142728D02*
D03*
X184252Y179823D02*
D03*
X315567Y150142D02*
D03*
X320685D02*
D03*
X131004Y165945D02*
D03*
X119095Y162106D02*
D03*
X131004Y162008D02*
D03*
X152854D02*
D03*
X152756Y165945D02*
D03*
X119095Y165855D02*
D03*
X140979Y165847D02*
D03*
Y162015D02*
D03*
X144390Y171555D02*
D03*
Y177461D02*
D03*
X182972Y34252D02*
D03*
X3642Y20571D02*
D03*
Y26181D02*
D03*
X14272Y20571D02*
D03*
X14272Y26083D02*
D03*
X24477Y184350D02*
D03*
X247835Y111319D02*
D03*
X239094Y104528D02*
D03*
X76870Y67913D02*
D03*
X70571Y74213D02*
D03*
X76870D02*
D03*
X59842Y68012D02*
D03*
X72441Y82267D02*
D03*
Y79314D02*
D03*
X79626Y82300D02*
D03*
Y78953D02*
D03*
X51496Y139272D02*
D03*
X51476Y109291D02*
D03*
X61476D02*
D03*
X46476Y104291D02*
D03*
X96476Y129291D02*
D03*
X56476Y124291D02*
D03*
X71476Y119291D02*
D03*
X91476Y109291D02*
D03*
X76378Y119291D02*
D03*
X51476Y99291D02*
D03*
X56476D02*
D03*
X71476Y139291D02*
D03*
X91476Y129390D02*
D03*
X96476Y124291D02*
D03*
X71476Y114291D02*
D03*
X76476D02*
D03*
X81476Y109291D02*
D03*
Y104291D02*
D03*
X86476Y94291D02*
D03*
X66476Y139291D02*
D03*
X96476D02*
D03*
X66476Y129291D02*
D03*
X56476Y109291D02*
D03*
Y104291D02*
D03*
X91476Y89291D02*
D03*
X81476Y94291D02*
D03*
X61476Y124291D02*
D03*
X71476D02*
D03*
X61476Y114291D02*
D03*
X91476Y104291D02*
D03*
X81476Y134291D02*
D03*
X61476Y139291D02*
D03*
Y134291D02*
D03*
X66476Y114291D02*
D03*
X76476Y109291D02*
D03*
X46476Y99291D02*
D03*
X56496Y89272D02*
D03*
X96476Y94291D02*
D03*
X76476D02*
D03*
X66476Y134291D02*
D03*
X46476Y119291D02*
D03*
Y114291D02*
D03*
X51476D02*
D03*
X81476D02*
D03*
Y99291D02*
D03*
X96476D02*
D03*
X46476Y129291D02*
D03*
X51476D02*
D03*
X66476Y119291D02*
D03*
X96476Y109291D02*
D03*
Y89291D02*
D03*
X46476D02*
D03*
Y94291D02*
D03*
Y139291D02*
D03*
Y134291D02*
D03*
X56476Y129291D02*
D03*
Y119291D02*
D03*
X91476D02*
D03*
X71476Y104291D02*
D03*
X76476D02*
D03*
X56476Y139291D02*
D03*
X46476Y124291D02*
D03*
X61476Y119291D02*
D03*
X56476Y114291D02*
D03*
X100591Y108957D02*
D03*
X51476Y104291D02*
D03*
X71476Y99291D02*
D03*
X86476Y89291D02*
D03*
X71476Y134291D02*
D03*
X66476Y104291D02*
D03*
X76476Y129291D02*
D03*
Y99291D02*
D03*
Y89291D02*
D03*
Y139291D02*
D03*
X71476Y129291D02*
D03*
X66476Y124291D02*
D03*
X61476Y104291D02*
D03*
X66476Y99291D02*
D03*
X56476Y94291D02*
D03*
X66476D02*
D03*
X61476Y129291D02*
D03*
X51476Y124291D02*
D03*
X71476Y109291D02*
D03*
X81476Y119291D02*
D03*
Y124291D02*
D03*
X96476Y104291D02*
D03*
X86476Y99291D02*
D03*
X66476Y89291D02*
D03*
X91476Y94291D02*
D03*
X51476Y119291D02*
D03*
X46476Y109291D02*
D03*
X66476D02*
D03*
X81476Y89291D02*
D03*
X71476D02*
D03*
X61476Y99291D02*
D03*
X81476Y139291D02*
D03*
X96457Y134252D02*
D03*
X91476Y114291D02*
D03*
X86476D02*
D03*
X76476Y124291D02*
D03*
X71476Y94291D02*
D03*
X51496Y134252D02*
D03*
X56476Y134291D02*
D03*
X91476Y124291D02*
D03*
X86476Y134291D02*
D03*
X76476D02*
D03*
X81476Y129291D02*
D03*
X91476Y99291D02*
D03*
X65847Y85630D02*
D03*
X64665Y82185D02*
D03*
X57776Y82382D02*
D03*
X66929Y82185D02*
D03*
X57677Y79232D02*
D03*
Y85532D02*
D03*
X45079Y81398D02*
D03*
X38780D02*
D03*
X29035Y92421D02*
D03*
X84941Y80776D02*
D03*
X84055Y78513D02*
D03*
X83957Y82942D02*
D03*
X54528Y82382D02*
D03*
X43209Y73819D02*
D03*
X33465Y79528D02*
D03*
Y83275D02*
D03*
X32972Y90158D02*
D03*
X54528Y79232D02*
D03*
Y85532D02*
D03*
X78248Y252854D02*
D03*
X71816Y221772D02*
D03*
X71879Y217028D02*
D03*
X79035D02*
D03*
X65059Y222047D02*
D03*
X78347Y221949D02*
D03*
X65059Y225590D02*
D03*
X71879Y259031D02*
D03*
X79035Y259154D02*
D03*
X71949Y253031D02*
D03*
X65059Y249213D02*
D03*
Y252756D02*
D03*
X123721Y214252D02*
D03*
X112402Y216142D02*
D03*
Y204429D02*
D03*
X171260Y31004D02*
D03*
X182972D02*
D03*
X176279Y16634D02*
D03*
X202267Y228584D02*
D03*
X24409Y166437D02*
D03*
X28642D02*
D03*
X24508Y178248D02*
D03*
X28445Y178248D02*
D03*
X195768Y250457D02*
D03*
X198228Y252918D02*
D03*
X189862Y261185D02*
D03*
X187303Y258823D02*
D03*
X205416Y188871D02*
D03*
X320889Y120416D02*
D03*
X316713Y116240D02*
D03*
X312554Y112048D02*
D03*
X306841Y71935D02*
D03*
X302447Y67989D02*
D03*
X296593Y67212D02*
D03*
X290688D02*
D03*
X284782D02*
D03*
X278877D02*
D03*
X261160D02*
D03*
X255255D02*
D03*
X249349D02*
D03*
X243444D02*
D03*
X221810Y60446D02*
D03*
X227715D02*
D03*
X233621D02*
D03*
X239526D02*
D03*
X245431D02*
D03*
X251337D02*
D03*
X257242D02*
D03*
X263148D02*
D03*
X269054D02*
D03*
X274959D02*
D03*
X280865D02*
D03*
X286770D02*
D03*
X292676D02*
D03*
X298581D02*
D03*
X309270Y64796D02*
D03*
X313287Y69125D02*
D03*
X315495Y74602D02*
D03*
X315686Y98221D02*
D03*
X315794Y104126D02*
D03*
X319076Y109035D02*
D03*
X327428Y117387D02*
D03*
X327603Y126220D02*
D03*
X234842Y67716D02*
D03*
X134252Y19882D02*
D03*
X27031Y203888D02*
D03*
X19139D02*
D03*
X33661Y195857D02*
D03*
X3355Y203888D02*
D03*
X33661Y180073D02*
D03*
X33661Y203740D02*
D03*
X33661Y187965D02*
D03*
X11247Y203888D02*
D03*
X42815Y156201D02*
D03*
X244646Y180217D02*
D03*
X237402Y186597D02*
D03*
X191339Y62500D02*
D03*
X166732Y146063D02*
D03*
X10403Y31890D02*
D03*
Y65354D02*
D03*
X30686D02*
D03*
X17164Y31890D02*
D03*
X30686D02*
D03*
X23925D02*
D03*
X3642Y65354D02*
D03*
X23925D02*
D03*
X17164D02*
D03*
X3642Y31890D02*
D03*
X30489Y244587D02*
D03*
X23728D02*
D03*
X10206Y211122D02*
D03*
X23728D02*
D03*
X16967Y244587D02*
D03*
X10206D02*
D03*
X3445Y211122D02*
D03*
X30489D02*
D03*
X16967D02*
D03*
X3445Y244587D02*
D03*
X254626Y182579D02*
D03*
X254528Y176279D02*
D03*
X260236D02*
D03*
Y182579D02*
D03*
X173622Y49508D02*
D03*
Y181496D02*
D03*
Y188583D02*
D03*
X185138Y198425D02*
D03*
X177264D02*
D03*
X195617Y228584D02*
D03*
X196538Y199128D02*
D03*
X226863Y186638D02*
D03*
X244580D02*
D03*
X250485D02*
D03*
X256391D02*
D03*
X262296D02*
D03*
X268201D02*
D03*
X280012D02*
D03*
X285918D02*
D03*
X291824D02*
D03*
X297729D02*
D03*
X303635D02*
D03*
X314940Y184239D02*
D03*
X312460Y192585D02*
D03*
X306595Y193272D02*
D03*
X300690Y193318D02*
D03*
X294784D02*
D03*
X282973D02*
D03*
X277068D02*
D03*
X271162D02*
D03*
X259351D02*
D03*
X229824D02*
D03*
X223918D02*
D03*
X218013D02*
D03*
X212107Y193388D02*
D03*
X207045Y196428D02*
D03*
X203096Y200820D02*
D03*
X201279Y213779D02*
D03*
X206094Y240978D02*
D03*
X202262Y245473D02*
D03*
X303937Y172244D02*
D03*
X315551D02*
D03*
X277658Y87598D02*
D03*
X162569Y178973D02*
D03*
X156664Y178973D02*
D03*
X176055Y168074D02*
D03*
X235232Y165544D02*
D03*
X282094Y139556D02*
D03*
X152433Y170183D02*
D03*
X158339D02*
D03*
X176055D02*
D03*
X199677D02*
D03*
X205583D02*
D03*
X229205D02*
D03*
X240932Y169195D02*
D03*
X243311Y163789D02*
D03*
X245270Y158218D02*
D03*
X253712Y149976D02*
D03*
X259460Y148624D02*
D03*
X264407Y145398D02*
D03*
X268583Y141222D02*
D03*
X272759Y137046D02*
D03*
X275658Y125982D02*
D03*
Y120077D02*
D03*
X282339Y120728D02*
D03*
Y126634D02*
D03*
X282277Y132539D02*
D03*
X280504Y138172D02*
D03*
X276626Y142626D02*
D03*
X272451Y146802D02*
D03*
X268275Y150978D02*
D03*
X249964Y164346D02*
D03*
X248658Y170105D02*
D03*
X244848Y174617D02*
D03*
X239340Y176746D02*
D03*
X227530Y176864D02*
D03*
X186191D02*
D03*
X180286D02*
D03*
X174381D02*
D03*
X162569D02*
D03*
X156664D02*
D03*
X150758D02*
D03*
X216240Y178937D02*
D03*
X222539D02*
D03*
X194390Y203346D02*
D03*
X186551Y207972D02*
D03*
X178660Y203346D02*
D03*
X166732Y191535D02*
D03*
Y181299D02*
D03*
X166634Y186417D02*
D03*
X49114Y168209D02*
D03*
X38878D02*
D03*
X147441Y148031D02*
D03*
X173228Y109252D02*
D03*
X74311Y150787D02*
D03*
X74304Y146949D02*
D03*
X87008Y149218D02*
D03*
X85335Y151285D02*
D03*
X85323Y147053D02*
D03*
X62303Y146949D02*
D03*
X56398Y150984D02*
D03*
X62402D02*
D03*
X56271Y146850D02*
D03*
X44291D02*
D03*
X119587Y109252D02*
D03*
X162205Y238114D02*
D03*
Y222441D02*
D03*
X160138Y14665D02*
D03*
X134843Y270079D02*
D03*
X134744Y266535D02*
D03*
X2350Y255394D02*
D03*
Y249882D02*
D03*
X17567Y255295D02*
D03*
Y249882D02*
D03*
X9299D02*
D03*
X327506Y122251D02*
D03*
X121555Y132492D02*
D03*
X116831Y112008D02*
D03*
X258169Y134646D02*
D03*
X260827Y137697D02*
D03*
X263386Y157579D02*
D03*
X258268Y160531D02*
D03*
X100689Y122933D02*
D03*
X100886Y97342D02*
D03*
X142126Y132874D02*
D03*
Y137106D02*
D03*
X131102Y141732D02*
D03*
X124114Y132579D02*
D03*
Y135039D02*
D03*
X137500Y125197D02*
D03*
X124132Y138007D02*
D03*
X142480Y148031D02*
D03*
X152480D02*
D03*
X121573Y138204D02*
D03*
X152461Y117717D02*
D03*
Y121260D02*
D03*
X116929Y109350D02*
D03*
X143701Y99410D02*
D03*
X141831Y96850D02*
D03*
X161713Y104528D02*
D03*
X161732Y99423D02*
D03*
X158563Y101969D02*
D03*
Y96850D02*
D03*
X282214Y111875D02*
D03*
Y115836D02*
D03*
X166732Y114460D02*
D03*
Y106568D02*
D03*
X162106Y124016D02*
D03*
X157874D02*
D03*
X162894Y110531D02*
D03*
X159961Y112205D02*
D03*
X141456Y121176D02*
D03*
X145669Y115354D02*
D03*
X148307Y121161D02*
D03*
X147480Y126772D02*
D03*
X142480D02*
D03*
X152480D02*
D03*
X137480Y148031D02*
D03*
X144606Y121161D02*
D03*
X157776Y142028D02*
D03*
X162795Y134153D02*
D03*
Y138189D02*
D03*
X166732Y138135D02*
D03*
X162008Y130217D02*
D03*
X166732Y130243D02*
D03*
X171752Y120866D02*
D03*
Y100098D02*
D03*
X132874Y13878D02*
D03*
X137500Y171555D02*
D03*
Y177461D02*
D03*
X132874Y16831D02*
D03*
X213871Y109408D02*
D03*
X211312Y106849D02*
D03*
Y109408D02*
D03*
X127165Y101673D02*
D03*
X116929Y104232D02*
D03*
X143012Y109291D02*
D03*
X146555D02*
D03*
X74114Y165157D02*
D03*
X267913Y84646D02*
D03*
X267933Y88187D02*
D03*
X274803Y97146D02*
D03*
X274508Y106102D02*
D03*
X274664Y114161D02*
D03*
X157874Y130217D02*
D03*
X127165Y106791D02*
D03*
Y111909D02*
D03*
X119488Y104232D02*
D03*
X122047Y106791D02*
D03*
X124606Y109350D02*
D03*
X215748Y73721D02*
D03*
X251575Y137795D02*
D03*
X239961D02*
D03*
X126673Y124311D02*
D03*
Y127067D02*
D03*
X118701Y124311D02*
D03*
Y127067D02*
D03*
X162303Y142028D02*
D03*
X132776Y148721D02*
D03*
X129429D02*
D03*
X138583Y109055D02*
D03*
Y115354D02*
D03*
X162205Y227665D02*
D03*
Y232890D02*
D03*
X143701Y56791D02*
D03*
X114567Y50295D02*
D03*
X255143Y158294D02*
D03*
X256190Y164106D02*
D03*
X261722Y167250D02*
D03*
X313118Y66449D02*
D03*
X196949Y55098D02*
D03*
X215748Y58661D02*
D03*
X207874D02*
D03*
X201969Y54724D02*
D03*
Y47539D02*
D03*
X140999Y2953D02*
D03*
X247146Y91634D02*
D03*
X239880Y97330D02*
D03*
Y101267D02*
D03*
X239447Y84978D02*
D03*
X245747D02*
D03*
X49705Y6496D02*
D03*
X145669Y36516D02*
D03*
X299764Y208158D02*
D03*
X265265Y167250D02*
D03*
X103642Y23862D02*
D03*
Y19783D02*
D03*
X145473Y23819D02*
D03*
X255335Y125984D02*
D03*
X188189Y101279D02*
D03*
X181890D02*
D03*
X289370Y198009D02*
D03*
X218504Y67421D02*
D03*
X215748Y68898D02*
D03*
Y71260D02*
D03*
X232434Y132087D02*
D03*
X245688Y106306D02*
D03*
X217717Y82284D02*
D03*
X220472Y79134D02*
D03*
X241732Y93307D02*
D03*
Y90945D02*
D03*
X235433D02*
D03*
Y93307D02*
D03*
X244093Y108661D02*
D03*
X301730Y85234D02*
D03*
Y90352D02*
D03*
X215748Y49803D02*
D03*
Y52756D02*
D03*
Y55709D02*
D03*
X207874Y49803D02*
D03*
Y52756D02*
D03*
Y55709D02*
D03*
X204724Y57480D02*
D03*
X195276Y58661D02*
D03*
X198031Y61417D02*
D03*
X200787Y63779D02*
D03*
X207874Y75394D02*
D03*
Y67520D02*
D03*
Y71457D02*
D03*
X213287Y84842D02*
D03*
Y87992D02*
D03*
X178347Y253543D02*
D03*
Y261417D02*
D03*
X174409Y253543D02*
D03*
X182283Y261417D02*
D03*
X103543Y170866D02*
D03*
X150787Y190551D02*
D03*
X135039D02*
D03*
X154724Y206299D02*
D03*
X138976Y222047D02*
D03*
X131102D02*
D03*
X111417Y190551D02*
D03*
X103543D02*
D03*
X111417Y198425D02*
D03*
X103543Y214173D02*
D03*
X95669D02*
D03*
X87795D02*
D03*
X40551Y198425D02*
D03*
Y206299D02*
D03*
X56299Y214173D02*
D03*
X48425D02*
D03*
X40551D02*
D03*
X52362Y245669D02*
D03*
X44488D02*
D03*
X36614D02*
D03*
X44488Y253543D02*
D03*
X36614D02*
D03*
X44488Y261417D02*
D03*
X36614D02*
D03*
X244488Y78740D02*
D03*
X202362Y75590D02*
D03*
X204921Y71457D02*
D03*
X201969Y85827D02*
D03*
X205906D02*
D03*
X218504Y70079D02*
D03*
X223228Y76378D02*
D03*
X226772Y74803D02*
D03*
X205906Y19291D02*
D03*
X176378Y9449D02*
D03*
X184252D02*
D03*
X194095Y7480D02*
D03*
X109449Y35039D02*
D03*
Y38976D02*
D03*
Y42913D02*
D03*
X113386Y54724D02*
D03*
X109449D02*
D03*
X25394Y92323D02*
D03*
X14961Y76378D02*
D03*
X9055D02*
D03*
X14961Y100000D02*
D03*
X9055D02*
D03*
X53642Y33169D02*
D03*
X46457Y31102D02*
D03*
Y37008D02*
D03*
X38583Y31102D02*
D03*
Y42913D02*
D03*
X22835Y19291D02*
D03*
Y23228D02*
D03*
Y27165D02*
D03*
X50394Y17323D02*
D03*
X42520D02*
D03*
Y11417D02*
D03*
X46457D02*
D03*
X50394D02*
D03*
X85827Y7480D02*
D03*
X154724Y9449D02*
D03*
X146850D02*
D03*
X137008D02*
D03*
X127165D02*
D03*
X73327Y6496D02*
D03*
X81201Y6398D02*
D03*
X41732D02*
D03*
X17815Y20571D02*
D03*
Y26083D02*
D03*
X165748Y62894D02*
D03*
X169882Y62795D02*
D03*
X162894Y118602D02*
D03*
X171752Y142421D02*
D03*
Y114567D02*
D03*
X182185Y266339D02*
D03*
X174213D02*
D03*
X142717D02*
D03*
X44193D02*
D03*
X21063Y250197D02*
D03*
Y255610D02*
D03*
X174539Y58414D02*
D03*
X140521Y37372D02*
D03*
X174125Y37080D02*
D03*
X180512Y52658D02*
D03*
X132892Y23862D02*
D03*
X132936Y29767D02*
D03*
X152658Y38333D02*
D03*
X170375Y38327D02*
D03*
X176148Y39570D02*
D03*
X295360Y78922D02*
D03*
X301573Y78458D02*
D03*
Y72003D02*
D03*
X319010Y90561D02*
D03*
X295360Y85221D02*
D03*
X277658Y91437D02*
D03*
X196063Y65059D02*
D03*
X202559Y67520D02*
D03*
X74213Y156201D02*
D03*
X315567Y153685D02*
D03*
X320685D02*
D03*
X173347Y128263D02*
D03*
X111417Y103543D02*
D03*
X153338Y156102D02*
D03*
X129662D02*
D03*
X121770D02*
D03*
X137500D02*
D03*
X66392Y156201D02*
D03*
X208268Y27461D02*
D03*
X173249Y134759D02*
D03*
X61221Y33268D02*
D03*
X63779Y38484D02*
D03*
X82275Y156201D02*
D03*
X50689Y156201D02*
D03*
X166634Y196653D02*
D03*
X212500Y247307D02*
D03*
X211910Y27479D02*
D03*
X180458Y2953D02*
D03*
X133107D02*
D03*
X73354D02*
D03*
X81245D02*
D03*
X49678D02*
D03*
X41786D02*
D03*
X14370Y93701D02*
D03*
X10236D02*
D03*
X212500Y231496D02*
D03*
Y223631D02*
D03*
X174257Y269882D02*
D03*
X156201Y197441D02*
D03*
X160335Y197485D02*
D03*
X142690Y269882D02*
D03*
X142028Y260464D02*
D03*
Y256594D02*
D03*
X130217Y260630D02*
D03*
Y256398D02*
D03*
X53952Y263506D02*
D03*
X49803Y251882D02*
D03*
X53673D02*
D03*
X49606Y263595D02*
D03*
X83563Y266339D02*
D03*
X83545Y269882D02*
D03*
X75603Y266326D02*
D03*
X75653Y269882D02*
D03*
X44085D02*
D03*
X224410Y67421D02*
D03*
X292323Y154724D02*
D03*
Y150492D02*
D03*
X28445Y263976D02*
D03*
X32677D02*
D03*
X55315Y161024D02*
D03*
Y165256D02*
D03*
X165650Y74803D02*
D03*
X169882D02*
D03*
X91831Y23917D02*
D03*
Y19685D02*
D03*
X68701Y11811D02*
D03*
Y7579D02*
D03*
X21654Y13976D02*
D03*
Y9744D02*
D03*
X10341Y81791D02*
D03*
X14173D02*
D03*
X28346Y184350D02*
D03*
X67028Y161221D02*
D03*
Y165090D02*
D03*
X86024Y161319D02*
D03*
Y165188D02*
D03*
X156398Y185559D02*
D03*
X160267D02*
D03*
X32480Y251969D02*
D03*
X28611D02*
D03*
X28346Y196161D02*
D03*
X24515D02*
D03*
X33563Y10039D02*
D03*
Y13871D02*
D03*
X56791Y7776D02*
D03*
Y11607D02*
D03*
X3051Y104044D02*
D03*
Y96153D02*
D03*
Y88261D02*
D03*
Y80369D02*
D03*
Y72477D02*
D03*
X188350Y2953D02*
D03*
X172566D02*
D03*
X164674D02*
D03*
X156782D02*
D03*
X148890D02*
D03*
X125215D02*
D03*
X117323D02*
D03*
X178660Y207972D02*
D03*
X212500Y255199D02*
D03*
Y239415D02*
D03*
X145446Y156102D02*
D03*
X113878D02*
D03*
X166732Y122352D02*
D03*
Y98676D02*
D03*
Y90784D02*
D03*
Y82892D02*
D03*
X211910Y35370D02*
D03*
X18110Y2953D02*
D03*
X26002D02*
D03*
X33894D02*
D03*
X57570D02*
D03*
X65462D02*
D03*
X89137D02*
D03*
X58599Y156201D02*
D03*
X20410Y269882D02*
D03*
X28302D02*
D03*
X36194D02*
D03*
X51977D02*
D03*
X59869D02*
D03*
X67761D02*
D03*
X91437D02*
D03*
X111122D02*
D03*
X119014D02*
D03*
X126906D02*
D03*
X150582D02*
D03*
X158474D02*
D03*
X166365D02*
D03*
X182149D02*
D03*
X190041D02*
D03*
X197933D02*
D03*
X195571Y113091D02*
D03*
X90174Y33179D02*
D03*
X205315Y46358D02*
D03*
X281693Y150197D02*
D03*
X279429Y152657D02*
D03*
X281693Y155020D02*
D03*
X294749Y167095D02*
D03*
X289196Y171992D02*
D03*
X327165Y199311D02*
D03*
X325197Y197170D02*
D03*
X327506Y174409D02*
D03*
X322230Y173017D02*
D03*
X326944Y179082D02*
D03*
X321231Y180578D02*
D03*
X325197Y201870D02*
D03*
X327495Y170343D02*
D03*
X265945Y136221D02*
D03*
X38878Y175061D02*
D03*
X49114D02*
D03*
X323130Y123031D02*
D03*
X307874Y105807D02*
D03*
X205413Y32677D02*
D03*
X207677Y34547D02*
D03*
X203150D02*
D03*
X207579Y44390D02*
D03*
X203150D02*
D03*
X126374Y120571D02*
D03*
X144980Y174508D02*
D03*
X74606Y201673D02*
D03*
X69193Y199902D02*
D03*
Y203642D02*
D03*
X119488Y111909D02*
D03*
X116831Y96850D02*
D03*
X123130D02*
D03*
X126366Y117717D02*
D03*
X119039D02*
D03*
X104429Y89567D02*
D03*
X104724Y98032D02*
D03*
X111417Y110876D02*
D03*
X108366Y110793D02*
D03*
X111028Y92028D02*
D03*
X114472D02*
D03*
X117913Y92125D02*
D03*
X131595Y92224D02*
D03*
X127657Y92126D02*
D03*
X124213Y92028D02*
D03*
X137520Y121161D02*
D03*
X105644Y117747D02*
D03*
X110126Y117687D02*
D03*
X133661Y118559D02*
D03*
X107961Y115877D02*
D03*
X133661Y112259D02*
D03*
X133688Y107579D02*
D03*
X116929Y101673D02*
D03*
Y106791D02*
D03*
X111024Y98032D02*
D03*
X124606Y104232D02*
D03*
X119090Y120571D02*
D03*
X133688Y101279D02*
D03*
X108268Y103543D02*
D03*
X124606Y101673D02*
D03*
X127165Y104232D02*
D03*
X116241Y149311D02*
D03*
X122540D02*
D03*
X116652Y139877D02*
D03*
Y135054D02*
D03*
X319053Y87793D02*
D03*
Y82675D02*
D03*
X121555Y140169D02*
D03*
X96457Y143307D02*
D03*
X107650Y141679D02*
D03*
X104724D02*
D03*
X113878Y135051D02*
D03*
Y137610D02*
D03*
X116437Y142728D02*
D03*
X118996Y137610D02*
D03*
X107532Y134646D02*
D03*
X104704D02*
D03*
X105750Y127572D02*
D03*
X107950Y129361D02*
D03*
X109930Y127491D02*
D03*
X39046Y145276D02*
D03*
Y140748D02*
D03*
X110138Y168898D02*
D03*
X112500Y170994D02*
D03*
X107944Y170965D02*
D03*
X112500Y180315D02*
D03*
X110236Y182382D02*
D03*
X107972Y180315D02*
D03*
X191116Y134664D02*
D03*
X182756Y134780D02*
D03*
X179055D02*
D03*
X187416Y134664D02*
D03*
X205492Y98819D02*
D03*
X193701Y167736D02*
D03*
X187992Y167618D02*
D03*
X187402Y146063D02*
D03*
X181102Y148031D02*
D03*
Y146063D02*
D03*
X44193Y188681D02*
D03*
X51083Y181102D02*
D03*
X57284Y33169D02*
D03*
X66472Y33232D02*
D03*
X177559Y165748D02*
D03*
X211122Y177067D02*
D03*
X206693Y178543D02*
D03*
X188203Y141929D02*
D03*
X188189Y138878D02*
D03*
X181004Y141929D02*
D03*
X304045Y180565D02*
D03*
X298233Y179521D02*
D03*
X293372Y176167D02*
D03*
X285020Y167816D02*
D03*
X279938Y160227D02*
D03*
X290574Y162919D02*
D03*
X298925Y171270D02*
D03*
X273246Y167310D02*
D03*
X281374Y167669D02*
D03*
X284547Y81791D02*
D03*
X280217Y77264D02*
D03*
X268012Y80742D02*
D03*
X167224Y35335D02*
D03*
X221470Y167717D02*
D03*
X199311Y193602D02*
D03*
X210630Y184055D02*
D03*
X181702Y184934D02*
D03*
X184261Y187493D02*
D03*
X181702Y190052D02*
D03*
X189379Y182375D02*
D03*
X186820Y179816D02*
D03*
X191938D02*
D03*
X189379Y187493D02*
D03*
X191938Y190052D02*
D03*
X222146Y184055D02*
D03*
X276488Y163615D02*
D03*
Y159915D02*
D03*
X234154Y139075D02*
D03*
X230807D02*
D03*
X246871Y74592D02*
D03*
X179724Y62500D02*
D03*
X188203Y107713D02*
D03*
X183203D02*
D03*
X271897Y117618D02*
D03*
X267960Y121063D02*
D03*
X271897Y121161D02*
D03*
X267960Y117520D02*
D03*
X16535Y164862D02*
D03*
X211312Y101731D02*
D03*
X213871Y116334D02*
D03*
X218989Y92425D02*
D03*
Y99172D02*
D03*
X235071Y78782D02*
D03*
X59547Y255610D02*
D03*
Y249311D02*
D03*
X59571Y217351D02*
D03*
Y223650D02*
D03*
X142703Y215969D02*
D03*
X148622Y218898D02*
D03*
X153051Y212598D02*
D03*
X148622Y212598D02*
D03*
X148302Y200984D02*
D03*
X144095Y199606D02*
D03*
X139665Y199508D02*
D03*
X319795Y128141D02*
D03*
X315989Y136476D02*
D03*
X315991Y132395D02*
D03*
X316094Y128141D02*
D03*
X316015Y124499D02*
D03*
X189379Y179816D02*
D03*
X191938Y182375D02*
D03*
X184261Y190052D02*
D03*
X186820Y184934D02*
D03*
X191938D02*
D03*
Y187493D02*
D03*
X181702D02*
D03*
X200570Y186509D02*
D03*
X200367Y178517D02*
D03*
X214961Y152736D02*
D03*
X215109Y167815D02*
D03*
X282951Y71963D02*
D03*
X219965Y147047D02*
D03*
X213666D02*
D03*
X213675Y140865D02*
D03*
X211116Y135747D02*
D03*
Y133188D02*
D03*
X221353D02*
D03*
Y130629D02*
D03*
X218794D02*
D03*
Y121949D02*
D03*
X218701Y124705D02*
D03*
X207283Y124016D02*
D03*
X201969Y119685D02*
D03*
X203024Y144980D02*
D03*
X196725D02*
D03*
X182283Y166535D02*
D03*
X193701Y162736D02*
D03*
X187992Y160630D02*
D03*
Y163898D02*
D03*
X193701Y152736D02*
D03*
X187992Y153543D02*
D03*
X184449D02*
D03*
X187402Y148031D02*
D03*
X188203Y128972D02*
D03*
X183203D02*
D03*
X180925Y138779D02*
D03*
X274036Y91425D02*
D03*
X195571Y106890D02*
D03*
X211116Y138306D02*
D03*
X275984Y171260D02*
D03*
X270925Y171319D02*
D03*
X265925Y177657D02*
D03*
X270925D02*
D03*
X275925D02*
D03*
X280925D02*
D03*
X284646Y179429D02*
D03*
X280925Y198917D02*
D03*
X275925D02*
D03*
X270925D02*
D03*
X286002Y159871D02*
D03*
X286601Y138602D02*
D03*
Y128602D02*
D03*
X310814D02*
D03*
X303708Y125433D02*
D03*
X266910Y125984D02*
D03*
X294025Y92483D02*
D03*
X295304Y100017D02*
D03*
X301730Y82675D02*
D03*
X319097Y75845D02*
D03*
X327801Y79134D02*
D03*
X284016Y208158D02*
D03*
X276142D02*
D03*
X271063Y204134D02*
D03*
X267520D02*
D03*
X268268Y208158D02*
D03*
X260394D02*
D03*
X252520D02*
D03*
X235138Y114987D02*
D03*
X231004Y114961D02*
D03*
X235236Y126476D02*
D03*
X231102D02*
D03*
X231988Y99803D02*
D03*
X228937D02*
D03*
X231988Y106890D02*
D03*
X229038D02*
D03*
X206004Y105610D02*
D03*
X202756Y105598D02*
D03*
X205906Y112697D02*
D03*
X202854D02*
D03*
X212049Y92618D02*
D03*
X205750D02*
D03*
X21161Y164764D02*
D03*
X18802Y166929D02*
D03*
X18799Y153445D02*
D03*
X21063Y155413D02*
D03*
X16535Y155610D02*
D03*
X79626Y195394D02*
D03*
X84483Y174494D02*
D03*
X63223D02*
D03*
Y184494D02*
D03*
Y189494D02*
D03*
X57356Y174494D02*
D03*
X57469Y178559D02*
D03*
Y182260D02*
D03*
Y185646D02*
D03*
Y189297D02*
D03*
X97532Y182378D02*
D03*
X91528Y182496D02*
D03*
X84483Y189494D02*
D03*
X91528Y188795D02*
D03*
X102165Y206594D02*
D03*
X85827Y205276D02*
D03*
X91339Y195709D02*
D03*
X96850Y205276D02*
D03*
X80807Y206496D02*
D03*
X53150Y200394D02*
D03*
X58563Y207382D02*
D03*
X53150Y206693D02*
D03*
X46949Y206299D02*
D03*
X119278Y21151D02*
D03*
X122961Y21063D02*
D03*
X123814Y80216D02*
D03*
X131398Y80315D02*
D03*
X127657Y80315D02*
D03*
X118498Y80118D02*
D03*
X110728D02*
D03*
X114472Y80216D02*
D03*
X97736Y80905D02*
D03*
X91437D02*
D03*
X104429Y83268D02*
D03*
X193110Y215846D02*
D03*
X187078Y215926D02*
D03*
X28760Y81004D02*
D03*
X22146D02*
D03*
X25394D02*
D03*
X21921Y92323D02*
D03*
X120509Y61140D02*
D03*
X146686Y256967D02*
D03*
Y261297D02*
D03*
X204508Y222661D02*
D03*
X187795Y223721D02*
D03*
X178417Y216713D02*
D03*
X182480Y216732D02*
D03*
X149442Y246337D02*
D03*
X156867Y254257D02*
D03*
X169783Y260796D02*
D03*
Y264665D02*
D03*
X157874Y262594D02*
D03*
X149442Y252636D02*
D03*
X150229Y256967D02*
D03*
Y261297D02*
D03*
X140354Y19783D02*
D03*
Y13878D02*
D03*
X154724Y56791D02*
D03*
X166339Y55807D02*
D03*
X114272Y74902D02*
D03*
X101645Y61140D02*
D03*
X65158Y75000D02*
D03*
X88189Y74016D02*
D03*
X43209Y66678D02*
D03*
X40059D02*
D03*
X54419Y62106D02*
D03*
X114241Y61140D02*
D03*
X160039Y55807D02*
D03*
X136614Y15748D02*
D03*
X244646Y208158D02*
D03*
X276476Y78150D02*
D03*
X159350Y45768D02*
D03*
X163248Y37697D02*
D03*
X309724Y188386D02*
D03*
X80990Y51195D02*
D03*
X72211Y52362D02*
D03*
Y45276D02*
D03*
X80990Y46274D02*
D03*
X72146Y48819D02*
D03*
X78445Y52362D02*
D03*
Y45177D02*
D03*
X75328D02*
D03*
Y52362D02*
D03*
X66719Y51195D02*
D03*
X69095Y52362D02*
D03*
Y45177D02*
D03*
X78445Y48819D02*
D03*
X75328D02*
D03*
X69095D02*
D03*
X66719Y46274D02*
D03*
X93012Y38386D02*
D03*
X96555D02*
D03*
X69676Y29531D02*
D03*
X48219Y62205D02*
D03*
X90167Y30488D02*
D03*
X85020Y33232D02*
D03*
X86024Y24902D02*
D03*
Y21358D02*
D03*
X81184Y29531D02*
D03*
X81595Y23917D02*
D03*
X77461D02*
D03*
X85040Y38366D02*
D03*
X88760Y38386D02*
D03*
X85020Y29531D02*
D03*
X77348Y33232D02*
D03*
X81184D02*
D03*
X73514Y24766D02*
D03*
X77348Y29531D02*
D03*
X73512Y33232D02*
D03*
X73514Y29529D02*
D03*
X68701Y16732D02*
D03*
Y20768D02*
D03*
X63871Y24606D02*
D03*
X161122Y31102D02*
D03*
X154823D02*
D03*
X149016Y23819D02*
D03*
X149409Y28445D02*
D03*
Y32745D02*
D03*
X149213Y36516D02*
D03*
X108268Y68110D02*
D03*
X100984Y67028D02*
D03*
X114272Y67421D02*
D03*
X130709Y64173D02*
D03*
Y70473D02*
D03*
X124902Y71161D02*
D03*
X107944Y61140D02*
D03*
X100984Y74114D02*
D03*
X82677Y72894D02*
D03*
X88189Y63327D02*
D03*
X76772Y60256D02*
D03*
X65158Y67520D02*
D03*
Y71260D02*
D03*
X54528Y75000D02*
D03*
X48917Y74311D02*
D03*
Y68012D02*
D03*
X115953Y28287D02*
D03*
X110630Y27854D02*
D03*
X123567Y237882D02*
D03*
X284646Y175886D02*
D03*
X199193Y98816D02*
D03*
X225295Y90354D02*
D03*
Y94291D02*
D03*
X221548Y101731D02*
D03*
X211312Y104290D02*
D03*
X218989Y106849D02*
D03*
X213871D02*
D03*
X211312Y99172D02*
D03*
X213871Y101731D02*
D03*
X218989D02*
D03*
X221548Y99172D02*
D03*
X216430Y109408D02*
D03*
X221548Y104290D02*
D03*
Y109408D02*
D03*
X216430Y104290D02*
D03*
X220079Y116425D02*
D03*
X226476Y121850D02*
D03*
X226529Y124902D02*
D03*
X211116Y130629D02*
D03*
X218996Y141079D02*
D03*
X218794Y135747D02*
D03*
X195669Y119685D02*
D03*
X213583Y124016D02*
D03*
X202702Y134110D02*
D03*
X69355Y207382D02*
D03*
X64828Y194685D02*
D03*
X74508Y206496D02*
D03*
X58465Y199803D02*
D03*
X58465Y194685D02*
D03*
X46949Y199213D02*
D03*
X46161Y182283D02*
D03*
X42323Y182382D02*
D03*
X100197Y200394D02*
D03*
X104134Y200295D02*
D03*
X270669Y78150D02*
D03*
X288296Y85913D02*
D03*
X296949Y107103D02*
D03*
X293602D02*
D03*
X214961Y157736D02*
D03*
Y162736D02*
D03*
X310814Y138602D02*
D03*
X319716Y124499D02*
D03*
X319535Y132395D02*
D03*
X319533Y136476D02*
D03*
X178417Y213170D02*
D03*
X182480Y213189D02*
D03*
X124606Y260647D02*
D03*
X112992D02*
D03*
X102190Y223847D02*
D03*
X90575D02*
D03*
X185728Y241437D02*
D03*
X185759Y247744D02*
D03*
Y235263D02*
D03*
X175984Y223721D02*
D03*
X187992Y156929D02*
D03*
X193701Y157736D02*
D03*
X180523Y159646D02*
D03*
X141240Y174508D02*
D03*
X84483Y179493D02*
D03*
Y184494D02*
D03*
X79626Y199094D02*
D03*
X74606Y195374D02*
D03*
X113567Y237882D02*
D03*
X108568Y228937D02*
D03*
X113659Y229035D02*
D03*
X118568Y228867D02*
D03*
Y220048D02*
D03*
X113567D02*
D03*
X108568D02*
D03*
X153051Y216142D02*
D03*
X148302Y197441D02*
D03*
X144095Y187911D02*
D03*
X139469D02*
D03*
X121752Y197878D02*
D03*
X126919Y197835D02*
D03*
X131890Y197933D02*
D03*
X115867Y197878D02*
D03*
X97532Y188677D02*
D03*
X63223Y179493D02*
D03*
X202702Y126925D02*
D03*
X199873D02*
D03*
X178203Y107713D02*
D03*
Y128972D02*
D03*
X79921Y212303D02*
D03*
X66490Y217056D02*
D03*
X89370Y250590D02*
D03*
X89468Y254626D02*
D03*
X84611Y245698D02*
D03*
X88508D02*
D03*
X92406D02*
D03*
X88508Y237627D02*
D03*
X78790Y232017D02*
D03*
Y243434D02*
D03*
X71875Y242105D02*
D03*
Y233345D02*
D03*
X64959Y232017D02*
D03*
Y243434D02*
D03*
X160138Y24213D02*
D03*
Y19193D02*
D03*
Y9154D02*
D03*
X136614Y18898D02*
D03*
X137795Y28346D02*
D03*
Y32697D02*
D03*
X216234Y138306D02*
D03*
X181702Y182375D02*
D03*
X288896Y105089D02*
D03*
Y108309D02*
D03*
X253955Y119968D02*
D03*
X221353Y138306D02*
D03*
X213675Y135747D02*
D03*
X211116Y140865D02*
D03*
X216234Y133188D02*
D03*
X250197Y81595D02*
D03*
X260531D02*
D03*
X71260Y62205D02*
D03*
X76772Y63957D02*
D03*
X39046Y131582D02*
D03*
Y135716D02*
D03*
Y126279D02*
D03*
Y122146D02*
D03*
X51863Y188098D02*
D03*
X53827Y174508D02*
D03*
X173223Y138165D02*
D03*
X202165Y241504D02*
D03*
X71161Y68504D02*
D03*
X88189Y67716D02*
D03*
X159941Y59961D02*
D03*
X136122Y48622D02*
D03*
X136024Y53543D02*
D03*
X123314Y9422D02*
D03*
X118983Y9350D02*
D03*
X115453Y17913D02*
D03*
X110635Y14075D02*
D03*
Y17618D02*
D03*
X115453Y21457D02*
D03*
X110635Y21551D02*
D03*
X124902Y67421D02*
D03*
X124803Y75000D02*
D03*
X26673Y141043D02*
D03*
Y144882D02*
D03*
X23720Y115059D02*
D03*
X38007Y114961D02*
D03*
X38681Y90158D02*
D03*
X30708Y114961D02*
D03*
X26673Y126279D02*
D03*
Y122146D02*
D03*
Y135716D02*
D03*
Y131582D02*
D03*
X59832Y62205D02*
D03*
X192815Y35925D02*
D03*
X198031D02*
D03*
X197992Y44902D02*
D03*
X187992Y35925D02*
D03*
Y44902D02*
D03*
X182894Y27067D02*
D03*
X187992D02*
D03*
X192992D02*
D03*
X61211Y29531D02*
D03*
X66394D02*
D03*
X69676Y33232D02*
D03*
X264567Y171260D02*
D03*
X282283D02*
D03*
X159350Y37697D02*
D03*
X155453D02*
D03*
X101978Y30882D02*
D03*
Y34425D02*
D03*
X81391Y11811D02*
D03*
X77559D02*
D03*
X57087Y16929D02*
D03*
Y20472D02*
D03*
X60328Y24606D02*
D03*
X73517Y21220D02*
D03*
X108268Y74410D02*
D03*
X54528Y67520D02*
D03*
X66230Y62106D02*
D03*
X93760Y72894D02*
D03*
X40157Y73819D02*
D03*
X246573Y101267D02*
D03*
X319097Y79388D02*
D03*
X301730Y87793D02*
D03*
X286002Y163572D02*
D03*
X225387Y132087D02*
D03*
X287321Y100337D02*
D03*
X258091Y114358D02*
D03*
X246573Y97330D02*
D03*
X199606Y134055D02*
D03*
X256713Y105598D02*
D03*
X261043D02*
D03*
X265374D02*
D03*
X256713Y101267D02*
D03*
X261043D02*
D03*
X265374D02*
D03*
X256713Y96937D02*
D03*
X261043D02*
D03*
X265374D02*
D03*
X273562Y68223D02*
D03*
Y82002D02*
D03*
Y75112D02*
D03*
D212*
X134227Y235211D02*
D03*
X140380Y241364D02*
D03*
X56391Y43865D02*
D03*
X51863D02*
D03*
X56391Y53393D02*
D03*
X51863D02*
D03*
X95669Y43865D02*
D03*
X91142D02*
D03*
X95669Y53393D02*
D03*
X91142D02*
D03*
X47763Y234970D02*
D03*
X51231Y237880D02*
D03*
X53887Y227671D02*
D03*
X57355Y230582D02*
D03*
M02*
