G04*
G04 #@! TF.GenerationSoftware,Altium Limited,Altium Designer,19.0.15 (446)*
G04*
G04 Layer_Physical_Order=8*
G04 Layer_Color=16711680*
%FSLAX25Y25*%
%MOIN*%
G70*
G01*
G75*
%ADD10R,0.03543X0.03937*%
%ADD11R,0.03937X0.03543*%
%ADD12R,0.02441X0.02284*%
%ADD14R,0.03740X0.03937*%
%ADD16R,0.02441X0.02441*%
%ADD25R,0.04528X0.07087*%
%ADD26R,0.07087X0.04528*%
%ADD37R,0.02441X0.02441*%
%ADD41R,0.03937X0.03740*%
%ADD58R,0.03150X0.01181*%
%ADD75R,0.04134X0.08661*%
%ADD76R,0.03937X0.04134*%
%ADD79R,0.08661X0.04134*%
%ADD80R,0.04134X0.03937*%
%ADD180C,0.00945*%
%ADD183C,0.00945*%
%ADD186C,0.00787*%
%ADD188C,0.01181*%
%ADD189C,0.01968*%
%ADD191C,0.02756*%
%ADD195C,0.01000*%
%ADD205C,0.13780*%
%ADD206C,0.07874*%
%ADD207C,0.08858*%
%ADD208C,0.17323*%
%ADD209C,0.06693*%
%ADD210R,0.06693X0.06693*%
%ADD211C,0.01968*%
%ADD212C,0.02362*%
%ADD219R,0.06890X0.09646*%
%ADD220R,0.01968X0.04724*%
%ADD221R,0.03740X0.03740*%
%ADD222R,0.03740X0.03740*%
G36*
X89863Y256000D02*
X61076D01*
X61031Y256225D01*
X60683Y256746D01*
X60162Y257094D01*
X59547Y257216D01*
X58933Y257094D01*
X58412Y256746D01*
X58064Y256225D01*
X58019Y256000D01*
X22165D01*
Y267963D01*
X89863D01*
Y256000D01*
D02*
G37*
G36*
X195965Y255901D02*
X151941D01*
X151747Y256265D01*
X151722Y256401D01*
X151835Y256967D01*
X151712Y257581D01*
X151364Y258102D01*
X150843Y258450D01*
X150229Y258572D01*
X149615Y258450D01*
X149094Y258102D01*
X148746Y257581D01*
X148623Y256967D01*
X148736Y256401D01*
X148711Y256265D01*
X148517Y255901D01*
X132117D01*
X131800Y256288D01*
X131822Y256398D01*
X131700Y257012D01*
X131352Y257533D01*
X130831Y257881D01*
X130217Y258003D01*
X129602Y257881D01*
X129081Y257533D01*
X128733Y257012D01*
X128611Y256398D01*
X128633Y256288D01*
X128316Y255901D01*
X111319D01*
Y267963D01*
X195965D01*
Y255901D01*
D02*
G37*
G36*
X105434Y253681D02*
X103699Y251946D01*
X101964Y253681D01*
X102345Y254062D01*
X102407Y254077D01*
X103982Y254729D01*
X104232Y254883D01*
X105434Y253681D01*
D02*
G37*
G36*
X102934Y251181D02*
X101199Y249447D01*
X99464Y251181D01*
X101199Y252916D01*
X102934Y251181D01*
D02*
G37*
G36*
X97934D02*
X96199Y249447D01*
X94464Y251181D01*
X96199Y252916D01*
X97934Y251181D01*
D02*
G37*
G36*
X122934D02*
X121199Y249447D01*
X119464Y251181D01*
X120213Y251930D01*
X122185D01*
X122934Y251181D01*
D02*
G37*
G36*
X111319Y251930D02*
X112185D01*
X112934Y251181D01*
X111199Y249447D01*
X109464Y251181D01*
X110342Y252059D01*
X111319Y251930D01*
D02*
G37*
G36*
X107934Y251181D02*
X106199Y249447D01*
X104464Y251181D01*
X106199Y252916D01*
X107934Y251181D01*
D02*
G37*
G36*
X137934D02*
X136199Y249447D01*
X134464Y251181D01*
X135213Y251930D01*
X137185D01*
X137934Y251181D01*
D02*
G37*
G36*
X140743Y251800D02*
X142028Y251631D01*
X142431Y251684D01*
X142934Y251181D01*
X141199Y249447D01*
X139464Y251181D01*
X140214Y251930D01*
X140428D01*
X140743Y251800D01*
D02*
G37*
G36*
X167934Y251181D02*
X166199Y249447D01*
X164464Y251181D01*
X165214Y251930D01*
X167185D01*
X167934Y251181D01*
D02*
G37*
G36*
X117934D02*
X116199Y249447D01*
X114464Y251181D01*
X115214Y251930D01*
X117185D01*
X117934Y251181D01*
D02*
G37*
G36*
X127934D02*
X126199Y249447D01*
X124464Y251181D01*
X125214Y251930D01*
X127185D01*
X127934Y251181D01*
D02*
G37*
G36*
X206201Y268602D02*
X18996D01*
Y248917D01*
X1000D01*
Y271343D01*
X206201D01*
Y268602D01*
D02*
G37*
G36*
X145209Y248905D02*
X145143Y248819D01*
X144840Y248087D01*
X143699Y246947D01*
X141964Y248681D01*
X143699Y250416D01*
X145209Y248905D01*
D02*
G37*
G36*
X100434Y248681D02*
X98699Y246947D01*
X96964Y248681D01*
X98699Y250416D01*
X100434Y248681D01*
D02*
G37*
G36*
X170434D02*
X168699Y246947D01*
X166964Y248681D01*
X168699Y250416D01*
X170434Y248681D01*
D02*
G37*
G36*
X120434D02*
X118699Y246947D01*
X116964Y248681D01*
X118699Y250416D01*
X120434Y248681D01*
D02*
G37*
G36*
X105434D02*
X103699Y246947D01*
X101964Y248681D01*
X103699Y250416D01*
X105434Y248681D01*
D02*
G37*
G36*
X130434D02*
X128699Y246947D01*
X126964Y248681D01*
X128699Y250416D01*
X130434Y248681D01*
D02*
G37*
G36*
X165434D02*
X163699Y246947D01*
X161964Y248681D01*
X163699Y250416D01*
X165434Y248681D01*
D02*
G37*
G36*
X115434D02*
X113699Y246947D01*
X111964Y248681D01*
X113699Y250416D01*
X115434Y248681D01*
D02*
G37*
G36*
X135434D02*
X133699Y246947D01*
X131964Y248681D01*
X133699Y250416D01*
X135434Y248681D01*
D02*
G37*
G36*
X160434D02*
X158699Y246947D01*
X156964Y248681D01*
X157684Y249400D01*
X158152Y249462D01*
X159213Y249902D01*
X160434Y248681D01*
D02*
G37*
G36*
X110434D02*
X108699Y246947D01*
X106964Y248681D01*
X108699Y250416D01*
X110434Y248681D01*
D02*
G37*
G36*
X140434D02*
X138699Y246947D01*
X136964Y248681D01*
X138699Y250416D01*
X140434Y248681D01*
D02*
G37*
G36*
X125434D02*
X123699Y246947D01*
X121964Y248681D01*
X123699Y250416D01*
X125434Y248681D01*
D02*
G37*
G36*
X192934Y246181D02*
X191199Y244446D01*
X190153Y245492D01*
X190554Y246459D01*
X190676Y247393D01*
X191199Y247916D01*
X192934Y246181D01*
D02*
G37*
G36*
X167934D02*
X166199Y244446D01*
X164464Y246181D01*
X166199Y247916D01*
X167934Y246181D01*
D02*
G37*
G36*
X117934D02*
X116199Y244446D01*
X114464Y246181D01*
X116199Y247916D01*
X117934Y246181D01*
D02*
G37*
G36*
X157934D02*
X156199Y244446D01*
X154464Y246181D01*
X156199Y247916D01*
X157934Y246181D01*
D02*
G37*
G36*
X107934D02*
X106199Y244446D01*
X104464Y246181D01*
X106199Y247916D01*
X107934Y246181D01*
D02*
G37*
G36*
X177934D02*
X176199Y244446D01*
X174464Y246181D01*
X176199Y247916D01*
X177934Y246181D01*
D02*
G37*
G36*
X127934D02*
X126199Y244446D01*
X124464Y246181D01*
X126199Y247916D01*
X127934Y246181D01*
D02*
G37*
G36*
X102934D02*
X101199Y244446D01*
X99464Y246181D01*
X101199Y247916D01*
X102934Y246181D01*
D02*
G37*
G36*
X137934D02*
X136889Y245136D01*
X136729Y245014D01*
X136607Y244854D01*
X136199Y244446D01*
X134464Y246181D01*
X136199Y247916D01*
X137934Y246181D01*
D02*
G37*
G36*
X112934D02*
X111199Y244446D01*
X109464Y246181D01*
X111199Y247916D01*
X112934Y246181D01*
D02*
G37*
G36*
X162934D02*
X161199Y244446D01*
X159464Y246181D01*
X161199Y247916D01*
X162934Y246181D01*
D02*
G37*
G36*
X172934D02*
X171199Y244446D01*
X169464Y246181D01*
X171199Y247916D01*
X172934Y246181D01*
D02*
G37*
G36*
X122934D02*
X121199Y244446D01*
X119464Y246181D01*
X121199Y247916D01*
X122934Y246181D01*
D02*
G37*
G36*
X132934D02*
X131199Y244446D01*
X129464Y246181D01*
X131199Y247916D01*
X132934Y246181D01*
D02*
G37*
G36*
X125434Y243681D02*
X124479Y242726D01*
X123567Y242846D01*
X122889Y242757D01*
X121964Y243681D01*
X123699Y245416D01*
X125434Y243681D01*
D02*
G37*
G36*
X115434D02*
X114479Y242726D01*
X113567Y242846D01*
X112889Y242757D01*
X111964Y243681D01*
X113699Y245416D01*
X115434Y243681D01*
D02*
G37*
G36*
X165434D02*
X164318Y242566D01*
X163489Y242909D01*
X162622Y243023D01*
X161964Y243681D01*
X163699Y245416D01*
X165434Y243681D01*
D02*
G37*
G36*
X195434D02*
X193699Y241947D01*
X191964Y243681D01*
X193699Y245416D01*
X195434Y243681D01*
D02*
G37*
G36*
X110434D02*
X108699Y241947D01*
X106964Y243681D01*
X108699Y245416D01*
X110434Y243681D01*
D02*
G37*
G36*
X160434D02*
X158699Y241947D01*
X156964Y243681D01*
X158699Y245416D01*
X160434Y243681D01*
D02*
G37*
G36*
X58262Y244516D02*
X59547Y244347D01*
X59734Y244372D01*
X60074Y244031D01*
X59996Y243434D01*
X60018Y243265D01*
X58699Y241947D01*
X56964Y243681D01*
X57935Y244652D01*
X58262Y244516D01*
D02*
G37*
G36*
X100434Y243681D02*
X98699Y241947D01*
X96964Y243681D01*
X98699Y245416D01*
X100434Y243681D01*
D02*
G37*
G36*
X175434D02*
X173699Y241947D01*
X171964Y243681D01*
X173699Y245416D01*
X175434Y243681D01*
D02*
G37*
G36*
X170434D02*
X168699Y241947D01*
X166964Y243681D01*
X168699Y245416D01*
X170434Y243681D01*
D02*
G37*
G36*
X120434D02*
X118699Y241947D01*
X116964Y243681D01*
X118699Y245416D01*
X120434Y243681D01*
D02*
G37*
G36*
X105434D02*
X103699Y241947D01*
X101964Y243681D01*
X103699Y245416D01*
X105434Y243681D01*
D02*
G37*
G36*
X180434D02*
X178699Y241947D01*
X176964Y243681D01*
X178699Y245416D01*
X180434Y243681D01*
D02*
G37*
G36*
X130434D02*
X128699Y241947D01*
X126964Y243681D01*
X128699Y245416D01*
X130434Y243681D01*
D02*
G37*
G36*
X135434D02*
X133699Y241947D01*
X131964Y243681D01*
X133699Y245416D01*
X135434Y243681D01*
D02*
G37*
G36*
X192934Y241181D02*
X191199Y239446D01*
X190514Y240131D01*
X190523Y240152D01*
X190692Y241437D01*
X190579Y242296D01*
X191199Y242916D01*
X192934Y241181D01*
D02*
G37*
G36*
X172934D02*
X171199Y239446D01*
X169464Y241181D01*
X171199Y242916D01*
X172934Y241181D01*
D02*
G37*
G36*
X197249Y241865D02*
X197202Y241504D01*
X197324Y240572D01*
X196199Y239446D01*
X194464Y241181D01*
X196199Y242916D01*
X197249Y241865D01*
D02*
G37*
G36*
X146960Y242038D02*
X147159Y241955D01*
X147934Y241181D01*
X146199Y239446D01*
X145395Y240250D01*
X145542Y241364D01*
X145438Y242154D01*
X146033Y242749D01*
X146960Y242038D01*
D02*
G37*
G36*
X97934Y241181D02*
X96199Y239446D01*
X94817Y240828D01*
X94884Y241370D01*
X94925Y241427D01*
X95916Y242188D01*
X96124Y242459D01*
X96623Y242492D01*
X97934Y241181D01*
D02*
G37*
G36*
X102934D02*
X101199Y239446D01*
X99464Y241181D01*
X101199Y242916D01*
X102934Y241181D01*
D02*
G37*
G36*
X157934D02*
X156199Y239446D01*
X154464Y241181D01*
X156199Y242916D01*
X157934Y241181D01*
D02*
G37*
G36*
X107934D02*
X106199Y239446D01*
X104464Y241181D01*
X106199Y242916D01*
X107934Y241181D01*
D02*
G37*
G36*
X177934D02*
X176199Y239446D01*
X174464Y241181D01*
X176199Y242916D01*
X177934Y241181D01*
D02*
G37*
G36*
X132934D02*
X131199Y239446D01*
X129464Y241181D01*
X131199Y242916D01*
X132934Y241181D01*
D02*
G37*
G36*
X195434Y238681D02*
X193699Y236947D01*
X191964Y238681D01*
X193699Y240416D01*
X195434Y238681D01*
D02*
G37*
G36*
X60434D02*
X58699Y236947D01*
X56964Y238681D01*
X58699Y240416D01*
X60434Y238681D01*
D02*
G37*
G36*
X150434D02*
X148699Y236947D01*
X146964Y238681D01*
X148699Y240416D01*
X150434Y238681D01*
D02*
G37*
G36*
X100434D02*
X98699Y236947D01*
X96964Y238681D01*
X98699Y240416D01*
X100434Y238681D01*
D02*
G37*
G36*
X170434D02*
X168699Y236947D01*
X167113Y238532D01*
X167079Y238795D01*
X168699Y240416D01*
X170434Y238681D01*
D02*
G37*
G36*
X175434D02*
X173699Y236947D01*
X171964Y238681D01*
X173699Y240416D01*
X175434Y238681D01*
D02*
G37*
G36*
X155434D02*
X153699Y236947D01*
X151964Y238681D01*
X153699Y240416D01*
X155434Y238681D01*
D02*
G37*
G36*
X105434D02*
X103699Y236947D01*
X101964Y238681D01*
X103699Y240416D01*
X105434Y238681D01*
D02*
G37*
G36*
X180434D02*
X178699Y236947D01*
X176964Y238681D01*
X178699Y240416D01*
X180434Y238681D01*
D02*
G37*
G36*
X197934Y236181D02*
X196199Y234447D01*
X194464Y236181D01*
X196199Y237916D01*
X197934Y236181D01*
D02*
G37*
G36*
X147934D02*
X146199Y234447D01*
X144464Y236181D01*
X146199Y237916D01*
X147934Y236181D01*
D02*
G37*
G36*
X97934D02*
X96199Y234447D01*
X94464Y236181D01*
X96199Y237916D01*
X97934Y236181D01*
D02*
G37*
G36*
X157499Y236616D02*
X157753Y236001D01*
X156199Y234447D01*
X154464Y236181D01*
X156199Y237916D01*
X157499Y236616D01*
D02*
G37*
G36*
X107934Y236181D02*
X106199Y234447D01*
X104464Y236181D01*
X106199Y237916D01*
X107934Y236181D01*
D02*
G37*
G36*
X152934D02*
X151199Y234447D01*
X149464Y236181D01*
X151199Y237916D01*
X152934Y236181D01*
D02*
G37*
G36*
X102934D02*
X101199Y234447D01*
X99464Y236181D01*
X101199Y237916D01*
X102934Y236181D01*
D02*
G37*
G36*
X177934D02*
X176199Y234447D01*
X174464Y236181D01*
X176199Y237916D01*
X177934Y236181D01*
D02*
G37*
G36*
X192934D02*
X191199Y234447D01*
X190683Y234962D01*
X190723Y235263D01*
X190554Y236548D01*
X190342Y237059D01*
X191199Y237916D01*
X192934Y236181D01*
D02*
G37*
G36*
X172934D02*
X171199Y234447D01*
X169464Y236181D01*
X171199Y237916D01*
X172934Y236181D01*
D02*
G37*
G36*
X200434Y233681D02*
X199141Y232388D01*
X198942Y232236D01*
X198099Y232882D01*
X197526Y233120D01*
X196964Y233681D01*
X198699Y235416D01*
X200434Y233681D01*
D02*
G37*
G36*
X145434D02*
X143699Y231946D01*
X141964Y233681D01*
X143699Y235416D01*
X145434Y233681D01*
D02*
G37*
G36*
X95434D02*
X93699Y231946D01*
X91964Y233681D01*
X93699Y235416D01*
X95434Y233681D01*
D02*
G37*
G36*
X150434D02*
X148699Y231946D01*
X146964Y233681D01*
X148699Y235416D01*
X150434Y233681D01*
D02*
G37*
G36*
X100434D02*
X98699Y231946D01*
X96964Y233681D01*
X98699Y235416D01*
X100434Y233681D01*
D02*
G37*
G36*
X155434D02*
X153699Y231946D01*
X151964Y233681D01*
X153699Y235416D01*
X155434Y233681D01*
D02*
G37*
G36*
X105434D02*
X103699Y231946D01*
X101964Y233681D01*
X103699Y235416D01*
X105434Y233681D01*
D02*
G37*
G36*
X170434D02*
X168699Y231946D01*
X167079Y233566D01*
X167053Y233769D01*
X168699Y235416D01*
X170434Y233681D01*
D02*
G37*
G36*
X180434D02*
X178699Y231946D01*
X176964Y233681D01*
X178699Y235416D01*
X180434Y233681D01*
D02*
G37*
G36*
X129089Y235026D02*
X129241Y233875D01*
X129647Y232894D01*
X128699Y231946D01*
X126964Y233681D01*
X128699Y235416D01*
X129089Y235026D01*
D02*
G37*
G36*
X175434Y233681D02*
X173699Y231946D01*
X171964Y233681D01*
X173699Y235416D01*
X175434Y233681D01*
D02*
G37*
G36*
X181879Y232235D02*
X182249Y231754D01*
X182560Y231515D01*
X182674Y230921D01*
X181199Y229447D01*
X179464Y231181D01*
X181199Y232916D01*
X181879Y232235D01*
D02*
G37*
G36*
X152934Y231181D02*
X151199Y229447D01*
X149464Y231181D01*
X151199Y232916D01*
X152934Y231181D01*
D02*
G37*
G36*
X102934D02*
X101199Y229447D01*
X99464Y231181D01*
X101199Y232916D01*
X102934Y231181D01*
D02*
G37*
G36*
X147934D02*
X146199Y229447D01*
X144464Y231181D01*
X146199Y232916D01*
X147934Y231181D01*
D02*
G37*
G36*
X97934D02*
X96199Y229447D01*
X94464Y231181D01*
X96199Y232916D01*
X97934Y231181D01*
D02*
G37*
G36*
X172934D02*
X171199Y229447D01*
X169464Y231181D01*
X171199Y232916D01*
X172934Y231181D01*
D02*
G37*
G36*
X157395Y231720D02*
X157410Y231605D01*
X157688Y230935D01*
X156199Y229447D01*
X154464Y231181D01*
X156199Y232916D01*
X157395Y231720D01*
D02*
G37*
G36*
X87934Y231181D02*
X86199Y229447D01*
X84464Y231181D01*
X86199Y232916D01*
X87934Y231181D01*
D02*
G37*
G36*
X142934D02*
X141199Y229447D01*
X139464Y231181D01*
X141199Y232916D01*
X142934Y231181D01*
D02*
G37*
G36*
X92934D02*
X91199Y229447D01*
X89464Y231181D01*
X91199Y232916D01*
X92934Y231181D01*
D02*
G37*
G36*
X42934D02*
X41199Y229447D01*
X39464Y231181D01*
X41199Y232916D01*
X42934Y231181D01*
D02*
G37*
G36*
X177934D02*
X176199Y229447D01*
X174464Y231181D01*
X176199Y232916D01*
X177934Y231181D01*
D02*
G37*
G36*
X127934D02*
X126199Y229447D01*
X124464Y231181D01*
X126199Y232916D01*
X127934Y231181D01*
D02*
G37*
G36*
X180434Y228681D02*
X179205Y227452D01*
X178466Y228019D01*
X177436Y228446D01*
X177291Y228885D01*
X177299Y229015D01*
X178699Y230416D01*
X180434Y228681D01*
D02*
G37*
G36*
X95434D02*
X94108Y227356D01*
X94085Y227357D01*
X93057Y228146D01*
X92406Y228416D01*
X92286Y229002D01*
X93699Y230416D01*
X95434Y228681D01*
D02*
G37*
G36*
X100434D02*
X100033Y228281D01*
X99708Y228146D01*
X98680Y227357D01*
X98312Y227333D01*
X96964Y228681D01*
X98699Y230416D01*
X100434Y228681D01*
D02*
G37*
G36*
X140434D02*
X138731Y226979D01*
X138674Y226971D01*
X136964Y228681D01*
X138699Y230416D01*
X140434Y228681D01*
D02*
G37*
G36*
X185434D02*
X183699Y226946D01*
X181964Y228681D01*
X183699Y230416D01*
X185434Y228681D01*
D02*
G37*
G36*
X150434D02*
X148699Y226946D01*
X146964Y228681D01*
X148699Y230416D01*
X150434Y228681D01*
D02*
G37*
G36*
X134042Y230073D02*
X135434Y228681D01*
X133699Y226946D01*
X131964Y228681D01*
X133436Y230153D01*
X134042Y230073D01*
D02*
G37*
G36*
X85434Y228681D02*
X83699Y226946D01*
X82290Y228356D01*
X82300Y228507D01*
X83089Y229535D01*
X83280Y229997D01*
X83699Y230416D01*
X85434Y228681D01*
D02*
G37*
G36*
X145434D02*
X143699Y226946D01*
X141964Y228681D01*
X143699Y230416D01*
X145434Y228681D01*
D02*
G37*
G36*
X45434D02*
X43699Y226946D01*
X41964Y228681D01*
X43699Y230416D01*
X45434Y228681D01*
D02*
G37*
G36*
X155434D02*
X153699Y226946D01*
X151964Y228681D01*
X153699Y230416D01*
X155434Y228681D01*
D02*
G37*
G36*
X130434D02*
X128699Y226946D01*
X126964Y228681D01*
X128699Y230416D01*
X130434Y228681D01*
D02*
G37*
G36*
X170434D02*
X168699Y226946D01*
X167045Y228600D01*
X167027Y228743D01*
X168699Y230416D01*
X170434Y228681D01*
D02*
G37*
G36*
X157361Y226754D02*
X157410Y226381D01*
X157622Y225869D01*
X156199Y224447D01*
X154464Y226181D01*
X156199Y227916D01*
X157361Y226754D01*
D02*
G37*
G36*
X127934Y226181D02*
X126199Y224447D01*
X124464Y226181D01*
X126199Y227916D01*
X127934Y226181D01*
D02*
G37*
G36*
X152934D02*
X151199Y224447D01*
X149464Y226181D01*
X151199Y227916D01*
X152934Y226181D01*
D02*
G37*
G36*
X97860Y226255D02*
X97756Y226003D01*
X96199Y224447D01*
X95268Y225377D01*
X94874Y226329D01*
X94761Y226477D01*
X96199Y227916D01*
X97860Y226255D01*
D02*
G37*
G36*
X47934Y226181D02*
X46199Y224447D01*
X44464Y226181D01*
X46199Y227916D01*
X47934Y226181D01*
D02*
G37*
G36*
X147934D02*
X146199Y224447D01*
X144464Y226181D01*
X146199Y227916D01*
X147934Y226181D01*
D02*
G37*
G36*
X182934D02*
X181199Y224447D01*
X180800Y224846D01*
X180779Y225005D01*
X180283Y226202D01*
X179937Y226654D01*
X181199Y227916D01*
X182934Y226181D01*
D02*
G37*
G36*
X42934D02*
X41199Y224447D01*
X39464Y226181D01*
X41199Y227916D01*
X42934Y226181D01*
D02*
G37*
G36*
X155434Y223681D02*
X153699Y221947D01*
X151964Y223681D01*
X153699Y225416D01*
X155434Y223681D01*
D02*
G37*
G36*
X45434D02*
X43699Y221947D01*
X41964Y223681D01*
X43699Y225416D01*
X45434Y223681D01*
D02*
G37*
G36*
X50434D02*
X48699Y221947D01*
X46964Y223681D01*
X48699Y225416D01*
X50434Y223681D01*
D02*
G37*
G36*
X125434D02*
X123699Y221947D01*
X121964Y223681D01*
X123699Y225416D01*
X125434Y223681D01*
D02*
G37*
G36*
X170434D02*
X168699Y221947D01*
X167011Y223634D01*
X167000Y223717D01*
X168699Y225416D01*
X170434Y223681D01*
D02*
G37*
G36*
X85434D02*
X83699Y221947D01*
X83252Y222394D01*
X83141Y223234D01*
X82665Y224382D01*
X83699Y225416D01*
X85434Y223681D01*
D02*
G37*
G36*
X197934Y221181D02*
X196754Y220002D01*
X195779D01*
X195592Y220145D01*
X195435Y220210D01*
X194464Y221181D01*
X196199Y222916D01*
X197934Y221181D01*
D02*
G37*
G36*
X157327Y221788D02*
X157410Y221156D01*
X157556Y220804D01*
X156472Y219720D01*
X155533Y220441D01*
X154973Y220672D01*
X154464Y221181D01*
X156199Y222916D01*
X157327Y221788D01*
D02*
G37*
G36*
X42934Y221181D02*
X41199Y219446D01*
X39464Y221181D01*
X41199Y222916D01*
X42934Y221181D01*
D02*
G37*
G36*
X97934D02*
X96199Y219446D01*
X94616Y221029D01*
X94874Y221365D01*
X95033Y221750D01*
X96199Y222916D01*
X97934Y221181D01*
D02*
G37*
G36*
X47934D02*
X46199Y219446D01*
X44464Y221181D01*
X46199Y222916D01*
X47934Y221181D01*
D02*
G37*
G36*
X52934D02*
X51199Y219446D01*
X49464Y221181D01*
X51199Y222916D01*
X52934Y221181D01*
D02*
G37*
G36*
X132934Y216181D02*
X131199Y214446D01*
X129464Y216181D01*
X130452Y217169D01*
X131102Y217084D01*
X131923Y217192D01*
X132934Y216181D01*
D02*
G37*
G36*
X137660Y216455D02*
X137641Y215889D01*
X136199Y214446D01*
X134464Y216181D01*
X136199Y217916D01*
X137660Y216455D01*
D02*
G37*
G36*
X201081Y215346D02*
X200665Y215263D01*
X200144Y214915D01*
X199796Y214394D01*
X199674Y213779D01*
X199796Y213165D01*
X200144Y212644D01*
X200665Y212296D01*
X201081Y212213D01*
Y210482D01*
X177756D01*
Y211186D01*
X178256Y211596D01*
X178417Y211564D01*
X179031Y211686D01*
X179552Y212034D01*
X179900Y212555D01*
X180022Y213170D01*
X179900Y213784D01*
X179552Y214305D01*
X179031Y214653D01*
X178863Y214686D01*
Y215196D01*
X179031Y215230D01*
X179552Y215578D01*
X179855Y216031D01*
X181055D01*
X181345Y215597D01*
X181866Y215249D01*
X182033Y215215D01*
Y214706D01*
X181866Y214672D01*
X181345Y214324D01*
X180997Y213803D01*
X180875Y213189D01*
X180997Y212575D01*
X181345Y212054D01*
X181866Y211705D01*
X182480Y211583D01*
X183095Y211705D01*
X183616Y212054D01*
X183964Y212575D01*
X184086Y213189D01*
X183964Y213803D01*
X183616Y214324D01*
X183095Y214672D01*
X182927Y214706D01*
Y215215D01*
X183095Y215249D01*
X183616Y215597D01*
X183905Y216031D01*
X185386D01*
X185472Y215926D01*
X185594Y215311D01*
X185942Y214790D01*
X186463Y214442D01*
X187078Y214320D01*
X187692Y214442D01*
X188213Y214790D01*
X188561Y215311D01*
X188683Y215926D01*
X188770Y216031D01*
X191353D01*
X191505Y215846D01*
X191627Y215232D01*
X191975Y214711D01*
X192496Y214363D01*
X193110Y214241D01*
X193725Y214363D01*
X194246Y214711D01*
X194594Y215232D01*
X194716Y215846D01*
X194867Y216031D01*
X201081D01*
Y215346D01*
D02*
G37*
G36*
X135434Y213681D02*
X133699Y211947D01*
X131964Y213681D01*
X133699Y215416D01*
X135434Y213681D01*
D02*
G37*
G36*
X132934Y211181D02*
X131199Y209447D01*
X129464Y211181D01*
X131199Y212916D01*
X132934Y211181D01*
D02*
G37*
G36*
X137934D02*
X136199Y209447D01*
X134464Y211181D01*
X136199Y212916D01*
X137934Y211181D01*
D02*
G37*
G36*
X145434Y208681D02*
X143699Y206946D01*
X141964Y208681D01*
X143699Y210416D01*
X145434Y208681D01*
D02*
G37*
G36*
X140434D02*
X138699Y206946D01*
X136964Y208681D01*
X138699Y210416D01*
X140434Y208681D01*
D02*
G37*
G36*
X135434D02*
X133699Y206946D01*
X131964Y208681D01*
X133699Y210416D01*
X135434Y208681D01*
D02*
G37*
G36*
X147842Y206273D02*
X147558Y205850D01*
X147017Y205779D01*
X145820Y205283D01*
X145561Y205084D01*
X144464Y206181D01*
X146199Y207916D01*
X147842Y206273D01*
D02*
G37*
G36*
X137934Y206181D02*
X136199Y204447D01*
X134464Y206181D01*
X136199Y207916D01*
X137934Y206181D01*
D02*
G37*
G36*
X132934D02*
X131199Y204447D01*
X129464Y206181D01*
X131199Y207916D01*
X132934Y206181D01*
D02*
G37*
G36*
X142934D02*
X141199Y204447D01*
X139464Y206181D01*
X141199Y207916D01*
X142934Y206181D01*
D02*
G37*
G36*
X135434Y203681D02*
X134098Y202345D01*
X133175Y202728D01*
X132879Y202767D01*
X131964Y203681D01*
X133699Y205416D01*
X135434Y203681D01*
D02*
G37*
G36*
X130434D02*
X129037Y202284D01*
X128203Y202629D01*
X127988Y202658D01*
X126964Y203681D01*
X128699Y205416D01*
X130434Y203681D01*
D02*
G37*
G36*
X64374Y204741D02*
X64229Y203642D01*
X64365Y202612D01*
X63699Y201946D01*
X61964Y203681D01*
X63699Y205416D01*
X64374Y204741D01*
D02*
G37*
G36*
X200977Y199815D02*
X185892D01*
X185752Y199909D01*
X185138Y200031D01*
X184523Y199909D01*
X184384Y199815D01*
X177559D01*
Y201591D01*
X177969Y201874D01*
X178059Y201860D01*
X178660Y201741D01*
X179274Y201863D01*
X179795Y202211D01*
X180143Y202732D01*
X180265Y203346D01*
X180143Y203961D01*
X179795Y204482D01*
X179274Y204830D01*
X178660Y204952D01*
X178059Y204833D01*
X177969Y204819D01*
X177617Y205062D01*
X177617Y205562D01*
X200977D01*
Y199815D01*
D02*
G37*
G36*
X92934Y201181D02*
X92299Y200546D01*
X91339Y200672D01*
X90132Y200514D01*
X89464Y201181D01*
X91199Y202916D01*
X92934Y201181D01*
D02*
G37*
G36*
X302934D02*
X301199Y199446D01*
X299464Y201181D01*
X300076Y201792D01*
X302323D01*
X302934Y201181D01*
D02*
G37*
G36*
X297934D02*
X296199Y199446D01*
X294464Y201181D01*
X295075Y201792D01*
X297323D01*
X297934Y201181D01*
D02*
G37*
G36*
X312934D02*
X311199Y199446D01*
X309464Y201181D01*
X310075Y201792D01*
X312323D01*
X312934Y201181D01*
D02*
G37*
G36*
X307934D02*
X306199Y199446D01*
X304464Y201181D01*
X305076Y201792D01*
X307323D01*
X307934Y201181D01*
D02*
G37*
G36*
X317021Y201776D02*
X317418Y201697D01*
X317934Y201181D01*
X316199Y199446D01*
X314464Y201181D01*
X315075Y201792D01*
X316684D01*
X317021Y201776D01*
D02*
G37*
G36*
X300434Y198681D02*
X299935Y198183D01*
X299405Y198113D01*
X298208Y197617D01*
X298106Y197539D01*
X296964Y198681D01*
X298699Y200416D01*
X300434Y198681D01*
D02*
G37*
G36*
X310434D02*
X309216Y197464D01*
X309077Y197571D01*
X307880Y198067D01*
X307533Y198112D01*
X306964Y198681D01*
X308699Y200416D01*
X310434Y198681D01*
D02*
G37*
G36*
X315434D02*
X314018Y197266D01*
X313745Y197379D01*
X313194Y197452D01*
X311964Y198681D01*
X313699Y200416D01*
X315434Y198681D01*
D02*
G37*
G36*
X305434D02*
X304472Y197720D01*
X304113Y197571D01*
X303672Y197233D01*
X303172Y197617D01*
X302927Y197718D01*
X301964Y198681D01*
X303699Y200416D01*
X305434Y198681D01*
D02*
G37*
G36*
X320434D02*
X318699Y196947D01*
X316964Y198681D01*
X318699Y200416D01*
X320434Y198681D01*
D02*
G37*
G36*
X164321Y166240D02*
X158821D01*
Y196047D01*
X158908Y196116D01*
X159321Y196268D01*
X159720Y196001D01*
X160335Y195879D01*
X160949Y196001D01*
X161470Y196349D01*
X161818Y196870D01*
X161940Y197485D01*
X161985Y197539D01*
X164321D01*
Y166240D01*
D02*
G37*
G36*
X215929Y252107D02*
X215928Y224902D01*
X215930Y224888D01*
X215928Y224875D01*
X215957Y223974D01*
X215967Y223935D01*
X215964Y223896D01*
X216199Y222109D01*
X216216Y222058D01*
X216220Y222006D01*
X216686Y220265D01*
X216710Y220217D01*
X216720Y220165D01*
X217410Y218500D01*
X217439Y218456D01*
X217456Y218406D01*
X218357Y216845D01*
X218392Y216805D01*
X218416Y216757D01*
X219513Y215327D01*
X219553Y215293D01*
X219582Y215248D01*
X220857Y213974D01*
X220901Y213945D01*
X220936Y213905D01*
X222366Y212807D01*
X222413Y212784D01*
X222453Y212749D01*
X224014Y211848D01*
X224064Y211831D01*
X224108Y211801D01*
X225773Y211112D01*
X225825Y211101D01*
X225873Y211078D01*
X227614Y210611D01*
X227667Y210608D01*
X227717Y210591D01*
X229504Y210356D01*
X229544Y210358D01*
X229582Y210349D01*
X230312Y210325D01*
X230342Y210319D01*
X230513Y210319D01*
X230513Y210319D01*
X321061Y210319D01*
X321951D01*
X323698Y209972D01*
X325343Y209290D01*
X326823Y208301D01*
X328083Y207042D01*
X329072Y205561D01*
X329753Y203916D01*
X330101Y202170D01*
X330101Y201279D01*
X330101Y67421D01*
X330101Y66531D01*
X329753Y64784D01*
X329072Y63139D01*
X328083Y61659D01*
X326824Y60400D01*
X325343Y59410D01*
X323698Y58729D01*
X321951Y58381D01*
X321061D01*
X230510Y58381D01*
X230497Y58379D01*
X230484Y58381D01*
X229582Y58352D01*
X229544Y58343D01*
X229504Y58345D01*
X227717Y58110D01*
X227667Y58093D01*
X227614Y58089D01*
X225873Y57623D01*
X225825Y57600D01*
X225773Y57589D01*
X224108Y56899D01*
X224064Y56870D01*
X224014Y56853D01*
X222453Y55952D01*
X222413Y55917D01*
X222366Y55893D01*
X220936Y54796D01*
X220901Y54756D01*
X220857Y54727D01*
X219582Y53452D01*
X219553Y53408D01*
X219513Y53373D01*
X218416Y51943D01*
X218392Y51896D01*
X218357Y51856D01*
X217456Y50295D01*
X217439Y50245D01*
X217410Y50201D01*
X216720Y48536D01*
X216710Y48484D01*
X216686Y48436D01*
X216220Y46695D01*
X216216Y46642D01*
X216199Y46592D01*
X215964Y44805D01*
X215967Y44765D01*
X215957Y44727D01*
X215928Y43826D01*
X215930Y43812D01*
X215928Y43799D01*
Y19390D01*
X207492D01*
X207389Y19906D01*
X207041Y20427D01*
X206520Y20775D01*
X206376Y20803D01*
X206373Y25184D01*
X206873Y25650D01*
X213622D01*
Y29272D01*
X206457Y29272D01*
X206370Y29736D01*
X206362Y41428D01*
X206716Y41782D01*
X211516D01*
X211968Y41969D01*
X212155Y42421D01*
Y45472D01*
X212598D01*
Y63691D01*
X212618D01*
X212618Y91126D01*
X212664Y91135D01*
X213184Y91483D01*
X213532Y92004D01*
X213655Y92618D01*
X213578Y93004D01*
X213907Y93504D01*
X217286D01*
X217493Y93116D01*
X217498Y93004D01*
X217383Y92425D01*
X217506Y91810D01*
X217854Y91289D01*
X218374Y90941D01*
X218989Y90819D01*
X219603Y90941D01*
X220124Y91289D01*
X220472Y91810D01*
X220595Y92425D01*
X220479Y93004D01*
X220485Y93116D01*
X220692Y93504D01*
X223927D01*
X224160Y93156D01*
X224681Y92808D01*
X225295Y92686D01*
X225910Y92808D01*
X226431Y93156D01*
X226663Y93504D01*
X228642D01*
X228642Y63700D01*
X316938Y63700D01*
X317408Y63700D01*
X317408Y63700D01*
X317408Y63700D01*
X318074Y63732D01*
X319380Y63992D01*
X320610Y64502D01*
X321717Y65241D01*
X322658Y66183D01*
X323398Y67290D01*
X323907Y68520D01*
X324167Y69825D01*
X324200Y70491D01*
X324200Y195387D01*
X324700Y195664D01*
X325197Y195565D01*
X325811Y195687D01*
X326332Y196035D01*
X326680Y196556D01*
X326802Y197170D01*
X326782Y197272D01*
X327165Y197705D01*
X327780Y197828D01*
X328301Y198176D01*
X328649Y198697D01*
X328771Y199311D01*
X328649Y199925D01*
X328301Y200446D01*
X327780Y200795D01*
X327165Y200917D01*
X327038Y200891D01*
X326867Y201065D01*
X326696Y201333D01*
X326802Y201870D01*
X326680Y202484D01*
X326332Y203005D01*
X325811Y203354D01*
X325197Y203476D01*
X324582Y203354D01*
X324061Y203005D01*
X323713Y202484D01*
X323663Y202234D01*
X323133Y202128D01*
X322516Y203051D01*
X321488Y204079D01*
X320279Y204887D01*
X318935Y205444D01*
X317509Y205727D01*
X316782Y205763D01*
X219052D01*
X218754Y206165D01*
X218888Y206605D01*
X219032Y208071D01*
X218888Y209537D01*
X218460Y210947D01*
X217765Y212247D01*
X216831Y213386D01*
X215692Y214321D01*
X214392Y215015D01*
X212982Y215443D01*
X211516Y215587D01*
X210049Y215443D01*
X208639Y215015D01*
X207340Y214321D01*
X206704Y213799D01*
X206252Y214013D01*
Y252461D01*
X215575D01*
X215929Y252107D01*
D02*
G37*
G36*
X50434Y193681D02*
X48699Y191946D01*
X46964Y193681D01*
X47621Y194337D01*
X48234Y194418D01*
X49268Y194847D01*
X50434Y193681D01*
D02*
G37*
G36*
X320165Y193950D02*
Y193412D01*
X318699Y191946D01*
X317327Y193318D01*
X317255Y193869D01*
X317225Y193942D01*
X318699Y195416D01*
X320165Y193950D01*
D02*
G37*
G36*
X174644Y190350D02*
X174143Y190085D01*
X173622Y190188D01*
X173008Y190066D01*
X172487Y189718D01*
X172139Y189197D01*
X172016Y188583D01*
X172139Y187968D01*
X172487Y187447D01*
X173008Y187099D01*
X173622Y186977D01*
X174143Y187081D01*
X174644Y186816D01*
Y166437D01*
X169143D01*
Y169252D01*
X169104Y169347D01*
Y172779D01*
X169143Y172874D01*
Y189724D01*
X169104Y189820D01*
Y193251D01*
X169143Y193347D01*
Y194744D01*
X169005Y195077D01*
Y197528D01*
X174644D01*
Y190350D01*
D02*
G37*
G36*
X122934Y191181D02*
X121199Y189446D01*
X119464Y191181D01*
X121199Y192916D01*
X122934Y191181D01*
D02*
G37*
G36*
X127934D02*
X126199Y189446D01*
X124464Y191181D01*
X126199Y192916D01*
X127934Y191181D01*
D02*
G37*
G36*
X320229Y188886D02*
Y188476D01*
X319174Y187422D01*
X318675Y187454D01*
X318450Y187749D01*
X317482Y188491D01*
X317376Y188727D01*
X317315Y189032D01*
X318699Y190416D01*
X320229Y188886D01*
D02*
G37*
G36*
X120434Y188681D02*
X118699Y186946D01*
X116964Y188681D01*
X118699Y190416D01*
X120434Y188681D01*
D02*
G37*
G36*
X70434D02*
X68699Y186946D01*
X67848Y187798D01*
X68018Y188209D01*
X68187Y189494D01*
X68139Y189856D01*
X68699Y190416D01*
X70434Y188681D01*
D02*
G37*
G36*
X125434D02*
X123699Y186946D01*
X121964Y188681D01*
X123699Y190416D01*
X125434Y188681D01*
D02*
G37*
G36*
X75434D02*
X73699Y186946D01*
X71964Y188681D01*
X73699Y190416D01*
X75434Y188681D01*
D02*
G37*
G36*
X130434D02*
X128699Y186946D01*
X126964Y188681D01*
X128699Y190416D01*
X130434Y188681D01*
D02*
G37*
G36*
X79531Y189583D02*
X79519Y189494D01*
X79689Y188209D01*
X79769Y188016D01*
X78699Y186946D01*
X76964Y188681D01*
X78699Y190416D01*
X79531Y189583D01*
D02*
G37*
G36*
X217768Y186347D02*
X217534Y185781D01*
X216199Y184447D01*
X215442Y185203D01*
X215424Y185340D01*
X214929Y186537D01*
X214882Y186598D01*
X216199Y187916D01*
X217768Y186347D01*
D02*
G37*
G36*
X127934Y186181D02*
X126199Y184447D01*
X124464Y186181D01*
X126199Y187916D01*
X127934Y186181D01*
D02*
G37*
G36*
X77934D02*
X76199Y184447D01*
X74464Y186181D01*
X76199Y187916D01*
X77934Y186181D01*
D02*
G37*
G36*
X122934D02*
X121199Y184447D01*
X119464Y186181D01*
X121199Y187916D01*
X122934Y186181D01*
D02*
G37*
G36*
X72934D02*
X71199Y184447D01*
X69464Y186181D01*
X71199Y187916D01*
X72934Y186181D01*
D02*
G37*
G36*
X131237Y187422D02*
X131529Y187041D01*
X132411Y186365D01*
X132533Y185781D01*
X131199Y184447D01*
X129464Y186181D01*
X130738Y187455D01*
X131237Y187422D01*
D02*
G37*
G36*
X28328Y201517D02*
X28780Y201329D01*
X31447D01*
Y166634D01*
X30208D01*
X30125Y167051D01*
X29777Y167572D01*
X29256Y167920D01*
X28642Y168043D01*
X28027Y167920D01*
X27506Y167572D01*
X27158Y167051D01*
X27075Y166634D01*
X25976D01*
X25893Y167051D01*
X25545Y167572D01*
X25024Y167920D01*
X24409Y168043D01*
X24220Y168005D01*
X23720Y168415D01*
Y182598D01*
X26319D01*
Y183909D01*
X26819Y183958D01*
X26863Y183736D01*
X27211Y183215D01*
X27732Y182867D01*
X28346Y182745D01*
X28961Y182867D01*
X29482Y183215D01*
X29830Y183736D01*
X29952Y184350D01*
X29830Y184965D01*
X29482Y185486D01*
X28961Y185834D01*
X28346Y185956D01*
X27732Y185834D01*
X27211Y185486D01*
X26863Y184965D01*
X26819Y184743D01*
X26319Y184792D01*
Y186063D01*
X23720D01*
Y201329D01*
X25157D01*
X25609Y201517D01*
X25630Y201566D01*
X28307D01*
X28328Y201517D01*
D02*
G37*
G36*
X275434Y183681D02*
X273896Y182144D01*
X273617Y182028D01*
X272061Y183584D01*
X272500Y184156D01*
X272544Y184260D01*
X273699Y185416D01*
X275434Y183681D01*
D02*
G37*
G36*
X150434D02*
X148699Y181947D01*
X146964Y183681D01*
X148699Y185416D01*
X150434Y183681D01*
D02*
G37*
G36*
X120434D02*
X118699Y181947D01*
X117717Y182929D01*
Y184433D01*
X118699Y185416D01*
X120434Y183681D01*
D02*
G37*
G36*
X70434D02*
X68699Y181947D01*
X67848Y182798D01*
X68018Y183209D01*
X68187Y184494D01*
X68139Y184856D01*
X68699Y185416D01*
X70434Y183681D01*
D02*
G37*
G36*
X130434D02*
X128699Y181947D01*
X126964Y183681D01*
X128699Y185416D01*
X130434Y183681D01*
D02*
G37*
G36*
X79531Y184583D02*
X79519Y184494D01*
X79689Y183209D01*
X79769Y183016D01*
X78699Y181947D01*
X76964Y183681D01*
X78699Y185416D01*
X79531Y184583D01*
D02*
G37*
G36*
X135434Y183681D02*
X133699Y181947D01*
X131964Y183681D01*
X133699Y185416D01*
X135434Y183681D01*
D02*
G37*
G36*
X125434D02*
X123699Y181947D01*
X121964Y183681D01*
X123699Y185416D01*
X125434Y183681D01*
D02*
G37*
G36*
X75434D02*
X73699Y181947D01*
X71964Y183681D01*
X73699Y185416D01*
X75434Y183681D01*
D02*
G37*
G36*
X232934Y181181D02*
X231780Y180027D01*
X231281Y180060D01*
X231040Y180374D01*
X230092Y181101D01*
X229935Y181652D01*
X231199Y182916D01*
X232934Y181181D01*
D02*
G37*
G36*
X132934D02*
X131199Y179446D01*
X129464Y181181D01*
X131199Y182916D01*
X132934Y181181D01*
D02*
G37*
G36*
X122934D02*
X121199Y179446D01*
X119464Y181181D01*
X121199Y182916D01*
X122934Y181181D01*
D02*
G37*
G36*
X72934D02*
X71199Y179446D01*
X69464Y181181D01*
X71199Y182916D01*
X72934Y181181D01*
D02*
G37*
G36*
X127934D02*
X126199Y179446D01*
X124464Y181181D01*
X126199Y182916D01*
X127934Y181181D01*
D02*
G37*
G36*
X77934D02*
X76199Y179446D01*
X74464Y181181D01*
X76199Y182916D01*
X77934Y181181D01*
D02*
G37*
G36*
X234996Y179119D02*
X234545Y178030D01*
X234509Y177757D01*
X233699Y176946D01*
X232203Y178443D01*
X232063Y178780D01*
X233699Y180416D01*
X234996Y179119D01*
D02*
G37*
G36*
X125434Y178681D02*
X123699Y176946D01*
X121964Y178681D01*
X123699Y180416D01*
X125434Y178681D01*
D02*
G37*
G36*
X75434D02*
X73699Y176946D01*
X71964Y178681D01*
X73699Y180416D01*
X75434Y178681D01*
D02*
G37*
G36*
X130434D02*
X128699Y176946D01*
X126964Y178681D01*
X128699Y180416D01*
X130434Y178681D01*
D02*
G37*
G36*
X79531Y179583D02*
X79519Y179493D01*
X79689Y178209D01*
X79769Y178016D01*
X78699Y176946D01*
X76964Y178681D01*
X78699Y180416D01*
X79531Y179583D01*
D02*
G37*
G36*
X313655Y179444D02*
X314825Y179290D01*
X315434Y178681D01*
X313699Y176946D01*
X311964Y178681D01*
X312999Y179716D01*
X313655Y179444D01*
D02*
G37*
G36*
X70434Y178681D02*
X68699Y176946D01*
X67848Y177798D01*
X68018Y178209D01*
X68187Y179493D01*
X68139Y179856D01*
X68699Y180416D01*
X70434Y178681D01*
D02*
G37*
G36*
X120434D02*
X118699Y176946D01*
X117717Y177929D01*
Y179433D01*
X118699Y180416D01*
X120434Y178681D01*
D02*
G37*
G36*
X102654Y176461D02*
Y175901D01*
X102437Y175684D01*
X102259Y175661D01*
X101061Y175165D01*
X100733Y174913D01*
X99464Y176181D01*
X101199Y177916D01*
X102654Y176461D01*
D02*
G37*
G36*
X312520Y176595D02*
X312487Y176096D01*
X312041Y175754D01*
X311415Y174938D01*
X310805Y174841D01*
X309464Y176181D01*
X311199Y177916D01*
X312520Y176595D01*
D02*
G37*
G36*
X127934Y176181D02*
X126199Y174446D01*
X124464Y176181D01*
X126199Y177916D01*
X127934Y176181D01*
D02*
G37*
G36*
X77934D02*
X76199Y174446D01*
X74464Y176181D01*
X76199Y177916D01*
X77934Y176181D01*
D02*
G37*
G36*
X96248Y177583D02*
X96574Y177540D01*
X97934Y176181D01*
X96199Y174446D01*
X94464Y176181D01*
X95978Y177695D01*
X96248Y177583D01*
D02*
G37*
G36*
X132670Y176445D02*
X132705Y176176D01*
X132771Y176018D01*
X131199Y174446D01*
X129464Y176181D01*
X131199Y177916D01*
X132670Y176445D01*
D02*
G37*
G36*
X91528Y177532D02*
X91576Y177539D01*
X92934Y176181D01*
X91199Y174446D01*
X89464Y176181D01*
X90899Y177615D01*
X91528Y177532D01*
D02*
G37*
G36*
X122934Y176181D02*
X121199Y174446D01*
X119464Y176181D01*
X121199Y177916D01*
X122934Y176181D01*
D02*
G37*
G36*
X72934D02*
X71199Y174446D01*
X69464Y176181D01*
X71199Y177916D01*
X72934Y176181D01*
D02*
G37*
G36*
X195434Y173681D02*
X194365Y172613D01*
X193701Y172700D01*
X193033Y172612D01*
X191964Y173681D01*
X193362Y175079D01*
X193839Y175276D01*
X195434Y173681D01*
D02*
G37*
G36*
X99906Y174209D02*
X99245Y173348D01*
X98881Y172471D01*
X98292Y172354D01*
X96964Y173681D01*
X98699Y175416D01*
X99906Y174209D01*
D02*
G37*
G36*
X235434Y173681D02*
X234089Y172337D01*
X233599Y172434D01*
X233504Y172665D01*
X232715Y173693D01*
X232598Y173783D01*
X232565Y174282D01*
X233699Y175416D01*
X235434Y173681D01*
D02*
G37*
G36*
X19749Y174365D02*
Y172997D01*
X18839Y172087D01*
X18559D01*
X16964Y173681D01*
X18699Y175416D01*
X19749Y174365D01*
D02*
G37*
G36*
X130434Y173681D02*
X128699Y171947D01*
X126964Y173681D01*
X128699Y175416D01*
X130434Y173681D01*
D02*
G37*
G36*
X79531Y174583D02*
X79519Y174494D01*
X79689Y173209D01*
X79769Y173016D01*
X78699Y171947D01*
X76964Y173681D01*
X78699Y175416D01*
X79531Y174583D01*
D02*
G37*
G36*
X95434Y173681D02*
X93699Y171947D01*
X91964Y173681D01*
X93699Y175416D01*
X95434Y173681D01*
D02*
G37*
G36*
X75434D02*
X73699Y171947D01*
X71964Y173681D01*
X73699Y175416D01*
X75434Y173681D01*
D02*
G37*
G36*
X125434D02*
X123699Y171947D01*
X121964Y173681D01*
X123699Y175416D01*
X125434Y173681D01*
D02*
G37*
G36*
X120434D02*
X118699Y171947D01*
X117717Y172929D01*
Y174433D01*
X118699Y175416D01*
X120434Y173681D01*
D02*
G37*
G36*
X70434D02*
X68699Y171947D01*
X67848Y172798D01*
X68018Y173209D01*
X68187Y174494D01*
X68139Y174856D01*
X68699Y175416D01*
X70434Y173681D01*
D02*
G37*
G36*
X122934Y171181D02*
X121763Y170010D01*
X121576Y170154D01*
X120379Y170650D01*
X119938Y170708D01*
X119464Y171181D01*
X121199Y172916D01*
X122934Y171181D01*
D02*
G37*
G36*
X77934D02*
X76335Y169582D01*
X75897Y169749D01*
X74464Y171181D01*
X76199Y172916D01*
X77934Y171181D01*
D02*
G37*
G36*
X92934D02*
X91199Y169447D01*
X89464Y171181D01*
X91199Y172916D01*
X92934Y171181D01*
D02*
G37*
G36*
X97934D02*
X96199Y169447D01*
X94464Y171181D01*
X96199Y172916D01*
X97934Y171181D01*
D02*
G37*
G36*
X72934D02*
X71199Y169447D01*
X69464Y171181D01*
X71199Y172916D01*
X72934Y171181D01*
D02*
G37*
G36*
X127934D02*
X126199Y169447D01*
X124464Y171181D01*
X126199Y172916D01*
X127934Y171181D01*
D02*
G37*
G36*
X310434Y168681D02*
X308699Y166946D01*
X307412Y168234D01*
X307445Y168733D01*
X307447Y168734D01*
X308236Y169762D01*
X308370Y170087D01*
X308699Y170416D01*
X310434Y168681D01*
D02*
G37*
G36*
X95434D02*
X93699Y166946D01*
X91964Y168681D01*
X93699Y170416D01*
X95434Y168681D01*
D02*
G37*
G36*
X42126Y183948D02*
X41708Y183865D01*
X41188Y183517D01*
X40839Y182996D01*
X40717Y182382D01*
X40839Y181767D01*
X41188Y181246D01*
X41708Y180898D01*
X42126Y180815D01*
Y166634D01*
X40256D01*
X40123Y166874D01*
X40054Y167134D01*
X40361Y167594D01*
X40484Y168209D01*
X40361Y168823D01*
X40013Y169344D01*
X39492Y169692D01*
X38878Y169814D01*
X38263Y169692D01*
X37743Y169344D01*
X37394Y168823D01*
X37272Y168209D01*
X37394Y167594D01*
X37702Y167134D01*
X37633Y166874D01*
X37500Y166634D01*
X36368D01*
Y169646D01*
X36230Y169978D01*
Y172935D01*
X36368Y173268D01*
Y178307D01*
X36180Y178759D01*
X36131Y178779D01*
Y181457D01*
X36180Y181477D01*
X36368Y181929D01*
Y194055D01*
X36180Y194507D01*
X36033Y194568D01*
Y197164D01*
X36180Y197225D01*
X36368Y197677D01*
Y201929D01*
X36180Y202381D01*
X36033Y202442D01*
Y205505D01*
X42126D01*
Y183948D01*
D02*
G37*
G36*
X317934Y166181D02*
X316199Y164446D01*
X314464Y166181D01*
X315566Y167282D01*
X316685Y167430D01*
X317934Y166181D01*
D02*
G37*
G36*
X312934D02*
X311199Y164446D01*
X309464Y166181D01*
X311199Y167916D01*
X312934Y166181D01*
D02*
G37*
G36*
X89644Y158513D02*
X43817D01*
Y164173D01*
X54144D01*
X54180Y164120D01*
X54700Y163772D01*
X55315Y163650D01*
X55929Y163772D01*
X56450Y164120D01*
X56485Y164173D01*
X72878D01*
X72979Y164022D01*
X73500Y163674D01*
X74114Y163552D01*
X74729Y163674D01*
X75249Y164022D01*
X75350Y164173D01*
X89644D01*
Y158513D01*
D02*
G37*
G36*
X209462Y164652D02*
Y162710D01*
X208699Y161946D01*
X206964Y163681D01*
X208699Y165416D01*
X209462Y164652D01*
D02*
G37*
G36*
X315434Y163681D02*
X313699Y161946D01*
X311964Y163681D01*
X313699Y165416D01*
X315434Y163681D01*
D02*
G37*
G36*
X205434D02*
X203699Y161946D01*
X201964Y163681D01*
X203699Y165416D01*
X205434Y163681D01*
D02*
G37*
G36*
X320165Y163950D02*
Y163412D01*
X318699Y161946D01*
X316964Y163681D01*
X318699Y165416D01*
X320165Y163950D01*
D02*
G37*
G36*
X207934Y161181D02*
X206199Y159447D01*
X204464Y161181D01*
X206199Y162916D01*
X207934Y161181D01*
D02*
G37*
G36*
X202934D02*
X201199Y159447D01*
X199464Y161181D01*
X201199Y162916D01*
X202934Y161181D01*
D02*
G37*
G36*
X317934D02*
X316199Y159447D01*
X314464Y161181D01*
X316199Y162916D01*
X317934Y161181D01*
D02*
G37*
G36*
X156179Y158513D02*
X139311D01*
X139216Y158474D01*
X135784D01*
X135689Y158513D01*
X123563D01*
X123468Y158474D01*
X120036D01*
X119941Y158513D01*
X115689D01*
X115594Y158474D01*
X112162D01*
X112067Y158513D01*
X110352D01*
Y164122D01*
X156179D01*
Y158513D01*
D02*
G37*
G36*
X208957Y206201D02*
X168504D01*
Y198366D01*
X168366D01*
Y194744D01*
X168504D01*
Y193347D01*
X168465D01*
Y189724D01*
X168504D01*
Y172874D01*
X168465D01*
Y169252D01*
X168504D01*
Y163386D01*
X165942Y157874D01*
X168504D01*
Y82874D01*
Y79528D01*
X165150D01*
Y154232D01*
X155157D01*
Y154370D01*
X151535D01*
Y154232D01*
X135374D01*
Y154272D01*
X131752D01*
Y154232D01*
X127795D01*
Y154272D01*
X124173D01*
Y154232D01*
X68248D01*
Y154469D01*
X64626D01*
Y154232D01*
X56634D01*
Y154272D01*
X53012D01*
Y154232D01*
X48465D01*
Y154370D01*
X44842D01*
Y154232D01*
X32087D01*
Y201969D01*
X28780D01*
Y202205D01*
X25157D01*
Y201969D01*
X1000D01*
X1000Y205512D01*
X35394D01*
Y201929D01*
X35728D01*
Y197677D01*
X35394D01*
Y194055D01*
X35728D01*
Y181929D01*
X35492D01*
Y178307D01*
X35728D01*
Y173268D01*
X35591D01*
Y169646D01*
X35728D01*
Y157874D01*
X112067D01*
Y157835D01*
X115689D01*
Y157874D01*
X119941D01*
Y157835D01*
X123563D01*
Y157874D01*
X135689D01*
Y157835D01*
X139311D01*
Y157874D01*
X164961D01*
Y209842D01*
X208957D01*
Y206201D01*
D02*
G37*
G36*
X205434Y158681D02*
X203699Y156947D01*
X201964Y158681D01*
X203699Y160416D01*
X205434Y158681D01*
D02*
G37*
G36*
X210158Y158957D02*
X210074Y158321D01*
X208699Y156947D01*
X206964Y158681D01*
X208699Y160416D01*
X210158Y158957D01*
D02*
G37*
G36*
X272934Y156181D02*
X271477Y154724D01*
X270757Y155277D01*
X270094Y155551D01*
X269464Y156181D01*
X271199Y157916D01*
X272934Y156181D01*
D02*
G37*
G36*
X207934D02*
X206199Y154446D01*
X204464Y156181D01*
X206199Y157916D01*
X207934Y156181D01*
D02*
G37*
G36*
X202934D02*
X201199Y154446D01*
X199464Y156181D01*
X201199Y157916D01*
X202934Y156181D01*
D02*
G37*
G36*
X155157Y153593D02*
X156057D01*
Y148031D01*
X155020D01*
Y150394D01*
X149902D01*
Y148031D01*
X139086D01*
X138964Y148646D01*
X138616Y149167D01*
X138095Y149515D01*
X137480Y149637D01*
X136866Y149515D01*
X136345Y149167D01*
X135997Y148646D01*
X135875Y148031D01*
X117882D01*
X117614Y148531D01*
X117725Y148697D01*
X117847Y149311D01*
X117725Y149925D01*
X117376Y150446D01*
X116856Y150794D01*
X116241Y150917D01*
X115627Y150794D01*
X115106Y150446D01*
X114758Y149925D01*
X114636Y149311D01*
X114758Y148697D01*
X114868Y148531D01*
X114601Y148031D01*
X110230D01*
Y153593D01*
X124173D01*
X124268Y153632D01*
X127700D01*
X127795Y153593D01*
X131752D01*
X131847Y153632D01*
X135279D01*
X135374Y153593D01*
X151535D01*
X151868Y153731D01*
X154825D01*
X155157Y153593D01*
D02*
G37*
G36*
X67796Y153780D02*
X68248Y153593D01*
X70177D01*
Y147808D01*
X45546D01*
X45427Y147986D01*
X44906Y148334D01*
X44291Y148456D01*
X44064Y148411D01*
X43678Y148728D01*
Y153593D01*
X44842D01*
X45175Y153731D01*
X48132D01*
X48465Y153593D01*
X53012D01*
X53107Y153632D01*
X56539D01*
X56634Y153593D01*
X64626D01*
X65078Y153780D01*
X65098Y153829D01*
X67776D01*
X67796Y153780D01*
D02*
G37*
G36*
X179238Y154851D02*
X179268Y154847D01*
X179612Y154503D01*
X179485Y153543D01*
X179579Y152827D01*
X179410Y152657D01*
X178621Y152330D01*
X178448Y152198D01*
X176964Y153681D01*
X178458Y155174D01*
X179238Y154851D01*
D02*
G37*
G36*
X205434Y153681D02*
X203699Y151946D01*
X201964Y153681D01*
X203699Y155416D01*
X205434Y153681D01*
D02*
G37*
G36*
X274792Y154323D02*
X274635Y153942D01*
X274474Y152721D01*
X273699Y151946D01*
X272848Y152798D01*
X272574Y153460D01*
X272213Y153930D01*
X273699Y155416D01*
X274792Y154323D01*
D02*
G37*
G36*
X210158Y153957D02*
X210074Y153321D01*
X208699Y151946D01*
X206964Y153681D01*
X208699Y155416D01*
X210158Y153957D01*
D02*
G37*
G36*
X202934Y151181D02*
X201377Y149625D01*
X201125Y149520D01*
X199464Y151181D01*
X201199Y152916D01*
X202934Y151181D01*
D02*
G37*
G36*
X207934D02*
X206199Y149446D01*
X204464Y151181D01*
X206199Y152916D01*
X207934Y151181D01*
D02*
G37*
G36*
X297934Y146181D02*
X296199Y144447D01*
X294904Y145742D01*
X295005Y146347D01*
X295833Y146982D01*
X296166Y147417D01*
X296665Y147450D01*
X297934Y146181D01*
D02*
G37*
G36*
X287934D02*
X286199Y144447D01*
X284767Y145879D01*
X284800Y146378D01*
X285203Y146687D01*
X285862Y147546D01*
X286444Y147671D01*
X287934Y146181D01*
D02*
G37*
G36*
X22610Y146505D02*
X22469Y146167D01*
X22401Y145648D01*
X21199Y144447D01*
X19464Y146181D01*
X21199Y147916D01*
X22610Y146505D01*
D02*
G37*
G36*
X315434Y143681D02*
X314064Y142311D01*
X313296Y142901D01*
X312355Y143290D01*
X311964Y143681D01*
X313268Y144984D01*
X314130D01*
X315434Y143681D01*
D02*
G37*
G36*
X295434D02*
X293699Y141946D01*
X291964Y143681D01*
X293699Y145416D01*
X295434Y143681D01*
D02*
G37*
G36*
X300434D02*
X298699Y141946D01*
X296964Y143681D01*
X298699Y145416D01*
X300434Y143681D01*
D02*
G37*
G36*
X320165Y143950D02*
Y143412D01*
X318699Y141946D01*
X316964Y143681D01*
X318268Y144984D01*
X319130D01*
X320165Y143950D01*
D02*
G37*
G36*
X304002Y145113D02*
X305434Y143681D01*
X303699Y141946D01*
X301964Y143681D01*
X303401Y145117D01*
X304002Y145113D01*
D02*
G37*
G36*
X297934Y141181D02*
X296199Y139446D01*
X294464Y141181D01*
X296199Y142916D01*
X297934Y141181D01*
D02*
G37*
G36*
X247934D02*
X246199Y139446D01*
X244464Y141181D01*
X246199Y142916D01*
X247934Y141181D01*
D02*
G37*
G36*
X302934D02*
X301199Y139446D01*
X299464Y141181D01*
X301199Y142916D01*
X302934Y141181D01*
D02*
G37*
G36*
X174683Y139646D02*
X174183Y139418D01*
X173837Y139649D01*
X173223Y139771D01*
X172608Y139649D01*
X172087Y139301D01*
X171739Y138780D01*
X171617Y138165D01*
X171739Y137551D01*
X172087Y137030D01*
X172534Y136731D01*
X172584Y136489D01*
X172584Y136485D01*
X172547Y136184D01*
X172114Y135894D01*
X171765Y135373D01*
X171643Y134759D01*
X171765Y134145D01*
X172114Y133624D01*
X172634Y133276D01*
X173249Y133153D01*
X173863Y133276D01*
X174183Y133489D01*
X174683Y133239D01*
Y129866D01*
X174183Y129598D01*
X173962Y129746D01*
X173347Y129868D01*
X172733Y129746D01*
X172212Y129398D01*
X171864Y128877D01*
X171742Y128263D01*
X171864Y127648D01*
X172212Y127127D01*
X172733Y126779D01*
X173347Y126657D01*
X173962Y126779D01*
X174183Y126927D01*
X174683Y126660D01*
Y110741D01*
X174183Y110508D01*
X173843Y110735D01*
X173228Y110858D01*
X172614Y110735D01*
X172093Y110387D01*
X171745Y109866D01*
X171623Y109252D01*
X171745Y108637D01*
X172093Y108117D01*
X172614Y107768D01*
X173228Y107646D01*
X173843Y107768D01*
X174183Y107996D01*
X174683Y107763D01*
Y98838D01*
X169143D01*
Y144433D01*
X174683D01*
Y139646D01*
D02*
G37*
G36*
X295434Y138681D02*
X293699Y136946D01*
X291964Y138681D01*
X293699Y140416D01*
X295434Y138681D01*
D02*
G37*
G36*
X300434D02*
X298699Y136946D01*
X296964Y138681D01*
X298699Y140416D01*
X300434Y138681D01*
D02*
G37*
G36*
X305434D02*
X303699Y136946D01*
X301964Y138681D01*
X303699Y140416D01*
X305434Y138681D01*
D02*
G37*
G36*
X297934Y136181D02*
X296199Y134447D01*
X294464Y136181D01*
X296199Y137916D01*
X297934Y136181D01*
D02*
G37*
G36*
X246655Y137460D02*
X246780Y136511D01*
X247215Y135462D01*
X246199Y134447D01*
X244573Y136072D01*
X244728Y136445D01*
X246199Y137916D01*
X246655Y137460D01*
D02*
G37*
G36*
X302934Y136181D02*
X301199Y134447D01*
X299464Y136181D01*
X301199Y137916D01*
X302934Y136181D01*
D02*
G37*
G36*
X295434Y133681D02*
X293699Y131947D01*
X291964Y133681D01*
X293699Y135416D01*
X295434Y133681D01*
D02*
G37*
G36*
X300434D02*
X298699Y131947D01*
X296964Y133681D01*
X298699Y135416D01*
X300434Y133681D01*
D02*
G37*
G36*
X305434D02*
X303699Y131947D01*
X301964Y133681D01*
X303699Y135416D01*
X305434Y133681D01*
D02*
G37*
G36*
X34106Y135009D02*
X34182Y134432D01*
X34541Y133565D01*
X34252Y132867D01*
X34196Y132443D01*
X33699Y131947D01*
X31964Y133681D01*
X33699Y135416D01*
X34106Y135009D01*
D02*
G37*
G36*
X302934Y131181D02*
X301666Y129914D01*
X301226Y129731D01*
X301050Y129596D01*
X299464Y131181D01*
X301199Y132916D01*
X302934Y131181D01*
D02*
G37*
G36*
X251239Y132876D02*
X252934Y131181D01*
X251199Y129446D01*
X249464Y131181D01*
X251168Y132885D01*
X251239Y132876D01*
D02*
G37*
G36*
X297934Y131181D02*
X296199Y129446D01*
X294464Y131181D01*
X296199Y132916D01*
X297934Y131181D01*
D02*
G37*
G36*
X247934D02*
X246199Y129446D01*
X244464Y131181D01*
X246199Y132916D01*
X247934Y131181D01*
D02*
G37*
G36*
X271474Y132252D02*
X271922Y132193D01*
X272934Y131181D01*
X271199Y129446D01*
X269464Y131181D01*
X270810Y132527D01*
X271474Y132252D01*
D02*
G37*
G36*
X242934Y131181D02*
X241199Y129446D01*
X239464Y131181D01*
X241199Y132916D01*
X242934Y131181D01*
D02*
G37*
G36*
X300187Y128928D02*
X299409Y127914D01*
X299227Y127474D01*
X298699Y126946D01*
X296964Y128681D01*
X298699Y130416D01*
X300187Y128928D01*
D02*
G37*
G36*
X250434Y128681D02*
X248699Y126946D01*
X246964Y128681D01*
X248699Y130416D01*
X250434Y128681D01*
D02*
G37*
G36*
X34559Y129556D02*
X34748Y129101D01*
X34843Y128977D01*
X34678Y128761D01*
X34182Y127564D01*
X34161Y127409D01*
X33699Y126946D01*
X31964Y128681D01*
X33699Y130416D01*
X34559Y129556D01*
D02*
G37*
G36*
X295434Y128681D02*
X293699Y126946D01*
X291964Y128681D01*
X293699Y130416D01*
X295434Y128681D01*
D02*
G37*
G36*
X245434D02*
X243699Y126946D01*
X241964Y128681D01*
X243699Y130416D01*
X245434Y128681D01*
D02*
G37*
G36*
X195238Y128876D02*
X195127Y128374D01*
X193699Y126946D01*
X192986Y127659D01*
X192998Y127688D01*
X193167Y128972D01*
X193061Y129778D01*
X193699Y130416D01*
X195238Y128876D01*
D02*
G37*
G36*
X297934Y126181D02*
X296199Y124446D01*
X294464Y126181D01*
X296199Y127916D01*
X297934Y126181D01*
D02*
G37*
G36*
X247934D02*
X246199Y124446D01*
X244464Y126181D01*
X246199Y127916D01*
X247934Y126181D01*
D02*
G37*
G36*
X242934D02*
X241199Y124446D01*
X240080Y125566D01*
X240200Y126476D01*
X240149Y126865D01*
X241199Y127916D01*
X242934Y126181D01*
D02*
G37*
G36*
X295434Y123681D02*
X293699Y121947D01*
X291964Y123681D01*
X293699Y125416D01*
X295434Y123681D01*
D02*
G37*
G36*
X245434D02*
X243699Y121947D01*
X241964Y123681D01*
X243699Y125416D01*
X245434Y123681D01*
D02*
G37*
G36*
X250434D02*
X248699Y121947D01*
X246964Y123681D01*
X248699Y125416D01*
X250434Y123681D01*
D02*
G37*
G36*
X34225Y124889D02*
X34541Y124128D01*
X34252Y123430D01*
X34111Y122358D01*
X33699Y121947D01*
X31964Y123681D01*
X33699Y125416D01*
X34225Y124889D01*
D02*
G37*
G36*
X292934Y121181D02*
X291199Y119447D01*
X289464Y121181D01*
X291199Y122916D01*
X292934Y121181D01*
D02*
G37*
G36*
X242934D02*
X241199Y119447D01*
X239464Y121181D01*
X241199Y122916D01*
X242934Y121181D01*
D02*
G37*
G36*
X311509Y122519D02*
X311717Y122017D01*
X312506Y120989D01*
X312520Y120767D01*
X311199Y119447D01*
X309464Y121181D01*
X310985Y122702D01*
X311509Y122519D01*
D02*
G37*
G36*
X262634Y121480D02*
Y120882D01*
X261199Y119447D01*
X259464Y121181D01*
X261199Y122916D01*
X262634Y121480D01*
D02*
G37*
G36*
X182934Y121181D02*
X181199Y119447D01*
X179464Y121181D01*
X181199Y122916D01*
X182934Y121181D01*
D02*
G37*
G36*
X297934D02*
X296199Y119447D01*
X294464Y121181D01*
X296199Y122916D01*
X297934Y121181D01*
D02*
G37*
G36*
X247934D02*
X246199Y119447D01*
X244464Y121181D01*
X246199Y122916D01*
X247934Y121181D01*
D02*
G37*
G36*
X22124Y121991D02*
X22272Y120861D01*
X22372Y120620D01*
X21199Y119447D01*
X19464Y121181D01*
X21199Y122916D01*
X22124Y121991D01*
D02*
G37*
G36*
X187934Y121181D02*
X186199Y119447D01*
X184464Y121181D01*
X186199Y122916D01*
X187934Y121181D01*
D02*
G37*
G36*
X310434Y118681D02*
X308699Y116946D01*
X306964Y118681D01*
X308699Y120416D01*
X310434Y118681D01*
D02*
G37*
G36*
X185434D02*
X183699Y116946D01*
X181964Y118681D01*
X183699Y120416D01*
X185434Y118681D01*
D02*
G37*
G36*
X295434D02*
X293699Y116946D01*
X291964Y118681D01*
X293699Y120416D01*
X295434Y118681D01*
D02*
G37*
G36*
X245434D02*
X243699Y116946D01*
X241964Y118681D01*
X243699Y120416D01*
X245434Y118681D01*
D02*
G37*
G36*
X300434D02*
X298699Y116946D01*
X296964Y118681D01*
X298699Y120416D01*
X300434Y118681D01*
D02*
G37*
G36*
X305434D02*
X303699Y116946D01*
X301964Y118681D01*
X303699Y120416D01*
X305434Y118681D01*
D02*
G37*
G36*
X290434D02*
X288699Y116946D01*
X286964Y118681D01*
X288699Y120416D01*
X290434Y118681D01*
D02*
G37*
G36*
X190434D02*
X188699Y116946D01*
X186964Y118681D01*
X188699Y120416D01*
X190434Y118681D01*
D02*
G37*
G36*
X187934Y116181D02*
X186199Y114446D01*
X184464Y116181D01*
X186199Y117916D01*
X187934Y116181D01*
D02*
G37*
G36*
X297934D02*
X296199Y114446D01*
X294464Y116181D01*
X296199Y117916D01*
X297934Y116181D01*
D02*
G37*
G36*
X302934D02*
X301199Y114446D01*
X299464Y116181D01*
X301199Y117916D01*
X302934Y116181D01*
D02*
G37*
G36*
X307934D02*
X306199Y114446D01*
X304464Y116181D01*
X306199Y117916D01*
X307934Y116181D01*
D02*
G37*
G36*
X292934D02*
X291199Y114446D01*
X289464Y116181D01*
X291199Y117916D01*
X292934Y116181D01*
D02*
G37*
G36*
X242934D02*
X241199Y114446D01*
X240017Y115628D01*
X239932Y116271D01*
X239822Y116539D01*
X241199Y117916D01*
X242934Y116181D01*
D02*
G37*
G36*
X182934D02*
X181199Y114446D01*
X179464Y116181D01*
X181199Y117916D01*
X182934Y116181D01*
D02*
G37*
G36*
X185434Y113681D02*
X184286Y112534D01*
X183203Y112676D01*
X182996Y112649D01*
X181964Y113681D01*
X183699Y115416D01*
X185434Y113681D01*
D02*
G37*
G36*
X190434D02*
X189286Y112534D01*
X188203Y112676D01*
X187996Y112649D01*
X186964Y113681D01*
X188699Y115416D01*
X190434Y113681D01*
D02*
G37*
G36*
X295434D02*
X293794Y112042D01*
X293602Y112067D01*
X293581Y112064D01*
X291964Y113681D01*
X293699Y115416D01*
X295434Y113681D01*
D02*
G37*
G36*
X300434D02*
X298699Y111946D01*
X296964Y113681D01*
X298699Y115416D01*
X300434Y113681D01*
D02*
G37*
G36*
X305434D02*
X303699Y111946D01*
X301964Y113681D01*
X303699Y115416D01*
X305434Y113681D01*
D02*
G37*
G36*
X307664Y111451D02*
X307719Y110966D01*
X307470Y110718D01*
X306589Y110602D01*
X305497Y110149D01*
X304464Y111181D01*
X306199Y112916D01*
X307664Y111451D01*
D02*
G37*
G36*
X302934Y111181D02*
X301643Y109891D01*
X300980Y109934D01*
X300459Y110613D01*
X299876Y111061D01*
X299843Y111560D01*
X301199Y112916D01*
X302934Y111181D01*
D02*
G37*
G36*
X30434Y108681D02*
X28699Y106947D01*
X26964Y108681D01*
X28699Y110416D01*
X30434Y108681D01*
D02*
G37*
G36*
X40434D02*
X38699Y106947D01*
X36964Y108681D01*
X38322Y110038D01*
X38989Y110126D01*
X40434Y108681D01*
D02*
G37*
G36*
X23720Y110095D02*
X23985Y110130D01*
X25434Y108681D01*
X23699Y106947D01*
X21964Y108681D01*
X23418Y110135D01*
X23720Y110095D01*
D02*
G37*
G36*
X35434Y108681D02*
X33699Y106947D01*
X31964Y108681D01*
X33699Y110416D01*
X35434Y108681D01*
D02*
G37*
G36*
X27934Y106181D02*
X26199Y104446D01*
X24464Y106181D01*
X26199Y107916D01*
X27934Y106181D01*
D02*
G37*
G36*
X37934D02*
X36199Y104446D01*
X34464Y106181D01*
X36199Y107916D01*
X37934Y106181D01*
D02*
G37*
G36*
X280929Y107081D02*
X282201Y106913D01*
X282934Y106181D01*
X281199Y104446D01*
X279464Y106181D01*
X280530Y107246D01*
X280929Y107081D01*
D02*
G37*
G36*
X32934Y106181D02*
X31199Y104446D01*
X29464Y106181D01*
X31199Y107916D01*
X32934Y106181D01*
D02*
G37*
G36*
X42087Y107027D02*
X42178Y106809D01*
X42192Y106791D01*
X42178Y106773D01*
X41682Y105576D01*
X41584Y104831D01*
X41199Y104446D01*
X39464Y106181D01*
X41199Y107916D01*
X42087Y107027D01*
D02*
G37*
G36*
X22934Y106181D02*
X21199Y104446D01*
X19464Y106181D01*
X21199Y107916D01*
X22934Y106181D01*
D02*
G37*
G36*
X35434Y103681D02*
X33699Y101946D01*
X31964Y103681D01*
X33699Y105416D01*
X35434Y103681D01*
D02*
G37*
G36*
X25434D02*
X23699Y101946D01*
X21964Y103681D01*
X23699Y105416D01*
X25434Y103681D01*
D02*
G37*
G36*
X30434D02*
X28699Y101946D01*
X26964Y103681D01*
X28699Y105416D01*
X30434Y103681D01*
D02*
G37*
G36*
X40434D02*
X38699Y101946D01*
X36964Y103681D01*
X38699Y105416D01*
X40434Y103681D01*
D02*
G37*
G36*
X302934Y101181D02*
X301199Y99446D01*
X300214Y100432D01*
X300099Y101301D01*
X299948Y101665D01*
X301199Y102916D01*
X302934Y101181D01*
D02*
G37*
G36*
X282523Y101592D02*
X282398Y100646D01*
X281199Y99446D01*
X279464Y101181D01*
X281199Y102916D01*
X282523Y101592D01*
D02*
G37*
G36*
X152264Y101851D02*
Y100511D01*
X151199Y99446D01*
X149464Y101181D01*
X151199Y102916D01*
X152264Y101851D01*
D02*
G37*
G36*
X32934Y101181D02*
X31199Y99446D01*
X29464Y101181D01*
X31199Y102916D01*
X32934Y101181D01*
D02*
G37*
G36*
X22934D02*
X21199Y99446D01*
X19815Y100830D01*
X19755Y101285D01*
X19700Y101417D01*
X21199Y102916D01*
X22934Y101181D01*
D02*
G37*
G36*
X37934D02*
X36199Y99446D01*
X34464Y101181D01*
X36199Y102916D01*
X37934Y101181D01*
D02*
G37*
G36*
X42087Y102027D02*
X42178Y101810D01*
X42192Y101791D01*
X42178Y101773D01*
X41682Y100576D01*
X41584Y99831D01*
X41199Y99446D01*
X39464Y101181D01*
X41199Y102916D01*
X42087Y102027D01*
D02*
G37*
G36*
X27934Y101181D02*
X26199Y99446D01*
X24464Y101181D01*
X26199Y102916D01*
X27934Y101181D01*
D02*
G37*
G36*
X164510Y98838D02*
X163616D01*
X163299Y99225D01*
X163338Y99423D01*
X163216Y100037D01*
X162868Y100558D01*
X162347Y100906D01*
X161732Y101028D01*
X161228Y100928D01*
X160728Y101201D01*
Y104232D01*
X158966D01*
Y122852D01*
X159009Y122880D01*
X159357Y123401D01*
X159480Y124016D01*
X159357Y124630D01*
X159009Y125151D01*
X158966Y125180D01*
Y129052D01*
X159009Y129081D01*
X159357Y129602D01*
X159480Y130217D01*
X159357Y130831D01*
X159009Y131352D01*
X158966Y131381D01*
Y144527D01*
X164510D01*
Y98838D01*
D02*
G37*
G36*
X305434Y98681D02*
X303699Y96947D01*
X301964Y98681D01*
X303699Y100416D01*
X305434Y98681D01*
D02*
G37*
G36*
X35434D02*
X33699Y96947D01*
X32874Y97772D01*
Y98622D01*
X32612D01*
X32405Y99122D01*
X33699Y100416D01*
X35434Y98681D01*
D02*
G37*
G36*
X310434D02*
X308699Y96947D01*
X306964Y98681D01*
X308699Y100416D01*
X310434Y98681D01*
D02*
G37*
G36*
X40434D02*
X38699Y96947D01*
X36964Y98681D01*
X38699Y100416D01*
X40434Y98681D01*
D02*
G37*
G36*
X152264Y96851D02*
Y96161D01*
X152264D01*
X152454Y95702D01*
X151199Y94446D01*
X149464Y96181D01*
X151199Y97916D01*
X152264Y96851D01*
D02*
G37*
G36*
X302934Y96181D02*
X302029Y95276D01*
X301730Y95316D01*
X300493Y95153D01*
X299464Y96181D01*
X301199Y97916D01*
X302934Y96181D01*
D02*
G37*
G36*
X11332Y95444D02*
X10921Y95178D01*
X10832Y95188D01*
X10236Y95306D01*
X9622Y95184D01*
X9101Y94836D01*
X8753Y94315D01*
X8631Y93701D01*
X8753Y93086D01*
X9101Y92565D01*
X9622Y92217D01*
X10236Y92095D01*
X10832Y92214D01*
X10921Y92223D01*
X11332Y91958D01*
Y83579D01*
X10832Y83299D01*
X10341Y83397D01*
X9727Y83275D01*
X9206Y82927D01*
X8858Y82406D01*
X8736Y81791D01*
X8858Y81177D01*
X9206Y80656D01*
X9727Y80308D01*
X10341Y80186D01*
X10832Y80283D01*
X11332Y80003D01*
Y70450D01*
X5642D01*
X5561Y70571D01*
Y104725D01*
X11332D01*
Y95444D01*
D02*
G37*
G36*
X37934Y96181D02*
X36215Y94463D01*
X36199Y94456D01*
X36194Y94452D01*
X34464Y96181D01*
X36199Y97916D01*
X37934Y96181D01*
D02*
G37*
G36*
X42087Y97027D02*
X42178Y96810D01*
X42192Y96791D01*
X42178Y96773D01*
X41682Y95576D01*
X41584Y94831D01*
X41199Y94446D01*
X39464Y96181D01*
X41199Y97916D01*
X42087Y97027D01*
D02*
G37*
G36*
X307934Y96181D02*
X306199Y94446D01*
X304464Y96181D01*
X306199Y97916D01*
X307934Y96181D01*
D02*
G37*
G36*
X310434Y93681D02*
X308699Y91947D01*
X306964Y93681D01*
X308699Y95416D01*
X310434Y93681D01*
D02*
G37*
G36*
X150434D02*
X148699Y91947D01*
X146964Y93681D01*
X148699Y95416D01*
X150434Y93681D01*
D02*
G37*
G36*
X285434D02*
X283699Y91947D01*
X282815Y92830D01*
Y94532D01*
X283699Y95416D01*
X285434Y93681D01*
D02*
G37*
G36*
X210558Y93309D02*
X210559Y93201D01*
X210443Y92618D01*
X210566Y92004D01*
X210914Y91483D01*
X211435Y91135D01*
X211516Y91119D01*
X211516Y42421D01*
X199705D01*
X199705Y93701D01*
X204049D01*
X204258Y93309D01*
X204260Y93201D01*
X204144Y92618D01*
X204266Y92004D01*
X204614Y91483D01*
X205135Y91135D01*
X205750Y91013D01*
X206364Y91135D01*
X206885Y91483D01*
X207233Y92004D01*
X207355Y92618D01*
X207240Y93201D01*
X207241Y93309D01*
X207451Y93701D01*
X210348D01*
X210558Y93309D01*
D02*
G37*
G36*
X287934Y91181D02*
X287528Y90776D01*
X287011Y90708D01*
X285814Y90212D01*
X285599Y90047D01*
X284464Y91181D01*
X286199Y92916D01*
X287934Y91181D01*
D02*
G37*
G36*
X187934D02*
X186216Y89464D01*
X186185Y89460D01*
X184546Y91100D01*
X184564Y91281D01*
X186199Y92916D01*
X187934Y91181D01*
D02*
G37*
G36*
X312934D02*
X311199Y89447D01*
X309464Y91181D01*
X311199Y92916D01*
X312934Y91181D01*
D02*
G37*
G36*
X255428Y92142D02*
X256713Y91973D01*
X257092Y92023D01*
X257934Y91181D01*
X256199Y89447D01*
X254464Y91181D01*
X255426Y92143D01*
X255428Y92142D01*
D02*
G37*
G36*
X112934Y86181D02*
X111706Y84953D01*
X110728Y85082D01*
X110583Y85063D01*
X109464Y86181D01*
X110426Y87143D01*
X111028Y87064D01*
X111932Y87183D01*
X112934Y86181D01*
D02*
G37*
G36*
X310434Y88681D02*
X308699Y86946D01*
X306964Y88681D01*
X308699Y90416D01*
X310434Y88681D01*
D02*
G37*
G36*
X260434D02*
X258699Y86946D01*
X256964Y88681D01*
X258699Y90416D01*
X260434Y88681D01*
D02*
G37*
G36*
X255434D02*
X253699Y86946D01*
X251964Y88681D01*
X253699Y90416D01*
X255434Y88681D01*
D02*
G37*
G36*
X126373Y87331D02*
X126846Y87269D01*
X127934Y86181D01*
X126936Y85184D01*
X126373Y85110D01*
X125781Y84864D01*
X124464Y86181D01*
X125530Y87246D01*
X126054Y87463D01*
X126373Y87331D01*
D02*
G37*
G36*
X116629Y87331D02*
X116807Y87307D01*
X117934Y86181D01*
X116469Y84716D01*
X115757Y85011D01*
X115616Y85030D01*
X114464Y86181D01*
X115480Y87196D01*
X115757Y87233D01*
X116311Y87463D01*
X116629Y87331D01*
D02*
G37*
G36*
X257934Y86181D02*
X256199Y84447D01*
X254464Y86181D01*
X256199Y87916D01*
X257934Y86181D01*
D02*
G37*
G36*
X151238Y87877D02*
X151694Y87420D01*
X152339Y86215D01*
X152622Y85869D01*
X151199Y84447D01*
X149464Y86181D01*
X151178Y87895D01*
X151238Y87877D01*
D02*
G37*
G36*
X187934Y86181D02*
X186199Y84447D01*
X184464Y86181D01*
X186199Y87916D01*
X187934Y86181D01*
D02*
G37*
G36*
X312934D02*
X311199Y84447D01*
X309464Y86181D01*
X311199Y87916D01*
X312934Y86181D01*
D02*
G37*
G36*
X122934D02*
X121199Y84447D01*
X119464Y86181D01*
X121199Y87916D01*
X122934Y86181D01*
D02*
G37*
G36*
X150434Y83681D02*
X148699Y81946D01*
X146964Y83681D01*
X148699Y85416D01*
X150434Y83681D01*
D02*
G37*
G36*
X153323Y85015D02*
X154522Y84032D01*
X154974Y83790D01*
X155048Y83295D01*
X153699Y81946D01*
X151964Y83681D01*
X153300Y85017D01*
X153323Y85015D01*
D02*
G37*
G36*
X185434Y83681D02*
X183699Y81946D01*
X181964Y83681D01*
X183699Y85416D01*
X185434Y83681D01*
D02*
G37*
G36*
X310434D02*
X308699Y81946D01*
X306964Y83681D01*
X308699Y85416D01*
X310434Y83681D01*
D02*
G37*
G36*
X190434D02*
X188699Y81946D01*
X186964Y83681D01*
X188699Y85416D01*
X190434Y83681D01*
D02*
G37*
G36*
X64468Y90204D02*
X64468Y87894D01*
X65256Y87106D01*
X66634D01*
X68799Y84941D01*
Y81693D01*
X67913Y80807D01*
X60433D01*
Y90557D01*
X64115D01*
X64468Y90204D01*
D02*
G37*
G36*
X182934Y81181D02*
X181199Y79447D01*
X179464Y81181D01*
X181199Y82916D01*
X182934Y81181D01*
D02*
G37*
G36*
X152934D02*
X151199Y79447D01*
X149464Y81181D01*
X151199Y82916D01*
X152934Y81181D01*
D02*
G37*
G36*
X147934D02*
X146199Y79447D01*
X144464Y81181D01*
X146199Y82916D01*
X147934Y81181D01*
D02*
G37*
G36*
X312934D02*
X311199Y79447D01*
X309464Y81181D01*
X311199Y82916D01*
X312934Y81181D01*
D02*
G37*
G36*
X187934D02*
X186199Y79447D01*
X184464Y81181D01*
X186199Y82916D01*
X187934Y81181D01*
D02*
G37*
G36*
X192934D02*
X191199Y79447D01*
X189464Y81181D01*
X191199Y82916D01*
X192934Y81181D01*
D02*
G37*
G36*
X177934D02*
X176199Y79447D01*
X174464Y81181D01*
X176199Y82916D01*
X177934Y81181D01*
D02*
G37*
G36*
X51772Y82593D02*
X48031D01*
Y80230D01*
X51772D01*
Y78839D01*
X48313Y78839D01*
X47336Y77861D01*
X42618D01*
X42618Y84978D01*
X46888D01*
X48524Y86614D01*
X48524Y90256D01*
X51772D01*
Y82593D01*
D02*
G37*
G36*
X185434Y78681D02*
X183699Y76947D01*
X181964Y78681D01*
X183699Y80416D01*
X185434Y78681D01*
D02*
G37*
G36*
X150434D02*
X148699Y76947D01*
X146964Y78681D01*
X148699Y80416D01*
X150434Y78681D01*
D02*
G37*
G36*
X145434D02*
X143699Y76947D01*
X141964Y78681D01*
X143699Y80416D01*
X145434Y78681D01*
D02*
G37*
G36*
X155434D02*
X153699Y76947D01*
X151964Y78681D01*
X153699Y80416D01*
X155434Y78681D01*
D02*
G37*
G36*
X310434D02*
X308699Y76947D01*
X306964Y78681D01*
X308699Y80416D01*
X310434Y78681D01*
D02*
G37*
G36*
X190434D02*
X188699Y76947D01*
X186964Y78681D01*
X188699Y80416D01*
X190434Y78681D01*
D02*
G37*
G36*
X187934Y76181D02*
X187245Y75492D01*
X185153D01*
X184464Y76181D01*
X186199Y77916D01*
X187934Y76181D01*
D02*
G37*
G36*
X152934D02*
X151457Y74705D01*
X150941D01*
X149464Y76181D01*
X151199Y77916D01*
X152934Y76181D01*
D02*
G37*
G36*
X147934D02*
X146457Y74705D01*
X145941D01*
X144841Y75805D01*
X144512Y76205D01*
X144511Y76228D01*
X146199Y77916D01*
X147934Y76181D01*
D02*
G37*
G36*
X257934D02*
X256199Y74446D01*
X254464Y76181D01*
X256199Y77916D01*
X257934Y76181D01*
D02*
G37*
G36*
X255434Y73681D02*
X253699Y71947D01*
X251964Y73681D01*
X253699Y75416D01*
X255434Y73681D01*
D02*
G37*
G36*
X260434D02*
X258699Y71947D01*
X256964Y73681D01*
X258699Y75416D01*
X260434Y73681D01*
D02*
G37*
G36*
X290434D02*
X288699Y71947D01*
X287799Y72847D01*
X287746Y73247D01*
X287390Y74107D01*
X288699Y75416D01*
X290434Y73681D01*
D02*
G37*
G36*
X239051Y75064D02*
X240434Y73681D01*
X238699Y71947D01*
X236964Y73681D01*
X238346Y75062D01*
X238875Y75142D01*
X239051Y75064D01*
D02*
G37*
G36*
X25434Y73681D02*
X23699Y71947D01*
X21964Y73681D01*
X23087Y74803D01*
X24312D01*
X25434Y73681D01*
D02*
G37*
G36*
X265434D02*
X263699Y71947D01*
X261964Y73681D01*
X263699Y75416D01*
X265434Y73681D01*
D02*
G37*
G36*
X11909Y110236D02*
X4921D01*
Y70571D01*
X1476D01*
Y114075D01*
X11909D01*
Y110236D01*
D02*
G37*
G36*
X32934Y71181D02*
X31909Y70157D01*
X30686Y70318D01*
X30369Y70276D01*
X29464Y71181D01*
X31199Y72916D01*
X32934Y71181D01*
D02*
G37*
G36*
X22934D02*
X21548Y69796D01*
X20880Y69766D01*
X19464Y71181D01*
X21199Y72916D01*
X22934Y71181D01*
D02*
G37*
G36*
X27934D02*
X26406Y69653D01*
X25699Y69946D01*
X24464Y71181D01*
X26199Y72916D01*
X27934Y71181D01*
D02*
G37*
G36*
X267934D02*
X266199Y69446D01*
X264464Y71181D01*
X266199Y72916D01*
X267934Y71181D01*
D02*
G37*
G36*
X43824Y59953D02*
X43920Y59723D01*
X44709Y58695D01*
X44826Y58605D01*
X44859Y58106D01*
X43699Y56946D01*
X41964Y58681D01*
X43334Y60051D01*
X43824Y59953D01*
D02*
G37*
G36*
X85434Y58681D02*
X83699Y56946D01*
X81964Y58681D01*
X83699Y60416D01*
X85434Y58681D01*
D02*
G37*
G36*
X46543Y57572D02*
X47717Y56397D01*
X47392Y55974D01*
X47156Y55404D01*
X46199Y54447D01*
X44464Y56181D01*
X46057Y57774D01*
X46543Y57572D01*
D02*
G37*
G36*
X187934Y56181D02*
X186199Y54447D01*
X184664Y55982D01*
X186399Y57716D01*
X187934Y56181D01*
D02*
G37*
G36*
X42934D02*
X41199Y54447D01*
X40100Y55545D01*
Y56045D01*
X40145Y56090D01*
X40304Y56297D01*
X40488Y56481D01*
X40618Y56706D01*
X40776Y56913D01*
X40876Y57153D01*
X41006Y57379D01*
X41048Y57479D01*
X41538Y57577D01*
X42934Y56181D01*
D02*
G37*
G36*
X150434Y53681D02*
X148699Y51947D01*
X147277Y53368D01*
X148000Y54309D01*
X148287Y55004D01*
X148699Y55416D01*
X150434Y53681D01*
D02*
G37*
G36*
X104499Y54615D02*
X104654Y53440D01*
X104812Y53059D01*
X103699Y51947D01*
X101964Y53681D01*
X103699Y55416D01*
X104499Y54615D01*
D02*
G37*
G36*
X45434Y53681D02*
X43699Y51947D01*
X41964Y53681D01*
X43699Y55416D01*
X45434Y53681D01*
D02*
G37*
G36*
X190434D02*
X188699Y51947D01*
X186964Y53681D01*
X188699Y55416D01*
X190434Y53681D01*
D02*
G37*
G36*
X157557Y51508D02*
X157764Y51012D01*
X156656Y49903D01*
X156139Y49507D01*
X154464Y51181D01*
X155169Y51886D01*
X156009Y51997D01*
X156601Y52242D01*
X157557Y51508D01*
D02*
G37*
G36*
X187934Y51181D02*
X186266Y49513D01*
X186171Y49474D01*
X185004Y50642D01*
X185306Y51373D01*
X185405Y52122D01*
X186199Y52916D01*
X187934Y51181D01*
D02*
G37*
G36*
X152934D02*
X151199Y49446D01*
X149464Y51181D01*
X151199Y52916D01*
X152934Y51181D01*
D02*
G37*
G36*
X102934D02*
X101199Y49446D01*
X100007Y50639D01*
X100140Y50812D01*
X100655Y52057D01*
X100703Y52420D01*
X101199Y52916D01*
X102934Y51181D01*
D02*
G37*
G36*
X147934D02*
X146199Y49446D01*
X144464Y51181D01*
X145488Y52205D01*
X146183Y52493D01*
X146431Y52683D01*
X147934Y51181D01*
D02*
G37*
G36*
X46849Y52266D02*
X46877Y52057D01*
X47392Y50812D01*
X47467Y50714D01*
X46199Y49446D01*
X44464Y51181D01*
X46199Y52916D01*
X46849Y52266D01*
D02*
G37*
G36*
X42934Y51181D02*
X41199Y49446D01*
X39464Y51181D01*
X41199Y52916D01*
X42934Y51181D01*
D02*
G37*
G36*
X192934D02*
X191199Y49446D01*
X189464Y51181D01*
X191199Y52916D01*
X192934Y51181D01*
D02*
G37*
G36*
X109340Y49775D02*
X109722Y49393D01*
X109772Y49011D01*
X110063Y48310D01*
X109609Y47856D01*
X109449Y47877D01*
X108164Y47708D01*
X108004Y47642D01*
X106964Y48681D01*
X108207Y49924D01*
X109340Y49775D01*
D02*
G37*
G36*
X194905Y49210D02*
X194872Y48711D01*
X194482Y48412D01*
X193813Y47539D01*
X193225Y47420D01*
X191964Y48681D01*
X193699Y50416D01*
X194905Y49210D01*
D02*
G37*
G36*
X145434Y48681D02*
X143699Y46946D01*
X141964Y48681D01*
X143699Y50416D01*
X145434Y48681D01*
D02*
G37*
G36*
X45434D02*
X43699Y46946D01*
X41964Y48681D01*
X43699Y50416D01*
X45434Y48681D01*
D02*
G37*
G36*
X150434D02*
X148699Y46946D01*
X146964Y48681D01*
X148699Y50416D01*
X150434Y48681D01*
D02*
G37*
G36*
X155171Y48944D02*
X155092Y48340D01*
X153699Y46946D01*
X151964Y48681D01*
X153699Y50416D01*
X155171Y48944D01*
D02*
G37*
G36*
X105434Y48681D02*
X103699Y46946D01*
X101964Y48681D01*
X103699Y50416D01*
X105434Y48681D01*
D02*
G37*
G36*
X130434D02*
X128699Y46946D01*
X126964Y48681D01*
X128699Y50416D01*
X130434Y48681D01*
D02*
G37*
G36*
X167934Y46181D02*
X166199Y44447D01*
X164464Y46181D01*
X166199Y47916D01*
X167934Y46181D01*
D02*
G37*
G36*
X142934D02*
X141199Y44447D01*
X140023Y45622D01*
X140421Y46140D01*
X140917Y47337D01*
X140935Y47473D01*
X141441Y47674D01*
X142934Y46181D01*
D02*
G37*
G36*
X147934D02*
X146199Y44447D01*
X144464Y46181D01*
X146199Y47916D01*
X147934Y46181D01*
D02*
G37*
G36*
X47512Y46602D02*
X47392Y46446D01*
X46877Y45201D01*
X46865Y45112D01*
X46199Y44447D01*
X44464Y46181D01*
X46199Y47916D01*
X47512Y46602D01*
D02*
G37*
G36*
X127934Y46181D02*
X126199Y44447D01*
X124464Y46181D01*
X126199Y47916D01*
X127934Y46181D01*
D02*
G37*
G36*
X152934D02*
X151199Y44447D01*
X149464Y46181D01*
X151199Y47916D01*
X152934Y46181D01*
D02*
G37*
G36*
X102934D02*
X101199Y44447D01*
X100688Y44958D01*
X100655Y45201D01*
X100140Y46446D01*
X99962Y46678D01*
X101199Y47916D01*
X102934Y46181D01*
D02*
G37*
G36*
X182934D02*
X181199Y44447D01*
X179464Y46181D01*
X181048Y47764D01*
X181315Y47800D01*
X182934Y46181D01*
D02*
G37*
G36*
X170434Y43681D02*
X169993Y43240D01*
X169090Y43121D01*
X167983Y42663D01*
X166964Y43681D01*
X168699Y45416D01*
X170434Y43681D01*
D02*
G37*
G36*
X145434D02*
X143699Y41947D01*
X141964Y43681D01*
X143699Y45416D01*
X145434Y43681D01*
D02*
G37*
G36*
X150434D02*
X148699Y41947D01*
X146964Y43681D01*
X148699Y45416D01*
X150434Y43681D01*
D02*
G37*
G36*
X125434D02*
X123699Y41947D01*
X121964Y43681D01*
X123699Y45416D01*
X125434Y43681D01*
D02*
G37*
G36*
X120434D02*
X118699Y41947D01*
X116964Y43681D01*
X118699Y45416D01*
X120434Y43681D01*
D02*
G37*
G36*
X104731Y44384D02*
X104654Y44198D01*
X104485Y42913D01*
X104506Y42754D01*
X103699Y41947D01*
X101964Y43681D01*
X103699Y45416D01*
X104731Y44384D01*
D02*
G37*
G36*
X140434Y43681D02*
X138699Y41947D01*
X137332Y43313D01*
X137371Y43580D01*
X137490Y43862D01*
X138604Y44323D01*
X139276Y44839D01*
X140434Y43681D01*
D02*
G37*
G36*
X130434D02*
X128699Y41947D01*
X126964Y43681D01*
X128699Y45416D01*
X130434Y43681D01*
D02*
G37*
G36*
X137434Y41681D02*
X137401Y41182D01*
X137011Y40882D01*
X136342Y40011D01*
X135754Y39892D01*
X134464Y41181D01*
X136199Y42916D01*
X137434Y41681D01*
D02*
G37*
G36*
X122934Y41181D02*
X121199Y39446D01*
X119464Y41181D01*
X121199Y42916D01*
X122934Y41181D01*
D02*
G37*
G36*
X117934D02*
X116199Y39446D01*
X114464Y41181D01*
X116199Y42916D01*
X117934Y41181D01*
D02*
G37*
G36*
X127934D02*
X126199Y39446D01*
X124464Y41181D01*
X126199Y42916D01*
X127934Y41181D01*
D02*
G37*
G36*
X132934D02*
X131199Y39446D01*
X129464Y41181D01*
X131199Y42916D01*
X132934Y41181D01*
D02*
G37*
G36*
X80154Y38961D02*
X80076Y38366D01*
X80081Y38328D01*
X79695Y37942D01*
X79266Y37765D01*
X78633Y38027D01*
X77465Y38181D01*
X76964Y38681D01*
X78505Y40221D01*
X78848Y40266D01*
X80154Y38961D01*
D02*
G37*
G36*
X120434Y38681D02*
X118699Y36946D01*
X116964Y38681D01*
X118699Y40416D01*
X120434Y38681D01*
D02*
G37*
G36*
X125434D02*
X123699Y36946D01*
X121964Y38681D01*
X123699Y40416D01*
X125434Y38681D01*
D02*
G37*
G36*
X130434D02*
X128699Y36946D01*
X126964Y38681D01*
X128699Y40416D01*
X130434Y38681D01*
D02*
G37*
G36*
X135434D02*
X133699Y36946D01*
X131964Y38681D01*
X133699Y40416D01*
X135434Y38681D01*
D02*
G37*
G36*
X117934Y36181D02*
X116199Y34446D01*
X114464Y36181D01*
X116199Y37916D01*
X117934Y36181D01*
D02*
G37*
G36*
X127934D02*
X126199Y34446D01*
X124464Y36181D01*
X126199Y37916D01*
X127934Y36181D01*
D02*
G37*
G36*
X122934D02*
X121199Y34446D01*
X119464Y36181D01*
X121199Y37916D01*
X122934Y36181D01*
D02*
G37*
G36*
X132934D02*
X131199Y34446D01*
X129464Y36181D01*
X131199Y37916D01*
X132934Y36181D01*
D02*
G37*
G36*
X129957Y34158D02*
X129924Y33659D01*
X129426Y33277D01*
X128840Y32513D01*
X128209Y32436D01*
X126964Y33681D01*
X128699Y35416D01*
X129957Y34158D01*
D02*
G37*
G36*
X120434Y33681D02*
X118946Y32194D01*
X118435Y32586D01*
X117794Y32851D01*
X116964Y33681D01*
X118699Y35416D01*
X120434Y33681D01*
D02*
G37*
G36*
X125434D02*
X123699Y31947D01*
X121964Y33681D01*
X123699Y35416D01*
X125434Y33681D01*
D02*
G37*
G36*
X97156Y31959D02*
X97014Y30882D01*
X97086Y30334D01*
X96199Y29447D01*
X95126Y30519D01*
X94972Y31689D01*
X96199Y32916D01*
X97156Y31959D01*
D02*
G37*
G36*
X122934Y31181D02*
X121199Y29447D01*
X120517Y30129D01*
X120252Y30769D01*
X119731Y31448D01*
X121199Y32916D01*
X122934Y31181D01*
D02*
G37*
G36*
X127934D02*
X126199Y29447D01*
X124464Y31181D01*
X126199Y32916D01*
X127934Y31181D01*
D02*
G37*
G36*
X200434Y28681D02*
X198699Y26946D01*
X197862Y27784D01*
X197787Y28352D01*
X197449Y29166D01*
X198699Y30416D01*
X200434Y28681D01*
D02*
G37*
G36*
X125434D02*
X123699Y26946D01*
X121964Y28681D01*
X123699Y30416D01*
X125434Y28681D01*
D02*
G37*
G36*
X23819Y19488D02*
X16634D01*
Y27756D01*
X23819D01*
Y19488D01*
D02*
G37*
G36*
X90945Y4675D02*
X75138D01*
Y4764D01*
X71516D01*
Y4675D01*
X51516D01*
Y4764D01*
X47894D01*
Y4675D01*
X19587D01*
Y9500D01*
X20087Y9549D01*
X20104Y9461D01*
X20170Y9130D01*
X20518Y8609D01*
X21039Y8261D01*
X21654Y8139D01*
X22268Y8261D01*
X22789Y8609D01*
X23137Y9130D01*
X23259Y9744D01*
X23137Y10359D01*
X22789Y10880D01*
X22268Y11227D01*
X21654Y11350D01*
X21039Y11227D01*
X20518Y10880D01*
X20170Y10359D01*
X20104Y10027D01*
X20087Y9939D01*
X19587Y9988D01*
Y13733D01*
X20087Y13782D01*
X20104Y13694D01*
X20170Y13362D01*
X20518Y12841D01*
X21039Y12493D01*
X21654Y12371D01*
X22268Y12493D01*
X22789Y12841D01*
X23137Y13362D01*
X23259Y13976D01*
X23137Y14591D01*
X22789Y15112D01*
X22268Y15460D01*
X21654Y15582D01*
X21039Y15460D01*
X20518Y15112D01*
X20170Y14591D01*
X20104Y14259D01*
X20087Y14171D01*
X19587Y14220D01*
Y16535D01*
X67134D01*
X67217Y16118D01*
X67565Y15597D01*
X68086Y15249D01*
X68701Y15127D01*
X69315Y15249D01*
X69836Y15597D01*
X70184Y16118D01*
X70267Y16535D01*
X90945D01*
Y4675D01*
D02*
G37*
G36*
X196062D02*
X182323D01*
Y4764D01*
X178701D01*
Y4675D01*
X142756D01*
Y4764D01*
X139134D01*
Y4675D01*
X134882D01*
Y4764D01*
X131260D01*
Y4675D01*
X110728D01*
Y16031D01*
X111249Y16135D01*
X111770Y16483D01*
X111914Y16698D01*
X131082D01*
X131194Y16135D01*
X131588Y15545D01*
X132178Y15151D01*
X132874Y15012D01*
X133570Y15151D01*
X134160Y15545D01*
X134554Y16135D01*
X134666Y16698D01*
X173977D01*
X174461Y16634D01*
X174469Y16597D01*
Y14921D01*
X175748D01*
X176279Y14816D01*
X176812Y14921D01*
X178091D01*
Y16597D01*
X178098Y16634D01*
X178582Y16698D01*
X196062D01*
Y4675D01*
D02*
G37*
G36*
X15945Y4035D02*
X209252D01*
Y1295D01*
X1000Y1295D01*
X1000Y27953D01*
X15945D01*
Y4035D01*
D02*
G37*
%LPC*%
G36*
X32677Y265582D02*
X32063Y265460D01*
X31542Y265112D01*
X31194Y264591D01*
X31071Y263976D01*
X31194Y263362D01*
X31542Y262841D01*
X32063Y262493D01*
X32677Y262371D01*
X33292Y262493D01*
X33812Y262841D01*
X34161Y263362D01*
X34283Y263976D01*
X34161Y264591D01*
X33812Y265112D01*
X33292Y265460D01*
X32677Y265582D01*
D02*
G37*
G36*
X28445D02*
X27830Y265460D01*
X27310Y265112D01*
X26961Y264591D01*
X26839Y263976D01*
X26961Y263362D01*
X27310Y262841D01*
X27830Y262493D01*
X28445Y262371D01*
X29059Y262493D01*
X29580Y262841D01*
X29928Y263362D01*
X30051Y263976D01*
X29928Y264591D01*
X29580Y265112D01*
X29059Y265460D01*
X28445Y265582D01*
D02*
G37*
G36*
X49606Y265201D02*
X48992Y265078D01*
X48471Y264730D01*
X48123Y264210D01*
X48001Y263595D01*
X48123Y262981D01*
X48471Y262460D01*
X48992Y262112D01*
X49606Y261989D01*
X50221Y262112D01*
X50742Y262460D01*
X51090Y262981D01*
X51212Y263595D01*
X51090Y264210D01*
X50742Y264730D01*
X50221Y265078D01*
X49606Y265201D01*
D02*
G37*
G36*
X53952Y265111D02*
X53337Y264989D01*
X52816Y264641D01*
X52468Y264120D01*
X52346Y263506D01*
X52468Y262891D01*
X52816Y262370D01*
X53337Y262022D01*
X53952Y261900D01*
X54566Y262022D01*
X55087Y262370D01*
X55435Y262891D01*
X55557Y263506D01*
X55435Y264120D01*
X55087Y264641D01*
X54566Y264989D01*
X53952Y265111D01*
D02*
G37*
G36*
X71879Y260637D02*
X71264Y260514D01*
X70743Y260166D01*
X70395Y259645D01*
X70273Y259031D01*
X70395Y258417D01*
X70743Y257896D01*
X71264Y257547D01*
X71879Y257425D01*
X72493Y257547D01*
X73014Y257896D01*
X73362Y258417D01*
X73484Y259031D01*
X73362Y259645D01*
X73014Y260166D01*
X72493Y260514D01*
X71879Y260637D01*
D02*
G37*
G36*
X157874Y264200D02*
X157260Y264077D01*
X156739Y263729D01*
X156391Y263209D01*
X156268Y262594D01*
X156391Y261980D01*
X156739Y261459D01*
X157260Y261111D01*
X157874Y260988D01*
X158489Y261111D01*
X159009Y261459D01*
X159358Y261980D01*
X159480Y262594D01*
X159358Y263209D01*
X159009Y263729D01*
X158489Y264077D01*
X157874Y264200D01*
D02*
G37*
G36*
X189862Y262791D02*
X189248Y262669D01*
X188727Y262320D01*
X188379Y261800D01*
X188257Y261185D01*
X188372Y260604D01*
X188298Y260507D01*
X187983Y260262D01*
X187918Y260306D01*
X187303Y260429D01*
X186689Y260306D01*
X186168Y259958D01*
X185820Y259437D01*
X185697Y258823D01*
X185820Y258208D01*
X186168Y257688D01*
X186689Y257340D01*
X187303Y257217D01*
X187918Y257340D01*
X188438Y257688D01*
X188787Y258208D01*
X188909Y258823D01*
X188793Y259404D01*
X188868Y259501D01*
X189182Y259746D01*
X189248Y259702D01*
X189862Y259579D01*
X190477Y259702D01*
X190998Y260050D01*
X191346Y260571D01*
X191468Y261185D01*
X191346Y261800D01*
X190998Y262320D01*
X190477Y262669D01*
X189862Y262791D01*
D02*
G37*
G36*
X150229Y262903D02*
X149615Y262781D01*
X149094Y262433D01*
X148746Y261912D01*
X148623Y261297D01*
X148746Y260683D01*
X149094Y260162D01*
X149615Y259814D01*
X150229Y259692D01*
X150843Y259814D01*
X151364Y260162D01*
X151712Y260683D01*
X151835Y261297D01*
X151712Y261912D01*
X151364Y262433D01*
X150843Y262781D01*
X150229Y262903D01*
D02*
G37*
G36*
X130217Y262236D02*
X129602Y262113D01*
X129081Y261765D01*
X128733Y261244D01*
X128611Y260630D01*
X128733Y260016D01*
X129081Y259495D01*
X129602Y259146D01*
X130217Y259024D01*
X130831Y259146D01*
X131352Y259495D01*
X131700Y260016D01*
X131822Y260630D01*
X131700Y261244D01*
X131352Y261765D01*
X130831Y262113D01*
X130217Y262236D01*
D02*
G37*
G36*
X214311Y249055D02*
X210689D01*
Y245433D01*
X214311D01*
Y249055D01*
D02*
G37*
G36*
X212500Y241020D02*
X211885Y240898D01*
X211365Y240550D01*
X211017Y240029D01*
X210894Y239415D01*
X211017Y238800D01*
X211365Y238279D01*
X211885Y237931D01*
X212500Y237809D01*
X213115Y237931D01*
X213635Y238279D01*
X213983Y238800D01*
X214106Y239415D01*
X213983Y240029D01*
X213635Y240550D01*
X213115Y240898D01*
X212500Y241020D01*
D02*
G37*
G36*
X214311Y233307D02*
X210689D01*
Y229685D01*
X214311D01*
Y233307D01*
D02*
G37*
G36*
Y225433D02*
X210689D01*
Y221811D01*
X214311D01*
Y225433D01*
D02*
G37*
G36*
X299764Y209764D02*
X299149Y209641D01*
X298628Y209293D01*
X298280Y208772D01*
X298158Y208158D01*
X298280Y207544D01*
X298628Y207023D01*
X299149Y206675D01*
X299764Y206552D01*
X300378Y206675D01*
X300899Y207023D01*
X301247Y207544D01*
X301369Y208158D01*
X301247Y208772D01*
X300899Y209293D01*
X300378Y209641D01*
X299764Y209764D01*
D02*
G37*
G36*
X284016D02*
X283401Y209641D01*
X282880Y209293D01*
X282532Y208772D01*
X282410Y208158D01*
X282532Y207544D01*
X282880Y207023D01*
X283401Y206675D01*
X284016Y206552D01*
X284630Y206675D01*
X285151Y207023D01*
X285499Y207544D01*
X285621Y208158D01*
X285499Y208772D01*
X285151Y209293D01*
X284630Y209641D01*
X284016Y209764D01*
D02*
G37*
G36*
X276142D02*
X275527Y209641D01*
X275006Y209293D01*
X274658Y208772D01*
X274536Y208158D01*
X274658Y207544D01*
X275006Y207023D01*
X275527Y206675D01*
X276142Y206552D01*
X276756Y206675D01*
X277277Y207023D01*
X277625Y207544D01*
X277747Y208158D01*
X277625Y208772D01*
X277277Y209293D01*
X276756Y209641D01*
X276142Y209764D01*
D02*
G37*
G36*
X268268D02*
X267653Y209641D01*
X267132Y209293D01*
X266784Y208772D01*
X266662Y208158D01*
X266784Y207544D01*
X267132Y207023D01*
X267653Y206675D01*
X268268Y206552D01*
X268882Y206675D01*
X269403Y207023D01*
X269751Y207544D01*
X269873Y208158D01*
X269751Y208772D01*
X269403Y209293D01*
X268882Y209641D01*
X268268Y209764D01*
D02*
G37*
G36*
X260394D02*
X259779Y209641D01*
X259258Y209293D01*
X258910Y208772D01*
X258788Y208158D01*
X258910Y207544D01*
X259258Y207023D01*
X259779Y206675D01*
X260394Y206552D01*
X261008Y206675D01*
X261529Y207023D01*
X261877Y207544D01*
X261999Y208158D01*
X261877Y208772D01*
X261529Y209293D01*
X261008Y209641D01*
X260394Y209764D01*
D02*
G37*
G36*
X252520D02*
X251905Y209641D01*
X251384Y209293D01*
X251036Y208772D01*
X250914Y208158D01*
X251036Y207544D01*
X251384Y207023D01*
X251905Y206675D01*
X252520Y206552D01*
X253134Y206675D01*
X253655Y207023D01*
X254003Y207544D01*
X254125Y208158D01*
X254003Y208772D01*
X253655Y209293D01*
X253134Y209641D01*
X252520Y209764D01*
D02*
G37*
G36*
X244646D02*
X244031Y209641D01*
X243510Y209293D01*
X243162Y208772D01*
X243040Y208158D01*
X243162Y207544D01*
X243510Y207023D01*
X244031Y206675D01*
X244646Y206552D01*
X245260Y206675D01*
X245781Y207023D01*
X246129Y207544D01*
X246251Y208158D01*
X246129Y208772D01*
X245781Y209293D01*
X245260Y209641D01*
X244646Y209764D01*
D02*
G37*
G36*
X327506Y176228D02*
X326810Y176089D01*
X326220Y175695D01*
X325826Y175105D01*
X325688Y174409D01*
X325826Y173714D01*
X326220Y173124D01*
X326810Y172730D01*
X327506Y172591D01*
X328202Y172730D01*
X328792Y173124D01*
X329186Y173714D01*
X329325Y174409D01*
X329186Y175105D01*
X328792Y175695D01*
X328202Y176089D01*
X327506Y176228D01*
D02*
G37*
G36*
X327506Y124069D02*
X326810Y123931D01*
X326220Y123537D01*
X325826Y122947D01*
X325688Y122251D01*
X325826Y121555D01*
X326220Y120965D01*
X326810Y120571D01*
X327506Y120432D01*
X328202Y120571D01*
X328792Y120965D01*
X329186Y121555D01*
X329325Y122251D01*
X329186Y122947D01*
X328792Y123537D01*
X328202Y123931D01*
X327506Y124069D01*
D02*
G37*
G36*
X225295Y91960D02*
X224681Y91838D01*
X224160Y91490D01*
X223812Y90969D01*
X223690Y90354D01*
X223812Y89740D01*
X224160Y89219D01*
X224681Y88871D01*
X225295Y88749D01*
X225910Y88871D01*
X226431Y89219D01*
X226779Y89740D01*
X226901Y90354D01*
X226779Y90969D01*
X226431Y91490D01*
X225910Y91838D01*
X225295Y91960D01*
D02*
G37*
G36*
X327801Y80739D02*
X327187Y80617D01*
X326666Y80269D01*
X326318Y79748D01*
X326196Y79134D01*
X326318Y78519D01*
X326666Y77999D01*
X327187Y77650D01*
X327801Y77528D01*
X328416Y77650D01*
X328937Y77999D01*
X329285Y78519D01*
X329407Y79134D01*
X329285Y79748D01*
X328937Y80269D01*
X328416Y80617D01*
X327801Y80739D01*
D02*
G37*
G36*
X211910Y36976D02*
X211295Y36854D01*
X210774Y36506D01*
X210426Y35985D01*
X210304Y35370D01*
X210426Y34756D01*
X210774Y34235D01*
X211295Y33887D01*
X211910Y33765D01*
X212524Y33887D01*
X213045Y34235D01*
X213393Y34756D01*
X213515Y35370D01*
X213393Y35985D01*
X213045Y36506D01*
X212524Y36854D01*
X211910Y36976D01*
D02*
G37*
G36*
X38878Y176666D02*
X38263Y176544D01*
X37743Y176196D01*
X37394Y175675D01*
X37272Y175061D01*
X37394Y174446D01*
X37743Y173925D01*
X38263Y173577D01*
X38878Y173455D01*
X39492Y173577D01*
X40013Y173925D01*
X40361Y174446D01*
X40484Y175061D01*
X40361Y175675D01*
X40013Y176196D01*
X39492Y176544D01*
X38878Y176666D01*
D02*
G37*
G36*
X55315Y162629D02*
X54700Y162507D01*
X54180Y162159D01*
X53831Y161638D01*
X53709Y161024D01*
X53831Y160409D01*
X54180Y159888D01*
X54700Y159540D01*
X55315Y159418D01*
X55929Y159540D01*
X56450Y159888D01*
X56798Y160409D01*
X56921Y161024D01*
X56798Y161638D01*
X56450Y162159D01*
X55929Y162507D01*
X55315Y162629D01*
D02*
G37*
G36*
X140979Y163620D02*
X140365Y163498D01*
X139844Y163150D01*
X139496Y162629D01*
X139374Y162015D01*
X139496Y161400D01*
X139844Y160879D01*
X140365Y160531D01*
X140979Y160409D01*
X141594Y160531D01*
X142115Y160879D01*
X142463Y161400D01*
X142585Y162015D01*
X142463Y162629D01*
X142115Y163150D01*
X141594Y163498D01*
X140979Y163620D01*
D02*
G37*
G36*
X131004Y163613D02*
X130389Y163491D01*
X129869Y163143D01*
X129520Y162622D01*
X129398Y162008D01*
X129520Y161393D01*
X129869Y160872D01*
X130389Y160524D01*
X131004Y160402D01*
X131618Y160524D01*
X132139Y160872D01*
X132487Y161393D01*
X132610Y162008D01*
X132487Y162622D01*
X132139Y163143D01*
X131618Y163491D01*
X131004Y163613D01*
D02*
G37*
G36*
X162008Y131822D02*
X161393Y131700D01*
X160872Y131352D01*
X160524Y130831D01*
X160402Y130217D01*
X160524Y129602D01*
X160872Y129081D01*
X161393Y128733D01*
X162008Y128611D01*
X162622Y128733D01*
X163143Y129081D01*
X163491Y129602D01*
X163613Y130217D01*
X163491Y130831D01*
X163143Y131352D01*
X162622Y131700D01*
X162008Y131822D01*
D02*
G37*
G36*
X162106Y125621D02*
X161492Y125499D01*
X160971Y125151D01*
X160623Y124630D01*
X160501Y124016D01*
X160623Y123401D01*
X160971Y122880D01*
X161492Y122532D01*
X162106Y122410D01*
X162721Y122532D01*
X163242Y122880D01*
X163590Y123401D01*
X163712Y124016D01*
X163590Y124630D01*
X163242Y125151D01*
X162721Y125499D01*
X162106Y125621D01*
D02*
G37*
G36*
X9055Y101606D02*
X8441Y101483D01*
X7920Y101135D01*
X7572Y100615D01*
X7450Y100000D01*
X7572Y99385D01*
X7920Y98865D01*
X8441Y98517D01*
X9055Y98394D01*
X9670Y98517D01*
X10191Y98865D01*
X10538Y99385D01*
X10661Y100000D01*
X10538Y100615D01*
X10191Y101135D01*
X9670Y101483D01*
X9055Y101606D01*
D02*
G37*
G36*
Y77984D02*
X8441Y77861D01*
X7920Y77513D01*
X7572Y76992D01*
X7450Y76378D01*
X7572Y75763D01*
X7920Y75243D01*
X8441Y74894D01*
X9055Y74772D01*
X9670Y74894D01*
X10191Y75243D01*
X10538Y75763D01*
X10661Y76378D01*
X10538Y76992D01*
X10191Y77513D01*
X9670Y77861D01*
X9055Y77984D01*
D02*
G37*
G36*
X68701Y13417D02*
X68086Y13295D01*
X67565Y12946D01*
X67217Y12426D01*
X67095Y11811D01*
X67217Y11197D01*
X67565Y10676D01*
X68086Y10328D01*
X68701Y10205D01*
X69315Y10328D01*
X69836Y10676D01*
X70184Y11197D01*
X70306Y11811D01*
X70184Y12426D01*
X69836Y12946D01*
X69315Y13295D01*
X68701Y13417D01*
D02*
G37*
G36*
Y9184D02*
X68086Y9062D01*
X67565Y8714D01*
X67217Y8193D01*
X67095Y7579D01*
X67217Y6964D01*
X67565Y6443D01*
X68086Y6095D01*
X68701Y5973D01*
X69315Y6095D01*
X69836Y6443D01*
X70184Y6964D01*
X70306Y7579D01*
X70184Y8193D01*
X69836Y8714D01*
X69315Y9062D01*
X68701Y9184D01*
D02*
G37*
%LPD*%
D10*
X194882Y193701D02*
D03*
X188583D02*
D03*
X231004Y143898D02*
D03*
X224705D02*
D03*
X231890Y110925D02*
D03*
X225590D02*
D03*
X76870Y74213D02*
D03*
X70571D02*
D03*
X116831Y96850D02*
D03*
X123130D02*
D03*
X215171Y167717D02*
D03*
X221470D02*
D03*
X245747Y84978D02*
D03*
X239447D02*
D03*
X241732Y92224D02*
D03*
X235433D02*
D03*
X87106Y119390D02*
D03*
X80807D02*
D03*
Y124311D02*
D03*
X87106D02*
D03*
X80709Y139173D02*
D03*
X87008D02*
D03*
D11*
X88189Y67716D02*
D03*
Y74016D02*
D03*
X59842Y68012D02*
D03*
Y74311D02*
D03*
X152461Y148031D02*
D03*
Y141732D02*
D03*
X138583Y109055D02*
D03*
Y115354D02*
D03*
X158169Y101870D02*
D03*
Y108169D02*
D03*
X100886Y103642D02*
D03*
Y97342D02*
D03*
X100689Y129232D02*
D03*
Y122933D02*
D03*
X86319Y104429D02*
D03*
Y110728D02*
D03*
X100787Y108957D02*
D03*
Y115256D02*
D03*
X100787Y139625D02*
D03*
Y133326D02*
D03*
D12*
X176279Y20354D02*
D03*
Y16654D02*
D03*
X123721Y210551D02*
D03*
Y214252D02*
D03*
X24508Y184331D02*
D03*
Y180630D02*
D03*
D14*
X188189Y101279D02*
D03*
X181890D02*
D03*
D16*
X113878Y159646D02*
D03*
Y156102D02*
D03*
X82284Y159744D02*
D03*
Y156201D02*
D03*
X121752Y159646D02*
D03*
Y156102D02*
D03*
X74213Y159744D02*
D03*
Y156201D02*
D03*
X50689Y159744D02*
D03*
Y156201D02*
D03*
X137500Y159646D02*
D03*
Y156102D02*
D03*
X62500Y159843D02*
D03*
Y156299D02*
D03*
X54823Y152461D02*
D03*
Y156004D02*
D03*
X26969Y200394D02*
D03*
Y203937D02*
D03*
X66437Y152657D02*
D03*
Y156201D02*
D03*
X182185Y266339D02*
D03*
Y269882D02*
D03*
X153347Y152559D02*
D03*
Y156102D02*
D03*
X315567Y150142D02*
D03*
Y153685D02*
D03*
X174213Y266339D02*
D03*
Y269882D02*
D03*
X46654Y152559D02*
D03*
Y156102D02*
D03*
X194390Y204232D02*
D03*
Y207776D02*
D03*
X125984Y152461D02*
D03*
Y156004D02*
D03*
X133563Y152461D02*
D03*
Y156004D02*
D03*
X320685Y150142D02*
D03*
Y153685D02*
D03*
X133071Y6496D02*
D03*
Y2953D02*
D03*
X140945Y6496D02*
D03*
Y2953D02*
D03*
X180512Y6496D02*
D03*
Y2953D02*
D03*
X41732Y6398D02*
D03*
Y2854D02*
D03*
X44193Y266339D02*
D03*
Y269882D02*
D03*
X49705Y6496D02*
D03*
Y2953D02*
D03*
X51968Y266339D02*
D03*
Y269882D02*
D03*
X73327Y6496D02*
D03*
Y2953D02*
D03*
X186516Y204232D02*
D03*
Y207776D02*
D03*
X142717Y266339D02*
D03*
Y269882D02*
D03*
X134744Y266339D02*
D03*
Y269882D02*
D03*
X83563Y266339D02*
D03*
Y269882D02*
D03*
X188386Y6398D02*
D03*
Y2854D02*
D03*
X75590Y266339D02*
D03*
Y269882D02*
D03*
X81201Y6398D02*
D03*
Y2854D02*
D03*
X265265Y163706D02*
D03*
Y167250D02*
D03*
X261722Y163706D02*
D03*
Y167250D02*
D03*
X267913Y84646D02*
D03*
Y88189D02*
D03*
X267960Y121063D02*
D03*
Y117520D02*
D03*
X271897Y121161D02*
D03*
Y117618D02*
D03*
D25*
X50787Y93602D02*
D03*
X62205D02*
D03*
X72539Y80709D02*
D03*
X83957D02*
D03*
X33465Y81398D02*
D03*
X44882D02*
D03*
X130709Y134941D02*
D03*
X142126D02*
D03*
X86221Y148917D02*
D03*
X74803D02*
D03*
D26*
X110236Y181398D02*
D03*
Y169980D02*
D03*
X25394Y92421D02*
D03*
Y81004D02*
D03*
X18802Y165886D02*
D03*
Y154469D02*
D03*
X107973Y128347D02*
D03*
Y116929D02*
D03*
D37*
X170276Y191535D02*
D03*
X166732D02*
D03*
X213779Y76279D02*
D03*
X210236D02*
D03*
X213779Y68405D02*
D03*
X210236D02*
D03*
X213779Y60532D02*
D03*
X210236D02*
D03*
X213779Y52658D02*
D03*
X210236D02*
D03*
X213779Y88090D02*
D03*
X210236D02*
D03*
X213779Y84153D02*
D03*
X210236D02*
D03*
X213779Y80216D02*
D03*
X210236D02*
D03*
X213779Y72342D02*
D03*
X210236D02*
D03*
X213779Y64468D02*
D03*
X210236D02*
D03*
X213779Y56595D02*
D03*
X210236D02*
D03*
X162795Y138189D02*
D03*
X166339D02*
D03*
X162894Y118602D02*
D03*
X166437D02*
D03*
X170472Y114567D02*
D03*
X166929D02*
D03*
X170768Y142421D02*
D03*
X167224D02*
D03*
X37402Y171457D02*
D03*
X33858D02*
D03*
X170472Y106595D02*
D03*
X166929D02*
D03*
X170276Y171063D02*
D03*
X166732D02*
D03*
X170374Y176575D02*
D03*
X166831D02*
D03*
X37303Y180118D02*
D03*
X33760D02*
D03*
X170472Y130315D02*
D03*
X166929D02*
D03*
X30020Y175787D02*
D03*
X33563D02*
D03*
X29921Y191437D02*
D03*
X33465D02*
D03*
X208957Y231496D02*
D03*
X212500D02*
D03*
X208957Y223622D02*
D03*
X212500D02*
D03*
X37205Y195866D02*
D03*
X33661D02*
D03*
X37205Y203740D02*
D03*
X33661D02*
D03*
X162894Y110531D02*
D03*
X166437D02*
D03*
X162795Y134153D02*
D03*
X166339D02*
D03*
X208268Y27461D02*
D03*
X211811D02*
D03*
X17815Y20571D02*
D03*
X14272D02*
D03*
X21063Y250197D02*
D03*
X17520D02*
D03*
X208957Y247244D02*
D03*
X212500D02*
D03*
X170177Y196555D02*
D03*
X166634D02*
D03*
X21063Y255610D02*
D03*
X17520D02*
D03*
X17815Y26083D02*
D03*
X14272D02*
D03*
X146555Y109291D02*
D03*
X143012D02*
D03*
X243424Y101267D02*
D03*
X239880D02*
D03*
X243424Y97330D02*
D03*
X239880D02*
D03*
X270472Y103445D02*
D03*
X266929D02*
D03*
X270472Y107776D02*
D03*
X266929D02*
D03*
X270472Y99114D02*
D03*
X266929D02*
D03*
X270472Y94784D02*
D03*
X266929D02*
D03*
X274114Y91437D02*
D03*
X277658D02*
D03*
X274114Y87598D02*
D03*
X277658D02*
D03*
D41*
X142323Y141831D02*
D03*
Y148130D02*
D03*
D58*
X62008Y85348D02*
D03*
Y83380D02*
D03*
Y81411D02*
D03*
Y79443D02*
D03*
X50197D02*
D03*
Y81411D02*
D03*
Y83380D02*
D03*
Y85348D02*
D03*
D75*
X182874Y30610D02*
D03*
X171260D02*
D03*
D76*
X177067Y24606D02*
D03*
D79*
X112205Y216043D02*
D03*
Y204429D02*
D03*
D80*
X118209Y210236D02*
D03*
D180*
X118969Y210551D02*
G03*
X118209Y210236I0J-1075D01*
G01*
X118969Y210551D02*
X123721D01*
X176279Y20354D02*
Y23720D01*
D183*
X183734Y61342D02*
G03*
X186663Y68413I-7071J7071D01*
G01*
X174839Y52447D02*
G03*
X173622Y49508I2939J-2939D01*
G01*
X142717Y60827D02*
G03*
X148918Y67028I0J6201D01*
G01*
X136425Y60827D02*
G03*
X129893Y58398I0J-10000D01*
G01*
D02*
G03*
X129354Y57898I6533J-7571D01*
G01*
X126944Y55487D02*
G03*
X126941Y55484I7031J-7036D01*
G01*
X117610Y50295D02*
G03*
X124681Y53224I0J10000D01*
G01*
X174839Y52447D02*
X183734Y61342D01*
X136425Y60827D02*
X142717D01*
X126944Y55487D02*
X129354Y57898D01*
X126941Y55484D02*
X126944Y55487D01*
X124681Y53224D02*
X126941Y55484D01*
X114567Y50295D02*
X117610D01*
X186663Y68413D02*
Y69193D01*
X148918Y67028D02*
Y68405D01*
D186*
X263411Y157604D02*
Y160474D01*
X263386Y157579D02*
X263411Y157604D01*
X262548Y161336D02*
X263411Y160474D01*
X262548Y161336D02*
Y162879D01*
X261722Y163706D02*
X262548Y162879D01*
X263411Y160474D02*
X264438Y161501D01*
Y162879D01*
X265265Y163706D01*
X273952Y87598D02*
X274114D01*
D188*
X61221Y76873D02*
X62008Y77660D01*
X61221Y75492D02*
Y76873D01*
X60039Y74311D02*
X61221Y75492D01*
X59842Y74311D02*
X60039D01*
X62008Y77660D02*
Y79443D01*
X92165Y111909D02*
X95512Y115256D01*
X87500Y111909D02*
X92165D01*
X86811Y129232D02*
X86968Y129390D01*
X91476D01*
Y119291D02*
X95512Y115256D01*
X87106Y124311D02*
X87486Y123932D01*
X87845Y124291D01*
X91476D01*
X89890Y120768D02*
X91249Y122126D01*
X88287Y120768D02*
X89890D01*
X100236Y104291D02*
X100886Y103642D01*
X96476Y104291D02*
X100236D01*
X100591Y108957D02*
X100787D01*
X91249Y122126D02*
X94311D01*
X96476Y124291D01*
X87106Y119587D02*
X88287Y120768D01*
X87106Y119390D02*
Y119587D01*
X24508Y178248D02*
Y178452D01*
X89272Y143307D02*
X96457D01*
X89272Y141634D02*
Y143307D01*
X100787Y139291D02*
Y139625D01*
X129662Y156102D02*
X129711Y156053D01*
X133514D02*
X133563Y156004D01*
X87008Y139370D02*
X89272Y141634D01*
X87008Y139173D02*
Y139370D01*
X92323Y139961D02*
X92992Y139291D01*
X92323Y134055D02*
X92520Y134252D01*
X123130Y96850D02*
X123327D01*
X86319Y110728D02*
X87500Y111909D01*
X95512Y115256D02*
X100787D01*
D189*
X92992Y139291D02*
X96476D01*
X92520Y134252D02*
X96457D01*
X96476Y139291D02*
X100787D01*
X86181Y104291D02*
X86319Y104429D01*
X81476Y104291D02*
X86181D01*
X124114Y132579D02*
X129429D01*
X130709Y133858D01*
Y134941D01*
X124114Y135039D02*
X130610D01*
X130709Y134941D01*
X131102Y135335D02*
Y141732D01*
X274114Y87616D02*
X274131Y87598D01*
X274114Y87616D02*
Y91346D01*
X274036Y91425D02*
X274114Y91346D01*
X272441Y94784D02*
X274803Y97146D01*
X270472Y94784D02*
X272441D01*
X270472Y99114D02*
X272835D01*
X274803Y97146D01*
X273543Y103445D02*
X274508Y104409D01*
X270472Y103445D02*
X273543D01*
X274508Y104409D02*
Y106102D01*
X272977Y107633D02*
X274508Y106102D01*
X270615Y107633D02*
X272977D01*
X270472Y107776D02*
X270615Y107633D01*
X265374Y105598D02*
Y107618D01*
Y103602D02*
Y105598D01*
Y94941D02*
Y96937D01*
Y98957D01*
Y103445D02*
X266929D01*
X265374Y101267D02*
Y103445D01*
Y94941D02*
X266772D01*
X266929Y94784D01*
X265374Y99114D02*
X266929D01*
X265374D02*
Y101267D01*
Y107618D02*
X266772D01*
X266929Y107776D01*
X271897Y117520D02*
Y117618D01*
X243424Y101267D02*
X246573D01*
X243424Y97330D02*
X246573D01*
D191*
X96476Y129291D02*
X100630D01*
X100738Y129400D01*
X142126Y134941D02*
X142224Y135039D01*
Y141732D01*
X142323Y141831D01*
X142372Y141781D01*
X152411D01*
X152461Y141732D01*
X100738Y133277D02*
X100787Y133326D01*
X100738Y129400D02*
Y133277D01*
D195*
X50295Y24277D02*
X50820Y24802D01*
X51870D01*
X52394Y24277D01*
Y23753D01*
X51870Y23228D01*
X52394Y22703D01*
Y22178D01*
X51870Y21654D01*
X50820D01*
X50295Y22178D01*
Y22703D01*
X50820Y23228D01*
X50295Y23753D01*
Y24277D01*
X50820Y23228D02*
X51870D01*
X248944Y151377D02*
X247895D01*
X248420D01*
Y148228D01*
X248944D01*
X247895D01*
X244221Y150852D02*
X244746Y151377D01*
X245796D01*
X246321Y150852D01*
Y150327D01*
X245796Y149803D01*
X244746D01*
X244221Y149278D01*
Y148753D01*
X244746Y148228D01*
X245796D01*
X246321Y148753D01*
X241073Y151377D02*
X243172D01*
Y148228D01*
X241073D01*
X243172Y149803D02*
X242122D01*
X234776Y148228D02*
X236875D01*
X234776Y150327D01*
Y150852D01*
X235300Y151377D01*
X236350D01*
X236875Y150852D01*
X233726D02*
X233201Y151377D01*
X232152D01*
X231627Y150852D01*
Y148753D01*
X232152Y148228D01*
X233201D01*
X233726Y148753D01*
Y150852D01*
X230578Y148228D02*
X229528D01*
X230053D01*
Y151377D01*
X230578Y150852D01*
X227954Y148753D02*
X227429Y148228D01*
X226379D01*
X225855Y148753D01*
Y150852D01*
X226379Y151377D01*
X227429D01*
X227954Y150852D01*
Y150327D01*
X227429Y149803D01*
X225855D01*
X240322Y156324D02*
X240847Y156849D01*
X241897D01*
X242421Y156324D01*
Y155799D01*
X241897Y155275D01*
X240847D01*
X240322Y154750D01*
Y154225D01*
X240847Y153700D01*
X241897D01*
X242421Y154225D01*
X239273Y156849D02*
Y153700D01*
Y155275D01*
X237174D01*
Y156849D01*
Y153700D01*
X236124D02*
Y155799D01*
X235074Y156849D01*
X234025Y155799D01*
Y153700D01*
Y155275D01*
X236124D01*
X232976Y153700D02*
X230876Y155799D01*
X227728Y156324D02*
X228253Y156849D01*
X229302D01*
X229827Y156324D01*
Y154225D01*
X229302Y153700D01*
X228253D01*
X227728Y154225D01*
Y155275D01*
X228777D01*
X226678Y156849D02*
Y153700D01*
Y154750D01*
X224579Y156849D01*
X226153Y155275D01*
X224579Y153700D01*
X223530D02*
Y155799D01*
X222480Y156849D01*
X221431Y155799D01*
Y153700D01*
Y155275D01*
X223530D01*
X241043Y161810D02*
X238944Y158661D01*
Y161810D02*
X241043Y158661D01*
X235796Y161810D02*
X237895D01*
Y160236D01*
X236845D01*
X237895D01*
Y158661D01*
X232647Y161810D02*
X234746D01*
Y158661D01*
X232647D01*
X234746Y160236D02*
X233697D01*
X228449Y161810D02*
Y159711D01*
X227399Y158661D01*
X226350Y159711D01*
Y161810D01*
X225300Y158661D02*
X224251D01*
X224776D01*
Y161810D01*
X225300Y161285D01*
D205*
X166831Y208071D02*
D03*
X211516D02*
D03*
X99051Y264405D02*
D03*
Y8500D02*
D03*
X9402Y114882D02*
D03*
X33661Y156055D02*
D03*
X303776Y156138D02*
D03*
X205350Y8500D02*
D03*
X165980Y156138D02*
D03*
X8500Y8500D02*
D03*
Y264405D02*
D03*
X205350D02*
D03*
X99051Y156138D02*
D03*
D206*
X196663Y71398D02*
D03*
X176663D02*
D03*
Y91398D02*
D03*
X196663D02*
D03*
X158918Y70610D02*
D03*
X138918D02*
D03*
Y90610D02*
D03*
X158918D02*
D03*
D207*
X8268Y152756D02*
D03*
Y168504D02*
D03*
D208*
X12205Y135039D02*
D03*
Y186221D02*
D03*
D209*
X256831Y200886D02*
D03*
X246831D02*
D03*
X236831D02*
D03*
D210*
X226831D02*
D03*
D211*
X207579Y228584D02*
D03*
X207382Y247146D02*
D03*
X186516Y203346D02*
D03*
X171752Y196653D02*
D03*
X171949Y169783D02*
D03*
X209547Y85925D02*
D03*
X113779Y142815D02*
D03*
Y140256D02*
D03*
X181693Y179823D02*
D03*
X184252Y182382D02*
D03*
X106496Y122736D02*
D03*
X112795D02*
D03*
X113878Y132480D02*
D03*
X118996Y142717D02*
D03*
X124213Y142815D02*
D03*
X132087Y129134D02*
D03*
X194882Y193701D02*
D03*
X188583D02*
D03*
X131988Y123327D02*
D03*
X224705Y143898D02*
D03*
X231004D02*
D03*
X225689Y110925D02*
D03*
X231890D02*
D03*
X218989Y109408D02*
D03*
X124606Y111909D02*
D03*
X121555Y142728D02*
D03*
X184252Y179823D02*
D03*
X315567Y150142D02*
D03*
X320685D02*
D03*
X131004Y165945D02*
D03*
X119095Y162106D02*
D03*
X131004Y162008D02*
D03*
X152854D02*
D03*
X152756Y165945D02*
D03*
X119095Y165855D02*
D03*
X140979Y165847D02*
D03*
Y162015D02*
D03*
X144390Y171555D02*
D03*
Y177461D02*
D03*
X182972Y34252D02*
D03*
X3642Y20571D02*
D03*
Y26181D02*
D03*
X14272Y20571D02*
D03*
X14272Y26083D02*
D03*
X24477Y184350D02*
D03*
X247835Y111319D02*
D03*
X239094Y104528D02*
D03*
X76870Y67913D02*
D03*
X70571Y74213D02*
D03*
X76870D02*
D03*
X59842Y68012D02*
D03*
X72441Y82267D02*
D03*
Y79314D02*
D03*
X79626Y82300D02*
D03*
Y78953D02*
D03*
X51496Y139272D02*
D03*
X51476Y109291D02*
D03*
X61476D02*
D03*
X46476Y104291D02*
D03*
X96476Y129291D02*
D03*
X56476Y124291D02*
D03*
X71476Y119291D02*
D03*
X91476Y109291D02*
D03*
X76378Y119291D02*
D03*
X51476Y99291D02*
D03*
X56476D02*
D03*
X71476Y139291D02*
D03*
X91476Y129390D02*
D03*
X96476Y124291D02*
D03*
X71476Y114291D02*
D03*
X76476D02*
D03*
X81476Y109291D02*
D03*
Y104291D02*
D03*
X86476Y94291D02*
D03*
X66476Y139291D02*
D03*
X96476D02*
D03*
X66476Y129291D02*
D03*
X56476Y109291D02*
D03*
Y104291D02*
D03*
X91476Y89291D02*
D03*
X81476Y94291D02*
D03*
X61476Y124291D02*
D03*
X71476D02*
D03*
X61476Y114291D02*
D03*
X91476Y104291D02*
D03*
X81476Y134291D02*
D03*
X61476Y139291D02*
D03*
Y134291D02*
D03*
X66476Y114291D02*
D03*
X76476Y109291D02*
D03*
X46476Y99291D02*
D03*
X56496Y89272D02*
D03*
X96476Y94291D02*
D03*
X76476D02*
D03*
X66476Y134291D02*
D03*
X46476Y119291D02*
D03*
Y114291D02*
D03*
X51476D02*
D03*
X81476D02*
D03*
Y99291D02*
D03*
X96476D02*
D03*
X46476Y129291D02*
D03*
X51476D02*
D03*
X66476Y119291D02*
D03*
X96476Y109291D02*
D03*
Y89291D02*
D03*
X46476D02*
D03*
Y94291D02*
D03*
Y139291D02*
D03*
Y134291D02*
D03*
X56476Y129291D02*
D03*
Y119291D02*
D03*
X91476D02*
D03*
X71476Y104291D02*
D03*
X76476D02*
D03*
X56476Y139291D02*
D03*
X46476Y124291D02*
D03*
X61476Y119291D02*
D03*
X56476Y114291D02*
D03*
X100591Y108957D02*
D03*
X51476Y104291D02*
D03*
X71476Y99291D02*
D03*
X86476Y89291D02*
D03*
X71476Y134291D02*
D03*
X66476Y104291D02*
D03*
X76476Y129291D02*
D03*
Y99291D02*
D03*
Y89291D02*
D03*
Y139291D02*
D03*
X71476Y129291D02*
D03*
X66476Y124291D02*
D03*
X61476Y104291D02*
D03*
X66476Y99291D02*
D03*
X56476Y94291D02*
D03*
X66476D02*
D03*
X61476Y129291D02*
D03*
X51476Y124291D02*
D03*
X71476Y109291D02*
D03*
X81476Y119291D02*
D03*
Y124291D02*
D03*
X96476Y104291D02*
D03*
X86476Y99291D02*
D03*
X66476Y89291D02*
D03*
X91476Y94291D02*
D03*
X51476Y119291D02*
D03*
X46476Y109291D02*
D03*
X66476D02*
D03*
X81476Y89291D02*
D03*
X71476D02*
D03*
X61476Y99291D02*
D03*
X81476Y139291D02*
D03*
X96457Y134252D02*
D03*
X91476Y114291D02*
D03*
X86476D02*
D03*
X76476Y124291D02*
D03*
X71476Y94291D02*
D03*
X51496Y134252D02*
D03*
X56476Y134291D02*
D03*
X91476Y124291D02*
D03*
X86476Y134291D02*
D03*
X76476D02*
D03*
X81476Y129291D02*
D03*
X91476Y99291D02*
D03*
X65847Y85630D02*
D03*
X64665Y82185D02*
D03*
X57776Y82382D02*
D03*
X66929Y82185D02*
D03*
X57677Y79232D02*
D03*
Y85532D02*
D03*
X45079Y81398D02*
D03*
X38780D02*
D03*
X29035Y92421D02*
D03*
X84941Y80776D02*
D03*
X84055Y78513D02*
D03*
X83957Y82942D02*
D03*
X54528Y82382D02*
D03*
X43209Y73819D02*
D03*
X33465Y79528D02*
D03*
Y83275D02*
D03*
X32972Y90158D02*
D03*
X54528Y79232D02*
D03*
Y85532D02*
D03*
X78248Y252854D02*
D03*
X71816Y221772D02*
D03*
X71879Y217028D02*
D03*
X79035D02*
D03*
X65059Y222047D02*
D03*
X78347Y221949D02*
D03*
X65059Y225590D02*
D03*
X71879Y259031D02*
D03*
X79035Y259154D02*
D03*
X71949Y253031D02*
D03*
X65059Y249213D02*
D03*
Y252756D02*
D03*
X123721Y214252D02*
D03*
X112402Y216142D02*
D03*
Y204429D02*
D03*
X171260Y31004D02*
D03*
X182972D02*
D03*
X176279Y16634D02*
D03*
X202267Y228584D02*
D03*
X24409Y166437D02*
D03*
X28642D02*
D03*
X24508Y178248D02*
D03*
X28445Y178248D02*
D03*
X195768Y250457D02*
D03*
X198228Y252918D02*
D03*
X189862Y261185D02*
D03*
X187303Y258823D02*
D03*
X205416Y188871D02*
D03*
X320889Y120416D02*
D03*
X316713Y116240D02*
D03*
X312554Y112048D02*
D03*
X306841Y71935D02*
D03*
X302447Y67989D02*
D03*
X296593Y67212D02*
D03*
X290688D02*
D03*
X284782D02*
D03*
X278877D02*
D03*
X261160D02*
D03*
X255255D02*
D03*
X249349D02*
D03*
X243444D02*
D03*
X221810Y60446D02*
D03*
X227715D02*
D03*
X233621D02*
D03*
X239526D02*
D03*
X245431D02*
D03*
X251337D02*
D03*
X257242D02*
D03*
X263148D02*
D03*
X269054D02*
D03*
X274959D02*
D03*
X280865D02*
D03*
X286770D02*
D03*
X292676D02*
D03*
X298581D02*
D03*
X309270Y64796D02*
D03*
X313287Y69125D02*
D03*
X315495Y74602D02*
D03*
X315686Y98221D02*
D03*
X315794Y104126D02*
D03*
X319076Y109035D02*
D03*
X327428Y117387D02*
D03*
X327603Y126220D02*
D03*
X234842Y67716D02*
D03*
X134252Y19882D02*
D03*
X27031Y203888D02*
D03*
X19139D02*
D03*
X33661Y195857D02*
D03*
X3355Y203888D02*
D03*
X33661Y180073D02*
D03*
X33661Y203740D02*
D03*
X33661Y187965D02*
D03*
X11247Y203888D02*
D03*
X42815Y156201D02*
D03*
X244646Y180217D02*
D03*
X237402Y186597D02*
D03*
X191339Y62500D02*
D03*
X166732Y146063D02*
D03*
X10403Y31890D02*
D03*
Y65354D02*
D03*
X30686D02*
D03*
X17164Y31890D02*
D03*
X30686D02*
D03*
X23925D02*
D03*
X3642Y65354D02*
D03*
X23925D02*
D03*
X17164D02*
D03*
X3642Y31890D02*
D03*
X30489Y244587D02*
D03*
X23728D02*
D03*
X10206Y211122D02*
D03*
X23728D02*
D03*
X16967Y244587D02*
D03*
X10206D02*
D03*
X3445Y211122D02*
D03*
X30489D02*
D03*
X16967D02*
D03*
X3445Y244587D02*
D03*
X254626Y182579D02*
D03*
X254528Y176279D02*
D03*
X260236D02*
D03*
Y182579D02*
D03*
X173622Y49508D02*
D03*
Y181496D02*
D03*
Y188583D02*
D03*
X185138Y198425D02*
D03*
X177264D02*
D03*
X195617Y228584D02*
D03*
X196538Y199128D02*
D03*
X226863Y186638D02*
D03*
X244580D02*
D03*
X250485D02*
D03*
X256391D02*
D03*
X262296D02*
D03*
X268201D02*
D03*
X280012D02*
D03*
X285918D02*
D03*
X291824D02*
D03*
X297729D02*
D03*
X303635D02*
D03*
X314940Y184239D02*
D03*
X312460Y192585D02*
D03*
X306595Y193272D02*
D03*
X300690Y193318D02*
D03*
X294784D02*
D03*
X282973D02*
D03*
X277068D02*
D03*
X271162D02*
D03*
X259351D02*
D03*
X229824D02*
D03*
X223918D02*
D03*
X218013D02*
D03*
X212107Y193388D02*
D03*
X207045Y196428D02*
D03*
X203096Y200820D02*
D03*
X201279Y213779D02*
D03*
X206094Y240978D02*
D03*
X202262Y245473D02*
D03*
X303937Y172244D02*
D03*
X315551D02*
D03*
X277658Y87598D02*
D03*
X162569Y178973D02*
D03*
X156664Y178973D02*
D03*
X176055Y168074D02*
D03*
X235232Y165544D02*
D03*
X282094Y139556D02*
D03*
X152433Y170183D02*
D03*
X158339D02*
D03*
X176055D02*
D03*
X199677D02*
D03*
X205583D02*
D03*
X229205D02*
D03*
X240932Y169195D02*
D03*
X243311Y163789D02*
D03*
X245270Y158218D02*
D03*
X253712Y149976D02*
D03*
X259460Y148624D02*
D03*
X264407Y145398D02*
D03*
X268583Y141222D02*
D03*
X272759Y137046D02*
D03*
X275658Y125982D02*
D03*
Y120077D02*
D03*
X282339Y120728D02*
D03*
Y126634D02*
D03*
X282277Y132539D02*
D03*
X280504Y138172D02*
D03*
X276626Y142626D02*
D03*
X272451Y146802D02*
D03*
X268275Y150978D02*
D03*
X249964Y164346D02*
D03*
X248658Y170105D02*
D03*
X244848Y174617D02*
D03*
X239340Y176746D02*
D03*
X227530Y176864D02*
D03*
X186191D02*
D03*
X180286D02*
D03*
X174381D02*
D03*
X162569D02*
D03*
X156664D02*
D03*
X150758D02*
D03*
X216240Y178937D02*
D03*
X222539D02*
D03*
X194390Y203346D02*
D03*
X186551Y207972D02*
D03*
X178660Y203346D02*
D03*
X166732Y191535D02*
D03*
Y181299D02*
D03*
X166634Y186417D02*
D03*
X49114Y168209D02*
D03*
X38878D02*
D03*
X147441Y148031D02*
D03*
X173228Y109252D02*
D03*
X74311Y150787D02*
D03*
X74304Y146949D02*
D03*
X87008Y149218D02*
D03*
X85335Y151285D02*
D03*
X85323Y147053D02*
D03*
X62303Y146949D02*
D03*
X56398Y150984D02*
D03*
X62402D02*
D03*
X56271Y146850D02*
D03*
X44291D02*
D03*
X119587Y109252D02*
D03*
X162205Y238114D02*
D03*
Y222441D02*
D03*
X160138Y14665D02*
D03*
X134843Y270079D02*
D03*
X134744Y266535D02*
D03*
X2350Y255394D02*
D03*
Y249882D02*
D03*
X17567Y255295D02*
D03*
Y249882D02*
D03*
X9299D02*
D03*
X327506Y122251D02*
D03*
X121555Y132492D02*
D03*
X116831Y112008D02*
D03*
X258169Y134646D02*
D03*
X260827Y137697D02*
D03*
X263386Y157579D02*
D03*
X258268Y160531D02*
D03*
X100689Y122933D02*
D03*
X100886Y97342D02*
D03*
X142126Y132874D02*
D03*
Y137106D02*
D03*
X131102Y141732D02*
D03*
X124114Y132579D02*
D03*
Y135039D02*
D03*
X137500Y125197D02*
D03*
X124132Y138007D02*
D03*
X142480Y148031D02*
D03*
X152480D02*
D03*
X121573Y138204D02*
D03*
X152461Y117717D02*
D03*
Y121260D02*
D03*
X116929Y109350D02*
D03*
X143701Y99410D02*
D03*
X141831Y96850D02*
D03*
X161713Y104528D02*
D03*
X161732Y99423D02*
D03*
X158563Y101969D02*
D03*
Y96850D02*
D03*
X282214Y111875D02*
D03*
Y115836D02*
D03*
X166732Y114460D02*
D03*
Y106568D02*
D03*
X162106Y124016D02*
D03*
X157874D02*
D03*
X162894Y110531D02*
D03*
X159961Y112205D02*
D03*
X141456Y121176D02*
D03*
X145669Y115354D02*
D03*
X148307Y121161D02*
D03*
X147480Y126772D02*
D03*
X142480D02*
D03*
X152480D02*
D03*
X137480Y148031D02*
D03*
X144606Y121161D02*
D03*
X157776Y142028D02*
D03*
X162795Y134153D02*
D03*
Y138189D02*
D03*
X166732Y138135D02*
D03*
X162008Y130217D02*
D03*
X166732Y130243D02*
D03*
X171752Y120866D02*
D03*
Y100098D02*
D03*
X132874Y13878D02*
D03*
X137500Y171555D02*
D03*
Y177461D02*
D03*
X132874Y16831D02*
D03*
X213871Y109408D02*
D03*
X211312Y106849D02*
D03*
Y109408D02*
D03*
X127165Y101673D02*
D03*
X116929Y104232D02*
D03*
X143012Y109291D02*
D03*
X146555D02*
D03*
X74114Y165157D02*
D03*
X267913Y84646D02*
D03*
X267933Y88187D02*
D03*
X274803Y97146D02*
D03*
X274508Y106102D02*
D03*
X274664Y114161D02*
D03*
X157874Y130217D02*
D03*
X127165Y106791D02*
D03*
Y111909D02*
D03*
X119488Y104232D02*
D03*
X122047Y106791D02*
D03*
X124606Y109350D02*
D03*
X215748Y73721D02*
D03*
X251575Y137795D02*
D03*
X239961D02*
D03*
X126673Y124311D02*
D03*
Y127067D02*
D03*
X118701Y124311D02*
D03*
Y127067D02*
D03*
X162303Y142028D02*
D03*
X132776Y148721D02*
D03*
X129429D02*
D03*
X138583Y109055D02*
D03*
Y115354D02*
D03*
X162205Y227665D02*
D03*
Y232890D02*
D03*
X143701Y56791D02*
D03*
X114567Y50295D02*
D03*
X255143Y158294D02*
D03*
X256190Y164106D02*
D03*
X261722Y167250D02*
D03*
X313118Y66449D02*
D03*
X196949Y55098D02*
D03*
X215748Y58661D02*
D03*
X207874D02*
D03*
X201969Y54724D02*
D03*
Y47539D02*
D03*
X140999Y2953D02*
D03*
X247146Y91634D02*
D03*
X239880Y97330D02*
D03*
Y101267D02*
D03*
X239447Y84978D02*
D03*
X245747D02*
D03*
X49705Y6496D02*
D03*
X145669Y36516D02*
D03*
X299764Y208158D02*
D03*
X265265Y167250D02*
D03*
X103642Y23862D02*
D03*
Y19783D02*
D03*
X145473Y23819D02*
D03*
X255335Y125984D02*
D03*
X188189Y101279D02*
D03*
X181890D02*
D03*
X289370Y198009D02*
D03*
X218504Y67421D02*
D03*
X215748Y68898D02*
D03*
Y71260D02*
D03*
X232434Y132087D02*
D03*
X245688Y106306D02*
D03*
X217717Y82284D02*
D03*
X220472Y79134D02*
D03*
X241732Y93307D02*
D03*
Y90945D02*
D03*
X235433D02*
D03*
Y93307D02*
D03*
X244093Y108661D02*
D03*
X301730Y85234D02*
D03*
Y90352D02*
D03*
X215748Y49803D02*
D03*
Y52756D02*
D03*
Y55709D02*
D03*
X207874Y49803D02*
D03*
Y52756D02*
D03*
Y55709D02*
D03*
X204724Y57480D02*
D03*
X195276Y58661D02*
D03*
X198031Y61417D02*
D03*
X200787Y63779D02*
D03*
X207874Y75394D02*
D03*
Y67520D02*
D03*
Y71457D02*
D03*
X213287Y84842D02*
D03*
Y87992D02*
D03*
X178347Y253543D02*
D03*
Y261417D02*
D03*
X174409Y253543D02*
D03*
X182283Y261417D02*
D03*
X103543Y170866D02*
D03*
X150787Y190551D02*
D03*
X135039D02*
D03*
X154724Y206299D02*
D03*
X138976Y222047D02*
D03*
X131102D02*
D03*
X111417Y190551D02*
D03*
X103543D02*
D03*
X111417Y198425D02*
D03*
X103543Y214173D02*
D03*
X95669D02*
D03*
X87795D02*
D03*
X40551Y198425D02*
D03*
Y206299D02*
D03*
X56299Y214173D02*
D03*
X48425D02*
D03*
X40551D02*
D03*
X52362Y245669D02*
D03*
X44488D02*
D03*
X36614D02*
D03*
X44488Y253543D02*
D03*
X36614D02*
D03*
X44488Y261417D02*
D03*
X36614D02*
D03*
X244488Y78740D02*
D03*
X202362Y75590D02*
D03*
X204921Y71457D02*
D03*
X201969Y85827D02*
D03*
X205906D02*
D03*
X218504Y70079D02*
D03*
X223228Y76378D02*
D03*
X226772Y74803D02*
D03*
X205906Y19291D02*
D03*
X176378Y9449D02*
D03*
X184252D02*
D03*
X194095Y7480D02*
D03*
X109449Y35039D02*
D03*
Y38976D02*
D03*
Y42913D02*
D03*
X113386Y54724D02*
D03*
X109449D02*
D03*
X25394Y92323D02*
D03*
X14961Y76378D02*
D03*
X9055D02*
D03*
X14961Y100000D02*
D03*
X9055D02*
D03*
X53642Y33169D02*
D03*
X46457Y31102D02*
D03*
Y37008D02*
D03*
X38583Y31102D02*
D03*
Y42913D02*
D03*
X22835Y19291D02*
D03*
Y23228D02*
D03*
Y27165D02*
D03*
X50394Y17323D02*
D03*
X42520D02*
D03*
Y11417D02*
D03*
X46457D02*
D03*
X50394D02*
D03*
X85827Y7480D02*
D03*
X154724Y9449D02*
D03*
X146850D02*
D03*
X137008D02*
D03*
X127165D02*
D03*
X73327Y6496D02*
D03*
X81201Y6398D02*
D03*
X41732D02*
D03*
X17815Y20571D02*
D03*
Y26083D02*
D03*
X165748Y62894D02*
D03*
X169882Y62795D02*
D03*
X162894Y118602D02*
D03*
X171752Y142421D02*
D03*
Y114567D02*
D03*
X182185Y266339D02*
D03*
X174213D02*
D03*
X142717D02*
D03*
X44193D02*
D03*
X21063Y250197D02*
D03*
Y255610D02*
D03*
X174539Y58414D02*
D03*
X140521Y37372D02*
D03*
X174125Y37080D02*
D03*
X180512Y52658D02*
D03*
X132892Y23862D02*
D03*
X132936Y29767D02*
D03*
X152658Y38333D02*
D03*
X170375Y38327D02*
D03*
X176148Y39570D02*
D03*
X295360Y78922D02*
D03*
X301573Y78458D02*
D03*
Y72003D02*
D03*
X319010Y90561D02*
D03*
X295360Y85221D02*
D03*
X277658Y91437D02*
D03*
X196063Y65059D02*
D03*
X202559Y67520D02*
D03*
X74213Y156201D02*
D03*
X315567Y153685D02*
D03*
X320685D02*
D03*
X173347Y128263D02*
D03*
X111417Y103543D02*
D03*
X153338Y156102D02*
D03*
X129662D02*
D03*
X121770D02*
D03*
X137500D02*
D03*
X66392Y156201D02*
D03*
X208268Y27461D02*
D03*
X173249Y134759D02*
D03*
X61221Y33268D02*
D03*
X63779Y38484D02*
D03*
X82275Y156201D02*
D03*
X50689Y156201D02*
D03*
X166634Y196653D02*
D03*
X212500Y247307D02*
D03*
X211910Y27479D02*
D03*
X180458Y2953D02*
D03*
X133107D02*
D03*
X73354D02*
D03*
X81245D02*
D03*
X49678D02*
D03*
X41786D02*
D03*
X14370Y93701D02*
D03*
X10236D02*
D03*
X212500Y231496D02*
D03*
Y223631D02*
D03*
X174257Y269882D02*
D03*
X156201Y197441D02*
D03*
X160335Y197485D02*
D03*
X142690Y269882D02*
D03*
X142028Y260464D02*
D03*
Y256594D02*
D03*
X130217Y260630D02*
D03*
Y256398D02*
D03*
X53952Y263506D02*
D03*
X49803Y251882D02*
D03*
X53673D02*
D03*
X49606Y263595D02*
D03*
X83563Y266339D02*
D03*
X83545Y269882D02*
D03*
X75603Y266326D02*
D03*
X75653Y269882D02*
D03*
X44085D02*
D03*
X224410Y67421D02*
D03*
X292323Y154724D02*
D03*
Y150492D02*
D03*
X28445Y263976D02*
D03*
X32677D02*
D03*
X55315Y161024D02*
D03*
Y165256D02*
D03*
X165650Y74803D02*
D03*
X169882D02*
D03*
X91831Y23917D02*
D03*
Y19685D02*
D03*
X68701Y11811D02*
D03*
Y7579D02*
D03*
X21654Y13976D02*
D03*
Y9744D02*
D03*
X10341Y81791D02*
D03*
X14173D02*
D03*
X28346Y184350D02*
D03*
X67028Y161221D02*
D03*
Y165090D02*
D03*
X86024Y161319D02*
D03*
Y165188D02*
D03*
X156398Y185559D02*
D03*
X160267D02*
D03*
X32480Y251969D02*
D03*
X28611D02*
D03*
X28346Y196161D02*
D03*
X24515D02*
D03*
X33563Y10039D02*
D03*
Y13871D02*
D03*
X56791Y7776D02*
D03*
Y11607D02*
D03*
X3051Y104044D02*
D03*
Y96153D02*
D03*
Y88261D02*
D03*
Y80369D02*
D03*
Y72477D02*
D03*
X188350Y2953D02*
D03*
X172566D02*
D03*
X164674D02*
D03*
X156782D02*
D03*
X148890D02*
D03*
X125215D02*
D03*
X117323D02*
D03*
X178660Y207972D02*
D03*
X212500Y255199D02*
D03*
Y239415D02*
D03*
X145446Y156102D02*
D03*
X113878D02*
D03*
X166732Y122352D02*
D03*
Y98676D02*
D03*
Y90784D02*
D03*
Y82892D02*
D03*
X211910Y35370D02*
D03*
X18110Y2953D02*
D03*
X26002D02*
D03*
X33894D02*
D03*
X57570D02*
D03*
X65462D02*
D03*
X89137D02*
D03*
X58599Y156201D02*
D03*
X20410Y269882D02*
D03*
X28302D02*
D03*
X36194D02*
D03*
X51977D02*
D03*
X59869D02*
D03*
X67761D02*
D03*
X91437D02*
D03*
X111122D02*
D03*
X119014D02*
D03*
X126906D02*
D03*
X150582D02*
D03*
X158474D02*
D03*
X166365D02*
D03*
X182149D02*
D03*
X190041D02*
D03*
X197933D02*
D03*
X195571Y113091D02*
D03*
X90174Y33179D02*
D03*
X205315Y46358D02*
D03*
X281693Y150197D02*
D03*
X279429Y152657D02*
D03*
X281693Y155020D02*
D03*
X294749Y167095D02*
D03*
X289196Y171992D02*
D03*
X327165Y199311D02*
D03*
X325197Y197170D02*
D03*
X327506Y174409D02*
D03*
X322230Y173017D02*
D03*
X326944Y179082D02*
D03*
X321231Y180578D02*
D03*
X325197Y201870D02*
D03*
X327495Y170343D02*
D03*
X265945Y136221D02*
D03*
X38878Y175061D02*
D03*
X49114D02*
D03*
X323130Y123031D02*
D03*
X307874Y105807D02*
D03*
X205413Y32677D02*
D03*
X207677Y34547D02*
D03*
X203150D02*
D03*
X207579Y44390D02*
D03*
X203150D02*
D03*
X126374Y120571D02*
D03*
X144980Y174508D02*
D03*
X74606Y201673D02*
D03*
X69193Y199902D02*
D03*
Y203642D02*
D03*
X119488Y111909D02*
D03*
X116831Y96850D02*
D03*
X123130D02*
D03*
X126366Y117717D02*
D03*
X119039D02*
D03*
X104429Y89567D02*
D03*
X104724Y98032D02*
D03*
X111417Y110876D02*
D03*
X108366Y110793D02*
D03*
X111028Y92028D02*
D03*
X114472D02*
D03*
X117913Y92125D02*
D03*
X131595Y92224D02*
D03*
X127657Y92126D02*
D03*
X124213Y92028D02*
D03*
X137520Y121161D02*
D03*
X105644Y117747D02*
D03*
X110126Y117687D02*
D03*
X133661Y118559D02*
D03*
X107961Y115877D02*
D03*
X133661Y112259D02*
D03*
X133688Y107579D02*
D03*
X116929Y101673D02*
D03*
Y106791D02*
D03*
X111024Y98032D02*
D03*
X124606Y104232D02*
D03*
X119090Y120571D02*
D03*
X133688Y101279D02*
D03*
X108268Y103543D02*
D03*
X124606Y101673D02*
D03*
X127165Y104232D02*
D03*
X116241Y149311D02*
D03*
X122540D02*
D03*
X116652Y139877D02*
D03*
Y135054D02*
D03*
X319053Y87793D02*
D03*
Y82675D02*
D03*
X121555Y140169D02*
D03*
X96457Y143307D02*
D03*
X107650Y141679D02*
D03*
X104724D02*
D03*
X113878Y135051D02*
D03*
Y137610D02*
D03*
X116437Y142728D02*
D03*
X118996Y137610D02*
D03*
X107532Y134646D02*
D03*
X104704D02*
D03*
X105750Y127572D02*
D03*
X107950Y129361D02*
D03*
X109930Y127491D02*
D03*
X39046Y145276D02*
D03*
Y140748D02*
D03*
X110138Y168898D02*
D03*
X112500Y170994D02*
D03*
X107944Y170965D02*
D03*
X112500Y180315D02*
D03*
X110236Y182382D02*
D03*
X107972Y180315D02*
D03*
X191116Y134664D02*
D03*
X182756Y134780D02*
D03*
X179055D02*
D03*
X187416Y134664D02*
D03*
X205492Y98819D02*
D03*
X193701Y167736D02*
D03*
X187992Y167618D02*
D03*
X187402Y146063D02*
D03*
X181102Y148031D02*
D03*
Y146063D02*
D03*
X44193Y188681D02*
D03*
X51083Y181102D02*
D03*
X57284Y33169D02*
D03*
X66472Y33232D02*
D03*
X177559Y165748D02*
D03*
X211122Y177067D02*
D03*
X206693Y178543D02*
D03*
X188203Y141929D02*
D03*
X188189Y138878D02*
D03*
X181004Y141929D02*
D03*
X304045Y180565D02*
D03*
X298233Y179521D02*
D03*
X293372Y176167D02*
D03*
X285020Y167816D02*
D03*
X279938Y160227D02*
D03*
X290574Y162919D02*
D03*
X298925Y171270D02*
D03*
X273246Y167310D02*
D03*
X281374Y167669D02*
D03*
X284547Y81791D02*
D03*
X280217Y77264D02*
D03*
X268012Y80742D02*
D03*
X167224Y35335D02*
D03*
X221470Y167717D02*
D03*
X199311Y193602D02*
D03*
X210630Y184055D02*
D03*
X181702Y184934D02*
D03*
X184261Y187493D02*
D03*
X181702Y190052D02*
D03*
X189379Y182375D02*
D03*
X186820Y179816D02*
D03*
X191938D02*
D03*
X189379Y187493D02*
D03*
X191938Y190052D02*
D03*
X222146Y184055D02*
D03*
X276488Y163615D02*
D03*
Y159915D02*
D03*
X234154Y139075D02*
D03*
X230807D02*
D03*
X246871Y74592D02*
D03*
X179724Y62500D02*
D03*
X188203Y107713D02*
D03*
X183203D02*
D03*
X271897Y117618D02*
D03*
X267960Y121063D02*
D03*
X271897Y121161D02*
D03*
X267960Y117520D02*
D03*
X16535Y164862D02*
D03*
X211312Y101731D02*
D03*
X213871Y116334D02*
D03*
X218989Y92425D02*
D03*
Y99172D02*
D03*
X235071Y78782D02*
D03*
X59547Y255610D02*
D03*
Y249311D02*
D03*
X59571Y217351D02*
D03*
Y223650D02*
D03*
X142703Y215969D02*
D03*
X148622Y218898D02*
D03*
X153051Y212598D02*
D03*
X148622Y212598D02*
D03*
X148302Y200984D02*
D03*
X144095Y199606D02*
D03*
X139665Y199508D02*
D03*
X319795Y128141D02*
D03*
X315989Y136476D02*
D03*
X315991Y132395D02*
D03*
X316094Y128141D02*
D03*
X316015Y124499D02*
D03*
X189379Y179816D02*
D03*
X191938Y182375D02*
D03*
X184261Y190052D02*
D03*
X186820Y184934D02*
D03*
X191938D02*
D03*
Y187493D02*
D03*
X181702D02*
D03*
X200570Y186509D02*
D03*
X200367Y178517D02*
D03*
X214961Y152736D02*
D03*
X215109Y167815D02*
D03*
X282951Y71963D02*
D03*
X219965Y147047D02*
D03*
X213666D02*
D03*
X213675Y140865D02*
D03*
X211116Y135747D02*
D03*
Y133188D02*
D03*
X221353D02*
D03*
Y130629D02*
D03*
X218794D02*
D03*
Y121949D02*
D03*
X218701Y124705D02*
D03*
X207283Y124016D02*
D03*
X201969Y119685D02*
D03*
X203024Y144980D02*
D03*
X196725D02*
D03*
X182283Y166535D02*
D03*
X193701Y162736D02*
D03*
X187992Y160630D02*
D03*
Y163898D02*
D03*
X193701Y152736D02*
D03*
X187992Y153543D02*
D03*
X184449D02*
D03*
X187402Y148031D02*
D03*
X188203Y128972D02*
D03*
X183203D02*
D03*
X180925Y138779D02*
D03*
X274036Y91425D02*
D03*
X195571Y106890D02*
D03*
X211116Y138306D02*
D03*
X275984Y171260D02*
D03*
X270925Y171319D02*
D03*
X265925Y177657D02*
D03*
X270925D02*
D03*
X275925D02*
D03*
X280925D02*
D03*
X284646Y179429D02*
D03*
X280925Y198917D02*
D03*
X275925D02*
D03*
X270925D02*
D03*
X286002Y159871D02*
D03*
X286601Y138602D02*
D03*
Y128602D02*
D03*
X310814D02*
D03*
X303708Y125433D02*
D03*
X266910Y125984D02*
D03*
X294025Y92483D02*
D03*
X295304Y100017D02*
D03*
X301730Y82675D02*
D03*
X319097Y75845D02*
D03*
X327801Y79134D02*
D03*
X284016Y208158D02*
D03*
X276142D02*
D03*
X271063Y204134D02*
D03*
X267520D02*
D03*
X268268Y208158D02*
D03*
X260394D02*
D03*
X252520D02*
D03*
X235138Y114987D02*
D03*
X231004Y114961D02*
D03*
X235236Y126476D02*
D03*
X231102D02*
D03*
X231988Y99803D02*
D03*
X228937D02*
D03*
X231988Y106890D02*
D03*
X229038D02*
D03*
X206004Y105610D02*
D03*
X202756Y105598D02*
D03*
X205906Y112697D02*
D03*
X202854D02*
D03*
X212049Y92618D02*
D03*
X205750D02*
D03*
X21161Y164764D02*
D03*
X18802Y166929D02*
D03*
X18799Y153445D02*
D03*
X21063Y155413D02*
D03*
X16535Y155610D02*
D03*
X79626Y195394D02*
D03*
X84483Y174494D02*
D03*
X63223D02*
D03*
Y184494D02*
D03*
Y189494D02*
D03*
X57356Y174494D02*
D03*
X57469Y178559D02*
D03*
Y182260D02*
D03*
Y185646D02*
D03*
Y189297D02*
D03*
X97532Y182378D02*
D03*
X91528Y182496D02*
D03*
X84483Y189494D02*
D03*
X91528Y188795D02*
D03*
X102165Y206594D02*
D03*
X85827Y205276D02*
D03*
X91339Y195709D02*
D03*
X96850Y205276D02*
D03*
X80807Y206496D02*
D03*
X53150Y200394D02*
D03*
X58563Y207382D02*
D03*
X53150Y206693D02*
D03*
X46949Y206299D02*
D03*
X119278Y21151D02*
D03*
X122961Y21063D02*
D03*
X123814Y80216D02*
D03*
X131398Y80315D02*
D03*
X127657Y80315D02*
D03*
X118498Y80118D02*
D03*
X110728D02*
D03*
X114472Y80216D02*
D03*
X97736Y80905D02*
D03*
X91437D02*
D03*
X104429Y83268D02*
D03*
X193110Y215846D02*
D03*
X187078Y215926D02*
D03*
X28760Y81004D02*
D03*
X22146D02*
D03*
X25394D02*
D03*
X21921Y92323D02*
D03*
X120509Y61140D02*
D03*
X146686Y256967D02*
D03*
Y261297D02*
D03*
X204508Y222661D02*
D03*
X187795Y223721D02*
D03*
X178417Y216713D02*
D03*
X182480Y216732D02*
D03*
X149442Y246337D02*
D03*
X156867Y254257D02*
D03*
X169783Y260796D02*
D03*
Y264665D02*
D03*
X157874Y262594D02*
D03*
X149442Y252636D02*
D03*
X150229Y256967D02*
D03*
Y261297D02*
D03*
X140354Y19783D02*
D03*
Y13878D02*
D03*
X154724Y56791D02*
D03*
X166339Y55807D02*
D03*
X114272Y74902D02*
D03*
X101645Y61140D02*
D03*
X65158Y75000D02*
D03*
X88189Y74016D02*
D03*
X43209Y66678D02*
D03*
X40059D02*
D03*
X54419Y62106D02*
D03*
X114241Y61140D02*
D03*
X160039Y55807D02*
D03*
X136614Y15748D02*
D03*
X244646Y208158D02*
D03*
X276476Y78150D02*
D03*
X159350Y45768D02*
D03*
X163248Y37697D02*
D03*
X309724Y188386D02*
D03*
X80990Y51195D02*
D03*
X72211Y52362D02*
D03*
Y45276D02*
D03*
X80990Y46274D02*
D03*
X72146Y48819D02*
D03*
X78445Y52362D02*
D03*
Y45177D02*
D03*
X75328D02*
D03*
Y52362D02*
D03*
X66719Y51195D02*
D03*
X69095Y52362D02*
D03*
Y45177D02*
D03*
X78445Y48819D02*
D03*
X75328D02*
D03*
X69095D02*
D03*
X66719Y46274D02*
D03*
X93012Y38386D02*
D03*
X96555D02*
D03*
X69676Y29531D02*
D03*
X48219Y62205D02*
D03*
X90167Y30488D02*
D03*
X85020Y33232D02*
D03*
X86024Y24902D02*
D03*
Y21358D02*
D03*
X81184Y29531D02*
D03*
X81595Y23917D02*
D03*
X77461D02*
D03*
X85040Y38366D02*
D03*
X88760Y38386D02*
D03*
X85020Y29531D02*
D03*
X77348Y33232D02*
D03*
X81184D02*
D03*
X73514Y24766D02*
D03*
X77348Y29531D02*
D03*
X73512Y33232D02*
D03*
X73514Y29529D02*
D03*
X68701Y16732D02*
D03*
Y20768D02*
D03*
X63871Y24606D02*
D03*
X161122Y31102D02*
D03*
X154823D02*
D03*
X149016Y23819D02*
D03*
X149409Y28445D02*
D03*
Y32745D02*
D03*
X149213Y36516D02*
D03*
X108268Y68110D02*
D03*
X100984Y67028D02*
D03*
X114272Y67421D02*
D03*
X130709Y64173D02*
D03*
Y70473D02*
D03*
X124902Y71161D02*
D03*
X107944Y61140D02*
D03*
X100984Y74114D02*
D03*
X82677Y72894D02*
D03*
X88189Y63327D02*
D03*
X76772Y60256D02*
D03*
X65158Y67520D02*
D03*
Y71260D02*
D03*
X54528Y75000D02*
D03*
X48917Y74311D02*
D03*
Y68012D02*
D03*
X115953Y28287D02*
D03*
X110630Y27854D02*
D03*
X123567Y237882D02*
D03*
X284646Y175886D02*
D03*
X199193Y98816D02*
D03*
X225295Y90354D02*
D03*
Y94291D02*
D03*
X221548Y101731D02*
D03*
X211312Y104290D02*
D03*
X218989Y106849D02*
D03*
X213871D02*
D03*
X211312Y99172D02*
D03*
X213871Y101731D02*
D03*
X218989D02*
D03*
X221548Y99172D02*
D03*
X216430Y109408D02*
D03*
X221548Y104290D02*
D03*
Y109408D02*
D03*
X216430Y104290D02*
D03*
X220079Y116425D02*
D03*
X226476Y121850D02*
D03*
X226529Y124902D02*
D03*
X211116Y130629D02*
D03*
X218996Y141079D02*
D03*
X218794Y135747D02*
D03*
X195669Y119685D02*
D03*
X213583Y124016D02*
D03*
X202702Y134110D02*
D03*
X69355Y207382D02*
D03*
X64828Y194685D02*
D03*
X74508Y206496D02*
D03*
X58465Y199803D02*
D03*
X58465Y194685D02*
D03*
X46949Y199213D02*
D03*
X46161Y182283D02*
D03*
X42323Y182382D02*
D03*
X100197Y200394D02*
D03*
X104134Y200295D02*
D03*
X270669Y78150D02*
D03*
X288296Y85913D02*
D03*
X296949Y107103D02*
D03*
X293602D02*
D03*
X214961Y157736D02*
D03*
Y162736D02*
D03*
X310814Y138602D02*
D03*
X319716Y124499D02*
D03*
X319535Y132395D02*
D03*
X319533Y136476D02*
D03*
X178417Y213170D02*
D03*
X182480Y213189D02*
D03*
X124606Y260647D02*
D03*
X112992D02*
D03*
X102190Y223847D02*
D03*
X90575D02*
D03*
X185728Y241437D02*
D03*
X185759Y247744D02*
D03*
Y235263D02*
D03*
X175984Y223721D02*
D03*
X187992Y156929D02*
D03*
X193701Y157736D02*
D03*
X180523Y159646D02*
D03*
X141240Y174508D02*
D03*
X84483Y179493D02*
D03*
Y184494D02*
D03*
X79626Y199094D02*
D03*
X74606Y195374D02*
D03*
X113567Y237882D02*
D03*
X108568Y228937D02*
D03*
X113659Y229035D02*
D03*
X118568Y228867D02*
D03*
Y220048D02*
D03*
X113567D02*
D03*
X108568D02*
D03*
X153051Y216142D02*
D03*
X148302Y197441D02*
D03*
X144095Y187911D02*
D03*
X139469D02*
D03*
X121752Y197878D02*
D03*
X126919Y197835D02*
D03*
X131890Y197933D02*
D03*
X115867Y197878D02*
D03*
X97532Y188677D02*
D03*
X63223Y179493D02*
D03*
X202702Y126925D02*
D03*
X199873D02*
D03*
X178203Y107713D02*
D03*
Y128972D02*
D03*
X79921Y212303D02*
D03*
X66490Y217056D02*
D03*
X89370Y250590D02*
D03*
X89468Y254626D02*
D03*
X84611Y245698D02*
D03*
X88508D02*
D03*
X92406D02*
D03*
X88508Y237627D02*
D03*
X78790Y232017D02*
D03*
Y243434D02*
D03*
X71875Y242105D02*
D03*
Y233345D02*
D03*
X64959Y232017D02*
D03*
Y243434D02*
D03*
X160138Y24213D02*
D03*
Y19193D02*
D03*
Y9154D02*
D03*
X136614Y18898D02*
D03*
X137795Y28346D02*
D03*
Y32697D02*
D03*
X216234Y138306D02*
D03*
X181702Y182375D02*
D03*
X288896Y105089D02*
D03*
Y108309D02*
D03*
X253955Y119968D02*
D03*
X221353Y138306D02*
D03*
X213675Y135747D02*
D03*
X211116Y140865D02*
D03*
X216234Y133188D02*
D03*
X250197Y81595D02*
D03*
X260531D02*
D03*
X71260Y62205D02*
D03*
X76772Y63957D02*
D03*
X39046Y131582D02*
D03*
Y135716D02*
D03*
Y126279D02*
D03*
Y122146D02*
D03*
X51863Y188098D02*
D03*
X53827Y174508D02*
D03*
X173223Y138165D02*
D03*
X202165Y241504D02*
D03*
X71161Y68504D02*
D03*
X88189Y67716D02*
D03*
X159941Y59961D02*
D03*
X136122Y48622D02*
D03*
X136024Y53543D02*
D03*
X123314Y9422D02*
D03*
X118983Y9350D02*
D03*
X115453Y17913D02*
D03*
X110635Y14075D02*
D03*
Y17618D02*
D03*
X115453Y21457D02*
D03*
X110635Y21551D02*
D03*
X124902Y67421D02*
D03*
X124803Y75000D02*
D03*
X26673Y141043D02*
D03*
Y144882D02*
D03*
X23720Y115059D02*
D03*
X38007Y114961D02*
D03*
X38681Y90158D02*
D03*
X30708Y114961D02*
D03*
X26673Y126279D02*
D03*
Y122146D02*
D03*
Y135716D02*
D03*
Y131582D02*
D03*
X59832Y62205D02*
D03*
X192815Y35925D02*
D03*
X198031D02*
D03*
X197992Y44902D02*
D03*
X187992Y35925D02*
D03*
Y44902D02*
D03*
X182894Y27067D02*
D03*
X187992D02*
D03*
X192992D02*
D03*
X61211Y29531D02*
D03*
X66394D02*
D03*
X69676Y33232D02*
D03*
X264567Y171260D02*
D03*
X282283D02*
D03*
X159350Y37697D02*
D03*
X155453D02*
D03*
X101978Y30882D02*
D03*
Y34425D02*
D03*
X81391Y11811D02*
D03*
X77559D02*
D03*
X57087Y16929D02*
D03*
Y20472D02*
D03*
X60328Y24606D02*
D03*
X73517Y21220D02*
D03*
X108268Y74410D02*
D03*
X54528Y67520D02*
D03*
X66230Y62106D02*
D03*
X93760Y72894D02*
D03*
X40157Y73819D02*
D03*
X246573Y101267D02*
D03*
X319097Y79388D02*
D03*
X301730Y87793D02*
D03*
X286002Y163572D02*
D03*
X225387Y132087D02*
D03*
X287321Y100337D02*
D03*
X258091Y114358D02*
D03*
X246573Y97330D02*
D03*
X199606Y134055D02*
D03*
X256713Y105598D02*
D03*
X261043D02*
D03*
X265374D02*
D03*
X256713Y101267D02*
D03*
X261043D02*
D03*
X265374D02*
D03*
X256713Y96937D02*
D03*
X261043D02*
D03*
X265374D02*
D03*
X273562Y68223D02*
D03*
Y82002D02*
D03*
Y75112D02*
D03*
D212*
X134227Y235211D02*
D03*
X140380Y241364D02*
D03*
X56391Y43865D02*
D03*
X51863D02*
D03*
X56391Y53393D02*
D03*
X51863D02*
D03*
X95669Y43865D02*
D03*
X91142D02*
D03*
X95669Y53393D02*
D03*
X91142D02*
D03*
X47763Y234970D02*
D03*
X51231Y237880D02*
D03*
X53887Y227671D02*
D03*
X57355Y230582D02*
D03*
D219*
X56102Y82396D02*
D03*
D220*
X186663Y69193D02*
D03*
X148918Y68405D02*
D03*
D221*
X86811Y129232D02*
D03*
X80905D02*
D03*
D222*
X92323Y134055D02*
D03*
Y139961D02*
D03*
M02*
