G04*
G04 #@! TF.GenerationSoftware,Altium Limited,Altium Designer,19.0.15 (446)*
G04*
G04 Layer_Physical_Order=8*
G04 Layer_Color=16711680*
%FSLAX25Y25*%
%MOIN*%
G70*
G01*
G75*
%ADD10R,0.03543X0.03937*%
%ADD11R,0.03937X0.03543*%
%ADD12R,0.02441X0.02284*%
%ADD14R,0.03740X0.03937*%
%ADD16R,0.02441X0.02441*%
%ADD25R,0.04528X0.07087*%
%ADD26R,0.07087X0.04528*%
%ADD37R,0.02441X0.02441*%
%ADD41R,0.03937X0.03740*%
%ADD58R,0.03150X0.01181*%
%ADD75R,0.04134X0.08661*%
%ADD76R,0.03937X0.04134*%
%ADD79R,0.08661X0.04134*%
%ADD80R,0.04134X0.03937*%
%ADD180C,0.00945*%
%ADD183C,0.00945*%
%ADD186C,0.00787*%
%ADD188C,0.01181*%
%ADD189C,0.01968*%
%ADD191C,0.02756*%
%ADD195C,0.01000*%
%ADD205C,0.13780*%
%ADD206C,0.07874*%
%ADD207C,0.08858*%
%ADD208C,0.17323*%
%ADD209C,0.06693*%
%ADD210R,0.06693X0.06693*%
%ADD211C,0.01968*%
%ADD212C,0.02362*%
%ADD219R,0.06890X0.09646*%
%ADD220R,0.01968X0.04724*%
%ADD221R,0.03740X0.03740*%
%ADD222R,0.03740X0.03740*%
G36*
X89863Y256000D02*
X61076D01*
X61031Y256225D01*
X60683Y256746D01*
X60162Y257094D01*
X59547Y257216D01*
X58933Y257094D01*
X58412Y256746D01*
X58064Y256225D01*
X58019Y256000D01*
X22165D01*
Y267963D01*
X89863D01*
Y256000D01*
D02*
G37*
G36*
X195965Y255901D02*
X151941D01*
X151747Y256265D01*
X151722Y256401D01*
X151835Y256967D01*
X151712Y257581D01*
X151364Y258102D01*
X150843Y258450D01*
X150229Y258572D01*
X149615Y258450D01*
X149094Y258102D01*
X148746Y257581D01*
X148623Y256967D01*
X148736Y256401D01*
X148711Y256265D01*
X148517Y255901D01*
X132117D01*
X131800Y256288D01*
X131822Y256398D01*
X131700Y257012D01*
X131352Y257533D01*
X130831Y257881D01*
X130217Y258003D01*
X129602Y257881D01*
X129081Y257533D01*
X128733Y257012D01*
X128611Y256398D01*
X128633Y256288D01*
X128316Y255901D01*
X111319D01*
Y267963D01*
X195965D01*
Y255901D01*
D02*
G37*
G36*
X106438Y253425D02*
X104703Y251691D01*
X102968Y253425D01*
X104703Y255160D01*
X106438Y253425D01*
D02*
G37*
G36*
X143938Y250925D02*
X142203Y249191D01*
X140468Y250925D01*
X141273Y251730D01*
X142028Y251631D01*
X143092Y251771D01*
X143938Y250925D01*
D02*
G37*
G36*
X128938D02*
X127203Y249191D01*
X125468Y250925D01*
X126473Y251930D01*
X127933D01*
X128938Y250925D01*
D02*
G37*
G36*
X138938D02*
X137203Y249191D01*
X135468Y250925D01*
X136473Y251930D01*
X137933D01*
X138938Y250925D01*
D02*
G37*
G36*
X98938D02*
X97203Y249191D01*
X95468Y250925D01*
X97203Y252660D01*
X98938Y250925D01*
D02*
G37*
G36*
X168938D02*
X167203Y249191D01*
X165468Y250925D01*
X166473Y251930D01*
X167933D01*
X168938Y250925D01*
D02*
G37*
G36*
X118938D02*
X117203Y249191D01*
X115468Y250925D01*
X116473Y251930D01*
X117933D01*
X118938Y250925D01*
D02*
G37*
G36*
X103938D02*
X102203Y249191D01*
X100468Y250925D01*
X102203Y252660D01*
X103938Y250925D01*
D02*
G37*
G36*
X123938D02*
X122203Y249191D01*
X120468Y250925D01*
X121473Y251930D01*
X122933D01*
X123938Y250925D01*
D02*
G37*
G36*
X108938D02*
X107203Y249191D01*
X105468Y250925D01*
X107203Y252660D01*
X108938Y250925D01*
D02*
G37*
G36*
X163938D02*
X162203Y249191D01*
X160494Y250900D01*
X160664Y251121D01*
X161473Y251930D01*
X162933D01*
X163938Y250925D01*
D02*
G37*
G36*
X113938D02*
X112203Y249191D01*
X110468Y250925D01*
X111473Y251930D01*
X112933D01*
X113938Y250925D01*
D02*
G37*
G36*
X133938D02*
X132203Y249191D01*
X130468Y250925D01*
X131092Y251549D01*
X131501Y251603D01*
X132291Y251930D01*
X132933D01*
X133938Y250925D01*
D02*
G37*
G36*
X206201Y268602D02*
X18996D01*
Y248917D01*
X1000D01*
Y271343D01*
X206201D01*
Y268602D01*
D02*
G37*
G36*
X171438Y248425D02*
X169703Y246691D01*
X167968Y248425D01*
X169703Y250160D01*
X171438Y248425D01*
D02*
G37*
G36*
X121438D02*
X119703Y246691D01*
X117968Y248425D01*
X119703Y250160D01*
X121438Y248425D01*
D02*
G37*
G36*
X101438D02*
X99703Y246691D01*
X97968Y248425D01*
X99703Y250160D01*
X101438Y248425D01*
D02*
G37*
G36*
X141438D02*
X139703Y246691D01*
X137968Y248425D01*
X139703Y250160D01*
X141438Y248425D01*
D02*
G37*
G36*
X131438D02*
X129703Y246691D01*
X127968Y248425D01*
X129703Y250160D01*
X131438Y248425D01*
D02*
G37*
G36*
X126438D02*
X124703Y246691D01*
X122968Y248425D01*
X124703Y250160D01*
X126438Y248425D01*
D02*
G37*
G36*
X155272Y249590D02*
X156438Y248425D01*
X154703Y246691D01*
X154306Y247087D01*
X154236Y247621D01*
X153740Y248819D01*
X153576Y249033D01*
X154467Y249924D01*
X155272Y249590D01*
D02*
G37*
G36*
X106438Y248425D02*
X104703Y246691D01*
X102968Y248425D01*
X104703Y250160D01*
X106438Y248425D01*
D02*
G37*
G36*
X136438D02*
X134703Y246691D01*
X132968Y248425D01*
X134703Y250160D01*
X136438Y248425D01*
D02*
G37*
G36*
X161438D02*
X159703Y246691D01*
X157968Y248425D01*
X159703Y250160D01*
X161438Y248425D01*
D02*
G37*
G36*
X111438D02*
X109703Y246691D01*
X107968Y248425D01*
X109703Y250160D01*
X111438Y248425D01*
D02*
G37*
G36*
X166438D02*
X164703Y246691D01*
X162968Y248425D01*
X164703Y250160D01*
X166438Y248425D01*
D02*
G37*
G36*
X116438D02*
X114703Y246691D01*
X112968Y248425D01*
X114703Y250160D01*
X116438Y248425D01*
D02*
G37*
G36*
X173938Y245925D02*
X172203Y244191D01*
X170468Y245925D01*
X172203Y247660D01*
X173938Y245925D01*
D02*
G37*
G36*
X123938D02*
X122203Y244191D01*
X120468Y245925D01*
X122203Y247660D01*
X123938Y245925D01*
D02*
G37*
G36*
X103938D02*
X102203Y244191D01*
X100468Y245925D01*
X102203Y247660D01*
X103938Y245925D01*
D02*
G37*
G36*
X192155Y247080D02*
X192258Y246947D01*
X193286Y246158D01*
X193496Y246071D01*
X193593Y245581D01*
X192203Y244191D01*
X190468Y245925D01*
X191656Y247113D01*
X192155Y247080D01*
D02*
G37*
G36*
X133938Y245925D02*
X132203Y244191D01*
X130468Y245925D01*
X132203Y247660D01*
X133938Y245925D01*
D02*
G37*
G36*
X168938D02*
X167203Y244191D01*
X165468Y245925D01*
X167203Y247660D01*
X168938Y245925D01*
D02*
G37*
G36*
X118938D02*
X117203Y244191D01*
X115468Y245925D01*
X117203Y247660D01*
X118938Y245925D01*
D02*
G37*
G36*
X108938D02*
X107203Y244191D01*
X105468Y245925D01*
X107203Y247660D01*
X108938Y245925D01*
D02*
G37*
G36*
X158938D02*
X157203Y244191D01*
X155468Y245925D01*
X157203Y247660D01*
X158938Y245925D01*
D02*
G37*
G36*
X163938D02*
X162203Y244191D01*
X160468Y245925D01*
X162203Y247660D01*
X163938Y245925D01*
D02*
G37*
G36*
X113938D02*
X112203Y244191D01*
X110468Y245925D01*
X112203Y247660D01*
X113938Y245925D01*
D02*
G37*
G36*
X128938D02*
X127203Y244191D01*
X125468Y245925D01*
X127203Y247660D01*
X128938Y245925D01*
D02*
G37*
G36*
X178938D02*
X177203Y244191D01*
X175468Y245925D01*
X177203Y247660D01*
X178938Y245925D01*
D02*
G37*
G36*
X116438Y243425D02*
X115444Y242432D01*
X114852Y242677D01*
X113567Y242846D01*
X113550Y242844D01*
X112968Y243425D01*
X114703Y245160D01*
X116438Y243425D01*
D02*
G37*
G36*
X126438D02*
X125444Y242432D01*
X124852Y242677D01*
X123567Y242846D01*
X123550Y242844D01*
X122968Y243425D01*
X124703Y245160D01*
X126438Y243425D01*
D02*
G37*
G36*
X166438D02*
X165105Y242092D01*
X164687Y242413D01*
X163489Y242909D01*
X163484Y242910D01*
X162968Y243425D01*
X164703Y245160D01*
X166438Y243425D01*
D02*
G37*
G36*
X161438D02*
X160921Y242909D01*
X160920Y242909D01*
X159723Y242413D01*
X159303Y242091D01*
X157968Y243425D01*
X159703Y245160D01*
X161438Y243425D01*
D02*
G37*
G36*
X135913Y243950D02*
X135909Y243945D01*
X135393Y242700D01*
X135345Y242332D01*
X134703Y241691D01*
X132968Y243425D01*
X134703Y245160D01*
X135913Y243950D01*
D02*
G37*
G36*
X101438Y243425D02*
X99703Y241691D01*
X97968Y243425D01*
X99703Y245160D01*
X101438Y243425D01*
D02*
G37*
G36*
X156438D02*
X154703Y241691D01*
X153219Y243175D01*
X153740Y243855D01*
X153982Y244439D01*
X154703Y245160D01*
X156438Y243425D01*
D02*
G37*
G36*
X106438D02*
X104703Y241691D01*
X102968Y243425D01*
X104703Y245160D01*
X106438Y243425D01*
D02*
G37*
G36*
X176438D02*
X174703Y241691D01*
X172968Y243425D01*
X174703Y245160D01*
X176438Y243425D01*
D02*
G37*
G36*
X196438D02*
X194703Y241691D01*
X192968Y243425D01*
X194703Y245160D01*
X196438Y243425D01*
D02*
G37*
G36*
X171438D02*
X169703Y241691D01*
X167968Y243425D01*
X169703Y245160D01*
X171438Y243425D01*
D02*
G37*
G36*
X121438D02*
X119703Y241691D01*
X117968Y243425D01*
X119703Y245160D01*
X121438Y243425D01*
D02*
G37*
G36*
X111438D02*
X109703Y241691D01*
X107968Y243425D01*
X109703Y245160D01*
X111438Y243425D01*
D02*
G37*
G36*
X181287Y243575D02*
X181075Y243062D01*
X179703Y241691D01*
X177968Y243425D01*
X179703Y245160D01*
X181287Y243575D01*
D02*
G37*
G36*
X131438Y243425D02*
X129703Y241691D01*
X127968Y243425D01*
X129703Y245160D01*
X131438Y243425D01*
D02*
G37*
G36*
X133938Y240925D02*
X133258Y240246D01*
X132891Y240197D01*
X131693Y239701D01*
X130468Y240925D01*
X132203Y242660D01*
X133938Y240925D01*
D02*
G37*
G36*
X168938D02*
X167488Y239476D01*
X167410Y239464D01*
X166913Y239608D01*
X166503Y240596D01*
X165911Y241368D01*
X167203Y242660D01*
X168938Y240925D01*
D02*
G37*
G36*
X158497Y241366D02*
X157906Y240596D01*
X157495Y239605D01*
X157002Y239461D01*
X156920Y239474D01*
X155468Y240925D01*
X157203Y242660D01*
X158497Y241366D01*
D02*
G37*
G36*
X103938Y240925D02*
X102203Y239191D01*
X100468Y240925D01*
X102203Y242660D01*
X103938Y240925D01*
D02*
G37*
G36*
X153938D02*
X152203Y239191D01*
X150468Y240925D01*
X151339Y241796D01*
X151924Y242038D01*
X152433Y242429D01*
X153938Y240925D01*
D02*
G37*
G36*
X108938D02*
X107203Y239191D01*
X105468Y240925D01*
X107203Y242660D01*
X108938Y240925D01*
D02*
G37*
G36*
X58938D02*
X57203Y239191D01*
X55468Y240925D01*
X57203Y242660D01*
X58938Y240925D01*
D02*
G37*
G36*
X178938D02*
X177203Y239191D01*
X175468Y240925D01*
X177203Y242660D01*
X178938Y240925D01*
D02*
G37*
G36*
X193938D02*
X192203Y239191D01*
X190606Y240787D01*
X190648Y241105D01*
X192203Y242660D01*
X193938Y240925D01*
D02*
G37*
G36*
X146960Y242038D02*
X148157Y241542D01*
X148345Y241517D01*
X148938Y240925D01*
X147203Y239191D01*
X145482Y240911D01*
X145486Y240943D01*
X146746Y242202D01*
X146960Y242038D01*
D02*
G37*
G36*
X98938Y240925D02*
X97203Y239191D01*
X95468Y240925D01*
X97203Y242660D01*
X98938Y240925D01*
D02*
G37*
G36*
X173938D02*
X172203Y239191D01*
X170468Y240925D01*
X172203Y242660D01*
X173938Y240925D01*
D02*
G37*
G36*
X61438Y238425D02*
X59703Y236691D01*
X57968Y238425D01*
X59703Y240160D01*
X61438Y238425D01*
D02*
G37*
G36*
X156438D02*
X154703Y236691D01*
X152968Y238425D01*
X154703Y240160D01*
X156438Y238425D01*
D02*
G37*
G36*
X106438D02*
X104703Y236691D01*
X102968Y238425D01*
X104703Y240160D01*
X106438Y238425D01*
D02*
G37*
G36*
X181438D02*
X179703Y236691D01*
X177968Y238425D01*
X179703Y240160D01*
X181438Y238425D01*
D02*
G37*
G36*
X96438D02*
X94703Y236691D01*
X93427Y237966D01*
X93321Y238778D01*
X94703Y240160D01*
X96438Y238425D01*
D02*
G37*
G36*
X196438D02*
X194703Y236691D01*
X192968Y238425D01*
X194703Y240160D01*
X196438Y238425D01*
D02*
G37*
G36*
X151438D02*
X149703Y236691D01*
X147968Y238425D01*
X149703Y240160D01*
X151438Y238425D01*
D02*
G37*
G36*
X101438D02*
X99703Y236691D01*
X97968Y238425D01*
X99703Y240160D01*
X101438Y238425D01*
D02*
G37*
G36*
X171438D02*
X169703Y236691D01*
X167968Y238425D01*
X169703Y240160D01*
X171438Y238425D01*
D02*
G37*
G36*
X176438D02*
X174703Y236691D01*
X172968Y238425D01*
X174703Y240160D01*
X176438Y238425D01*
D02*
G37*
G36*
X153938Y235925D02*
X152203Y234191D01*
X150468Y235925D01*
X152203Y237660D01*
X153938Y235925D01*
D02*
G37*
G36*
X103938D02*
X102203Y234191D01*
X100468Y235925D01*
X102203Y237660D01*
X103938Y235925D01*
D02*
G37*
G36*
X108938D02*
X107203Y234191D01*
X105468Y235925D01*
X107203Y237660D01*
X108938Y235925D01*
D02*
G37*
G36*
X178938D02*
X177203Y234191D01*
X175468Y235925D01*
X177203Y237660D01*
X178938Y235925D01*
D02*
G37*
G36*
X193938D02*
X192203Y234191D01*
X190661Y235733D01*
X190616Y236073D01*
X192203Y237660D01*
X193938Y235925D01*
D02*
G37*
G36*
X143938D02*
X142203Y234191D01*
X140548Y235846D01*
X140839Y236262D01*
X141716Y236377D01*
X142961Y236893D01*
X142966Y236897D01*
X143938Y235925D01*
D02*
G37*
G36*
X198938D02*
X197203Y234191D01*
X195468Y235925D01*
X197203Y237660D01*
X198938Y235925D01*
D02*
G37*
G36*
X148938D02*
X147203Y234191D01*
X145468Y235925D01*
X147203Y237660D01*
X148938Y235925D01*
D02*
G37*
G36*
X98938D02*
X97203Y234191D01*
X95468Y235925D01*
X97203Y237660D01*
X98938Y235925D01*
D02*
G37*
G36*
X173938D02*
X172203Y234191D01*
X170468Y235925D01*
X172203Y237660D01*
X173938Y235925D01*
D02*
G37*
G36*
X106086Y233777D02*
X106086Y233532D01*
X105992Y233164D01*
X105058Y232447D01*
X104806Y232119D01*
X104307Y232086D01*
X102968Y233425D01*
X104703Y235160D01*
X106086Y233777D01*
D02*
G37*
G36*
X201438Y233425D02*
X200771Y232758D01*
X199785Y232350D01*
X199365Y232028D01*
X197968Y233425D01*
X199703Y235160D01*
X201438Y233425D01*
D02*
G37*
G36*
X151438D02*
X149703Y231691D01*
X147968Y233425D01*
X149703Y235160D01*
X151438Y233425D01*
D02*
G37*
G36*
X101438D02*
X99703Y231691D01*
X97968Y233425D01*
X99703Y235160D01*
X101438Y233425D01*
D02*
G37*
G36*
X156438D02*
X154703Y231691D01*
X152968Y233425D01*
X154703Y235160D01*
X156438Y233425D01*
D02*
G37*
G36*
X176438D02*
X174703Y231691D01*
X172968Y233425D01*
X174703Y235160D01*
X176438Y233425D01*
D02*
G37*
G36*
X141438D02*
X139703Y231691D01*
X138717Y232677D01*
X139213Y233875D01*
X139334Y234791D01*
X139703Y235160D01*
X141438Y233425D01*
D02*
G37*
G36*
X146438D02*
X144703Y231691D01*
X142968Y233425D01*
X144703Y235160D01*
X146438Y233425D01*
D02*
G37*
G36*
X96438D02*
X94703Y231691D01*
X92968Y233425D01*
X94703Y235160D01*
X96438Y233425D01*
D02*
G37*
G36*
X171438D02*
X169703Y231691D01*
X167968Y233425D01*
X169703Y235160D01*
X171438Y233425D01*
D02*
G37*
G36*
X181021Y233842D02*
X181265Y233253D01*
X179703Y231691D01*
X177968Y233425D01*
X179703Y235160D01*
X181021Y233842D01*
D02*
G37*
G36*
X173938Y230925D02*
X172203Y229191D01*
X170468Y230925D01*
X172203Y232660D01*
X173938Y230925D01*
D02*
G37*
G36*
X148938D02*
X147203Y229191D01*
X145468Y230925D01*
X147203Y232660D01*
X148938Y230925D01*
D02*
G37*
G36*
X98938D02*
X97203Y229191D01*
X95468Y230925D01*
X97203Y232660D01*
X98938Y230925D01*
D02*
G37*
G36*
X153938D02*
X152203Y229191D01*
X150468Y230925D01*
X152203Y232660D01*
X153938Y230925D01*
D02*
G37*
G36*
X103938D02*
X102203Y229191D01*
X100468Y230925D01*
X102203Y232660D01*
X103938Y230925D01*
D02*
G37*
G36*
X88938D02*
X87203Y229191D01*
X85468Y230925D01*
X87203Y232660D01*
X88938Y230925D01*
D02*
G37*
G36*
X143938D02*
X142203Y229191D01*
X140468Y230925D01*
X142203Y232660D01*
X143938Y230925D01*
D02*
G37*
G36*
X93938D02*
X92203Y229191D01*
X90468Y230925D01*
X92203Y232660D01*
X93938Y230925D01*
D02*
G37*
G36*
X43938D02*
X42203Y229191D01*
X40468Y230925D01*
X42203Y232660D01*
X43938Y230925D01*
D02*
G37*
G36*
X178938D02*
X177203Y229191D01*
X175468Y230925D01*
X177203Y232660D01*
X178938Y230925D01*
D02*
G37*
G36*
X128938D02*
X127203Y229191D01*
X125468Y230925D01*
X127203Y232660D01*
X128938Y230925D01*
D02*
G37*
G36*
X186077Y228786D02*
X185980Y228295D01*
X185313Y228019D01*
X184285Y227230D01*
X184171Y227223D01*
X182968Y228425D01*
X184703Y230160D01*
X186077Y228786D01*
D02*
G37*
G36*
X181438Y228425D02*
X180087Y227075D01*
X179588Y227108D01*
X179494Y227230D01*
X178466Y228019D01*
X178309Y228084D01*
X177968Y228425D01*
X179703Y230160D01*
X181438Y228425D01*
D02*
G37*
G36*
X131438D02*
X130026Y227014D01*
X129414Y226979D01*
X127968Y228425D01*
X129703Y230160D01*
X131438Y228425D01*
D02*
G37*
G36*
X141438D02*
X139902Y226889D01*
X139444Y226949D01*
X137968Y228425D01*
X139703Y230160D01*
X141438Y228425D01*
D02*
G37*
G36*
X171438D02*
X169703Y226691D01*
X167968Y228425D01*
X169703Y230160D01*
X171438Y228425D01*
D02*
G37*
G36*
X151438D02*
X149703Y226691D01*
X147968Y228425D01*
X149703Y230160D01*
X151438Y228425D01*
D02*
G37*
G36*
X146438D02*
X144703Y226691D01*
X142968Y228425D01*
X144703Y230160D01*
X146438Y228425D01*
D02*
G37*
G36*
X96438D02*
X94703Y226691D01*
X94247Y227147D01*
X94085Y227357D01*
X93875Y227518D01*
X92968Y228425D01*
X94703Y230160D01*
X96438Y228425D01*
D02*
G37*
G36*
X46438D02*
X44703Y226691D01*
X42968Y228425D01*
X44703Y230160D01*
X46438Y228425D01*
D02*
G37*
G36*
X126438D02*
X124703Y226691D01*
X123414Y227979D01*
X123531Y228867D01*
X123517Y228974D01*
X124703Y230160D01*
X126438Y228425D01*
D02*
G37*
G36*
X156438D02*
X154703Y226691D01*
X152968Y228425D01*
X154703Y230160D01*
X156438Y228425D01*
D02*
G37*
G36*
X86438D02*
X84703Y226691D01*
X82968Y228425D01*
X84703Y230160D01*
X86438Y228425D01*
D02*
G37*
G36*
X136438D02*
X134703Y226691D01*
X132968Y228425D01*
X134647Y230104D01*
X134746Y230117D01*
X136438Y228425D01*
D02*
G37*
G36*
X43938Y225925D02*
X42203Y224191D01*
X40468Y225925D01*
X42203Y227660D01*
X43938Y225925D01*
D02*
G37*
G36*
X148938D02*
X147203Y224191D01*
X145468Y225925D01*
X147203Y227660D01*
X148938Y225925D01*
D02*
G37*
G36*
X48938D02*
X47203Y224191D01*
X45468Y225925D01*
X47203Y227660D01*
X48938Y225925D01*
D02*
G37*
G36*
X153938D02*
X152203Y224191D01*
X150468Y225925D01*
X152203Y227660D01*
X153938Y225925D01*
D02*
G37*
G36*
X183568Y226295D02*
X183497Y226202D01*
X183001Y225005D01*
X182998Y224986D01*
X182203Y224191D01*
X180468Y225925D01*
X182203Y227660D01*
X183568Y226295D01*
D02*
G37*
G36*
X146156Y223707D02*
X146152Y223580D01*
X146038Y223118D01*
X145112Y222408D01*
X144854Y222071D01*
X144355Y222038D01*
X143878Y222515D01*
X143771Y223332D01*
X143509Y223965D01*
X144703Y225160D01*
X146156Y223707D01*
D02*
G37*
G36*
X126373Y223490D02*
X126308Y223332D01*
X126302Y223290D01*
X124703Y221691D01*
X122968Y223425D01*
X124703Y225160D01*
X126373Y223490D01*
D02*
G37*
G36*
X46438Y223425D02*
X44703Y221691D01*
X42968Y223425D01*
X44703Y225160D01*
X46438Y223425D01*
D02*
G37*
G36*
X156438D02*
X154703Y221691D01*
X152968Y223425D01*
X154703Y225160D01*
X156438Y223425D01*
D02*
G37*
G36*
X49741Y224667D02*
X50237Y224021D01*
X50953Y223472D01*
X50985Y222973D01*
X49703Y221691D01*
X47968Y223425D01*
X49242Y224699D01*
X49741Y224667D01*
D02*
G37*
G36*
X85659Y224204D02*
X85612Y223847D01*
X85757Y222744D01*
X84703Y221691D01*
X83128Y223266D01*
X83034Y223491D01*
X84703Y225160D01*
X85659Y224204D01*
D02*
G37*
G36*
X171035Y223828D02*
X171020Y223721D01*
X171103Y223091D01*
X169703Y221691D01*
X167968Y223425D01*
X169703Y225160D01*
X171035Y223828D01*
D02*
G37*
G36*
X198938Y220925D02*
X198014Y220002D01*
X196392D01*
X195468Y220925D01*
X197203Y222660D01*
X198938Y220925D01*
D02*
G37*
G36*
X43938D02*
X42203Y219191D01*
X40468Y220925D01*
X42203Y222660D01*
X43938Y220925D01*
D02*
G37*
G36*
X97517Y222267D02*
X97891Y221365D01*
X98536Y220524D01*
X97203Y219191D01*
X95468Y220925D01*
X97000Y222457D01*
X97517Y222267D01*
D02*
G37*
G36*
X48938Y220925D02*
X47203Y219191D01*
X45468Y220925D01*
X47203Y222660D01*
X48938Y220925D01*
D02*
G37*
G36*
X53938D02*
X52203Y219191D01*
X50468Y220925D01*
X52203Y222660D01*
X53938Y220925D01*
D02*
G37*
G36*
X201081Y213590D02*
X200815Y213191D01*
X200692Y212577D01*
X200815Y211962D01*
X201081Y211564D01*
Y210482D01*
X177756D01*
Y211186D01*
X178256Y211596D01*
X178417Y211564D01*
X179031Y211686D01*
X179552Y212034D01*
X179900Y212555D01*
X180022Y213170D01*
X179900Y213784D01*
X179552Y214305D01*
X179031Y214653D01*
X178863Y214686D01*
Y215196D01*
X179031Y215230D01*
X179552Y215578D01*
X179855Y216031D01*
X181055D01*
X181345Y215597D01*
X181866Y215249D01*
X182033Y215215D01*
Y214706D01*
X181866Y214672D01*
X181345Y214324D01*
X180997Y213803D01*
X180875Y213189D01*
X180997Y212575D01*
X181345Y212054D01*
X181866Y211705D01*
X182480Y211583D01*
X183095Y211705D01*
X183616Y212054D01*
X183964Y212575D01*
X184086Y213189D01*
X183964Y213803D01*
X183616Y214324D01*
X183095Y214672D01*
X182927Y214706D01*
Y215215D01*
X183095Y215249D01*
X183616Y215597D01*
X183905Y216031D01*
X185386D01*
X185472Y215926D01*
X185594Y215311D01*
X185942Y214790D01*
X186463Y214442D01*
X187078Y214320D01*
X187692Y214442D01*
X188213Y214790D01*
X188561Y215311D01*
X188683Y215926D01*
X188770Y216031D01*
X191353D01*
X191505Y215846D01*
X191627Y215232D01*
X191975Y214711D01*
X192496Y214363D01*
X193110Y214241D01*
X193725Y214363D01*
X194246Y214711D01*
X194594Y215232D01*
X194716Y215846D01*
X194867Y216031D01*
X201081D01*
Y213590D01*
D02*
G37*
G36*
X137552Y217310D02*
X137874Y216989D01*
X137739Y215969D01*
X137884Y214871D01*
X137203Y214191D01*
X135468Y215925D01*
X137058Y217515D01*
X137552Y217310D01*
D02*
G37*
G36*
X133938Y215925D02*
X132203Y214191D01*
X130468Y215925D01*
X131706Y217163D01*
X132387Y217253D01*
X132545Y217318D01*
X133938Y215925D01*
D02*
G37*
G36*
X136438Y213425D02*
X134703Y211691D01*
X132968Y213425D01*
X134703Y215160D01*
X136438Y213425D01*
D02*
G37*
G36*
X131438D02*
X129703Y211691D01*
X128878Y212516D01*
Y214335D01*
X129703Y215160D01*
X131438Y213425D01*
D02*
G37*
G36*
X138938Y210925D02*
X137203Y209191D01*
X135468Y210925D01*
X137203Y212660D01*
X138938Y210925D01*
D02*
G37*
G36*
X133938D02*
X132203Y209191D01*
X130468Y210925D01*
X132203Y212660D01*
X133938Y210925D01*
D02*
G37*
G36*
X141438Y208425D02*
X139703Y206691D01*
X137968Y208425D01*
X139703Y210160D01*
X141438Y208425D01*
D02*
G37*
G36*
X144700Y209625D02*
X145112Y209088D01*
X145837Y208532D01*
X145899Y207886D01*
X144703Y206691D01*
X142968Y208425D01*
X144201Y209658D01*
X144700Y209625D01*
D02*
G37*
G36*
X131438Y208425D02*
X129703Y206691D01*
X128878Y207516D01*
Y209173D01*
Y209335D01*
X129703Y210160D01*
X131438Y208425D01*
D02*
G37*
G36*
X136438D02*
X134703Y206691D01*
X132968Y208425D01*
X134703Y210160D01*
X136438Y208425D01*
D02*
G37*
G36*
X138938Y205925D02*
X137203Y204191D01*
X135468Y205925D01*
X137203Y207660D01*
X138938Y205925D01*
D02*
G37*
G36*
X143938D02*
X142203Y204191D01*
X140468Y205925D01*
X142203Y207660D01*
X143938Y205925D01*
D02*
G37*
G36*
X133938D02*
X132203Y204191D01*
X130468Y205925D01*
X132203Y207660D01*
X133938Y205925D01*
D02*
G37*
G36*
X200977Y199815D02*
X185892D01*
X185752Y199909D01*
X185138Y200031D01*
X184523Y199909D01*
X184384Y199815D01*
X177559D01*
Y202575D01*
X177969Y202859D01*
X178059Y202845D01*
X178660Y202725D01*
X179274Y202847D01*
X179795Y203195D01*
X180143Y203716D01*
X180265Y204331D01*
X180143Y204945D01*
X180065Y205062D01*
X180333Y205562D01*
X200977D01*
Y199815D01*
D02*
G37*
G36*
X131438Y203425D02*
X130761Y202748D01*
X130605Y202728D01*
X129408Y202232D01*
X129322Y202166D01*
X129161Y202233D01*
X127968Y203425D01*
X129703Y205160D01*
X131438Y203425D01*
D02*
G37*
G36*
X126438D02*
X125643Y202630D01*
X125634Y202629D01*
X124437Y202133D01*
X124364Y202077D01*
X124234Y202177D01*
X124204Y202189D01*
X122968Y203425D01*
X123874Y204331D01*
X124213D01*
Y204669D01*
X124703Y205160D01*
X126438Y203425D01*
D02*
G37*
G36*
X136438D02*
X134865Y201853D01*
X134372Y202232D01*
X134013Y202380D01*
X132968Y203425D01*
X134703Y205160D01*
X136438Y203425D01*
D02*
G37*
G36*
X298938Y200925D02*
X297203Y199191D01*
X295468Y200925D01*
X296335Y201792D01*
X298071D01*
X298938Y200925D01*
D02*
G37*
G36*
X317021Y201776D02*
X317777Y201625D01*
X318398Y201368D01*
X318563Y201258D01*
X318710Y200698D01*
X317203Y199191D01*
X315468Y200925D01*
X316335Y201792D01*
X316684D01*
X317021Y201776D01*
D02*
G37*
G36*
X303938Y200925D02*
X302203Y199191D01*
X300468Y200925D01*
X301335Y201792D01*
X303071D01*
X303938Y200925D01*
D02*
G37*
G36*
X308938D02*
X307203Y199191D01*
X305468Y200925D01*
X306335Y201792D01*
X308071D01*
X308938Y200925D01*
D02*
G37*
G36*
X313938D02*
X312203Y199191D01*
X310468Y200925D01*
X311335Y201792D01*
X313071D01*
X313938Y200925D01*
D02*
G37*
G36*
X311438Y198425D02*
X309929Y196917D01*
X309077Y197571D01*
X308643Y197751D01*
X307968Y198425D01*
X309703Y200160D01*
X311438Y198425D01*
D02*
G37*
G36*
X316438D02*
X314909Y196897D01*
X314205Y197189D01*
X312968Y198425D01*
X314703Y200160D01*
X316438Y198425D01*
D02*
G37*
G36*
X319990Y199740D02*
X320003Y199726D01*
X320147Y199510D01*
X320343Y199338D01*
X320514Y199142D01*
X320650Y199052D01*
X320402Y198455D01*
X320241Y197228D01*
X319703Y196691D01*
X317968Y198425D01*
X319374Y199831D01*
X319990Y199740D01*
D02*
G37*
G36*
X265041Y199822D02*
X265964Y198899D01*
X266074Y198062D01*
X264703Y196691D01*
X263493Y197900D01*
X263592Y198085D01*
X264009Y199458D01*
X264010Y199467D01*
X264552Y200009D01*
X265041Y199822D01*
D02*
G37*
G36*
X164321Y166240D02*
X158821D01*
Y196047D01*
X158908Y196116D01*
X159321Y196268D01*
X159720Y196001D01*
X160335Y195879D01*
X160949Y196001D01*
X161470Y196349D01*
X161818Y196870D01*
X161940Y197485D01*
X161985Y197539D01*
X164321D01*
Y166240D01*
D02*
G37*
G36*
X215929Y252107D02*
X215928Y224902D01*
X215930Y224888D01*
X215928Y224875D01*
X215957Y223974D01*
X215967Y223935D01*
X215964Y223896D01*
X216199Y222109D01*
X216216Y222058D01*
X216220Y222006D01*
X216686Y220265D01*
X216710Y220217D01*
X216720Y220165D01*
X217410Y218500D01*
X217439Y218456D01*
X217456Y218406D01*
X218357Y216845D01*
X218392Y216805D01*
X218416Y216757D01*
X219513Y215327D01*
X219553Y215293D01*
X219582Y215248D01*
X220857Y213974D01*
X220901Y213945D01*
X220936Y213905D01*
X222366Y212807D01*
X222413Y212784D01*
X222453Y212749D01*
X224014Y211848D01*
X224064Y211831D01*
X224108Y211801D01*
X225773Y211112D01*
X225825Y211101D01*
X225873Y211078D01*
X227614Y210611D01*
X227667Y210608D01*
X227717Y210591D01*
X229504Y210356D01*
X229544Y210358D01*
X229582Y210349D01*
X230312Y210325D01*
X230342Y210319D01*
X230513Y210319D01*
X230513Y210319D01*
X321061Y210319D01*
X321951D01*
X323698Y209972D01*
X325343Y209290D01*
X326823Y208301D01*
X328083Y207042D01*
X329072Y205561D01*
X329753Y203916D01*
X330101Y202170D01*
X330101Y201279D01*
X330101Y67421D01*
X330101Y66531D01*
X329753Y64784D01*
X329072Y63139D01*
X328083Y61659D01*
X326824Y60400D01*
X325343Y59410D01*
X323698Y58729D01*
X321951Y58381D01*
X321061D01*
X230510Y58381D01*
X230497Y58379D01*
X230484Y58381D01*
X229582Y58352D01*
X229544Y58343D01*
X229504Y58345D01*
X227717Y58110D01*
X227667Y58093D01*
X227614Y58089D01*
X225873Y57623D01*
X225825Y57600D01*
X225773Y57589D01*
X224108Y56899D01*
X224064Y56870D01*
X224014Y56853D01*
X222453Y55952D01*
X222413Y55917D01*
X222366Y55893D01*
X220936Y54796D01*
X220901Y54756D01*
X220857Y54727D01*
X219582Y53452D01*
X219553Y53408D01*
X219513Y53373D01*
X218416Y51943D01*
X218392Y51896D01*
X218357Y51856D01*
X217456Y50295D01*
X217439Y50245D01*
X217410Y50201D01*
X216720Y48536D01*
X216710Y48484D01*
X216686Y48436D01*
X216220Y46695D01*
X216216Y46642D01*
X216199Y46592D01*
X215964Y44805D01*
X215967Y44765D01*
X215957Y44727D01*
X215928Y43826D01*
X215930Y43812D01*
X215928Y43799D01*
Y19390D01*
X207492D01*
X207389Y19906D01*
X207041Y20427D01*
X206520Y20775D01*
X206376Y20803D01*
X206373Y25184D01*
X206873Y25650D01*
X213622D01*
Y29272D01*
X206457Y29272D01*
X206370Y29736D01*
X206362Y41428D01*
X206716Y41782D01*
X211516D01*
X211968Y41969D01*
X212155Y42421D01*
Y45472D01*
X212598D01*
Y63691D01*
X212618D01*
X212618Y91126D01*
X212664Y91135D01*
X213184Y91483D01*
X213532Y92004D01*
X213655Y92618D01*
X213578Y93004D01*
X213907Y93504D01*
X217286D01*
X217493Y93116D01*
X217498Y93004D01*
X217383Y92425D01*
X217506Y91810D01*
X217854Y91289D01*
X218374Y90941D01*
X218989Y90819D01*
X219603Y90941D01*
X220124Y91289D01*
X220472Y91810D01*
X220595Y92425D01*
X220479Y93004D01*
X220485Y93116D01*
X220692Y93504D01*
X223927D01*
X224160Y93156D01*
X224681Y92808D01*
X225295Y92686D01*
X225910Y92808D01*
X226431Y93156D01*
X226663Y93504D01*
X228642D01*
X228642Y63700D01*
X316938Y63700D01*
X317408Y63700D01*
X317408Y63700D01*
X317408Y63700D01*
X318074Y63732D01*
X319380Y63992D01*
X320610Y64502D01*
X321717Y65241D01*
X322658Y66183D01*
X323398Y67290D01*
X323907Y68520D01*
X324167Y69825D01*
X324200Y70491D01*
X324200Y195387D01*
X324700Y195664D01*
X325197Y195565D01*
X325811Y195687D01*
X326332Y196035D01*
X326680Y196556D01*
X326802Y197170D01*
X326782Y197272D01*
X327165Y197705D01*
X327780Y197828D01*
X328301Y198176D01*
X328649Y198697D01*
X328771Y199311D01*
X328649Y199925D01*
X328301Y200446D01*
X327780Y200795D01*
X327165Y200917D01*
X327038Y200891D01*
X326867Y201065D01*
X326696Y201333D01*
X326802Y201870D01*
X326680Y202484D01*
X326332Y203005D01*
X325811Y203354D01*
X325197Y203476D01*
X324582Y203354D01*
X324061Y203005D01*
X323713Y202484D01*
X323663Y202234D01*
X323133Y202128D01*
X322516Y203051D01*
X321488Y204079D01*
X320279Y204887D01*
X318935Y205444D01*
X317509Y205727D01*
X316782Y205763D01*
X219052D01*
X218754Y206165D01*
X218888Y206605D01*
X219032Y208071D01*
X218888Y209537D01*
X218460Y210947D01*
X217765Y212247D01*
X216831Y213386D01*
X215692Y214321D01*
X214392Y215015D01*
X212982Y215443D01*
X211516Y215587D01*
X210049Y215443D01*
X208639Y215015D01*
X207340Y214321D01*
X206704Y213799D01*
X206252Y214013D01*
Y252461D01*
X215575D01*
X215929Y252107D01*
D02*
G37*
G36*
X318938Y195925D02*
X317527Y194514D01*
X316938Y194633D01*
X316759Y195066D01*
X315970Y196094D01*
X315950Y196407D01*
X317203Y197660D01*
X318938Y195925D01*
D02*
G37*
G36*
X3938D02*
X2203Y194191D01*
X1000Y195394D01*
Y196457D01*
X2203Y197660D01*
X3938Y195925D01*
D02*
G37*
G36*
X51438Y193425D02*
X50954Y192942D01*
X50578Y192892D01*
X49381Y192396D01*
X49164Y192230D01*
X47968Y193425D01*
X49544Y195001D01*
X49724Y195139D01*
X51438Y193425D01*
D02*
G37*
G36*
X251438D02*
X249703Y191691D01*
X248138Y193255D01*
X248362Y193739D01*
X249632Y194124D01*
X250353Y194510D01*
X251438Y193425D01*
D02*
G37*
G36*
X241438D02*
X239703Y191691D01*
X238138Y193255D01*
X238362Y193739D01*
X239632Y194124D01*
X240353Y194510D01*
X241438Y193425D01*
D02*
G37*
G36*
X174644Y190350D02*
X174143Y190085D01*
X173622Y190188D01*
X173008Y190066D01*
X172487Y189718D01*
X172139Y189197D01*
X172016Y188583D01*
X172139Y187968D01*
X172487Y187447D01*
X173008Y187099D01*
X173622Y186977D01*
X174143Y187081D01*
X174644Y186816D01*
Y166437D01*
X169143D01*
Y169252D01*
X169104Y169347D01*
Y172779D01*
X169143Y172874D01*
Y189724D01*
X169104Y189820D01*
Y193251D01*
X169143Y193347D01*
Y194744D01*
X169005Y195077D01*
Y197528D01*
X174644D01*
Y190350D01*
D02*
G37*
G36*
X128938Y190925D02*
X127203Y189191D01*
X125468Y190925D01*
X127203Y192660D01*
X128938Y190925D01*
D02*
G37*
G36*
X118938D02*
X117203Y189191D01*
X116318Y190075D01*
X116381Y190551D01*
X116231Y191688D01*
X117203Y192660D01*
X118938Y190925D01*
D02*
G37*
G36*
X123938D02*
X122203Y189191D01*
X120468Y190925D01*
X122203Y192660D01*
X123938Y190925D01*
D02*
G37*
G36*
X130192Y189671D02*
X130245Y189267D01*
X130741Y188069D01*
X130889Y187876D01*
X129703Y186691D01*
X127968Y188425D01*
X129703Y190160D01*
X130192Y189671D01*
D02*
G37*
G36*
X121438Y188425D02*
X119703Y186691D01*
X117968Y188425D01*
X119703Y190160D01*
X121438Y188425D01*
D02*
G37*
G36*
X71438D02*
X69703Y186691D01*
X68037Y188356D01*
X68058Y188515D01*
X69703Y190160D01*
X71438Y188425D01*
D02*
G37*
G36*
X126438D02*
X124703Y186691D01*
X122968Y188425D01*
X124703Y190160D01*
X126438Y188425D01*
D02*
G37*
G36*
X76438D02*
X74703Y186691D01*
X72968Y188425D01*
X74703Y190160D01*
X76438Y188425D01*
D02*
G37*
G36*
X128938Y185925D02*
X127203Y184191D01*
X125468Y185925D01*
X127203Y187660D01*
X128938Y185925D01*
D02*
G37*
G36*
X78938D02*
X77203Y184191D01*
X75468Y185925D01*
X77203Y187660D01*
X78938Y185925D01*
D02*
G37*
G36*
X123938D02*
X122203Y184191D01*
X120468Y185925D01*
X122203Y187660D01*
X123938Y185925D01*
D02*
G37*
G36*
X73938D02*
X72203Y184191D01*
X70468Y185925D01*
X72203Y187660D01*
X73938Y185925D01*
D02*
G37*
G36*
X28328Y201517D02*
X28780Y201329D01*
X31447D01*
Y166634D01*
X30208D01*
X30125Y167051D01*
X29777Y167572D01*
X29256Y167920D01*
X28642Y168043D01*
X28027Y167920D01*
X27506Y167572D01*
X27158Y167051D01*
X27075Y166634D01*
X25976D01*
X25893Y167051D01*
X25545Y167572D01*
X25024Y167920D01*
X24409Y168043D01*
X24220Y168005D01*
X23720Y168415D01*
Y182598D01*
X26319D01*
Y183909D01*
X26819Y183958D01*
X26863Y183736D01*
X27211Y183215D01*
X27732Y182867D01*
X28346Y182745D01*
X28961Y182867D01*
X29482Y183215D01*
X29830Y183736D01*
X29952Y184350D01*
X29830Y184965D01*
X29482Y185486D01*
X28961Y185834D01*
X28346Y185956D01*
X27732Y185834D01*
X27211Y185486D01*
X26863Y184965D01*
X26819Y184743D01*
X26319Y184792D01*
Y186063D01*
X23720D01*
Y201329D01*
X25157D01*
X25609Y201517D01*
X25630Y201566D01*
X28307D01*
X28328Y201517D01*
D02*
G37*
G36*
X275736Y184127D02*
X276345Y183333D01*
X275589Y182577D01*
X274640Y182452D01*
X274146Y182247D01*
X272968Y183425D01*
X274703Y185160D01*
X275736Y184127D01*
D02*
G37*
G36*
X151438Y183425D02*
X149703Y181691D01*
X147968Y183425D01*
X149703Y185160D01*
X151438Y183425D01*
D02*
G37*
G36*
X126438D02*
X124703Y181691D01*
X122968Y183425D01*
X124703Y185160D01*
X126438Y183425D01*
D02*
G37*
G36*
X76438D02*
X74703Y181691D01*
X72968Y183425D01*
X74703Y185160D01*
X76438Y183425D01*
D02*
G37*
G36*
X121438D02*
X119703Y181691D01*
X117968Y183425D01*
X119703Y185160D01*
X121438Y183425D01*
D02*
G37*
G36*
X71438D02*
X69703Y181691D01*
X68037Y183356D01*
X68058Y183515D01*
X69703Y185160D01*
X71438Y183425D01*
D02*
G37*
G36*
X136438D02*
X134703Y181691D01*
X132968Y183425D01*
X134703Y185160D01*
X136438Y183425D01*
D02*
G37*
G36*
X131438D02*
X129703Y181691D01*
X127968Y183425D01*
X129703Y185160D01*
X131438Y183425D01*
D02*
G37*
G36*
X123938Y180925D02*
X122203Y179191D01*
X120468Y180925D01*
X122203Y182660D01*
X123938Y180925D01*
D02*
G37*
G36*
X73938D02*
X72203Y179191D01*
X70468Y180925D01*
X72203Y182660D01*
X73938Y180925D01*
D02*
G37*
G36*
X233938D02*
X232203Y179191D01*
X231107Y180286D01*
X231040Y180374D01*
X230952Y180441D01*
X230468Y180925D01*
X232203Y182660D01*
X233938Y180925D01*
D02*
G37*
G36*
X133938D02*
X132203Y179191D01*
X130468Y180925D01*
X132203Y182660D01*
X133938Y180925D01*
D02*
G37*
G36*
X128938D02*
X127203Y179191D01*
X125468Y180925D01*
X127203Y182660D01*
X128938Y180925D01*
D02*
G37*
G36*
X78938D02*
X77203Y179191D01*
X75468Y180925D01*
X77203Y182660D01*
X78938Y180925D01*
D02*
G37*
G36*
X314940Y179275D02*
X315512Y179350D01*
X316438Y178425D01*
X315170Y177158D01*
X314345Y177049D01*
X312968Y178425D01*
X313949Y179405D01*
X314940Y179275D01*
D02*
G37*
G36*
X121438Y178425D02*
X119703Y176691D01*
X117968Y178425D01*
X119703Y180160D01*
X121438Y178425D01*
D02*
G37*
G36*
X71438D02*
X69703Y176691D01*
X68037Y178356D01*
X68058Y178515D01*
X69703Y180160D01*
X71438Y178425D01*
D02*
G37*
G36*
X131438D02*
X129703Y176691D01*
X127968Y178425D01*
X129703Y180160D01*
X131438Y178425D01*
D02*
G37*
G36*
X126438D02*
X124703Y176691D01*
X122968Y178425D01*
X124703Y180160D01*
X126438Y178425D01*
D02*
G37*
G36*
X76438D02*
X74703Y176691D01*
X72968Y178425D01*
X74703Y180160D01*
X76438Y178425D01*
D02*
G37*
G36*
X311438D02*
X309703Y176691D01*
X308330Y178064D01*
X308344Y178083D01*
X308840Y179280D01*
X308842Y179299D01*
X309703Y180160D01*
X311438Y178425D01*
D02*
G37*
G36*
X3938Y175925D02*
X3089Y175077D01*
X2323Y174448D01*
X1963Y174431D01*
X1000Y175394D01*
Y176456D01*
X2203Y177660D01*
X3938Y175925D01*
D02*
G37*
G36*
X128938D02*
X127203Y174191D01*
X125468Y175925D01*
X127203Y177660D01*
X128938Y175925D01*
D02*
G37*
G36*
X93938D02*
X92203Y174191D01*
X90468Y175925D01*
X91864Y177320D01*
X92538Y177325D01*
X93938Y175925D01*
D02*
G37*
G36*
X78938D02*
X77203Y174191D01*
X75468Y175925D01*
X77203Y177660D01*
X78938Y175925D01*
D02*
G37*
G36*
X97436Y177427D02*
X98938Y175925D01*
X97203Y174191D01*
X95468Y175925D01*
X97024Y177481D01*
X97436Y177427D01*
D02*
G37*
G36*
X123938Y175925D02*
X122203Y174191D01*
X120468Y175925D01*
X122203Y177660D01*
X123938Y175925D01*
D02*
G37*
G36*
X73938D02*
X72203Y174191D01*
X70468Y175925D01*
X72203Y177660D01*
X73938Y175925D01*
D02*
G37*
G36*
X132557Y177306D02*
X132705Y176176D01*
X133140Y175127D01*
X132203Y174191D01*
X130468Y175925D01*
X132203Y177660D01*
X132557Y177306D01*
D02*
G37*
G36*
X196168Y173695D02*
X196167Y173693D01*
X195379Y172665D01*
X195274Y172412D01*
X194985Y172531D01*
X193701Y172700D01*
X193694Y172699D01*
X192968Y173425D01*
X194703Y175160D01*
X196168Y173695D01*
D02*
G37*
G36*
X126438Y173425D02*
X124703Y171691D01*
X122968Y173425D01*
X124703Y175160D01*
X126438Y173425D01*
D02*
G37*
G36*
X96438D02*
X94703Y171691D01*
X92968Y173425D01*
X94703Y175160D01*
X96438Y173425D01*
D02*
G37*
G36*
X76438D02*
X74703Y171691D01*
X72968Y173425D01*
X74703Y175160D01*
X76438Y173425D01*
D02*
G37*
G36*
X131438D02*
X129703Y171691D01*
X127968Y173425D01*
X129703Y175160D01*
X131438Y173425D01*
D02*
G37*
G36*
X234852Y174721D02*
X235041Y174264D01*
X235830Y173236D01*
X235856Y172843D01*
X234703Y171691D01*
X232968Y173425D01*
X234362Y174818D01*
X234852Y174721D01*
D02*
G37*
G36*
X310926Y173937D02*
X310757Y173529D01*
X310638Y172625D01*
X309703Y171691D01*
X308863Y172530D01*
X308732Y173529D01*
X308538Y173995D01*
X309703Y175160D01*
X310926Y173937D01*
D02*
G37*
G36*
X121438Y173425D02*
X119703Y171691D01*
X117968Y173425D01*
X119703Y175160D01*
X121438Y173425D01*
D02*
G37*
G36*
X71438D02*
X69703Y171691D01*
X68037Y173356D01*
X68058Y173515D01*
X69703Y175160D01*
X71438Y173425D01*
D02*
G37*
G36*
X73938Y170925D02*
X72985Y169973D01*
X72830Y169952D01*
X71848Y169545D01*
X70468Y170925D01*
X72203Y172660D01*
X73938Y170925D01*
D02*
G37*
G36*
X123938D02*
X122476Y169464D01*
X121576Y170154D01*
X121002Y170392D01*
X120468Y170925D01*
X122203Y172660D01*
X123938Y170925D01*
D02*
G37*
G36*
X93938D02*
X92203Y169191D01*
X90468Y170925D01*
X92203Y172660D01*
X93938Y170925D01*
D02*
G37*
G36*
X98628Y171235D02*
X98580Y170866D01*
X98614Y170602D01*
X97203Y169191D01*
X95468Y170925D01*
X97203Y172660D01*
X98628Y171235D01*
D02*
G37*
G36*
X128938Y170925D02*
X127203Y169191D01*
X125468Y170925D01*
X127203Y172660D01*
X128938Y170925D01*
D02*
G37*
G36*
X78938D02*
X77203Y169191D01*
X75468Y170925D01*
X77203Y172660D01*
X78938Y170925D01*
D02*
G37*
G36*
X311438Y168425D02*
X309703Y166691D01*
X307968Y168425D01*
X309703Y170160D01*
X311438Y168425D01*
D02*
G37*
G36*
X96438D02*
X94703Y166691D01*
X92968Y168425D01*
X94703Y170160D01*
X96438Y168425D01*
D02*
G37*
G36*
X42126Y183948D02*
X41708Y183865D01*
X41188Y183517D01*
X40839Y182996D01*
X40717Y182382D01*
X40839Y181767D01*
X41188Y181246D01*
X41708Y180898D01*
X42126Y180815D01*
Y166634D01*
X40256D01*
X40123Y166874D01*
X40054Y167134D01*
X40361Y167594D01*
X40484Y168209D01*
X40361Y168823D01*
X40013Y169344D01*
X39492Y169692D01*
X38878Y169814D01*
X38263Y169692D01*
X37743Y169344D01*
X37394Y168823D01*
X37272Y168209D01*
X37394Y167594D01*
X37702Y167134D01*
X37633Y166874D01*
X37500Y166634D01*
X36368D01*
Y169646D01*
X36230Y169978D01*
Y172935D01*
X36368Y173268D01*
Y178307D01*
X36180Y178759D01*
X36131Y178779D01*
Y181457D01*
X36180Y181477D01*
X36368Y181929D01*
Y194055D01*
X36180Y194507D01*
X36033Y194568D01*
Y197164D01*
X36180Y197225D01*
X36368Y197677D01*
Y201929D01*
X36180Y202381D01*
X36033Y202442D01*
Y205505D01*
X42126D01*
Y183948D01*
D02*
G37*
G36*
X318938Y165925D02*
X317203Y164191D01*
X315468Y165925D01*
X317104Y167560D01*
X317244Y167619D01*
X318938Y165925D01*
D02*
G37*
G36*
X313938D02*
X312203Y164191D01*
X310468Y165925D01*
X312203Y167660D01*
X313938Y165925D01*
D02*
G37*
G36*
X89644Y158513D02*
X43817D01*
Y164173D01*
X54144D01*
X54180Y164120D01*
X54700Y163772D01*
X55315Y163650D01*
X55929Y163772D01*
X56450Y164120D01*
X56485Y164173D01*
X72878D01*
X72979Y164022D01*
X73500Y163674D01*
X74114Y163552D01*
X74729Y163674D01*
X75249Y164022D01*
X75350Y164173D01*
X89644D01*
Y158513D01*
D02*
G37*
G36*
X316438Y163425D02*
X314703Y161691D01*
X312968Y163425D01*
X314703Y165160D01*
X316438Y163425D01*
D02*
G37*
G36*
X206438D02*
X204703Y161691D01*
X202968Y163425D01*
X204703Y165160D01*
X206438Y163425D01*
D02*
G37*
G36*
X201438D02*
X199703Y161691D01*
X198664Y162730D01*
X198664Y162736D01*
X198503Y163960D01*
X199703Y165160D01*
X201438Y163425D01*
D02*
G37*
G36*
X3938Y160925D02*
X2203Y159191D01*
X1000Y160394D01*
Y161457D01*
X2203Y162660D01*
X3938Y160925D01*
D02*
G37*
G36*
X203938D02*
X202203Y159191D01*
X200468Y160925D01*
X202203Y162660D01*
X203938Y160925D01*
D02*
G37*
G36*
X208938D02*
X207203Y159191D01*
X205468Y160925D01*
X207203Y162660D01*
X208938Y160925D01*
D02*
G37*
G36*
X318938D02*
X317203Y159191D01*
X315468Y160925D01*
X317203Y162660D01*
X318938Y160925D01*
D02*
G37*
G36*
X156179Y158513D02*
X139311D01*
X139216Y158474D01*
X135784D01*
X135689Y158513D01*
X123563D01*
X123468Y158474D01*
X120036D01*
X119941Y158513D01*
X115689D01*
X115594Y158474D01*
X112162D01*
X112067Y158513D01*
X110352D01*
Y164122D01*
X156179D01*
Y158513D01*
D02*
G37*
G36*
X208957Y206201D02*
X168504D01*
Y198366D01*
X168366D01*
Y194744D01*
X168504D01*
Y193347D01*
X168465D01*
Y189724D01*
X168504D01*
Y172874D01*
X168465D01*
Y169252D01*
X168504D01*
Y163386D01*
X165942Y157874D01*
X168504D01*
Y82874D01*
Y79528D01*
X165150D01*
Y154232D01*
X155157D01*
Y154370D01*
X151535D01*
Y154232D01*
X135374D01*
Y154272D01*
X131752D01*
Y154232D01*
X127795D01*
Y154272D01*
X124173D01*
Y154232D01*
X68248D01*
Y154469D01*
X64626D01*
Y154232D01*
X56634D01*
Y154272D01*
X53012D01*
Y154232D01*
X48465D01*
Y154370D01*
X44842D01*
Y154232D01*
X32087D01*
Y201969D01*
X28780D01*
Y202205D01*
X25157D01*
Y201969D01*
X1000D01*
X1000Y205512D01*
X35394D01*
Y201929D01*
X35728D01*
Y197677D01*
X35394D01*
Y194055D01*
X35728D01*
Y181929D01*
X35492D01*
Y178307D01*
X35728D01*
Y173268D01*
X35591D01*
Y169646D01*
X35728D01*
Y157874D01*
X112067D01*
Y157835D01*
X115689D01*
Y157874D01*
X119941D01*
Y157835D01*
X123563D01*
Y157874D01*
X135689D01*
Y157835D01*
X139311D01*
Y157874D01*
X164961D01*
Y209842D01*
X208957D01*
Y206201D01*
D02*
G37*
G36*
X201438Y158425D02*
X199703Y156691D01*
X198664Y157730D01*
X198664Y157736D01*
X198503Y158960D01*
X199703Y160160D01*
X201438Y158425D01*
D02*
G37*
G36*
X206438D02*
X204703Y156691D01*
X202968Y158425D01*
X204703Y160160D01*
X206438Y158425D01*
D02*
G37*
G36*
X208938Y155925D02*
X207203Y154191D01*
X205468Y155925D01*
X207203Y157660D01*
X208938Y155925D01*
D02*
G37*
G36*
X272404Y157154D02*
X272979Y156405D01*
X273492Y156011D01*
X273524Y155512D01*
X272203Y154191D01*
X270468Y155925D01*
X271767Y157224D01*
X272404Y157154D01*
D02*
G37*
G36*
X203938Y155925D02*
X202203Y154191D01*
X200468Y155925D01*
X202203Y157660D01*
X203938Y155925D01*
D02*
G37*
G36*
X155157Y153593D02*
X156057D01*
Y148031D01*
X155020D01*
Y150394D01*
X149902D01*
Y148031D01*
X139086D01*
X138964Y148646D01*
X138616Y149167D01*
X138095Y149515D01*
X137480Y149637D01*
X136866Y149515D01*
X136345Y149167D01*
X135997Y148646D01*
X135875Y148031D01*
X117882D01*
X117614Y148531D01*
X117725Y148697D01*
X117847Y149311D01*
X117725Y149925D01*
X117376Y150446D01*
X116856Y150794D01*
X116241Y150917D01*
X115627Y150794D01*
X115106Y150446D01*
X114758Y149925D01*
X114636Y149311D01*
X114758Y148697D01*
X114868Y148531D01*
X114601Y148031D01*
X110230D01*
Y153593D01*
X124173D01*
X124268Y153632D01*
X127700D01*
X127795Y153593D01*
X131752D01*
X131847Y153632D01*
X135279D01*
X135374Y153593D01*
X151535D01*
X151868Y153731D01*
X154825D01*
X155157Y153593D01*
D02*
G37*
G36*
X67796Y153780D02*
X68248Y153593D01*
X70177D01*
Y147808D01*
X45546D01*
X45427Y147986D01*
X44906Y148334D01*
X44291Y148456D01*
X44064Y148411D01*
X43678Y148728D01*
Y153593D01*
X44842D01*
X45175Y153731D01*
X48132D01*
X48465Y153593D01*
X53012D01*
X53107Y153632D01*
X56539D01*
X56634Y153593D01*
X64626D01*
X65078Y153780D01*
X65098Y153829D01*
X67776D01*
X67796Y153780D01*
D02*
G37*
G36*
X206438Y153425D02*
X204703Y151691D01*
X202968Y153425D01*
X204703Y155160D01*
X206438Y153425D01*
D02*
G37*
G36*
X201438D02*
X199703Y151691D01*
X198664Y152730D01*
X198664Y152736D01*
X198503Y153960D01*
X199703Y155160D01*
X201438Y153425D01*
D02*
G37*
G36*
X203938Y150925D02*
X202946Y149934D01*
X201740Y149775D01*
X201654Y149740D01*
X200468Y150925D01*
X202203Y152660D01*
X203938Y150925D01*
D02*
G37*
G36*
X208938D02*
X207203Y149191D01*
X205468Y150925D01*
X207203Y152660D01*
X208938Y150925D01*
D02*
G37*
G36*
X297392Y147352D02*
X297699Y147163D01*
X298938Y145925D01*
X297203Y144191D01*
X295468Y145925D01*
X297124Y147581D01*
X297392Y147352D01*
D02*
G37*
G36*
X288938Y145925D02*
X287203Y144191D01*
X285468Y145925D01*
X287203Y147660D01*
X288938Y145925D01*
D02*
G37*
G36*
X291438Y143425D02*
X290123Y142111D01*
X290111Y142112D01*
X289083Y142901D01*
X288424Y143174D01*
X288307Y143763D01*
X289703Y145160D01*
X291438Y143425D01*
D02*
G37*
G36*
X316438D02*
X314941Y141929D01*
X314364Y142059D01*
X314324Y142112D01*
X314143Y142250D01*
X312968Y143425D01*
X314422Y144879D01*
X314984D01*
X316438Y143425D01*
D02*
G37*
G36*
X301438D02*
X299703Y141691D01*
X297968Y143425D01*
X299703Y145160D01*
X301438Y143425D01*
D02*
G37*
G36*
X256438D02*
X254703Y141691D01*
X253564Y142829D01*
X253755Y143291D01*
X253881D01*
Y144338D01*
X254684Y145141D01*
X254718Y145145D01*
X256438Y143425D01*
D02*
G37*
G36*
X306438D02*
X304703Y141691D01*
X302968Y143425D01*
X304703Y145160D01*
X306438Y143425D01*
D02*
G37*
G36*
X296438D02*
X294703Y141691D01*
X292968Y143425D01*
X294703Y145160D01*
X296438Y143425D01*
D02*
G37*
G36*
X174683Y139646D02*
X174183Y139418D01*
X173837Y139649D01*
X173223Y139771D01*
X172608Y139649D01*
X172087Y139301D01*
X171739Y138780D01*
X171617Y138165D01*
X171739Y137551D01*
X172087Y137030D01*
X172534Y136731D01*
X172584Y136489D01*
X172584Y136485D01*
X172547Y136184D01*
X172114Y135894D01*
X171765Y135373D01*
X171643Y134759D01*
X171765Y134145D01*
X172114Y133624D01*
X172634Y133276D01*
X173249Y133153D01*
X173863Y133276D01*
X174183Y133489D01*
X174683Y133239D01*
Y129866D01*
X174183Y129598D01*
X173962Y129746D01*
X173347Y129868D01*
X172733Y129746D01*
X172212Y129398D01*
X171864Y128877D01*
X171742Y128263D01*
X171864Y127648D01*
X172212Y127127D01*
X172733Y126779D01*
X173347Y126657D01*
X173962Y126779D01*
X174183Y126927D01*
X174683Y126660D01*
Y110741D01*
X174183Y110508D01*
X173843Y110735D01*
X173228Y110858D01*
X172614Y110735D01*
X172093Y110387D01*
X171745Y109866D01*
X171623Y109252D01*
X171745Y108637D01*
X172093Y108117D01*
X172614Y107768D01*
X173228Y107646D01*
X173843Y107768D01*
X174183Y107996D01*
X174683Y107763D01*
Y98838D01*
X169143D01*
Y144433D01*
X174683D01*
Y139646D01*
D02*
G37*
G36*
X303938Y140925D02*
X302203Y139191D01*
X300468Y140925D01*
X302203Y142660D01*
X303938Y140925D01*
D02*
G37*
G36*
X293938D02*
X292203Y139191D01*
X291318Y140076D01*
X290900Y141084D01*
X290781Y141238D01*
X292203Y142660D01*
X293938Y140925D01*
D02*
G37*
G36*
X298938D02*
X297203Y139191D01*
X295468Y140925D01*
X297203Y142660D01*
X298938Y140925D01*
D02*
G37*
G36*
X305898Y138965D02*
X305850Y138602D01*
X305939Y137927D01*
X304703Y136691D01*
X302968Y138425D01*
X304703Y140160D01*
X305898Y138965D01*
D02*
G37*
G36*
X296438Y138425D02*
X294703Y136691D01*
X292968Y138425D01*
X294703Y140160D01*
X296438Y138425D01*
D02*
G37*
G36*
X301438D02*
X299703Y136691D01*
X297968Y138425D01*
X299703Y140160D01*
X301438Y138425D01*
D02*
G37*
G36*
X303938Y135925D02*
X302203Y134191D01*
X300468Y135925D01*
X302203Y137660D01*
X303938Y135925D01*
D02*
G37*
G36*
X293938D02*
X292203Y134191D01*
X290628Y135765D01*
X290900Y136120D01*
X291068Y136525D01*
X292203Y137660D01*
X293938Y135925D01*
D02*
G37*
G36*
X298938D02*
X297203Y134191D01*
X295468Y135925D01*
X297203Y137660D01*
X298938Y135925D01*
D02*
G37*
G36*
X291438Y133425D02*
X290123Y132111D01*
X290111Y132112D01*
X289083Y132901D01*
X288424Y133174D01*
X288307Y133763D01*
X288679Y134135D01*
X289083Y134303D01*
X289919Y134944D01*
X291438Y133425D01*
D02*
G37*
G36*
X301438D02*
X299703Y131691D01*
X297968Y133425D01*
X299703Y135160D01*
X301438Y133425D01*
D02*
G37*
G36*
X151438D02*
X149703Y131691D01*
X148327Y133067D01*
Y133784D01*
X149703Y135160D01*
X151438Y133425D01*
D02*
G37*
G36*
X306438D02*
X304703Y131691D01*
X302968Y133425D01*
X304703Y135160D01*
X306438Y133425D01*
D02*
G37*
G36*
X296438D02*
X294703Y131691D01*
X292968Y133425D01*
X294703Y135160D01*
X296438Y133425D01*
D02*
G37*
G36*
X246438D02*
X244703Y131691D01*
X242968Y133425D01*
X244703Y135160D01*
X246438Y133425D01*
D02*
G37*
G36*
X303938Y130925D02*
X303363Y130351D01*
X302423Y130227D01*
X301535Y129859D01*
X300468Y130925D01*
X302203Y132660D01*
X303938Y130925D01*
D02*
G37*
G36*
X253938D02*
X253608Y130596D01*
X252853Y130283D01*
X251867Y129526D01*
X250468Y130925D01*
X252203Y132660D01*
X253938Y130925D01*
D02*
G37*
G36*
X272759Y132082D02*
X272778Y132085D01*
X273938Y130925D01*
X273376Y130363D01*
X273177Y130281D01*
X272149Y129492D01*
X271917Y129477D01*
X270468Y130925D01*
X271757Y132214D01*
X272759Y132082D01*
D02*
G37*
G36*
X298938Y130925D02*
X297203Y129191D01*
X295468Y130925D01*
X297203Y132660D01*
X298938Y130925D01*
D02*
G37*
G36*
X248938D02*
X247203Y129191D01*
X245468Y130925D01*
X247203Y132660D01*
X248938Y130925D01*
D02*
G37*
G36*
X243938D02*
X242203Y129191D01*
X240468Y130925D01*
X242203Y132660D01*
X243938Y130925D01*
D02*
G37*
G36*
X293938D02*
X292203Y129191D01*
X291318Y130076D01*
X290900Y131084D01*
X290781Y131238D01*
X292203Y132660D01*
X293938Y130925D01*
D02*
G37*
G36*
X251192Y128670D02*
X251036Y128466D01*
X250723Y127711D01*
X249703Y126691D01*
X247968Y128425D01*
X249703Y130160D01*
X251192Y128670D01*
D02*
G37*
G36*
X296438Y128425D02*
X294703Y126691D01*
X292968Y128425D01*
X294703Y130160D01*
X296438Y128425D01*
D02*
G37*
G36*
X246438D02*
X244703Y126691D01*
X242968Y128425D01*
X244703Y130160D01*
X246438Y128425D01*
D02*
G37*
G36*
X293938Y125925D02*
X292203Y124191D01*
X290628Y125765D01*
X290900Y126120D01*
X291068Y126525D01*
X292203Y127660D01*
X293938Y125925D01*
D02*
G37*
G36*
X243938D02*
X242203Y124191D01*
X240468Y125925D01*
X242203Y127660D01*
X243938Y125925D01*
D02*
G37*
G36*
X298824Y126039D02*
X298789Y125777D01*
X297203Y124191D01*
X295468Y125925D01*
X297203Y127660D01*
X298824Y126039D01*
D02*
G37*
G36*
X248938Y125925D02*
X247203Y124191D01*
X245468Y125925D01*
X247203Y127660D01*
X248938Y125925D01*
D02*
G37*
G36*
X2300Y127238D02*
X3269Y126103D01*
X3446Y125952D01*
X3465Y125453D01*
X2203Y124191D01*
X1000Y125394D01*
Y126456D01*
X1800Y127257D01*
X2300Y127238D01*
D02*
G37*
G36*
X296438Y123425D02*
X294703Y121691D01*
X292968Y123425D01*
X294703Y125160D01*
X296438Y123425D01*
D02*
G37*
G36*
X246438D02*
X244703Y121691D01*
X242968Y123425D01*
X244703Y125160D01*
X246438Y123425D01*
D02*
G37*
G36*
X291438D02*
X289703Y121691D01*
X287968Y123425D01*
X288679Y124135D01*
X289083Y124303D01*
X289919Y124944D01*
X291438Y123425D01*
D02*
G37*
G36*
X191438D02*
X189703Y121691D01*
X187968Y123425D01*
X188605Y124062D01*
X189488Y124178D01*
X190334Y124528D01*
X191438Y123425D01*
D02*
G37*
G36*
X181438D02*
X179703Y121691D01*
X178654Y122740D01*
Y124068D01*
X179488Y124178D01*
X180334Y124528D01*
X181438Y123425D01*
D02*
G37*
G36*
X186438D02*
X184703Y121691D01*
X182968Y123425D01*
X183605Y124062D01*
X184488Y124178D01*
X185334Y124528D01*
X186438Y123425D01*
D02*
G37*
G36*
X21438D02*
X19703Y121691D01*
X17968Y123425D01*
X18925Y124382D01*
X19633Y124815D01*
X19856Y125006D01*
X21438Y123425D01*
D02*
G37*
G36*
X238938Y120925D02*
X237392Y119380D01*
X236746Y119647D01*
X235468Y120925D01*
X236180Y121637D01*
X236521Y121682D01*
X237695Y122168D01*
X238938Y120925D01*
D02*
G37*
G36*
X188938D02*
X187203Y119191D01*
X185468Y120925D01*
X187203Y122660D01*
X188938Y120925D01*
D02*
G37*
G36*
X293938D02*
X292203Y119191D01*
X290468Y120925D01*
X292203Y122660D01*
X293938Y120925D01*
D02*
G37*
G36*
X243938D02*
X242203Y119191D01*
X240468Y120925D01*
X242203Y122660D01*
X243938Y120925D01*
D02*
G37*
G36*
X262803Y122060D02*
Y119790D01*
X262203Y119191D01*
X260468Y120925D01*
X262203Y122660D01*
X262803Y122060D01*
D02*
G37*
G36*
X298938Y120925D02*
X297203Y119191D01*
X295468Y120925D01*
X297203Y122660D01*
X298938Y120925D01*
D02*
G37*
G36*
X248938D02*
X247203Y119191D01*
X245468Y120925D01*
X247203Y122660D01*
X248938Y120925D01*
D02*
G37*
G36*
X308938D02*
X307203Y119191D01*
X305850Y120543D01*
X305948Y121034D01*
X306190Y121134D01*
X307218Y121923D01*
X307300Y122031D01*
X307799Y122063D01*
X308938Y120925D01*
D02*
G37*
G36*
X183938D02*
X182203Y119191D01*
X180468Y120925D01*
X182203Y122660D01*
X183938Y120925D01*
D02*
G37*
G36*
X241438Y118425D02*
X240061Y117048D01*
X239570Y117146D01*
X239437Y117469D01*
X238648Y118497D01*
X238605Y118530D01*
X238572Y119029D01*
X239703Y120160D01*
X241438Y118425D01*
D02*
G37*
G36*
X186438D02*
X184703Y116691D01*
X182968Y118425D01*
X184703Y120160D01*
X186438Y118425D01*
D02*
G37*
G36*
X311438D02*
X309703Y116691D01*
X307968Y118425D01*
X309703Y120160D01*
X311438Y118425D01*
D02*
G37*
G36*
X291438D02*
X289703Y116691D01*
X287968Y118425D01*
X289703Y120160D01*
X291438Y118425D01*
D02*
G37*
G36*
X190786Y119077D02*
X190875Y118400D01*
X191032Y118020D01*
X189703Y116691D01*
X187968Y118425D01*
X189703Y120160D01*
X190786Y119077D01*
D02*
G37*
G36*
X301438Y118425D02*
X299703Y116691D01*
X297968Y118425D01*
X299703Y120160D01*
X301438Y118425D01*
D02*
G37*
G36*
X296438D02*
X294703Y116691D01*
X292968Y118425D01*
X294703Y120160D01*
X296438Y118425D01*
D02*
G37*
G36*
X246438D02*
X244703Y116691D01*
X242968Y118425D01*
X244703Y120160D01*
X246438Y118425D01*
D02*
G37*
G36*
X181438D02*
X179703Y116691D01*
X178654Y117740D01*
Y119111D01*
X179703Y120160D01*
X181438Y118425D01*
D02*
G37*
G36*
X306438D02*
X304703Y116691D01*
X302968Y118425D01*
X304703Y120160D01*
X306438Y118425D01*
D02*
G37*
G36*
X188938Y115925D02*
X187203Y114191D01*
X185468Y115925D01*
X187203Y117660D01*
X188938Y115925D01*
D02*
G37*
G36*
X308938D02*
X307203Y114191D01*
X305468Y115925D01*
X307203Y117660D01*
X308938Y115925D01*
D02*
G37*
G36*
X303938D02*
X302203Y114191D01*
X300468Y115925D01*
X302203Y117660D01*
X303938Y115925D01*
D02*
G37*
G36*
X293938D02*
X292203Y114191D01*
X290468Y115925D01*
X292203Y117660D01*
X293938Y115925D01*
D02*
G37*
G36*
X243938D02*
X242203Y114191D01*
X240468Y115925D01*
X242203Y117660D01*
X243938Y115925D01*
D02*
G37*
G36*
X298938D02*
X297203Y114191D01*
X295468Y115925D01*
X297203Y117660D01*
X298938Y115925D01*
D02*
G37*
G36*
X183938D02*
X182203Y114191D01*
X180468Y115925D01*
X182203Y117660D01*
X183938Y115925D01*
D02*
G37*
G36*
X186438Y113425D02*
X185217Y112205D01*
X184488Y112507D01*
X183795Y112598D01*
X182968Y113425D01*
X184703Y115160D01*
X186438Y113425D01*
D02*
G37*
G36*
X190743Y114120D02*
X190607Y113091D01*
X190665Y112652D01*
X190217Y112205D01*
X189488Y112507D01*
X188795Y112598D01*
X187968Y113425D01*
X189703Y115160D01*
X190743Y114120D01*
D02*
G37*
G36*
X181438Y113425D02*
X180217Y112205D01*
X179488Y112507D01*
X178795Y112598D01*
X178654Y112740D01*
Y114111D01*
X179703Y115160D01*
X181438Y113425D01*
D02*
G37*
G36*
X296438D02*
X294903Y111891D01*
X294887Y111898D01*
X294436Y111957D01*
X292968Y113425D01*
X294703Y115160D01*
X296438Y113425D01*
D02*
G37*
G36*
X306438D02*
X304703Y111691D01*
X302968Y113425D01*
X304703Y115160D01*
X306438Y113425D01*
D02*
G37*
G36*
X301438D02*
X299703Y111691D01*
X297968Y113425D01*
X299703Y115160D01*
X301438Y113425D01*
D02*
G37*
G36*
X303938Y110925D02*
X302203Y109191D01*
X300468Y110925D01*
X302203Y112660D01*
X303938Y110925D01*
D02*
G37*
G36*
X41438Y108425D02*
X39703Y106691D01*
X37968Y108425D01*
X39703Y110160D01*
X41438Y108425D01*
D02*
G37*
G36*
X21438D02*
X19703Y106691D01*
X18053Y108341D01*
X18188Y108498D01*
X18419Y108876D01*
X19703Y110160D01*
X21438Y108425D01*
D02*
G37*
G36*
X29738Y110125D02*
X31438Y108425D01*
X29703Y106691D01*
X27968Y108425D01*
X29676Y110133D01*
X29738Y110125D01*
D02*
G37*
G36*
X36438Y108425D02*
X34703Y106691D01*
X32968Y108425D01*
X34703Y110160D01*
X36438Y108425D01*
D02*
G37*
G36*
X26438D02*
X24703Y106691D01*
X22968Y108425D01*
X24703Y110160D01*
X26438Y108425D01*
D02*
G37*
G36*
X18938Y105925D02*
X17350Y104337D01*
X16849Y104545D01*
X15784Y105610D01*
X15904Y106197D01*
X17081Y107202D01*
X17109Y107235D01*
X17608Y107255D01*
X18938Y105925D01*
D02*
G37*
G36*
X38938D02*
X37203Y104191D01*
X35468Y105925D01*
X37203Y107660D01*
X38938Y105925D01*
D02*
G37*
G36*
X23938D02*
X22203Y104191D01*
X20468Y105925D01*
X22203Y107660D01*
X23938Y105925D01*
D02*
G37*
G36*
X28938D02*
X27203Y104191D01*
X25468Y105925D01*
X27203Y107660D01*
X28938Y105925D01*
D02*
G37*
G36*
X282214Y106912D02*
X282865Y106998D01*
X283938Y105925D01*
X282203Y104191D01*
X280468Y105925D01*
X281543Y107000D01*
X282214Y106912D01*
D02*
G37*
G36*
X33938Y105925D02*
X32203Y104191D01*
X30468Y105925D01*
X32203Y107660D01*
X33938Y105925D01*
D02*
G37*
G36*
X21438Y103425D02*
X19967Y101955D01*
X19414Y102109D01*
X19259Y102482D01*
X18471Y103510D01*
X18445Y103902D01*
X19703Y105160D01*
X21438Y103425D01*
D02*
G37*
G36*
X26438D02*
X24703Y101691D01*
X22968Y103425D01*
X24703Y105160D01*
X26438Y103425D01*
D02*
G37*
G36*
X41438D02*
X39703Y101691D01*
X37968Y103425D01*
X39703Y105160D01*
X41438Y103425D01*
D02*
G37*
G36*
X151438D02*
X149703Y101691D01*
X147968Y103425D01*
X148677Y104134D01*
X150729D01*
X151438Y103425D01*
D02*
G37*
G36*
X31438D02*
X29703Y101691D01*
X27968Y103425D01*
X29703Y105160D01*
X31438Y103425D01*
D02*
G37*
G36*
X36438D02*
X34703Y101691D01*
X32968Y103425D01*
X34703Y105160D01*
X36438Y103425D01*
D02*
G37*
G36*
X28938Y100925D02*
X27203Y99191D01*
X25468Y100925D01*
X27203Y102660D01*
X28938Y100925D01*
D02*
G37*
G36*
X38938D02*
X37203Y99191D01*
X35468Y100925D01*
X37203Y102660D01*
X38938Y100925D01*
D02*
G37*
G36*
X303938D02*
X302203Y99191D01*
X300468Y100925D01*
X302203Y102660D01*
X303938Y100925D01*
D02*
G37*
G36*
X23938D02*
X22203Y99191D01*
X20468Y100925D01*
X22203Y102660D01*
X23938Y100925D01*
D02*
G37*
G36*
X33938D02*
X32203Y99191D01*
X30468Y100925D01*
X32203Y102660D01*
X33938Y100925D01*
D02*
G37*
G36*
X164510Y98838D02*
X163616D01*
X163299Y99225D01*
X163338Y99423D01*
X163216Y100037D01*
X162868Y100558D01*
X162347Y100906D01*
X161732Y101028D01*
X161228Y100928D01*
X160728Y101201D01*
Y104232D01*
X158966D01*
Y122852D01*
X159009Y122880D01*
X159357Y123401D01*
X159480Y124016D01*
X159357Y124630D01*
X159009Y125151D01*
X158966Y125180D01*
Y129052D01*
X159009Y129081D01*
X159357Y129602D01*
X159480Y130217D01*
X159357Y130831D01*
X159009Y131352D01*
X158966Y131381D01*
Y144527D01*
X164510D01*
Y98838D01*
D02*
G37*
G36*
X151438Y98425D02*
X149703Y96691D01*
X148429Y97965D01*
X148495Y98125D01*
X148621Y99078D01*
X149703Y100160D01*
X151438Y98425D01*
D02*
G37*
G36*
X41438D02*
X39703Y96691D01*
X37968Y98425D01*
X39703Y100160D01*
X41438Y98425D01*
D02*
G37*
G36*
X306438D02*
X304703Y96691D01*
X302968Y98425D01*
X304703Y100160D01*
X306438Y98425D01*
D02*
G37*
G36*
X36438D02*
X34703Y96691D01*
X32968Y98425D01*
X34703Y100160D01*
X36438Y98425D01*
D02*
G37*
G36*
X310829Y99033D02*
X310722Y98221D01*
X310782Y97770D01*
X309703Y96691D01*
X307968Y98425D01*
X309703Y100160D01*
X310829Y99033D01*
D02*
G37*
G36*
X11332Y95444D02*
X10921Y95178D01*
X10832Y95188D01*
X10236Y95306D01*
X9622Y95184D01*
X9101Y94836D01*
X8753Y94315D01*
X8631Y93701D01*
X8753Y93086D01*
X9101Y92565D01*
X9622Y92217D01*
X10236Y92095D01*
X10832Y92214D01*
X10921Y92223D01*
X11332Y91958D01*
Y83579D01*
X10832Y83299D01*
X10341Y83397D01*
X9727Y83275D01*
X9206Y82927D01*
X8858Y82406D01*
X8736Y81791D01*
X8858Y81177D01*
X9206Y80656D01*
X9727Y80308D01*
X10341Y80186D01*
X10832Y80283D01*
X11332Y80003D01*
Y70450D01*
X5642D01*
X5561Y70571D01*
Y104725D01*
X11332D01*
Y95444D01*
D02*
G37*
G36*
X303938Y95925D02*
X303117Y95105D01*
X303015Y95147D01*
X301730Y95316D01*
X301154Y95240D01*
X300468Y95925D01*
X302203Y97660D01*
X303938Y95925D01*
D02*
G37*
G36*
X38938D02*
X38051Y95038D01*
X37396Y94952D01*
X36721Y94672D01*
X35468Y95925D01*
X37203Y97660D01*
X38938Y95925D01*
D02*
G37*
G36*
X308938D02*
X307203Y94191D01*
X305468Y95925D01*
X307203Y97660D01*
X308938Y95925D01*
D02*
G37*
G36*
X258938Y90925D02*
X257203Y89191D01*
X255468Y90925D01*
X256539Y91996D01*
X256713Y91973D01*
X257753Y92110D01*
X258938Y90925D01*
D02*
G37*
G36*
X286438Y93425D02*
X284703Y91691D01*
X282968Y93425D01*
X284703Y95160D01*
X286438Y93425D01*
D02*
G37*
G36*
X151438D02*
X149703Y91691D01*
X147968Y93425D01*
X149703Y95160D01*
X151438Y93425D01*
D02*
G37*
G36*
X311438D02*
X309703Y91691D01*
X307968Y93425D01*
X309703Y95160D01*
X311438Y93425D01*
D02*
G37*
G36*
X210558Y93309D02*
X210559Y93201D01*
X210443Y92618D01*
X210566Y92004D01*
X210914Y91483D01*
X211435Y91135D01*
X211516Y91119D01*
X211516Y42421D01*
X199705D01*
X199705Y93701D01*
X204049D01*
X204258Y93309D01*
X204260Y93201D01*
X204144Y92618D01*
X204266Y92004D01*
X204614Y91483D01*
X205135Y91135D01*
X205750Y91013D01*
X206364Y91135D01*
X206885Y91483D01*
X207233Y92004D01*
X207355Y92618D01*
X207240Y93201D01*
X207241Y93309D01*
X207451Y93701D01*
X210348D01*
X210558Y93309D01*
D02*
G37*
G36*
X188637Y91226D02*
X188648Y90636D01*
X187443Y89431D01*
X186910Y89483D01*
X185468Y90925D01*
X187203Y92660D01*
X188637Y91226D01*
D02*
G37*
G36*
X308938Y90925D02*
X307203Y89191D01*
X306618Y89775D01*
X306694Y90352D01*
X306525Y91637D01*
X306424Y91881D01*
X307203Y92660D01*
X308938Y90925D01*
D02*
G37*
G36*
X313938D02*
X312203Y89191D01*
X310468Y90925D01*
X312203Y92660D01*
X313938Y90925D01*
D02*
G37*
G36*
X311438Y88425D02*
X309703Y86691D01*
X307968Y88425D01*
X309703Y90160D01*
X311438Y88425D01*
D02*
G37*
G36*
X261438D02*
X259703Y86691D01*
X257968Y88425D01*
X259703Y90160D01*
X261438Y88425D01*
D02*
G37*
G36*
X256438D02*
X254703Y86691D01*
X252968Y88425D01*
X254703Y90160D01*
X256438Y88425D01*
D02*
G37*
G36*
X127657Y87162D02*
X127696Y87167D01*
X128938Y85925D01*
X128217Y85205D01*
X127657Y85279D01*
X126373Y85110D01*
X126310Y85084D01*
X125468Y85925D01*
X126816Y87273D01*
X127657Y87162D01*
D02*
G37*
G36*
X113938Y85925D02*
X112908Y84895D01*
X112481Y84719D01*
X112013Y84913D01*
X111400Y84993D01*
X110468Y85925D01*
X111695Y87152D01*
X112313Y87233D01*
X112537Y87326D01*
X113938Y85925D01*
D02*
G37*
G36*
X117669Y87194D02*
X118938Y85925D01*
X118033Y85021D01*
X117213Y84913D01*
X116695Y84698D01*
X115468Y85925D01*
X116846Y87302D01*
X117669Y87194D01*
D02*
G37*
G36*
X122519Y87343D02*
X123938Y85925D01*
X123099Y85086D01*
X122529Y85011D01*
X121718Y84675D01*
X120468Y85925D01*
X121939Y87396D01*
X122519Y87343D01*
D02*
G37*
G36*
X308938Y85925D02*
X307203Y84191D01*
X306632Y84762D01*
X306694Y85234D01*
X306526Y86514D01*
X306597Y87054D01*
X307203Y87660D01*
X308938Y85925D01*
D02*
G37*
G36*
X188938D02*
X187203Y84191D01*
X185468Y85925D01*
X187203Y87660D01*
X188938Y85925D01*
D02*
G37*
G36*
X148938D02*
X147203Y84191D01*
X145468Y85925D01*
X147203Y87660D01*
X148938Y85925D01*
D02*
G37*
G36*
X313938D02*
X312203Y84191D01*
X310468Y85925D01*
X312203Y87660D01*
X313938Y85925D01*
D02*
G37*
G36*
X151438Y83425D02*
X149703Y81691D01*
X147968Y83425D01*
X149703Y85160D01*
X151438Y83425D01*
D02*
G37*
G36*
X191438D02*
X189703Y81691D01*
X187968Y83425D01*
X189703Y85160D01*
X191438Y83425D01*
D02*
G37*
G36*
X146438D02*
X144703Y81691D01*
X142968Y83425D01*
X144703Y85160D01*
X146438Y83425D01*
D02*
G37*
G36*
X186438D02*
X184703Y81691D01*
X182968Y83425D01*
X184703Y85160D01*
X186438Y83425D01*
D02*
G37*
G36*
X311438D02*
X309703Y81691D01*
X307968Y83425D01*
X309703Y85160D01*
X311438Y83425D01*
D02*
G37*
G36*
X64468Y90204D02*
X64468Y87894D01*
X65256Y87106D01*
X66634D01*
X68799Y84941D01*
Y81693D01*
X67913Y80807D01*
X60433D01*
Y90557D01*
X64115D01*
X64468Y90204D01*
D02*
G37*
G36*
X178563Y81300D02*
X178630Y80618D01*
X177526Y79514D01*
X176874Y79519D01*
X175468Y80925D01*
X177203Y82660D01*
X178563Y81300D01*
D02*
G37*
G36*
X148938Y80925D02*
X147203Y79191D01*
X145468Y80925D01*
X147203Y82660D01*
X148938Y80925D01*
D02*
G37*
G36*
X153938D02*
X152203Y79191D01*
X150468Y80925D01*
X152203Y82660D01*
X153938Y80925D01*
D02*
G37*
G36*
X138938D02*
X137203Y79191D01*
X136328Y80065D01*
X136361Y80315D01*
X136192Y81600D01*
X136178Y81635D01*
X137203Y82660D01*
X138938Y80925D01*
D02*
G37*
G36*
X188938D02*
X187203Y79191D01*
X185468Y80925D01*
X187203Y82660D01*
X188938Y80925D01*
D02*
G37*
G36*
X193938D02*
X192203Y79191D01*
X190468Y80925D01*
X192203Y82660D01*
X193938Y80925D01*
D02*
G37*
G36*
X143938D02*
X142203Y79191D01*
X141305Y80089D01*
X141254Y80610D01*
X141374Y81831D01*
X142203Y82660D01*
X143938Y80925D01*
D02*
G37*
G36*
X183938D02*
X182203Y79191D01*
X180468Y80925D01*
X182203Y82660D01*
X183938Y80925D01*
D02*
G37*
G36*
X308938D02*
X307203Y79191D01*
X306167Y80226D01*
X306105Y80376D01*
X306525Y81390D01*
X306615Y82072D01*
X307203Y82660D01*
X308938Y80925D01*
D02*
G37*
G36*
X313938D02*
X312203Y79191D01*
X310468Y80925D01*
X312203Y82660D01*
X313938Y80925D01*
D02*
G37*
G36*
X51772Y82593D02*
X48031D01*
Y80230D01*
X51772D01*
Y78839D01*
X48313Y78839D01*
X47336Y77861D01*
X42618D01*
X42618Y84978D01*
X46888D01*
X48524Y86614D01*
X48524Y90256D01*
X51772D01*
Y82593D01*
D02*
G37*
G36*
X156275Y78588D02*
X156133Y78120D01*
X155951Y77939D01*
X155890Y77920D01*
X154522Y77189D01*
X154348Y77046D01*
X152968Y78425D01*
X154703Y80160D01*
X156275Y78588D01*
D02*
G37*
G36*
X151438Y78425D02*
X149703Y76691D01*
X147968Y78425D01*
X149703Y80160D01*
X151438Y78425D01*
D02*
G37*
G36*
X146438D02*
X144703Y76691D01*
X142968Y78425D01*
X144703Y80160D01*
X146438Y78425D01*
D02*
G37*
G36*
X290460Y79403D02*
X290397Y78922D01*
X290566Y77638D01*
X290591Y77578D01*
X289703Y76691D01*
X288081Y78312D01*
X288824Y79281D01*
X289703Y80160D01*
X290460Y79403D01*
D02*
G37*
G36*
X191438Y78425D02*
X189703Y76691D01*
X187968Y78425D01*
X189703Y80160D01*
X191438Y78425D01*
D02*
G37*
G36*
X186438D02*
X184703Y76691D01*
X182968Y78425D01*
X184703Y80160D01*
X186438Y78425D01*
D02*
G37*
G36*
X311438D02*
X309703Y76691D01*
X307968Y78425D01*
X309703Y80160D01*
X311438Y78425D01*
D02*
G37*
G36*
X153339Y76524D02*
X153323Y76205D01*
X152339Y75006D01*
X152178Y74705D01*
X151689D01*
X150468Y75925D01*
X152203Y77660D01*
X153339Y76524D01*
D02*
G37*
G36*
X148938Y75925D02*
X147717Y74705D01*
X146689D01*
X145468Y75925D01*
X147203Y77660D01*
X148938Y75925D01*
D02*
G37*
G36*
X288938D02*
X287671Y74659D01*
X287033Y74728D01*
X286461Y75473D01*
X285944Y75869D01*
X285911Y76368D01*
X286857Y77314D01*
X287496Y77366D01*
X288938Y75925D01*
D02*
G37*
G36*
X258938D02*
X257203Y74191D01*
X255468Y75925D01*
X257203Y77660D01*
X258938Y75925D01*
D02*
G37*
G36*
X263938D02*
X262203Y74191D01*
X260468Y75925D01*
X261271Y76728D01*
X261816Y76800D01*
X262698Y77165D01*
X263938Y75925D01*
D02*
G37*
G36*
X256438Y73425D02*
X255178Y72165D01*
X254339Y72055D01*
X252968Y73425D01*
X254703Y75160D01*
X256438Y73425D01*
D02*
G37*
G36*
X291438D02*
X290112Y72100D01*
X289403Y72006D01*
X289392Y72002D01*
X287968Y73425D01*
X289703Y75160D01*
X291438Y73425D01*
D02*
G37*
G36*
X261438D02*
X260040Y72028D01*
X259875Y72006D01*
X259530Y71863D01*
X257968Y73425D01*
X259703Y75160D01*
X261438Y73425D01*
D02*
G37*
G36*
X294076Y74128D02*
X295360Y73959D01*
X295841Y74022D01*
X296438Y73425D01*
X294814Y71802D01*
X294657Y71737D01*
X292968Y73425D01*
X293789Y74246D01*
X294076Y74128D01*
D02*
G37*
G36*
X26438Y73425D02*
X24703Y71691D01*
X22968Y73425D01*
X24346Y74803D01*
X25060D01*
X26438Y73425D01*
D02*
G37*
G36*
X241438D02*
X239703Y71691D01*
X237968Y73425D01*
X239703Y75160D01*
X241438Y73425D01*
D02*
G37*
G36*
X266438D02*
X264703Y71691D01*
X262968Y73425D01*
X264703Y75160D01*
X266438Y73425D01*
D02*
G37*
G36*
X21438D02*
X19703Y71691D01*
X18494Y72899D01*
X19259Y73896D01*
X19597Y74712D01*
X20097Y74766D01*
X21438Y73425D01*
D02*
G37*
G36*
X11909Y110236D02*
X4921D01*
Y70571D01*
X1476D01*
Y114075D01*
X11909D01*
Y110236D01*
D02*
G37*
G36*
X33938Y70925D02*
X32813Y69800D01*
X31971Y70149D01*
X31135Y70259D01*
X30468Y70925D01*
X32203Y72660D01*
X33938Y70925D01*
D02*
G37*
G36*
X23938D02*
X23240Y70228D01*
X22640Y70149D01*
X21653Y69740D01*
X20468Y70925D01*
X22203Y72660D01*
X23938Y70925D01*
D02*
G37*
G36*
X28938D02*
X27203Y69191D01*
X25468Y70925D01*
X27203Y72660D01*
X28938Y70925D01*
D02*
G37*
G36*
X268938D02*
X267203Y69191D01*
X265468Y70925D01*
X267203Y72660D01*
X268938Y70925D01*
D02*
G37*
G36*
X96438Y63425D02*
X94703Y61691D01*
X94095Y62299D01*
Y64551D01*
X94703Y65160D01*
X96438Y63425D01*
D02*
G37*
G36*
X84679Y59817D02*
X85707Y59028D01*
X85925Y58938D01*
X86438Y58425D01*
X84703Y56691D01*
X82968Y58425D01*
X84380Y59837D01*
X84679Y59817D01*
D02*
G37*
G36*
X188938Y55925D02*
X187203Y54191D01*
X185468Y55925D01*
X187203Y57660D01*
X188938Y55925D01*
D02*
G37*
G36*
X43938D02*
X42203Y54191D01*
X40468Y55925D01*
X42203Y57660D01*
X43938Y55925D01*
D02*
G37*
G36*
X63938D02*
X62203Y54191D01*
X61174Y55220D01*
X60861Y55974D01*
X60712Y56169D01*
X62203Y57660D01*
X63938Y55925D01*
D02*
G37*
G36*
X46438Y53425D02*
X44703Y51691D01*
X42968Y53425D01*
X44703Y55160D01*
X46438Y53425D01*
D02*
G37*
G36*
X191438D02*
X189703Y51691D01*
X187968Y53425D01*
X189703Y55160D01*
X191438Y53425D01*
D02*
G37*
G36*
X150335Y54527D02*
X150426Y54309D01*
X151215Y53281D01*
X151219Y53207D01*
X149703Y51691D01*
X147968Y53425D01*
X149703Y55160D01*
X150335Y54527D01*
D02*
G37*
G36*
X188938Y50925D02*
X187860Y49848D01*
X186707Y49696D01*
X186700Y49693D01*
X185468Y50925D01*
X187203Y52660D01*
X188938Y50925D01*
D02*
G37*
G36*
X193938D02*
X192203Y49191D01*
X190468Y50925D01*
X192203Y52660D01*
X193938Y50925D01*
D02*
G37*
G36*
X142416Y51997D02*
X142934Y51929D01*
X143938Y50925D01*
X142203Y49191D01*
X140514Y50880D01*
X140487Y50944D01*
X141797Y52253D01*
X142416Y51997D01*
D02*
G37*
G36*
X43938Y50925D02*
X42203Y49191D01*
X40468Y50925D01*
X42203Y52660D01*
X43938Y50925D01*
D02*
G37*
G36*
X148938D02*
X147203Y49191D01*
X145468Y50925D01*
X147203Y52660D01*
X148938Y50925D01*
D02*
G37*
G36*
X103938D02*
X102203Y49191D01*
X100468Y50925D01*
X102203Y52660D01*
X103938Y50925D01*
D02*
G37*
G36*
X152243Y52493D02*
X152460Y52402D01*
X153938Y50925D01*
X152203Y49191D01*
X150468Y50925D01*
X152126Y52582D01*
X152243Y52493D01*
D02*
G37*
G36*
X101438Y48425D02*
X100112Y47100D01*
X99613Y47133D01*
X99319Y47515D01*
X98440Y48190D01*
X98335Y48792D01*
X99174Y49631D01*
X99319Y49742D01*
X99360Y49796D01*
X99923Y49940D01*
X101438Y48425D01*
D02*
G37*
G36*
X151438D02*
X149703Y46691D01*
X147968Y48425D01*
X149703Y50160D01*
X151438Y48425D01*
D02*
G37*
G36*
X146438D02*
X144703Y46691D01*
X142968Y48425D01*
X144703Y50160D01*
X146438Y48425D01*
D02*
G37*
G36*
X46438D02*
X44703Y46691D01*
X42968Y48425D01*
X44703Y50160D01*
X46438Y48425D01*
D02*
G37*
G36*
X131168Y48695D02*
X131158Y48622D01*
X131214Y48201D01*
X129703Y46691D01*
X127968Y48425D01*
X129703Y50160D01*
X131168Y48695D01*
D02*
G37*
G36*
X106438Y48425D02*
X104703Y46691D01*
X102968Y48425D01*
X104703Y50160D01*
X106438Y48425D01*
D02*
G37*
G36*
X166438D02*
X164703Y46691D01*
X164006Y47387D01*
X163649Y48250D01*
X163277Y48734D01*
X164703Y50160D01*
X166438Y48425D01*
D02*
G37*
G36*
X148938Y45925D02*
X147203Y44191D01*
X145468Y45925D01*
X147203Y47660D01*
X148938Y45925D01*
D02*
G37*
G36*
X123938D02*
X122203Y44191D01*
X120594Y45799D01*
X120847Y46254D01*
X122076Y46549D01*
X122952Y46911D01*
X123938Y45925D01*
D02*
G37*
G36*
X153938D02*
X152203Y44191D01*
X150468Y45925D01*
X152203Y47660D01*
X153938Y45925D01*
D02*
G37*
G36*
X103938D02*
X102203Y44191D01*
X100468Y45925D01*
X102203Y47660D01*
X103938Y45925D01*
D02*
G37*
G36*
X143938D02*
X142203Y44191D01*
X140468Y45925D01*
X142203Y47660D01*
X143938Y45925D01*
D02*
G37*
G36*
X183338Y46525D02*
X183197Y46186D01*
X183046Y45033D01*
X182203Y44191D01*
X180468Y45925D01*
X182203Y47660D01*
X183338Y46525D01*
D02*
G37*
G36*
X168938Y45925D02*
X167203Y44191D01*
X165468Y45925D01*
X167203Y47660D01*
X168938Y45925D01*
D02*
G37*
G36*
X128938D02*
X127203Y44191D01*
X125468Y45925D01*
X127203Y47660D01*
X128938Y45925D01*
D02*
G37*
G36*
X166438Y43425D02*
X165219Y42207D01*
X164533Y42491D01*
X163806Y42587D01*
X163414Y42979D01*
X163649Y43286D01*
X164145Y44483D01*
X164163Y44620D01*
X164703Y45160D01*
X166438Y43425D01*
D02*
G37*
G36*
X141438D02*
X140322Y42310D01*
X139236Y42167D01*
X139229Y42164D01*
X137968Y43425D01*
X139703Y45160D01*
X141438Y43425D01*
D02*
G37*
G36*
X151438D02*
X150975Y42962D01*
X150176Y42632D01*
X149376Y42017D01*
X147968Y43425D01*
X149703Y45160D01*
X151438Y43425D01*
D02*
G37*
G36*
X126438D02*
X124703Y41691D01*
X122968Y43425D01*
X124703Y45160D01*
X126438Y43425D01*
D02*
G37*
G36*
X146438D02*
X144703Y41691D01*
X142968Y43425D01*
X144703Y45160D01*
X146438Y43425D01*
D02*
G37*
G36*
X46438D02*
X44703Y41691D01*
X43539Y42855D01*
X43546Y42913D01*
X43420Y43876D01*
X44703Y45160D01*
X46438Y43425D01*
D02*
G37*
G36*
X121438D02*
X119703Y41691D01*
X117968Y43425D01*
X119703Y45160D01*
X121438Y43425D01*
D02*
G37*
G36*
X131438D02*
X129703Y41691D01*
X127968Y43425D01*
X129703Y45160D01*
X131438Y43425D01*
D02*
G37*
G36*
X103938Y40925D02*
X102352Y39340D01*
X102009Y39385D01*
X101086Y40308D01*
X100854Y40868D01*
X100662Y41118D01*
X102203Y42660D01*
X103938Y40925D01*
D02*
G37*
G36*
X128938D02*
X127203Y39191D01*
X125468Y40925D01*
X127203Y42660D01*
X128938Y40925D01*
D02*
G37*
G36*
X118938D02*
X117203Y39191D01*
X115468Y40925D01*
X117203Y42660D01*
X118938Y40925D01*
D02*
G37*
G36*
X123938D02*
X122203Y39191D01*
X120468Y40925D01*
X122203Y42660D01*
X123938Y40925D01*
D02*
G37*
G36*
X183938D02*
X182203Y39191D01*
X181003Y40390D01*
X180942Y40854D01*
X180783Y41240D01*
X182203Y42660D01*
X183938Y40925D01*
D02*
G37*
G36*
X133938D02*
X132203Y39191D01*
X130468Y40925D01*
X132203Y42660D01*
X133938Y40925D01*
D02*
G37*
G36*
X131438Y38425D02*
X129703Y36691D01*
X127968Y38425D01*
X129703Y40160D01*
X131438Y38425D01*
D02*
G37*
G36*
X135866Y38996D02*
X135726Y38657D01*
X135583Y37571D01*
X134703Y36691D01*
X132968Y38425D01*
X134703Y40160D01*
X135866Y38996D01*
D02*
G37*
G36*
X121438Y38425D02*
X119703Y36691D01*
X117968Y38425D01*
X119703Y40160D01*
X121438Y38425D01*
D02*
G37*
G36*
X126438D02*
X124703Y36691D01*
X122968Y38425D01*
X124703Y40160D01*
X126438Y38425D01*
D02*
G37*
G36*
X133938Y35925D02*
X132714Y34701D01*
X131811Y34583D01*
X130468Y35925D01*
X132203Y37660D01*
X133938Y35925D01*
D02*
G37*
G36*
X128938D02*
X127203Y34191D01*
X125468Y35925D01*
X127203Y37660D01*
X128938Y35925D01*
D02*
G37*
G36*
X118938D02*
X117203Y34191D01*
X115468Y35925D01*
X117203Y37660D01*
X118938Y35925D01*
D02*
G37*
G36*
X123938D02*
X122203Y34191D01*
X120468Y35925D01*
X122203Y37660D01*
X123938Y35925D01*
D02*
G37*
G36*
X126438Y33425D02*
X124703Y31691D01*
X122968Y33425D01*
X124703Y35160D01*
X126438Y33425D01*
D02*
G37*
G36*
X121438D02*
X119703Y31691D01*
X117968Y33425D01*
X119703Y35160D01*
X121438Y33425D01*
D02*
G37*
G36*
X123938Y30925D02*
X122203Y29191D01*
X120468Y30925D01*
X122203Y32660D01*
X123938Y30925D01*
D02*
G37*
G36*
X128337Y31525D02*
X128141Y31052D01*
X128001Y29989D01*
X127203Y29191D01*
X125468Y30925D01*
X127203Y32660D01*
X128337Y31525D01*
D02*
G37*
G36*
X201438Y28425D02*
X199784Y26772D01*
X199622D01*
X197968Y28425D01*
X199703Y30160D01*
X201438Y28425D01*
D02*
G37*
G36*
X126438D02*
X124784Y26772D01*
X124622D01*
X122968Y28425D01*
X124703Y30160D01*
X126438Y28425D01*
D02*
G37*
G36*
X23819Y19488D02*
X16634D01*
Y27756D01*
X23819D01*
Y19488D01*
D02*
G37*
G36*
X90945Y4675D02*
X75138D01*
Y4764D01*
X71516D01*
Y4675D01*
X51516D01*
Y4764D01*
X47894D01*
Y4675D01*
X19587D01*
Y9500D01*
X20087Y9549D01*
X20104Y9461D01*
X20170Y9130D01*
X20518Y8609D01*
X21039Y8261D01*
X21654Y8139D01*
X22268Y8261D01*
X22789Y8609D01*
X23137Y9130D01*
X23259Y9744D01*
X23137Y10359D01*
X22789Y10880D01*
X22268Y11227D01*
X21654Y11350D01*
X21039Y11227D01*
X20518Y10880D01*
X20170Y10359D01*
X20104Y10027D01*
X20087Y9939D01*
X19587Y9988D01*
Y13733D01*
X20087Y13782D01*
X20104Y13694D01*
X20170Y13362D01*
X20518Y12841D01*
X21039Y12493D01*
X21654Y12371D01*
X22268Y12493D01*
X22789Y12841D01*
X23137Y13362D01*
X23259Y13976D01*
X23137Y14591D01*
X22789Y15112D01*
X22268Y15460D01*
X21654Y15582D01*
X21039Y15460D01*
X20518Y15112D01*
X20170Y14591D01*
X20104Y14259D01*
X20087Y14171D01*
X19587Y14220D01*
Y16535D01*
X67134D01*
X67217Y16118D01*
X67565Y15597D01*
X68086Y15249D01*
X68701Y15127D01*
X69315Y15249D01*
X69836Y15597D01*
X70184Y16118D01*
X70267Y16535D01*
X90945D01*
Y4675D01*
D02*
G37*
G36*
X196062D02*
X182323D01*
Y4764D01*
X178701D01*
Y4675D01*
X142756D01*
Y4764D01*
X139134D01*
Y4675D01*
X134882D01*
Y4764D01*
X131260D01*
Y4675D01*
X110728D01*
Y16031D01*
X111249Y16135D01*
X111770Y16483D01*
X111914Y16698D01*
X131082D01*
X131194Y16135D01*
X131588Y15545D01*
X132178Y15151D01*
X132874Y15012D01*
X133570Y15151D01*
X134160Y15545D01*
X134554Y16135D01*
X134666Y16698D01*
X173977D01*
X174461Y16634D01*
X174469Y16597D01*
Y14921D01*
X175748D01*
X176279Y14816D01*
X176812Y14921D01*
X178091D01*
Y16597D01*
X178098Y16634D01*
X178582Y16698D01*
X196062D01*
Y4675D01*
D02*
G37*
G36*
X15945Y4035D02*
X209252D01*
Y1295D01*
X1000Y1295D01*
X1000Y27953D01*
X15945D01*
Y4035D01*
D02*
G37*
%LPC*%
G36*
X32677Y265582D02*
X32063Y265460D01*
X31542Y265112D01*
X31194Y264591D01*
X31071Y263976D01*
X31194Y263362D01*
X31542Y262841D01*
X32063Y262493D01*
X32677Y262371D01*
X33292Y262493D01*
X33812Y262841D01*
X34161Y263362D01*
X34283Y263976D01*
X34161Y264591D01*
X33812Y265112D01*
X33292Y265460D01*
X32677Y265582D01*
D02*
G37*
G36*
X28445D02*
X27830Y265460D01*
X27310Y265112D01*
X26961Y264591D01*
X26839Y263976D01*
X26961Y263362D01*
X27310Y262841D01*
X27830Y262493D01*
X28445Y262371D01*
X29059Y262493D01*
X29580Y262841D01*
X29928Y263362D01*
X30051Y263976D01*
X29928Y264591D01*
X29580Y265112D01*
X29059Y265460D01*
X28445Y265582D01*
D02*
G37*
G36*
X49606Y265201D02*
X48992Y265078D01*
X48471Y264730D01*
X48123Y264210D01*
X48001Y263595D01*
X48123Y262981D01*
X48471Y262460D01*
X48992Y262112D01*
X49606Y261989D01*
X50221Y262112D01*
X50742Y262460D01*
X51090Y262981D01*
X51212Y263595D01*
X51090Y264210D01*
X50742Y264730D01*
X50221Y265078D01*
X49606Y265201D01*
D02*
G37*
G36*
X53952Y265111D02*
X53337Y264989D01*
X52816Y264641D01*
X52468Y264120D01*
X52346Y263506D01*
X52468Y262891D01*
X52816Y262370D01*
X53337Y262022D01*
X53952Y261900D01*
X54566Y262022D01*
X55087Y262370D01*
X55435Y262891D01*
X55557Y263506D01*
X55435Y264120D01*
X55087Y264641D01*
X54566Y264989D01*
X53952Y265111D01*
D02*
G37*
G36*
X71879Y260637D02*
X71264Y260514D01*
X70743Y260166D01*
X70395Y259645D01*
X70273Y259031D01*
X70395Y258417D01*
X70743Y257896D01*
X71264Y257547D01*
X71879Y257425D01*
X72493Y257547D01*
X73014Y257896D01*
X73362Y258417D01*
X73484Y259031D01*
X73362Y259645D01*
X73014Y260166D01*
X72493Y260514D01*
X71879Y260637D01*
D02*
G37*
G36*
X157874Y264200D02*
X157260Y264077D01*
X156739Y263729D01*
X156391Y263209D01*
X156268Y262594D01*
X156391Y261980D01*
X156739Y261459D01*
X157260Y261111D01*
X157874Y260988D01*
X158489Y261111D01*
X159009Y261459D01*
X159358Y261980D01*
X159480Y262594D01*
X159358Y263209D01*
X159009Y263729D01*
X158489Y264077D01*
X157874Y264200D01*
D02*
G37*
G36*
X189862Y262791D02*
X189248Y262669D01*
X188727Y262320D01*
X188379Y261800D01*
X188257Y261185D01*
X188372Y260604D01*
X188298Y260507D01*
X187983Y260262D01*
X187918Y260306D01*
X187303Y260429D01*
X186689Y260306D01*
X186168Y259958D01*
X185820Y259437D01*
X185697Y258823D01*
X185820Y258208D01*
X186168Y257688D01*
X186689Y257340D01*
X187303Y257217D01*
X187918Y257340D01*
X188438Y257688D01*
X188787Y258208D01*
X188909Y258823D01*
X188793Y259404D01*
X188868Y259501D01*
X189182Y259746D01*
X189248Y259702D01*
X189862Y259579D01*
X190477Y259702D01*
X190998Y260050D01*
X191346Y260571D01*
X191468Y261185D01*
X191346Y261800D01*
X190998Y262320D01*
X190477Y262669D01*
X189862Y262791D01*
D02*
G37*
G36*
X150229Y262903D02*
X149615Y262781D01*
X149094Y262433D01*
X148746Y261912D01*
X148623Y261297D01*
X148746Y260683D01*
X149094Y260162D01*
X149615Y259814D01*
X150229Y259692D01*
X150843Y259814D01*
X151364Y260162D01*
X151712Y260683D01*
X151835Y261297D01*
X151712Y261912D01*
X151364Y262433D01*
X150843Y262781D01*
X150229Y262903D01*
D02*
G37*
G36*
X130217Y262236D02*
X129602Y262113D01*
X129081Y261765D01*
X128733Y261244D01*
X128611Y260630D01*
X128733Y260016D01*
X129081Y259495D01*
X129602Y259146D01*
X130217Y259024D01*
X130831Y259146D01*
X131352Y259495D01*
X131700Y260016D01*
X131822Y260630D01*
X131700Y261244D01*
X131352Y261765D01*
X130831Y262113D01*
X130217Y262236D01*
D02*
G37*
G36*
X214311Y249055D02*
X210689D01*
Y245433D01*
X214311D01*
Y249055D01*
D02*
G37*
G36*
X212500Y241020D02*
X211885Y240898D01*
X211365Y240550D01*
X211017Y240029D01*
X210894Y239415D01*
X211017Y238800D01*
X211365Y238279D01*
X211885Y237931D01*
X212500Y237809D01*
X213115Y237931D01*
X213635Y238279D01*
X213983Y238800D01*
X214106Y239415D01*
X213983Y240029D01*
X213635Y240550D01*
X213115Y240898D01*
X212500Y241020D01*
D02*
G37*
G36*
X214311Y233307D02*
X210689D01*
Y229685D01*
X214311D01*
Y233307D01*
D02*
G37*
G36*
Y225433D02*
X210689D01*
Y221811D01*
X214311D01*
Y225433D01*
D02*
G37*
G36*
X299764Y209764D02*
X299149Y209641D01*
X298628Y209293D01*
X298280Y208772D01*
X298158Y208158D01*
X298280Y207544D01*
X298628Y207023D01*
X299149Y206675D01*
X299764Y206552D01*
X300378Y206675D01*
X300899Y207023D01*
X301247Y207544D01*
X301369Y208158D01*
X301247Y208772D01*
X300899Y209293D01*
X300378Y209641D01*
X299764Y209764D01*
D02*
G37*
G36*
X284016D02*
X283401Y209641D01*
X282880Y209293D01*
X282532Y208772D01*
X282410Y208158D01*
X282532Y207544D01*
X282880Y207023D01*
X283401Y206675D01*
X284016Y206552D01*
X284630Y206675D01*
X285151Y207023D01*
X285499Y207544D01*
X285621Y208158D01*
X285499Y208772D01*
X285151Y209293D01*
X284630Y209641D01*
X284016Y209764D01*
D02*
G37*
G36*
X276142D02*
X275527Y209641D01*
X275006Y209293D01*
X274658Y208772D01*
X274536Y208158D01*
X274658Y207544D01*
X275006Y207023D01*
X275527Y206675D01*
X276142Y206552D01*
X276756Y206675D01*
X277277Y207023D01*
X277625Y207544D01*
X277747Y208158D01*
X277625Y208772D01*
X277277Y209293D01*
X276756Y209641D01*
X276142Y209764D01*
D02*
G37*
G36*
X268268D02*
X267653Y209641D01*
X267132Y209293D01*
X266784Y208772D01*
X266662Y208158D01*
X266784Y207544D01*
X267132Y207023D01*
X267653Y206675D01*
X268268Y206552D01*
X268882Y206675D01*
X269403Y207023D01*
X269751Y207544D01*
X269873Y208158D01*
X269751Y208772D01*
X269403Y209293D01*
X268882Y209641D01*
X268268Y209764D01*
D02*
G37*
G36*
X260394D02*
X259779Y209641D01*
X259258Y209293D01*
X258910Y208772D01*
X258788Y208158D01*
X258910Y207544D01*
X259258Y207023D01*
X259779Y206675D01*
X260394Y206552D01*
X261008Y206675D01*
X261529Y207023D01*
X261877Y207544D01*
X261999Y208158D01*
X261877Y208772D01*
X261529Y209293D01*
X261008Y209641D01*
X260394Y209764D01*
D02*
G37*
G36*
X252520D02*
X251905Y209641D01*
X251384Y209293D01*
X251036Y208772D01*
X250914Y208158D01*
X251036Y207544D01*
X251384Y207023D01*
X251905Y206675D01*
X252520Y206552D01*
X253134Y206675D01*
X253655Y207023D01*
X254003Y207544D01*
X254125Y208158D01*
X254003Y208772D01*
X253655Y209293D01*
X253134Y209641D01*
X252520Y209764D01*
D02*
G37*
G36*
X244646D02*
X244031Y209641D01*
X243510Y209293D01*
X243162Y208772D01*
X243040Y208158D01*
X243162Y207544D01*
X243510Y207023D01*
X244031Y206675D01*
X244646Y206552D01*
X245260Y206675D01*
X245781Y207023D01*
X246129Y207544D01*
X246251Y208158D01*
X246129Y208772D01*
X245781Y209293D01*
X245260Y209641D01*
X244646Y209764D01*
D02*
G37*
G36*
X327506Y176228D02*
X326810Y176089D01*
X326220Y175695D01*
X325826Y175105D01*
X325688Y174409D01*
X325826Y173714D01*
X326220Y173124D01*
X326810Y172730D01*
X327506Y172591D01*
X328202Y172730D01*
X328792Y173124D01*
X329186Y173714D01*
X329325Y174409D01*
X329186Y175105D01*
X328792Y175695D01*
X328202Y176089D01*
X327506Y176228D01*
D02*
G37*
G36*
X327506Y124069D02*
X326810Y123931D01*
X326220Y123537D01*
X325826Y122947D01*
X325688Y122251D01*
X325826Y121555D01*
X326220Y120965D01*
X326810Y120571D01*
X327506Y120432D01*
X328202Y120571D01*
X328792Y120965D01*
X329186Y121555D01*
X329325Y122251D01*
X329186Y122947D01*
X328792Y123537D01*
X328202Y123931D01*
X327506Y124069D01*
D02*
G37*
G36*
X225295Y91960D02*
X224681Y91838D01*
X224160Y91490D01*
X223812Y90969D01*
X223690Y90354D01*
X223812Y89740D01*
X224160Y89219D01*
X224681Y88871D01*
X225295Y88749D01*
X225910Y88871D01*
X226431Y89219D01*
X226779Y89740D01*
X226901Y90354D01*
X226779Y90969D01*
X226431Y91490D01*
X225910Y91838D01*
X225295Y91960D01*
D02*
G37*
G36*
X327801Y80739D02*
X327187Y80617D01*
X326666Y80269D01*
X326318Y79748D01*
X326196Y79134D01*
X326318Y78519D01*
X326666Y77999D01*
X327187Y77650D01*
X327801Y77528D01*
X328416Y77650D01*
X328937Y77999D01*
X329285Y78519D01*
X329407Y79134D01*
X329285Y79748D01*
X328937Y80269D01*
X328416Y80617D01*
X327801Y80739D01*
D02*
G37*
G36*
X211910Y36976D02*
X211295Y36854D01*
X210774Y36506D01*
X210426Y35985D01*
X210304Y35370D01*
X210426Y34756D01*
X210774Y34235D01*
X211295Y33887D01*
X211910Y33765D01*
X212524Y33887D01*
X213045Y34235D01*
X213393Y34756D01*
X213515Y35370D01*
X213393Y35985D01*
X213045Y36506D01*
X212524Y36854D01*
X211910Y36976D01*
D02*
G37*
G36*
X38878Y176666D02*
X38263Y176544D01*
X37743Y176196D01*
X37394Y175675D01*
X37272Y175061D01*
X37394Y174446D01*
X37743Y173925D01*
X38263Y173577D01*
X38878Y173455D01*
X39492Y173577D01*
X40013Y173925D01*
X40361Y174446D01*
X40484Y175061D01*
X40361Y175675D01*
X40013Y176196D01*
X39492Y176544D01*
X38878Y176666D01*
D02*
G37*
G36*
X55315Y162629D02*
X54700Y162507D01*
X54180Y162159D01*
X53831Y161638D01*
X53709Y161024D01*
X53831Y160409D01*
X54180Y159888D01*
X54700Y159540D01*
X55315Y159418D01*
X55929Y159540D01*
X56450Y159888D01*
X56798Y160409D01*
X56921Y161024D01*
X56798Y161638D01*
X56450Y162159D01*
X55929Y162507D01*
X55315Y162629D01*
D02*
G37*
G36*
X140979Y163620D02*
X140365Y163498D01*
X139844Y163150D01*
X139496Y162629D01*
X139374Y162015D01*
X139496Y161400D01*
X139844Y160879D01*
X140365Y160531D01*
X140979Y160409D01*
X141594Y160531D01*
X142115Y160879D01*
X142463Y161400D01*
X142585Y162015D01*
X142463Y162629D01*
X142115Y163150D01*
X141594Y163498D01*
X140979Y163620D01*
D02*
G37*
G36*
X131004Y163613D02*
X130389Y163491D01*
X129869Y163143D01*
X129520Y162622D01*
X129398Y162008D01*
X129520Y161393D01*
X129869Y160872D01*
X130389Y160524D01*
X131004Y160402D01*
X131618Y160524D01*
X132139Y160872D01*
X132487Y161393D01*
X132610Y162008D01*
X132487Y162622D01*
X132139Y163143D01*
X131618Y163491D01*
X131004Y163613D01*
D02*
G37*
G36*
X162008Y131822D02*
X161393Y131700D01*
X160872Y131352D01*
X160524Y130831D01*
X160402Y130217D01*
X160524Y129602D01*
X160872Y129081D01*
X161393Y128733D01*
X162008Y128611D01*
X162622Y128733D01*
X163143Y129081D01*
X163491Y129602D01*
X163613Y130217D01*
X163491Y130831D01*
X163143Y131352D01*
X162622Y131700D01*
X162008Y131822D01*
D02*
G37*
G36*
X162106Y125621D02*
X161492Y125499D01*
X160971Y125151D01*
X160623Y124630D01*
X160501Y124016D01*
X160623Y123401D01*
X160971Y122880D01*
X161492Y122532D01*
X162106Y122410D01*
X162721Y122532D01*
X163242Y122880D01*
X163590Y123401D01*
X163712Y124016D01*
X163590Y124630D01*
X163242Y125151D01*
X162721Y125499D01*
X162106Y125621D01*
D02*
G37*
G36*
X9055Y101606D02*
X8441Y101483D01*
X7920Y101135D01*
X7572Y100615D01*
X7450Y100000D01*
X7572Y99385D01*
X7920Y98865D01*
X8441Y98517D01*
X9055Y98394D01*
X9670Y98517D01*
X10191Y98865D01*
X10538Y99385D01*
X10661Y100000D01*
X10538Y100615D01*
X10191Y101135D01*
X9670Y101483D01*
X9055Y101606D01*
D02*
G37*
G36*
Y77984D02*
X8441Y77861D01*
X7920Y77513D01*
X7572Y76992D01*
X7450Y76378D01*
X7572Y75763D01*
X7920Y75243D01*
X8441Y74894D01*
X9055Y74772D01*
X9670Y74894D01*
X10191Y75243D01*
X10538Y75763D01*
X10661Y76378D01*
X10538Y76992D01*
X10191Y77513D01*
X9670Y77861D01*
X9055Y77984D01*
D02*
G37*
G36*
X68701Y13417D02*
X68086Y13295D01*
X67565Y12946D01*
X67217Y12426D01*
X67095Y11811D01*
X67217Y11197D01*
X67565Y10676D01*
X68086Y10328D01*
X68701Y10205D01*
X69315Y10328D01*
X69836Y10676D01*
X70184Y11197D01*
X70306Y11811D01*
X70184Y12426D01*
X69836Y12946D01*
X69315Y13295D01*
X68701Y13417D01*
D02*
G37*
G36*
Y9184D02*
X68086Y9062D01*
X67565Y8714D01*
X67217Y8193D01*
X67095Y7579D01*
X67217Y6964D01*
X67565Y6443D01*
X68086Y6095D01*
X68701Y5973D01*
X69315Y6095D01*
X69836Y6443D01*
X70184Y6964D01*
X70306Y7579D01*
X70184Y8193D01*
X69836Y8714D01*
X69315Y9062D01*
X68701Y9184D01*
D02*
G37*
%LPD*%
D10*
X194882Y193701D02*
D03*
X188583D02*
D03*
X231004Y143898D02*
D03*
X224705D02*
D03*
X231890Y110925D02*
D03*
X225590D02*
D03*
X76870Y74213D02*
D03*
X70571D02*
D03*
X116831Y96850D02*
D03*
X123130D02*
D03*
X215171Y167717D02*
D03*
X221470D02*
D03*
X245747Y84978D02*
D03*
X239447D02*
D03*
X241732Y92224D02*
D03*
X235433D02*
D03*
X87106Y119390D02*
D03*
X80807D02*
D03*
Y124311D02*
D03*
X87106D02*
D03*
X80709Y139173D02*
D03*
X87008D02*
D03*
D11*
X88189Y67716D02*
D03*
Y74016D02*
D03*
X59842Y68012D02*
D03*
Y74311D02*
D03*
X152461Y148031D02*
D03*
Y141732D02*
D03*
X138583Y109055D02*
D03*
Y115354D02*
D03*
X158169Y101870D02*
D03*
Y108169D02*
D03*
X100886Y103642D02*
D03*
Y97342D02*
D03*
X100689Y129232D02*
D03*
Y122933D02*
D03*
X86319Y104429D02*
D03*
Y110728D02*
D03*
X100787Y108957D02*
D03*
Y115256D02*
D03*
X100787Y139625D02*
D03*
Y133326D02*
D03*
D12*
X176279Y20354D02*
D03*
Y16654D02*
D03*
X123721Y210551D02*
D03*
Y214252D02*
D03*
X24508Y184331D02*
D03*
Y180630D02*
D03*
D14*
X188189Y101279D02*
D03*
X181890D02*
D03*
D16*
X113878Y159646D02*
D03*
Y156102D02*
D03*
X82284Y159744D02*
D03*
Y156201D02*
D03*
X121752Y159646D02*
D03*
Y156102D02*
D03*
X74213Y159744D02*
D03*
Y156201D02*
D03*
X50689Y159744D02*
D03*
Y156201D02*
D03*
X137500Y159646D02*
D03*
Y156102D02*
D03*
X62500Y159843D02*
D03*
Y156299D02*
D03*
X54823Y152461D02*
D03*
Y156004D02*
D03*
X26969Y200394D02*
D03*
Y203937D02*
D03*
X66437Y152657D02*
D03*
Y156201D02*
D03*
X182185Y266339D02*
D03*
Y269882D02*
D03*
X153347Y152559D02*
D03*
Y156102D02*
D03*
X315567Y150142D02*
D03*
Y153685D02*
D03*
X174213Y266339D02*
D03*
Y269882D02*
D03*
X46654Y152559D02*
D03*
Y156102D02*
D03*
X194390Y204232D02*
D03*
Y207776D02*
D03*
X125984Y152461D02*
D03*
Y156004D02*
D03*
X133563Y152461D02*
D03*
Y156004D02*
D03*
X320685Y150142D02*
D03*
Y153685D02*
D03*
X133071Y6496D02*
D03*
Y2953D02*
D03*
X140945Y6496D02*
D03*
Y2953D02*
D03*
X180512Y6496D02*
D03*
Y2953D02*
D03*
X41732Y6398D02*
D03*
Y2854D02*
D03*
X44193Y266339D02*
D03*
Y269882D02*
D03*
X49705Y6496D02*
D03*
Y2953D02*
D03*
X51968Y266339D02*
D03*
Y269882D02*
D03*
X73327Y6496D02*
D03*
Y2953D02*
D03*
X186516Y204232D02*
D03*
Y207776D02*
D03*
X142717Y266339D02*
D03*
Y269882D02*
D03*
X134744Y266339D02*
D03*
Y269882D02*
D03*
X83563Y266339D02*
D03*
Y269882D02*
D03*
X188386Y6398D02*
D03*
Y2854D02*
D03*
X75590Y266339D02*
D03*
Y269882D02*
D03*
X81201Y6398D02*
D03*
Y2854D02*
D03*
X265265Y163706D02*
D03*
Y167250D02*
D03*
X261722Y163706D02*
D03*
Y167250D02*
D03*
X267913Y84646D02*
D03*
Y88189D02*
D03*
X267960Y121063D02*
D03*
Y117520D02*
D03*
X271897Y121161D02*
D03*
Y117618D02*
D03*
D25*
X50787Y93602D02*
D03*
X62205D02*
D03*
X72539Y80709D02*
D03*
X83957D02*
D03*
X33465Y81398D02*
D03*
X44882D02*
D03*
X130709Y134941D02*
D03*
X142126D02*
D03*
X86221Y148917D02*
D03*
X74803D02*
D03*
D26*
X110236Y181398D02*
D03*
Y169980D02*
D03*
X25394Y92421D02*
D03*
Y81004D02*
D03*
X18802Y165886D02*
D03*
Y154469D02*
D03*
X107973Y128347D02*
D03*
Y116929D02*
D03*
D37*
X170276Y191535D02*
D03*
X166732D02*
D03*
X213779Y76279D02*
D03*
X210236D02*
D03*
X213779Y68405D02*
D03*
X210236D02*
D03*
X213779Y60532D02*
D03*
X210236D02*
D03*
X213779Y52658D02*
D03*
X210236D02*
D03*
X213779Y88090D02*
D03*
X210236D02*
D03*
X213779Y84153D02*
D03*
X210236D02*
D03*
X213779Y80216D02*
D03*
X210236D02*
D03*
X213779Y72342D02*
D03*
X210236D02*
D03*
X213779Y64468D02*
D03*
X210236D02*
D03*
X213779Y56595D02*
D03*
X210236D02*
D03*
X162795Y138189D02*
D03*
X166339D02*
D03*
X162894Y118602D02*
D03*
X166437D02*
D03*
X170472Y114567D02*
D03*
X166929D02*
D03*
X170768Y142421D02*
D03*
X167224D02*
D03*
X37402Y171457D02*
D03*
X33858D02*
D03*
X170472Y106595D02*
D03*
X166929D02*
D03*
X170276Y171063D02*
D03*
X166732D02*
D03*
X170374Y176575D02*
D03*
X166831D02*
D03*
X37303Y180118D02*
D03*
X33760D02*
D03*
X170472Y130315D02*
D03*
X166929D02*
D03*
X30020Y175787D02*
D03*
X33563D02*
D03*
X29921Y191437D02*
D03*
X33465D02*
D03*
X208957Y231496D02*
D03*
X212500D02*
D03*
X208957Y223622D02*
D03*
X212500D02*
D03*
X37205Y195866D02*
D03*
X33661D02*
D03*
X37205Y203740D02*
D03*
X33661D02*
D03*
X162894Y110531D02*
D03*
X166437D02*
D03*
X162795Y134153D02*
D03*
X166339D02*
D03*
X208268Y27461D02*
D03*
X211811D02*
D03*
X17815Y20571D02*
D03*
X14272D02*
D03*
X21063Y250197D02*
D03*
X17520D02*
D03*
X208957Y247244D02*
D03*
X212500D02*
D03*
X170177Y196555D02*
D03*
X166634D02*
D03*
X21063Y255610D02*
D03*
X17520D02*
D03*
X17815Y26083D02*
D03*
X14272D02*
D03*
X146555Y109291D02*
D03*
X143012D02*
D03*
X243424Y101267D02*
D03*
X239880D02*
D03*
X243424Y97330D02*
D03*
X239880D02*
D03*
X270472Y103445D02*
D03*
X266929D02*
D03*
X270472Y107776D02*
D03*
X266929D02*
D03*
X270472Y99114D02*
D03*
X266929D02*
D03*
X270472Y94784D02*
D03*
X266929D02*
D03*
X274114Y91437D02*
D03*
X277658D02*
D03*
X274114Y87598D02*
D03*
X277658D02*
D03*
D41*
X142323Y141831D02*
D03*
Y148130D02*
D03*
D58*
X62008Y85348D02*
D03*
Y83380D02*
D03*
Y81411D02*
D03*
Y79443D02*
D03*
X50197D02*
D03*
Y81411D02*
D03*
Y83380D02*
D03*
Y85348D02*
D03*
D75*
X182874Y30610D02*
D03*
X171260D02*
D03*
D76*
X177067Y24606D02*
D03*
D79*
X112205Y216043D02*
D03*
Y204429D02*
D03*
D80*
X118209Y210236D02*
D03*
D180*
X118969Y210551D02*
G03*
X118209Y210236I0J-1075D01*
G01*
X118969Y210551D02*
X123721D01*
X176279Y20354D02*
Y23720D01*
D183*
X183734Y61342D02*
G03*
X186663Y68413I-7071J7071D01*
G01*
X174839Y52447D02*
G03*
X173622Y49508I2939J-2939D01*
G01*
X142717Y60827D02*
G03*
X148918Y67028I0J6201D01*
G01*
X136425Y60827D02*
G03*
X129893Y58398I0J-10000D01*
G01*
D02*
G03*
X129354Y57898I6533J-7571D01*
G01*
X126944Y55487D02*
G03*
X126941Y55484I7031J-7036D01*
G01*
X117610Y50295D02*
G03*
X124681Y53224I0J10000D01*
G01*
X174839Y52447D02*
X183734Y61342D01*
X136425Y60827D02*
X142717D01*
X126944Y55487D02*
X129354Y57898D01*
X126941Y55484D02*
X126944Y55487D01*
X124681Y53224D02*
X126941Y55484D01*
X114567Y50295D02*
X117610D01*
X186663Y68413D02*
Y69193D01*
X148918Y67028D02*
Y68405D01*
D186*
X263411Y157604D02*
Y160474D01*
X263386Y157579D02*
X263411Y157604D01*
X262548Y161336D02*
X263411Y160474D01*
X262548Y161336D02*
Y162879D01*
X261722Y163706D02*
X262548Y162879D01*
X263411Y160474D02*
X264438Y161501D01*
Y162879D01*
X265265Y163706D01*
X273952Y87598D02*
X274114D01*
D188*
X61221Y76873D02*
X62008Y77660D01*
X61221Y75492D02*
Y76873D01*
X60039Y74311D02*
X61221Y75492D01*
X59842Y74311D02*
X60039D01*
X62008Y77660D02*
Y79443D01*
X92165Y111909D02*
X95512Y115256D01*
X87500Y111909D02*
X92165D01*
X86811Y129232D02*
X86968Y129390D01*
X91476D01*
Y119291D02*
X95512Y115256D01*
X87106Y124311D02*
X87486Y123932D01*
X87845Y124291D01*
X91476D01*
X89890Y120768D02*
X91249Y122126D01*
X88287Y120768D02*
X89890D01*
X100236Y104291D02*
X100886Y103642D01*
X96476Y104291D02*
X100236D01*
X100591Y108957D02*
X100787D01*
X91249Y122126D02*
X94311D01*
X96476Y124291D01*
X87106Y119587D02*
X88287Y120768D01*
X87106Y119390D02*
Y119587D01*
X24508Y178248D02*
Y178452D01*
X89272Y143307D02*
X96457D01*
X89272Y141634D02*
Y143307D01*
X100787Y139291D02*
Y139625D01*
X129662Y156102D02*
X129711Y156053D01*
X133514D02*
X133563Y156004D01*
X87008Y139370D02*
X89272Y141634D01*
X87008Y139173D02*
Y139370D01*
X92323Y139961D02*
X92992Y139291D01*
X92323Y134055D02*
X92520Y134252D01*
X123130Y96850D02*
X123327D01*
X86319Y110728D02*
X87500Y111909D01*
X95512Y115256D02*
X100787D01*
D189*
X92992Y139291D02*
X96476D01*
X92520Y134252D02*
X96457D01*
X96476Y139291D02*
X100787D01*
X86181Y104291D02*
X86319Y104429D01*
X81476Y104291D02*
X86181D01*
X124114Y132579D02*
X129429D01*
X130709Y133858D01*
Y134941D01*
X124114Y135039D02*
X130610D01*
X130709Y134941D01*
X131102Y135335D02*
Y141732D01*
X274114Y87616D02*
X274131Y87598D01*
X274114Y87616D02*
Y91346D01*
X274036Y91425D02*
X274114Y91346D01*
X272441Y94784D02*
X274803Y97146D01*
X270472Y94784D02*
X272441D01*
X270472Y99114D02*
X272835D01*
X274803Y97146D01*
X273543Y103445D02*
X274508Y104409D01*
X270472Y103445D02*
X273543D01*
X274508Y104409D02*
Y106102D01*
X272977Y107633D02*
X274508Y106102D01*
X270615Y107633D02*
X272977D01*
X270472Y107776D02*
X270615Y107633D01*
X265374Y105598D02*
Y107618D01*
Y103602D02*
Y105598D01*
Y94941D02*
Y96937D01*
Y98957D01*
Y103445D02*
X266929D01*
X265374Y101267D02*
Y103445D01*
Y94941D02*
X266772D01*
X266929Y94784D01*
X265374Y99114D02*
X266929D01*
X265374D02*
Y101267D01*
Y107618D02*
X266772D01*
X266929Y107776D01*
X271897Y117520D02*
Y117618D01*
X243424Y101267D02*
X246573D01*
X243424Y97330D02*
X246573D01*
D191*
X96476Y129291D02*
X100630D01*
X100738Y129400D01*
X142126Y134941D02*
X142224Y135039D01*
Y141732D01*
X142323Y141831D01*
X142372Y141781D01*
X152411D01*
X152461Y141732D01*
X100738Y133277D02*
X100787Y133326D01*
X100738Y129400D02*
Y133277D01*
D195*
X50295Y24277D02*
X50820Y24802D01*
X51870D01*
X52394Y24277D01*
Y23753D01*
X51870Y23228D01*
X52394Y22703D01*
Y22178D01*
X51870Y21654D01*
X50820D01*
X50295Y22178D01*
Y22703D01*
X50820Y23228D01*
X50295Y23753D01*
Y24277D01*
X50820Y23228D02*
X51870D01*
X248944Y151377D02*
X247895D01*
X248420D01*
Y148228D01*
X248944D01*
X247895D01*
X244221Y150852D02*
X244746Y151377D01*
X245796D01*
X246321Y150852D01*
Y150327D01*
X245796Y149803D01*
X244746D01*
X244221Y149278D01*
Y148753D01*
X244746Y148228D01*
X245796D01*
X246321Y148753D01*
X241073Y151377D02*
X243172D01*
Y148228D01*
X241073D01*
X243172Y149803D02*
X242122D01*
X234776Y148228D02*
X236875D01*
X234776Y150327D01*
Y150852D01*
X235300Y151377D01*
X236350D01*
X236875Y150852D01*
X233726D02*
X233201Y151377D01*
X232152D01*
X231627Y150852D01*
Y148753D01*
X232152Y148228D01*
X233201D01*
X233726Y148753D01*
Y150852D01*
X230578Y148228D02*
X229528D01*
X230053D01*
Y151377D01*
X230578Y150852D01*
X227954Y148753D02*
X227429Y148228D01*
X226379D01*
X225855Y148753D01*
Y150852D01*
X226379Y151377D01*
X227429D01*
X227954Y150852D01*
Y150327D01*
X227429Y149803D01*
X225855D01*
X240322Y156324D02*
X240847Y156849D01*
X241897D01*
X242421Y156324D01*
Y155799D01*
X241897Y155275D01*
X240847D01*
X240322Y154750D01*
Y154225D01*
X240847Y153700D01*
X241897D01*
X242421Y154225D01*
X239273Y156849D02*
Y153700D01*
Y155275D01*
X237174D01*
Y156849D01*
Y153700D01*
X236124D02*
Y155799D01*
X235074Y156849D01*
X234025Y155799D01*
Y153700D01*
Y155275D01*
X236124D01*
X232976Y153700D02*
X230876Y155799D01*
X227728Y156324D02*
X228253Y156849D01*
X229302D01*
X229827Y156324D01*
Y154225D01*
X229302Y153700D01*
X228253D01*
X227728Y154225D01*
Y155275D01*
X228777D01*
X226678Y156849D02*
Y153700D01*
Y154750D01*
X224579Y156849D01*
X226153Y155275D01*
X224579Y153700D01*
X223530D02*
Y155799D01*
X222480Y156849D01*
X221431Y155799D01*
Y153700D01*
Y155275D01*
X223530D01*
X241043Y161810D02*
X238944Y158661D01*
Y161810D02*
X241043Y158661D01*
X235796Y161810D02*
X237895D01*
Y160236D01*
X236845D01*
X237895D01*
Y158661D01*
X232647Y161810D02*
X234746D01*
Y158661D01*
X232647D01*
X234746Y160236D02*
X233697D01*
X228449Y161810D02*
Y159711D01*
X227399Y158661D01*
X226350Y159711D01*
Y161810D01*
X225300Y158661D02*
X224251D01*
X224776D01*
Y161810D01*
X225300Y161285D01*
D205*
X166831Y208071D02*
D03*
X211516D02*
D03*
X99051Y264405D02*
D03*
Y8500D02*
D03*
X9402Y114882D02*
D03*
X33661Y156055D02*
D03*
X303776Y156138D02*
D03*
X205350Y8500D02*
D03*
X165980Y156138D02*
D03*
X8500Y8500D02*
D03*
Y264405D02*
D03*
X205350D02*
D03*
X99051Y156138D02*
D03*
D206*
X196663Y71398D02*
D03*
X176663D02*
D03*
Y91398D02*
D03*
X196663D02*
D03*
X158918Y70610D02*
D03*
X138918D02*
D03*
Y90610D02*
D03*
X158918D02*
D03*
D207*
X8268Y152756D02*
D03*
Y168504D02*
D03*
D208*
X12205Y135039D02*
D03*
Y186221D02*
D03*
D209*
X256831Y200886D02*
D03*
X246831D02*
D03*
X236831D02*
D03*
D210*
X226831D02*
D03*
D211*
X113779Y142815D02*
D03*
Y140256D02*
D03*
X181693Y179823D02*
D03*
X184252Y182382D02*
D03*
X106496Y122736D02*
D03*
X112795D02*
D03*
X113878Y132480D02*
D03*
X118996Y142717D02*
D03*
X124213Y142815D02*
D03*
X132087Y129134D02*
D03*
X194882Y193701D02*
D03*
X188583D02*
D03*
X131988Y123327D02*
D03*
X224705Y143898D02*
D03*
X231004D02*
D03*
X225689Y110925D02*
D03*
X231890D02*
D03*
X218989Y109408D02*
D03*
X124606Y111909D02*
D03*
X121555Y142728D02*
D03*
X184252Y179823D02*
D03*
X315567Y150142D02*
D03*
X320685D02*
D03*
X131004Y165945D02*
D03*
X119095Y162106D02*
D03*
X131004Y162008D02*
D03*
X152854D02*
D03*
X152756Y165945D02*
D03*
X119095Y165855D02*
D03*
X140979Y165847D02*
D03*
Y162015D02*
D03*
X144390Y171555D02*
D03*
Y177461D02*
D03*
X182972Y34252D02*
D03*
X3642Y20571D02*
D03*
Y26181D02*
D03*
X14272Y20571D02*
D03*
X14272Y26083D02*
D03*
X24477Y184350D02*
D03*
X247835Y111319D02*
D03*
X239094Y104528D02*
D03*
X76870Y67913D02*
D03*
X70571Y74213D02*
D03*
X76870D02*
D03*
X59842Y68012D02*
D03*
X72441Y82267D02*
D03*
Y79314D02*
D03*
X79626Y82300D02*
D03*
Y78953D02*
D03*
X51496Y139272D02*
D03*
X51476Y109291D02*
D03*
X61476D02*
D03*
X46476Y104291D02*
D03*
X96476Y129291D02*
D03*
X56476Y124291D02*
D03*
X71476Y119291D02*
D03*
X91476Y109291D02*
D03*
X76378Y119291D02*
D03*
X51476Y99291D02*
D03*
X56476D02*
D03*
X71476Y139291D02*
D03*
X91476Y129390D02*
D03*
X96476Y124291D02*
D03*
X71476Y114291D02*
D03*
X76476D02*
D03*
X81476Y109291D02*
D03*
Y104291D02*
D03*
X86476Y94291D02*
D03*
X66476Y139291D02*
D03*
X96476D02*
D03*
X66476Y129291D02*
D03*
X56476Y109291D02*
D03*
Y104291D02*
D03*
X91476Y89291D02*
D03*
X81476Y94291D02*
D03*
X61476Y124291D02*
D03*
X71476D02*
D03*
X61476Y114291D02*
D03*
X91476Y104291D02*
D03*
X81476Y134291D02*
D03*
X61476Y139291D02*
D03*
Y134291D02*
D03*
X66476Y114291D02*
D03*
X76476Y109291D02*
D03*
X46476Y99291D02*
D03*
X56496Y89272D02*
D03*
X96476Y94291D02*
D03*
X76476D02*
D03*
X66476Y134291D02*
D03*
X46476Y119291D02*
D03*
Y114291D02*
D03*
X51476D02*
D03*
X81476D02*
D03*
Y99291D02*
D03*
X96476D02*
D03*
X46476Y129291D02*
D03*
X51476D02*
D03*
X66476Y119291D02*
D03*
X96476Y109291D02*
D03*
Y89291D02*
D03*
X46476D02*
D03*
Y94291D02*
D03*
Y139291D02*
D03*
Y134291D02*
D03*
X56476Y129291D02*
D03*
Y119291D02*
D03*
X91476D02*
D03*
X71476Y104291D02*
D03*
X76476D02*
D03*
X56476Y139291D02*
D03*
X46476Y124291D02*
D03*
X61476Y119291D02*
D03*
X56476Y114291D02*
D03*
X100591Y108957D02*
D03*
X51476Y104291D02*
D03*
X71476Y99291D02*
D03*
X86476Y89291D02*
D03*
X71476Y134291D02*
D03*
X66476Y104291D02*
D03*
X76476Y129291D02*
D03*
Y99291D02*
D03*
Y89291D02*
D03*
Y139291D02*
D03*
X71476Y129291D02*
D03*
X66476Y124291D02*
D03*
X61476Y104291D02*
D03*
X66476Y99291D02*
D03*
X56476Y94291D02*
D03*
X66476D02*
D03*
X61476Y129291D02*
D03*
X51476Y124291D02*
D03*
X71476Y109291D02*
D03*
X81476Y119291D02*
D03*
Y124291D02*
D03*
X96476Y104291D02*
D03*
X86476Y99291D02*
D03*
X66476Y89291D02*
D03*
X91476Y94291D02*
D03*
X51476Y119291D02*
D03*
X46476Y109291D02*
D03*
X66476D02*
D03*
X81476Y89291D02*
D03*
X71476D02*
D03*
X61476Y99291D02*
D03*
X81476Y139291D02*
D03*
X96457Y134252D02*
D03*
X91476Y114291D02*
D03*
X86476D02*
D03*
X76476Y124291D02*
D03*
X71476Y94291D02*
D03*
X51496Y134252D02*
D03*
X56476Y134291D02*
D03*
X91476Y124291D02*
D03*
X86476Y134291D02*
D03*
X76476D02*
D03*
X81476Y129291D02*
D03*
X91476Y99291D02*
D03*
X65847Y85630D02*
D03*
X64665Y82185D02*
D03*
X57776Y82382D02*
D03*
X66929Y82185D02*
D03*
X57677Y79232D02*
D03*
Y85532D02*
D03*
X45079Y81398D02*
D03*
X38780D02*
D03*
X29035Y92421D02*
D03*
X84941Y80776D02*
D03*
X84055Y78513D02*
D03*
X83957Y82942D02*
D03*
X54528Y82382D02*
D03*
X43209Y73819D02*
D03*
X33465Y79528D02*
D03*
Y83275D02*
D03*
X32972Y90158D02*
D03*
X54528Y79232D02*
D03*
Y85532D02*
D03*
X78248Y252854D02*
D03*
X71816Y221772D02*
D03*
X71879Y217028D02*
D03*
X79035D02*
D03*
X65059Y222047D02*
D03*
X78347Y221949D02*
D03*
X65059Y225590D02*
D03*
X71879Y259031D02*
D03*
X79035Y259154D02*
D03*
X71949Y253031D02*
D03*
X65059Y249213D02*
D03*
Y252756D02*
D03*
X123721Y214252D02*
D03*
X112402Y216142D02*
D03*
Y204429D02*
D03*
X171260Y31004D02*
D03*
X182972D02*
D03*
X176279Y16634D02*
D03*
X202267Y228051D02*
D03*
X24409Y166437D02*
D03*
X28642D02*
D03*
X24508Y178248D02*
D03*
X28445Y178248D02*
D03*
X195768Y250457D02*
D03*
X198228Y252918D02*
D03*
X189862Y261185D02*
D03*
X187303Y258823D02*
D03*
X205416Y188871D02*
D03*
X320889Y120416D02*
D03*
X316713Y116240D02*
D03*
X312554Y112048D02*
D03*
X306841Y71935D02*
D03*
X302447Y67989D02*
D03*
X296593Y67212D02*
D03*
X290688D02*
D03*
X284782D02*
D03*
X278877D02*
D03*
X261160D02*
D03*
X255255D02*
D03*
X249349D02*
D03*
X243444D02*
D03*
X221810Y60446D02*
D03*
X227715D02*
D03*
X233621D02*
D03*
X239526D02*
D03*
X245431D02*
D03*
X251337D02*
D03*
X257242D02*
D03*
X263148D02*
D03*
X269054D02*
D03*
X274959D02*
D03*
X280865D02*
D03*
X286770D02*
D03*
X292676D02*
D03*
X298581D02*
D03*
X309270Y64796D02*
D03*
X313287Y69125D02*
D03*
X315495Y74602D02*
D03*
X315686Y98221D02*
D03*
X315794Y104126D02*
D03*
X319076Y109035D02*
D03*
X327428Y117387D02*
D03*
X327603Y126220D02*
D03*
X234842Y67716D02*
D03*
X134252Y19882D02*
D03*
X27031Y203888D02*
D03*
X19139D02*
D03*
X33661Y195857D02*
D03*
X3355Y203888D02*
D03*
X33661Y180073D02*
D03*
X33661Y203740D02*
D03*
X33661Y187965D02*
D03*
X11247Y203888D02*
D03*
X42815Y156201D02*
D03*
X244646Y180217D02*
D03*
X237402Y186597D02*
D03*
X191339Y62500D02*
D03*
X166732Y146063D02*
D03*
X10403Y31890D02*
D03*
Y65354D02*
D03*
X30686D02*
D03*
X17164Y31890D02*
D03*
X30686D02*
D03*
X23925D02*
D03*
X3642Y65354D02*
D03*
X23925D02*
D03*
X17164D02*
D03*
X3642Y31890D02*
D03*
X30489Y244587D02*
D03*
X23728D02*
D03*
X10206Y211122D02*
D03*
X23728D02*
D03*
X16967Y244587D02*
D03*
X10206D02*
D03*
X3445Y211122D02*
D03*
X30489D02*
D03*
X16967D02*
D03*
X3445Y244587D02*
D03*
X254626Y182579D02*
D03*
X254528Y176279D02*
D03*
X260236D02*
D03*
Y182579D02*
D03*
X173622Y49508D02*
D03*
Y181496D02*
D03*
Y188583D02*
D03*
X185138Y198425D02*
D03*
X177264D02*
D03*
X195617Y228584D02*
D03*
X196538Y199128D02*
D03*
X226863Y186638D02*
D03*
X244580D02*
D03*
X250485D02*
D03*
X256391D02*
D03*
X262296D02*
D03*
X268201D02*
D03*
X280012D02*
D03*
X285918D02*
D03*
X291824D02*
D03*
X297729D02*
D03*
X303635D02*
D03*
X314940Y184239D02*
D03*
X312460Y192585D02*
D03*
X306595Y193272D02*
D03*
X300690Y193318D02*
D03*
X294784D02*
D03*
X282973D02*
D03*
X277068D02*
D03*
X271162D02*
D03*
X259351D02*
D03*
X229824D02*
D03*
X223918D02*
D03*
X218013D02*
D03*
X212107Y193388D02*
D03*
X207045Y196428D02*
D03*
X203096Y200820D02*
D03*
X202298Y212577D02*
D03*
X206094Y240978D02*
D03*
X202262Y245473D02*
D03*
X303937Y172244D02*
D03*
X315551D02*
D03*
X277658Y87598D02*
D03*
X162569Y178973D02*
D03*
X156664Y178973D02*
D03*
X176055Y168074D02*
D03*
X235232Y165544D02*
D03*
X282094Y139556D02*
D03*
X152433Y170183D02*
D03*
X158339D02*
D03*
X176055D02*
D03*
X199677D02*
D03*
X205583D02*
D03*
X229205D02*
D03*
X240932Y169195D02*
D03*
X243311Y163789D02*
D03*
X245270Y158218D02*
D03*
X253712Y149976D02*
D03*
X259460Y148624D02*
D03*
X264407Y145398D02*
D03*
X268583Y141222D02*
D03*
X272759Y137046D02*
D03*
X275658Y125982D02*
D03*
Y120077D02*
D03*
X282339Y120728D02*
D03*
Y126634D02*
D03*
X282277Y132539D02*
D03*
X280504Y138172D02*
D03*
X276626Y142626D02*
D03*
X272451Y146802D02*
D03*
X268275Y150978D02*
D03*
X249964Y164346D02*
D03*
X248658Y170105D02*
D03*
X244848Y174617D02*
D03*
X239340Y176746D02*
D03*
X227530Y176864D02*
D03*
X186191D02*
D03*
X180286D02*
D03*
X174381D02*
D03*
X162569D02*
D03*
X156664D02*
D03*
X150758D02*
D03*
X216240Y178937D02*
D03*
X222539D02*
D03*
X170276Y169685D02*
D03*
X194390Y204429D02*
D03*
X186551Y207972D02*
D03*
X186516Y204528D02*
D03*
X178660Y204331D02*
D03*
X166732Y191535D02*
D03*
Y181299D02*
D03*
X166634Y186417D02*
D03*
X49114Y168209D02*
D03*
X38878D02*
D03*
X147441Y148031D02*
D03*
X173228Y109252D02*
D03*
X74311Y150787D02*
D03*
X74304Y146949D02*
D03*
X87008Y149218D02*
D03*
X85335Y151285D02*
D03*
X85323Y147053D02*
D03*
X62303Y146949D02*
D03*
X56398Y150984D02*
D03*
X62402D02*
D03*
X56271Y146850D02*
D03*
X44291D02*
D03*
X119587Y109252D02*
D03*
X162205Y238114D02*
D03*
Y222441D02*
D03*
X160138Y14665D02*
D03*
X134843Y270079D02*
D03*
X134744Y266535D02*
D03*
X2350Y255394D02*
D03*
Y249882D02*
D03*
X209055Y231358D02*
D03*
X17567Y255295D02*
D03*
Y249882D02*
D03*
X9299D02*
D03*
X327506Y122251D02*
D03*
X121555Y132492D02*
D03*
X116831Y112008D02*
D03*
X258169Y134646D02*
D03*
X260827Y137697D02*
D03*
X263386Y157579D02*
D03*
X258268Y160531D02*
D03*
X100689Y122933D02*
D03*
X100886Y97342D02*
D03*
X142126Y132874D02*
D03*
Y137106D02*
D03*
X131102Y141732D02*
D03*
X124114Y132579D02*
D03*
Y135039D02*
D03*
X137500Y125197D02*
D03*
X124132Y138007D02*
D03*
X142480Y148031D02*
D03*
X152480D02*
D03*
X121573Y138204D02*
D03*
X152461Y117717D02*
D03*
Y121260D02*
D03*
X116929Y109350D02*
D03*
X143701Y99410D02*
D03*
X141831Y96850D02*
D03*
X161713Y104528D02*
D03*
X161732Y99423D02*
D03*
X158563Y101969D02*
D03*
Y96850D02*
D03*
X282214Y111875D02*
D03*
Y115836D02*
D03*
X166732Y114460D02*
D03*
Y106568D02*
D03*
X162106Y124016D02*
D03*
X157874D02*
D03*
X162894Y110531D02*
D03*
X159961Y112205D02*
D03*
X141456Y121176D02*
D03*
X145669Y115354D02*
D03*
X148307Y121161D02*
D03*
X147480Y126772D02*
D03*
X142480D02*
D03*
X152480D02*
D03*
X137480Y148031D02*
D03*
X144606Y121161D02*
D03*
X157776Y142028D02*
D03*
X162795Y134153D02*
D03*
Y138189D02*
D03*
X166732Y138135D02*
D03*
X162008Y130217D02*
D03*
X166732Y130243D02*
D03*
X170472Y120866D02*
D03*
X170374Y136221D02*
D03*
Y100098D02*
D03*
X170276Y127657D02*
D03*
X132874Y13878D02*
D03*
X137500Y171555D02*
D03*
Y177461D02*
D03*
X132874Y16831D02*
D03*
X213871Y109408D02*
D03*
X211312Y106849D02*
D03*
Y109408D02*
D03*
X127165Y101673D02*
D03*
X116929Y104232D02*
D03*
X143012Y109291D02*
D03*
X146555D02*
D03*
X74114Y165157D02*
D03*
X267913Y84646D02*
D03*
X267933Y88187D02*
D03*
X274803Y97146D02*
D03*
X274508Y106102D02*
D03*
X274664Y114161D02*
D03*
X157874Y130217D02*
D03*
X170177Y196555D02*
D03*
X127165Y106791D02*
D03*
Y111909D02*
D03*
X119488Y104232D02*
D03*
X122047Y106791D02*
D03*
X124606Y109350D02*
D03*
X215748Y73721D02*
D03*
X251575Y137795D02*
D03*
X239961D02*
D03*
X126673Y124311D02*
D03*
Y127067D02*
D03*
X118701Y124311D02*
D03*
Y127067D02*
D03*
X162303Y142028D02*
D03*
X132776Y148721D02*
D03*
X129429D02*
D03*
X209449Y85630D02*
D03*
X138583Y109055D02*
D03*
Y115354D02*
D03*
X162205Y227665D02*
D03*
Y232890D02*
D03*
X143701Y56791D02*
D03*
X114567Y50295D02*
D03*
X255143Y158294D02*
D03*
X256190Y164106D02*
D03*
X261722Y167250D02*
D03*
X313118Y66449D02*
D03*
X196949Y55098D02*
D03*
X215748Y58661D02*
D03*
X207874D02*
D03*
X201969Y54724D02*
D03*
Y47539D02*
D03*
X140999Y2953D02*
D03*
X247146Y91634D02*
D03*
X239880Y97330D02*
D03*
Y101267D02*
D03*
X239447Y84978D02*
D03*
X245747D02*
D03*
X49705Y6496D02*
D03*
X145669Y36516D02*
D03*
X299764Y208158D02*
D03*
X265265Y167250D02*
D03*
X103642Y23862D02*
D03*
Y19783D02*
D03*
X145473Y23819D02*
D03*
X255335Y125984D02*
D03*
X188189Y101279D02*
D03*
X181890D02*
D03*
X289370Y198009D02*
D03*
X218504Y67421D02*
D03*
X215748Y68898D02*
D03*
Y71260D02*
D03*
X232434Y132087D02*
D03*
X245688Y106306D02*
D03*
X217717Y82284D02*
D03*
X220472Y79134D02*
D03*
X241732Y93307D02*
D03*
Y90945D02*
D03*
X235433D02*
D03*
Y93307D02*
D03*
X244093Y108661D02*
D03*
X301730Y85234D02*
D03*
Y90352D02*
D03*
X215748Y49803D02*
D03*
Y52756D02*
D03*
Y55709D02*
D03*
X207874Y49803D02*
D03*
Y52756D02*
D03*
Y55709D02*
D03*
X204724Y57480D02*
D03*
X195276Y58661D02*
D03*
X198031Y61417D02*
D03*
X200787Y63779D02*
D03*
X207874Y75394D02*
D03*
Y67520D02*
D03*
Y71457D02*
D03*
X213287Y84842D02*
D03*
Y87992D02*
D03*
X178347Y253543D02*
D03*
Y261417D02*
D03*
X174409Y253543D02*
D03*
X182283Y261417D02*
D03*
X103543Y170866D02*
D03*
X150787Y190551D02*
D03*
X135039D02*
D03*
X154724Y206299D02*
D03*
X138976Y222047D02*
D03*
X131102D02*
D03*
X111417Y190551D02*
D03*
X103543D02*
D03*
X111417Y198425D02*
D03*
X103543Y214173D02*
D03*
X95669D02*
D03*
X87795D02*
D03*
X40551Y198425D02*
D03*
Y206299D02*
D03*
X56299Y214173D02*
D03*
X48425D02*
D03*
X40551D02*
D03*
X52362Y245669D02*
D03*
X44488D02*
D03*
X36614D02*
D03*
X44488Y253543D02*
D03*
X36614D02*
D03*
X44488Y261417D02*
D03*
X36614D02*
D03*
X244488Y78740D02*
D03*
X202362Y75590D02*
D03*
X204921Y71457D02*
D03*
X201969Y85827D02*
D03*
X205906D02*
D03*
X218504Y70079D02*
D03*
X223228Y76378D02*
D03*
X226772Y74803D02*
D03*
X205906Y19291D02*
D03*
X176378Y9449D02*
D03*
X184252D02*
D03*
X194095Y7480D02*
D03*
X109449Y35039D02*
D03*
Y38976D02*
D03*
Y42913D02*
D03*
X113386Y54724D02*
D03*
X109449D02*
D03*
X25394Y92323D02*
D03*
X14961Y76378D02*
D03*
X9055D02*
D03*
X14961Y100000D02*
D03*
X9055D02*
D03*
X53642Y33169D02*
D03*
X46457Y31102D02*
D03*
Y37008D02*
D03*
X38583Y31102D02*
D03*
Y42913D02*
D03*
X22835Y19291D02*
D03*
Y23228D02*
D03*
Y27165D02*
D03*
X50394Y17323D02*
D03*
X42520D02*
D03*
Y11417D02*
D03*
X46457D02*
D03*
X50394D02*
D03*
X85827Y7480D02*
D03*
X154724Y9449D02*
D03*
X146850D02*
D03*
X137008D02*
D03*
X127165D02*
D03*
X73327Y6496D02*
D03*
X81201Y6398D02*
D03*
X41732D02*
D03*
X17815Y20571D02*
D03*
Y26083D02*
D03*
X165748Y62894D02*
D03*
X169882Y62795D02*
D03*
X162894Y118602D02*
D03*
X170768Y142421D02*
D03*
X170472Y114567D02*
D03*
X208957Y247244D02*
D03*
X182185Y266339D02*
D03*
X174213D02*
D03*
X142717D02*
D03*
X44193D02*
D03*
X21063Y250197D02*
D03*
Y255610D02*
D03*
X174539Y58414D02*
D03*
X140521Y37372D02*
D03*
X174125Y37080D02*
D03*
X180512Y52658D02*
D03*
X132892Y23862D02*
D03*
X132936Y29767D02*
D03*
X152658Y38333D02*
D03*
X170375Y38327D02*
D03*
X176148Y39570D02*
D03*
X295360Y78922D02*
D03*
X301573Y78458D02*
D03*
Y72003D02*
D03*
X319010Y90561D02*
D03*
X295360Y85221D02*
D03*
X277658Y91437D02*
D03*
X196063Y65059D02*
D03*
X202559Y67520D02*
D03*
X74213Y156201D02*
D03*
X315567Y153685D02*
D03*
X320685D02*
D03*
X173347Y128263D02*
D03*
X111417Y103543D02*
D03*
X153338Y156102D02*
D03*
X129662D02*
D03*
X121770D02*
D03*
X137500D02*
D03*
X66392Y156201D02*
D03*
X208268Y27461D02*
D03*
X173249Y134759D02*
D03*
X61221Y33268D02*
D03*
X63779Y38484D02*
D03*
X82275Y156201D02*
D03*
X50689Y156201D02*
D03*
X166634Y196653D02*
D03*
X212500Y247307D02*
D03*
X211910Y27479D02*
D03*
X180458Y2953D02*
D03*
X133107D02*
D03*
X73354D02*
D03*
X81245D02*
D03*
X49678D02*
D03*
X41786D02*
D03*
X14370Y93701D02*
D03*
X10236D02*
D03*
X212500Y231496D02*
D03*
Y223631D02*
D03*
X174257Y269882D02*
D03*
X156201Y197441D02*
D03*
X160335Y197485D02*
D03*
X142690Y269882D02*
D03*
X142028Y260464D02*
D03*
Y256594D02*
D03*
X130217Y260630D02*
D03*
Y256398D02*
D03*
X53952Y263506D02*
D03*
X49803Y251882D02*
D03*
X53673D02*
D03*
X49606Y263595D02*
D03*
X83563Y266339D02*
D03*
X83545Y269882D02*
D03*
X75603Y266326D02*
D03*
X75653Y269882D02*
D03*
X44085D02*
D03*
X224410Y67421D02*
D03*
X292323Y154724D02*
D03*
Y150492D02*
D03*
X28445Y263976D02*
D03*
X32677D02*
D03*
X55315Y161024D02*
D03*
Y165256D02*
D03*
X165650Y74803D02*
D03*
X169882D02*
D03*
X91831Y23917D02*
D03*
Y19685D02*
D03*
X68701Y11811D02*
D03*
Y7579D02*
D03*
X21654Y13976D02*
D03*
Y9744D02*
D03*
X10341Y81791D02*
D03*
X14173D02*
D03*
X28346Y184350D02*
D03*
X67028Y161221D02*
D03*
Y165090D02*
D03*
X86024Y161319D02*
D03*
Y165188D02*
D03*
X156398Y185559D02*
D03*
X160267D02*
D03*
X32480Y251969D02*
D03*
X28611D02*
D03*
X28346Y196161D02*
D03*
X24515D02*
D03*
X33563Y10039D02*
D03*
Y13871D02*
D03*
X56791Y7776D02*
D03*
Y11607D02*
D03*
X3051Y104044D02*
D03*
Y96153D02*
D03*
Y88261D02*
D03*
Y80369D02*
D03*
Y72477D02*
D03*
X188350Y2953D02*
D03*
X172566D02*
D03*
X164674D02*
D03*
X156782D02*
D03*
X148890D02*
D03*
X125215D02*
D03*
X117323D02*
D03*
X178660Y207972D02*
D03*
X212500Y255199D02*
D03*
Y239415D02*
D03*
X145446Y156102D02*
D03*
X113878D02*
D03*
X166732Y122352D02*
D03*
Y98676D02*
D03*
Y90784D02*
D03*
Y82892D02*
D03*
X211910Y35370D02*
D03*
X18110Y2953D02*
D03*
X26002D02*
D03*
X33894D02*
D03*
X57570D02*
D03*
X65462D02*
D03*
X89137D02*
D03*
X58599Y156201D02*
D03*
X20410Y269882D02*
D03*
X28302D02*
D03*
X36194D02*
D03*
X51977D02*
D03*
X59869D02*
D03*
X67761D02*
D03*
X91437D02*
D03*
X111122D02*
D03*
X119014D02*
D03*
X126906D02*
D03*
X150582D02*
D03*
X158474D02*
D03*
X166365D02*
D03*
X182149D02*
D03*
X190041D02*
D03*
X197933D02*
D03*
X195571Y113091D02*
D03*
X90174Y33179D02*
D03*
X205315Y46358D02*
D03*
X281693Y150197D02*
D03*
X279429Y152657D02*
D03*
X281693Y155020D02*
D03*
X294749Y167095D02*
D03*
X289196Y171992D02*
D03*
X327165Y199311D02*
D03*
X325197Y197170D02*
D03*
X327506Y174409D02*
D03*
X322230Y173017D02*
D03*
X326944Y179082D02*
D03*
X321231Y180578D02*
D03*
X325197Y201870D02*
D03*
X327495Y170343D02*
D03*
X265945Y136221D02*
D03*
X38878Y175061D02*
D03*
X49114D02*
D03*
X323130Y123031D02*
D03*
X307874Y105807D02*
D03*
X205413Y32677D02*
D03*
X207677Y34547D02*
D03*
X203150D02*
D03*
X207579Y44390D02*
D03*
X203150D02*
D03*
X126374Y120571D02*
D03*
X144980Y174508D02*
D03*
X74606Y201673D02*
D03*
X69193Y199902D02*
D03*
Y203642D02*
D03*
X119488Y111909D02*
D03*
X116831Y96850D02*
D03*
X123130D02*
D03*
X126366Y117717D02*
D03*
X119039D02*
D03*
X104429Y89567D02*
D03*
X104724Y98032D02*
D03*
X111417Y110876D02*
D03*
X108366Y110793D02*
D03*
X111028Y92028D02*
D03*
X114472D02*
D03*
X117913Y92125D02*
D03*
X131595Y92224D02*
D03*
X127657Y92126D02*
D03*
X124213Y92028D02*
D03*
X137520Y121161D02*
D03*
X105644Y117747D02*
D03*
X110126Y117687D02*
D03*
X133661Y118559D02*
D03*
X107961Y115877D02*
D03*
X133661Y112259D02*
D03*
X133688Y107579D02*
D03*
X116929Y101673D02*
D03*
Y106791D02*
D03*
X111024Y98032D02*
D03*
X124606Y104232D02*
D03*
X119090Y120571D02*
D03*
X133688Y101279D02*
D03*
X108268Y103543D02*
D03*
X124606Y101673D02*
D03*
X127165Y104232D02*
D03*
X116241Y149311D02*
D03*
X122540D02*
D03*
X116652Y139877D02*
D03*
Y135054D02*
D03*
X319053Y87793D02*
D03*
Y82675D02*
D03*
X121555Y140169D02*
D03*
X96457Y143307D02*
D03*
X107650Y141679D02*
D03*
X104724D02*
D03*
X113878Y135051D02*
D03*
Y137610D02*
D03*
X116437Y142728D02*
D03*
X118996Y137610D02*
D03*
X107532Y134646D02*
D03*
X104704D02*
D03*
X105750Y127572D02*
D03*
X107950Y129361D02*
D03*
X109930Y127491D02*
D03*
X38878Y145276D02*
D03*
X38829Y140748D02*
D03*
X110138Y168898D02*
D03*
X112500Y170994D02*
D03*
X107944Y170965D02*
D03*
X112500Y180315D02*
D03*
X110236Y182382D02*
D03*
X107972Y180315D02*
D03*
X191116Y134664D02*
D03*
X182756Y134780D02*
D03*
X179055D02*
D03*
X187416Y134664D02*
D03*
X205492Y98819D02*
D03*
X193701Y167736D02*
D03*
X187992Y167618D02*
D03*
X187402Y146063D02*
D03*
X181102Y148031D02*
D03*
Y146063D02*
D03*
X44193Y188681D02*
D03*
X51083Y181102D02*
D03*
X57284Y33169D02*
D03*
X66472Y33232D02*
D03*
X177559Y165748D02*
D03*
X211122Y177067D02*
D03*
X206693Y178543D02*
D03*
X188203Y141929D02*
D03*
X188189Y138878D02*
D03*
X181004Y141929D02*
D03*
X304045Y180565D02*
D03*
X298233Y179521D02*
D03*
X293372Y176167D02*
D03*
X285020Y167816D02*
D03*
X279938Y160227D02*
D03*
X290574Y162919D02*
D03*
X298925Y171270D02*
D03*
X273246Y167310D02*
D03*
X281374Y167669D02*
D03*
X284547Y81791D02*
D03*
X280217Y77264D02*
D03*
X268012Y80742D02*
D03*
X167224Y35335D02*
D03*
X221470Y167717D02*
D03*
X199311Y193602D02*
D03*
X210630Y184055D02*
D03*
X181702Y184934D02*
D03*
X184261Y187493D02*
D03*
X181702Y190052D02*
D03*
X189379Y182375D02*
D03*
X186820Y179816D02*
D03*
X191938D02*
D03*
X189379Y187493D02*
D03*
X191938Y190052D02*
D03*
X222146Y184055D02*
D03*
X276488Y163615D02*
D03*
Y159915D02*
D03*
X234154Y139075D02*
D03*
X230807D02*
D03*
X246871Y74592D02*
D03*
X179724Y62500D02*
D03*
X188203Y107713D02*
D03*
X183203D02*
D03*
X271897Y117618D02*
D03*
X267960Y121063D02*
D03*
X271897Y121161D02*
D03*
X267960Y117520D02*
D03*
X16535Y164862D02*
D03*
X211312Y101731D02*
D03*
X213871Y116334D02*
D03*
X218989Y92425D02*
D03*
Y99172D02*
D03*
X235071Y78782D02*
D03*
X59547Y255610D02*
D03*
Y249311D02*
D03*
X59571Y217351D02*
D03*
Y223650D02*
D03*
X142703Y215969D02*
D03*
X148622Y218898D02*
D03*
X153051Y212598D02*
D03*
X148622Y212598D02*
D03*
X148302Y200984D02*
D03*
X144095Y199606D02*
D03*
X139665Y199508D02*
D03*
X319795Y128141D02*
D03*
X315989Y136476D02*
D03*
X315991Y132395D02*
D03*
X316094Y128141D02*
D03*
X316015Y124499D02*
D03*
X189379Y179816D02*
D03*
X191938Y182375D02*
D03*
X184261Y190052D02*
D03*
X186820Y184934D02*
D03*
X191938D02*
D03*
Y187493D02*
D03*
X181702D02*
D03*
X200570Y186509D02*
D03*
X200367Y178517D02*
D03*
X214961Y152736D02*
D03*
X215109Y167815D02*
D03*
X282951Y71963D02*
D03*
X219965Y147047D02*
D03*
X213666D02*
D03*
X213675Y140865D02*
D03*
X211116Y135747D02*
D03*
Y133188D02*
D03*
X221353D02*
D03*
Y130629D02*
D03*
X218794D02*
D03*
Y121949D02*
D03*
X218701Y124705D02*
D03*
X207283Y124016D02*
D03*
X201969Y119685D02*
D03*
X203024Y144980D02*
D03*
X196725D02*
D03*
X182283Y166535D02*
D03*
X193701Y162736D02*
D03*
X187992Y160630D02*
D03*
Y163898D02*
D03*
X193701Y152736D02*
D03*
X187992Y153543D02*
D03*
X184449D02*
D03*
X187402Y148031D02*
D03*
X188203Y128972D02*
D03*
X183203D02*
D03*
X180925Y138779D02*
D03*
X274036Y91425D02*
D03*
X195571Y106890D02*
D03*
X211116Y138306D02*
D03*
X275984Y171260D02*
D03*
X270925Y171319D02*
D03*
X265925Y177657D02*
D03*
X270925D02*
D03*
X275925D02*
D03*
X280925D02*
D03*
X284646Y179429D02*
D03*
X280925Y198917D02*
D03*
X275925D02*
D03*
X270925D02*
D03*
X286002Y159871D02*
D03*
X286601Y138602D02*
D03*
Y128602D02*
D03*
X310814D02*
D03*
X303708Y125433D02*
D03*
X266910Y125984D02*
D03*
X294025Y92483D02*
D03*
X295304Y100017D02*
D03*
X301730Y82675D02*
D03*
X319097Y75845D02*
D03*
X327801Y79134D02*
D03*
X284016Y208158D02*
D03*
X276142D02*
D03*
X271063Y204134D02*
D03*
X267520D02*
D03*
X268268Y208158D02*
D03*
X260394D02*
D03*
X252520D02*
D03*
X235138Y114987D02*
D03*
X231004Y114961D02*
D03*
X235236Y126476D02*
D03*
X231102D02*
D03*
X231988Y99803D02*
D03*
X228937D02*
D03*
X231988Y106890D02*
D03*
X229038D02*
D03*
X206004Y105610D02*
D03*
X202756Y105598D02*
D03*
X205906Y112697D02*
D03*
X202854D02*
D03*
X212049Y92618D02*
D03*
X205750D02*
D03*
X21161Y164764D02*
D03*
X18802Y166929D02*
D03*
X18799Y153445D02*
D03*
X21063Y155413D02*
D03*
X16535Y155610D02*
D03*
X79626Y195394D02*
D03*
X84483Y174494D02*
D03*
X63223D02*
D03*
Y184494D02*
D03*
Y189494D02*
D03*
X57356Y174494D02*
D03*
X57469Y178559D02*
D03*
Y182260D02*
D03*
Y185646D02*
D03*
Y189297D02*
D03*
X97532Y182378D02*
D03*
X91528Y182496D02*
D03*
X84483Y189494D02*
D03*
X91528Y188795D02*
D03*
X102165Y206594D02*
D03*
X85827Y205276D02*
D03*
X91339Y195709D02*
D03*
X96850Y205276D02*
D03*
X80807Y206496D02*
D03*
X53150Y200394D02*
D03*
X58563Y207382D02*
D03*
X53150Y206693D02*
D03*
X46949Y206299D02*
D03*
X119278Y21151D02*
D03*
X122961Y21063D02*
D03*
X123814Y80216D02*
D03*
X131398Y80315D02*
D03*
X127657Y80315D02*
D03*
X118498Y80118D02*
D03*
X110728D02*
D03*
X114472Y80216D02*
D03*
X97736Y80905D02*
D03*
X91437D02*
D03*
X104429Y83268D02*
D03*
X193110Y215846D02*
D03*
X187078Y215926D02*
D03*
X28760Y81004D02*
D03*
X22146D02*
D03*
X25394D02*
D03*
X21921Y92323D02*
D03*
X120509Y61140D02*
D03*
X146686Y256967D02*
D03*
Y261297D02*
D03*
X204508Y222661D02*
D03*
X187795Y223721D02*
D03*
X178417Y216713D02*
D03*
X182480Y216732D02*
D03*
X149442Y246337D02*
D03*
X156867Y254257D02*
D03*
X169783Y260796D02*
D03*
Y264665D02*
D03*
X157874Y262594D02*
D03*
X149442Y252636D02*
D03*
X150229Y256967D02*
D03*
Y261297D02*
D03*
X140354Y19783D02*
D03*
Y13878D02*
D03*
X154724Y56791D02*
D03*
X166339Y55807D02*
D03*
X114272Y74902D02*
D03*
X101645Y61140D02*
D03*
X65158Y75000D02*
D03*
X88189Y74016D02*
D03*
X43209Y66678D02*
D03*
X40059D02*
D03*
X54419Y62106D02*
D03*
X114241Y61140D02*
D03*
X160039Y55807D02*
D03*
X136614Y15748D02*
D03*
X244646Y208158D02*
D03*
X276476Y78150D02*
D03*
X159350Y45768D02*
D03*
X163248Y37697D02*
D03*
X309724Y188386D02*
D03*
X80990Y51195D02*
D03*
X72211Y52362D02*
D03*
Y45276D02*
D03*
X80990Y46274D02*
D03*
X72146Y48819D02*
D03*
X78445Y52362D02*
D03*
Y45177D02*
D03*
X75328D02*
D03*
Y52362D02*
D03*
X66719Y51195D02*
D03*
X69095Y52362D02*
D03*
Y45177D02*
D03*
X78445Y48819D02*
D03*
X75328D02*
D03*
X69095D02*
D03*
X66719Y46274D02*
D03*
X93012Y38386D02*
D03*
X96555D02*
D03*
X69676Y29531D02*
D03*
X48219Y62205D02*
D03*
X90167Y30488D02*
D03*
X85020Y33232D02*
D03*
X86024Y24902D02*
D03*
Y21358D02*
D03*
X81184Y29531D02*
D03*
X81595Y23917D02*
D03*
X77461D02*
D03*
X85040Y38366D02*
D03*
X88760Y38386D02*
D03*
X85020Y29531D02*
D03*
X77348Y33232D02*
D03*
X81184D02*
D03*
X73514Y24766D02*
D03*
X77348Y29531D02*
D03*
X73512Y33232D02*
D03*
X73514Y29529D02*
D03*
X68701Y16732D02*
D03*
Y20768D02*
D03*
X63871Y24606D02*
D03*
X161122Y31102D02*
D03*
X154823D02*
D03*
X149016Y23819D02*
D03*
X149409Y28445D02*
D03*
Y32745D02*
D03*
X149213Y36516D02*
D03*
X108268Y68110D02*
D03*
X100984Y67028D02*
D03*
X114272Y67421D02*
D03*
X130709Y64173D02*
D03*
Y70473D02*
D03*
X124902Y71161D02*
D03*
X107944Y61140D02*
D03*
X100984Y74114D02*
D03*
X82677Y72894D02*
D03*
X88189Y63327D02*
D03*
X76772Y60256D02*
D03*
X65158Y67520D02*
D03*
Y71260D02*
D03*
X54528Y75000D02*
D03*
X48917Y74311D02*
D03*
Y68012D02*
D03*
X115953Y28287D02*
D03*
X110630Y27854D02*
D03*
X123567Y237882D02*
D03*
X284646Y175886D02*
D03*
X199193Y98816D02*
D03*
X225295Y90354D02*
D03*
Y94291D02*
D03*
X221548Y101731D02*
D03*
X211312Y104290D02*
D03*
X218989Y106849D02*
D03*
X213871D02*
D03*
X211312Y99172D02*
D03*
X213871Y101731D02*
D03*
X218989D02*
D03*
X221548Y99172D02*
D03*
X216430Y109408D02*
D03*
X221548Y104290D02*
D03*
Y109408D02*
D03*
X216430Y104290D02*
D03*
X220079Y116425D02*
D03*
X226476Y121850D02*
D03*
X226529Y124902D02*
D03*
X211116Y130629D02*
D03*
X218996Y141079D02*
D03*
X218794Y135747D02*
D03*
X195669Y119685D02*
D03*
X213583Y124016D02*
D03*
X202702Y134110D02*
D03*
X69355Y207382D02*
D03*
X64828Y194685D02*
D03*
X74508Y206496D02*
D03*
X58465Y199803D02*
D03*
X58465Y194685D02*
D03*
X46949Y199213D02*
D03*
X46161Y182283D02*
D03*
X42323Y182382D02*
D03*
X100197Y200394D02*
D03*
X104134Y200295D02*
D03*
X270669Y78150D02*
D03*
X288296Y85913D02*
D03*
X296949Y107103D02*
D03*
X293602D02*
D03*
X214961Y157736D02*
D03*
Y162736D02*
D03*
X310814Y138602D02*
D03*
X319716Y124499D02*
D03*
X319535Y132395D02*
D03*
X319533Y136476D02*
D03*
X178417Y213170D02*
D03*
X182480Y213189D02*
D03*
X124606Y260647D02*
D03*
X112992D02*
D03*
X102190Y223847D02*
D03*
X90575D02*
D03*
X185728Y241437D02*
D03*
X185759Y247744D02*
D03*
Y235263D02*
D03*
X175984Y223721D02*
D03*
X187992Y156929D02*
D03*
X193701Y157736D02*
D03*
X180523Y159646D02*
D03*
X141240Y174508D02*
D03*
X84483Y179493D02*
D03*
Y184494D02*
D03*
X79626Y199094D02*
D03*
X74606Y195374D02*
D03*
X113567Y237882D02*
D03*
X108568Y228937D02*
D03*
X113659Y229035D02*
D03*
X118568Y228867D02*
D03*
Y220048D02*
D03*
X113567D02*
D03*
X108568D02*
D03*
X153051Y216142D02*
D03*
X148302Y197441D02*
D03*
X144095Y187911D02*
D03*
X139469D02*
D03*
X121752Y197878D02*
D03*
X126919Y197835D02*
D03*
X131890Y197933D02*
D03*
X115867Y197878D02*
D03*
X97532Y188677D02*
D03*
X63223Y179493D02*
D03*
X202702Y126925D02*
D03*
X199873D02*
D03*
X178203Y107713D02*
D03*
Y128972D02*
D03*
X79921Y212303D02*
D03*
X66490Y217056D02*
D03*
X89370Y250590D02*
D03*
X89468Y254626D02*
D03*
X84611Y245698D02*
D03*
X88508D02*
D03*
X92406D02*
D03*
X88508Y237627D02*
D03*
X78790Y232017D02*
D03*
Y243434D02*
D03*
X71875Y242105D02*
D03*
Y233345D02*
D03*
X64959Y232017D02*
D03*
Y243434D02*
D03*
X160138Y24213D02*
D03*
Y19193D02*
D03*
Y9154D02*
D03*
X136614Y18898D02*
D03*
X137795Y28346D02*
D03*
Y32697D02*
D03*
X216234Y138306D02*
D03*
X181702Y182375D02*
D03*
X288896Y105089D02*
D03*
Y108309D02*
D03*
X253955Y119968D02*
D03*
X221353Y138306D02*
D03*
X213675Y135747D02*
D03*
X211116Y140865D02*
D03*
X216234Y133188D02*
D03*
X250197Y81595D02*
D03*
X260531D02*
D03*
X71260Y62205D02*
D03*
X76772Y63957D02*
D03*
X39046Y131582D02*
D03*
X38976Y135716D02*
D03*
Y126279D02*
D03*
X39046Y122146D02*
D03*
X51863Y188098D02*
D03*
X53827Y174508D02*
D03*
X173223Y138165D02*
D03*
X202165Y241504D02*
D03*
X71161Y68504D02*
D03*
X88189Y67716D02*
D03*
X159941Y59961D02*
D03*
X136122Y48622D02*
D03*
X136024Y53543D02*
D03*
X123314Y9422D02*
D03*
X118983Y9350D02*
D03*
X115453Y17913D02*
D03*
X110635Y14075D02*
D03*
Y17618D02*
D03*
X115453Y21457D02*
D03*
X110635Y21551D02*
D03*
X124902Y67421D02*
D03*
X124803Y75000D02*
D03*
X27235Y141043D02*
D03*
X27264Y144882D02*
D03*
X23720Y115059D02*
D03*
X38007Y114961D02*
D03*
X38681Y90158D02*
D03*
X30708Y114961D02*
D03*
X27235Y126279D02*
D03*
X27067Y122146D02*
D03*
X27235Y135716D02*
D03*
X27067Y131582D02*
D03*
X59832Y62205D02*
D03*
X192815Y35925D02*
D03*
X198031D02*
D03*
X197992Y44902D02*
D03*
X187992Y35925D02*
D03*
Y44902D02*
D03*
X182894Y27067D02*
D03*
X187992D02*
D03*
X192992D02*
D03*
X61211Y29531D02*
D03*
X66394D02*
D03*
X69676Y33232D02*
D03*
X264567Y171260D02*
D03*
X282283D02*
D03*
X159350Y37697D02*
D03*
X155453D02*
D03*
X101978Y30882D02*
D03*
Y34425D02*
D03*
X81391Y11811D02*
D03*
X77559D02*
D03*
X57087Y16929D02*
D03*
Y20472D02*
D03*
X60328Y24606D02*
D03*
X73517Y21220D02*
D03*
X108268Y74410D02*
D03*
X54528Y67520D02*
D03*
X66230Y62106D02*
D03*
X93760Y72894D02*
D03*
X40157Y73819D02*
D03*
X246573Y101267D02*
D03*
X319097Y79388D02*
D03*
X301730Y87793D02*
D03*
X286002Y163572D02*
D03*
X225387Y132087D02*
D03*
X287321Y100337D02*
D03*
X258091Y114358D02*
D03*
X246573Y97330D02*
D03*
X199606Y134055D02*
D03*
X256713Y105598D02*
D03*
X261043D02*
D03*
X265374D02*
D03*
X256713Y101267D02*
D03*
X261043D02*
D03*
X265374D02*
D03*
X256713Y96937D02*
D03*
X261043D02*
D03*
X265374D02*
D03*
X273562Y68223D02*
D03*
Y82002D02*
D03*
Y75112D02*
D03*
D212*
X134227Y235211D02*
D03*
X140380Y241364D02*
D03*
X56391Y43865D02*
D03*
X51863D02*
D03*
X56391Y53393D02*
D03*
X51863D02*
D03*
X95669Y43865D02*
D03*
X91142D02*
D03*
X95669Y53393D02*
D03*
X91142D02*
D03*
X47763Y234970D02*
D03*
X51231Y237880D02*
D03*
X53887Y227671D02*
D03*
X57355Y230582D02*
D03*
D219*
X56102Y82396D02*
D03*
D220*
X186663Y69193D02*
D03*
X148918Y68405D02*
D03*
D221*
X86811Y129232D02*
D03*
X80905D02*
D03*
D222*
X92323Y134055D02*
D03*
Y139961D02*
D03*
M02*
