M48
;Layer_Color=9474304
;FILE_FORMAT=2:5
INCH,LZ
;TYPE=PLATED
T1F00S00C0.00787
T2F00S00C0.01181
T3F00S00C0.09449
T4F00S00C0.10630
;TYPE=NON_PLATED
T5F00S00C0.05118
%
T01
X0413386Y0019685
X0423228
X0429134
X0435039
X0444882Y0020112
X0452756Y0027559
X046063Y0019685
X0467303Y0030416
Y0035416
X0462303
X0482303
Y0030416
X0487303
X0492224Y0035433
X0494193Y0037402
X0497146Y0029035
X0496358Y0023917
X0501083Y0023327
Y0019587
X0496358Y0017618
X0492126Y0019685
X0508169Y0022146
X0513484
Y0015846
X0508169
X0508858Y0031594
X050502Y0035433
X0501083Y0031594
X0516634Y0035433
X0422244Y0029528
X0412724
X0403543Y0019685
X0397638
X0391732
X038189
X0384163Y0029528
X038189Y0033465
X0374643Y0029528
X0370079Y0033465
X0365123Y0029528
X0360236Y0033465
X0355602Y0029528
X0350394Y0033465
X0346082Y0029528
X0350394Y0019685
X0334646
X0322835Y0019587
X0317913Y0029528
Y0033465
X0308071
Y0029528
X0298228
Y0033465
X0288386
Y0029528
X0260827
Y0033465
X0366142Y0019685
X0393683Y0029528
X0250984
Y0033465
X0241142
Y0029528
X0231299
X0222441
Y0033465
X0212598
Y0023622
Y0014764
Y000689
Y-0002953
X021752Y0042323
X0220472Y003937
X0229331Y0038386
X0236221Y003937
Y0044291
X0245079
X0241142Y0038386
X0251969Y003937
X0226378Y0044291
X0254921
X0263779
X028248
X0287402
Y003937
X0297244Y0044291
X0307087
X030315Y003937
X0318898
Y004626
X0326772Y0055118
X0329232Y005935
Y0063386
X0326772Y0066929
X0327756Y0070965
X0326772Y0074803
X0327756Y0078839
X0334646Y0072835
X0340748Y0069095
X0344488Y0068898
Y0064961
Y0059055
Y005315
X0340748Y0053839
Y0062671
X0348425Y0062992
X034997Y0068577
X0348425Y0072835
X0344488Y0076772
Y0082677
X0345026Y0089672
X0349266Y008556
X0354556Y0082935
X0360361Y0081849
X0360548Y0085824
X0359941Y0091142
X036624
Y0099803
X0359941
X0353445Y01
X0347539
Y0104232
X0351279
X0348797Y0095048
X0352988Y0090887
X0366262Y0082083
X0366142Y0072835
Y0062992
X0377953
X0387795
X0385827Y0051181
X0397638
X038189Y003937
X0366142
Y0051181
X0350394
X034997Y0056766
X0344488Y0047244
Y0041339
X0340748Y0043631
X0350394Y003937
X0330709Y0051181
X033248Y0100229
X0326772Y0098425
X0327658Y0103642
X0326772Y0109252
X0330709Y0108268
X0334168Y0109428
X0340748Y0110273
X0348642Y0113917
X0353642
X0358642
X0367618Y0115364
X0372452Y0115748
X0375602
Y0118898
X0372452
Y0122047
X0375602
X0378751
X0381901
X038505
Y0118898
Y0115748
X03882
Y0118898
X039135
Y0115748
X0394499
Y0118898
X0397649
Y0115748
X0400798
Y0118898
Y0122047
X0397649
Y0125197
X0400798
Y0128347
X0397649
Y0131496
X0400798
X0403948
X0407098
Y0128347
Y0125197
X0409941Y0125197
X0410433Y0121949
X0407098Y0122047
X0403948
Y0125197
Y0128347
Y0134646
X0407098
X0410433Y0134744
X0410468Y0129066
X0409941Y0118799
X0407098Y0118898
Y0115748
X0409941Y0115748
X0407098Y0112598
Y0109449
X0403948
Y0112598
Y0115748
Y0118898
X0400798Y0112598
X0397649
Y0109449
X0400798
X0394499
Y0112598
X039135
X03882
Y0109449
X039135
X0391339Y0105709
X0387894
X0384547
X0381102Y0105709
X0377854Y0105709
Y0102165
X0381102Y0102165
X0384547Y0102165
X0387894
X0392224Y0101673
Y0095374
X0388201Y0089565
X037639
X0378073Y0082083
X0377953Y0072835
X0373425Y0098721
Y010502
X0372452Y0109449
X0375602
Y0112598
X0372452
X0378751
X0381901
Y0109449
X0378751
X038505
Y0112598
X0381901Y0115748
X0378751
Y0118898
X0381901
Y0125197
X0378751
Y0128347
X0381901
X038505
Y0125197
X03882
X039135
Y0128347
X03882
Y0131496
X039135
X0394499
Y0128347
Y0125197
Y0122047
X039135
X03882
X038505Y0131496
Y0134646
Y0137795
X03882
X039135
Y0134646
X03882
X0394499
Y0137795
X0397649
X0400798
Y0134646
X0397649
Y0140945
X0400798
X0403948
X0407098
Y0144095
X0403948
Y0137795
X0397649Y0144095
X0394499
Y0140945
X039135
Y0144095
X03882
Y0140945
X038505
Y0144095
X0381901
Y0140945
Y0137795
Y0134646
X0378751
Y0131496
X0381901
X0375602
X0372452
Y0134646
X0375602
Y0137795
Y0140945
X037874
X0378751Y0144095
X0375602
X0372452
Y0140945
X0372539Y0147441
X0376083
X0374606Y0154457
Y0160756
X038252Y016063
X0386221
X0386614Y0154626
Y0151083
X0389862
X0393406
X039685Y0150984
Y0147441
X0393366Y0147539
X0389665
X0390354Y0157677
X0393996Y0157579
X0410256Y0156996
Y0148425
X0409252Y0189272
X0409547Y0193012
X040515Y01894
X040145
X0393502Y0188233
X0389958
Y0184067
X0393502
Y01799
X0389958
X0390846Y0176476
Y0172736
X0384547
Y0176476
X03846Y0180884
X0378301
X0376143Y01881
X03726
X0373031Y0192028
X037559Y0193209
X0370472
X036805Y0188
X036435
X0352084Y0189379
X0346949Y01881
X0340748Y0186435
Y0176914
X0344488Y017126
X0350142Y0171949
Y0166949
X0347047Y0161634
X0347244Y015689
X0351673
Y0153347
X0355709Y0152953
Y0155905
X0359842Y0154134
X0360335Y0148819
X0356201
X0351378
Y0136122
X0355906Y0136122
X0363347Y0137165
X0365354Y0134744
X0368996Y0136232
Y0132688
X0372452Y0128347
Y0125197
X0375602
Y0128347
X0353642Y0126437
X0340748Y0129313
Y0122638
X0336155Y01204
X0331979Y0124575
X0327756Y0124508
X0326772Y0119095
X0327658Y0114075
X0326772Y0129921
X0330709
X0334646Y0127953
X033563Y0131595
X0327658Y0134941
X0326772Y0139764
X0330761Y0138281
X0340748Y0138833
Y0167394
X0334646Y0169291
X0330709Y0173228
X0326772Y0174213
Y0170276
X0327658Y0166142
X0326772Y0162402
Y0158465
Y0154528
X0330709Y015748
X0327658Y0178051
X0326772Y0182087
Y0186024
X0330709Y0185039
X0329429Y0189272
Y0193307
X0350142Y0176949
X0362661Y0171949
X0372638Y0169488
Y0174652
X0381199Y01881
X03849
X0389958Y01924
X0393502
X0362813Y015739
X036063Y0159449
X0365748Y0154134
X0367618Y0107874
X0394882Y0105709
X0402854Y0100295
Y0096595
X0406494Y0092815
X0412844Y0085221
X0415699Y0076673
X0427362Y0071859
X0436122Y007441
Y0086122
X0440748Y0088386
X0441142Y0101181
X0455413Y0103248
X0462303Y0105416
X0467303
Y0100416
Y0095416
Y0090416
Y0085416
Y0080416
X0462303
Y0075416
Y0070416
Y0065416
X0467303
Y0060416
Y0055416
Y0050416
Y0045416
Y0040416
X0462303
Y0045416
Y0055416
Y0060416
X0467303Y0070416
Y0075416
X0482303
Y0070416
Y0065416
X0487303
Y0070416
Y0075416
Y0080416
X0482303
Y0085416
X0487303
Y0090416
Y0095416
Y0100416
X0482303
Y0095416
Y0090416
X0497146Y0089291
Y0086772
X0497736Y0096122
Y0098642
X0509413Y0100154
Y0103855
Y0108688
Y0112389
X0511811Y011811
X0510827Y013189
X0515748Y0137795
X0510827Y0143701
X051283Y0152533
X0508794
X0513872Y015748
X051283Y0164344
X0508794
X0510827Y0174213
X05165Y0169257
X05166Y0186528
Y0190072
X0510827Y0186024
X0487303Y0185416
Y0180416
Y0175416
Y0170416
Y0165416
X0482303
Y0160416
Y0155416
X0487303
Y0160416
Y0150416
X0482303
Y0145416
X0487303
Y0140416
Y0135416
Y0130416
Y0125416
Y0120416
Y0115416
X0482303
Y0110416
X0487303
X0479232Y0105413
X0473425Y0113244
X0467303Y0115416
Y0110416
X0462303
Y0115416
Y0120416
X0467303
Y0125416
X0462303
Y0130416
Y0135416
Y0140416
Y0145416
Y0150416
Y0155416
Y0160416
Y0165416
Y0170416
Y0175416
Y0180416
Y0185416
Y0190416
X0467303
Y0185416
Y0180416
Y0175416
Y0170416
Y0165416
Y0160416
Y0155416
Y0150416
Y0145416
Y0140416
Y0135416
Y0130416
X0482303Y0135416
Y0140416
Y0125416
Y0120416
X0462303Y0100416
Y0095416
Y0090416
Y0085416
X0482303Y0060416
Y0055416
X0487303Y0050416
Y0045416
X0482303Y0040416
X0476378Y003937
X0497146Y0041929
X0501083Y0039272
X0508858
X0512894Y0041634
X0516634Y003878
X0515813Y0049598
Y0053141
X0515713Y0058169
Y0061713
X0511713
Y0058169
X0507713
Y0061713
X0509413Y0066019
Y006972
Y0074553
Y0078254
Y0083087
Y0086787
Y009162
Y0095321
X0514413
Y009162
Y0086787
Y0083087
Y0078254
Y0074553
Y006972
Y0066019
X0507813Y0053141
Y0049598
X0508169Y0046654
X050502Y0047539
X0502067Y0048228
Y0051772
X0514413Y0100154
X0493504Y0153642
X0482303Y0175416
Y0180416
Y0185416
X0487303Y0190416
X0472441Y0185039
X0475712Y0179044
X0452027Y0173228
X0449409Y0170768
X0446161Y016624
X0442421
X0436319Y0163976
X0431102Y0163386
Y0173228
X0428076Y0177105
X0427328Y01799
X0430872
Y01843
X0427328
Y01886
X0430872
Y01927
X0427328
X04224Y019295
Y018925
X0421416Y01829
X0421457Y0178642
Y0174902
X0415158
Y0178642
X0415117Y01829
X0412795Y0189272
X0436516Y0179823
X0445593Y0154633
X0443996Y0147736
X0436122Y014065
X0430118Y0134941
X0431102Y0124016
X0427328Y011811
X0416634Y0118504
X0413091
X0413976Y0121949
X0414468Y0125689
Y0129134
Y0132677
X0418469Y0132649
Y0129105
X0418012Y0125689
X0417717Y0115256
X0417717Y0111909
X0414173
X0414173Y0115256
X0410787Y0112598
X0421752Y0104724
X0424606Y0102165
X0417323Y0137795
X0417543Y0157579
X0427338Y0059359
X0423917Y0054134
X0436122Y0050394
Y0059153
X0444882Y003937
X0413386
Y0047244
X0412106Y0194193
X0412965Y0198635
Y0202965
X0417421Y0202067
X0418504Y0199508
X0417421Y0196949
X04224Y019675
Y020045
X042847Y019865
Y020495
X0436122Y0205217
Y0198917
X0440158Y019498
X0462303Y0195416
Y0200416
Y0205416
Y0210416
Y0215416
Y0220416
Y0225416
X0467303
Y0220416
Y0215416
X0482303
Y0220416
Y0225416
X0487303
Y0220416
Y0215416
Y0210416
X0482303
Y0205416
X0487303
Y0200416
X0482303
X0487303Y0195416
X0472441Y019685
X0467303Y0195416
Y0200416
X05Y0200787
X0508268Y0203248
X05113Y0203239
X0514272Y0203248
X051437Y0195571
X05113Y0195561
X0508268Y0195571
X0507677Y0209547
X0511713
X05165Y0208957
Y02125
X05167Y02187
Y0222243
X0511713Y0221358
X0507677
X05112Y0229182
Y0239418
X0503937Y0236221
X05Y0228346
Y0212598
X0492126Y0236221
X0476378
Y0228346
X0448819Y0232283
X04418Y023435
Y024065
X04357Y024045
Y023415
X0434572Y0228
X0431028
X0424672Y02277
X0421128
X0421654Y0233071
Y0239075
X0429331
Y0233169
X04156Y023455
Y024085
X0420106Y0222539
X0410585
X0412106Y0208563
X0414665Y0207382
X0418602Y0204626
X0444882Y022441
X0447638Y0241339
X0451181
X04089Y0239418
X0401575Y0240158
Y0236221
X0394291Y0233563
X039252Y0235138
Y0241437
X0394291Y0239862
X0387697Y0240748
X0383563
X0376181Y0238844
X0372638
Y0234744
X0376181
X0372634Y0230906
X0372638Y0227362
X0372504Y0222539
X0372441Y0216634
Y0212795
X0373031Y0206398
X037559Y0207579
X037815Y0206398
X037645Y0201986
Y0197655
X037212
Y0201986
X0367717Y0203642
X0366535Y0201083
X0367717Y0198524
X0366535Y0195965
X0362443Y02031
X03589
X0350142Y020374
X0344488Y0204724
X0340748Y0205475
Y0195955
X0344488Y019685
Y0214567
X0350142Y0215551
X0343944Y0222539
X0337402Y0229061
Y0234449
X0338976Y0238705
X0338878Y0242126
X0342618Y0242028
Y0238681
Y0235138
X034685Y0233563
X0348031Y0236122
X034685Y0238681
X0348031Y024124
X0351476Y0241043
X03551Y02374
X035876Y023376
X0362106Y0233563
X0363386Y0236122
X0362106Y0238681
X0363386Y024124
X035876Y0241043
X0367618Y0238878
Y0234744
Y0230906
X0358957Y0229134
X0356398Y0230315
X0353839Y0229134
X0351279Y0230315
X0351476Y0233661
X0331102Y0234449
Y0229061
X0324803Y0222441
X0315945
Y0218504
X0306102
Y0222441
X0296342Y0222539
X029626Y0218504
X0287402
Y0222441
X0286161Y0228248
X0289862
X0295177
X0298721
X0298425Y0232874
Y0237992
X0295472Y0240551
Y0235433
X028937
Y0240551
X0286319Y0237992
Y0232874
X0279528Y0228346
X0272342
X0268799
X0268996Y0232874
X0269094Y0237992
X0271949Y0240551
X0272047Y0235433
X0267717Y0222441
Y0218504
X0257874
Y0222441
X0256102Y0207677
X0260039Y0207776
X0264075Y0207677
X0267913Y0207776
X027185Y0207677
X0275787Y0207776
X0279724Y0207677
X0283661Y0207776
X0287598Y0207677
X0291535Y0207776
X0295472Y0207677
X029941Y0207776
X0303346
X0307283
X0315383Y0207874
X0326772Y0196949
X032126Y0235433
Y0240551
X0318209Y0237992
Y0232874
X0335236Y0238779
X0383563Y0228839
X0387697
X0392933Y0228642
X0396634
X0401065Y0222539
X0398622Y0216732
Y0212795
X0393406Y0213934
Y0217477
X0389469
Y0213934
X0384252Y0212795
Y0216732
X0382025Y0222539
X0391545
X0403543Y0216535
X0410433Y0216732
Y0212894
X0409547Y0207382
X0406988Y0208563
X0404232Y0204626
X0403051Y0202067
X0404232Y0199508
X0403051Y0196949
X0406988Y0194193
X0408635Y0198635
Y0202965
X03991Y0204072
Y0200528
X03911Y019755
Y020385
X0382087Y0203642
X0380906Y0201083
X0382087Y0198524
X0380906Y0195965
X03859Y019525
Y019895
X0370472Y0207579
X04089Y0229182
X0277559Y0222441
Y0218504
X0248031Y0222441
X0247047Y0215416
X0248228Y0207677
X024439Y0207776
X0240453Y0207677
X0236417
X023248
X0235236Y0215416
X0239221Y0222539
X0229701
X0212598Y0228346
Y0236221
Y0244094
Y0251969
Y0259842
X0252165Y0207776
T02
X0417717Y-0002461
X0426575
X0435433
X0444291
X045315
X0448721Y0006398
X0439862
X0431004
X0422146
X0413287
X0488976
X0497835
X0506693
X0515551
X051998Y-0002461
X0511122
X0502264
X0493405
X0484547
X0533957Y-0002461
Y0021654
Y0030512
X0525098Y0034941
Y0026083
X0404429Y0006398
X04Y-0002461
X0408858
X037441
X0365551
X0356693
X0347835
X0338976
X0343406Y0006398
X0352264
X0361122
X036998
X031063Y0008465
X0301772
X0292914
X0284055
X0275197
X0266339
X0227165Y000935
X0222736Y0018209
X0525098Y0043799
Y0052658
X0533957Y0057087
Y0048228
Y003937
Y0080709
Y0089567
Y0098425
Y0107283
Y0116142
X0525098Y0111713
Y0102854
Y0093996
Y0085138
Y0144193
Y0153051
Y0161909
Y0170768
X0533957Y0175197
Y0166339
Y015748
Y0148622
Y0139764
Y0198819
Y0207677
Y0216535
Y0225394
Y0234252
X0525098Y0229823
Y0220965
Y0212106
Y0203248
X0515551Y0249508
X0506693
X0497835
X0488976
X0484547Y0258366
X0493405
X0502264
X0511122
X051998
X0533957Y0258366
X045315
X0444291
X0435433
X0426575
X0417717
X0422146Y0249508
X0413287
X0431004
X0439862
X0448721
X0404429
X04Y0258366
X0408858
X0375394
X0366535
X0357677
X0348819
X0339961
X0331102
X0335531Y0249508
X034439
X0353248
X0362106
X0370965
X0304134Y0248819
X0295276
X0286417
X0277559
X0268701
X0259842
X0227165Y0240846
X0222736Y0231988
T03
X0430118Y0035433
X0529528Y0009843
X0388189Y0001969
X0325197
X0334646Y0035433
X0273622
X0238976Y0016929
X0334646Y0088583
Y0147638
X0529528Y0127953
Y0068898
Y0187008
Y0246063
X0430118Y0216535
X0388189Y0253937
X0317323
X0334646Y0216535
X0238976Y0233465
X0220472Y0216535
T04
X0466929Y0003937
X0251969Y001378
X0466929Y0251969
X0251969Y0236417
T05
X0474803Y0020866
X0462803Y0234966
M30
