G04*
G04 #@! TF.GenerationSoftware,Altium Limited,Altium Designer,19.0.15 (446)*
G04*
G04 Layer_Physical_Order=1*
G04 Layer_Color=255*
%FSLAX44Y44*%
%MOMM*%
G71*
G01*
G75*
%ADD11R,0.6200X0.6200*%
%ADD12R,1.8000X1.1500*%
%ADD13R,1.1500X1.8000*%
%ADD14R,0.5800X0.6200*%
%ADD15C,0.4000*%
%ADD16R,0.6200X0.5800*%
%ADD17R,1.0000X1.0000*%
%ADD18R,1.0000X1.0000*%
%ADD19R,0.7600X1.6500*%
%ADD20R,1.6500X0.7600*%
%ADD21R,1.5000X0.4500*%
%ADD22R,0.9500X0.9500*%
%ADD23R,0.6200X0.6200*%
%ADD24R,1.0000X0.9500*%
%ADD25R,0.8500X2.3000*%
%ADD26R,1.2500X1.8000*%
%ADD27R,0.9000X1.0000*%
%ADD28R,1.0000X0.9500*%
%ADD29R,0.9800X3.7000*%
%ADD30R,1.1500X1.8000*%
%ADD31R,1.8000X1.1500*%
%ADD32R,2.1000X2.1000*%
%ADD33O,0.3000X0.8500*%
%ADD34O,0.8500X0.3000*%
%ADD35R,2.3000X0.8500*%
%ADD36R,0.9500X1.0000*%
%ADD37R,0.4000X0.4500*%
%ADD38R,1.1500X1.4000*%
%ADD39R,1.7800X1.0200*%
%ADD40R,1.0000X0.9000*%
%ADD41C,0.6400*%
%ADD82C,0.4000*%
%ADD83C,0.1200*%
%ADD84C,0.2000*%
%ADD85C,0.1800*%
%ADD86C,0.5000*%
%ADD87C,0.2400*%
%ADD88C,0.2540*%
%ADD89C,4.0000*%
%ADD90C,5.0000*%
%ADD91C,1.0000*%
%ADD92C,0.5000*%
%ADD93C,0.6000*%
G36*
X713668Y598718D02*
Y592218D01*
Y592011D01*
X713263Y592178D01*
X710000Y592608D01*
X706737Y592178D01*
X704850Y591397D01*
Y593100D01*
X704668D01*
Y598718D01*
Y609914D01*
X713668D01*
Y598718D01*
D02*
G37*
G36*
X1271085Y608915D02*
X1269081Y606304D01*
X1267822Y603263D01*
X1267392Y600000D01*
X1267822Y596737D01*
X1269081Y593696D01*
X1269924Y592598D01*
X1266737Y592178D01*
X1263696Y590919D01*
X1261085Y588915D01*
X1259081Y586304D01*
X1257822Y583263D01*
X1257392Y580000D01*
X1257822Y576737D01*
X1259081Y573696D01*
X1261085Y571085D01*
X1263696Y569081D01*
X1266737Y567822D01*
X1270000Y567392D01*
X1273263Y567822D01*
X1275638Y568805D01*
Y551195D01*
X1273263Y552178D01*
X1270000Y552608D01*
X1266737Y552178D01*
X1263696Y550919D01*
X1261085Y548915D01*
X1259081Y546304D01*
X1257822Y543263D01*
X1257392Y540000D01*
X1257822Y536737D01*
X1259081Y533696D01*
X1261085Y531085D01*
X1263696Y529081D01*
X1266737Y527822D01*
X1270000Y527392D01*
X1273263Y527822D01*
X1275638Y528805D01*
Y521195D01*
X1273263Y522178D01*
X1270000Y522608D01*
X1266737Y522178D01*
X1263696Y520919D01*
X1261085Y518915D01*
X1259081Y516304D01*
X1257822Y513263D01*
X1257392Y510000D01*
X1257822Y506737D01*
X1259081Y503696D01*
X1261085Y501085D01*
X1263696Y499081D01*
X1266737Y497822D01*
X1270000Y497392D01*
X1273263Y497822D01*
X1276304Y499081D01*
X1277202Y499770D01*
Y482476D01*
X1278500D01*
Y456750D01*
Y426750D01*
Y401750D01*
Y371750D01*
Y349250D01*
Y319250D01*
X1309664D01*
Y307939D01*
X1308915Y308915D01*
X1306304Y310919D01*
X1303263Y312178D01*
X1300000Y312608D01*
X1296737Y312178D01*
X1293696Y310919D01*
X1291085Y308915D01*
X1289081Y306304D01*
X1287822Y303263D01*
X1287392Y300000D01*
X1287607Y298368D01*
X1280808D01*
Y272568D01*
Y263168D01*
Y250892D01*
Y241492D01*
Y229216D01*
Y223940D01*
Y198140D01*
Y185864D01*
Y176464D01*
Y169850D01*
X1276490D01*
Y143945D01*
X1275250Y144108D01*
X1271987Y143678D01*
X1268946Y142419D01*
X1266335Y140415D01*
X1264331Y137804D01*
X1263072Y134763D01*
X1262642Y131500D01*
X1263072Y128237D01*
X1263584Y127000D01*
X1263072Y125763D01*
X1262642Y122500D01*
X1263072Y119237D01*
X1263147Y119056D01*
X1262750Y119108D01*
X1259487Y118678D01*
X1256446Y117419D01*
X1253835Y115415D01*
X1251831Y112804D01*
X1250572Y109763D01*
X1250215Y107056D01*
X1249407Y109007D01*
X1250610Y111911D01*
X1251064Y115357D01*
X1250610Y118803D01*
X1249407Y121707D01*
X1250610Y124611D01*
X1251064Y128057D01*
X1250610Y131503D01*
X1249407Y134407D01*
X1250610Y137311D01*
X1251064Y140757D01*
X1250610Y144203D01*
X1249407Y147107D01*
X1250610Y150011D01*
X1251064Y153457D01*
X1250610Y156903D01*
X1249407Y159807D01*
X1250610Y162711D01*
X1251064Y166157D01*
X1250610Y169603D01*
X1249407Y172507D01*
X1250610Y175411D01*
X1251064Y178857D01*
X1250610Y182303D01*
X1249407Y185207D01*
X1250610Y188111D01*
X1251064Y191557D01*
X1250610Y195003D01*
X1249407Y197907D01*
X1250610Y200811D01*
X1251064Y204257D01*
X1250610Y207703D01*
X1249407Y210607D01*
X1250610Y213511D01*
X1251064Y216957D01*
X1250610Y220403D01*
X1249407Y223307D01*
X1250610Y226211D01*
X1251064Y229657D01*
X1250610Y233103D01*
X1249407Y236007D01*
X1250610Y238911D01*
X1251064Y242357D01*
X1250610Y245803D01*
X1249407Y248707D01*
X1250610Y251611D01*
X1251064Y255057D01*
X1250658Y258143D01*
X1251382Y258868D01*
X1252985Y260957D01*
X1253993Y263389D01*
X1254336Y266000D01*
Y284000D01*
X1253993Y286611D01*
X1252985Y289043D01*
X1251382Y291132D01*
X1251382Y291132D01*
X1250865Y291649D01*
X1251064Y293157D01*
X1250610Y296603D01*
X1249407Y299507D01*
X1250610Y302411D01*
X1251064Y305857D01*
X1250610Y309303D01*
X1249407Y312207D01*
X1250610Y315111D01*
X1251064Y318557D01*
X1250610Y322003D01*
X1249407Y324907D01*
X1250610Y327811D01*
X1251064Y331257D01*
X1250610Y334703D01*
X1249407Y337607D01*
X1250610Y340511D01*
X1251064Y343957D01*
X1250610Y347403D01*
X1249407Y350307D01*
X1250610Y353211D01*
X1251064Y356657D01*
X1250610Y360103D01*
X1249407Y363007D01*
X1250610Y365911D01*
X1251064Y369357D01*
X1250610Y372803D01*
X1249407Y375707D01*
X1250379Y378053D01*
X1253500Y377642D01*
X1256763Y378072D01*
X1259804Y379331D01*
X1262415Y381335D01*
X1264419Y383946D01*
X1265678Y386987D01*
X1266108Y390250D01*
X1265678Y393513D01*
X1264419Y396554D01*
X1262415Y399165D01*
X1259804Y401169D01*
X1256763Y402428D01*
X1253500Y402858D01*
X1250237Y402428D01*
X1249896Y402287D01*
X1250610Y404011D01*
X1251064Y407457D01*
X1250610Y410903D01*
X1249407Y413807D01*
X1250610Y416711D01*
X1251064Y420157D01*
X1250610Y423603D01*
X1249407Y426507D01*
X1250610Y429411D01*
X1251064Y432857D01*
X1250610Y436303D01*
X1249407Y439207D01*
X1250610Y442111D01*
X1251064Y445557D01*
X1250610Y449003D01*
X1249407Y451907D01*
X1250610Y454811D01*
X1251064Y458257D01*
X1250610Y461703D01*
X1249407Y464607D01*
X1250610Y467511D01*
X1251064Y470957D01*
X1250610Y474403D01*
X1249407Y477307D01*
X1250610Y480211D01*
X1251064Y483657D01*
X1250610Y487103D01*
X1249407Y490007D01*
X1250610Y492911D01*
X1251064Y496357D01*
X1250610Y499803D01*
X1249407Y502707D01*
X1250610Y505611D01*
X1251064Y509057D01*
X1250610Y512503D01*
X1249407Y515407D01*
X1250610Y518311D01*
X1251064Y521757D01*
X1250610Y525203D01*
X1249407Y528107D01*
X1250610Y531011D01*
X1251064Y534457D01*
X1250610Y537903D01*
X1249407Y540807D01*
X1250610Y543711D01*
X1251064Y547157D01*
X1250610Y550603D01*
X1249407Y553507D01*
X1250610Y556411D01*
X1251064Y559857D01*
X1250610Y563303D01*
X1249407Y566207D01*
X1250610Y569111D01*
X1251064Y572557D01*
X1250610Y576003D01*
X1249280Y579214D01*
X1247164Y581971D01*
X1244407Y584087D01*
X1241196Y585417D01*
X1237750Y585871D01*
X1234304Y585417D01*
X1231400Y584214D01*
X1228496Y585417D01*
X1225050Y585871D01*
X1221604Y585417D01*
X1221333Y585305D01*
X1220919Y586304D01*
X1218915Y588915D01*
X1217501Y590000D01*
X1218915Y591085D01*
X1220919Y593696D01*
X1222178Y596737D01*
X1222608Y600000D01*
X1222178Y603263D01*
X1220919Y606304D01*
X1218915Y608915D01*
X1217614Y609914D01*
X1242386D01*
X1241085Y608915D01*
X1239081Y606304D01*
X1237822Y603263D01*
X1237392Y600000D01*
X1237822Y596737D01*
X1239081Y593696D01*
X1241085Y591085D01*
X1243696Y589081D01*
X1246737Y587822D01*
X1250000Y587392D01*
X1253263Y587822D01*
X1256304Y589081D01*
X1258915Y591085D01*
X1260919Y593696D01*
X1262178Y596737D01*
X1262608Y600000D01*
X1262178Y603263D01*
X1260919Y606304D01*
X1258915Y608915D01*
X1257614Y609914D01*
X1272386D01*
X1271085Y608915D01*
D02*
G37*
G36*
X1199081Y606304D02*
X1197822Y603263D01*
X1197392Y600000D01*
X1197822Y596737D01*
X1199081Y593696D01*
X1201085Y591085D01*
X1202499Y590000D01*
X1201085Y588915D01*
X1199081Y586304D01*
X1197822Y583263D01*
X1197463Y580539D01*
X1196364Y581971D01*
X1193607Y584087D01*
X1190396Y585417D01*
X1187793Y585760D01*
X1189306Y587603D01*
X1190838Y590470D01*
X1191781Y593580D01*
X1192100Y596814D01*
X1191781Y600049D01*
X1190838Y603159D01*
X1189754Y605187D01*
X1191492Y605324D01*
X1196849Y606610D01*
X1200466Y608108D01*
X1199081Y606304D01*
D02*
G37*
G36*
X794582Y598718D02*
Y592218D01*
Y585718D01*
Y579936D01*
X793774D01*
X792470Y579764D01*
X791179Y579596D01*
X791171Y579593D01*
X791163Y579592D01*
X791090Y579562D01*
X771850D01*
Y592850D01*
X771582D01*
Y598718D01*
Y609914D01*
X794582D01*
Y598718D01*
D02*
G37*
G36*
X1097841Y569850D02*
Y569850D01*
X1099293Y569850D01*
X1102142Y569283D01*
X1104825Y568172D01*
X1107239Y566558D01*
X1108266Y565532D01*
X1109259Y564538D01*
X1110819Y562203D01*
X1111894Y559608D01*
X1112442Y556854D01*
Y555449D01*
X1112442Y210016D01*
X1112349Y210016D01*
X1112349Y84659D01*
X1112349Y84659D01*
X1112349Y83207D01*
X1111783Y80358D01*
X1110672Y77675D01*
X1109058Y75261D01*
X1108031Y74234D01*
X1107038Y73241D01*
X1104703Y71681D01*
X1102108Y70606D01*
X1099354Y70058D01*
X1097949D01*
X843012Y70058D01*
Y70058D01*
X560014Y70058D01*
X560000Y79060D01*
X846322Y79060D01*
X846322D01*
X847682Y79127D01*
X850350Y79657D01*
X852863Y80698D01*
X855125Y82210D01*
X856133Y83124D01*
X856133Y83124D01*
X857205Y84307D01*
X858977Y86958D01*
X860197Y89904D01*
X860819Y93031D01*
X860898Y94625D01*
X860898Y369578D01*
X860643Y369578D01*
Y545948D01*
X860643Y545948D01*
X860576Y547308D01*
X860045Y549976D01*
X859005Y552489D01*
X857493Y554751D01*
X856579Y555760D01*
X856579Y555760D01*
X855396Y556832D01*
X852745Y558603D01*
X849799Y559823D01*
X846672Y560446D01*
X845077Y560524D01*
X558993Y560524D01*
X559008Y569476D01*
X793773Y569476D01*
X793774Y569850D01*
X1097841Y569850D01*
D02*
G37*
G36*
X1163796Y608538D02*
X1161734Y606026D01*
X1160202Y603159D01*
X1159259Y600049D01*
X1158940Y596814D01*
X1159259Y593580D01*
X1160202Y590470D01*
X1161734Y587603D01*
X1163796Y585091D01*
X1166263Y583066D01*
X1164836Y581971D01*
X1162720Y579214D01*
X1161390Y576003D01*
X1160936Y572557D01*
X1161390Y569111D01*
X1162593Y566207D01*
X1161390Y563303D01*
X1160936Y559857D01*
X1161390Y556411D01*
X1162593Y553507D01*
X1161390Y550603D01*
X1160936Y547157D01*
X1161390Y543711D01*
X1162593Y540807D01*
X1161390Y537903D01*
X1160936Y534457D01*
X1161390Y531011D01*
X1162593Y528107D01*
X1161390Y525203D01*
X1160936Y521757D01*
X1161390Y518311D01*
X1162593Y515407D01*
X1161390Y512503D01*
X1160936Y509057D01*
X1161390Y505611D01*
X1162593Y502707D01*
X1161390Y499803D01*
X1160936Y496357D01*
X1161390Y492911D01*
X1162593Y490007D01*
X1161390Y487103D01*
X1160936Y483657D01*
X1161390Y480211D01*
X1162593Y477307D01*
X1161390Y474403D01*
X1160936Y470957D01*
X1161390Y467511D01*
X1162593Y464607D01*
X1161390Y461703D01*
X1160936Y458257D01*
X1161390Y454811D01*
X1162593Y451907D01*
X1161390Y449003D01*
X1160936Y445557D01*
X1161390Y442111D01*
X1162593Y439207D01*
X1161390Y436303D01*
X1160936Y432857D01*
X1161390Y429411D01*
X1162593Y426507D01*
X1161390Y423603D01*
X1160936Y420157D01*
X1161390Y416711D01*
X1162593Y413807D01*
X1161390Y410903D01*
X1160936Y407457D01*
X1161390Y404011D01*
X1162593Y401107D01*
X1161390Y398203D01*
X1160936Y394757D01*
X1161390Y391311D01*
X1162593Y388407D01*
X1161390Y385503D01*
X1160936Y382057D01*
X1161390Y378611D01*
X1162593Y375707D01*
X1161390Y372803D01*
X1160936Y369357D01*
X1161390Y365911D01*
X1162593Y363007D01*
X1161390Y360103D01*
X1160936Y356657D01*
X1161390Y353211D01*
X1162593Y350307D01*
X1161390Y347403D01*
X1160936Y343957D01*
X1161390Y340511D01*
X1162593Y337607D01*
X1161390Y334703D01*
X1160936Y331257D01*
X1161390Y327811D01*
X1162593Y324907D01*
X1161390Y322003D01*
X1160936Y318557D01*
X1161390Y315111D01*
X1162593Y312207D01*
X1161390Y309303D01*
X1160936Y305857D01*
X1161390Y302411D01*
X1162593Y299507D01*
X1161390Y296603D01*
X1160936Y293157D01*
X1161390Y289711D01*
X1162593Y286807D01*
X1161390Y283903D01*
X1160936Y280457D01*
X1161390Y277011D01*
X1162593Y274107D01*
X1162328Y273469D01*
X1160013Y274428D01*
X1156750Y274858D01*
X1153487Y274428D01*
X1150446Y273169D01*
X1147835Y271165D01*
X1145831Y268554D01*
X1144572Y265513D01*
X1144142Y262250D01*
X1144572Y258987D01*
X1145831Y255946D01*
X1147835Y253335D01*
X1150446Y251331D01*
X1153487Y250072D01*
X1156750Y249642D01*
X1160013Y250072D01*
X1161732Y250784D01*
X1162593Y248707D01*
X1161390Y245803D01*
X1160947Y242437D01*
X1157750Y242858D01*
X1154487Y242428D01*
X1153875Y242175D01*
X1153263Y242428D01*
X1150000Y242858D01*
X1146769Y242433D01*
X1146238Y242653D01*
X1142974Y243082D01*
X1139711Y242653D01*
X1139143Y242417D01*
X1138513Y242678D01*
X1135250Y243108D01*
X1131987Y242678D01*
X1128946Y241419D01*
X1126335Y239415D01*
X1124331Y236804D01*
X1124057Y236142D01*
X1122763Y236678D01*
X1122528Y236709D01*
Y244659D01*
X1123763Y244822D01*
X1126804Y246081D01*
X1129415Y248085D01*
X1131419Y250696D01*
X1132678Y253737D01*
X1133108Y257000D01*
X1132678Y260263D01*
X1131419Y263304D01*
X1129415Y265915D01*
X1126804Y267919D01*
X1123763Y269178D01*
X1122528Y269341D01*
Y363883D01*
X1124487Y363072D01*
X1127750Y362642D01*
X1131013Y363072D01*
X1134054Y364331D01*
X1136665Y366335D01*
X1138669Y368946D01*
X1139928Y371987D01*
X1140358Y375250D01*
X1139928Y378513D01*
X1138669Y381554D01*
X1138318Y382011D01*
X1140720Y383854D01*
X1142724Y386465D01*
X1143984Y389506D01*
X1144413Y392769D01*
X1143984Y396032D01*
X1142724Y399073D01*
X1140720Y401684D01*
X1138109Y403688D01*
X1135068Y404948D01*
X1131805Y405377D01*
X1128542Y404948D01*
X1125501Y403688D01*
X1122890Y401684D01*
X1122528Y401213D01*
Y483596D01*
X1124304Y484331D01*
X1126915Y486335D01*
X1128919Y488946D01*
X1130178Y491987D01*
X1130608Y495250D01*
X1130178Y498513D01*
X1128919Y501554D01*
X1126915Y504165D01*
X1124304Y506169D01*
X1122528Y506904D01*
Y549183D01*
X1122593Y550000D01*
X1122528Y550817D01*
Y555449D01*
Y556854D01*
X1122399Y557834D01*
X1122335Y558821D01*
X1122028Y560361D01*
X1123696Y559081D01*
X1126737Y557822D01*
X1130000Y557392D01*
X1133263Y557822D01*
X1136304Y559081D01*
X1138915Y561085D01*
X1140919Y563696D01*
X1142178Y566737D01*
X1142608Y570000D01*
X1142178Y573263D01*
X1140919Y576304D01*
X1140076Y577402D01*
X1143263Y577822D01*
X1146304Y579081D01*
X1148915Y581085D01*
X1150919Y583696D01*
X1152178Y586737D01*
X1152608Y590000D01*
X1152178Y593263D01*
X1150919Y596304D01*
X1148915Y598915D01*
X1147632Y599900D01*
X1159100D01*
Y609914D01*
X1165473D01*
X1163796Y608538D01*
D02*
G37*
G36*
X765860Y550438D02*
X766581Y548696D01*
X768585Y546085D01*
X771196Y544081D01*
X774237Y542822D01*
X774782Y542750D01*
X755218D01*
X755763Y542822D01*
X758804Y544081D01*
X761415Y546085D01*
X763419Y548696D01*
X764140Y550438D01*
X765860D01*
D02*
G37*
G36*
X741581Y548696D02*
X743585Y546085D01*
X746196Y544081D01*
X749237Y542822D01*
X749782Y542750D01*
X732718D01*
X733263Y542822D01*
X736304Y544081D01*
X738915Y546085D01*
X740919Y548696D01*
X741250Y549496D01*
X741581Y548696D01*
D02*
G37*
G36*
X718360Y550438D02*
X719081Y548696D01*
X721085Y546085D01*
X723696Y544081D01*
X726737Y542822D01*
X727282Y542750D01*
X707718D01*
X708263Y542822D01*
X711304Y544081D01*
X713915Y546085D01*
X715919Y548696D01*
X716640Y550438D01*
X718360D01*
D02*
G37*
G36*
X693360Y550438D02*
X694081Y548696D01*
X696085Y546085D01*
X698696Y544081D01*
X701737Y542822D01*
X702282Y542750D01*
X682718D01*
X683263Y542822D01*
X686304Y544081D01*
X688915Y546085D01*
X690919Y548696D01*
X691640Y550438D01*
X693360D01*
D02*
G37*
G36*
X668360D02*
X669081Y548696D01*
X671085Y546085D01*
X673696Y544081D01*
X676737Y542822D01*
X677282Y542750D01*
X657718D01*
X658263Y542822D01*
X661304Y544081D01*
X663915Y546085D01*
X665919Y548696D01*
X666640Y550438D01*
X668360D01*
D02*
G37*
G36*
X790860Y550438D02*
X791581Y548696D01*
X793585Y546085D01*
X796196Y544081D01*
X799237Y542822D01*
X802500Y542392D01*
X805763Y542822D01*
X808804Y544081D01*
X811415Y546085D01*
X813419Y548696D01*
X814140Y550438D01*
X819942D01*
X819907Y550000D01*
X820278Y545293D01*
X821380Y540701D01*
X823187Y536338D01*
X825654Y532312D01*
X828721Y528721D01*
X832312Y525654D01*
X836338Y523187D01*
X840701Y521380D01*
X845292Y520278D01*
X850000Y519907D01*
X850557Y519951D01*
Y504850D01*
X841625D01*
X840919Y506554D01*
X838915Y509165D01*
X836304Y511169D01*
X833263Y512428D01*
X830000Y512858D01*
X826737Y512428D01*
X823696Y511169D01*
X821085Y509165D01*
X820582Y508510D01*
X820533Y508567D01*
X820473Y508687D01*
X818045Y511852D01*
X817943Y511941D01*
X817869Y512053D01*
X815048Y514874D01*
X814936Y514948D01*
X814847Y515050D01*
X811683Y517478D01*
X811562Y517537D01*
X811461Y517626D01*
X809535Y518738D01*
X809988Y519085D01*
X811991Y521696D01*
X813251Y524737D01*
X813680Y528000D01*
X813251Y531263D01*
X811991Y534304D01*
X809988Y536915D01*
X807376Y538919D01*
X804336Y540178D01*
X801072Y540608D01*
X797809Y540178D01*
X795500Y539222D01*
Y542750D01*
X780218D01*
X780763Y542822D01*
X783804Y544081D01*
X786415Y546085D01*
X788419Y548696D01*
X789140Y550438D01*
X790860D01*
D02*
G37*
G36*
X1201085Y571085D02*
X1203696Y569081D01*
X1206737Y567822D01*
X1210000Y567392D01*
X1212752Y567754D01*
X1213393Y566207D01*
X1212190Y563303D01*
X1211736Y559857D01*
X1212190Y556411D01*
X1213393Y553507D01*
X1212190Y550603D01*
X1211736Y547157D01*
X1212190Y543711D01*
X1213393Y540807D01*
X1212190Y537903D01*
X1211736Y534457D01*
X1212190Y531011D01*
X1213393Y528107D01*
X1212190Y525203D01*
X1211736Y521757D01*
X1212190Y518311D01*
X1213393Y515407D01*
X1212190Y512503D01*
X1211736Y509057D01*
X1212190Y505611D01*
X1213393Y502707D01*
X1212527Y500616D01*
X1212178Y503263D01*
X1210919Y506304D01*
X1208915Y508915D01*
X1206304Y510919D01*
X1203263Y512178D01*
X1200000Y512608D01*
X1199779Y512579D01*
X1198607Y515407D01*
X1199810Y518311D01*
X1200264Y521757D01*
X1199810Y525203D01*
X1198607Y528107D01*
X1199810Y531011D01*
X1200264Y534457D01*
X1199810Y537903D01*
X1198607Y540807D01*
X1199810Y543711D01*
X1200264Y547157D01*
X1199810Y550603D01*
X1198607Y553507D01*
X1199810Y556411D01*
X1200264Y559857D01*
X1199810Y563303D01*
X1198607Y566207D01*
X1199810Y569111D01*
X1200219Y572214D01*
X1201085Y571085D01*
D02*
G37*
G36*
X1212190Y492911D02*
X1213393Y490007D01*
X1212190Y487103D01*
X1211736Y483657D01*
X1212190Y480211D01*
X1213393Y477307D01*
X1212190Y474403D01*
X1212073Y473517D01*
X1210919Y476304D01*
X1208915Y478915D01*
X1206304Y480919D01*
X1203263Y482178D01*
X1200124Y482592D01*
X1200264Y483657D01*
X1199810Y487103D01*
X1199673Y487435D01*
X1200000Y487392D01*
X1203263Y487822D01*
X1206304Y489081D01*
X1208915Y491085D01*
X1210919Y493696D01*
X1211805Y495835D01*
X1212190Y492911D01*
D02*
G37*
G36*
X850557Y446776D02*
X848915Y448915D01*
X847250Y450193D01*
Y459807D01*
X848915Y461085D01*
X850557Y463224D01*
Y446776D01*
D02*
G37*
G36*
X1202005Y443853D02*
X1205046Y442594D01*
X1208309Y442164D01*
X1211572Y442594D01*
X1212098Y442812D01*
X1212190Y442111D01*
X1213393Y439207D01*
X1212190Y436303D01*
X1211736Y432857D01*
X1212190Y429411D01*
X1213393Y426507D01*
X1212190Y423603D01*
X1211736Y420157D01*
X1212190Y416711D01*
X1213393Y413807D01*
X1212190Y410903D01*
X1211736Y407457D01*
X1212190Y404011D01*
X1213393Y401107D01*
X1212190Y398203D01*
X1211736Y394757D01*
X1212190Y391311D01*
X1213393Y388407D01*
X1212190Y385503D01*
X1211736Y382057D01*
X1212190Y378611D01*
X1213393Y375707D01*
X1212190Y372803D01*
X1211736Y369357D01*
X1212190Y365911D01*
X1213393Y363007D01*
X1212190Y360103D01*
X1211736Y356657D01*
X1212190Y353211D01*
X1213393Y350307D01*
X1212190Y347403D01*
X1211736Y343957D01*
X1212190Y340511D01*
X1213393Y337607D01*
X1212190Y334703D01*
X1211736Y331257D01*
X1212190Y327811D01*
X1213393Y324907D01*
X1212190Y322003D01*
X1211736Y318557D01*
X1212190Y315111D01*
X1213393Y312207D01*
X1212190Y309303D01*
X1211736Y305857D01*
X1212190Y302411D01*
X1213393Y299507D01*
X1212190Y296603D01*
X1212071Y295700D01*
X1211415Y296554D01*
X1208804Y298558D01*
X1205763Y299817D01*
X1202500Y300247D01*
X1199237Y299817D01*
X1198632Y299567D01*
X1199810Y302411D01*
X1200264Y305857D01*
X1199810Y309303D01*
X1198607Y312207D01*
X1199810Y315111D01*
X1200264Y318557D01*
X1199810Y322003D01*
X1198607Y324907D01*
X1199810Y327811D01*
X1200264Y331257D01*
X1199810Y334703D01*
X1198607Y337607D01*
X1199810Y340511D01*
X1200264Y343957D01*
X1199810Y347403D01*
X1198607Y350307D01*
X1199810Y353211D01*
X1200264Y356657D01*
X1199810Y360103D01*
X1198607Y363007D01*
X1199810Y365911D01*
X1200264Y369357D01*
X1199810Y372803D01*
X1198607Y375707D01*
X1199810Y378611D01*
X1200264Y382057D01*
X1199810Y385503D01*
X1198607Y388407D01*
X1199810Y391311D01*
X1200264Y394757D01*
X1199810Y398203D01*
X1198607Y401107D01*
X1199810Y404011D01*
X1200264Y407457D01*
X1199810Y410903D01*
X1198607Y413807D01*
X1199810Y416711D01*
X1200264Y420157D01*
X1199810Y423603D01*
X1198607Y426507D01*
X1199810Y429411D01*
X1200264Y432857D01*
X1199810Y436303D01*
X1198607Y439207D01*
X1199810Y442111D01*
X1200220Y445223D01*
X1202005Y443853D01*
D02*
G37*
G36*
X850000Y312392D02*
X850811Y312499D01*
Y281444D01*
X848915Y283915D01*
X847250Y285193D01*
Y301283D01*
Y312754D01*
X850000Y312392D01*
D02*
G37*
G36*
X1309664Y266597D02*
X1307008Y266947D01*
Y272568D01*
Y289622D01*
X1308915Y291085D01*
X1309664Y292061D01*
Y266597D01*
D02*
G37*
G36*
X1241750Y286500D02*
X1244250Y284000D01*
Y266000D01*
X1241000Y262750D01*
X1214750Y262750D01*
X1211750Y265750D01*
X1211750Y270250D01*
X1214250Y272750D01*
X1227000D01*
X1231500Y277250D01*
Y283500D01*
X1234500Y286500D01*
X1241750Y286500D01*
D02*
G37*
G36*
X850811Y255029D02*
X850000Y255093D01*
X847250Y254876D01*
Y264807D01*
X848915Y266085D01*
X850811Y268556D01*
Y255029D01*
D02*
G37*
G36*
X1211736Y216957D02*
X1212190Y213511D01*
X1213393Y210607D01*
X1212190Y207703D01*
X1211736Y204257D01*
X1212190Y200811D01*
X1213393Y197907D01*
X1212190Y195003D01*
X1211736Y191557D01*
X1212190Y188111D01*
X1213393Y185207D01*
X1212190Y182303D01*
X1211736Y178857D01*
X1212190Y175411D01*
X1213393Y172507D01*
X1212190Y169603D01*
X1211736Y166157D01*
X1212190Y162711D01*
X1213393Y159807D01*
X1212190Y156903D01*
X1211736Y153457D01*
X1212190Y150011D01*
X1213393Y147107D01*
X1212190Y144203D01*
X1211736Y140757D01*
X1212190Y137311D01*
X1213393Y134407D01*
X1212190Y131503D01*
X1211736Y128057D01*
X1212190Y124611D01*
X1213393Y121707D01*
X1212190Y118803D01*
X1211736Y115357D01*
X1212135Y112327D01*
X1210000Y112608D01*
X1206737Y112178D01*
X1203696Y110919D01*
X1201085Y108915D01*
X1199501Y106851D01*
X1198607Y109007D01*
X1199810Y111911D01*
X1200264Y115357D01*
X1199810Y118803D01*
X1198607Y121707D01*
X1199810Y124611D01*
X1200264Y128057D01*
X1199810Y131503D01*
X1198607Y134407D01*
X1199810Y137311D01*
X1200264Y140757D01*
X1199810Y144203D01*
X1198607Y147107D01*
X1199810Y150011D01*
X1200264Y153457D01*
X1199810Y156903D01*
X1198607Y159807D01*
X1199810Y162711D01*
X1200264Y166157D01*
X1199810Y169603D01*
X1198607Y172507D01*
X1199810Y175411D01*
X1200264Y178857D01*
X1199810Y182303D01*
X1198607Y185207D01*
X1199810Y188111D01*
X1200264Y191557D01*
X1199810Y195003D01*
X1198607Y197907D01*
X1199810Y200811D01*
X1200264Y204257D01*
X1199810Y207703D01*
X1198607Y210607D01*
X1199569Y212929D01*
X1201750Y212642D01*
X1205013Y213072D01*
X1208054Y214331D01*
X1210665Y216335D01*
X1211859Y217891D01*
X1211736Y216957D01*
D02*
G37*
G36*
X797392Y117500D02*
X797822Y114237D01*
X799081Y111196D01*
X800958Y108750D01*
X799081Y106304D01*
X797822Y103263D01*
X797392Y100000D01*
X797822Y96737D01*
X798893Y94151D01*
X798585Y93915D01*
X796581Y91304D01*
X795687Y89146D01*
X794313D01*
X793419Y91304D01*
X791415Y93915D01*
X788804Y95919D01*
X785763Y97178D01*
X782500Y97608D01*
X782289Y97580D01*
X782608Y100000D01*
X782577Y100231D01*
X783263Y100322D01*
X786304Y101581D01*
X788915Y103585D01*
X790919Y106196D01*
X792178Y109237D01*
X792608Y112500D01*
X792178Y115763D01*
X791268Y117961D01*
X794995D01*
X795029Y117968D01*
X795062Y117962D01*
X796959Y118024D01*
X797057Y118047D01*
X797158Y118041D01*
X797469Y118081D01*
X797392Y117500D01*
D02*
G37*
G36*
X821085Y131085D02*
X823696Y129081D01*
X826737Y127822D01*
X827695Y127696D01*
X827822Y126737D01*
X829081Y123696D01*
X831085Y121085D01*
X833696Y119081D01*
X836737Y117822D01*
X838282Y117618D01*
X836338Y116813D01*
X832312Y114346D01*
X828721Y111279D01*
X825654Y107688D01*
X823187Y103662D01*
X822382Y101718D01*
X822178Y103263D01*
X820919Y106304D01*
X819042Y108750D01*
X820919Y111196D01*
X822178Y114237D01*
X822608Y117500D01*
X822178Y120763D01*
X820919Y123804D01*
X818915Y126415D01*
X817389Y127586D01*
X818240Y128437D01*
X818315Y128549D01*
X818416Y128638D01*
X820689Y131600D01*
X821085Y131085D01*
D02*
G37*
G36*
X742822Y109237D02*
X744081Y106196D01*
X746085Y103585D01*
X748696Y101581D01*
X751737Y100322D01*
X755000Y99892D01*
X757420Y100211D01*
X757392Y100000D01*
X757711Y97580D01*
X757500Y97608D01*
X754237Y97178D01*
X751196Y95919D01*
X748585Y93915D01*
X746581Y91304D01*
X745687Y89146D01*
X744313D01*
X743419Y91304D01*
X741415Y93915D01*
X741107Y94151D01*
X742178Y96737D01*
X742608Y100000D01*
X742178Y103263D01*
X740941Y106250D01*
X742178Y109237D01*
X742500Y111681D01*
X742822Y109237D01*
D02*
G37*
G36*
X659081Y106196D02*
X661085Y103585D01*
X663696Y101581D01*
X666737Y100322D01*
X666800Y100313D01*
X666380Y99299D01*
X665861Y97138D01*
X665763Y97178D01*
X662500Y97608D01*
X659237Y97178D01*
X656196Y95919D01*
X653585Y93915D01*
X651581Y91304D01*
X650687Y89146D01*
X649313D01*
X648607Y90849D01*
X648915Y91085D01*
X650919Y93696D01*
X652178Y96737D01*
X652608Y100000D01*
X652472Y101030D01*
X653804Y101581D01*
X656415Y103585D01*
X658419Y106196D01*
X658750Y106996D01*
X659081Y106196D01*
D02*
G37*
G36*
X1131987Y218322D02*
X1135250Y217892D01*
X1138513Y218322D01*
X1139081Y218557D01*
X1139531Y218371D01*
X1139072Y217263D01*
X1138642Y214000D01*
X1139072Y210737D01*
X1140331Y207696D01*
X1142335Y205085D01*
X1144946Y203081D01*
X1147987Y201822D01*
X1151250Y201392D01*
X1154513Y201822D01*
X1155175Y202096D01*
X1155837Y201822D01*
X1159100Y201392D01*
X1161276Y201679D01*
X1161390Y200811D01*
X1162593Y197907D01*
X1161390Y195003D01*
X1160936Y191557D01*
X1161390Y188111D01*
X1162593Y185207D01*
X1161390Y182303D01*
X1160936Y178857D01*
X1161390Y175411D01*
X1162593Y172507D01*
X1161390Y169603D01*
X1160936Y166157D01*
X1161390Y162711D01*
X1162593Y159807D01*
X1161390Y156903D01*
X1160936Y153457D01*
X1161390Y150011D01*
X1162593Y147107D01*
X1161390Y144203D01*
X1160936Y140757D01*
X1161390Y137311D01*
X1162593Y134407D01*
X1161390Y131503D01*
X1160936Y128057D01*
X1161390Y124611D01*
X1162593Y121707D01*
X1161390Y118803D01*
X1160936Y115357D01*
X1161390Y111911D01*
X1162593Y109007D01*
X1161390Y106103D01*
X1160936Y102657D01*
X1161390Y99211D01*
X1162593Y96307D01*
X1161390Y93403D01*
X1160936Y89957D01*
X1161390Y86511D01*
X1162593Y83607D01*
X1161390Y80703D01*
X1160936Y77257D01*
X1161128Y75798D01*
X1160919Y76304D01*
X1158915Y78915D01*
X1156304Y80919D01*
X1153263Y82178D01*
X1150000Y82608D01*
X1146737Y82178D01*
X1143696Y80919D01*
X1141085Y78915D01*
X1139081Y76304D01*
X1137822Y73263D01*
X1137392Y70000D01*
X1137822Y66737D01*
X1139081Y63696D01*
X1141085Y61085D01*
X1143696Y59081D01*
X1146737Y57822D01*
X1150000Y57392D01*
X1153263Y57822D01*
X1156304Y59081D01*
X1158915Y61085D01*
X1160919Y63696D01*
X1162178Y66737D01*
X1162608Y70000D01*
X1162440Y71276D01*
X1162720Y70600D01*
X1164836Y67843D01*
X1167593Y65727D01*
X1170804Y64397D01*
X1174250Y63943D01*
X1177696Y64397D01*
X1180600Y65600D01*
X1183504Y64397D01*
X1186950Y63943D01*
X1190396Y64397D01*
X1193607Y65727D01*
X1196364Y67843D01*
X1198480Y70600D01*
X1199810Y73811D01*
X1200264Y77257D01*
X1199810Y80703D01*
X1198607Y83607D01*
X1199810Y86511D01*
X1200264Y89957D01*
X1199915Y92610D01*
X1201085Y91085D01*
X1203696Y89081D01*
X1206737Y87822D01*
X1210000Y87392D01*
X1212038Y87661D01*
X1212190Y86511D01*
X1213393Y83607D01*
X1212190Y80703D01*
X1211736Y77257D01*
X1212190Y73811D01*
X1213520Y70600D01*
X1215636Y67843D01*
X1218393Y65727D01*
X1221604Y64397D01*
X1225050Y63943D01*
X1228496Y64397D01*
X1231400Y65600D01*
X1234304Y64397D01*
X1237750Y63943D01*
X1241196Y64397D01*
X1244407Y65727D01*
X1247164Y67843D01*
X1249280Y70600D01*
X1250249Y72939D01*
X1250572Y70487D01*
X1251236Y68884D01*
X1249831Y67054D01*
X1248572Y64013D01*
X1248358Y62392D01*
X1246737Y62178D01*
X1243696Y60919D01*
X1241085Y58915D01*
X1239081Y56304D01*
X1237822Y53263D01*
X1237392Y50000D01*
X1237822Y46737D01*
X1239081Y43696D01*
X1241085Y41085D01*
X1242386Y40086D01*
X1216274D01*
X1217724Y41276D01*
X1219786Y43789D01*
X1221318Y46655D01*
X1222261Y49766D01*
X1222580Y53000D01*
X1222261Y56235D01*
X1221318Y59345D01*
X1219786Y62211D01*
X1217724Y64724D01*
X1215211Y66786D01*
X1212345Y68318D01*
X1209235Y69261D01*
X1206000Y69580D01*
X1202765Y69261D01*
X1199655Y68318D01*
X1196789Y66786D01*
X1194276Y64724D01*
X1192214Y62211D01*
X1190682Y59345D01*
X1189739Y56235D01*
X1189420Y53000D01*
X1189739Y49766D01*
X1190682Y46655D01*
X1191777Y44608D01*
X1191492Y44676D01*
X1186000Y45108D01*
X1181352Y44742D01*
X1182178Y46737D01*
X1182608Y50000D01*
X1182178Y53263D01*
X1180919Y56304D01*
X1178915Y58915D01*
X1176304Y60919D01*
X1173263Y62178D01*
X1170000Y62608D01*
X1166737Y62178D01*
X1163696Y60919D01*
X1161085Y58915D01*
X1159081Y56304D01*
X1157822Y53263D01*
X1157392Y50000D01*
X1157822Y46737D01*
X1159081Y43696D01*
X1161085Y41085D01*
X1162386Y40086D01*
X1136111Y40086D01*
X1136304Y40166D01*
X1138915Y42170D01*
X1140919Y44781D01*
X1142178Y47822D01*
X1142608Y51085D01*
X1142178Y54348D01*
X1140919Y57389D01*
X1138915Y60000D01*
X1136304Y62004D01*
X1133263Y63263D01*
X1130000Y63693D01*
X1126737Y63263D01*
X1123696Y62004D01*
X1121085Y60000D01*
X1120750Y59564D01*
Y69000D01*
X1116868D01*
X1117445Y69657D01*
X1119058Y72072D01*
X1119495Y72959D01*
X1119990Y73815D01*
X1121102Y76498D01*
X1121357Y77454D01*
X1121675Y78391D01*
X1122242Y81239D01*
X1122307Y82226D01*
X1122436Y83207D01*
X1122436Y84658D01*
X1122436Y84659D01*
Y88006D01*
X1122587Y89932D01*
X1123696Y89081D01*
X1126737Y87822D01*
X1130000Y87392D01*
X1133263Y87822D01*
X1136304Y89081D01*
X1138915Y91085D01*
X1140919Y93696D01*
X1142178Y96737D01*
X1142608Y100000D01*
X1142178Y103263D01*
X1140919Y106304D01*
X1138915Y108915D01*
X1136304Y110919D01*
X1133263Y112178D01*
X1130000Y112608D01*
X1126737Y112178D01*
X1123696Y110919D01*
X1122436Y109952D01*
X1122436Y209312D01*
X1122528Y210016D01*
Y212291D01*
X1122763Y212322D01*
X1125804Y213581D01*
X1128415Y215585D01*
X1130419Y218196D01*
X1130693Y218858D01*
X1131987Y218322D01*
D02*
G37*
G36*
X1305946Y79081D02*
X1308987Y77822D01*
X1309664Y77733D01*
Y71000D01*
X1300979D01*
X1301415Y71335D01*
X1303419Y73946D01*
X1304678Y76987D01*
X1305045Y79773D01*
X1305946Y79081D01*
D02*
G37*
G36*
X961085Y58915D02*
X959081Y56304D01*
X957822Y53263D01*
X957392Y50000D01*
X957822Y46737D01*
X959081Y43696D01*
X961085Y41085D01*
X962386Y40086D01*
X937614D01*
X938915Y41085D01*
X940919Y43696D01*
X942178Y46737D01*
X942608Y50000D01*
X942178Y53263D01*
X940919Y56304D01*
X938915Y58915D01*
X937538Y59971D01*
X962462D01*
X961085Y58915D01*
D02*
G37*
G36*
X921085D02*
X919081Y56304D01*
X917822Y53263D01*
X917392Y50000D01*
X917822Y46737D01*
X919081Y43696D01*
X921085Y41085D01*
X922386Y40086D01*
X897614D01*
X898915Y41085D01*
X900919Y43696D01*
X902178Y46737D01*
X902608Y50000D01*
X902178Y53263D01*
X900919Y56304D01*
X898915Y58915D01*
X897538Y59971D01*
X922462D01*
X921085Y58915D01*
D02*
G37*
G36*
X881085D02*
X879081Y56304D01*
X877822Y53263D01*
X877392Y50000D01*
X877822Y46737D01*
X879081Y43696D01*
X881085Y41085D01*
X882386Y40086D01*
X865750D01*
Y59971D01*
X882462D01*
X881085Y58915D01*
D02*
G37*
G36*
X676873Y40086D02*
X674708D01*
X674676Y40492D01*
X674336Y41907D01*
X674336Y59971D01*
X676873D01*
Y40086D01*
D02*
G37*
G36*
X1370000Y-19500D02*
X547499Y-19500D01*
X547499Y60000D01*
X664250Y60000D01*
X664250Y30000D01*
X1319750Y30000D01*
X1319750Y620000D01*
X664250D01*
Y575000D01*
X547500Y575000D01*
X547500Y670500D01*
X1370000Y670500D01*
X1370000Y-19500D01*
D02*
G37*
%LPC*%
G36*
X868408Y560898D02*
X869097Y559235D01*
X869645Y556480D01*
X869645Y555076D01*
X869645Y388727D01*
X869850Y388726D01*
X869849Y84659D01*
X869849Y84659D01*
X869849Y83207D01*
X869283Y80358D01*
X868745Y79060D01*
X1088822Y79060D01*
X1088822D01*
X1090182Y79127D01*
X1092850Y79657D01*
X1095363Y80698D01*
X1097625Y82210D01*
X1098633Y83124D01*
X1098633Y83124D01*
X1099705Y84307D01*
X1101477Y86958D01*
X1102697Y89904D01*
X1103319Y93031D01*
X1103398Y94625D01*
X1103398Y388741D01*
X1103440Y388741D01*
Y546322D01*
X1103440Y546322D01*
X1103373Y547682D01*
X1102842Y550350D01*
X1101802Y552863D01*
X1100290Y555125D01*
X1099376Y556133D01*
X1099376Y556133D01*
X1098193Y557205D01*
X1095542Y558977D01*
X1092596Y560197D01*
X1089469Y560819D01*
X1087875Y560897D01*
X868408Y560898D01*
D02*
G37*
%LPD*%
G36*
X1062471Y550811D02*
X1062407Y550000D01*
X1062778Y545293D01*
X1063880Y540701D01*
X1065687Y536338D01*
X1068154Y532312D01*
X1069565Y530660D01*
X1069554Y530669D01*
X1066513Y531928D01*
X1064631Y532176D01*
X1064386Y534034D01*
X1063227Y536832D01*
X1061384Y539234D01*
X1058982Y541077D01*
X1058250Y541380D01*
Y550811D01*
X1062471D01*
D02*
G37*
G36*
X930206Y550811D02*
Y550206D01*
X930199Y550154D01*
X930206Y550102D01*
Y540875D01*
X930111Y540154D01*
X930206Y539433D01*
Y533717D01*
X930081Y533554D01*
X928822Y530513D01*
X928619Y528974D01*
X908360D01*
Y531750D01*
Y550811D01*
X930206D01*
D02*
G37*
G36*
X918480Y501292D02*
X918583Y501044D01*
X918480Y500796D01*
X918085Y497794D01*
X918480Y494792D01*
X919639Y491994D01*
X920693Y490620D01*
X912548D01*
Y464420D01*
X946134D01*
Y463593D01*
X942987Y463178D01*
X939946Y461919D01*
X939410Y461507D01*
Y463250D01*
X879731D01*
Y465366D01*
X881250Y465166D01*
X884513Y465596D01*
X887554Y466855D01*
X890165Y468859D01*
X890366Y469120D01*
X891031Y468845D01*
X894294Y468416D01*
X897557Y468845D01*
X900598Y470105D01*
X903209Y472108D01*
X905212Y474720D01*
X906472Y477760D01*
X906901Y481023D01*
X906472Y484287D01*
X905212Y487327D01*
X903209Y489939D01*
X900598Y491942D01*
X897557Y493202D01*
X894294Y493631D01*
X891031Y493202D01*
X887990Y491942D01*
X885378Y489939D01*
X885178Y489677D01*
X884513Y489952D01*
X882743Y490185D01*
X883915Y491085D01*
X885919Y493696D01*
X887178Y496737D01*
X887608Y500000D01*
X887377Y501750D01*
X908360D01*
Y502774D01*
X918285D01*
X918480Y501292D01*
D02*
G37*
G36*
X1026400Y467650D02*
X1039646D01*
Y449566D01*
X1040000D01*
Y434000D01*
X1047325D01*
X1048196Y433331D01*
X1051237Y432072D01*
X1054500Y431642D01*
X1057763Y432072D01*
X1060804Y433331D01*
X1061675Y434000D01*
X1063325D01*
X1064196Y433331D01*
X1067237Y432072D01*
X1070500Y431642D01*
X1073763Y432072D01*
X1076804Y433331D01*
X1077675Y434000D01*
X1083955D01*
X1084081Y433696D01*
X1086085Y431085D01*
X1088696Y429081D01*
X1091737Y427822D01*
X1093354Y427609D01*
Y427391D01*
X1091737Y427178D01*
X1088696Y425919D01*
X1086085Y423915D01*
X1084081Y421304D01*
X1082822Y418263D01*
X1082392Y415000D01*
X1082822Y411737D01*
X1084081Y408696D01*
X1086085Y406085D01*
X1088696Y404081D01*
X1091737Y402822D01*
X1093354Y402609D01*
Y389075D01*
X1093311Y388757D01*
X1093312Y388749D01*
X1093311Y388741D01*
Y345750D01*
X1071897D01*
X1071825Y345843D01*
X1071812Y345853D01*
X1072178Y346737D01*
X1072608Y350000D01*
X1072178Y353263D01*
X1070919Y356304D01*
X1068915Y358915D01*
X1066304Y360919D01*
X1063263Y362178D01*
X1060000Y362608D01*
X1056737Y362178D01*
X1053696Y360919D01*
X1051085Y358915D01*
X1049081Y356304D01*
X1047932Y353530D01*
X1046032Y354317D01*
X1046206Y354737D01*
X1046636Y358000D01*
X1046206Y361263D01*
X1045901Y362000D01*
X1046206Y362737D01*
X1046548Y365333D01*
X1048355Y366081D01*
X1050966Y368085D01*
X1052970Y370696D01*
X1054229Y373737D01*
X1054659Y377000D01*
X1054229Y380263D01*
X1052970Y383304D01*
X1050966Y385915D01*
X1048399Y387885D01*
X1050966Y389854D01*
X1051932Y391113D01*
X1054254Y389331D01*
X1057295Y388072D01*
X1060558Y387642D01*
X1063821Y388072D01*
X1066862Y389331D01*
X1069473Y391335D01*
X1071477Y393946D01*
X1072737Y396987D01*
X1073166Y400250D01*
X1072737Y403513D01*
X1071477Y406554D01*
X1069473Y409165D01*
X1066862Y411169D01*
X1063821Y412428D01*
X1060558Y412858D01*
X1057295Y412428D01*
X1054254Y411169D01*
X1051643Y409165D01*
X1050677Y407906D01*
X1048355Y409688D01*
X1045314Y410948D01*
X1042051Y411377D01*
X1038788Y410948D01*
X1035747Y409688D01*
X1033136Y407685D01*
X1031132Y405073D01*
X1029873Y402033D01*
X1029443Y398769D01*
X1029873Y395506D01*
X1031132Y392466D01*
X1033136Y389854D01*
X1035703Y387885D01*
X1033136Y385915D01*
X1031132Y383304D01*
X1029873Y380263D01*
X1029582Y378058D01*
X1029291Y378178D01*
X1028880Y378232D01*
X1028562Y379000D01*
X1029178Y380487D01*
X1029608Y383750D01*
X1029178Y387013D01*
X1027919Y390054D01*
X1025915Y392665D01*
X1023304Y394669D01*
X1020263Y395928D01*
X1017000Y396358D01*
X1013850Y395943D01*
Y413350D01*
X995306D01*
X994513Y413678D01*
X993900Y413759D01*
Y421100D01*
X966500D01*
Y422821D01*
X959600D01*
Y430517D01*
Y444446D01*
X962250D01*
Y428500D01*
X969575D01*
X970446Y427831D01*
X973487Y426572D01*
X976750Y426142D01*
X980013Y426572D01*
X983054Y427831D01*
X983925Y428500D01*
X985574D01*
X986446Y427831D01*
X989487Y426572D01*
X992750Y426142D01*
X996013Y426572D01*
X999054Y427831D01*
X999926Y428500D01*
X1007250D01*
Y443846D01*
X1012594D01*
Y454429D01*
Y465013D01*
Y467976D01*
X1026400D01*
Y467650D01*
D02*
G37*
G36*
X969392Y392750D02*
X969822Y389487D01*
X970334Y388250D01*
X969822Y387013D01*
X969392Y383750D01*
X969822Y380487D01*
X970633Y378528D01*
X970028Y378608D01*
X967231Y378240D01*
X966500Y380004D01*
Y393821D01*
Y394900D01*
X969675D01*
X969392Y392750D01*
D02*
G37*
G36*
X933642Y374500D02*
X934072Y371237D01*
X934370Y370518D01*
X933850Y369263D01*
X933420Y366000D01*
X933850Y362737D01*
X934155Y362000D01*
X933850Y361263D01*
X933420Y358000D01*
X933424Y357973D01*
X931820Y357309D01*
X931815Y357315D01*
X929204Y359319D01*
X928900Y359445D01*
Y362800D01*
Y376500D01*
X933905D01*
X933642Y374500D01*
D02*
G37*
G36*
X1093311Y198272D02*
X1067947D01*
X1066795Y201054D01*
X1064791Y203665D01*
X1062180Y205669D01*
X1059139Y206928D01*
X1055876Y207358D01*
X1052613Y206928D01*
X1049572Y205669D01*
X1046961Y203665D01*
X1044957Y201054D01*
X1043698Y198013D01*
X1043268Y194750D01*
X1043698Y191487D01*
X1044957Y188446D01*
X1046961Y185835D01*
X1049572Y183831D01*
X1052613Y182572D01*
X1055876Y182142D01*
X1059139Y182572D01*
X1062180Y183831D01*
X1064791Y185835D01*
X1066500Y188062D01*
Y166772D01*
Y144676D01*
X1065831Y143804D01*
X1064572Y140763D01*
X1064142Y137500D01*
X1064572Y134237D01*
X1065831Y131196D01*
X1067835Y128585D01*
X1070446Y126581D01*
X1073487Y125322D01*
X1076750Y124892D01*
X1080013Y125322D01*
X1083054Y126581D01*
X1085665Y128585D01*
X1087669Y131196D01*
X1088928Y134237D01*
X1089262Y136772D01*
X1093311D01*
Y120029D01*
X1092500Y120093D01*
X1087792Y119722D01*
X1083201Y118620D01*
X1078838Y116813D01*
X1074812Y114346D01*
X1071221Y111279D01*
X1068154Y107688D01*
X1065687Y103662D01*
X1063880Y99299D01*
X1062778Y94707D01*
X1062407Y90000D01*
X1062474Y89146D01*
X1056389D01*
X1058915Y91085D01*
X1060919Y93696D01*
X1062178Y96737D01*
X1062608Y100000D01*
X1062178Y103263D01*
X1060919Y106304D01*
X1058915Y108915D01*
X1057501Y110000D01*
X1058915Y111085D01*
X1060919Y113696D01*
X1062178Y116737D01*
X1062608Y120000D01*
X1062178Y123263D01*
X1060919Y126304D01*
X1058915Y128915D01*
X1056304Y130919D01*
X1053263Y132178D01*
X1050000Y132608D01*
X1046737Y132178D01*
X1043696Y130919D01*
X1041085Y128915D01*
X1039081Y126304D01*
X1037822Y123263D01*
X1037392Y120000D01*
X1037822Y116737D01*
X1039081Y113696D01*
X1041085Y111085D01*
X1042499Y110000D01*
X1041085Y108915D01*
X1039081Y106304D01*
X1037822Y103263D01*
X1037392Y100000D01*
X1037822Y96737D01*
X1039081Y93696D01*
X1041085Y91085D01*
X1043611Y89146D01*
X981813Y89146D01*
X980919Y91304D01*
X980001Y92500D01*
X980919Y93696D01*
X982178Y96737D01*
X982608Y100000D01*
X982178Y103263D01*
X980919Y106304D01*
X978915Y108915D01*
X976304Y110919D01*
X973263Y112178D01*
X970000Y112608D01*
X966737Y112178D01*
X963696Y110919D01*
X961085Y108915D01*
X959081Y106304D01*
X957822Y103263D01*
X957392Y100000D01*
X957822Y96737D01*
X959081Y93696D01*
X959999Y92500D01*
X959081Y91304D01*
X958187Y89146D01*
X951813D01*
X950919Y91304D01*
X948915Y93915D01*
X946304Y95919D01*
X943263Y97178D01*
X942254Y97311D01*
X942608Y100000D01*
X942178Y103263D01*
X940919Y106304D01*
X938915Y108915D01*
X936304Y110919D01*
X933263Y112178D01*
X930000Y112608D01*
X926737Y112178D01*
X923696Y110919D01*
X921085Y108915D01*
X919081Y106304D01*
X917822Y103263D01*
X917392Y100000D01*
X917755Y97245D01*
X915000Y97608D01*
X911737Y97178D01*
X908696Y95919D01*
X906085Y93915D01*
X904081Y91304D01*
X903187Y89146D01*
X901813D01*
X900919Y91304D01*
X900001Y92500D01*
X900919Y93696D01*
X902178Y96737D01*
X902608Y100000D01*
X902178Y103263D01*
X900919Y106304D01*
X898915Y108915D01*
X896304Y110919D01*
X893263Y112178D01*
X890000Y112608D01*
X886737Y112178D01*
X885607Y111710D01*
X885001Y112500D01*
X885919Y113696D01*
X887178Y116737D01*
X887311Y117746D01*
X890000Y117392D01*
X893263Y117822D01*
X896304Y119081D01*
X898915Y121085D01*
X900919Y123696D01*
X902178Y126737D01*
X902402Y128435D01*
X907923D01*
Y158435D01*
Y189935D01*
X896486D01*
X895919Y191304D01*
X893915Y193915D01*
X891304Y195919D01*
X888263Y197178D01*
X887305Y197304D01*
X887178Y198263D01*
X885919Y201304D01*
X885001Y202500D01*
X885919Y203696D01*
X887178Y206737D01*
X887608Y210000D01*
X887178Y213263D01*
X885919Y216304D01*
X883915Y218915D01*
X881304Y220919D01*
X879936Y221486D01*
Y223006D01*
X880093Y225000D01*
X879936Y226994D01*
X879936Y239250D01*
X898500D01*
Y236500D01*
Y218282D01*
X897370Y217415D01*
X895366Y214804D01*
X894107Y211763D01*
X893677Y208500D01*
X894107Y205237D01*
X895366Y202196D01*
X897370Y199585D01*
X899981Y197581D01*
X903022Y196322D01*
X906285Y195892D01*
X909548Y196322D01*
X912589Y197581D01*
X915200Y199585D01*
X917204Y202196D01*
X917634Y203234D01*
X918581Y200946D01*
X920585Y198335D01*
X923196Y196331D01*
X923944Y196021D01*
X923696Y195919D01*
X921085Y193915D01*
X919081Y191304D01*
X917822Y188263D01*
X917392Y185000D01*
X917822Y181737D01*
X919081Y178696D01*
X921085Y176085D01*
X923696Y174081D01*
X926737Y172822D01*
X929181Y172500D01*
X926737Y172178D01*
X923696Y170919D01*
X921085Y168915D01*
X919081Y166304D01*
X917822Y163263D01*
X917392Y160000D01*
X917822Y156737D01*
X919081Y153696D01*
X921085Y151085D01*
X923696Y149081D01*
X926737Y147822D01*
X930000Y147392D01*
X933263Y147822D01*
X936304Y149081D01*
X938915Y151085D01*
X940919Y153696D01*
X942178Y156737D01*
X942608Y160000D01*
X942178Y163263D01*
X940919Y166304D01*
X938915Y168915D01*
X936304Y170919D01*
X933263Y172178D01*
X930819Y172500D01*
X933263Y172822D01*
X936304Y174081D01*
X938915Y176085D01*
X940919Y178696D01*
X942178Y181737D01*
X942608Y185000D01*
X942178Y188263D01*
X940919Y191304D01*
X938915Y193915D01*
X936304Y195919D01*
X935556Y196229D01*
X935804Y196331D01*
X938415Y198335D01*
X940419Y200946D01*
X941678Y203987D01*
X942108Y207250D01*
X941678Y210513D01*
X940419Y213554D01*
X939693Y214500D01*
X946000D01*
Y236500D01*
Y238471D01*
X948500Y238142D01*
X951763Y238572D01*
X954804Y239831D01*
X957415Y241835D01*
X959419Y244446D01*
X960471Y246987D01*
X963013Y247322D01*
X963875Y247679D01*
X964737Y247322D01*
X968000Y246892D01*
X971263Y247322D01*
X972375Y247782D01*
X973487Y247322D01*
X976750Y246892D01*
X980013Y247322D01*
X981000Y247731D01*
X981987Y247322D01*
X984674Y246968D01*
X984072Y245513D01*
X983642Y242250D01*
X984072Y238987D01*
X985331Y235946D01*
X987335Y233335D01*
X989946Y231331D01*
X992987Y230072D01*
X996250Y229642D01*
X999513Y230072D01*
X1002554Y231331D01*
X1005165Y233335D01*
X1007169Y235946D01*
X1008428Y238987D01*
X1008858Y242250D01*
X1008428Y245513D01*
X1007502Y247750D01*
X1008428Y249987D01*
X1008858Y253250D01*
X1008428Y256513D01*
X1008179Y257115D01*
X1009304Y257581D01*
X1010150Y258230D01*
Y241850D01*
Y232450D01*
X1016087D01*
X1017331Y229446D01*
X1019335Y226835D01*
X1021946Y224831D01*
X1024987Y223572D01*
X1028250Y223142D01*
X1031513Y223572D01*
X1034554Y224831D01*
X1037165Y226835D01*
X1039169Y229446D01*
X1040428Y232487D01*
X1040858Y235750D01*
X1040428Y239013D01*
X1039169Y242054D01*
X1037165Y244665D01*
X1036350Y245291D01*
Y265698D01*
X1037291Y265822D01*
X1040332Y267081D01*
X1042943Y269085D01*
X1044947Y271696D01*
X1045641Y273373D01*
X1045696Y273331D01*
X1048737Y272072D01*
X1052000Y271642D01*
X1055263Y272072D01*
X1056500Y272584D01*
X1057737Y272072D01*
X1060106Y271760D01*
X1059072Y269263D01*
X1058642Y266000D01*
X1059072Y262737D01*
X1060331Y259696D01*
X1062335Y257085D01*
X1064946Y255081D01*
X1067184Y254154D01*
X1067581Y253196D01*
X1069585Y250585D01*
X1072196Y248581D01*
X1075237Y247322D01*
X1078500Y246892D01*
X1081763Y247322D01*
X1084804Y248581D01*
X1087415Y250585D01*
X1089419Y253196D01*
X1090678Y256237D01*
X1091108Y259500D01*
X1090678Y262763D01*
X1089419Y265804D01*
X1087415Y268415D01*
X1084804Y270419D01*
X1082566Y271346D01*
X1082169Y272304D01*
X1080165Y274915D01*
X1077554Y276919D01*
X1074513Y278178D01*
X1072144Y278490D01*
X1073178Y280987D01*
X1073608Y284250D01*
X1093311D01*
X1093311Y198272D01*
D02*
G37*
%LPC*%
G36*
X1012500Y198858D02*
X1009237Y198428D01*
X1006196Y197169D01*
X1003585Y195165D01*
X1001581Y192554D01*
X1000322Y189513D01*
X999892Y186250D01*
X1000322Y182987D01*
X1001581Y179946D01*
X1003585Y177335D01*
X1006196Y175331D01*
X1009237Y174072D01*
X1012500Y173642D01*
X1015763Y174072D01*
X1018804Y175331D01*
X1021415Y177335D01*
X1023419Y179946D01*
X1024678Y182987D01*
X1025108Y186250D01*
X1024678Y189513D01*
X1023419Y192554D01*
X1021415Y195165D01*
X1018804Y197169D01*
X1015763Y198428D01*
X1012500Y198858D01*
D02*
G37*
G36*
X960000Y197608D02*
X956737Y197178D01*
X953696Y195919D01*
X951085Y193915D01*
X949081Y191304D01*
X947822Y188263D01*
X947392Y185000D01*
X947822Y181737D01*
X949081Y178696D01*
X951085Y176085D01*
X953696Y174081D01*
X956737Y172822D01*
X959181Y172500D01*
X956737Y172178D01*
X953696Y170919D01*
X951085Y168915D01*
X949081Y166304D01*
X947822Y163263D01*
X947392Y160000D01*
X947822Y156737D01*
X949081Y153696D01*
X951085Y151085D01*
X953696Y149081D01*
X956737Y147822D01*
X960000Y147392D01*
X963263Y147822D01*
X966304Y149081D01*
X968915Y151085D01*
X970919Y153696D01*
X972178Y156737D01*
X972500Y159181D01*
X972822Y156737D01*
X974081Y153696D01*
X976085Y151085D01*
X978696Y149081D01*
X981737Y147822D01*
X985000Y147392D01*
X988263Y147822D01*
X991304Y149081D01*
X993915Y151085D01*
X995919Y153696D01*
X997178Y156737D01*
X997608Y160000D01*
X997178Y163263D01*
X995919Y166304D01*
X993915Y168915D01*
X991304Y170919D01*
X988263Y172178D01*
X985000Y172608D01*
X981737Y172178D01*
X978696Y170919D01*
X976085Y168915D01*
X974081Y166304D01*
X972822Y163263D01*
X972500Y160819D01*
X972178Y163263D01*
X970919Y166304D01*
X968915Y168915D01*
X966304Y170919D01*
X963263Y172178D01*
X960819Y172500D01*
X963263Y172822D01*
X966304Y174081D01*
X968915Y176085D01*
X970919Y178696D01*
X972178Y181737D01*
X972608Y185000D01*
X972178Y188263D01*
X970919Y191304D01*
X968915Y193915D01*
X966304Y195919D01*
X963263Y197178D01*
X960000Y197608D01*
D02*
G37*
G36*
X1010000Y142608D02*
X1006737Y142178D01*
X1003696Y140919D01*
X1001085Y138915D01*
X999081Y136304D01*
X997822Y133263D01*
X997392Y130000D01*
X997822Y126737D01*
X999081Y123696D01*
X1001085Y121085D01*
X1003696Y119081D01*
X1006737Y117822D01*
X1010000Y117392D01*
X1013263Y117822D01*
X1016304Y119081D01*
X1018915Y121085D01*
X1020919Y123696D01*
X1022178Y126737D01*
X1022608Y130000D01*
X1022178Y133263D01*
X1020919Y136304D01*
X1018915Y138915D01*
X1016304Y140919D01*
X1013263Y142178D01*
X1010000Y142608D01*
D02*
G37*
G36*
X980000D02*
X976737Y142178D01*
X973696Y140919D01*
X971085Y138915D01*
X969081Y136304D01*
X967822Y133263D01*
X967392Y130000D01*
X967822Y126737D01*
X969081Y123696D01*
X971085Y121085D01*
X973696Y119081D01*
X976737Y117822D01*
X980000Y117392D01*
X983263Y117822D01*
X986304Y119081D01*
X988915Y121085D01*
X990919Y123696D01*
X992178Y126737D01*
X992608Y130000D01*
X992178Y133263D01*
X990919Y136304D01*
X988915Y138915D01*
X986304Y140919D01*
X983263Y142178D01*
X980000Y142608D01*
D02*
G37*
G36*
X930000D02*
X926737Y142178D01*
X923696Y140919D01*
X921085Y138915D01*
X919081Y136304D01*
X917822Y133263D01*
X917392Y130000D01*
X917822Y126737D01*
X919081Y123696D01*
X921085Y121085D01*
X923696Y119081D01*
X926737Y117822D01*
X930000Y117392D01*
X933263Y117822D01*
X936304Y119081D01*
X938915Y121085D01*
X940919Y123696D01*
X942178Y126737D01*
X942608Y130000D01*
X942178Y133263D01*
X940919Y136304D01*
X938915Y138915D01*
X936304Y140919D01*
X933263Y142178D01*
X930000Y142608D01*
D02*
G37*
G36*
X1148148Y452608D02*
X1144884Y452178D01*
X1141844Y450919D01*
X1139232Y448915D01*
X1137229Y446304D01*
X1136832Y445346D01*
X1135196Y444669D01*
X1132585Y442665D01*
X1130581Y440054D01*
X1129322Y437013D01*
X1128892Y433750D01*
X1129322Y430487D01*
X1130581Y427446D01*
X1132585Y424835D01*
X1135196Y422831D01*
X1138237Y421572D01*
X1141500Y421142D01*
X1144763Y421572D01*
X1147804Y422831D01*
X1150415Y424835D01*
X1152419Y427446D01*
X1152815Y428404D01*
X1154452Y429081D01*
X1157063Y431085D01*
X1159066Y433696D01*
X1160326Y436737D01*
X1160755Y440000D01*
X1160326Y443263D01*
X1159066Y446304D01*
X1157063Y448915D01*
X1154452Y450919D01*
X1151411Y452178D01*
X1148148Y452608D01*
D02*
G37*
%LPD*%
D11*
X892500Y345750D02*
D03*
X904000Y345750D02*
D03*
X892500Y336750D02*
D03*
X904000Y336750D02*
D03*
X989250Y552392D02*
D03*
Y543392D02*
D03*
X999250Y552392D02*
D03*
Y543392D02*
D03*
X1312418Y564498D02*
D03*
Y555498D02*
D03*
X1311910Y539750D02*
D03*
Y530750D02*
D03*
X1312164Y473782D02*
D03*
Y482782D02*
D03*
X1013714Y509342D02*
D03*
Y518342D02*
D03*
X882000Y398500D02*
D03*
Y389500D02*
D03*
X1289844Y134978D02*
D03*
Y125978D02*
D03*
X1309910Y156750D02*
D03*
Y147750D02*
D03*
X1310164Y134978D02*
D03*
Y125978D02*
D03*
X1299750Y156750D02*
D03*
Y147750D02*
D03*
X1289590Y156750D02*
D03*
Y147750D02*
D03*
X933750Y321250D02*
D03*
Y312250D02*
D03*
X893250Y398500D02*
D03*
Y389500D02*
D03*
D12*
X1297500Y335000D02*
D03*
Y365000D02*
D03*
X888923Y144185D02*
D03*
Y174185D02*
D03*
X1085500Y152522D02*
D03*
Y182523D02*
D03*
X1297500Y442500D02*
D03*
Y472500D02*
D03*
X889360Y517500D02*
D03*
Y547500D02*
D03*
X1085414Y300000D02*
D03*
Y330000D02*
D03*
D13*
X1075000Y50000D02*
D03*
X1105000D02*
D03*
X850000Y49750D02*
D03*
X820000D02*
D03*
X627500Y547157D02*
D03*
X597500D02*
D03*
X612500Y97500D02*
D03*
X582500D02*
D03*
X1025000Y50000D02*
D03*
X995000D02*
D03*
X836750Y485850D02*
D03*
Y155850D02*
D03*
D14*
X892200Y264750D02*
D03*
X882800D02*
D03*
X1000950Y400250D02*
D03*
X991550D02*
D03*
X998050Y580750D02*
D03*
X1007450D02*
D03*
X977646Y477774D02*
D03*
X968246D02*
D03*
X934848Y477520D02*
D03*
X925448D02*
D03*
X1029082Y481076D02*
D03*
X1019682D02*
D03*
X726850Y579750D02*
D03*
X736250D02*
D03*
X971600Y408000D02*
D03*
X981000D02*
D03*
D15*
X1002028Y278000D02*
D03*
X1010028Y286000D02*
D03*
X970028Y318000D02*
D03*
X1034028Y366000D02*
D03*
Y358000D02*
D03*
Y350000D02*
D03*
Y342000D02*
D03*
Y334000D02*
D03*
Y326000D02*
D03*
Y318000D02*
D03*
Y310000D02*
D03*
Y302000D02*
D03*
Y294000D02*
D03*
Y286000D02*
D03*
Y278000D02*
D03*
X1026028Y366000D02*
D03*
Y358000D02*
D03*
Y350000D02*
D03*
Y342000D02*
D03*
Y334000D02*
D03*
Y326000D02*
D03*
Y318000D02*
D03*
Y310000D02*
D03*
Y302000D02*
D03*
Y294000D02*
D03*
Y286000D02*
D03*
Y278000D02*
D03*
X1018028Y366000D02*
D03*
Y358000D02*
D03*
Y350000D02*
D03*
Y342000D02*
D03*
Y334000D02*
D03*
Y326000D02*
D03*
Y318000D02*
D03*
Y310000D02*
D03*
Y302000D02*
D03*
Y294000D02*
D03*
Y286000D02*
D03*
Y278000D02*
D03*
X1010028Y366000D02*
D03*
Y358000D02*
D03*
Y350000D02*
D03*
Y342000D02*
D03*
Y334000D02*
D03*
Y326000D02*
D03*
Y318000D02*
D03*
Y310000D02*
D03*
Y302000D02*
D03*
Y294000D02*
D03*
Y278000D02*
D03*
X1002028Y366000D02*
D03*
Y358000D02*
D03*
Y350000D02*
D03*
Y342000D02*
D03*
Y334000D02*
D03*
Y326000D02*
D03*
Y318000D02*
D03*
Y310000D02*
D03*
Y302000D02*
D03*
Y294000D02*
D03*
Y286000D02*
D03*
X994028Y366000D02*
D03*
Y358000D02*
D03*
Y350000D02*
D03*
Y342000D02*
D03*
Y334000D02*
D03*
Y326000D02*
D03*
Y318000D02*
D03*
Y310000D02*
D03*
Y302000D02*
D03*
Y294000D02*
D03*
Y286000D02*
D03*
Y278000D02*
D03*
X986028Y366000D02*
D03*
Y358000D02*
D03*
Y350000D02*
D03*
Y342000D02*
D03*
Y334000D02*
D03*
Y326000D02*
D03*
Y318000D02*
D03*
Y310000D02*
D03*
Y302000D02*
D03*
Y294000D02*
D03*
Y286000D02*
D03*
Y278000D02*
D03*
X978028Y366000D02*
D03*
Y358000D02*
D03*
Y350000D02*
D03*
Y342000D02*
D03*
Y334000D02*
D03*
Y326000D02*
D03*
Y318000D02*
D03*
Y310000D02*
D03*
Y302000D02*
D03*
Y294000D02*
D03*
Y286000D02*
D03*
Y278000D02*
D03*
X970028Y366000D02*
D03*
Y358000D02*
D03*
Y350000D02*
D03*
Y342000D02*
D03*
Y334000D02*
D03*
Y326000D02*
D03*
Y310000D02*
D03*
Y302000D02*
D03*
Y294000D02*
D03*
Y286000D02*
D03*
Y278000D02*
D03*
X962028Y366000D02*
D03*
Y358000D02*
D03*
Y350000D02*
D03*
Y342000D02*
D03*
Y334000D02*
D03*
Y326000D02*
D03*
Y318000D02*
D03*
Y310000D02*
D03*
Y302000D02*
D03*
Y294000D02*
D03*
Y286000D02*
D03*
Y278000D02*
D03*
X954028Y366000D02*
D03*
Y358000D02*
D03*
Y350000D02*
D03*
Y342000D02*
D03*
Y334000D02*
D03*
Y326000D02*
D03*
Y318000D02*
D03*
Y310000D02*
D03*
Y302000D02*
D03*
Y294000D02*
D03*
Y286000D02*
D03*
Y278000D02*
D03*
X946028Y366000D02*
D03*
Y358000D02*
D03*
Y350000D02*
D03*
Y342000D02*
D03*
Y334000D02*
D03*
Y326000D02*
D03*
Y318000D02*
D03*
Y310000D02*
D03*
Y302000D02*
D03*
Y294000D02*
D03*
Y286000D02*
D03*
Y278000D02*
D03*
D16*
X933750Y293025D02*
D03*
Y302425D02*
D03*
Y274000D02*
D03*
Y283400D02*
D03*
X1023250Y254750D02*
D03*
Y245350D02*
D03*
X1072896Y499744D02*
D03*
Y509144D02*
D03*
Y490094D02*
D03*
Y480694D02*
D03*
X1293908Y167688D02*
D03*
Y177088D02*
D03*
X1306608Y167688D02*
D03*
Y177088D02*
D03*
X1293908Y276068D02*
D03*
Y285468D02*
D03*
Y220440D02*
D03*
Y211040D02*
D03*
X1306608D02*
D03*
Y220440D02*
D03*
X1293908Y254392D02*
D03*
Y263792D02*
D03*
Y242116D02*
D03*
Y232716D02*
D03*
X1306608Y242116D02*
D03*
Y232716D02*
D03*
X980186Y495934D02*
D03*
Y505334D02*
D03*
X1293908Y189364D02*
D03*
Y198764D02*
D03*
X1306608Y189364D02*
D03*
Y198764D02*
D03*
D17*
X620750Y527750D02*
D03*
X680500D02*
D03*
X660500D02*
D03*
X700500D02*
D03*
X780500D02*
D03*
X600500Y527500D02*
D03*
X740500Y527750D02*
D03*
X720500D02*
D03*
X760500D02*
D03*
X640500D02*
D03*
D18*
X832250Y200350D02*
D03*
Y180350D02*
D03*
Y263350D02*
D03*
Y342750D02*
D03*
Y316283D02*
D03*
Y422100D02*
D03*
Y452350D02*
D03*
Y289803D02*
D03*
X929000Y391500D02*
D03*
X914000D02*
D03*
D19*
X910950Y289350D02*
D03*
X898250D02*
D03*
X885550D02*
D03*
Y321150D02*
D03*
X898250D02*
D03*
X910950D02*
D03*
D20*
X889360Y424050D02*
D03*
Y436750D02*
D03*
Y449450D02*
D03*
X921160D02*
D03*
Y436750D02*
D03*
Y424050D02*
D03*
D21*
X754082Y591468D02*
D03*
Y597968D02*
D03*
Y604468D02*
D03*
Y610968D02*
D03*
X812082D02*
D03*
Y604468D02*
D03*
Y597968D02*
D03*
Y591468D02*
D03*
X687168D02*
D03*
Y597968D02*
D03*
Y604468D02*
D03*
Y610968D02*
D03*
X731168D02*
D03*
Y604468D02*
D03*
Y597968D02*
D03*
Y591468D02*
D03*
D22*
X897750Y254000D02*
D03*
X882750D02*
D03*
D23*
X1146000Y613000D02*
D03*
X1137000D02*
D03*
X1078666Y578358D02*
D03*
X1069666D02*
D03*
X1094812Y579120D02*
D03*
X1103812D02*
D03*
X911606Y515874D02*
D03*
X920606D02*
D03*
X999494Y478113D02*
D03*
X990494D02*
D03*
X999494Y456946D02*
D03*
X990494D02*
D03*
X999494Y467529D02*
D03*
X990494D02*
D03*
X999494Y488696D02*
D03*
X990494D02*
D03*
X946404Y477774D02*
D03*
X955404D02*
D03*
X1094414Y479044D02*
D03*
X1085414D02*
D03*
X1094414Y489458D02*
D03*
X1085414D02*
D03*
X1094414Y456946D02*
D03*
X1085414D02*
D03*
X1094414Y468122D02*
D03*
X1085414D02*
D03*
X1039500Y480750D02*
D03*
X1048500D02*
D03*
X749750Y579750D02*
D03*
X758750D02*
D03*
X691750Y580000D02*
D03*
X682750D02*
D03*
X937500Y430500D02*
D03*
X946500D02*
D03*
X937500Y443617D02*
D03*
X946500D02*
D03*
D24*
X1122250Y611000D02*
D03*
Y595000D02*
D03*
X1055624Y611758D02*
D03*
Y595758D02*
D03*
X1106678Y610742D02*
D03*
Y594742D02*
D03*
X993394Y517778D02*
D03*
Y501778D02*
D03*
X1088314Y520572D02*
D03*
Y504572D02*
D03*
X1304250Y40250D02*
D03*
Y56250D02*
D03*
X1290750Y40250D02*
D03*
Y56250D02*
D03*
D25*
X1071020Y599694D02*
D03*
X1090520D02*
D03*
D26*
X1038606Y608122D02*
D03*
Y582122D02*
D03*
X1298448Y608122D02*
D03*
Y582122D02*
D03*
D27*
X857000Y595500D02*
D03*
X841000D02*
D03*
X857000Y581815D02*
D03*
X841000D02*
D03*
X976750Y443500D02*
D03*
X992750D02*
D03*
X1070500Y449000D02*
D03*
X1054500D02*
D03*
D28*
X999250Y595250D02*
D03*
Y611250D02*
D03*
D29*
X933640Y596250D02*
D03*
X957340D02*
D03*
D30*
X945956Y545492D02*
D03*
X975956D02*
D03*
X1042500Y545500D02*
D03*
X1012500D02*
D03*
D31*
X979500Y581250D02*
D03*
Y611250D02*
D03*
X1294638Y562130D02*
D03*
Y532130D02*
D03*
X1297500Y387500D02*
D03*
Y417500D02*
D03*
D32*
X950684Y507544D02*
D03*
X1043432Y510032D02*
D03*
D33*
X940934Y525794D02*
D03*
X947434D02*
D03*
X953934D02*
D03*
X960434D02*
D03*
Y489294D02*
D03*
X953934D02*
D03*
X947434D02*
D03*
X940934D02*
D03*
X1033682Y528282D02*
D03*
X1040182D02*
D03*
X1046682D02*
D03*
X1053182D02*
D03*
Y491782D02*
D03*
X1046682D02*
D03*
X1040182D02*
D03*
X1033682D02*
D03*
D34*
X968934Y517294D02*
D03*
Y510794D02*
D03*
Y504294D02*
D03*
Y497794D02*
D03*
X932434D02*
D03*
Y504294D02*
D03*
Y510794D02*
D03*
Y517294D02*
D03*
X1061682Y519782D02*
D03*
Y513282D02*
D03*
Y506782D02*
D03*
Y500282D02*
D03*
X1025182D02*
D03*
Y506782D02*
D03*
Y513282D02*
D03*
Y519782D02*
D03*
D35*
X1298702Y516226D02*
D03*
Y496726D02*
D03*
D36*
X960884Y459446D02*
D03*
X976884D02*
D03*
X1054396Y464566D02*
D03*
X1070396D02*
D03*
D37*
X903500Y388750D02*
D03*
Y395750D02*
D03*
D38*
X914250Y253500D02*
D03*
Y231500D02*
D03*
X930250D02*
D03*
Y253500D02*
D03*
D39*
X887500Y360100D02*
D03*
Y377900D02*
D03*
X910000Y360100D02*
D03*
Y377900D02*
D03*
D40*
X951500Y408321D02*
D03*
Y392321D02*
D03*
D41*
X1174250Y572557D02*
D03*
Y559857D02*
D03*
Y547157D02*
D03*
Y534457D02*
D03*
Y521757D02*
D03*
Y509057D02*
D03*
Y496357D02*
D03*
Y483657D02*
D03*
Y470957D02*
D03*
Y458257D02*
D03*
Y445557D02*
D03*
Y432857D02*
D03*
Y420157D02*
D03*
Y407457D02*
D03*
Y394757D02*
D03*
Y382057D02*
D03*
Y369357D02*
D03*
Y356657D02*
D03*
Y343957D02*
D03*
Y331257D02*
D03*
Y318557D02*
D03*
Y305857D02*
D03*
Y293157D02*
D03*
Y280457D02*
D03*
Y267757D02*
D03*
Y255057D02*
D03*
Y242357D02*
D03*
Y229657D02*
D03*
Y216957D02*
D03*
Y204257D02*
D03*
Y191557D02*
D03*
Y178857D02*
D03*
Y166157D02*
D03*
Y153457D02*
D03*
Y140757D02*
D03*
Y128057D02*
D03*
Y115357D02*
D03*
Y102657D02*
D03*
Y89957D02*
D03*
Y77257D02*
D03*
X1186950Y572557D02*
D03*
Y559857D02*
D03*
Y547157D02*
D03*
Y534457D02*
D03*
Y521757D02*
D03*
Y509057D02*
D03*
Y496357D02*
D03*
Y483657D02*
D03*
Y470957D02*
D03*
Y458257D02*
D03*
Y445557D02*
D03*
Y432857D02*
D03*
Y420157D02*
D03*
Y407457D02*
D03*
Y394757D02*
D03*
Y382057D02*
D03*
Y369357D02*
D03*
Y356657D02*
D03*
Y343957D02*
D03*
Y331257D02*
D03*
Y318557D02*
D03*
Y305857D02*
D03*
Y293157D02*
D03*
Y280457D02*
D03*
Y267757D02*
D03*
Y255057D02*
D03*
Y242357D02*
D03*
Y229657D02*
D03*
Y216957D02*
D03*
Y204257D02*
D03*
Y191557D02*
D03*
Y178857D02*
D03*
Y166157D02*
D03*
Y153457D02*
D03*
Y140757D02*
D03*
Y128057D02*
D03*
Y115357D02*
D03*
Y102657D02*
D03*
Y89957D02*
D03*
Y77257D02*
D03*
X1225050Y572557D02*
D03*
Y559857D02*
D03*
Y547157D02*
D03*
Y534457D02*
D03*
Y521757D02*
D03*
Y509057D02*
D03*
Y496357D02*
D03*
Y483657D02*
D03*
Y470957D02*
D03*
Y458257D02*
D03*
Y445557D02*
D03*
Y432857D02*
D03*
Y420157D02*
D03*
Y407457D02*
D03*
Y394757D02*
D03*
Y382057D02*
D03*
Y369357D02*
D03*
Y356657D02*
D03*
Y343957D02*
D03*
Y331257D02*
D03*
Y318557D02*
D03*
Y305857D02*
D03*
Y293157D02*
D03*
Y280457D02*
D03*
Y267757D02*
D03*
Y255057D02*
D03*
Y242357D02*
D03*
Y229657D02*
D03*
Y216957D02*
D03*
Y204257D02*
D03*
Y191557D02*
D03*
Y178857D02*
D03*
Y166157D02*
D03*
Y153457D02*
D03*
Y140757D02*
D03*
Y128057D02*
D03*
Y115357D02*
D03*
Y102657D02*
D03*
Y89957D02*
D03*
Y77257D02*
D03*
X1237750Y572557D02*
D03*
Y559857D02*
D03*
Y547157D02*
D03*
Y534457D02*
D03*
Y521757D02*
D03*
Y509057D02*
D03*
Y496357D02*
D03*
Y483657D02*
D03*
Y470957D02*
D03*
Y458257D02*
D03*
Y445557D02*
D03*
Y432857D02*
D03*
Y420157D02*
D03*
Y407457D02*
D03*
Y394757D02*
D03*
Y382057D02*
D03*
Y369357D02*
D03*
Y356657D02*
D03*
Y343957D02*
D03*
Y331257D02*
D03*
Y318557D02*
D03*
Y305857D02*
D03*
Y293157D02*
D03*
Y280457D02*
D03*
Y267757D02*
D03*
Y255057D02*
D03*
Y242357D02*
D03*
Y229657D02*
D03*
Y216957D02*
D03*
Y204257D02*
D03*
Y191557D02*
D03*
Y178857D02*
D03*
Y166157D02*
D03*
Y153457D02*
D03*
Y140757D02*
D03*
Y128057D02*
D03*
Y115357D02*
D03*
Y102657D02*
D03*
Y89957D02*
D03*
Y77257D02*
D03*
D82*
X882250Y390000D02*
G03*
X883457Y389500I1207J1207D01*
G01*
X894069Y377900D02*
G03*
X892500Y377250I0J-2219D01*
G01*
X881250Y377500D02*
G03*
X882000Y379311I-1811J1811D01*
G01*
X1010028Y366000D02*
X1018028D01*
X1026028D01*
X962028Y350000D02*
X970028D01*
D83*
X908197Y323903D02*
X910950Y321150D01*
X904000Y336750D02*
X908197Y332553D01*
Y323903D02*
Y332553D01*
X885550Y321150D02*
X888303Y323903D01*
Y332553D01*
X892500Y336750D01*
X932060Y430500D02*
X937500D01*
X925610Y424050D02*
X932060Y430500D01*
X921160Y424050D02*
X925610D01*
X931443Y443617D02*
X937500D01*
X925610Y449450D02*
X931443Y443617D01*
X921160Y449450D02*
X925610D01*
D84*
X894069Y377900D02*
X910000D01*
X883457Y389500D02*
X893250D01*
X941294Y550154D02*
X945956Y545492D01*
X941206Y540154D02*
X945956Y544904D01*
X882000Y379311D02*
Y389500D01*
X933750Y302425D02*
Y312250D01*
X945956Y544904D02*
Y545492D01*
X933750Y321250D02*
X946028Y333528D01*
Y334000D01*
D85*
X900650Y348773D02*
X901473Y347950D01*
X895296Y347950D02*
X896850Y349504D01*
X892500Y345750D02*
X894700Y347950D01*
X895296D01*
X896850Y349504D02*
Y354846D01*
X895796Y355900D02*
X896850Y354846D01*
X891700Y355900D02*
X895796D01*
X887500Y360100D02*
X891700Y355900D01*
X901800Y347950D02*
X904000Y345750D01*
X901473Y347950D02*
X901800D01*
X900650Y348773D02*
Y354846D01*
X901704Y355900D01*
X905800D01*
X910000Y360100D01*
D86*
X1085414Y330000D02*
X1106678D01*
D87*
X933750Y283400D02*
Y293025D01*
D88*
X689413Y45361D02*
X692078D01*
X690745D01*
Y53359D01*
X689413Y52026D01*
D89*
X1092500Y550000D02*
D03*
Y90000D02*
D03*
X1345000Y625000D02*
D03*
X986000Y645000D02*
D03*
X826000Y5000D02*
D03*
X986000D02*
D03*
X1345000Y25000D02*
D03*
Y325000D02*
D03*
Y175000D02*
D03*
Y475000D02*
D03*
X806000Y645000D02*
D03*
X607000Y43000D02*
D03*
Y593000D02*
D03*
X850000Y375000D02*
D03*
Y550000D02*
D03*
Y225000D02*
D03*
Y90000D02*
D03*
X695000D02*
D03*
X560000Y550000D02*
D03*
D90*
X640000Y35000D02*
D03*
Y600500D02*
D03*
X1186000Y640000D02*
D03*
Y10000D02*
D03*
D91*
X1175520Y596814D02*
D03*
X1206000Y53000D02*
D03*
D92*
X1017000Y383750D02*
D03*
Y374250D02*
D03*
X1107750Y131500D02*
D03*
X933750Y274000D02*
D03*
X885550Y305250D02*
D03*
X1012500Y186250D02*
D03*
X929500Y207250D02*
D03*
X884500Y341500D02*
D03*
X912000D02*
D03*
X946250Y451000D02*
D03*
X946500Y423000D02*
D03*
X920000Y265750D02*
D03*
X923000Y295500D02*
D03*
X991250Y401500D02*
D03*
X906285Y208500D02*
D03*
X1107750Y189000D02*
D03*
X1151250Y214000D02*
D03*
X1157750Y230250D02*
D03*
X904000Y345750D02*
D03*
X892500Y345750D02*
D03*
X962028Y286000D02*
D03*
X1201750Y241750D02*
D03*
Y225250D02*
D03*
X1210750Y256000D02*
D03*
X1205621Y233000D02*
D03*
X1212021D02*
D03*
X996250Y253250D02*
D03*
X1135250Y230500D02*
D03*
X1150000Y230250D02*
D03*
X1159100Y214000D02*
D03*
X1165500D02*
D03*
X1186950Y267757D02*
D03*
X1142974Y230474D02*
D03*
X1107750Y357250D02*
D03*
X1122172Y595250D02*
D03*
Y611250D02*
D03*
X1174250Y204257D02*
D03*
X1225050Y178857D02*
D03*
Y394757D02*
D03*
X1085439Y150772D02*
D03*
X1075000Y50000D02*
D03*
X1105000D02*
D03*
X875000Y120000D02*
D03*
X1297500Y335000D02*
D03*
Y365000D02*
D03*
X820000Y49750D02*
D03*
X1090000Y50000D02*
D03*
X1130000Y51085D02*
D03*
X1085414Y300000D02*
D03*
X1085500Y182523D02*
D03*
X1025000Y50000D02*
D03*
X995000D02*
D03*
X1297500Y442500D02*
D03*
Y472500D02*
D03*
X889360Y517500D02*
D03*
Y547500D02*
D03*
X627500Y547157D02*
D03*
X597500D02*
D03*
X888923Y144185D02*
D03*
Y174185D02*
D03*
X612500Y97500D02*
D03*
X582500D02*
D03*
X655000Y555000D02*
D03*
X807500Y75000D02*
D03*
X782500D02*
D03*
X757500D02*
D03*
X732500D02*
D03*
X662500D02*
D03*
X637500D02*
D03*
X612500D02*
D03*
X587500D02*
D03*
X565000D02*
D03*
X807500Y85000D02*
D03*
X782500D02*
D03*
X757500D02*
D03*
X732500D02*
D03*
X662500D02*
D03*
X637500D02*
D03*
X612500D02*
D03*
X565000D02*
D03*
X825000Y565000D02*
D03*
X802500D02*
D03*
Y555000D02*
D03*
X777500D02*
D03*
Y565000D02*
D03*
X752500Y555000D02*
D03*
X730000Y565000D02*
D03*
Y555000D02*
D03*
X705000D02*
D03*
Y565000D02*
D03*
X680000Y555000D02*
D03*
Y565000D02*
D03*
X655000D02*
D03*
X630000D02*
D03*
X540000Y-7500D02*
D03*
Y17500D02*
D03*
Y37500D02*
D03*
Y60000D02*
D03*
Y85000D02*
D03*
X552500Y107500D02*
D03*
X575000Y112500D02*
D03*
X600000D02*
D03*
X622500D02*
D03*
X647500D02*
D03*
X670000D02*
D03*
X717500D02*
D03*
X730000D02*
D03*
X755000D02*
D03*
X780000D02*
D03*
X810000Y117500D02*
D03*
X830000Y140000D02*
D03*
Y170000D02*
D03*
Y190000D02*
D03*
Y250000D02*
D03*
Y277500D02*
D03*
Y302500D02*
D03*
Y330000D02*
D03*
Y355000D02*
D03*
Y392500D02*
D03*
Y402500D02*
D03*
Y412500D02*
D03*
Y432500D02*
D03*
Y442500D02*
D03*
Y462500D02*
D03*
Y472500D02*
D03*
Y500250D02*
D03*
X801072Y528000D02*
D03*
X770500Y527750D02*
D03*
X750500Y527500D02*
D03*
X730500D02*
D03*
X710500D02*
D03*
X690500D02*
D03*
X670750D02*
D03*
X650500D02*
D03*
X630500D02*
D03*
X610750D02*
D03*
X590500D02*
D03*
X540000Y580000D02*
D03*
Y600000D02*
D03*
Y620000D02*
D03*
Y640000D02*
D03*
Y660000D02*
D03*
X1095000Y415000D02*
D03*
Y440000D02*
D03*
X1025000Y550000D02*
D03*
X875000Y545000D02*
D03*
Y520000D02*
D03*
Y500000D02*
D03*
Y435000D02*
D03*
X970000Y85000D02*
D03*
X940000D02*
D03*
X915000D02*
D03*
X890000D02*
D03*
X875000Y105000D02*
D03*
Y135000D02*
D03*
Y150000D02*
D03*
Y165000D02*
D03*
Y175000D02*
D03*
Y195000D02*
D03*
Y210000D02*
D03*
X881500Y410550D02*
D03*
X881250Y477774D02*
D03*
X832500Y180250D02*
D03*
Y200250D02*
D03*
X832250Y263250D02*
D03*
Y289750D02*
D03*
X832500Y316250D02*
D03*
X832250Y342750D02*
D03*
Y422000D02*
D03*
Y452250D02*
D03*
X841000Y581815D02*
D03*
X1260750Y44750D02*
D03*
Y60750D02*
D03*
X882750Y264750D02*
D03*
X892250D02*
D03*
X840133Y351235D02*
D03*
X852500Y334250D02*
D03*
X885000Y160000D02*
D03*
X930000D02*
D03*
X960000D02*
D03*
X985000D02*
D03*
X960000Y185000D02*
D03*
X930000D02*
D03*
X885000D02*
D03*
X850000D02*
D03*
Y430000D02*
D03*
Y325000D02*
D03*
X840000Y275000D02*
D03*
Y330000D02*
D03*
Y400000D02*
D03*
Y440000D02*
D03*
Y470000D02*
D03*
X710000Y580000D02*
D03*
X1020000Y600000D02*
D03*
Y610000D02*
D03*
X1200000Y470000D02*
D03*
Y500000D02*
D03*
X1130000Y570000D02*
D03*
X1140000Y590000D02*
D03*
X1270000Y580000D02*
D03*
Y510000D02*
D03*
Y540000D02*
D03*
X1280000Y600000D02*
D03*
X1250000D02*
D03*
X1210000Y580000D02*
D03*
Y600000D02*
D03*
X1305236Y400000D02*
D03*
X1310000Y350000D02*
D03*
X1300000Y300000D02*
D03*
X1210000Y100000D02*
D03*
X1130000D02*
D03*
X1150000Y70000D02*
D03*
X1250000Y50000D02*
D03*
X1170000D02*
D03*
X1050000D02*
D03*
X1010000D02*
D03*
X970000D02*
D03*
X850000D02*
D03*
X890000D02*
D03*
X930000D02*
D03*
X970000Y100000D02*
D03*
X930000D02*
D03*
X890000D02*
D03*
X1050000D02*
D03*
Y120000D02*
D03*
X1010000Y130000D02*
D03*
X980000D02*
D03*
X930000D02*
D03*
X890000D02*
D03*
X840000D02*
D03*
X810000Y100000D02*
D03*
X770000D02*
D03*
X730000D02*
D03*
X640000D02*
D03*
X600000D02*
D03*
X560000D02*
D03*
X1054500Y444250D02*
D03*
X1070500D02*
D03*
Y453750D02*
D03*
X1054500D02*
D03*
X992750Y438750D02*
D03*
X976750D02*
D03*
X992750Y448250D02*
D03*
X976750D02*
D03*
X1055876Y194750D02*
D03*
X1028250Y235750D02*
D03*
X836250Y161000D02*
D03*
Y150750D02*
D03*
X836750Y491000D02*
D03*
Y480750D02*
D03*
X860750Y615000D02*
D03*
X870250Y614750D02*
D03*
X884000Y599750D02*
D03*
Y612750D02*
D03*
X923000D02*
D03*
X919750Y606250D02*
D03*
X905250Y585000D02*
D03*
X892250D02*
D03*
X892750Y593500D02*
D03*
Y612250D02*
D03*
X901954Y602996D02*
D03*
X881000Y593250D02*
D03*
Y606250D02*
D03*
X923000Y599750D02*
D03*
X919750Y593250D02*
D03*
X911750Y582000D02*
D03*
X898750D02*
D03*
X911250Y593750D02*
D03*
Y612250D02*
D03*
X851500Y606500D02*
D03*
X861000Y606311D02*
D03*
X857000Y595500D02*
D03*
X870250Y597250D02*
D03*
X915792Y217993D02*
D03*
X1001500Y609250D02*
D03*
X946500Y577500D02*
D03*
X946490Y586500D02*
D03*
X1042500Y342250D02*
D03*
X922900Y348400D02*
D03*
X928000Y342250D02*
D03*
X921545Y399770D02*
D03*
X916000Y405000D02*
D03*
X1060558Y400250D02*
D03*
X865500Y175500D02*
D03*
Y311500D02*
D03*
Y136750D02*
D03*
Y521907D02*
D03*
Y497725D02*
D03*
Y473544D02*
D03*
Y425181D02*
D03*
Y328455D02*
D03*
Y280092D02*
D03*
Y159185D02*
D03*
Y110822D02*
D03*
Y449362D02*
D03*
Y352637D02*
D03*
X1107750Y150250D02*
D03*
X1108750Y456750D02*
D03*
X1108250Y416500D02*
D03*
X1107750Y505250D02*
D03*
Y521250D02*
D03*
X903230Y75000D02*
D03*
X999955D02*
D03*
X1118000Y495250D02*
D03*
X1120500Y257000D02*
D03*
X583440Y565250D02*
D03*
X1067068D02*
D03*
X1042887D02*
D03*
X1018705D02*
D03*
X994524D02*
D03*
X970343D02*
D03*
X946161D02*
D03*
X873617D02*
D03*
X752710D02*
D03*
X607621D02*
D03*
X879048Y75000D02*
D03*
X927411D02*
D03*
X951593D02*
D03*
X975774D02*
D03*
X1048318D02*
D03*
X1072500D02*
D03*
X1141500Y433750D02*
D03*
X1148148Y440000D02*
D03*
X1042051Y377000D02*
D03*
X1002028Y334000D02*
D03*
X1023250Y245350D02*
D03*
Y254750D02*
D03*
X1186950Y229657D02*
D03*
X982000Y383750D02*
D03*
X946500Y443617D02*
D03*
X1076750Y137500D02*
D03*
X1208309Y454772D02*
D03*
X1237750Y432857D02*
D03*
Y445557D02*
D03*
Y458257D02*
D03*
X1225050Y445557D02*
D03*
Y458257D02*
D03*
X1253500Y390250D02*
D03*
X1042051Y398769D02*
D03*
X1000750Y400250D02*
D03*
X971600Y408000D02*
D03*
X981000D02*
D03*
X1119500Y224500D02*
D03*
X1156750Y262250D02*
D03*
X1078500Y259500D02*
D03*
X1071250Y266000D02*
D03*
X1311910Y530750D02*
D03*
X1272750Y59250D02*
D03*
X1202500Y287639D02*
D03*
X986028Y302000D02*
D03*
X994028Y294000D02*
D03*
X997000Y597250D02*
D03*
Y613250D02*
D03*
X1001500Y593250D02*
D03*
X1311910Y429914D02*
D03*
X691750Y580000D02*
D03*
X933750Y293025D02*
D03*
X894294Y481023D02*
D03*
X1087314Y449846D02*
D03*
X1060000Y350000D02*
D03*
X882750Y254000D02*
D03*
X1054396Y464566D02*
D03*
X1033750Y493250D02*
D03*
X1040250Y490250D02*
D03*
X1046750Y493250D02*
D03*
X1060250Y500250D02*
D03*
X1063000Y506750D02*
D03*
X1060250Y513250D02*
D03*
X1063250Y519750D02*
D03*
X1053250Y526750D02*
D03*
X1046750Y529750D02*
D03*
X1040250Y526750D02*
D03*
X1033750Y529750D02*
D03*
X1026750Y519750D02*
D03*
X1023750Y513250D02*
D03*
X1026750Y506750D02*
D03*
X1023750Y500250D02*
D03*
X1039500Y480750D02*
D03*
X1070396Y464566D02*
D03*
X1085414Y456946D02*
D03*
Y468122D02*
D03*
Y479044D02*
D03*
Y489458D02*
D03*
X1094414Y456946D02*
D03*
Y468122D02*
D03*
Y479044D02*
D03*
Y489458D02*
D03*
X1088314Y504572D02*
D03*
Y520572D02*
D03*
X1072896Y480694D02*
D03*
Y490094D02*
D03*
Y499744D02*
D03*
Y509144D02*
D03*
X1048500Y480750D02*
D03*
X1029082Y481076D02*
D03*
X999250Y543392D02*
D03*
X989250D02*
D03*
Y552392D02*
D03*
X999250D02*
D03*
X1042500Y540750D02*
D03*
Y550500D02*
D03*
X1012500Y540500D02*
D03*
Y550500D02*
D03*
X976000Y540500D02*
D03*
Y550500D02*
D03*
X946000Y540500D02*
D03*
Y550250D02*
D03*
X1019682Y481076D02*
D03*
X1013714Y509342D02*
D03*
Y518342D02*
D03*
X993394Y501778D02*
D03*
X990494Y467529D02*
D03*
Y478113D02*
D03*
Y488696D02*
D03*
X999494D02*
D03*
Y478113D02*
D03*
Y467529D02*
D03*
Y456946D02*
D03*
X990494D02*
D03*
X976884Y459446D02*
D03*
X960884D02*
D03*
X977646Y477774D02*
D03*
X968246D02*
D03*
X955404D02*
D03*
X946404D02*
D03*
X934848Y477520D02*
D03*
X925448D02*
D03*
X941000Y490750D02*
D03*
X947500Y487750D02*
D03*
X954000Y490750D02*
D03*
X967500Y497750D02*
D03*
X970500Y504250D02*
D03*
X967500Y510750D02*
D03*
X970500Y517250D02*
D03*
X960500Y524250D02*
D03*
X954000Y527250D02*
D03*
X947500Y524250D02*
D03*
X941000Y527250D02*
D03*
X931000Y497750D02*
D03*
X934000Y504250D02*
D03*
X931000Y510750D02*
D03*
X934000Y517250D02*
D03*
X980186Y495934D02*
D03*
Y505334D02*
D03*
X993394Y517778D02*
D03*
X920606Y515874D02*
D03*
X911606D02*
D03*
X1069666Y578358D02*
D03*
X998050Y580750D02*
D03*
X1055624Y611758D02*
D03*
X951500Y408321D02*
D03*
Y392321D02*
D03*
X946500Y430500D02*
D03*
X921160Y436750D02*
D03*
X889360Y424050D02*
D03*
Y436750D02*
D03*
Y449450D02*
D03*
X903500Y388500D02*
D03*
X882000Y398500D02*
D03*
X893250Y389500D02*
D03*
Y398500D02*
D03*
X929000Y391500D02*
D03*
X903500Y396000D02*
D03*
X914000Y391500D02*
D03*
X915250Y378000D02*
D03*
X904750D02*
D03*
X892500D02*
D03*
X898250Y321150D02*
D03*
Y289350D02*
D03*
X910950D02*
D03*
X914250Y231500D02*
D03*
X930250Y253500D02*
D03*
X857000Y581815D02*
D03*
X841000Y595500D02*
D03*
X727250Y591500D02*
D03*
X735000Y598000D02*
D03*
X727250Y604500D02*
D03*
X735000Y611000D02*
D03*
X1250250Y90000D02*
D03*
X1255250Y95000D02*
D03*
X1262750Y106500D02*
D03*
Y73750D02*
D03*
X1290750Y118500D02*
D03*
X1282750Y120750D02*
D03*
X1275250Y131500D02*
D03*
Y122500D02*
D03*
X1292500Y99750D02*
D03*
X1272750D02*
D03*
Y80250D02*
D03*
X1282750Y90000D02*
D03*
X1292500Y80250D02*
D03*
X1272750Y49750D02*
D03*
X1290750Y56250D02*
D03*
Y40250D02*
D03*
X1304250Y56250D02*
D03*
Y40250D02*
D03*
X1312250Y98500D02*
D03*
Y90000D02*
D03*
X1302750Y105750D02*
D03*
X1310164Y125978D02*
D03*
X1289844D02*
D03*
Y134978D02*
D03*
X1310164D02*
D03*
X1309910Y147750D02*
D03*
X1299750D02*
D03*
X1289590D02*
D03*
Y156750D02*
D03*
X1299750D02*
D03*
X1309910D02*
D03*
X1306608Y167688D02*
D03*
X1293908D02*
D03*
Y177088D02*
D03*
Y189364D02*
D03*
X1306608D02*
D03*
Y177088D02*
D03*
Y198764D02*
D03*
X1293908D02*
D03*
Y211040D02*
D03*
X1306608D02*
D03*
Y220440D02*
D03*
X1293908D02*
D03*
Y232716D02*
D03*
X1306608D02*
D03*
Y242116D02*
D03*
X1293908D02*
D03*
Y254392D02*
D03*
X1306608D02*
D03*
X1293908Y263792D02*
D03*
Y276068D02*
D03*
Y285468D02*
D03*
X1302588Y387434D02*
D03*
X1292338D02*
D03*
X1312164Y473782D02*
D03*
Y482782D02*
D03*
X1292338Y417434D02*
D03*
X1302588D02*
D03*
X1291000Y496750D02*
D03*
X1306500D02*
D03*
X1298702Y496726D02*
D03*
X1291000Y516250D02*
D03*
X1306250D02*
D03*
X1298702Y516226D02*
D03*
X1299750Y532250D02*
D03*
X1289500D02*
D03*
X1311910Y539750D02*
D03*
X1312418Y555498D02*
D03*
Y564498D02*
D03*
X1298448Y582122D02*
D03*
X1299750Y562250D02*
D03*
X1289500D02*
D03*
X1298448Y608122D02*
D03*
X1146000Y613000D02*
D03*
X1137000D02*
D03*
X1106678Y610742D02*
D03*
X1103812Y579120D02*
D03*
X1094812D02*
D03*
X1106678Y594742D02*
D03*
X1090500Y592250D02*
D03*
Y607250D02*
D03*
X1078666Y578358D02*
D03*
X1071000Y592000D02*
D03*
Y607250D02*
D03*
X1055624Y595758D02*
D03*
X1038606Y582122D02*
D03*
Y608122D02*
D03*
X1007450Y580750D02*
D03*
X974250Y611500D02*
D03*
X984750D02*
D03*
Y581250D02*
D03*
X974250D02*
D03*
X933750Y586500D02*
D03*
Y596250D02*
D03*
Y606750D02*
D03*
X955500Y596250D02*
D03*
Y606664D02*
D03*
X870250Y606250D02*
D03*
X946500Y606664D02*
D03*
Y596250D02*
D03*
X816000Y611000D02*
D03*
X808250Y604500D02*
D03*
X816000Y598000D02*
D03*
X808250Y591500D02*
D03*
X750500Y611000D02*
D03*
Y598000D02*
D03*
X758000Y591500D02*
D03*
Y604500D02*
D03*
X758750Y579750D02*
D03*
X749750D02*
D03*
X736250D02*
D03*
X726850D02*
D03*
X682750Y580000D02*
D03*
X683250Y591500D02*
D03*
X691000Y598000D02*
D03*
X683500Y604500D02*
D03*
X690750Y611000D02*
D03*
X897750Y254000D02*
D03*
X930250Y231500D02*
D03*
X914250Y253500D02*
D03*
X660500Y527750D02*
D03*
X680500D02*
D03*
X780500D02*
D03*
X760500D02*
D03*
X740500D02*
D03*
X720500D02*
D03*
X700500D02*
D03*
X640500D02*
D03*
X620750D02*
D03*
X600500Y527500D02*
D03*
X885550Y289350D02*
D03*
X948500Y250750D02*
D03*
X1131805Y392769D02*
D03*
X1127750Y375250D02*
D03*
X982000Y392750D02*
D03*
X1010028Y318000D02*
D03*
X1217250Y267750D02*
D03*
X1010028Y310000D02*
D03*
X1237750Y305857D02*
D03*
Y293157D02*
D03*
X1010028Y302000D02*
D03*
X986028Y294000D02*
D03*
X1002028Y318000D02*
D03*
Y310000D02*
D03*
Y286000D02*
D03*
X1010028Y294000D02*
D03*
X1002028Y278000D02*
D03*
X1010028Y286000D02*
D03*
X970028Y310000D02*
D03*
X1186950Y153457D02*
D03*
Y255057D02*
D03*
X1174250Y267757D02*
D03*
Y280457D02*
D03*
X1225050Y293157D02*
D03*
Y280457D02*
D03*
X1237750Y242357D02*
D03*
Y255057D02*
D03*
Y166157D02*
D03*
X1186950Y140757D02*
D03*
X1174250Y166157D02*
D03*
X1186950D02*
D03*
X1174250Y178857D02*
D03*
X1186950D02*
D03*
X1174250Y191557D02*
D03*
X1186950D02*
D03*
X970028Y286000D02*
D03*
X1041250Y301750D02*
D03*
X978028Y310000D02*
D03*
X970028Y318000D02*
D03*
X962028Y310000D02*
D03*
X970028Y294000D02*
D03*
X962028Y302000D02*
D03*
X978028Y286000D02*
D03*
X986028D02*
D03*
X970028Y278000D02*
D03*
X1041250Y294000D02*
D03*
Y318000D02*
D03*
X1003000Y268500D02*
D03*
X996250Y242250D02*
D03*
X994000Y268500D02*
D03*
X976750Y259500D02*
D03*
X985250D02*
D03*
Y268500D02*
D03*
X976750D02*
D03*
X968000Y259500D02*
D03*
X959750Y259500D02*
D03*
X968000Y268500D02*
D03*
X959750Y268500D02*
D03*
X948500Y266750D02*
D03*
X937250Y346028D02*
D03*
Y337028D02*
D03*
X946250Y374500D02*
D03*
X955250D02*
D03*
X990250Y383750D02*
D03*
X1008000Y374500D02*
D03*
Y383500D02*
D03*
X1061000Y284250D02*
D03*
X1052000D02*
D03*
X1043400Y286000D02*
D03*
X1052000Y292750D02*
D03*
X1061000D02*
D03*
X1058250Y301000D02*
D03*
X1049250D02*
D03*
X1051500Y309750D02*
D03*
X1042500D02*
D03*
X1042590Y327828D02*
D03*
X1052750Y319250D02*
D03*
X1061750D02*
D03*
X1052750Y328000D02*
D03*
X1062910Y327928D02*
D03*
X1052750Y337000D02*
D03*
X1062910Y336928D02*
D03*
X1026028Y310000D02*
D03*
X1018028D02*
D03*
X962000Y358000D02*
D03*
X962028Y342000D02*
D03*
X946028D02*
D03*
X1034028Y310000D02*
D03*
X1018028Y318000D02*
D03*
X1034028Y286000D02*
D03*
Y294000D02*
D03*
X989750Y374750D02*
D03*
X999150D02*
D03*
X999250Y383750D02*
D03*
X1010028Y350000D02*
D03*
X1034028Y278000D02*
D03*
Y302000D02*
D03*
Y318000D02*
D03*
Y326000D02*
D03*
Y334000D02*
D03*
Y342000D02*
D03*
Y358000D02*
D03*
Y366000D02*
D03*
X1026028D02*
D03*
Y358000D02*
D03*
Y350000D02*
D03*
Y342000D02*
D03*
Y334000D02*
D03*
Y326000D02*
D03*
Y318000D02*
D03*
Y302000D02*
D03*
Y294000D02*
D03*
Y286000D02*
D03*
Y278000D02*
D03*
X1018028D02*
D03*
Y286000D02*
D03*
Y294000D02*
D03*
Y302000D02*
D03*
Y326000D02*
D03*
Y334000D02*
D03*
Y342000D02*
D03*
Y350000D02*
D03*
Y358000D02*
D03*
X1010028Y366000D02*
D03*
Y358000D02*
D03*
Y342000D02*
D03*
Y334000D02*
D03*
Y326000D02*
D03*
Y278000D02*
D03*
X1002028Y294000D02*
D03*
Y302000D02*
D03*
Y326000D02*
D03*
Y342000D02*
D03*
Y350000D02*
D03*
Y358000D02*
D03*
Y366000D02*
D03*
X994028D02*
D03*
Y358000D02*
D03*
Y350000D02*
D03*
Y342000D02*
D03*
Y334000D02*
D03*
Y326000D02*
D03*
Y318000D02*
D03*
Y310000D02*
D03*
Y302000D02*
D03*
Y286000D02*
D03*
Y278000D02*
D03*
X986028D02*
D03*
X978028D02*
D03*
Y294000D02*
D03*
Y302000D02*
D03*
X986028Y310000D02*
D03*
Y318000D02*
D03*
X978028D02*
D03*
Y326000D02*
D03*
X986028D02*
D03*
Y334000D02*
D03*
X978028D02*
D03*
Y342000D02*
D03*
X986028D02*
D03*
Y350000D02*
D03*
Y358000D02*
D03*
Y366000D02*
D03*
X962028Y278000D02*
D03*
X954028D02*
D03*
X946028D02*
D03*
X954028Y286000D02*
D03*
X946028D02*
D03*
X962028Y294000D02*
D03*
X954028D02*
D03*
X946028D02*
D03*
Y302000D02*
D03*
X954028D02*
D03*
X970028D02*
D03*
X954028Y310000D02*
D03*
X946028D02*
D03*
X962028Y318000D02*
D03*
X954028D02*
D03*
X946028D02*
D03*
X970028Y326000D02*
D03*
X962028D02*
D03*
X954028D02*
D03*
X946028D02*
D03*
X970028Y334000D02*
D03*
X962028D02*
D03*
X954028D02*
D03*
X946028D02*
D03*
X970028Y342000D02*
D03*
X954028D02*
D03*
Y350000D02*
D03*
X970028D02*
D03*
X978028D02*
D03*
Y358000D02*
D03*
Y366000D02*
D03*
X970028D02*
D03*
Y358000D02*
D03*
X962028Y366000D02*
D03*
X946028Y358000D02*
D03*
X954028D02*
D03*
Y366000D02*
D03*
X946028D02*
D03*
X1186950Y280457D02*
D03*
Y293157D02*
D03*
X1174250Y305857D02*
D03*
Y293157D02*
D03*
X1186950Y305857D02*
D03*
X1237750Y280457D02*
D03*
X1186950Y89957D02*
D03*
X1174250Y153457D02*
D03*
X1237750Y77257D02*
D03*
Y572557D02*
D03*
X1174250D02*
D03*
X1225050Y77257D02*
D03*
Y572557D02*
D03*
X1186950Y77257D02*
D03*
Y572557D02*
D03*
X1237750Y559857D02*
D03*
X1174250Y89957D02*
D03*
Y559857D02*
D03*
X1225050Y89957D02*
D03*
Y559857D02*
D03*
X1186950D02*
D03*
X1237750Y547157D02*
D03*
X1174250Y102657D02*
D03*
Y547157D02*
D03*
X1225050Y102657D02*
D03*
Y547157D02*
D03*
X1186950Y102657D02*
D03*
Y547157D02*
D03*
X1237750Y115357D02*
D03*
Y534457D02*
D03*
X1174250Y115357D02*
D03*
Y534457D02*
D03*
X1225050D02*
D03*
X1186950Y115357D02*
D03*
X1237750Y128057D02*
D03*
Y521757D02*
D03*
X1174250D02*
D03*
X1225050D02*
D03*
X1186950Y128057D02*
D03*
X1237750Y509057D02*
D03*
X1174250Y140757D02*
D03*
Y509057D02*
D03*
X1225050Y140757D02*
D03*
Y509057D02*
D03*
X1186950D02*
D03*
X1237750Y496357D02*
D03*
X1174250D02*
D03*
X1225050Y153457D02*
D03*
X1186950Y496357D02*
D03*
X1237750Y483657D02*
D03*
X1174250D02*
D03*
X1225050Y166157D02*
D03*
X1186950Y483657D02*
D03*
X1237750Y178857D02*
D03*
Y470957D02*
D03*
X1174250D02*
D03*
X1225050D02*
D03*
X1186950D02*
D03*
X1237750Y191557D02*
D03*
X1174250Y458257D02*
D03*
X1225050Y191557D02*
D03*
X1186950Y458257D02*
D03*
X1237750Y204257D02*
D03*
X1174250Y445557D02*
D03*
X1225050Y204257D02*
D03*
X1186950D02*
D03*
Y445557D02*
D03*
X1237750Y216957D02*
D03*
X1174250D02*
D03*
Y432857D02*
D03*
X1225050Y216957D02*
D03*
X1186950D02*
D03*
Y432857D02*
D03*
X1237750Y229657D02*
D03*
Y420157D02*
D03*
X1174250Y229657D02*
D03*
Y420157D02*
D03*
X1225050Y229657D02*
D03*
Y420157D02*
D03*
X1186950D02*
D03*
X1237750Y407457D02*
D03*
X1174250Y242357D02*
D03*
Y407457D02*
D03*
X1225050Y242357D02*
D03*
Y407457D02*
D03*
X1186950Y242357D02*
D03*
Y407457D02*
D03*
X1237750Y394757D02*
D03*
X1174250Y255057D02*
D03*
Y394757D02*
D03*
X1225050Y255057D02*
D03*
X1186950Y394757D02*
D03*
X1237750Y382057D02*
D03*
X1174250D02*
D03*
X1225050D02*
D03*
X1186950D02*
D03*
X1237750Y369357D02*
D03*
X1174250D02*
D03*
X1225050D02*
D03*
X1186950D02*
D03*
X1237750Y356657D02*
D03*
X1174250D02*
D03*
X1237750Y343957D02*
D03*
X1225050Y356657D02*
D03*
X1186950D02*
D03*
X1174250Y343957D02*
D03*
X1237750Y318557D02*
D03*
Y331257D02*
D03*
X1174250Y318557D02*
D03*
Y331257D02*
D03*
X1225050Y305857D02*
D03*
Y343957D02*
D03*
X1186950D02*
D03*
X1225050Y318557D02*
D03*
X1186950D02*
D03*
Y331257D02*
D03*
X956184Y502044D02*
D03*
X945184D02*
D03*
X956184Y513044D02*
D03*
X945184D02*
D03*
X1048932Y504532D02*
D03*
X1037932D02*
D03*
X1048932Y515532D02*
D03*
X1037932D02*
D03*
D93*
X565750Y46250D02*
D03*
X577000Y23750D02*
D03*
X1049750Y16250D02*
D03*
X1038500Y-6250D02*
D03*
X1356250Y145000D02*
D03*
Y55000D02*
D03*
Y77500D02*
D03*
Y100000D02*
D03*
Y122500D02*
D03*
X1333750Y111250D02*
D03*
Y88750D02*
D03*
Y66250D02*
D03*
Y133750D02*
D03*
Y283750D02*
D03*
Y216250D02*
D03*
Y238750D02*
D03*
Y261250D02*
D03*
X1356250Y272500D02*
D03*
Y250000D02*
D03*
Y227500D02*
D03*
Y205000D02*
D03*
Y295000D02*
D03*
X1333750Y433750D02*
D03*
Y366250D02*
D03*
Y388750D02*
D03*
Y411250D02*
D03*
X1356250Y422500D02*
D03*
Y400000D02*
D03*
Y377500D02*
D03*
Y355000D02*
D03*
Y445000D02*
D03*
X1333750Y583750D02*
D03*
Y516250D02*
D03*
Y538750D02*
D03*
Y561250D02*
D03*
X1356250Y572500D02*
D03*
Y550000D02*
D03*
Y527500D02*
D03*
Y505000D02*
D03*
Y595000D02*
D03*
X939750Y16250D02*
D03*
X872250D02*
D03*
X894750D02*
D03*
X917250D02*
D03*
X928500Y-6250D02*
D03*
X906000D02*
D03*
X883500D02*
D03*
X861000D02*
D03*
X951000D02*
D03*
X1094750Y16250D02*
D03*
X1027250D02*
D03*
X1072250D02*
D03*
X1083500Y-6250D02*
D03*
X1061000D02*
D03*
X1016000D02*
D03*
X1106000D02*
D03*
X1128500D02*
D03*
X1117250Y16250D02*
D03*
X1151001Y-6250D02*
D03*
X1139751Y16250D02*
D03*
Y633750D02*
D03*
X1151001Y656250D02*
D03*
X1117250Y633750D02*
D03*
X1128500Y656250D02*
D03*
X1106000D02*
D03*
X1016000D02*
D03*
X1038500D02*
D03*
X1061000D02*
D03*
X1083500D02*
D03*
X1072250Y633750D02*
D03*
X1049750D02*
D03*
X1027250D02*
D03*
X1094750D02*
D03*
X1309500Y16250D02*
D03*
X1242000D02*
D03*
X1264500D02*
D03*
X1287000D02*
D03*
X1298250Y-6250D02*
D03*
X1275750D02*
D03*
X1253250D02*
D03*
X1230750D02*
D03*
X1320750D02*
D03*
Y656250D02*
D03*
X1230750D02*
D03*
X1253250D02*
D03*
X1275750D02*
D03*
X1298250D02*
D03*
X1287000Y633750D02*
D03*
X1264500D02*
D03*
X1242000D02*
D03*
X1309500D02*
D03*
X874750Y633750D02*
D03*
X942250D02*
D03*
X919750D02*
D03*
X897250D02*
D03*
X886000Y656250D02*
D03*
X908500D02*
D03*
X931000D02*
D03*
X953500D02*
D03*
X863500D02*
D03*
X841000D02*
D03*
X852250Y633750D02*
D03*
X1356250Y656250D02*
D03*
Y-6250D02*
D03*
X789001Y21500D02*
D03*
X766500D02*
D03*
X721500D02*
D03*
X699000D02*
D03*
X676500D02*
D03*
X744000D02*
D03*
X772501Y632000D02*
D03*
X750000D02*
D03*
X705000D02*
D03*
X682500D02*
D03*
X660000D02*
D03*
X727500D02*
D03*
X577000Y611750D02*
D03*
X565750Y589250D02*
D03*
M02*
