G04*
G04 #@! TF.GenerationSoftware,Altium Limited,Altium Designer,19.0.15 (446)*
G04*
G04 Layer_Physical_Order=8*
G04 Layer_Color=16711680*
%FSLAX44Y44*%
%MOMM*%
G71*
G01*
G75*
%ADD11R,0.6200X0.6200*%
%ADD14R,0.5800X0.6200*%
%ADD16R,0.6200X0.5800*%
%ADD23R,0.6200X0.6200*%
%ADD24R,1.0000X0.9500*%
%ADD27R,0.9000X1.0000*%
%ADD37R,0.4000X0.4500*%
%ADD82C,0.4000*%
%ADD84C,0.2000*%
%ADD88C,0.2540*%
%ADD89C,4.0000*%
%ADD90C,5.0000*%
%ADD91C,1.0000*%
%ADD92C,0.5000*%
%ADD93C,0.6000*%
%ADD94C,0.3000*%
%ADD98C,1.0000*%
%ADD101C,0.2235*%
%ADD104R,2.6416X2.6416*%
%ADD105R,0.3556X0.8128*%
%ADD106R,0.8128X0.3556*%
%ADD107R,1.0000X0.9000*%
%ADD108R,0.4500X0.4000*%
%ADD109R,0.6200X0.6000*%
%ADD110O,0.8000X0.3000*%
%ADD111O,0.3000X0.8000*%
%ADD112R,2.7500X2.7500*%
G36*
X1224194Y667606D02*
X1221478Y665522D01*
X1219394Y662806D01*
X1218084Y659644D01*
X1217638Y656250D01*
X1217864Y654534D01*
X1217282Y655939D01*
X1214403Y660636D01*
X1210825Y664825D01*
X1206636Y668403D01*
X1206542Y668461D01*
X1226259D01*
X1224194Y667606D01*
D02*
G37*
G36*
X1349694Y667606D02*
X1346978Y665522D01*
X1344895Y662806D01*
X1343585Y659644D01*
X1343138Y656250D01*
X1343308Y654960D01*
X1340292Y654722D01*
X1335701Y653620D01*
X1333324Y652635D01*
X1333415Y652856D01*
X1333862Y656250D01*
X1333415Y659644D01*
X1332106Y662806D01*
X1330022Y665522D01*
X1327306Y667606D01*
X1325241Y668461D01*
X1351759D01*
X1349694Y667606D01*
D02*
G37*
G36*
X784721Y666279D02*
X781654Y662688D01*
X779187Y658662D01*
X777380Y654299D01*
X776278Y649707D01*
X775907Y645000D01*
X775935Y644649D01*
X775894Y644665D01*
X772501Y645112D01*
X769107Y644665D01*
X765945Y643355D01*
X763229Y641272D01*
X761251Y638693D01*
X759272Y641272D01*
X756556Y643355D01*
X753394Y644665D01*
X750000Y645112D01*
X746607Y644665D01*
X743444Y643355D01*
X740729Y641272D01*
X738750Y638693D01*
X736772Y641272D01*
X734056Y643355D01*
X730894Y644665D01*
X727500Y645112D01*
X724107Y644665D01*
X720944Y643355D01*
X718228Y641272D01*
X716250Y638693D01*
X714272Y641272D01*
X711556Y643355D01*
X708394Y644665D01*
X705000Y645112D01*
X701606Y644665D01*
X698444Y643355D01*
X695728Y641272D01*
X693750Y638694D01*
X691772Y641272D01*
X689056Y643355D01*
X685894Y644665D01*
X682500Y645112D01*
X679106Y644665D01*
X675944Y643355D01*
X673228Y641272D01*
X671250Y638694D01*
X669272Y641272D01*
X666556Y643355D01*
X663394Y644665D01*
X660000Y645112D01*
X656606Y644665D01*
X653444Y643355D01*
X650728Y641272D01*
X648644Y638556D01*
X647335Y635394D01*
X647250Y634754D01*
X645492Y635176D01*
X640000Y635608D01*
X634508Y635176D01*
X629151Y633890D01*
X624061Y631782D01*
X619364Y628903D01*
X615175Y625325D01*
X612740Y622474D01*
X611707Y622722D01*
X607000Y623093D01*
X602292Y622722D01*
X597701Y621620D01*
X593338Y619813D01*
X589312Y617346D01*
X588899Y616993D01*
X588355Y618306D01*
X586272Y621022D01*
X583556Y623106D01*
X580394Y624415D01*
X577000Y624862D01*
X573606Y624415D01*
X570444Y623106D01*
X567728Y621022D01*
X565644Y618306D01*
X564335Y615144D01*
X563888Y611750D01*
X564335Y608356D01*
X565644Y605194D01*
X567728Y602478D01*
X568321Y602024D01*
X565750Y602362D01*
X562836Y601979D01*
X562836Y668461D01*
X787276D01*
X784721Y666279D01*
D02*
G37*
G36*
X1014138Y633750D02*
X1014585Y630356D01*
X1015894Y627194D01*
X1017978Y624478D01*
X1020502Y622542D01*
X1020000Y622608D01*
X1016737Y622178D01*
X1013696Y620919D01*
X1011085Y618915D01*
X1010462Y618104D01*
X1010415Y618165D01*
X1007804Y620169D01*
X1007281Y620386D01*
X1005915Y622165D01*
X1005674Y622350D01*
X1007279Y623721D01*
X1010346Y627312D01*
X1012813Y631338D01*
X1014290Y634903D01*
X1014138Y633750D01*
D02*
G37*
G36*
X1107979Y624478D02*
X1110089Y622859D01*
X1109941Y622920D01*
X1106678Y623350D01*
X1103415Y622920D01*
X1100374Y621661D01*
X1097763Y619657D01*
X1096665Y618226D01*
X1093763Y619428D01*
X1090500Y619858D01*
X1087237Y619428D01*
X1084196Y618169D01*
X1081585Y616165D01*
X1080750Y615077D01*
X1079915Y616165D01*
X1077304Y618169D01*
X1074263Y619428D01*
X1071000Y619858D01*
X1067737Y619428D01*
X1066035Y618723D01*
X1064539Y620673D01*
X1061928Y622677D01*
X1058887Y623936D01*
X1058399Y624001D01*
X1059022Y624478D01*
X1061000Y627057D01*
X1062978Y624478D01*
X1065694Y622394D01*
X1068856Y621085D01*
X1072250Y620638D01*
X1075643Y621085D01*
X1078806Y622394D01*
X1081522Y624478D01*
X1083500Y627057D01*
X1085478Y624478D01*
X1088194Y622394D01*
X1091356Y621085D01*
X1094750Y620638D01*
X1098144Y621085D01*
X1101306Y622394D01*
X1104022Y624478D01*
X1106000Y627057D01*
X1107979Y624478D01*
D02*
G37*
G36*
X1040478D02*
X1043194Y622394D01*
X1046356Y621085D01*
X1047115Y620985D01*
X1046709Y620673D01*
X1045254Y618777D01*
X1044910Y619041D01*
X1041869Y620300D01*
X1038606Y620730D01*
X1035343Y620300D01*
X1032302Y619041D01*
X1030110Y617358D01*
X1028915Y618915D01*
X1026550Y620730D01*
X1027250Y620638D01*
X1030644Y621085D01*
X1033806Y622394D01*
X1036522Y624478D01*
X1038500Y627057D01*
X1040478Y624478D01*
D02*
G37*
G36*
X953500Y643138D02*
X956028Y643471D01*
X956278Y640293D01*
X957380Y635701D01*
X959187Y631338D01*
X961654Y627312D01*
X964721Y623721D01*
X967051Y621732D01*
X965335Y620415D01*
X964835Y619764D01*
X935449D01*
Y622583D01*
X935694Y622394D01*
X938856Y621085D01*
X942250Y620638D01*
X945644Y621085D01*
X948806Y622394D01*
X951522Y624478D01*
X953606Y627194D01*
X954915Y630356D01*
X955362Y633750D01*
X954915Y637144D01*
X953606Y640306D01*
X951522Y643022D01*
X950929Y643476D01*
X953500Y643138D01*
D02*
G37*
G36*
X718228Y622728D02*
X720944Y620644D01*
X724107Y619335D01*
X725499Y619151D01*
X724081Y617304D01*
X723788Y616596D01*
X720946Y615419D01*
X718335Y613415D01*
X716331Y610804D01*
X715072Y607763D01*
X714642Y604500D01*
X715072Y601237D01*
X716331Y598196D01*
X716482Y598000D01*
X716331Y597804D01*
X715072Y594763D01*
X714656Y591602D01*
X713263Y592178D01*
X710000Y592608D01*
X706737Y592178D01*
X703696Y590919D01*
X701085Y588915D01*
X700875Y588642D01*
X700665Y588915D01*
X700111Y589340D01*
X701919Y591696D01*
X703178Y594737D01*
X703608Y598000D01*
X703178Y601263D01*
X701919Y604304D01*
X701643Y604663D01*
X701669Y604696D01*
X702928Y607737D01*
X703358Y611000D01*
X702928Y614263D01*
X701669Y617304D01*
X699665Y619915D01*
X699032Y620401D01*
X701606Y619335D01*
X705000Y618888D01*
X708394Y619335D01*
X711556Y620644D01*
X714272Y622728D01*
X716250Y625307D01*
X718228Y622728D01*
D02*
G37*
G36*
X673228D02*
X675944Y620644D01*
X679106Y619335D01*
X681180Y619062D01*
X679831Y617304D01*
X679434Y616346D01*
X677196Y615419D01*
X674585Y613415D01*
X673253Y611679D01*
X671282Y616439D01*
X668403Y621136D01*
X667925Y621695D01*
X669272Y622728D01*
X671250Y625306D01*
X673228Y622728D01*
D02*
G37*
G36*
X1221478Y646978D02*
X1224194Y644895D01*
X1227356Y643585D01*
X1230750Y643138D01*
X1233321Y643476D01*
X1232728Y643022D01*
X1230644Y640306D01*
X1229334Y637144D01*
X1228888Y633750D01*
X1229334Y630356D01*
X1230644Y627194D01*
X1232728Y624478D01*
X1235444Y622395D01*
X1238606Y621085D01*
X1242000Y620638D01*
X1245394Y621085D01*
X1248556Y622395D01*
X1251272Y624478D01*
X1253250Y627057D01*
X1255228Y624478D01*
X1257944Y622395D01*
X1261106Y621085D01*
X1264500Y620638D01*
X1267894Y621085D01*
X1271056Y622395D01*
X1273772Y624478D01*
X1275750Y627057D01*
X1277728Y624478D01*
X1280444Y622395D01*
X1283606Y621085D01*
X1287000Y620638D01*
X1290394Y621085D01*
X1293556Y622395D01*
X1296272Y624478D01*
X1298250Y627057D01*
X1300228Y624478D01*
X1302944Y622395D01*
X1306106Y621085D01*
X1309500Y620638D01*
X1312894Y621085D01*
X1315142Y622016D01*
X1315278Y620293D01*
X1316380Y615701D01*
X1318187Y611338D01*
X1320654Y607312D01*
X1323721Y603721D01*
X1327312Y600654D01*
X1331338Y598187D01*
X1334904Y596710D01*
X1333750Y596862D01*
X1330356Y596415D01*
X1327194Y595106D01*
X1324478Y593022D01*
X1322395Y590306D01*
X1321085Y587144D01*
X1320638Y583750D01*
X1321085Y580356D01*
X1322395Y577194D01*
X1324478Y574478D01*
X1327057Y572500D01*
X1324478Y570522D01*
X1323812Y569654D01*
X1323337Y570802D01*
X1321333Y573413D01*
X1318722Y575417D01*
X1315681Y576676D01*
X1312418Y577106D01*
X1309755Y576755D01*
X1310626Y578859D01*
X1311056Y582122D01*
X1310626Y585385D01*
X1309367Y588426D01*
X1307363Y591037D01*
X1304752Y593041D01*
X1301711Y594300D01*
X1298448Y594730D01*
X1295185Y594300D01*
X1292144Y593041D01*
X1289533Y591037D01*
X1287529Y588426D01*
X1286270Y585385D01*
X1285840Y582122D01*
X1286270Y578859D01*
X1287529Y575818D01*
X1288379Y574710D01*
X1286237Y574428D01*
X1283196Y573169D01*
X1280585Y571165D01*
X1278581Y568554D01*
X1277322Y565513D01*
X1276892Y562250D01*
X1277322Y558987D01*
X1278581Y555946D01*
X1280585Y553335D01*
X1283196Y551331D01*
X1286237Y550072D01*
X1289500Y549642D01*
X1292763Y550072D01*
X1294625Y550843D01*
X1296487Y550072D01*
X1299750Y549642D01*
X1301233Y549837D01*
X1301499Y549194D01*
X1302450Y547955D01*
X1300991Y546054D01*
X1300457Y544765D01*
X1299750Y544858D01*
X1296487Y544428D01*
X1294625Y543657D01*
X1292763Y544428D01*
X1289500Y544858D01*
X1286237Y544428D01*
X1283196Y543169D01*
X1282283Y542468D01*
X1282178Y543263D01*
X1280919Y546304D01*
X1278915Y548915D01*
X1276304Y550919D01*
X1273263Y552178D01*
X1270000Y552608D01*
X1266737Y552178D01*
X1263696Y550919D01*
X1261085Y548915D01*
X1259081Y546304D01*
X1257822Y543263D01*
X1257392Y540000D01*
X1257822Y536737D01*
X1259081Y533696D01*
X1261085Y531085D01*
X1263696Y529081D01*
X1266737Y527822D01*
X1270000Y527392D01*
X1273263Y527822D01*
X1276304Y529081D01*
X1277217Y529782D01*
X1277322Y528987D01*
X1278581Y525946D01*
X1280585Y523335D01*
X1280645Y523289D01*
X1280081Y522554D01*
X1278822Y519513D01*
X1278759Y519035D01*
X1276304Y520919D01*
X1273263Y522178D01*
X1270000Y522608D01*
X1266737Y522178D01*
X1263696Y520919D01*
X1261085Y518915D01*
X1259081Y516304D01*
X1257822Y513263D01*
X1257392Y510000D01*
X1257822Y506737D01*
X1259081Y503696D01*
X1261085Y501085D01*
X1263696Y499081D01*
X1266737Y497822D01*
X1270000Y497392D01*
X1273263Y497822D01*
X1276304Y499081D01*
X1278915Y501085D01*
X1279677Y502077D01*
X1278822Y500013D01*
X1278392Y496750D01*
X1278822Y493487D01*
X1280081Y490446D01*
X1282085Y487835D01*
X1284696Y485831D01*
X1287737Y484572D01*
X1291000Y484142D01*
X1293848Y484517D01*
X1291196Y483419D01*
X1288585Y481415D01*
X1286581Y478804D01*
X1285322Y475763D01*
X1284892Y472500D01*
X1285322Y469237D01*
X1286581Y466196D01*
X1288585Y463585D01*
X1291196Y461581D01*
X1294237Y460322D01*
X1297500Y459892D01*
X1300763Y460322D01*
X1303804Y461581D01*
X1305667Y463011D01*
X1305860Y462863D01*
X1308901Y461604D01*
X1312164Y461174D01*
X1315427Y461604D01*
X1317689Y462541D01*
X1318187Y461338D01*
X1320654Y457312D01*
X1323721Y453721D01*
X1327312Y450654D01*
X1331338Y448187D01*
X1334904Y446710D01*
X1333750Y446862D01*
X1330356Y446415D01*
X1327194Y445106D01*
X1324478Y443022D01*
X1322395Y440306D01*
X1321447Y438018D01*
X1320825Y438829D01*
X1318214Y440832D01*
X1315173Y442092D01*
X1311910Y442522D01*
X1310079Y442280D01*
X1310108Y442500D01*
X1309678Y445763D01*
X1308419Y448804D01*
X1306415Y451415D01*
X1303804Y453419D01*
X1300763Y454678D01*
X1297500Y455108D01*
X1294237Y454678D01*
X1291196Y453419D01*
X1288585Y451415D01*
X1286581Y448804D01*
X1285322Y445763D01*
X1284892Y442500D01*
X1285322Y439237D01*
X1286581Y436196D01*
X1288585Y433585D01*
X1291196Y431581D01*
X1294237Y430322D01*
X1297500Y429892D01*
X1299331Y430133D01*
X1299302Y429914D01*
X1299341Y429614D01*
X1299325Y429612D01*
X1297463Y428841D01*
X1295601Y429612D01*
X1292338Y430042D01*
X1289075Y429612D01*
X1286034Y428353D01*
X1283423Y426349D01*
X1281419Y423738D01*
X1280160Y420697D01*
X1279730Y417434D01*
X1280160Y414171D01*
X1281419Y411130D01*
X1283423Y408519D01*
X1286034Y406515D01*
X1289075Y405256D01*
X1292338Y404826D01*
X1293784Y405017D01*
X1293058Y403263D01*
X1292628Y400004D01*
X1292338Y400042D01*
X1289075Y399612D01*
X1286034Y398353D01*
X1283423Y396349D01*
X1281419Y393738D01*
X1280160Y390697D01*
X1279730Y387434D01*
X1280160Y384171D01*
X1281419Y381130D01*
X1283423Y378519D01*
X1286034Y376515D01*
X1289075Y375256D01*
X1290148Y375115D01*
X1288585Y373915D01*
X1286581Y371304D01*
X1285322Y368263D01*
X1284892Y365000D01*
X1285322Y361737D01*
X1286581Y358696D01*
X1288585Y356085D01*
X1291196Y354081D01*
X1294237Y352822D01*
X1297500Y352392D01*
X1297711Y352420D01*
X1297392Y350000D01*
X1297711Y347580D01*
X1297500Y347608D01*
X1294237Y347178D01*
X1291196Y345919D01*
X1288585Y343915D01*
X1286581Y341304D01*
X1285322Y338263D01*
X1284892Y335000D01*
X1285322Y331737D01*
X1286581Y328696D01*
X1288585Y326085D01*
X1291196Y324081D01*
X1294237Y322822D01*
X1297500Y322392D01*
X1300763Y322822D01*
X1303804Y324081D01*
X1306415Y326085D01*
X1308419Y328696D01*
X1309678Y331737D01*
X1310108Y335000D01*
X1309789Y337420D01*
X1310000Y337392D01*
X1313263Y337822D01*
X1316304Y339081D01*
X1318915Y341085D01*
X1320919Y343696D01*
X1322178Y346737D01*
X1322608Y350000D01*
X1322178Y353263D01*
X1320919Y356304D01*
X1318915Y358915D01*
X1316304Y360919D01*
X1313263Y362178D01*
X1310000Y362608D01*
X1309789Y362580D01*
X1310108Y365000D01*
X1309678Y368263D01*
X1308419Y371304D01*
X1306415Y373915D01*
X1304841Y375123D01*
X1305851Y375256D01*
X1308892Y376515D01*
X1311503Y378519D01*
X1313507Y381130D01*
X1314766Y384171D01*
X1315196Y387434D01*
X1314766Y390697D01*
X1314446Y391470D01*
X1316155Y393696D01*
X1317414Y396737D01*
X1317844Y400000D01*
X1317414Y403263D01*
X1316155Y406304D01*
X1314151Y408915D01*
X1312676Y410047D01*
X1313507Y411130D01*
X1314766Y414171D01*
X1315196Y417434D01*
X1315157Y417733D01*
X1315173Y417735D01*
X1318214Y418995D01*
X1320825Y420998D01*
X1322829Y423610D01*
X1323641Y425570D01*
X1324478Y424478D01*
X1327057Y422500D01*
X1324478Y420522D01*
X1322395Y417806D01*
X1321085Y414644D01*
X1320638Y411250D01*
X1321085Y407856D01*
X1322395Y404694D01*
X1324478Y401978D01*
X1327056Y400000D01*
X1324478Y398022D01*
X1322395Y395306D01*
X1321085Y392144D01*
X1320638Y388750D01*
X1321085Y385356D01*
X1322395Y382194D01*
X1324478Y379478D01*
X1327056Y377500D01*
X1324478Y375522D01*
X1322395Y372806D01*
X1321085Y369644D01*
X1320638Y366250D01*
X1321085Y362856D01*
X1322395Y359694D01*
X1324478Y356978D01*
X1327194Y354894D01*
X1330356Y353585D01*
X1333750Y353138D01*
X1334903Y353290D01*
X1331338Y351813D01*
X1327312Y349346D01*
X1323721Y346279D01*
X1320654Y342688D01*
X1318187Y338662D01*
X1316380Y334299D01*
X1315278Y329707D01*
X1314907Y325000D01*
X1315278Y320293D01*
X1316380Y315701D01*
X1318187Y311338D01*
X1320654Y307312D01*
X1323721Y303721D01*
X1327312Y300655D01*
X1331338Y298187D01*
X1334904Y296710D01*
X1333750Y296862D01*
X1330356Y296415D01*
X1327194Y295105D01*
X1324478Y293022D01*
X1322395Y290306D01*
X1321085Y287144D01*
X1320638Y283750D01*
X1321085Y280356D01*
X1322395Y277194D01*
X1324478Y274478D01*
X1327057Y272500D01*
X1324478Y270522D01*
X1322395Y267806D01*
X1321085Y264643D01*
X1320638Y261250D01*
X1321085Y257856D01*
X1322395Y254694D01*
X1324478Y251978D01*
X1327056Y250000D01*
X1324478Y248022D01*
X1322395Y245306D01*
X1321085Y242143D01*
X1320638Y238750D01*
X1321085Y235356D01*
X1322395Y232194D01*
X1324478Y229478D01*
X1327056Y227500D01*
X1324478Y225522D01*
X1322395Y222806D01*
X1321085Y219644D01*
X1320638Y216250D01*
X1321085Y212856D01*
X1322395Y209694D01*
X1324478Y206978D01*
X1327194Y204894D01*
X1330356Y203584D01*
X1333750Y203138D01*
X1334903Y203290D01*
X1331338Y201813D01*
X1327312Y199345D01*
X1323721Y196279D01*
X1320654Y192688D01*
X1319110Y190168D01*
X1318786Y192627D01*
X1318191Y194064D01*
X1318786Y195501D01*
X1319216Y198764D01*
X1318786Y202027D01*
X1317596Y204902D01*
X1318786Y207777D01*
X1319216Y211040D01*
X1318786Y214303D01*
X1318191Y215740D01*
X1318786Y217177D01*
X1319216Y220440D01*
X1318786Y223703D01*
X1317596Y226578D01*
X1318786Y229453D01*
X1319216Y232716D01*
X1318786Y235979D01*
X1318191Y237416D01*
X1318786Y238853D01*
X1319216Y242116D01*
X1318786Y245379D01*
X1317596Y248254D01*
X1318786Y251129D01*
X1319216Y254392D01*
X1318786Y257655D01*
X1317527Y260696D01*
X1315523Y263307D01*
X1312912Y265311D01*
X1309871Y266570D01*
X1306608Y267000D01*
X1306102Y266933D01*
X1306086Y267055D01*
X1304895Y269930D01*
X1306086Y272805D01*
X1306516Y276068D01*
X1306086Y279331D01*
X1305491Y280768D01*
X1306086Y282205D01*
X1306516Y285468D01*
X1306086Y288731D01*
X1305994Y288953D01*
X1306304Y289081D01*
X1308915Y291085D01*
X1310919Y293696D01*
X1312178Y296737D01*
X1312608Y300000D01*
X1312178Y303263D01*
X1310919Y306304D01*
X1308915Y308915D01*
X1306304Y310919D01*
X1303263Y312178D01*
X1300000Y312608D01*
X1296737Y312178D01*
X1293696Y310919D01*
X1291085Y308915D01*
X1289081Y306304D01*
X1287822Y303263D01*
X1287392Y300000D01*
X1287822Y296737D01*
X1287914Y296515D01*
X1287604Y296387D01*
X1284993Y294383D01*
X1282989Y291772D01*
X1281730Y288731D01*
X1281300Y285468D01*
X1281730Y282205D01*
X1282325Y280768D01*
X1281730Y279331D01*
X1281300Y276068D01*
X1281730Y272805D01*
X1282921Y269930D01*
X1281730Y267055D01*
X1281300Y263792D01*
X1281730Y260529D01*
X1282325Y259092D01*
X1281730Y257655D01*
X1281300Y254392D01*
X1281730Y251129D01*
X1282921Y248254D01*
X1281730Y245379D01*
X1281300Y242116D01*
X1281730Y238853D01*
X1282325Y237416D01*
X1281730Y235979D01*
X1281300Y232716D01*
X1281730Y229453D01*
X1282921Y226578D01*
X1281730Y223703D01*
X1281300Y220440D01*
X1281730Y217177D01*
X1282325Y215740D01*
X1281730Y214303D01*
X1281300Y211040D01*
X1281730Y207777D01*
X1282921Y204902D01*
X1281730Y202027D01*
X1281300Y198764D01*
X1281730Y195501D01*
X1282325Y194064D01*
X1281730Y192627D01*
X1281300Y189364D01*
X1281730Y186101D01*
X1282921Y183226D01*
X1281730Y180351D01*
X1281300Y177088D01*
X1281730Y173825D01*
X1282325Y172388D01*
X1281730Y170951D01*
X1281300Y167688D01*
X1281485Y166286D01*
X1280675Y165665D01*
X1278671Y163054D01*
X1277412Y160013D01*
X1276982Y156750D01*
X1277412Y153487D01*
X1277924Y152250D01*
X1277412Y151013D01*
X1276982Y147750D01*
X1277412Y144487D01*
X1277702Y143785D01*
X1275250Y144108D01*
X1271987Y143678D01*
X1268946Y142419D01*
X1266335Y140415D01*
X1264331Y137804D01*
X1263072Y134763D01*
X1262642Y131500D01*
X1263072Y128237D01*
X1263584Y127000D01*
X1263072Y125763D01*
X1262998Y125200D01*
X1262219Y123320D01*
X1262033Y122872D01*
X1261655Y120000D01*
Y118964D01*
X1259487Y118678D01*
X1256446Y117419D01*
X1253835Y115415D01*
X1251831Y112804D01*
X1250572Y109763D01*
X1250142Y106500D01*
X1250153Y106419D01*
X1248946Y105919D01*
X1246335Y103915D01*
X1244331Y101304D01*
X1244218Y101032D01*
X1243946Y100919D01*
X1241335Y98915D01*
X1239331Y96304D01*
X1238072Y93263D01*
X1237647Y90038D01*
X1237228Y93220D01*
X1235969Y96261D01*
X1235933Y96307D01*
X1235969Y96353D01*
X1237228Y99394D01*
X1237658Y102657D01*
X1237644Y102763D01*
X1237750Y102749D01*
X1241013Y103179D01*
X1244054Y104438D01*
X1246665Y106442D01*
X1248669Y109053D01*
X1249928Y112094D01*
X1250358Y115357D01*
X1249928Y118620D01*
X1248669Y121661D01*
X1248633Y121707D01*
X1248669Y121753D01*
X1249928Y124794D01*
X1250358Y128057D01*
X1249928Y131320D01*
X1248669Y134361D01*
X1246665Y136972D01*
X1244054Y138976D01*
X1241013Y140235D01*
X1237750Y140665D01*
X1237644Y140651D01*
X1237658Y140757D01*
X1237228Y144020D01*
X1235969Y147061D01*
X1235933Y147107D01*
X1235969Y147153D01*
X1237228Y150194D01*
X1237658Y153457D01*
X1237644Y153563D01*
X1237750Y153549D01*
X1241013Y153979D01*
X1244054Y155238D01*
X1246665Y157242D01*
X1248669Y159853D01*
X1249928Y162894D01*
X1250358Y166157D01*
X1249928Y169420D01*
X1248669Y172461D01*
X1248633Y172507D01*
X1248669Y172553D01*
X1249928Y175594D01*
X1250358Y178857D01*
X1249928Y182120D01*
X1248669Y185161D01*
X1248633Y185207D01*
X1248669Y185253D01*
X1249928Y188294D01*
X1250358Y191557D01*
X1249928Y194820D01*
X1248669Y197861D01*
X1248633Y197907D01*
X1248669Y197953D01*
X1249928Y200994D01*
X1250358Y204257D01*
X1249928Y207520D01*
X1248669Y210561D01*
X1248633Y210607D01*
X1248669Y210653D01*
X1249928Y213694D01*
X1250358Y216957D01*
X1249928Y220220D01*
X1248669Y223261D01*
X1248633Y223307D01*
X1248669Y223353D01*
X1249928Y226394D01*
X1250358Y229657D01*
X1249928Y232920D01*
X1248669Y235961D01*
X1248633Y236007D01*
X1248669Y236053D01*
X1249928Y239094D01*
X1250358Y242357D01*
X1249928Y245620D01*
X1248669Y248661D01*
X1248633Y248707D01*
X1248669Y248753D01*
X1249928Y251794D01*
X1250358Y255057D01*
X1249928Y258320D01*
X1248669Y261361D01*
X1246665Y263972D01*
X1244054Y265976D01*
X1241013Y267235D01*
X1237750Y267665D01*
X1234487Y267235D01*
X1231446Y265976D01*
X1231400Y265940D01*
X1231354Y265976D01*
X1229714Y266655D01*
X1229858Y267750D01*
X1229712Y268858D01*
X1231354Y269538D01*
X1231400Y269574D01*
X1231446Y269538D01*
X1234487Y268279D01*
X1237750Y267849D01*
X1241013Y268279D01*
X1244054Y269538D01*
X1246665Y271542D01*
X1248669Y274153D01*
X1249928Y277194D01*
X1250358Y280457D01*
X1249928Y283720D01*
X1248669Y286761D01*
X1248633Y286807D01*
X1248669Y286853D01*
X1249928Y289894D01*
X1250358Y293157D01*
X1249928Y296420D01*
X1248669Y299461D01*
X1248633Y299507D01*
X1248669Y299553D01*
X1249928Y302594D01*
X1250358Y305857D01*
X1249928Y309120D01*
X1248669Y312161D01*
X1248633Y312207D01*
X1248669Y312253D01*
X1249928Y315294D01*
X1250358Y318557D01*
X1249928Y321820D01*
X1248669Y324861D01*
X1248633Y324907D01*
X1248669Y324953D01*
X1249928Y327994D01*
X1250358Y331257D01*
X1249928Y334520D01*
X1248669Y337561D01*
X1248633Y337607D01*
X1248669Y337653D01*
X1249928Y340694D01*
X1250358Y343957D01*
X1249928Y347220D01*
X1248669Y350261D01*
X1248633Y350307D01*
X1248669Y350353D01*
X1249928Y353394D01*
X1250358Y356657D01*
X1249928Y359920D01*
X1248669Y362961D01*
X1248633Y363007D01*
X1248669Y363053D01*
X1249928Y366094D01*
X1250358Y369357D01*
X1249928Y372620D01*
X1248669Y375661D01*
X1248633Y375707D01*
X1248669Y375753D01*
X1249718Y378287D01*
X1250237Y378072D01*
X1253500Y377642D01*
X1256763Y378072D01*
X1259804Y379331D01*
X1262415Y381335D01*
X1264419Y383946D01*
X1265678Y386987D01*
X1266108Y390250D01*
X1265678Y393513D01*
X1264419Y396554D01*
X1262415Y399165D01*
X1259804Y401169D01*
X1256763Y402428D01*
X1253500Y402858D01*
X1250237Y402428D01*
X1248982Y401908D01*
X1249928Y404194D01*
X1250358Y407457D01*
X1249928Y410720D01*
X1248669Y413761D01*
X1248633Y413807D01*
X1248669Y413853D01*
X1249928Y416894D01*
X1250358Y420157D01*
X1249928Y423420D01*
X1248669Y426461D01*
X1248633Y426507D01*
X1248669Y426553D01*
X1249928Y429594D01*
X1250358Y432857D01*
X1249928Y436120D01*
X1248669Y439161D01*
X1248633Y439207D01*
X1248669Y439253D01*
X1249928Y442294D01*
X1250358Y445557D01*
X1249928Y448820D01*
X1248669Y451861D01*
X1248633Y451907D01*
X1248669Y451953D01*
X1249928Y454994D01*
X1250358Y458257D01*
X1249928Y461520D01*
X1248669Y464561D01*
X1248633Y464607D01*
X1248669Y464653D01*
X1249928Y467694D01*
X1250358Y470957D01*
X1249928Y474220D01*
X1248669Y477261D01*
X1248633Y477307D01*
X1248669Y477353D01*
X1249928Y480394D01*
X1250358Y483657D01*
X1249928Y486920D01*
X1248669Y489961D01*
X1248633Y490007D01*
X1248669Y490053D01*
X1249928Y493094D01*
X1250358Y496357D01*
X1249928Y499620D01*
X1248669Y502661D01*
X1248633Y502707D01*
X1248669Y502753D01*
X1249928Y505794D01*
X1250358Y509057D01*
X1249928Y512320D01*
X1248669Y515361D01*
X1248633Y515407D01*
X1248669Y515453D01*
X1249928Y518494D01*
X1250358Y521757D01*
X1249928Y525020D01*
X1248669Y528061D01*
X1248633Y528107D01*
X1248669Y528153D01*
X1249928Y531194D01*
X1250358Y534457D01*
X1249928Y537720D01*
X1248669Y540761D01*
X1248633Y540807D01*
X1248669Y540853D01*
X1249928Y543894D01*
X1250358Y547157D01*
X1249928Y550420D01*
X1248669Y553461D01*
X1248633Y553507D01*
X1248669Y553553D01*
X1249928Y556594D01*
X1250358Y559857D01*
X1249928Y563120D01*
X1248669Y566161D01*
X1248633Y566207D01*
X1248669Y566253D01*
X1249928Y569294D01*
X1250358Y572557D01*
X1249928Y575820D01*
X1248669Y578861D01*
X1246665Y581472D01*
X1244054Y583476D01*
X1241013Y584735D01*
X1237750Y585165D01*
X1234487Y584735D01*
X1231446Y583476D01*
X1231400Y583440D01*
X1231354Y583476D01*
X1228313Y584735D01*
X1225050Y585165D01*
X1221787Y584735D01*
X1221600Y584658D01*
X1220919Y586304D01*
X1218915Y588915D01*
X1217501Y590000D01*
X1218915Y591085D01*
X1220919Y593696D01*
X1222178Y596737D01*
X1222608Y600000D01*
X1222178Y603263D01*
X1220919Y606304D01*
X1218915Y608915D01*
X1216304Y610919D01*
X1213263Y612178D01*
X1210000Y612608D01*
X1207423Y612268D01*
X1210825Y615175D01*
X1214403Y619364D01*
X1217282Y624061D01*
X1219390Y629151D01*
X1220676Y634508D01*
X1221108Y640000D01*
X1220676Y645492D01*
X1219791Y649177D01*
X1221478Y646978D01*
D02*
G37*
G36*
X970987Y599322D02*
X974250Y598892D01*
X977513Y599322D01*
X979500Y600145D01*
X981487Y599322D01*
X984611Y598910D01*
X984392Y597250D01*
X984822Y593987D01*
X984882Y593840D01*
X984750Y593858D01*
X981487Y593428D01*
X979500Y592605D01*
X977513Y593428D01*
X974250Y593858D01*
X970987Y593428D01*
X968600Y592440D01*
Y593564D01*
Y600310D01*
X970987Y599322D01*
D02*
G37*
G36*
X1032302Y597203D02*
X1035343Y595944D01*
X1038606Y595514D01*
X1041869Y595944D01*
X1043108Y596457D01*
X1043016Y595758D01*
X1043285Y593714D01*
X1041869Y594300D01*
X1038606Y594730D01*
X1035343Y594300D01*
X1032302Y593041D01*
X1029691Y591037D01*
X1027687Y588426D01*
X1026428Y585385D01*
X1025998Y582122D01*
X1026233Y580336D01*
X1020003D01*
X1020058Y580750D01*
X1019628Y584013D01*
X1018369Y587054D01*
X1017897Y587669D01*
X1020000Y587392D01*
X1023263Y587822D01*
X1026304Y589081D01*
X1028915Y591085D01*
X1030919Y593696D01*
X1032178Y596737D01*
X1032245Y597247D01*
X1032302Y597203D01*
D02*
G37*
G36*
X837606Y643585D02*
X841000Y643138D01*
X843570Y643476D01*
X842978Y643022D01*
X840894Y640306D01*
X839584Y637144D01*
X839137Y633750D01*
X839584Y630356D01*
X840894Y627194D01*
X842978Y624478D01*
X845694Y622394D01*
X847850Y621501D01*
Y619350D01*
X838600D01*
Y607792D01*
X837737Y607678D01*
X834696Y606419D01*
X832085Y604415D01*
X830081Y601804D01*
X828822Y598763D01*
X828392Y595500D01*
X828822Y592237D01*
X830081Y589196D01*
X830495Y588657D01*
X830081Y588119D01*
X828822Y585078D01*
X828392Y581815D01*
X828587Y580336D01*
X813963D01*
X814554Y580581D01*
X817165Y582585D01*
X819169Y585196D01*
X819462Y585904D01*
X822304Y587081D01*
X824915Y589085D01*
X826919Y591696D01*
X828178Y594737D01*
X828608Y598000D01*
X828178Y601263D01*
X826919Y604304D01*
X826768Y604500D01*
X826919Y604696D01*
X828178Y607737D01*
X828608Y611000D01*
X828178Y614263D01*
X826919Y617304D01*
X824915Y619915D01*
X823813Y620761D01*
X827279Y623721D01*
X830346Y627312D01*
X832813Y631338D01*
X834620Y635701D01*
X835722Y640293D01*
X836033Y644236D01*
X837606Y643585D01*
D02*
G37*
G36*
X763229Y622728D02*
X765945Y620644D01*
X769107Y619335D01*
X772501Y618888D01*
X775894Y619335D01*
X779057Y620644D01*
X781772Y622728D01*
X783569Y625070D01*
X784721Y623721D01*
X788312Y620654D01*
X792338Y618187D01*
X796701Y616380D01*
X801292Y615278D01*
X801719Y615244D01*
X799335Y613415D01*
X797331Y610804D01*
X796072Y607763D01*
X795642Y604500D01*
X796072Y601237D01*
X797331Y598196D01*
X797482Y598000D01*
X797331Y597804D01*
X796072Y594763D01*
X795642Y591500D01*
X796072Y588237D01*
X797331Y585196D01*
X799335Y582585D01*
X801946Y580581D01*
X802538Y580336D01*
X771281Y580336D01*
X770928Y583013D01*
X769669Y586054D01*
X769413Y586388D01*
X770178Y588237D01*
X770608Y591500D01*
X770178Y594763D01*
X768919Y597804D01*
X768768Y598000D01*
X768919Y598196D01*
X770178Y601237D01*
X770608Y604500D01*
X770178Y607763D01*
X768919Y610804D01*
X766915Y613415D01*
X764304Y615419D01*
X761764Y616471D01*
X761419Y617304D01*
X759415Y619915D01*
X757511Y621377D01*
X759272Y622728D01*
X761251Y625307D01*
X763229Y622728D01*
D02*
G37*
G36*
X1199081Y606304D02*
X1197822Y603263D01*
X1197392Y600000D01*
X1197822Y596737D01*
X1199081Y593696D01*
X1201085Y591085D01*
X1202499Y590000D01*
X1201085Y588915D01*
X1199081Y586304D01*
X1197822Y583263D01*
X1197392Y580000D01*
X1197474Y579375D01*
X1195865Y581472D01*
X1193254Y583476D01*
X1190213Y584735D01*
X1187270Y585123D01*
X1189306Y587603D01*
X1190838Y590470D01*
X1191781Y593580D01*
X1192100Y596814D01*
X1191781Y600049D01*
X1190838Y603159D01*
X1189754Y605187D01*
X1191492Y605324D01*
X1196849Y606610D01*
X1200466Y608108D01*
X1199081Y606304D01*
D02*
G37*
G36*
X1115868Y584331D02*
X1118909Y583072D01*
X1122172Y582642D01*
X1125435Y583072D01*
X1128476Y584331D01*
X1128736Y584530D01*
X1129081Y583696D01*
X1129924Y582598D01*
X1126737Y582178D01*
X1123696Y580919D01*
X1121085Y578915D01*
X1119081Y576304D01*
X1117822Y573263D01*
X1117392Y570000D01*
X1117822Y566737D01*
X1118642Y564757D01*
X1116845Y567688D01*
X1113779Y571279D01*
X1113641Y571396D01*
X1114731Y572816D01*
X1115990Y575857D01*
X1116420Y579120D01*
X1115990Y582383D01*
X1114864Y585101D01*
X1115868Y584331D01*
D02*
G37*
G36*
X1062100Y559235D02*
X1071157D01*
X1071895Y557965D01*
X1070789Y554319D01*
X1070363Y550000D01*
X1070789Y545681D01*
X1072048Y541529D01*
X1074094Y537702D01*
X1076847Y534347D01*
X1080201Y531594D01*
X1084029Y529548D01*
X1088181Y528289D01*
X1092500Y527863D01*
X1096819Y528289D01*
X1100971Y529548D01*
X1101207Y529675D01*
X1102297Y529022D01*
Y110978D01*
X1101207Y110325D01*
X1100971Y110451D01*
X1096819Y111711D01*
X1092500Y112137D01*
X1088181Y111711D01*
X1084029Y110451D01*
X1080201Y108406D01*
X1076847Y105653D01*
X1074094Y102298D01*
X1072048Y98471D01*
X1070789Y94319D01*
X1070363Y90000D01*
X1070789Y85681D01*
X1071971Y81785D01*
X1071362Y80515D01*
X1064600D01*
Y80600D01*
X1055400D01*
Y80515D01*
X1022100D01*
Y80600D01*
X1012900D01*
Y80515D01*
X979600D01*
Y80600D01*
X970400D01*
Y80515D01*
X937100D01*
Y80600D01*
X927900D01*
Y80515D01*
X894600D01*
Y80600D01*
X885400D01*
Y80515D01*
X872265D01*
X872265Y275480D01*
X872265Y276750D01*
X887428Y276750D01*
X888668Y276683D01*
X889871Y275480D01*
Y178940D01*
X888923Y178162D01*
X887401Y177859D01*
X886111Y176997D01*
X885249Y175707D01*
X884946Y174185D01*
X885249Y172664D01*
X886111Y171374D01*
X887401Y170511D01*
X888923Y170209D01*
X889871Y169431D01*
Y125650D01*
X889993Y123160D01*
X890964Y118277D01*
X892870Y113677D01*
X895636Y109536D01*
X899157Y106015D01*
X903297Y103249D01*
X907897Y101344D01*
X912781Y100372D01*
X915271Y100250D01*
X1057600D01*
X1060090Y100372D01*
X1064973Y101343D01*
X1069574Y103249D01*
X1073714Y106015D01*
X1077235Y109536D01*
X1080001Y113676D01*
X1081906Y118277D01*
X1082878Y123160D01*
X1083000Y125650D01*
Y178091D01*
X1084270Y178791D01*
X1085500Y178546D01*
X1087022Y178849D01*
X1088312Y179711D01*
X1089174Y181001D01*
X1089476Y182523D01*
X1089174Y184044D01*
X1088312Y185334D01*
X1087022Y186196D01*
X1085500Y186499D01*
X1084270Y186254D01*
X1083000Y186954D01*
X1083000Y446997D01*
X1084270Y447382D01*
X1084502Y447034D01*
X1085792Y446172D01*
X1087314Y445870D01*
X1088836Y446172D01*
X1090126Y447034D01*
X1090988Y448324D01*
X1091291Y449846D01*
X1090988Y451368D01*
X1090126Y452658D01*
X1089106Y453339D01*
X1088829Y453590D01*
X1088699Y454842D01*
X1089088Y455424D01*
X1089390Y456946D01*
X1089088Y458468D01*
X1088226Y459758D01*
X1086936Y460620D01*
X1085414Y460922D01*
X1084270Y460695D01*
X1083000Y461435D01*
Y463633D01*
X1084270Y464373D01*
X1085414Y464146D01*
X1086936Y464448D01*
X1088226Y465310D01*
X1089088Y466600D01*
X1089390Y468122D01*
X1089088Y469644D01*
X1088226Y470934D01*
X1086936Y471796D01*
X1085414Y472098D01*
X1084270Y471871D01*
X1083000Y472611D01*
Y474555D01*
X1084270Y475295D01*
X1085414Y475068D01*
X1086936Y475370D01*
X1088226Y476232D01*
X1089088Y477522D01*
X1089390Y479044D01*
X1089088Y480566D01*
X1088226Y481856D01*
X1086936Y482718D01*
X1085414Y483020D01*
X1084270Y482793D01*
X1083000Y483533D01*
Y484969D01*
X1084270Y485709D01*
X1085414Y485482D01*
X1086936Y485784D01*
X1088226Y486646D01*
X1089088Y487936D01*
X1089390Y489458D01*
X1089088Y490980D01*
X1088226Y492270D01*
X1086936Y493132D01*
X1085414Y493434D01*
X1084270Y493207D01*
X1083000Y493947D01*
Y514850D01*
X1083000D01*
X1083000Y514850D01*
X1082878Y517340D01*
X1081906Y522223D01*
X1080001Y526824D01*
X1077235Y530964D01*
X1073714Y534485D01*
X1069574Y537251D01*
X1064973Y539156D01*
X1060090Y540128D01*
X1057600Y540250D01*
X1016682Y540250D01*
X1016476Y540500D01*
X1016174Y542022D01*
X1015312Y543312D01*
X1014022Y544174D01*
X1012500Y544476D01*
X1010978Y544174D01*
X1009688Y543312D01*
X1008826Y542022D01*
X1008524Y540500D01*
X1008318Y540250D01*
X1003369D01*
X1002690Y541520D01*
X1002924Y541870D01*
X1003226Y543392D01*
X1002924Y544914D01*
X1002062Y546204D01*
X1000772Y547066D01*
X999250Y547368D01*
X997728Y547066D01*
X996438Y546204D01*
X995576Y544914D01*
X995274Y543392D01*
X995576Y541870D01*
X995810Y541520D01*
X995132Y540250D01*
X993368D01*
X992690Y541520D01*
X992924Y541870D01*
X993226Y543392D01*
X992924Y544914D01*
X992062Y546204D01*
X990772Y547066D01*
X989250Y547368D01*
X987728Y547066D01*
X986438Y546204D01*
X985576Y544914D01*
X985274Y543392D01*
X985576Y541870D01*
X985810Y541520D01*
X985132Y540250D01*
X980182D01*
X979976Y540500D01*
X979674Y542022D01*
X978812Y543312D01*
X977522Y544174D01*
X976000Y544476D01*
X974478Y544174D01*
X973188Y543312D01*
X972326Y542022D01*
X972024Y540500D01*
X971818Y540250D01*
X915400Y540250D01*
X915400Y540250D01*
X912910Y540128D01*
X908027Y539156D01*
X903427Y537251D01*
X899286Y534484D01*
X895766Y530964D01*
X892999Y526824D01*
X891094Y522223D01*
X890122Y517340D01*
X890000Y514850D01*
X890000Y453952D01*
X889360Y453427D01*
X887838Y453124D01*
X886548Y452262D01*
X885686Y450972D01*
X885384Y449450D01*
X885686Y447928D01*
X886548Y446638D01*
X887838Y445776D01*
X889360Y445474D01*
X890000Y444949D01*
X890000Y391656D01*
X889576Y391022D01*
X889274Y389500D01*
X889576Y387978D01*
X890000Y387344D01*
Y381020D01*
X889688Y380812D01*
X888826Y379522D01*
X888524Y378000D01*
X888826Y376478D01*
X889688Y375188D01*
X890000Y374980D01*
Y348770D01*
X889688Y348562D01*
X888826Y347272D01*
X888524Y345750D01*
X888826Y344228D01*
X889688Y342938D01*
X890000Y342730D01*
X890000Y291996D01*
X888730Y291611D01*
X888362Y292162D01*
X887072Y293024D01*
X885550Y293326D01*
X884028Y293024D01*
X882738Y292162D01*
X881876Y290872D01*
X881573Y289350D01*
X881876Y287828D01*
X882738Y286538D01*
X884028Y285676D01*
X885550Y285374D01*
X887072Y285676D01*
X888362Y286538D01*
X888730Y287089D01*
X890000Y286704D01*
Y277966D01*
X889581Y277565D01*
X889547Y277532D01*
X888592Y276750D01*
X888220D01*
X872265D01*
X872265Y278020D01*
X872265Y559235D01*
X879975D01*
Y550250D01*
X880471Y547753D01*
X881886Y545636D01*
X884003Y544221D01*
X886500Y543725D01*
X888349D01*
X889360Y543524D01*
X890371Y543725D01*
X932000D01*
X934497Y544221D01*
X936614Y545636D01*
X938029Y547753D01*
X938525Y550250D01*
Y559235D01*
X941561D01*
X941803Y559335D01*
X950520D01*
X950761Y559235D01*
X978674D01*
X978915Y559335D01*
X987633D01*
X987874Y559235D01*
X1015787D01*
X1016029Y559335D01*
X1024746D01*
X1024987Y559235D01*
X1052900D01*
X1053141Y559335D01*
X1061859D01*
X1062100Y559235D01*
D02*
G37*
G36*
X1152610Y629151D02*
X1154718Y624061D01*
X1157597Y619364D01*
X1161175Y615175D01*
X1165364Y611597D01*
X1166673Y610795D01*
X1166309Y610600D01*
X1163796Y608538D01*
X1161734Y606026D01*
X1160202Y603159D01*
X1159259Y600049D01*
X1158940Y596814D01*
X1159259Y593580D01*
X1160202Y590470D01*
X1161734Y587603D01*
X1163796Y585091D01*
X1166309Y583029D01*
X1166930Y582696D01*
X1165335Y581472D01*
X1163331Y578861D01*
X1162072Y575820D01*
X1161642Y572557D01*
X1162072Y569294D01*
X1163331Y566253D01*
X1163367Y566207D01*
X1163331Y566161D01*
X1162072Y563120D01*
X1161642Y559857D01*
X1162072Y556594D01*
X1163331Y553553D01*
X1163367Y553507D01*
X1163331Y553461D01*
X1162072Y550420D01*
X1161642Y547157D01*
X1162072Y543894D01*
X1163331Y540853D01*
X1163367Y540807D01*
X1163331Y540761D01*
X1162072Y537720D01*
X1161642Y534457D01*
X1162072Y531194D01*
X1163331Y528153D01*
X1163367Y528107D01*
X1163331Y528061D01*
X1162072Y525020D01*
X1161642Y521757D01*
X1162072Y518494D01*
X1163331Y515453D01*
X1163367Y515407D01*
X1163331Y515361D01*
X1162072Y512320D01*
X1161642Y509057D01*
X1162072Y505794D01*
X1163331Y502753D01*
X1163367Y502707D01*
X1163331Y502661D01*
X1162072Y499620D01*
X1161642Y496357D01*
X1162072Y493094D01*
X1163331Y490053D01*
X1163367Y490007D01*
X1163331Y489961D01*
X1162072Y486920D01*
X1161642Y483657D01*
X1162072Y480394D01*
X1163331Y477353D01*
X1163367Y477307D01*
X1163331Y477261D01*
X1162072Y474220D01*
X1161642Y470957D01*
X1162072Y467694D01*
X1163331Y464653D01*
X1163367Y464607D01*
X1163331Y464561D01*
X1162072Y461520D01*
X1161642Y458257D01*
X1162072Y454994D01*
X1163331Y451953D01*
X1163367Y451907D01*
X1163331Y451861D01*
X1162072Y448820D01*
X1161642Y445557D01*
X1162072Y442294D01*
X1163331Y439253D01*
X1163367Y439207D01*
X1163331Y439161D01*
X1162072Y436120D01*
X1161642Y432857D01*
X1162072Y429594D01*
X1163331Y426553D01*
X1163367Y426507D01*
X1163331Y426461D01*
X1162072Y423420D01*
X1161642Y420157D01*
X1162072Y416894D01*
X1163331Y413853D01*
X1163367Y413807D01*
X1163331Y413761D01*
X1162072Y410720D01*
X1161642Y407457D01*
X1162072Y404194D01*
X1163331Y401153D01*
X1163367Y401107D01*
X1163331Y401061D01*
X1162072Y398020D01*
X1161642Y394757D01*
X1162072Y391494D01*
X1163331Y388453D01*
X1163367Y388407D01*
X1163331Y388361D01*
X1162072Y385320D01*
X1161642Y382057D01*
X1162072Y378794D01*
X1163331Y375753D01*
X1163367Y375707D01*
X1163331Y375661D01*
X1162072Y372620D01*
X1161642Y369357D01*
X1162072Y366094D01*
X1163331Y363053D01*
X1163367Y363007D01*
X1163331Y362961D01*
X1162072Y359920D01*
X1161642Y356657D01*
X1162072Y353394D01*
X1163331Y350353D01*
X1163367Y350307D01*
X1163331Y350261D01*
X1162072Y347220D01*
X1161642Y343957D01*
X1162072Y340694D01*
X1163331Y337653D01*
X1163367Y337607D01*
X1163331Y337561D01*
X1162072Y334520D01*
X1161642Y331257D01*
X1162072Y327994D01*
X1163331Y324953D01*
X1163367Y324907D01*
X1163331Y324861D01*
X1162072Y321820D01*
X1161642Y318557D01*
X1162072Y315294D01*
X1163331Y312253D01*
X1163367Y312207D01*
X1163331Y312161D01*
X1162072Y309120D01*
X1161642Y305857D01*
X1162072Y302594D01*
X1163331Y299553D01*
X1163367Y299507D01*
X1163331Y299461D01*
X1162072Y296420D01*
X1161642Y293157D01*
X1162072Y289894D01*
X1163331Y286853D01*
X1163367Y286807D01*
X1163331Y286761D01*
X1162072Y283720D01*
X1161642Y280457D01*
X1162072Y277194D01*
X1163331Y274153D01*
X1163367Y274107D01*
X1163331Y274061D01*
X1162975Y273201D01*
X1160013Y274428D01*
X1156750Y274858D01*
X1153487Y274428D01*
X1150446Y273169D01*
X1147835Y271165D01*
X1145831Y268554D01*
X1144572Y265513D01*
X1144142Y262250D01*
X1144572Y258987D01*
X1145831Y255946D01*
X1147835Y253335D01*
X1150446Y251331D01*
X1153487Y250072D01*
X1156750Y249642D01*
X1160013Y250072D01*
X1162379Y251052D01*
X1163331Y248753D01*
X1163367Y248707D01*
X1163331Y248661D01*
X1162072Y245620D01*
X1161642Y242357D01*
X1161668Y242157D01*
X1161013Y242428D01*
X1157750Y242858D01*
X1154487Y242428D01*
X1153875Y242175D01*
X1153263Y242428D01*
X1150000Y242858D01*
X1146769Y242433D01*
X1146238Y242653D01*
X1142974Y243082D01*
X1139711Y242653D01*
X1139143Y242417D01*
X1138513Y242678D01*
X1135250Y243108D01*
X1131987Y242678D01*
X1128946Y241419D01*
X1126335Y239415D01*
X1124331Y236804D01*
X1124057Y236142D01*
X1122836Y236648D01*
Y244700D01*
X1123763Y244822D01*
X1126804Y246081D01*
X1129415Y248085D01*
X1131419Y250696D01*
X1132678Y253737D01*
X1133108Y257000D01*
X1132678Y260263D01*
X1131419Y263304D01*
X1129415Y265915D01*
X1126804Y267919D01*
X1123763Y269178D01*
X1122836Y269300D01*
Y363755D01*
X1124487Y363072D01*
X1127750Y362642D01*
X1131013Y363072D01*
X1134054Y364331D01*
X1136665Y366335D01*
X1138669Y368946D01*
X1139928Y371987D01*
X1140358Y375250D01*
X1139928Y378513D01*
X1138669Y381554D01*
X1138318Y382011D01*
X1140720Y383854D01*
X1142724Y386465D01*
X1143984Y389506D01*
X1144413Y392769D01*
X1143984Y396032D01*
X1142724Y399073D01*
X1140720Y401684D01*
X1138109Y403688D01*
X1135068Y404948D01*
X1131805Y405377D01*
X1128542Y404948D01*
X1125501Y403688D01*
X1122890Y401684D01*
X1122836Y401614D01*
Y483723D01*
X1124304Y484331D01*
X1126915Y486335D01*
X1128919Y488946D01*
X1130178Y491987D01*
X1130608Y495250D01*
X1130178Y498513D01*
X1128919Y501554D01*
X1126915Y504165D01*
X1124304Y506169D01*
X1122836Y506777D01*
Y544850D01*
Y547352D01*
X1122707Y548332D01*
X1122643Y549319D01*
X1122568Y549692D01*
X1122593Y550000D01*
X1122222Y554708D01*
X1121120Y559299D01*
X1119554Y563080D01*
X1121085Y561085D01*
X1123696Y559081D01*
X1126737Y557822D01*
X1130000Y557392D01*
X1133263Y557822D01*
X1136304Y559081D01*
X1138915Y561085D01*
X1140919Y563696D01*
X1142178Y566737D01*
X1142608Y570000D01*
X1142178Y573263D01*
X1140919Y576304D01*
X1140076Y577402D01*
X1143263Y577822D01*
X1146304Y579081D01*
X1148915Y581085D01*
X1150919Y583696D01*
X1152178Y586737D01*
X1152608Y590000D01*
X1152178Y593263D01*
X1150919Y596304D01*
X1148915Y598915D01*
X1146845Y600503D01*
X1149263Y600822D01*
X1152304Y602081D01*
X1154915Y604085D01*
X1156919Y606696D01*
X1158178Y609737D01*
X1158608Y613000D01*
X1158178Y616263D01*
X1156919Y619304D01*
X1154915Y621915D01*
X1152304Y623919D01*
X1149488Y625085D01*
X1151106Y627194D01*
X1152356Y630211D01*
X1152610Y629151D01*
D02*
G37*
G36*
X552750Y570822D02*
X551529Y570452D01*
X547701Y568406D01*
X544347Y565653D01*
X541594Y562298D01*
X539548Y558471D01*
X538289Y554319D01*
X537863Y550000D01*
X538289Y545681D01*
X538628Y544565D01*
X537536Y543788D01*
X537449Y543851D01*
X536548Y547213D01*
X536034Y551119D01*
Y553088D01*
Y668461D01*
X552750D01*
X552750Y570822D01*
D02*
G37*
G36*
X1201085Y571085D02*
X1203696Y569081D01*
X1206737Y567822D01*
X1210000Y567392D01*
X1213263Y567822D01*
X1213449Y567899D01*
X1214131Y566253D01*
X1214167Y566207D01*
X1214131Y566161D01*
X1212872Y563120D01*
X1212442Y559857D01*
X1212872Y556594D01*
X1214131Y553553D01*
X1214167Y553507D01*
X1214131Y553461D01*
X1212872Y550420D01*
X1212442Y547157D01*
X1212872Y543894D01*
X1214131Y540853D01*
X1214167Y540807D01*
X1214131Y540761D01*
X1212872Y537720D01*
X1212442Y534457D01*
X1212872Y531194D01*
X1214131Y528153D01*
X1214167Y528107D01*
X1214131Y528061D01*
X1212872Y525020D01*
X1212442Y521757D01*
X1212872Y518494D01*
X1214131Y515453D01*
X1214167Y515407D01*
X1214131Y515361D01*
X1212872Y512320D01*
X1212442Y509057D01*
X1212872Y505794D01*
X1214131Y502753D01*
X1216135Y500142D01*
X1218746Y498138D01*
X1221787Y496879D01*
X1225050Y496449D01*
X1225156Y496463D01*
X1225142Y496357D01*
X1225572Y493094D01*
X1226831Y490053D01*
X1226867Y490007D01*
X1226831Y489961D01*
X1225572Y486920D01*
X1225142Y483657D01*
X1225156Y483551D01*
X1225050Y483565D01*
X1221787Y483135D01*
X1218746Y481876D01*
X1216135Y479872D01*
X1214131Y477261D01*
X1212872Y474220D01*
X1212462Y471108D01*
X1212178Y473263D01*
X1210919Y476304D01*
X1208915Y478915D01*
X1206304Y480919D01*
X1203263Y482178D01*
X1200000Y482608D01*
X1199409Y482530D01*
X1199558Y483657D01*
X1199128Y486920D01*
X1198871Y487541D01*
X1200000Y487392D01*
X1203263Y487822D01*
X1206304Y489081D01*
X1208915Y491085D01*
X1210919Y493696D01*
X1212178Y496737D01*
X1212608Y500000D01*
X1212178Y503263D01*
X1210919Y506304D01*
X1208915Y508915D01*
X1206304Y510919D01*
X1203263Y512178D01*
X1200000Y512608D01*
X1199060Y512484D01*
X1197869Y515361D01*
X1195865Y517972D01*
X1193254Y519976D01*
X1190213Y521235D01*
X1186950Y521665D01*
X1186844Y521651D01*
X1186858Y521757D01*
X1186428Y525020D01*
X1185169Y528061D01*
X1185133Y528107D01*
X1185169Y528153D01*
X1186428Y531194D01*
X1186858Y534457D01*
X1186844Y534563D01*
X1186950Y534549D01*
X1190213Y534979D01*
X1193254Y536238D01*
X1195865Y538242D01*
X1197869Y540853D01*
X1199128Y543894D01*
X1199558Y547157D01*
X1199128Y550420D01*
X1197869Y553461D01*
X1197833Y553507D01*
X1197869Y553553D01*
X1199128Y556594D01*
X1199558Y559857D01*
X1199128Y563120D01*
X1197869Y566161D01*
X1197833Y566207D01*
X1197869Y566253D01*
X1199128Y569294D01*
X1199558Y572557D01*
X1199476Y573182D01*
X1201085Y571085D01*
D02*
G37*
G36*
X990441Y530598D02*
X990604Y530571D01*
X990758Y530507D01*
X991901Y530357D01*
X992466Y530264D01*
X990131Y529956D01*
X987090Y528697D01*
X984479Y526693D01*
X982475Y524082D01*
X981838Y522543D01*
X981419Y523554D01*
X979415Y526165D01*
X976994Y528023D01*
X979263Y528322D01*
X982304Y529581D01*
X983063Y530164D01*
X985132D01*
X985296Y530185D01*
X985462Y530169D01*
X986600Y530357D01*
X987742Y530507D01*
X987895Y530571D01*
X988059Y530598D01*
X988646Y530864D01*
X989250Y530784D01*
X989854Y530864D01*
X990441Y530598D01*
D02*
G37*
G36*
X829319Y557715D02*
X828289Y554319D01*
X827863Y550000D01*
X828289Y545681D01*
X829548Y541529D01*
X831594Y537702D01*
X834347Y534347D01*
X837702Y531594D01*
X841529Y529548D01*
X845681Y528289D01*
X850000Y527863D01*
X854319Y528289D01*
X857525Y529262D01*
X858795Y528320D01*
Y396680D01*
X857525Y395738D01*
X854319Y396711D01*
X850000Y397137D01*
X845681Y396711D01*
X841529Y395452D01*
X837702Y393406D01*
X834347Y390653D01*
X831594Y387298D01*
X829548Y383471D01*
X828289Y379319D01*
X827863Y375000D01*
X828289Y370681D01*
X829548Y366529D01*
X831594Y362702D01*
X834347Y359347D01*
X837702Y356594D01*
X841529Y354548D01*
X845681Y353289D01*
X850000Y352863D01*
X854319Y353289D01*
X857525Y354262D01*
X858795Y353320D01*
Y246680D01*
X857525Y245739D01*
X854319Y246711D01*
X850000Y247137D01*
X845681Y246711D01*
X841529Y245452D01*
X837702Y243406D01*
X834347Y240653D01*
X831594Y237298D01*
X829548Y233471D01*
X828289Y229319D01*
X827863Y225000D01*
X828289Y220681D01*
X829548Y216529D01*
X831594Y212702D01*
X834347Y209347D01*
X837702Y206594D01*
X841529Y204548D01*
X845681Y203289D01*
X850000Y202863D01*
X854319Y203289D01*
X857525Y204261D01*
X858795Y203320D01*
Y111680D01*
X857525Y110738D01*
X854319Y111711D01*
X850000Y112137D01*
X845681Y111711D01*
X841529Y110451D01*
X837702Y108406D01*
X834347Y105653D01*
X831594Y102298D01*
X829548Y98471D01*
X828289Y94319D01*
X827863Y90000D01*
X828289Y85681D01*
X829395Y82035D01*
X828657Y80765D01*
X716343D01*
X715605Y82035D01*
X716711Y85681D01*
X717137Y90000D01*
X716711Y94319D01*
X715452Y98471D01*
X713406Y102298D01*
X710653Y105653D01*
X707298Y108406D01*
X703471Y110451D01*
X699319Y111711D01*
X695000Y112137D01*
X690681Y111711D01*
X686529Y110451D01*
X682702Y108406D01*
X679347Y105653D01*
X676594Y102298D01*
X674548Y98471D01*
X673289Y94319D01*
X672863Y90000D01*
X673289Y85681D01*
X674395Y82035D01*
X673657Y80765D01*
X560000D01*
X558928Y80322D01*
X558899Y80250D01*
X552750D01*
X552750Y-17461D01*
X535784D01*
Y84246D01*
Y86455D01*
X536361Y90837D01*
X537505Y95106D01*
X539196Y99190D01*
X541406Y103017D01*
X544096Y106523D01*
X547222Y109649D01*
X550728Y112339D01*
X554556Y114549D01*
X558639Y116240D01*
X562908Y117384D01*
X567290Y117961D01*
X794995D01*
X795029Y117968D01*
X795062Y117962D01*
X796959Y118024D01*
X797057Y118047D01*
X797158Y118041D01*
X800919Y118536D01*
X801047Y118579D01*
X801181Y118588D01*
X804845Y119569D01*
X804966Y119629D01*
X805097Y119655D01*
X808602Y121107D01*
X808714Y121181D01*
X808841Y121225D01*
X812126Y123121D01*
X812227Y123210D01*
X812348Y123270D01*
X815358Y125579D01*
X815446Y125680D01*
X815558Y125755D01*
X818240Y128437D01*
X818315Y128549D01*
X818416Y128638D01*
X820725Y131647D01*
X820785Y131768D01*
X820874Y131869D01*
X822770Y135154D01*
X822813Y135281D01*
X822888Y135393D01*
X824340Y138898D01*
X824366Y139030D01*
X824426Y139150D01*
X825407Y142814D01*
X825416Y142949D01*
X825460Y143076D01*
X825955Y146837D01*
X825948Y146938D01*
X825971Y147036D01*
X826033Y148933D01*
X826028Y148966D01*
X826034Y149000D01*
X826034Y490503D01*
X826028Y490536D01*
X826033Y490569D01*
X825968Y492564D01*
X825945Y492663D01*
X825951Y492763D01*
X825431Y496718D01*
X825387Y496846D01*
X825379Y496980D01*
X824346Y500833D01*
X824287Y500954D01*
X824260Y501086D01*
X822734Y504772D01*
X822659Y504883D01*
X822616Y505011D01*
X820621Y508466D01*
X820533Y508567D01*
X820473Y508687D01*
X818045Y511852D01*
X817943Y511941D01*
X817869Y512053D01*
X815048Y514874D01*
X814936Y514948D01*
X814847Y515050D01*
X811683Y517478D01*
X811562Y517537D01*
X811461Y517626D01*
X808006Y519621D01*
X807878Y519664D01*
X807767Y519739D01*
X804081Y521265D01*
X803949Y521292D01*
X803829Y521351D01*
X799975Y522384D01*
X799841Y522392D01*
X799714Y522436D01*
X795759Y522956D01*
X795658Y522950D01*
X795559Y522973D01*
X793565Y523038D01*
X793531Y523032D01*
X793498Y523039D01*
X782755D01*
X782370Y524309D01*
X783312Y524938D01*
X784174Y526228D01*
X784476Y527750D01*
X784174Y529272D01*
X783312Y530562D01*
X782022Y531424D01*
X780500Y531726D01*
X778978Y531424D01*
X777688Y530562D01*
X776826Y529272D01*
X776524Y527750D01*
X776826Y526228D01*
X777688Y524938D01*
X778630Y524309D01*
X778245Y523039D01*
X762755D01*
X762370Y524309D01*
X763312Y524938D01*
X764174Y526228D01*
X764476Y527750D01*
X764174Y529272D01*
X763312Y530562D01*
X762022Y531424D01*
X760500Y531726D01*
X758978Y531424D01*
X757688Y530562D01*
X756826Y529272D01*
X756524Y527750D01*
X756826Y526228D01*
X757688Y524938D01*
X758630Y524309D01*
X758245Y523039D01*
X742755D01*
X742370Y524309D01*
X743312Y524938D01*
X744174Y526228D01*
X744476Y527750D01*
X744174Y529272D01*
X743312Y530562D01*
X742022Y531424D01*
X740500Y531726D01*
X738978Y531424D01*
X737688Y530562D01*
X736826Y529272D01*
X736524Y527750D01*
X736826Y526228D01*
X737688Y524938D01*
X738630Y524309D01*
X738245Y523039D01*
X722755D01*
X722370Y524309D01*
X723312Y524938D01*
X724174Y526228D01*
X724476Y527750D01*
X724174Y529272D01*
X723312Y530562D01*
X722022Y531424D01*
X720500Y531726D01*
X718978Y531424D01*
X717688Y530562D01*
X716826Y529272D01*
X716524Y527750D01*
X716826Y526228D01*
X717688Y524938D01*
X718630Y524309D01*
X718245Y523039D01*
X702755D01*
X702370Y524309D01*
X703312Y524938D01*
X704174Y526228D01*
X704476Y527750D01*
X704174Y529272D01*
X703312Y530562D01*
X702022Y531424D01*
X700500Y531726D01*
X698978Y531424D01*
X697688Y530562D01*
X696826Y529272D01*
X696524Y527750D01*
X696826Y526228D01*
X697688Y524938D01*
X698630Y524309D01*
X698245Y523039D01*
X682755D01*
X682370Y524309D01*
X683312Y524938D01*
X684174Y526228D01*
X684476Y527750D01*
X684174Y529272D01*
X683312Y530562D01*
X682022Y531424D01*
X680500Y531726D01*
X678978Y531424D01*
X677688Y530562D01*
X676826Y529272D01*
X676524Y527750D01*
X676826Y526228D01*
X677688Y524938D01*
X678630Y524309D01*
X678245Y523039D01*
X662755D01*
X662370Y524309D01*
X663312Y524938D01*
X664174Y526228D01*
X664476Y527750D01*
X664174Y529272D01*
X663312Y530562D01*
X662022Y531424D01*
X660500Y531726D01*
X658978Y531424D01*
X657688Y530562D01*
X656826Y529272D01*
X656524Y527750D01*
X656826Y526228D01*
X657688Y524938D01*
X658630Y524309D01*
X658245Y523039D01*
X642755D01*
X642370Y524309D01*
X643312Y524938D01*
X644174Y526228D01*
X644476Y527750D01*
X644174Y529272D01*
X643312Y530562D01*
X642022Y531424D01*
X640500Y531726D01*
X638978Y531424D01*
X637688Y530562D01*
X636826Y529272D01*
X636524Y527750D01*
X636826Y526228D01*
X637688Y524938D01*
X638630Y524309D01*
X638245Y523039D01*
X623005D01*
X622620Y524309D01*
X623562Y524938D01*
X624424Y526228D01*
X624726Y527750D01*
X624424Y529272D01*
X623562Y530562D01*
X622272Y531424D01*
X620750Y531726D01*
X619228Y531424D01*
X617938Y530562D01*
X617076Y529272D01*
X616774Y527750D01*
X617076Y526228D01*
X617938Y524938D01*
X618880Y524309D01*
X618495Y523039D01*
X603130D01*
X602744Y524309D01*
X603312Y524688D01*
X604174Y525978D01*
X604476Y527500D01*
X604174Y529022D01*
X603312Y530312D01*
X602022Y531174D01*
X600500Y531476D01*
X598978Y531174D01*
X597688Y530312D01*
X596826Y529022D01*
X596524Y527500D01*
X596826Y525978D01*
X597688Y524688D01*
X598256Y524309D01*
X597870Y523039D01*
X564114D01*
X560208Y523553D01*
X556404Y524573D01*
X552764Y526080D01*
X549353Y528050D01*
X546228Y530448D01*
X543443Y533233D01*
X541792Y535383D01*
X541802Y535446D01*
X543145Y535812D01*
X544347Y534347D01*
X547701Y531594D01*
X551529Y529548D01*
X555681Y528289D01*
X560000Y527863D01*
X564319Y528289D01*
X568471Y529548D01*
X572298Y531594D01*
X575653Y534347D01*
X578406Y537702D01*
X580452Y541529D01*
X581711Y545681D01*
X582137Y550000D01*
X581711Y554319D01*
X580681Y557715D01*
X581548Y558985D01*
X828452D01*
X829319Y557715D01*
D02*
G37*
G36*
X928776Y530164D02*
X928560Y528527D01*
X927696Y528169D01*
X926256Y527064D01*
X923869Y528052D01*
X920606Y528482D01*
X917343Y528052D01*
X916106Y527540D01*
X914869Y528052D01*
X911606Y528482D01*
X908343Y528052D01*
X906954Y527477D01*
X908204Y528312D01*
X910969Y529458D01*
X914148Y530090D01*
X915649Y530164D01*
X928776D01*
D02*
G37*
G36*
X1324478Y529478D02*
X1327056Y527500D01*
X1324478Y525522D01*
X1322395Y522806D01*
X1321085Y519644D01*
X1320638Y516250D01*
X1321085Y512856D01*
X1322395Y509694D01*
X1324478Y506978D01*
X1327194Y504894D01*
X1330356Y503585D01*
X1333750Y503138D01*
X1334903Y503290D01*
X1331338Y501813D01*
X1327312Y499346D01*
X1323721Y496279D01*
X1320654Y492688D01*
X1320377Y492236D01*
X1318685Y493535D01*
X1319108Y496750D01*
X1318678Y500013D01*
X1317419Y503054D01*
X1315415Y505665D01*
X1314202Y506596D01*
X1315165Y507335D01*
X1317169Y509946D01*
X1318428Y512987D01*
X1318858Y516250D01*
X1318428Y519513D01*
X1318277Y519879D01*
X1320825Y521835D01*
X1322829Y524446D01*
X1324088Y527487D01*
X1324369Y529620D01*
X1324478Y529478D01*
D02*
G37*
G36*
X900687Y509570D02*
X902691Y506959D01*
X905302Y504955D01*
X908343Y503696D01*
X911606Y503266D01*
X914869Y503696D01*
X916106Y504208D01*
X917343Y503696D01*
X919799Y503372D01*
X918822Y501013D01*
X918392Y497750D01*
X918822Y494487D01*
X920081Y491446D01*
X921606Y489459D01*
X919144Y488439D01*
X916533Y486435D01*
X914529Y483824D01*
X913270Y480783D01*
X912840Y477520D01*
X913270Y474257D01*
X914529Y471216D01*
X916533Y468605D01*
X919144Y466601D01*
X922185Y465342D01*
X925448Y464912D01*
X928711Y465342D01*
X930148Y465937D01*
X931585Y465342D01*
X934848Y464912D01*
X938111Y465342D01*
X940933Y466510D01*
X943141Y465596D01*
X946404Y465166D01*
X949667Y465596D01*
X949950Y465713D01*
X948932Y463255D01*
X946250Y463608D01*
X942987Y463178D01*
X939946Y461919D01*
X937335Y459915D01*
X935331Y457304D01*
X934072Y454263D01*
X933642Y451000D01*
X934072Y447737D01*
X934374Y447007D01*
X934322Y446880D01*
X933892Y443617D01*
X934322Y440354D01*
X935581Y437313D01*
X935777Y437058D01*
X935581Y436804D01*
X934322Y433763D01*
X933892Y430500D01*
X934322Y427237D01*
X934523Y426750D01*
X934322Y426263D01*
X933892Y423000D01*
X934322Y419737D01*
X935581Y416696D01*
X937585Y414085D01*
X939689Y412470D01*
X939322Y411584D01*
X938892Y408321D01*
X939322Y405057D01*
X940581Y402017D01*
X941883Y400321D01*
X940581Y398625D01*
X940080Y397415D01*
X939919Y397804D01*
X937915Y400415D01*
X935304Y402419D01*
X933703Y403082D01*
X932464Y406073D01*
X930460Y408685D01*
X927849Y410688D01*
X927034Y411026D01*
X926919Y411304D01*
X924915Y413915D01*
X922304Y415919D01*
X919263Y417178D01*
X916000Y417608D01*
X912737Y417178D01*
X909696Y415919D01*
X907085Y413915D01*
X905081Y411304D01*
X903941Y408550D01*
X903500Y408608D01*
X901034Y408283D01*
X900086Y409010D01*
Y417495D01*
X900279Y417746D01*
X901538Y420787D01*
X901968Y424050D01*
X901538Y427313D01*
X900279Y430354D01*
X900243Y430400D01*
X900279Y430446D01*
X901538Y433487D01*
X901968Y436750D01*
X901538Y440013D01*
X900279Y443054D01*
X900243Y443100D01*
X900279Y443146D01*
X901538Y446187D01*
X901968Y449450D01*
X901538Y452713D01*
X900279Y455754D01*
X900086Y456005D01*
Y469893D01*
X900598Y470105D01*
X903209Y472108D01*
X905212Y474720D01*
X906472Y477760D01*
X906901Y481023D01*
X906472Y484287D01*
X905212Y487327D01*
X903209Y489939D01*
X900598Y491942D01*
X900086Y492154D01*
Y510945D01*
X900107Y510972D01*
X900687Y509570D01*
D02*
G37*
G36*
X1202005Y443853D02*
X1205046Y442594D01*
X1208309Y442164D01*
X1211572Y442594D01*
X1212767Y443089D01*
X1212872Y442294D01*
X1214131Y439253D01*
X1216135Y436642D01*
X1218746Y434638D01*
X1221787Y433379D01*
X1225050Y432949D01*
X1225156Y432963D01*
X1225142Y432857D01*
X1225156Y432751D01*
X1225050Y432765D01*
X1221787Y432335D01*
X1218746Y431076D01*
X1216135Y429072D01*
X1214131Y426461D01*
X1212872Y423420D01*
X1212442Y420157D01*
X1212872Y416894D01*
X1214131Y413853D01*
X1214167Y413807D01*
X1214131Y413761D01*
X1212872Y410720D01*
X1212442Y407457D01*
X1212872Y404194D01*
X1214131Y401153D01*
X1214167Y401107D01*
X1214131Y401061D01*
X1212872Y398020D01*
X1212442Y394757D01*
X1212872Y391494D01*
X1214131Y388453D01*
X1214167Y388407D01*
X1214131Y388361D01*
X1212872Y385320D01*
X1212442Y382057D01*
X1212872Y378794D01*
X1214131Y375753D01*
X1214167Y375707D01*
X1214131Y375661D01*
X1212872Y372620D01*
X1212442Y369357D01*
X1212872Y366094D01*
X1214131Y363053D01*
X1214167Y363007D01*
X1214131Y362961D01*
X1212872Y359920D01*
X1212442Y356657D01*
X1212872Y353394D01*
X1214131Y350353D01*
X1214167Y350307D01*
X1214131Y350261D01*
X1212872Y347220D01*
X1212442Y343957D01*
X1212872Y340694D01*
X1214131Y337653D01*
X1216135Y335042D01*
X1218746Y333038D01*
X1221787Y331779D01*
X1225050Y331349D01*
X1225156Y331363D01*
X1225142Y331257D01*
X1225156Y331151D01*
X1225050Y331165D01*
X1221787Y330735D01*
X1218746Y329476D01*
X1216135Y327472D01*
X1214131Y324861D01*
X1212872Y321820D01*
X1212442Y318557D01*
X1212872Y315294D01*
X1214131Y312253D01*
X1214167Y312207D01*
X1214131Y312161D01*
X1212872Y309120D01*
X1212442Y305857D01*
X1212872Y302594D01*
X1214131Y299553D01*
X1214167Y299507D01*
X1214131Y299461D01*
X1212872Y296420D01*
X1212673Y294914D01*
X1211415Y296554D01*
X1208804Y298558D01*
X1205763Y299817D01*
X1202500Y300247D01*
X1199237Y299817D01*
X1197943Y299281D01*
X1197869Y299461D01*
X1197833Y299507D01*
X1197869Y299553D01*
X1199128Y302594D01*
X1199558Y305857D01*
X1199128Y309120D01*
X1197869Y312161D01*
X1197833Y312207D01*
X1197869Y312253D01*
X1199128Y315294D01*
X1199558Y318557D01*
X1199128Y321820D01*
X1197869Y324861D01*
X1197833Y324907D01*
X1197869Y324953D01*
X1199128Y327994D01*
X1199558Y331257D01*
X1199128Y334520D01*
X1197869Y337561D01*
X1197833Y337607D01*
X1197869Y337653D01*
X1199128Y340694D01*
X1199558Y343957D01*
X1199128Y347220D01*
X1197869Y350261D01*
X1197833Y350307D01*
X1197869Y350353D01*
X1199128Y353394D01*
X1199558Y356657D01*
X1199128Y359920D01*
X1197869Y362961D01*
X1197833Y363007D01*
X1197869Y363053D01*
X1199128Y366094D01*
X1199558Y369357D01*
X1199128Y372620D01*
X1197869Y375661D01*
X1197833Y375707D01*
X1197869Y375753D01*
X1199128Y378794D01*
X1199558Y382057D01*
X1199128Y385320D01*
X1197869Y388361D01*
X1197833Y388407D01*
X1197869Y388453D01*
X1199128Y391494D01*
X1199558Y394757D01*
X1199128Y398020D01*
X1197869Y401061D01*
X1197833Y401107D01*
X1197869Y401153D01*
X1199128Y404194D01*
X1199558Y407457D01*
X1199128Y410720D01*
X1197869Y413761D01*
X1197833Y413807D01*
X1197869Y413853D01*
X1199128Y416894D01*
X1199558Y420157D01*
X1199128Y423420D01*
X1197869Y426461D01*
X1197833Y426507D01*
X1197869Y426553D01*
X1199128Y429594D01*
X1199558Y432857D01*
X1199128Y436120D01*
X1197869Y439161D01*
X1197833Y439207D01*
X1197869Y439253D01*
X1199128Y442294D01*
X1199558Y445557D01*
X1199532Y445751D01*
X1202005Y443853D01*
D02*
G37*
G36*
X1013378Y470157D02*
X1016419Y468898D01*
X1019682Y468468D01*
X1022945Y468898D01*
X1024382Y469493D01*
X1025819Y468898D01*
X1029082Y468468D01*
X1032345Y468898D01*
X1033897Y469541D01*
X1036237Y468572D01*
X1039500Y468142D01*
X1042512Y468539D01*
X1042218Y467829D01*
X1041788Y464566D01*
X1042218Y461303D01*
X1043158Y459032D01*
X1042322Y457013D01*
X1041892Y453750D01*
X1042322Y450487D01*
X1042938Y449000D01*
X1042322Y447513D01*
X1041892Y444250D01*
X1042322Y440987D01*
X1043581Y437946D01*
X1045585Y435335D01*
X1048196Y433331D01*
X1051237Y432072D01*
X1054500Y431642D01*
X1057763Y432072D01*
X1060804Y433331D01*
X1062500Y434633D01*
X1064196Y433331D01*
X1067237Y432072D01*
X1070500Y431642D01*
X1072914Y431960D01*
Y402167D01*
X1072737Y403513D01*
X1071477Y406554D01*
X1069473Y409165D01*
X1066862Y411169D01*
X1063821Y412428D01*
X1060558Y412858D01*
X1057295Y412428D01*
X1054254Y411169D01*
X1051643Y409165D01*
X1050677Y407906D01*
X1048355Y409688D01*
X1045314Y410948D01*
X1042051Y411377D01*
X1038788Y410948D01*
X1035747Y409688D01*
X1033136Y407685D01*
X1031132Y405073D01*
X1029873Y402033D01*
X1029443Y398769D01*
X1029729Y396600D01*
X1012768D01*
X1012928Y396987D01*
X1013358Y400250D01*
X1012928Y403513D01*
X1011669Y406554D01*
X1009665Y409165D01*
X1007054Y411169D01*
X1004013Y412428D01*
X1000750Y412858D01*
X997520Y412433D01*
X994513Y413678D01*
X992043Y414003D01*
X991919Y414304D01*
X989915Y416915D01*
X987304Y418919D01*
X984263Y420178D01*
X981000Y420608D01*
X977737Y420178D01*
X976300Y419583D01*
X974863Y420178D01*
X971600Y420608D01*
X968337Y420178D01*
X965296Y418919D01*
X962685Y416915D01*
X961673Y415597D01*
X960415Y417236D01*
X958311Y418850D01*
X958678Y419737D01*
X959108Y423000D01*
X958678Y426263D01*
X958477Y426750D01*
X958678Y427237D01*
X959108Y430500D01*
X958678Y433763D01*
X957419Y436804D01*
X957223Y437058D01*
X957419Y437313D01*
X958678Y440354D01*
X959108Y443617D01*
X958678Y446880D01*
X958569Y447143D01*
X960884Y446838D01*
X964147Y447268D01*
X964265Y447317D01*
X964572Y444987D01*
X965188Y443500D01*
X964572Y442013D01*
X964142Y438750D01*
X964572Y435487D01*
X965831Y432446D01*
X967835Y429835D01*
X970446Y427831D01*
X973487Y426572D01*
X976750Y426142D01*
X980013Y426572D01*
X983054Y427831D01*
X984750Y429133D01*
X986446Y427831D01*
X989487Y426572D01*
X992750Y426142D01*
X996013Y426572D01*
X999054Y427831D01*
X1001665Y429835D01*
X1003669Y432446D01*
X1004928Y435487D01*
X1005358Y438750D01*
X1004928Y442013D01*
X1004312Y443500D01*
X1004928Y444987D01*
X1005023Y445706D01*
X1005798Y446027D01*
X1008409Y448031D01*
X1010413Y450642D01*
X1011672Y453683D01*
X1012102Y456946D01*
X1011672Y460209D01*
X1010832Y462238D01*
X1011672Y464266D01*
X1012102Y467529D01*
X1011672Y470793D01*
X1011263Y471780D01*
X1013378Y470157D01*
D02*
G37*
G36*
X1072914Y350028D02*
X1072604D01*
X1072178Y353263D01*
X1070919Y356304D01*
X1068915Y358915D01*
X1066304Y360919D01*
X1063263Y362178D01*
X1060000Y362608D01*
X1056737Y362178D01*
X1053696Y360919D01*
X1051085Y358915D01*
X1049081Y356304D01*
X1047932Y353530D01*
X1046032Y354317D01*
X1046206Y354737D01*
X1046636Y358000D01*
X1046206Y361263D01*
X1045901Y362000D01*
X1046206Y362737D01*
X1046548Y365333D01*
X1048355Y366081D01*
X1050966Y368085D01*
X1052970Y370696D01*
X1054229Y373737D01*
X1054659Y377000D01*
X1054229Y380263D01*
X1052970Y383304D01*
X1050966Y385915D01*
X1048399Y387885D01*
X1050966Y389854D01*
X1051932Y391113D01*
X1054254Y389331D01*
X1057295Y388072D01*
X1060558Y387642D01*
X1063821Y388072D01*
X1066862Y389331D01*
X1069473Y391335D01*
X1071477Y393946D01*
X1072737Y396987D01*
X1072914Y398333D01*
X1072914Y350028D01*
D02*
G37*
G36*
X1031132Y392466D02*
X1033136Y389854D01*
X1035703Y387885D01*
X1033136Y385915D01*
X1031132Y383304D01*
X1030100Y380812D01*
Y394957D01*
X1031132Y392466D01*
D02*
G37*
G36*
X933150Y361400D02*
X933906D01*
X933850Y361263D01*
X933569Y359128D01*
X929453D01*
X929204Y359319D01*
X926163Y360578D01*
X922900Y361008D01*
X919637Y360578D01*
X916596Y359319D01*
X913985Y357315D01*
X912309Y355131D01*
X910304Y356669D01*
X907263Y357928D01*
X904000Y358358D01*
X900737Y357928D01*
X900086Y357659D01*
Y366402D01*
X901487Y365822D01*
X904750Y365392D01*
X908013Y365822D01*
X910000Y366645D01*
X911987Y365822D01*
X915250Y365392D01*
X918513Y365822D01*
X921554Y367081D01*
X924165Y369085D01*
X926169Y371696D01*
X927428Y374737D01*
X927858Y378000D01*
X927718Y379061D01*
X929000Y378892D01*
X932263Y379322D01*
X933150Y379689D01*
Y361400D01*
D02*
G37*
G36*
X921696Y331331D02*
X924150Y330315D01*
Y323928D01*
X933693D01*
X933850Y322737D01*
X934155Y322000D01*
X933850Y321263D01*
X933420Y318000D01*
X933850Y314737D01*
X934155Y314000D01*
X933850Y313263D01*
X933420Y310000D01*
X933850Y306737D01*
X934155Y306000D01*
X933990Y305601D01*
X933750Y305633D01*
X930829Y305248D01*
X929304Y306419D01*
X926263Y307678D01*
X923000Y308108D01*
X919737Y307678D01*
X916696Y306419D01*
X914085Y304415D01*
X912085Y301808D01*
X910950Y301958D01*
X907687Y301528D01*
X904646Y300269D01*
X904600Y300233D01*
X904554Y300269D01*
X901513Y301528D01*
X900086Y301716D01*
Y308784D01*
X901513Y308972D01*
X904554Y310231D01*
X907165Y312235D01*
X909169Y314846D01*
X910428Y317887D01*
X910858Y321150D01*
X910428Y324413D01*
X909169Y327454D01*
X907269Y329930D01*
X908737Y329322D01*
X912000Y328892D01*
X915263Y329322D01*
X918304Y330581D01*
X920489Y332258D01*
X921696Y331331D01*
D02*
G37*
G36*
X924835Y282915D02*
X922831Y280304D01*
X921920Y278105D01*
X920000Y278358D01*
X916737Y277928D01*
X913696Y276669D01*
X911085Y274665D01*
X909081Y272054D01*
X907822Y269013D01*
X907392Y265750D01*
X907602Y264155D01*
X906326Y263176D01*
X904804Y264343D01*
X904858Y264750D01*
X904428Y268013D01*
X903169Y271054D01*
X901165Y273665D01*
X899957Y274592D01*
Y275480D01*
Y275480D01*
Y275480D01*
X899858Y276232D01*
X899900Y276554D01*
X899964Y276968D01*
X901513Y277172D01*
X904554Y278431D01*
X904600Y278467D01*
X904646Y278431D01*
X907687Y277172D01*
X910950Y276742D01*
X914213Y277172D01*
X917254Y278431D01*
X919865Y280435D01*
X921865Y283041D01*
X923000Y282892D01*
X925179Y283179D01*
X924835Y282915D01*
D02*
G37*
G36*
X1206331Y274054D02*
X1205072Y271013D01*
X1204642Y267750D01*
X1204736Y267039D01*
X1204446Y266919D01*
X1201835Y264915D01*
X1199831Y262304D01*
X1198655Y259464D01*
X1197869Y261361D01*
X1197833Y261407D01*
X1197869Y261453D01*
X1199128Y264494D01*
X1199558Y267757D01*
X1199128Y271020D01*
X1197869Y274061D01*
X1197833Y274107D01*
X1197869Y274153D01*
X1198531Y275753D01*
X1199237Y275461D01*
X1202500Y275031D01*
X1205763Y275461D01*
X1208178Y276461D01*
X1206331Y274054D01*
D02*
G37*
G36*
X1059072Y269263D02*
X1058642Y266000D01*
X1059072Y262737D01*
X1060331Y259696D01*
X1062335Y257085D01*
X1064946Y255081D01*
X1067184Y254154D01*
X1067581Y253196D01*
X1069585Y250585D01*
X1072196Y248581D01*
X1072914Y248284D01*
Y186954D01*
X1072927Y186852D01*
X1072916Y186750D01*
X1073099Y185548D01*
X1073195Y184820D01*
X1072892Y182523D01*
X1073195Y180225D01*
X1073099Y179497D01*
X1072916Y178295D01*
X1072927Y178193D01*
X1072914Y178091D01*
Y151397D01*
X1072831Y150772D01*
X1072914Y150148D01*
Y149441D01*
X1070446Y148419D01*
X1067835Y146415D01*
X1065831Y143804D01*
X1064572Y140763D01*
X1064142Y137500D01*
X1064572Y134237D01*
X1065831Y131196D01*
X1067835Y128585D01*
X1070446Y126581D01*
X1072897Y125566D01*
X1072840Y124398D01*
X1072208Y121219D01*
X1071063Y118454D01*
X1069400Y115966D01*
X1067284Y113850D01*
X1064796Y112187D01*
X1062031Y111042D01*
X1058852Y110410D01*
X1057980Y110367D01*
X1058915Y111085D01*
X1060919Y113696D01*
X1062178Y116737D01*
X1062608Y120000D01*
X1062178Y123263D01*
X1060919Y126304D01*
X1058915Y128915D01*
X1056304Y130919D01*
X1053263Y132178D01*
X1050000Y132608D01*
X1046737Y132178D01*
X1043696Y130919D01*
X1041085Y128915D01*
X1039081Y126304D01*
X1037822Y123263D01*
X1037392Y120000D01*
X1037822Y116737D01*
X1039081Y113696D01*
X1041085Y111085D01*
X1042060Y110336D01*
X977063D01*
X976304Y110919D01*
X973263Y112178D01*
X970000Y112608D01*
X966737Y112178D01*
X963696Y110919D01*
X962937Y110336D01*
X937063D01*
X936304Y110919D01*
X933263Y112178D01*
X930000Y112608D01*
X926737Y112178D01*
X923696Y110919D01*
X922937Y110336D01*
X915518D01*
X914019Y110410D01*
X910839Y111042D01*
X908075Y112188D01*
X905587Y113850D01*
X903471Y115966D01*
X901808Y118454D01*
X900663Y121219D01*
X900324Y122921D01*
X900919Y123696D01*
X902178Y126737D01*
X902608Y130000D01*
X902178Y133263D01*
X900919Y136304D01*
X899957Y137557D01*
Y138161D01*
X901101Y140922D01*
X901530Y144185D01*
X901101Y147448D01*
X899957Y150210D01*
Y168161D01*
X901101Y170922D01*
X901530Y174185D01*
X901101Y177448D01*
X899957Y180210D01*
Y197600D01*
X899981Y197581D01*
X903022Y196322D01*
X906285Y195892D01*
X909548Y196322D01*
X912589Y197581D01*
X915200Y199585D01*
X917204Y202196D01*
X917634Y203234D01*
X918581Y200946D01*
X920585Y198335D01*
X923196Y196331D01*
X923944Y196021D01*
X923696Y195919D01*
X921085Y193915D01*
X919081Y191304D01*
X917822Y188263D01*
X917392Y185000D01*
X917822Y181737D01*
X919081Y178696D01*
X921085Y176085D01*
X923696Y174081D01*
X926737Y172822D01*
X929181Y172500D01*
X926737Y172178D01*
X923696Y170919D01*
X921085Y168915D01*
X919081Y166304D01*
X917822Y163263D01*
X917392Y160000D01*
X917822Y156737D01*
X919081Y153696D01*
X921085Y151085D01*
X923696Y149081D01*
X926737Y147822D01*
X930000Y147392D01*
X933263Y147822D01*
X936304Y149081D01*
X938915Y151085D01*
X940919Y153696D01*
X942178Y156737D01*
X942608Y160000D01*
X942178Y163263D01*
X940919Y166304D01*
X938915Y168915D01*
X936304Y170919D01*
X933263Y172178D01*
X930819Y172500D01*
X933263Y172822D01*
X936304Y174081D01*
X938915Y176085D01*
X940919Y178696D01*
X942178Y181737D01*
X942608Y185000D01*
X942178Y188263D01*
X940919Y191304D01*
X938915Y193915D01*
X936304Y195919D01*
X935556Y196229D01*
X935804Y196331D01*
X938415Y198335D01*
X940419Y200946D01*
X941678Y203987D01*
X942108Y207250D01*
X941678Y210513D01*
X940419Y213554D01*
X938415Y216165D01*
X935804Y218169D01*
X933139Y219272D01*
X933513Y219322D01*
X936554Y220581D01*
X939165Y222585D01*
X941169Y225196D01*
X942428Y228237D01*
X942858Y231500D01*
X942428Y234763D01*
X941916Y236000D01*
X963500D01*
Y246400D01*
X981250D01*
Y243750D01*
Y227750D01*
X1011250D01*
Y241656D01*
X1012331Y239046D01*
X1014335Y236435D01*
X1015689Y235396D01*
X1016072Y232487D01*
X1017331Y229446D01*
X1019335Y226835D01*
X1021946Y224831D01*
X1024987Y223572D01*
X1028250Y223142D01*
X1031513Y223572D01*
X1034554Y224831D01*
X1037165Y226835D01*
X1039169Y229446D01*
X1040428Y232487D01*
X1040858Y235750D01*
X1040428Y239013D01*
X1039169Y242054D01*
X1037165Y244665D01*
X1035811Y245704D01*
X1035428Y248613D01*
X1034833Y250050D01*
X1035428Y251487D01*
X1035858Y254750D01*
X1035428Y258013D01*
X1034169Y261054D01*
X1032165Y263665D01*
X1029554Y265669D01*
X1029210Y265811D01*
X1029291Y265822D01*
X1030028Y266127D01*
X1030765Y265822D01*
X1034028Y265392D01*
X1037291Y265822D01*
X1040332Y267081D01*
X1042943Y269085D01*
X1044528Y271150D01*
X1059853D01*
X1059072Y269263D01*
D02*
G37*
G36*
X907946Y242581D02*
X908142Y242500D01*
X907946Y242419D01*
X905335Y240415D01*
X903331Y237804D01*
X902072Y234763D01*
X901642Y231500D01*
X902072Y228237D01*
X903331Y225196D01*
X904574Y223576D01*
X903613Y221257D01*
X903546Y220747D01*
X903022Y220678D01*
X899981Y219419D01*
X899957Y219401D01*
Y241683D01*
X901013Y241822D01*
X904054Y243081D01*
X905674Y244324D01*
X907946Y242581D01*
D02*
G37*
G36*
X1212442Y216957D02*
X1212872Y213694D01*
X1214131Y210653D01*
X1214167Y210607D01*
X1214131Y210561D01*
X1212872Y207520D01*
X1212442Y204257D01*
X1212872Y200994D01*
X1214131Y197953D01*
X1214167Y197907D01*
X1214131Y197861D01*
X1212872Y194820D01*
X1212442Y191557D01*
X1212872Y188294D01*
X1214131Y185253D01*
X1214167Y185207D01*
X1214131Y185161D01*
X1212872Y182120D01*
X1212442Y178857D01*
X1212872Y175594D01*
X1214131Y172553D01*
X1214167Y172507D01*
X1214131Y172461D01*
X1212872Y169420D01*
X1212442Y166157D01*
X1212872Y162894D01*
X1214131Y159853D01*
X1214167Y159807D01*
X1214131Y159761D01*
X1212872Y156720D01*
X1212442Y153457D01*
X1212872Y150194D01*
X1214131Y147153D01*
X1214167Y147107D01*
X1214131Y147061D01*
X1212872Y144020D01*
X1212442Y140757D01*
X1212872Y137494D01*
X1214131Y134453D01*
X1216135Y131842D01*
X1218746Y129838D01*
X1221787Y128579D01*
X1225050Y128149D01*
X1225156Y128163D01*
X1225142Y128057D01*
X1225572Y124794D01*
X1226831Y121753D01*
X1226867Y121707D01*
X1226831Y121661D01*
X1225572Y118620D01*
X1225142Y115357D01*
X1225156Y115251D01*
X1225050Y115265D01*
X1221787Y114835D01*
X1218746Y113576D01*
X1216135Y111572D01*
X1215795Y111130D01*
X1213263Y112178D01*
X1210000Y112608D01*
X1206737Y112178D01*
X1203696Y110919D01*
X1201085Y108915D01*
X1199081Y106304D01*
X1199025Y106169D01*
X1197869Y108961D01*
X1197833Y109007D01*
X1197869Y109053D01*
X1199128Y112094D01*
X1199558Y115357D01*
X1199128Y118620D01*
X1197869Y121661D01*
X1197833Y121707D01*
X1197869Y121753D01*
X1199128Y124794D01*
X1199558Y128057D01*
X1199128Y131320D01*
X1197869Y134361D01*
X1197833Y134407D01*
X1197869Y134453D01*
X1199128Y137494D01*
X1199558Y140757D01*
X1199128Y144020D01*
X1197869Y147061D01*
X1197833Y147107D01*
X1197869Y147153D01*
X1199128Y150194D01*
X1199558Y153457D01*
X1199128Y156720D01*
X1197869Y159761D01*
X1197833Y159807D01*
X1197869Y159853D01*
X1199128Y162894D01*
X1199558Y166157D01*
X1199128Y169420D01*
X1197869Y172461D01*
X1197833Y172507D01*
X1197869Y172553D01*
X1199128Y175594D01*
X1199558Y178857D01*
X1199128Y182120D01*
X1197869Y185161D01*
X1197833Y185207D01*
X1197869Y185253D01*
X1199128Y188294D01*
X1199558Y191557D01*
X1199128Y194820D01*
X1197869Y197861D01*
X1197833Y197907D01*
X1197869Y197953D01*
X1199128Y200994D01*
X1199558Y204257D01*
X1199128Y207520D01*
X1197869Y210561D01*
X1197833Y210607D01*
X1197869Y210653D01*
X1198851Y213024D01*
X1201750Y212642D01*
X1205013Y213072D01*
X1208054Y214331D01*
X1210665Y216335D01*
X1212669Y218946D01*
X1212720Y219071D01*
X1212442Y216957D01*
D02*
G37*
G36*
X1323721Y153721D02*
X1327312Y150654D01*
X1331338Y148187D01*
X1334903Y146710D01*
X1333750Y146862D01*
X1330356Y146416D01*
X1327194Y145106D01*
X1324478Y143022D01*
X1322395Y140306D01*
X1321941Y139211D01*
X1321083Y141282D01*
X1320874Y141554D01*
X1322088Y144487D01*
X1322518Y147750D01*
X1322088Y151013D01*
X1321576Y152250D01*
X1322088Y153487D01*
X1322333Y155346D01*
X1323721Y153721D01*
D02*
G37*
G36*
X1131987Y218322D02*
X1135250Y217892D01*
X1138513Y218322D01*
X1139081Y218557D01*
X1139531Y218371D01*
X1139072Y217263D01*
X1138642Y214000D01*
X1139072Y210737D01*
X1140331Y207696D01*
X1142335Y205085D01*
X1144946Y203081D01*
X1147987Y201822D01*
X1151250Y201392D01*
X1154513Y201822D01*
X1155175Y202096D01*
X1155837Y201822D01*
X1159100Y201392D01*
X1161970Y201770D01*
X1162072Y200994D01*
X1163331Y197953D01*
X1163367Y197907D01*
X1163331Y197861D01*
X1162072Y194820D01*
X1161642Y191557D01*
X1162072Y188294D01*
X1163331Y185253D01*
X1163367Y185207D01*
X1163331Y185161D01*
X1162072Y182120D01*
X1161642Y178857D01*
X1162072Y175594D01*
X1163331Y172553D01*
X1163367Y172507D01*
X1163331Y172461D01*
X1162072Y169420D01*
X1161642Y166157D01*
X1162072Y162894D01*
X1163331Y159853D01*
X1163367Y159807D01*
X1163331Y159761D01*
X1162072Y156720D01*
X1161642Y153457D01*
X1162072Y150194D01*
X1163331Y147153D01*
X1163367Y147107D01*
X1163331Y147061D01*
X1162072Y144020D01*
X1161642Y140757D01*
X1162072Y137494D01*
X1163331Y134453D01*
X1165335Y131842D01*
X1167946Y129838D01*
X1170987Y128579D01*
X1174250Y128149D01*
X1174356Y128163D01*
X1174342Y128057D01*
X1174356Y127951D01*
X1174250Y127965D01*
X1170987Y127535D01*
X1167946Y126276D01*
X1165335Y124272D01*
X1163331Y121661D01*
X1162072Y118620D01*
X1161642Y115357D01*
X1162072Y112094D01*
X1163331Y109053D01*
X1163367Y109007D01*
X1163331Y108961D01*
X1162072Y105920D01*
X1161642Y102657D01*
X1162072Y99394D01*
X1163331Y96353D01*
X1163367Y96307D01*
X1163331Y96261D01*
X1162072Y93220D01*
X1161642Y89957D01*
X1162072Y86694D01*
X1163331Y83653D01*
X1165335Y81042D01*
X1167946Y79038D01*
X1170987Y77779D01*
X1174250Y77349D01*
X1174356Y77363D01*
X1174342Y77257D01*
X1174772Y73994D01*
X1176031Y70953D01*
X1178035Y68342D01*
X1180646Y66338D01*
X1183687Y65079D01*
X1186950Y64649D01*
X1190213Y65079D01*
X1193254Y66338D01*
X1195865Y68342D01*
X1197869Y70953D01*
X1199128Y73994D01*
X1199558Y77257D01*
X1199128Y80520D01*
X1197869Y83561D01*
X1197833Y83607D01*
X1197869Y83653D01*
X1199128Y86694D01*
X1199558Y89957D01*
X1199128Y93220D01*
X1197869Y96261D01*
X1197833Y96307D01*
X1197869Y96353D01*
X1197925Y96488D01*
X1199081Y93696D01*
X1201085Y91085D01*
X1203696Y89081D01*
X1206737Y87822D01*
X1210000Y87392D01*
X1212732Y87752D01*
X1212872Y86694D01*
X1214131Y83653D01*
X1214167Y83607D01*
X1214131Y83561D01*
X1212872Y80520D01*
X1212442Y77257D01*
X1212872Y73994D01*
X1214131Y70953D01*
X1216135Y68342D01*
X1218746Y66338D01*
X1221787Y65079D01*
X1225050Y64649D01*
X1228313Y65079D01*
X1231354Y66338D01*
X1231400Y66374D01*
X1231446Y66338D01*
X1234487Y65079D01*
X1237750Y64649D01*
X1241013Y65079D01*
X1244054Y66338D01*
X1245750Y67640D01*
Y61769D01*
X1243696Y60919D01*
X1241085Y58915D01*
X1239081Y56304D01*
X1237822Y53263D01*
X1237392Y50000D01*
X1237822Y46737D01*
X1239081Y43696D01*
X1241085Y41085D01*
X1243696Y39081D01*
X1245750Y38231D01*
Y30000D01*
X1275750D01*
Y37150D01*
X1278550D01*
X1278572Y36987D01*
X1279831Y33946D01*
X1281835Y31335D01*
X1284446Y29331D01*
X1285005Y29100D01*
X1283606Y28915D01*
X1280444Y27606D01*
X1277728Y25522D01*
X1275750Y22944D01*
X1273772Y25522D01*
X1271056Y27606D01*
X1267894Y28915D01*
X1264500Y29362D01*
X1261106Y28915D01*
X1257944Y27606D01*
X1255228Y25522D01*
X1253250Y22944D01*
X1251272Y25522D01*
X1248556Y27606D01*
X1245394Y28915D01*
X1242000Y29362D01*
X1238606Y28915D01*
X1235444Y27606D01*
X1232728Y25522D01*
X1230644Y22806D01*
X1229334Y19644D01*
X1228888Y16250D01*
X1229334Y12856D01*
X1230644Y9694D01*
X1232728Y6978D01*
X1233321Y6524D01*
X1230750Y6862D01*
X1227356Y6415D01*
X1224194Y5106D01*
X1221478Y3022D01*
X1219791Y824D01*
X1220676Y4508D01*
X1221108Y10000D01*
X1220676Y15492D01*
X1219390Y20849D01*
X1217282Y25939D01*
X1214403Y30636D01*
X1210825Y34825D01*
X1208652Y36681D01*
X1209235Y36739D01*
X1212345Y37682D01*
X1215211Y39214D01*
X1217724Y41276D01*
X1219786Y43789D01*
X1221318Y46655D01*
X1222261Y49766D01*
X1222580Y53000D01*
X1222261Y56235D01*
X1221318Y59345D01*
X1219786Y62211D01*
X1217724Y64724D01*
X1215211Y66786D01*
X1212345Y68318D01*
X1209235Y69261D01*
X1206000Y69580D01*
X1202765Y69261D01*
X1199655Y68318D01*
X1196789Y66786D01*
X1194276Y64724D01*
X1192214Y62211D01*
X1190682Y59345D01*
X1189739Y56235D01*
X1189420Y53000D01*
X1189739Y49766D01*
X1190682Y46655D01*
X1191777Y44608D01*
X1191492Y44676D01*
X1186000Y45108D01*
X1181352Y44742D01*
X1182178Y46737D01*
X1182608Y50000D01*
X1182178Y53263D01*
X1180919Y56304D01*
X1178915Y58915D01*
X1176304Y60919D01*
X1173263Y62178D01*
X1170000Y62608D01*
X1166737Y62178D01*
X1163696Y60919D01*
X1161085Y58915D01*
X1159081Y56304D01*
X1157822Y53263D01*
X1157392Y50000D01*
X1157822Y46737D01*
X1159081Y43696D01*
X1161085Y41085D01*
X1163696Y39081D01*
X1165354Y38395D01*
X1161175Y34825D01*
X1157597Y30636D01*
X1154718Y25939D01*
X1152610Y20849D01*
X1152356Y19789D01*
X1151106Y22806D01*
X1149022Y25522D01*
X1146307Y27606D01*
X1143144Y28915D01*
X1139751Y29362D01*
X1136357Y28915D01*
X1133194Y27606D01*
X1130479Y25522D01*
X1128500Y22943D01*
X1126522Y25522D01*
X1123806Y27606D01*
X1120644Y28915D01*
X1117250Y29362D01*
X1113857Y28915D01*
X1110694Y27606D01*
X1107979Y25522D01*
X1106000Y22943D01*
X1104022Y25522D01*
X1101306Y27606D01*
X1098144Y28915D01*
X1094750Y29362D01*
X1091356Y28915D01*
X1088194Y27606D01*
X1085478Y25522D01*
X1083500Y22943D01*
X1081522Y25522D01*
X1078806Y27606D01*
X1075643Y28915D01*
X1072250Y29362D01*
X1068856Y28915D01*
X1065694Y27606D01*
X1062978Y25522D01*
X1061000Y22944D01*
X1059022Y25522D01*
X1056306Y27606D01*
X1053143Y28915D01*
X1049750Y29362D01*
X1046356Y28915D01*
X1043194Y27606D01*
X1040478Y25522D01*
X1038500Y22944D01*
X1036522Y25522D01*
X1033806Y27606D01*
X1030644Y28915D01*
X1027250Y29362D01*
X1023856Y28915D01*
X1020694Y27606D01*
X1017978Y25522D01*
X1015894Y22806D01*
X1014585Y19644D01*
X1014138Y16250D01*
X1014290Y15097D01*
X1012813Y18662D01*
X1010346Y22688D01*
X1007279Y26279D01*
X1003688Y29346D01*
X999662Y31813D01*
X995299Y33620D01*
X990707Y34722D01*
X986000Y35093D01*
X981292Y34722D01*
X976701Y33620D01*
X972338Y31813D01*
X968312Y29346D01*
X964721Y26279D01*
X961654Y22688D01*
X959187Y18662D01*
X957380Y14299D01*
X956278Y9707D01*
X955967Y5764D01*
X954394Y6415D01*
X951000Y6862D01*
X948429Y6524D01*
X949022Y6978D01*
X951105Y9694D01*
X952415Y12856D01*
X952862Y16250D01*
X952415Y19644D01*
X951105Y22806D01*
X949022Y25522D01*
X946306Y27606D01*
X943144Y28915D01*
X939750Y29362D01*
X936356Y28915D01*
X933194Y27606D01*
X930478Y25522D01*
X928500Y22943D01*
X926522Y25522D01*
X923806Y27606D01*
X920643Y28915D01*
X917250Y29362D01*
X913856Y28915D01*
X910694Y27606D01*
X907978Y25522D01*
X906000Y22944D01*
X904022Y25522D01*
X901306Y27606D01*
X898143Y28915D01*
X894750Y29362D01*
X891356Y28915D01*
X888194Y27606D01*
X885478Y25522D01*
X883500Y22944D01*
X881522Y25522D01*
X878806Y27606D01*
X875644Y28915D01*
X872250Y29362D01*
X868856Y28915D01*
X865694Y27606D01*
X862978Y25522D01*
X860894Y22806D01*
X859585Y19644D01*
X859138Y16250D01*
X859585Y12856D01*
X860894Y9694D01*
X862978Y6978D01*
X863571Y6524D01*
X861000Y6862D01*
X857606Y6415D01*
X856033Y5764D01*
X855722Y9707D01*
X854620Y14299D01*
X852813Y18662D01*
X850346Y22688D01*
X847279Y26279D01*
X843688Y29346D01*
X839662Y31813D01*
X835299Y33620D01*
X830707Y34722D01*
X826000Y35093D01*
X821292Y34722D01*
X816701Y33620D01*
X812338Y31813D01*
X808312Y29346D01*
X804721Y26279D01*
X801916Y22994D01*
X801666Y24894D01*
X800356Y28056D01*
X798272Y30772D01*
X795557Y32856D01*
X792394Y34165D01*
X789001Y34612D01*
X785607Y34165D01*
X782445Y32856D01*
X779729Y30772D01*
X777750Y28193D01*
X775772Y30772D01*
X773056Y32856D01*
X769894Y34165D01*
X769872Y34168D01*
Y59914D01*
X812712D01*
X811085Y58665D01*
X809081Y56054D01*
X807822Y53013D01*
X807392Y49750D01*
X807822Y46487D01*
X809081Y43446D01*
X811085Y40835D01*
X813696Y38831D01*
X816737Y37572D01*
X820000Y37142D01*
X823263Y37572D01*
X826304Y38831D01*
X828915Y40835D01*
X830919Y43446D01*
X832178Y46487D01*
X832608Y49750D01*
X832178Y53013D01*
X830919Y56054D01*
X828915Y58665D01*
X827288Y59914D01*
X842386D01*
X841085Y58915D01*
X839081Y56304D01*
X837822Y53263D01*
X837392Y50000D01*
X837822Y46737D01*
X839081Y43696D01*
X841085Y41085D01*
X843696Y39081D01*
X846737Y37822D01*
X850000Y37392D01*
X853263Y37822D01*
X856304Y39081D01*
X858915Y41085D01*
X860919Y43696D01*
X862178Y46737D01*
X862608Y50000D01*
X862178Y53263D01*
X860919Y56304D01*
X858915Y58915D01*
X857614Y59914D01*
X882386D01*
X881085Y58915D01*
X879081Y56304D01*
X877822Y53263D01*
X877392Y50000D01*
X877822Y46737D01*
X879081Y43696D01*
X881085Y41085D01*
X883696Y39081D01*
X886737Y37822D01*
X890000Y37392D01*
X893263Y37822D01*
X896304Y39081D01*
X898915Y41085D01*
X900919Y43696D01*
X902178Y46737D01*
X902608Y50000D01*
X902178Y53263D01*
X900919Y56304D01*
X898915Y58915D01*
X897614Y59914D01*
X922386D01*
X921085Y58915D01*
X919081Y56304D01*
X917822Y53263D01*
X917392Y50000D01*
X917822Y46737D01*
X919081Y43696D01*
X921085Y41085D01*
X923696Y39081D01*
X926737Y37822D01*
X930000Y37392D01*
X933263Y37822D01*
X936304Y39081D01*
X938915Y41085D01*
X940919Y43696D01*
X942178Y46737D01*
X942608Y50000D01*
X942178Y53263D01*
X940919Y56304D01*
X938915Y58915D01*
X937614Y59914D01*
X962386D01*
X961085Y58915D01*
X959081Y56304D01*
X957822Y53263D01*
X957392Y50000D01*
X957822Y46737D01*
X959081Y43696D01*
X961085Y41085D01*
X963696Y39081D01*
X966737Y37822D01*
X970000Y37392D01*
X973263Y37822D01*
X976304Y39081D01*
X978915Y41085D01*
X980919Y43696D01*
X982178Y46737D01*
X982500Y49181D01*
X982822Y46737D01*
X984081Y43696D01*
X986085Y41085D01*
X988696Y39081D01*
X991737Y37822D01*
X995000Y37392D01*
X998263Y37822D01*
X1001304Y39081D01*
X1002500Y39999D01*
X1003696Y39081D01*
X1006737Y37822D01*
X1010000Y37392D01*
X1013263Y37822D01*
X1016304Y39081D01*
X1017500Y39999D01*
X1018696Y39081D01*
X1021737Y37822D01*
X1025000Y37392D01*
X1028263Y37822D01*
X1031304Y39081D01*
X1033915Y41085D01*
X1035919Y43696D01*
X1037178Y46737D01*
X1037500Y49181D01*
X1037822Y46737D01*
X1039081Y43696D01*
X1041085Y41085D01*
X1043696Y39081D01*
X1046737Y37822D01*
X1050000Y37392D01*
X1053263Y37822D01*
X1056304Y39081D01*
X1058915Y41085D01*
X1060919Y43696D01*
X1062178Y46737D01*
X1062500Y49181D01*
X1062822Y46737D01*
X1064081Y43696D01*
X1066085Y41085D01*
X1068696Y39081D01*
X1071737Y37822D01*
X1075000Y37392D01*
X1078263Y37822D01*
X1081304Y39081D01*
X1082500Y39999D01*
X1083696Y39081D01*
X1086737Y37822D01*
X1090000Y37392D01*
X1093263Y37822D01*
X1096304Y39081D01*
X1097500Y39999D01*
X1098696Y39081D01*
X1101737Y37822D01*
X1105000Y37392D01*
X1108263Y37822D01*
X1111304Y39081D01*
X1113915Y41085D01*
X1115919Y43696D01*
X1117178Y46737D01*
X1117571Y49723D01*
X1117822Y47822D01*
X1119081Y44781D01*
X1121085Y42170D01*
X1123696Y40166D01*
X1126737Y38907D01*
X1130000Y38477D01*
X1133263Y38907D01*
X1136304Y40166D01*
X1138915Y42170D01*
X1140919Y44781D01*
X1142178Y47822D01*
X1142608Y51085D01*
X1142178Y54348D01*
X1140919Y57389D01*
X1138915Y60000D01*
X1136304Y62004D01*
X1133263Y63263D01*
X1130000Y63693D01*
X1126737Y63263D01*
X1123696Y62004D01*
X1121085Y60000D01*
X1119081Y57389D01*
X1117822Y54348D01*
X1117429Y51362D01*
X1117178Y53263D01*
X1115919Y56304D01*
X1113915Y58915D01*
X1111304Y60919D01*
X1108263Y62178D01*
X1105000Y62608D01*
X1104653Y62562D01*
X1106162Y63187D01*
X1110188Y65655D01*
X1113779Y68721D01*
X1116845Y72312D01*
X1119313Y76338D01*
X1121120Y80701D01*
X1122222Y85293D01*
X1122587Y89932D01*
X1123696Y89081D01*
X1126737Y87822D01*
X1130000Y87392D01*
X1133263Y87822D01*
X1136304Y89081D01*
X1138915Y91085D01*
X1140919Y93696D01*
X1142178Y96737D01*
X1142608Y100000D01*
X1142178Y103263D01*
X1140919Y106304D01*
X1138915Y108915D01*
X1136304Y110919D01*
X1133263Y112178D01*
X1130000Y112608D01*
X1126737Y112178D01*
X1123696Y110919D01*
X1122836Y110259D01*
Y212352D01*
X1125804Y213581D01*
X1128415Y215585D01*
X1130419Y218196D01*
X1130693Y218858D01*
X1131987Y218322D01*
D02*
G37*
G36*
X1324478Y124478D02*
X1327057Y122500D01*
X1324478Y120522D01*
X1322395Y117806D01*
X1321085Y114643D01*
X1320638Y111250D01*
X1321085Y107856D01*
X1321387Y107126D01*
X1321165Y107415D01*
X1318554Y109419D01*
X1315513Y110678D01*
X1314165Y110856D01*
X1313669Y112054D01*
X1312430Y113668D01*
X1313427Y113800D01*
X1316468Y115059D01*
X1319079Y117063D01*
X1321083Y119674D01*
X1322342Y122715D01*
X1322772Y125978D01*
X1322657Y126852D01*
X1324478Y124478D01*
D02*
G37*
G36*
X870750Y570250D02*
X891000D01*
Y560750D01*
X870750D01*
X870750Y79000D01*
X1103812D01*
Y560750D01*
X1062100D01*
Y560850D01*
X1052900D01*
Y560750D01*
X1024987D01*
Y560850D01*
X1015787D01*
Y560750D01*
X987874D01*
Y560850D01*
X978674D01*
Y560750D01*
X950761D01*
Y560850D01*
X941561D01*
Y560750D01*
X927000D01*
Y570250D01*
X1089852D01*
X1094759Y569274D01*
X1099381Y567359D01*
X1103541Y564579D01*
X1107079Y561041D01*
X1109859Y556881D01*
X1111774Y552259D01*
X1112750Y547352D01*
Y544850D01*
Y95400D01*
Y92898D01*
X1111774Y87991D01*
X1109859Y83369D01*
X1107079Y79208D01*
X1103541Y75670D01*
X1099381Y72891D01*
X1094759Y70976D01*
X1089852Y70000D01*
X560898D01*
X560000Y70898D01*
X560000Y73500D01*
Y79250D01*
X860311D01*
Y560500D01*
X559000D01*
X559000Y570250D01*
X870750Y570250D01*
Y570250D01*
D02*
G37*
G36*
X580187Y56662D02*
X578380Y52299D01*
X577989Y50672D01*
X577105Y52806D01*
X575022Y55522D01*
X572306Y57606D01*
X569144Y58915D01*
X565750Y59362D01*
X562836Y58979D01*
Y59914D01*
X582180D01*
X580187Y56662D01*
D02*
G37*
G36*
X759944Y32856D02*
X757229Y30772D01*
X755250Y28193D01*
X753272Y30772D01*
X750556Y32856D01*
X747890Y33960D01*
X762611D01*
X759944Y32856D01*
D02*
G37*
G36*
X1322395Y82194D02*
X1324478Y79478D01*
X1327056Y77500D01*
X1324478Y75522D01*
X1322395Y72806D01*
X1321085Y69644D01*
X1320638Y66250D01*
X1321085Y62856D01*
X1322395Y59694D01*
X1324478Y56978D01*
X1327194Y54894D01*
X1330356Y53585D01*
X1333750Y53138D01*
X1334903Y53290D01*
X1331338Y51813D01*
X1327312Y49346D01*
X1323721Y46279D01*
X1320654Y42688D01*
X1318187Y38662D01*
X1316380Y34299D01*
X1315278Y29708D01*
X1315142Y27984D01*
X1312894Y28915D01*
X1310356Y29249D01*
X1310554Y29331D01*
X1313165Y31335D01*
X1315169Y33946D01*
X1316428Y36987D01*
X1316858Y40250D01*
X1316428Y43513D01*
X1315169Y46554D01*
X1313867Y48250D01*
X1315169Y49946D01*
X1316428Y52987D01*
X1316858Y56250D01*
X1316428Y59513D01*
X1315169Y62554D01*
X1313165Y65165D01*
X1310554Y67169D01*
X1307939Y68252D01*
X1307494Y68696D01*
X1308252Y68796D01*
X1311050Y69955D01*
X1313452Y71798D01*
X1315295Y74200D01*
X1316454Y76998D01*
X1316623Y78281D01*
X1318554Y79081D01*
X1321165Y81085D01*
X1322262Y82514D01*
X1322395Y82194D01*
D02*
G37*
G36*
X1335701Y-3620D02*
X1340292Y-4722D01*
X1343308Y-4960D01*
X1343138Y-6250D01*
X1343585Y-9644D01*
X1344895Y-12806D01*
X1346978Y-15522D01*
X1349506Y-17461D01*
X1327495D01*
X1330022Y-15522D01*
X1332106Y-12806D01*
X1333415Y-9644D01*
X1333862Y-6250D01*
X1333415Y-2856D01*
X1333324Y-2635D01*
X1335701Y-3620D01*
D02*
G37*
G36*
X1217638Y-6250D02*
X1218084Y-9644D01*
X1219394Y-12806D01*
X1221478Y-15522D01*
X1224006Y-17461D01*
X1207739D01*
X1210825Y-14825D01*
X1214403Y-10636D01*
X1217282Y-5939D01*
X1217864Y-4534D01*
X1217638Y-6250D01*
D02*
G37*
G36*
X565750Y33138D02*
X568321Y33476D01*
X567728Y33022D01*
X565644Y30306D01*
X564335Y27144D01*
X563888Y23750D01*
X564335Y20356D01*
X565644Y17194D01*
X567728Y14478D01*
X570444Y12394D01*
X573606Y11085D01*
X577000Y10638D01*
X580394Y11085D01*
X583556Y12394D01*
X586272Y14478D01*
X588355Y17194D01*
X589052Y18876D01*
X589312Y18655D01*
X593338Y16187D01*
X597701Y14380D01*
X602292Y13278D01*
X607000Y12907D01*
X611707Y13278D01*
X612385Y13441D01*
X615175Y10175D01*
X619364Y6597D01*
X624061Y3718D01*
X629151Y1610D01*
X634508Y324D01*
X640000Y-108D01*
X645492Y324D01*
X650849Y1610D01*
X655939Y3718D01*
X660636Y6597D01*
X664825Y10175D01*
X666921Y12629D01*
X667228Y12228D01*
X669944Y10145D01*
X673106Y8835D01*
X676500Y8388D01*
X679894Y8835D01*
X683056Y10145D01*
X685772Y12228D01*
X687750Y14806D01*
X689728Y12228D01*
X692444Y10145D01*
X695606Y8835D01*
X699000Y8388D01*
X702394Y8835D01*
X705556Y10145D01*
X708272Y12228D01*
X710250Y14806D01*
X712228Y12228D01*
X714944Y10145D01*
X718106Y8835D01*
X721500Y8388D01*
X724894Y8835D01*
X728056Y10145D01*
X730772Y12228D01*
X732750Y14807D01*
X734728Y12228D01*
X737444Y10145D01*
X740607Y8835D01*
X744000Y8388D01*
X747394Y8835D01*
X750556Y10145D01*
X753272Y12228D01*
X755250Y14807D01*
X757229Y12228D01*
X759944Y10145D01*
X763107Y8835D01*
X766500Y8388D01*
X769894Y8835D01*
X773056Y10145D01*
X775772Y12228D01*
X777750Y14807D01*
X779729Y12228D01*
X782445Y10145D01*
X785607Y8835D01*
X789001Y8388D01*
X792394Y8835D01*
X795557Y10145D01*
X796569Y10921D01*
X796278Y9707D01*
X795907Y5000D01*
X796278Y292D01*
X797380Y-4299D01*
X799187Y-8662D01*
X801654Y-12688D01*
X804721Y-16279D01*
X806105Y-17461D01*
X562836D01*
X562836Y33521D01*
X565750Y33138D01*
D02*
G37*
%LPC*%
G36*
X1298448Y620730D02*
X1295185Y620300D01*
X1292144Y619041D01*
X1289533Y617037D01*
X1287529Y614426D01*
X1286270Y611385D01*
X1286213Y610956D01*
X1283263Y612178D01*
X1280000Y612608D01*
X1276737Y612178D01*
X1273696Y610919D01*
X1271085Y608915D01*
X1269081Y606304D01*
X1267822Y603263D01*
X1267392Y600000D01*
X1267822Y596737D01*
X1269081Y593696D01*
X1269924Y592598D01*
X1266737Y592178D01*
X1263696Y590919D01*
X1261085Y588915D01*
X1259081Y586304D01*
X1257822Y583263D01*
X1257392Y580000D01*
X1257822Y576737D01*
X1259081Y573696D01*
X1261085Y571085D01*
X1263696Y569081D01*
X1266737Y567822D01*
X1270000Y567392D01*
X1273263Y567822D01*
X1276304Y569081D01*
X1278915Y571085D01*
X1280919Y573696D01*
X1282178Y576737D01*
X1282608Y580000D01*
X1282178Y583263D01*
X1280919Y586304D01*
X1280076Y587402D01*
X1283263Y587822D01*
X1286304Y589081D01*
X1288915Y591085D01*
X1290919Y593696D01*
X1292178Y596737D01*
X1292235Y597166D01*
X1295185Y595944D01*
X1298448Y595514D01*
X1301711Y595944D01*
X1304752Y597203D01*
X1307363Y599207D01*
X1309367Y601818D01*
X1310626Y604859D01*
X1311056Y608122D01*
X1310626Y611385D01*
X1309367Y614426D01*
X1307363Y617037D01*
X1304752Y619041D01*
X1301711Y620300D01*
X1298448Y620730D01*
D02*
G37*
G36*
X1250000Y612608D02*
X1246737Y612178D01*
X1243696Y610919D01*
X1241085Y608915D01*
X1239081Y606304D01*
X1237822Y603263D01*
X1237392Y600000D01*
X1237822Y596737D01*
X1239081Y593696D01*
X1241085Y591085D01*
X1243696Y589081D01*
X1246737Y587822D01*
X1250000Y587392D01*
X1253263Y587822D01*
X1256304Y589081D01*
X1258915Y591085D01*
X1260919Y593696D01*
X1262178Y596737D01*
X1262608Y600000D01*
X1262178Y603263D01*
X1260919Y606304D01*
X1258915Y608915D01*
X1256304Y610919D01*
X1253263Y612178D01*
X1250000Y612608D01*
D02*
G37*
G36*
X1012500Y554476D02*
X1010978Y554174D01*
X1009688Y553312D01*
X1008826Y552022D01*
X1008524Y550500D01*
X1008826Y548978D01*
X1009688Y547688D01*
X1010978Y546826D01*
X1012500Y546524D01*
X1014022Y546826D01*
X1015312Y547688D01*
X1016174Y548978D01*
X1016476Y550500D01*
X1016174Y552022D01*
X1015312Y553312D01*
X1014022Y554174D01*
X1012500Y554476D01*
D02*
G37*
G36*
X976000D02*
X974478Y554174D01*
X973188Y553312D01*
X972326Y552022D01*
X972024Y550500D01*
X972326Y548978D01*
X973188Y547688D01*
X974478Y546826D01*
X976000Y546524D01*
X977522Y546826D01*
X978812Y547688D01*
X979674Y548978D01*
X979976Y550500D01*
X979674Y552022D01*
X978812Y553312D01*
X977522Y554174D01*
X976000Y554476D01*
D02*
G37*
G36*
X1088314Y508548D02*
X1086792Y508246D01*
X1085502Y507384D01*
X1084640Y506094D01*
X1084338Y504572D01*
X1084640Y503050D01*
X1085502Y501760D01*
X1086792Y500898D01*
X1088314Y500596D01*
X1089836Y500898D01*
X1091126Y501760D01*
X1091988Y503050D01*
X1092290Y504572D01*
X1091988Y506094D01*
X1091126Y507384D01*
X1089836Y508246D01*
X1088314Y508548D01*
D02*
G37*
G36*
X882750Y268726D02*
X881228Y268424D01*
X879938Y267562D01*
X879076Y266272D01*
X878774Y264750D01*
X879076Y263228D01*
X879938Y261938D01*
X881228Y261076D01*
X882750Y260774D01*
X884272Y261076D01*
X885562Y261938D01*
X886424Y263228D01*
X886726Y264750D01*
X886424Y266272D01*
X885562Y267562D01*
X884272Y268424D01*
X882750Y268726D01*
D02*
G37*
G36*
Y257976D02*
X881228Y257674D01*
X879938Y256812D01*
X879076Y255522D01*
X878774Y254000D01*
X879076Y252478D01*
X879938Y251188D01*
X881228Y250326D01*
X882750Y250024D01*
X884272Y250326D01*
X885562Y251188D01*
X886424Y252478D01*
X886726Y254000D01*
X886424Y255522D01*
X885562Y256812D01*
X884272Y257674D01*
X882750Y257976D01*
D02*
G37*
G36*
X1148148Y452608D02*
X1144884Y452178D01*
X1141844Y450919D01*
X1139232Y448915D01*
X1137229Y446304D01*
X1136832Y445346D01*
X1135196Y444669D01*
X1132585Y442665D01*
X1130581Y440054D01*
X1129322Y437013D01*
X1128892Y433750D01*
X1129322Y430487D01*
X1130581Y427446D01*
X1132585Y424835D01*
X1135196Y422831D01*
X1138237Y421572D01*
X1141500Y421142D01*
X1144763Y421572D01*
X1147804Y422831D01*
X1150415Y424835D01*
X1152419Y427446D01*
X1152815Y428404D01*
X1154452Y429081D01*
X1157063Y431085D01*
X1159066Y433696D01*
X1160326Y436737D01*
X1160755Y440000D01*
X1160326Y443263D01*
X1159066Y446304D01*
X1157063Y448915D01*
X1154452Y450919D01*
X1151411Y452178D01*
X1148148Y452608D01*
D02*
G37*
G36*
X597500Y551133D02*
X595978Y550831D01*
X594688Y549969D01*
X593826Y548679D01*
X593524Y547157D01*
X593826Y545635D01*
X594688Y544345D01*
X595978Y543483D01*
X597500Y543181D01*
X599022Y543483D01*
X600312Y544345D01*
X601174Y545635D01*
X601476Y547157D01*
X601174Y548679D01*
X600312Y549969D01*
X599022Y550831D01*
X597500Y551133D01*
D02*
G37*
G36*
X836750Y494976D02*
X835228Y494674D01*
X833938Y493812D01*
X833076Y492522D01*
X832774Y491000D01*
X833076Y489478D01*
X833938Y488188D01*
X835228Y487326D01*
X836750Y487024D01*
X838272Y487326D01*
X839562Y488188D01*
X840424Y489478D01*
X840726Y491000D01*
X840424Y492522D01*
X839562Y493812D01*
X838272Y494674D01*
X836750Y494976D01*
D02*
G37*
G36*
Y484726D02*
X835228Y484424D01*
X833938Y483562D01*
X833076Y482272D01*
X832774Y480750D01*
X833076Y479228D01*
X833938Y477938D01*
X835228Y477076D01*
X836750Y476774D01*
X838272Y477076D01*
X839562Y477938D01*
X840424Y479228D01*
X840726Y480750D01*
X840424Y482272D01*
X839562Y483562D01*
X838272Y484424D01*
X836750Y484726D01*
D02*
G37*
G36*
X832250Y456226D02*
X830728Y455924D01*
X829438Y455062D01*
X828576Y453772D01*
X828274Y452250D01*
X828576Y450728D01*
X829438Y449438D01*
X830728Y448576D01*
X832250Y448274D01*
X833772Y448576D01*
X835062Y449438D01*
X835924Y450728D01*
X836226Y452250D01*
X835924Y453772D01*
X835062Y455062D01*
X833772Y455924D01*
X832250Y456226D01*
D02*
G37*
G36*
Y425976D02*
X830728Y425674D01*
X829438Y424812D01*
X828576Y423522D01*
X828274Y422000D01*
X828576Y420478D01*
X829438Y419188D01*
X830728Y418326D01*
X832250Y418024D01*
X833772Y418326D01*
X835062Y419188D01*
X835924Y420478D01*
X836226Y422000D01*
X835924Y423522D01*
X835062Y424812D01*
X833772Y425674D01*
X832250Y425976D01*
D02*
G37*
G36*
Y346726D02*
X830728Y346424D01*
X829438Y345562D01*
X828576Y344272D01*
X828274Y342750D01*
X828576Y341228D01*
X829438Y339938D01*
X830728Y339076D01*
X832250Y338774D01*
X833772Y339076D01*
X835062Y339938D01*
X835924Y341228D01*
X836226Y342750D01*
X835924Y344272D01*
X835062Y345562D01*
X833772Y346424D01*
X832250Y346726D01*
D02*
G37*
G36*
X832500Y320226D02*
X830978Y319924D01*
X829688Y319062D01*
X828826Y317772D01*
X828524Y316250D01*
X828826Y314728D01*
X829688Y313438D01*
X830978Y312576D01*
X832500Y312274D01*
X834022Y312576D01*
X835312Y313438D01*
X836174Y314728D01*
X836476Y316250D01*
X836174Y317772D01*
X835312Y319062D01*
X834022Y319924D01*
X832500Y320226D01*
D02*
G37*
G36*
X832250Y293726D02*
X830728Y293424D01*
X829438Y292562D01*
X828576Y291272D01*
X828274Y289750D01*
X828576Y288228D01*
X829438Y286938D01*
X830728Y286076D01*
X832250Y285774D01*
X833772Y286076D01*
X835062Y286938D01*
X835924Y288228D01*
X836226Y289750D01*
X835924Y291272D01*
X835062Y292562D01*
X833772Y293424D01*
X832250Y293726D01*
D02*
G37*
G36*
Y267226D02*
X830728Y266924D01*
X829438Y266062D01*
X828576Y264772D01*
X828274Y263250D01*
X828576Y261728D01*
X829438Y260438D01*
X830728Y259576D01*
X832250Y259274D01*
X833772Y259576D01*
X835062Y260438D01*
X835924Y261728D01*
X836226Y263250D01*
X835924Y264772D01*
X835062Y266062D01*
X833772Y266924D01*
X832250Y267226D01*
D02*
G37*
G36*
X832500Y204226D02*
X830978Y203924D01*
X829688Y203062D01*
X828826Y201772D01*
X828524Y200250D01*
X828826Y198728D01*
X829688Y197438D01*
X830978Y196576D01*
X832500Y196274D01*
X834022Y196576D01*
X835312Y197438D01*
X836174Y198728D01*
X836476Y200250D01*
X836174Y201772D01*
X835312Y203062D01*
X834022Y203924D01*
X832500Y204226D01*
D02*
G37*
G36*
Y184226D02*
X830978Y183924D01*
X829688Y183062D01*
X828826Y181772D01*
X828524Y180250D01*
X828826Y178728D01*
X829688Y177438D01*
X830978Y176576D01*
X832500Y176274D01*
X834022Y176576D01*
X835312Y177438D01*
X836174Y178728D01*
X836476Y180250D01*
X836174Y181772D01*
X835312Y183062D01*
X834022Y183924D01*
X832500Y184226D01*
D02*
G37*
G36*
X836250Y164976D02*
X834728Y164674D01*
X833438Y163812D01*
X832576Y162522D01*
X832274Y161000D01*
X832576Y159478D01*
X833438Y158188D01*
X834728Y157326D01*
X836250Y157024D01*
X837772Y157326D01*
X839062Y158188D01*
X839924Y159478D01*
X840226Y161000D01*
X839924Y162522D01*
X839062Y163812D01*
X837772Y164674D01*
X836250Y164976D01*
D02*
G37*
G36*
Y154726D02*
X834728Y154424D01*
X833438Y153562D01*
X832576Y152272D01*
X832274Y150750D01*
X832576Y149228D01*
X833438Y147938D01*
X834728Y147076D01*
X836250Y146774D01*
X837772Y147076D01*
X839062Y147938D01*
X839924Y149228D01*
X840226Y150750D01*
X839924Y152272D01*
X839062Y153562D01*
X837772Y154424D01*
X836250Y154726D01*
D02*
G37*
G36*
X582500Y101476D02*
X580978Y101174D01*
X579688Y100312D01*
X578826Y99022D01*
X578524Y97500D01*
X578826Y95978D01*
X579688Y94688D01*
X580978Y93826D01*
X582500Y93524D01*
X584022Y93826D01*
X585312Y94688D01*
X586174Y95978D01*
X586476Y97500D01*
X586174Y99022D01*
X585312Y100312D01*
X584022Y101174D01*
X582500Y101476D01*
D02*
G37*
G36*
X921160Y449358D02*
X917897Y448928D01*
X914856Y447669D01*
X912245Y445665D01*
X910241Y443054D01*
X908982Y440013D01*
X908552Y436750D01*
X908982Y433487D01*
X910241Y430446D01*
X912245Y427835D01*
X914856Y425831D01*
X917897Y424572D01*
X921160Y424142D01*
X924423Y424572D01*
X927464Y425831D01*
X930075Y427835D01*
X932079Y430446D01*
X933338Y433487D01*
X933768Y436750D01*
X933338Y440013D01*
X932079Y443054D01*
X930075Y445665D01*
X927464Y447669D01*
X924423Y448928D01*
X921160Y449358D01*
D02*
G37*
G36*
X1055876Y207358D02*
X1052613Y206928D01*
X1049572Y205669D01*
X1046961Y203665D01*
X1044957Y201054D01*
X1043698Y198013D01*
X1043268Y194750D01*
X1043698Y191487D01*
X1044957Y188446D01*
X1046961Y185835D01*
X1049572Y183831D01*
X1052613Y182572D01*
X1055876Y182142D01*
X1059139Y182572D01*
X1062180Y183831D01*
X1064791Y185835D01*
X1066795Y188446D01*
X1068054Y191487D01*
X1068484Y194750D01*
X1068054Y198013D01*
X1066795Y201054D01*
X1064791Y203665D01*
X1062180Y205669D01*
X1059139Y206928D01*
X1055876Y207358D01*
D02*
G37*
G36*
X1012500Y198858D02*
X1009237Y198428D01*
X1006196Y197169D01*
X1003585Y195165D01*
X1001581Y192554D01*
X1000322Y189513D01*
X999892Y186250D01*
X1000322Y182987D01*
X1001581Y179946D01*
X1003585Y177335D01*
X1006196Y175331D01*
X1009237Y174072D01*
X1012500Y173642D01*
X1015763Y174072D01*
X1018804Y175331D01*
X1021415Y177335D01*
X1023419Y179946D01*
X1024678Y182987D01*
X1025108Y186250D01*
X1024678Y189513D01*
X1023419Y192554D01*
X1021415Y195165D01*
X1018804Y197169D01*
X1015763Y198428D01*
X1012500Y198858D01*
D02*
G37*
G36*
X960000Y197608D02*
X956737Y197178D01*
X953696Y195919D01*
X951085Y193915D01*
X949081Y191304D01*
X947822Y188263D01*
X947392Y185000D01*
X947822Y181737D01*
X949081Y178696D01*
X951085Y176085D01*
X953696Y174081D01*
X956737Y172822D01*
X959181Y172500D01*
X956737Y172178D01*
X953696Y170919D01*
X951085Y168915D01*
X949081Y166304D01*
X947822Y163263D01*
X947392Y160000D01*
X947822Y156737D01*
X949081Y153696D01*
X951085Y151085D01*
X953696Y149081D01*
X956737Y147822D01*
X960000Y147392D01*
X963263Y147822D01*
X966304Y149081D01*
X968915Y151085D01*
X970919Y153696D01*
X972178Y156737D01*
X972500Y159181D01*
X972822Y156737D01*
X974081Y153696D01*
X976085Y151085D01*
X978696Y149081D01*
X981737Y147822D01*
X985000Y147392D01*
X988263Y147822D01*
X991304Y149081D01*
X993915Y151085D01*
X995919Y153696D01*
X997178Y156737D01*
X997608Y160000D01*
X997178Y163263D01*
X995919Y166304D01*
X993915Y168915D01*
X991304Y170919D01*
X988263Y172178D01*
X985000Y172608D01*
X981737Y172178D01*
X978696Y170919D01*
X976085Y168915D01*
X974081Y166304D01*
X972822Y163263D01*
X972500Y160819D01*
X972178Y163263D01*
X970919Y166304D01*
X968915Y168915D01*
X966304Y170919D01*
X963263Y172178D01*
X960819Y172500D01*
X963263Y172822D01*
X966304Y174081D01*
X968915Y176085D01*
X970919Y178696D01*
X972178Y181737D01*
X972608Y185000D01*
X972178Y188263D01*
X970919Y191304D01*
X968915Y193915D01*
X966304Y195919D01*
X963263Y197178D01*
X960000Y197608D01*
D02*
G37*
G36*
X1010000Y142608D02*
X1006737Y142178D01*
X1003696Y140919D01*
X1001085Y138915D01*
X999081Y136304D01*
X997822Y133263D01*
X997392Y130000D01*
X997822Y126737D01*
X999081Y123696D01*
X1001085Y121085D01*
X1003696Y119081D01*
X1006737Y117822D01*
X1010000Y117392D01*
X1013263Y117822D01*
X1016304Y119081D01*
X1018915Y121085D01*
X1020919Y123696D01*
X1022178Y126737D01*
X1022608Y130000D01*
X1022178Y133263D01*
X1020919Y136304D01*
X1018915Y138915D01*
X1016304Y140919D01*
X1013263Y142178D01*
X1010000Y142608D01*
D02*
G37*
G36*
X980000D02*
X976737Y142178D01*
X973696Y140919D01*
X971085Y138915D01*
X969081Y136304D01*
X967822Y133263D01*
X967392Y130000D01*
X967822Y126737D01*
X969081Y123696D01*
X971085Y121085D01*
X973696Y119081D01*
X976737Y117822D01*
X980000Y117392D01*
X983263Y117822D01*
X986304Y119081D01*
X988915Y121085D01*
X990919Y123696D01*
X992178Y126737D01*
X992608Y130000D01*
X992178Y133263D01*
X990919Y136304D01*
X988915Y138915D01*
X986304Y140919D01*
X983263Y142178D01*
X980000Y142608D01*
D02*
G37*
G36*
X930000D02*
X926737Y142178D01*
X923696Y140919D01*
X921085Y138915D01*
X919081Y136304D01*
X917822Y133263D01*
X917392Y130000D01*
X917822Y126737D01*
X919081Y123696D01*
X921085Y121085D01*
X923696Y119081D01*
X926737Y117822D01*
X930000Y117392D01*
X933263Y117822D01*
X936304Y119081D01*
X938915Y121085D01*
X940919Y123696D01*
X942178Y126737D01*
X942608Y130000D01*
X942178Y133263D01*
X940919Y136304D01*
X938915Y138915D01*
X936304Y140919D01*
X933263Y142178D01*
X930000Y142608D01*
D02*
G37*
G36*
X1150000Y82608D02*
X1146737Y82178D01*
X1143696Y80919D01*
X1141085Y78915D01*
X1139081Y76304D01*
X1137822Y73263D01*
X1137392Y70000D01*
X1137822Y66737D01*
X1139081Y63696D01*
X1141085Y61085D01*
X1143696Y59081D01*
X1146737Y57822D01*
X1150000Y57392D01*
X1153263Y57822D01*
X1156304Y59081D01*
X1158915Y61085D01*
X1160919Y63696D01*
X1162178Y66737D01*
X1162608Y70000D01*
X1162178Y73263D01*
X1160919Y76304D01*
X1158915Y78915D01*
X1156304Y80919D01*
X1153263Y82178D01*
X1150000Y82608D01*
D02*
G37*
%LPD*%
D11*
X732351Y84500D02*
D03*
Y75500D02*
D03*
X775000Y84500D02*
D03*
Y75500D02*
D03*
X817649Y84500D02*
D03*
Y75500D02*
D03*
X586101Y85000D02*
D03*
Y76000D02*
D03*
X652500Y85000D02*
D03*
Y76000D02*
D03*
X619300Y85000D02*
D03*
Y76000D02*
D03*
X975000Y85000D02*
D03*
Y76000D02*
D03*
X767500Y555250D02*
D03*
Y564250D02*
D03*
X730000Y555250D02*
D03*
Y564250D02*
D03*
X617500Y555250D02*
D03*
Y564250D02*
D03*
X932500Y85000D02*
D03*
Y76000D02*
D03*
X1057500Y556250D02*
D03*
Y565250D02*
D03*
X946161Y556250D02*
D03*
Y565250D02*
D03*
X1017500Y85000D02*
D03*
Y76000D02*
D03*
X890000Y85000D02*
D03*
Y76000D02*
D03*
X805000Y555250D02*
D03*
Y564250D02*
D03*
X692500Y555250D02*
D03*
Y564250D02*
D03*
X655000Y555250D02*
D03*
Y564250D02*
D03*
X1020387Y556250D02*
D03*
Y565250D02*
D03*
X983274Y556250D02*
D03*
Y565250D02*
D03*
X1060000Y85000D02*
D03*
Y76000D02*
D03*
X1272750Y59250D02*
D03*
Y50250D02*
D03*
X946500Y586500D02*
D03*
Y577500D02*
D03*
X870250Y606250D02*
D03*
Y597250D02*
D03*
X976750Y268500D02*
D03*
Y259500D02*
D03*
X985250Y268500D02*
D03*
Y259500D02*
D03*
X1008000Y374500D02*
D03*
Y383500D02*
D03*
X937250Y337028D02*
D03*
Y346028D02*
D03*
X982000Y383750D02*
D03*
Y392750D02*
D03*
X959750Y268500D02*
D03*
Y259500D02*
D03*
X968000Y268500D02*
D03*
Y259500D02*
D03*
X1052750Y328000D02*
D03*
Y337000D02*
D03*
X1062910Y327928D02*
D03*
Y336928D02*
D03*
D14*
X870150Y615000D02*
D03*
X860750D02*
D03*
X860900Y606250D02*
D03*
X851500D02*
D03*
X999150Y374750D02*
D03*
X989750D02*
D03*
X1043400Y286000D02*
D03*
X1034000D02*
D03*
D16*
X1017000Y383700D02*
D03*
Y374300D02*
D03*
D23*
X876367Y525474D02*
D03*
X867367D02*
D03*
X1098080Y442600D02*
D03*
X1107079D02*
D03*
X876500Y155000D02*
D03*
X867500D02*
D03*
X1098080Y363950D02*
D03*
X1107079D02*
D03*
X1098080Y521250D02*
D03*
X1107079D02*
D03*
X876500Y302500D02*
D03*
X867500D02*
D03*
X1098750Y167325D02*
D03*
X1107750D02*
D03*
X1098750Y245975D02*
D03*
X1107750D02*
D03*
X876367Y487816D02*
D03*
X867367D02*
D03*
X876367Y450158D02*
D03*
X867367D02*
D03*
X876367Y187500D02*
D03*
X867367D02*
D03*
X876500Y122500D02*
D03*
X867500D02*
D03*
X1098080Y324625D02*
D03*
X1107079D02*
D03*
X1098080Y481925D02*
D03*
X1107079D02*
D03*
X876500Y412500D02*
D03*
X867500D02*
D03*
X876367Y337500D02*
D03*
X867367D02*
D03*
X876500Y276000D02*
D03*
X867500D02*
D03*
X1098080Y403275D02*
D03*
X1107079D02*
D03*
X1098750Y128000D02*
D03*
X1107750D02*
D03*
X1098750Y206650D02*
D03*
X1107750D02*
D03*
X1098750Y285300D02*
D03*
X1107750D02*
D03*
X955500Y596250D02*
D03*
X946500D02*
D03*
X955500Y606664D02*
D03*
X946500D02*
D03*
X994000Y268500D02*
D03*
X1003000D02*
D03*
X1049250Y301000D02*
D03*
X1058250D02*
D03*
X955250Y374500D02*
D03*
X946250D02*
D03*
X955404Y383250D02*
D03*
X946404D02*
D03*
X1052000Y292750D02*
D03*
X1061000D02*
D03*
X1042500Y309750D02*
D03*
X1051500D02*
D03*
X1052750Y319250D02*
D03*
X1061750D02*
D03*
X1061000Y284250D02*
D03*
X1052000D02*
D03*
X990250Y383750D02*
D03*
X999250D02*
D03*
D24*
X1260750Y44750D02*
D03*
Y60750D02*
D03*
X948500Y266750D02*
D03*
Y250750D02*
D03*
D27*
X900500Y570000D02*
D03*
X916500D02*
D03*
D37*
X1010028Y365000D02*
D03*
Y358000D02*
D03*
X994000Y285750D02*
D03*
Y278750D02*
D03*
X962000Y349000D02*
D03*
Y342000D02*
D03*
X970000Y357500D02*
D03*
Y350500D02*
D03*
X994028Y366000D02*
D03*
Y359000D02*
D03*
X1026000Y278500D02*
D03*
Y285500D02*
D03*
D82*
X946250Y374500D02*
G03*
X946404Y374872I-372J372D01*
G01*
X888150Y321150D02*
X898250D01*
X888250Y260479D02*
X892250Y264479D01*
Y264750D01*
X884500Y272500D02*
Y272750D01*
Y272500D02*
X892250Y264750D01*
X946404Y374872D02*
Y383250D01*
X955327Y383173D02*
X955404Y383250D01*
X955327Y374577D02*
Y383173D01*
X955250Y374500D02*
X955327Y374577D01*
D84*
X1292501Y80249D02*
G03*
X1293104Y80000I603J604D01*
G01*
X1292500Y80250D02*
G03*
X1292501Y80249I604J604D01*
G01*
X1282750Y90000D02*
G03*
X1294821Y85000I12071J12071D01*
G01*
X1293104Y80000D02*
X1302750D01*
X1292501Y80249D02*
X1292750Y80000D01*
X1292500Y80250D02*
X1292501Y80249D01*
X1294821Y85000D02*
X1302750D01*
X1277750D02*
X1282750Y90000D01*
X1272750Y59500D02*
Y70000D01*
X904000Y573500D02*
Y583750D01*
X900500Y570000D02*
X904000Y573500D01*
X911750Y582000D02*
X913000Y580750D01*
Y573500D02*
X916500Y570000D01*
X913000Y573500D02*
Y580750D01*
X904000Y583750D02*
X905250Y585000D01*
X954028Y349000D02*
X954528Y349500D01*
X1272750Y70000D02*
Y70250D01*
X1299250Y112000D02*
Y116930D01*
X1290202Y125978D02*
X1299250Y116930D01*
X1289844Y125978D02*
X1290202D01*
X1297250Y110000D02*
X1299250Y112000D01*
X1292750Y110000D02*
X1297250D01*
X1290750Y118443D02*
Y118500D01*
X1287781Y115474D02*
X1290750Y118443D01*
X1287781Y110031D02*
Y115474D01*
X1287750Y110000D02*
X1287781Y110031D01*
X1282750Y110000D02*
Y120750D01*
X1275250Y122500D02*
X1277750Y120000D01*
Y110000D02*
Y120000D01*
X1272750Y120000D02*
X1275250Y122500D01*
X1272750Y110000D02*
Y120000D01*
X1302750Y80000D02*
X1302750Y80000D01*
X1277750Y70000D02*
Y85000D01*
X1292750Y70000D02*
Y80000D01*
X1282750Y59000D02*
Y70000D01*
Y59000D02*
X1285127Y56623D01*
X1290377D01*
X1290750Y56250D01*
X1298000Y62500D02*
X1304250Y56250D01*
X1290344Y62500D02*
X1298000D01*
X1287775Y65069D02*
X1290344Y62500D01*
X1287775Y65069D02*
Y69975D01*
X1287750Y70000D02*
X1287775Y69975D01*
X1311438Y98500D02*
X1312250D01*
X1308129Y95191D02*
X1311438Y98500D01*
X1302941Y95191D02*
X1308129D01*
X1302750Y95000D02*
X1302941Y95191D01*
X1302750Y90000D02*
X1312250D01*
X1302750Y85000D02*
X1302775Y84975D01*
X1302750Y100000D02*
Y105750D01*
Y100000D02*
X1302750Y100000D01*
X954028Y350000D02*
X961000D01*
X962000Y349000D01*
Y349000D02*
Y349000D01*
X954008Y349020D02*
X954028Y349000D01*
X953048Y349020D02*
X954008D01*
D88*
X752000Y53165D02*
X753333Y54497D01*
X755999D01*
X757332Y53165D01*
Y51832D01*
X755999Y50499D01*
X757332Y49166D01*
Y47833D01*
X755999Y46500D01*
X753333D01*
X752000Y47833D01*
Y49166D01*
X753333Y50499D01*
X752000Y51832D01*
Y53165D01*
X753333Y50499D02*
X755999D01*
D89*
X1092500Y550000D02*
D03*
Y90000D02*
D03*
X1345000Y625000D02*
D03*
X986000Y645000D02*
D03*
X826000Y5000D02*
D03*
X986000D02*
D03*
X1345000Y25000D02*
D03*
Y325000D02*
D03*
Y175000D02*
D03*
Y475000D02*
D03*
X806000Y645000D02*
D03*
X607000Y43000D02*
D03*
Y593000D02*
D03*
X850000Y375000D02*
D03*
Y550000D02*
D03*
Y225000D02*
D03*
Y90000D02*
D03*
X695000D02*
D03*
X560000Y550000D02*
D03*
D90*
X640000Y35000D02*
D03*
Y600500D02*
D03*
X1186000Y640000D02*
D03*
Y10000D02*
D03*
D91*
X1175520Y596814D02*
D03*
X1206000Y53000D02*
D03*
D92*
X1017000Y383750D02*
D03*
Y374250D02*
D03*
X1107750Y131500D02*
D03*
X933750Y274000D02*
D03*
X885550Y305250D02*
D03*
X1012500Y186250D02*
D03*
X929500Y207250D02*
D03*
X884500Y341500D02*
D03*
X912000D02*
D03*
X946250Y451000D02*
D03*
X946500Y423000D02*
D03*
X920000Y265750D02*
D03*
X923000Y295500D02*
D03*
X991250Y401500D02*
D03*
X906285Y208500D02*
D03*
X1107750Y189000D02*
D03*
X1151250Y214000D02*
D03*
X1157750Y230250D02*
D03*
X904000Y345750D02*
D03*
X892500Y345750D02*
D03*
X962028Y286000D02*
D03*
X1201750Y241750D02*
D03*
Y225250D02*
D03*
X1210750Y256000D02*
D03*
X1205621Y233000D02*
D03*
X1212021D02*
D03*
X996250Y253250D02*
D03*
X1135250Y230500D02*
D03*
X1150000Y230250D02*
D03*
X1159100Y214000D02*
D03*
X1165500D02*
D03*
X1186950Y267757D02*
D03*
X1142974Y230474D02*
D03*
X1107750Y357250D02*
D03*
X1122172Y595250D02*
D03*
Y611250D02*
D03*
X1174250Y204257D02*
D03*
X1225050Y178857D02*
D03*
Y394757D02*
D03*
X1085439Y150772D02*
D03*
X1075000Y50000D02*
D03*
X1105000D02*
D03*
X875000Y120000D02*
D03*
X1297500Y335000D02*
D03*
Y365000D02*
D03*
X820000Y49750D02*
D03*
X1090000Y50000D02*
D03*
X1130000Y51085D02*
D03*
X1085414Y300000D02*
D03*
X1085500Y182523D02*
D03*
X1025000Y50000D02*
D03*
X995000D02*
D03*
X1297500Y442500D02*
D03*
Y472500D02*
D03*
X889360Y517500D02*
D03*
Y547500D02*
D03*
X627500Y547157D02*
D03*
X597500D02*
D03*
X888923Y144185D02*
D03*
Y174185D02*
D03*
X612500Y97500D02*
D03*
X582500D02*
D03*
X655000Y555000D02*
D03*
X807500Y75000D02*
D03*
X782500D02*
D03*
X757500D02*
D03*
X732500D02*
D03*
X662500D02*
D03*
X637500D02*
D03*
X612500D02*
D03*
X587500D02*
D03*
X565000D02*
D03*
X807500Y85000D02*
D03*
X782500D02*
D03*
X757500D02*
D03*
X732500D02*
D03*
X662500D02*
D03*
X637500D02*
D03*
X612500D02*
D03*
X565000D02*
D03*
X825000Y565000D02*
D03*
X802500D02*
D03*
Y555000D02*
D03*
X777500D02*
D03*
Y565000D02*
D03*
X752500Y555000D02*
D03*
X730000Y565000D02*
D03*
Y555000D02*
D03*
X705000D02*
D03*
Y565000D02*
D03*
X680000Y555000D02*
D03*
Y565000D02*
D03*
X655000D02*
D03*
X630000D02*
D03*
X540000Y-7500D02*
D03*
Y17500D02*
D03*
Y37500D02*
D03*
Y60000D02*
D03*
Y85000D02*
D03*
X552500Y107500D02*
D03*
X575000Y112500D02*
D03*
X600000D02*
D03*
X622500D02*
D03*
X647500D02*
D03*
X670000D02*
D03*
X717500D02*
D03*
X730000D02*
D03*
X755000D02*
D03*
X780000D02*
D03*
X810000Y117500D02*
D03*
X830000Y140000D02*
D03*
Y170000D02*
D03*
Y190000D02*
D03*
Y250000D02*
D03*
Y277500D02*
D03*
Y302500D02*
D03*
Y330000D02*
D03*
Y355000D02*
D03*
Y392500D02*
D03*
Y402500D02*
D03*
Y412500D02*
D03*
Y432500D02*
D03*
Y442500D02*
D03*
Y462500D02*
D03*
Y472500D02*
D03*
Y500250D02*
D03*
X801072Y528000D02*
D03*
X770500Y527750D02*
D03*
X750500Y527500D02*
D03*
X730500D02*
D03*
X710500D02*
D03*
X690500D02*
D03*
X670750D02*
D03*
X650500D02*
D03*
X630500D02*
D03*
X610750D02*
D03*
X590500D02*
D03*
X540000Y580000D02*
D03*
Y600000D02*
D03*
Y620000D02*
D03*
Y640000D02*
D03*
Y660000D02*
D03*
X1095000Y415000D02*
D03*
Y440000D02*
D03*
X1025000Y550000D02*
D03*
X875000Y545000D02*
D03*
Y520000D02*
D03*
Y500000D02*
D03*
Y435000D02*
D03*
X970000Y85000D02*
D03*
X940000D02*
D03*
X915000D02*
D03*
X890000D02*
D03*
X875000Y105000D02*
D03*
Y135000D02*
D03*
Y150000D02*
D03*
Y165000D02*
D03*
Y175000D02*
D03*
Y195000D02*
D03*
Y210000D02*
D03*
X881500Y410550D02*
D03*
X881250Y477774D02*
D03*
X832500Y180250D02*
D03*
Y200250D02*
D03*
X832250Y263250D02*
D03*
Y289750D02*
D03*
X832500Y316250D02*
D03*
X832250Y342750D02*
D03*
Y422000D02*
D03*
Y452250D02*
D03*
X841000Y581815D02*
D03*
X1260750Y44750D02*
D03*
Y60750D02*
D03*
X882750Y264750D02*
D03*
X892250D02*
D03*
X840133Y351235D02*
D03*
X852500Y334250D02*
D03*
X885000Y160000D02*
D03*
X930000D02*
D03*
X960000D02*
D03*
X985000D02*
D03*
X960000Y185000D02*
D03*
X930000D02*
D03*
X885000D02*
D03*
X850000D02*
D03*
Y430000D02*
D03*
Y325000D02*
D03*
X840000Y275000D02*
D03*
Y330000D02*
D03*
Y400000D02*
D03*
Y440000D02*
D03*
Y470000D02*
D03*
X710000Y580000D02*
D03*
X1020000Y600000D02*
D03*
Y610000D02*
D03*
X1200000Y470000D02*
D03*
Y500000D02*
D03*
X1130000Y570000D02*
D03*
X1140000Y590000D02*
D03*
X1270000Y580000D02*
D03*
Y510000D02*
D03*
Y540000D02*
D03*
X1280000Y600000D02*
D03*
X1250000D02*
D03*
X1210000Y580000D02*
D03*
Y600000D02*
D03*
X1305236Y400000D02*
D03*
X1310000Y350000D02*
D03*
X1300000Y300000D02*
D03*
X1210000Y100000D02*
D03*
X1130000D02*
D03*
X1150000Y70000D02*
D03*
X1250000Y50000D02*
D03*
X1170000D02*
D03*
X1050000D02*
D03*
X1010000D02*
D03*
X970000D02*
D03*
X850000D02*
D03*
X890000D02*
D03*
X930000D02*
D03*
X970000Y100000D02*
D03*
X930000D02*
D03*
X890000D02*
D03*
X1050000D02*
D03*
Y120000D02*
D03*
X1010000Y130000D02*
D03*
X980000D02*
D03*
X930000D02*
D03*
X890000D02*
D03*
X840000D02*
D03*
X810000Y100000D02*
D03*
X770000D02*
D03*
X730000D02*
D03*
X640000D02*
D03*
X600000D02*
D03*
X560000D02*
D03*
X1054500Y444250D02*
D03*
X1070500D02*
D03*
Y453750D02*
D03*
X1054500D02*
D03*
X992750Y438750D02*
D03*
X976750D02*
D03*
X992750Y448250D02*
D03*
X976750D02*
D03*
X1055876Y194750D02*
D03*
X1028250Y235750D02*
D03*
X836250Y161000D02*
D03*
Y150750D02*
D03*
X836750Y491000D02*
D03*
Y480750D02*
D03*
X860750Y615000D02*
D03*
X870250Y614750D02*
D03*
X884000Y599750D02*
D03*
Y612750D02*
D03*
X923000D02*
D03*
X919750Y606250D02*
D03*
X905250Y585000D02*
D03*
X892250D02*
D03*
X892750Y593500D02*
D03*
Y612250D02*
D03*
X901954Y602996D02*
D03*
X881000Y593250D02*
D03*
Y606250D02*
D03*
X923000Y599750D02*
D03*
X919750Y593250D02*
D03*
X911750Y582000D02*
D03*
X898750D02*
D03*
X911250Y593750D02*
D03*
Y612250D02*
D03*
X851500Y606500D02*
D03*
X861000Y606311D02*
D03*
X857000Y595500D02*
D03*
X870250Y597250D02*
D03*
X915792Y217993D02*
D03*
X1001500Y609250D02*
D03*
X946500Y577500D02*
D03*
X946490Y586500D02*
D03*
X1042500Y342250D02*
D03*
X922900Y348400D02*
D03*
X928000Y342250D02*
D03*
X921545Y399770D02*
D03*
X916000Y405000D02*
D03*
X1060558Y400250D02*
D03*
X865500Y175500D02*
D03*
Y311500D02*
D03*
Y136750D02*
D03*
Y521907D02*
D03*
Y497725D02*
D03*
Y473544D02*
D03*
Y425181D02*
D03*
Y328455D02*
D03*
Y280092D02*
D03*
Y159185D02*
D03*
Y110822D02*
D03*
Y449362D02*
D03*
Y352637D02*
D03*
X1107750Y150250D02*
D03*
X1108750Y456750D02*
D03*
X1108250Y416500D02*
D03*
X1107750Y505250D02*
D03*
Y521250D02*
D03*
X903230Y75000D02*
D03*
X999955D02*
D03*
X1118000Y495250D02*
D03*
X1120500Y257000D02*
D03*
X583440Y565250D02*
D03*
X1067068D02*
D03*
X1042887D02*
D03*
X1018705D02*
D03*
X994524D02*
D03*
X970343D02*
D03*
X946161D02*
D03*
X873617D02*
D03*
X752710D02*
D03*
X607621D02*
D03*
X879048Y75000D02*
D03*
X927411D02*
D03*
X951593D02*
D03*
X975774D02*
D03*
X1048318D02*
D03*
X1072500D02*
D03*
X1141500Y433750D02*
D03*
X1148148Y440000D02*
D03*
X1042051Y377000D02*
D03*
X1002028Y334000D02*
D03*
X1023250Y245350D02*
D03*
Y254750D02*
D03*
X1186950Y229657D02*
D03*
X982000Y383750D02*
D03*
X946500Y443617D02*
D03*
X1076750Y137500D02*
D03*
X1208309Y454772D02*
D03*
X1237750Y432857D02*
D03*
Y445557D02*
D03*
Y458257D02*
D03*
X1225050Y445557D02*
D03*
Y458257D02*
D03*
X1253500Y390250D02*
D03*
X1042051Y398769D02*
D03*
X1000750Y400250D02*
D03*
X971600Y408000D02*
D03*
X981000D02*
D03*
X1119500Y224500D02*
D03*
X1156750Y262250D02*
D03*
X1078500Y259500D02*
D03*
X1071250Y266000D02*
D03*
X1311910Y530750D02*
D03*
X1272750Y59250D02*
D03*
X1202500Y287639D02*
D03*
X986028Y302000D02*
D03*
X994028Y294000D02*
D03*
X997000Y597250D02*
D03*
Y613250D02*
D03*
X1001500Y593250D02*
D03*
X1311910Y429914D02*
D03*
X691750Y580000D02*
D03*
X933750Y293025D02*
D03*
X894294Y481023D02*
D03*
X1087314Y449846D02*
D03*
X1060000Y350000D02*
D03*
X882750Y254000D02*
D03*
X1054396Y464566D02*
D03*
X1033750Y493250D02*
D03*
X1040250Y490250D02*
D03*
X1046750Y493250D02*
D03*
X1060250Y500250D02*
D03*
X1063000Y506750D02*
D03*
X1060250Y513250D02*
D03*
X1063250Y519750D02*
D03*
X1053250Y526750D02*
D03*
X1046750Y529750D02*
D03*
X1040250Y526750D02*
D03*
X1033750Y529750D02*
D03*
X1026750Y519750D02*
D03*
X1023750Y513250D02*
D03*
X1026750Y506750D02*
D03*
X1023750Y500250D02*
D03*
X1039500Y480750D02*
D03*
X1070396Y464566D02*
D03*
X1085414Y456946D02*
D03*
Y468122D02*
D03*
Y479044D02*
D03*
Y489458D02*
D03*
X1094414Y456946D02*
D03*
Y468122D02*
D03*
Y479044D02*
D03*
Y489458D02*
D03*
X1088314Y504572D02*
D03*
Y520572D02*
D03*
X1072896Y480694D02*
D03*
Y490094D02*
D03*
Y499744D02*
D03*
Y509144D02*
D03*
X1048500Y480750D02*
D03*
X1029082Y481076D02*
D03*
X999250Y543392D02*
D03*
X989250D02*
D03*
Y552392D02*
D03*
X999250D02*
D03*
X1042500Y540750D02*
D03*
Y550500D02*
D03*
X1012500Y540500D02*
D03*
Y550500D02*
D03*
X976000Y540500D02*
D03*
Y550500D02*
D03*
X946000Y540500D02*
D03*
Y550250D02*
D03*
X1019682Y481076D02*
D03*
X1013714Y509342D02*
D03*
Y518342D02*
D03*
X993394Y501778D02*
D03*
X990494Y467529D02*
D03*
Y478113D02*
D03*
Y488696D02*
D03*
X999494D02*
D03*
Y478113D02*
D03*
Y467529D02*
D03*
Y456946D02*
D03*
X990494D02*
D03*
X976884Y459446D02*
D03*
X960884D02*
D03*
X977646Y477774D02*
D03*
X968246D02*
D03*
X955404D02*
D03*
X946404D02*
D03*
X934848Y477520D02*
D03*
X925448D02*
D03*
X941000Y490750D02*
D03*
X947500Y487750D02*
D03*
X954000Y490750D02*
D03*
X967500Y497750D02*
D03*
X970500Y504250D02*
D03*
X967500Y510750D02*
D03*
X970500Y517250D02*
D03*
X960500Y524250D02*
D03*
X954000Y527250D02*
D03*
X947500Y524250D02*
D03*
X941000Y527250D02*
D03*
X931000Y497750D02*
D03*
X934000Y504250D02*
D03*
X931000Y510750D02*
D03*
X934000Y517250D02*
D03*
X980186Y495934D02*
D03*
Y505334D02*
D03*
X993394Y517778D02*
D03*
X920606Y515874D02*
D03*
X911606D02*
D03*
X1069666Y578358D02*
D03*
X998050Y580750D02*
D03*
X1055624Y611758D02*
D03*
X951500Y408321D02*
D03*
Y392321D02*
D03*
X946500Y430500D02*
D03*
X921160Y436750D02*
D03*
X889360Y424050D02*
D03*
Y436750D02*
D03*
Y449450D02*
D03*
X903500Y388500D02*
D03*
X882000Y398500D02*
D03*
X893250Y389500D02*
D03*
Y398500D02*
D03*
X929000Y391500D02*
D03*
X903500Y396000D02*
D03*
X914000Y391500D02*
D03*
X915250Y378000D02*
D03*
X904750D02*
D03*
X892500D02*
D03*
X898250Y321150D02*
D03*
Y289350D02*
D03*
X910950D02*
D03*
X914250Y231500D02*
D03*
X930250Y253500D02*
D03*
X857000Y581815D02*
D03*
X841000Y595500D02*
D03*
X727250Y591500D02*
D03*
X735000Y598000D02*
D03*
X727250Y604500D02*
D03*
X735000Y611000D02*
D03*
X1250250Y90000D02*
D03*
X1255250Y95000D02*
D03*
X1262750Y106500D02*
D03*
Y73750D02*
D03*
X1290750Y118500D02*
D03*
X1282750Y120750D02*
D03*
X1275250Y131500D02*
D03*
Y122500D02*
D03*
X1292500Y99750D02*
D03*
X1272750D02*
D03*
Y80250D02*
D03*
X1282750Y90000D02*
D03*
X1292500Y80250D02*
D03*
X1272750Y49750D02*
D03*
X1290750Y56250D02*
D03*
Y40250D02*
D03*
X1304250Y56250D02*
D03*
Y40250D02*
D03*
X1312250Y98500D02*
D03*
Y90000D02*
D03*
X1302750Y105750D02*
D03*
X1310164Y125978D02*
D03*
X1289844D02*
D03*
Y134978D02*
D03*
X1310164D02*
D03*
X1309910Y147750D02*
D03*
X1299750D02*
D03*
X1289590D02*
D03*
Y156750D02*
D03*
X1299750D02*
D03*
X1309910D02*
D03*
X1306608Y167688D02*
D03*
X1293908D02*
D03*
Y177088D02*
D03*
Y189364D02*
D03*
X1306608D02*
D03*
Y177088D02*
D03*
Y198764D02*
D03*
X1293908D02*
D03*
Y211040D02*
D03*
X1306608D02*
D03*
Y220440D02*
D03*
X1293908D02*
D03*
Y232716D02*
D03*
X1306608D02*
D03*
Y242116D02*
D03*
X1293908D02*
D03*
Y254392D02*
D03*
X1306608D02*
D03*
X1293908Y263792D02*
D03*
Y276068D02*
D03*
Y285468D02*
D03*
X1302588Y387434D02*
D03*
X1292338D02*
D03*
X1312164Y473782D02*
D03*
Y482782D02*
D03*
X1292338Y417434D02*
D03*
X1302588D02*
D03*
X1291000Y496750D02*
D03*
X1306500D02*
D03*
X1298702Y496726D02*
D03*
X1291000Y516250D02*
D03*
X1306250D02*
D03*
X1298702Y516226D02*
D03*
X1299750Y532250D02*
D03*
X1289500D02*
D03*
X1311910Y539750D02*
D03*
X1312418Y555498D02*
D03*
Y564498D02*
D03*
X1298448Y582122D02*
D03*
X1299750Y562250D02*
D03*
X1289500D02*
D03*
X1298448Y608122D02*
D03*
X1146000Y613000D02*
D03*
X1137000D02*
D03*
X1106678Y610742D02*
D03*
X1103812Y579120D02*
D03*
X1094812D02*
D03*
X1106678Y594742D02*
D03*
X1090500Y592250D02*
D03*
Y607250D02*
D03*
X1078666Y578358D02*
D03*
X1071000Y592000D02*
D03*
Y607250D02*
D03*
X1055624Y595758D02*
D03*
X1038606Y582122D02*
D03*
Y608122D02*
D03*
X1007450Y580750D02*
D03*
X974250Y611500D02*
D03*
X984750D02*
D03*
Y581250D02*
D03*
X974250D02*
D03*
X933750Y586500D02*
D03*
Y596250D02*
D03*
Y606750D02*
D03*
X955500Y596250D02*
D03*
Y606664D02*
D03*
X870250Y606250D02*
D03*
X946500Y606664D02*
D03*
Y596250D02*
D03*
X816000Y611000D02*
D03*
X808250Y604500D02*
D03*
X816000Y598000D02*
D03*
X808250Y591500D02*
D03*
X750500Y611000D02*
D03*
Y598000D02*
D03*
X758000Y591500D02*
D03*
Y604500D02*
D03*
X758750Y579750D02*
D03*
X749750D02*
D03*
X736250D02*
D03*
X726850D02*
D03*
X682750Y580000D02*
D03*
X683250Y591500D02*
D03*
X691000Y598000D02*
D03*
X683500Y604500D02*
D03*
X690750Y611000D02*
D03*
X897750Y254000D02*
D03*
X930250Y231500D02*
D03*
X914250Y253500D02*
D03*
X660500Y527750D02*
D03*
X680500D02*
D03*
X780500D02*
D03*
X760500D02*
D03*
X740500D02*
D03*
X720500D02*
D03*
X700500D02*
D03*
X640500D02*
D03*
X620750D02*
D03*
X600500Y527500D02*
D03*
X885550Y289350D02*
D03*
X948500Y250750D02*
D03*
X1131805Y392769D02*
D03*
X1127750Y375250D02*
D03*
X982000Y392750D02*
D03*
X1010028Y318000D02*
D03*
X1217250Y267750D02*
D03*
X1010028Y310000D02*
D03*
X1237750Y305857D02*
D03*
Y293157D02*
D03*
X1010028Y302000D02*
D03*
X986028Y294000D02*
D03*
X1002028Y318000D02*
D03*
Y310000D02*
D03*
Y286000D02*
D03*
X1010028Y294000D02*
D03*
X1002028Y278000D02*
D03*
X1010028Y286000D02*
D03*
X970028Y310000D02*
D03*
X1186950Y153457D02*
D03*
Y255057D02*
D03*
X1174250Y267757D02*
D03*
Y280457D02*
D03*
X1225050Y293157D02*
D03*
Y280457D02*
D03*
X1237750Y242357D02*
D03*
Y255057D02*
D03*
Y166157D02*
D03*
X1186950Y140757D02*
D03*
X1174250Y166157D02*
D03*
X1186950D02*
D03*
X1174250Y178857D02*
D03*
X1186950D02*
D03*
X1174250Y191557D02*
D03*
X1186950D02*
D03*
X970028Y286000D02*
D03*
X1041250Y301750D02*
D03*
X978028Y310000D02*
D03*
X970028Y318000D02*
D03*
X962028Y310000D02*
D03*
X970028Y294000D02*
D03*
X962028Y302000D02*
D03*
X978028Y286000D02*
D03*
X986028D02*
D03*
X970028Y278000D02*
D03*
X1041250Y294000D02*
D03*
Y318000D02*
D03*
X1003000Y268500D02*
D03*
X996250Y242250D02*
D03*
X994000Y268500D02*
D03*
X976750Y259500D02*
D03*
X985250D02*
D03*
Y268500D02*
D03*
X976750D02*
D03*
X968000Y259500D02*
D03*
X959750Y259500D02*
D03*
X968000Y268500D02*
D03*
X959750Y268500D02*
D03*
X948500Y266750D02*
D03*
X937250Y346028D02*
D03*
Y337028D02*
D03*
X946250Y374500D02*
D03*
X955250D02*
D03*
X990250Y383750D02*
D03*
X1008000Y374500D02*
D03*
Y383500D02*
D03*
X1061000Y284250D02*
D03*
X1052000D02*
D03*
X1043400Y286000D02*
D03*
X1052000Y292750D02*
D03*
X1061000D02*
D03*
X1058250Y301000D02*
D03*
X1049250D02*
D03*
X1051500Y309750D02*
D03*
X1042500D02*
D03*
X1042590Y327828D02*
D03*
X1052750Y319250D02*
D03*
X1061750D02*
D03*
X1052750Y328000D02*
D03*
X1062910Y327928D02*
D03*
X1052750Y337000D02*
D03*
X1062910Y336928D02*
D03*
X1026028Y310000D02*
D03*
X1018028D02*
D03*
X962000Y358000D02*
D03*
X962028Y342000D02*
D03*
X946028D02*
D03*
X1034028Y310000D02*
D03*
X1018028Y318000D02*
D03*
X1034028Y286000D02*
D03*
Y294000D02*
D03*
X989750Y374750D02*
D03*
X999150D02*
D03*
X999250Y383750D02*
D03*
X1010028Y350000D02*
D03*
X1034028Y278000D02*
D03*
Y302000D02*
D03*
Y318000D02*
D03*
Y326000D02*
D03*
Y334000D02*
D03*
Y342000D02*
D03*
Y358000D02*
D03*
Y366000D02*
D03*
X1026028D02*
D03*
Y358000D02*
D03*
Y350000D02*
D03*
Y342000D02*
D03*
Y334000D02*
D03*
Y326000D02*
D03*
Y318000D02*
D03*
Y302000D02*
D03*
Y294000D02*
D03*
Y286000D02*
D03*
Y278000D02*
D03*
X1018028D02*
D03*
Y286000D02*
D03*
Y294000D02*
D03*
Y302000D02*
D03*
Y326000D02*
D03*
Y334000D02*
D03*
Y342000D02*
D03*
Y350000D02*
D03*
Y358000D02*
D03*
X1010028Y366000D02*
D03*
Y358000D02*
D03*
Y342000D02*
D03*
Y334000D02*
D03*
Y326000D02*
D03*
Y278000D02*
D03*
X1002028Y294000D02*
D03*
Y302000D02*
D03*
Y326000D02*
D03*
Y342000D02*
D03*
Y350000D02*
D03*
Y358000D02*
D03*
Y366000D02*
D03*
X994028D02*
D03*
Y358000D02*
D03*
Y350000D02*
D03*
Y342000D02*
D03*
Y334000D02*
D03*
Y326000D02*
D03*
Y318000D02*
D03*
Y310000D02*
D03*
Y302000D02*
D03*
Y286000D02*
D03*
Y278000D02*
D03*
X986028D02*
D03*
X978028D02*
D03*
Y294000D02*
D03*
Y302000D02*
D03*
X986028Y310000D02*
D03*
Y318000D02*
D03*
X978028D02*
D03*
Y326000D02*
D03*
X986028D02*
D03*
Y334000D02*
D03*
X978028D02*
D03*
Y342000D02*
D03*
X986028D02*
D03*
Y350000D02*
D03*
Y358000D02*
D03*
Y366000D02*
D03*
X962028Y278000D02*
D03*
X954028D02*
D03*
X946028D02*
D03*
X954028Y286000D02*
D03*
X946028D02*
D03*
X962028Y294000D02*
D03*
X954028D02*
D03*
X946028D02*
D03*
Y302000D02*
D03*
X954028D02*
D03*
X970028D02*
D03*
X954028Y310000D02*
D03*
X946028D02*
D03*
X962028Y318000D02*
D03*
X954028D02*
D03*
X946028D02*
D03*
X970028Y326000D02*
D03*
X962028D02*
D03*
X954028D02*
D03*
X946028D02*
D03*
X970028Y334000D02*
D03*
X962028D02*
D03*
X954028D02*
D03*
X946028D02*
D03*
X970028Y342000D02*
D03*
X954028D02*
D03*
Y350000D02*
D03*
X970028D02*
D03*
X978028D02*
D03*
Y358000D02*
D03*
Y366000D02*
D03*
X970028D02*
D03*
Y358000D02*
D03*
X962028Y366000D02*
D03*
X946028Y358000D02*
D03*
X954028D02*
D03*
Y366000D02*
D03*
X946028D02*
D03*
X1186950Y280457D02*
D03*
Y293157D02*
D03*
X1174250Y305857D02*
D03*
Y293157D02*
D03*
X1186950Y305857D02*
D03*
X1237750Y280457D02*
D03*
X1186950Y89957D02*
D03*
X1174250Y153457D02*
D03*
X1237750Y77257D02*
D03*
Y572557D02*
D03*
X1174250D02*
D03*
X1225050Y77257D02*
D03*
Y572557D02*
D03*
X1186950Y77257D02*
D03*
Y572557D02*
D03*
X1237750Y559857D02*
D03*
X1174250Y89957D02*
D03*
Y559857D02*
D03*
X1225050Y89957D02*
D03*
Y559857D02*
D03*
X1186950D02*
D03*
X1237750Y547157D02*
D03*
X1174250Y102657D02*
D03*
Y547157D02*
D03*
X1225050Y102657D02*
D03*
Y547157D02*
D03*
X1186950Y102657D02*
D03*
Y547157D02*
D03*
X1237750Y115357D02*
D03*
Y534457D02*
D03*
X1174250Y115357D02*
D03*
Y534457D02*
D03*
X1225050D02*
D03*
X1186950Y115357D02*
D03*
X1237750Y128057D02*
D03*
Y521757D02*
D03*
X1174250D02*
D03*
X1225050D02*
D03*
X1186950Y128057D02*
D03*
X1237750Y509057D02*
D03*
X1174250Y140757D02*
D03*
Y509057D02*
D03*
X1225050Y140757D02*
D03*
Y509057D02*
D03*
X1186950D02*
D03*
X1237750Y496357D02*
D03*
X1174250D02*
D03*
X1225050Y153457D02*
D03*
X1186950Y496357D02*
D03*
X1237750Y483657D02*
D03*
X1174250D02*
D03*
X1225050Y166157D02*
D03*
X1186950Y483657D02*
D03*
X1237750Y178857D02*
D03*
Y470957D02*
D03*
X1174250D02*
D03*
X1225050D02*
D03*
X1186950D02*
D03*
X1237750Y191557D02*
D03*
X1174250Y458257D02*
D03*
X1225050Y191557D02*
D03*
X1186950Y458257D02*
D03*
X1237750Y204257D02*
D03*
X1174250Y445557D02*
D03*
X1225050Y204257D02*
D03*
X1186950D02*
D03*
Y445557D02*
D03*
X1237750Y216957D02*
D03*
X1174250D02*
D03*
Y432857D02*
D03*
X1225050Y216957D02*
D03*
X1186950D02*
D03*
Y432857D02*
D03*
X1237750Y229657D02*
D03*
Y420157D02*
D03*
X1174250Y229657D02*
D03*
Y420157D02*
D03*
X1225050Y229657D02*
D03*
Y420157D02*
D03*
X1186950D02*
D03*
X1237750Y407457D02*
D03*
X1174250Y242357D02*
D03*
Y407457D02*
D03*
X1225050Y242357D02*
D03*
Y407457D02*
D03*
X1186950Y242357D02*
D03*
Y407457D02*
D03*
X1237750Y394757D02*
D03*
X1174250Y255057D02*
D03*
Y394757D02*
D03*
X1225050Y255057D02*
D03*
X1186950Y394757D02*
D03*
X1237750Y382057D02*
D03*
X1174250D02*
D03*
X1225050D02*
D03*
X1186950D02*
D03*
X1237750Y369357D02*
D03*
X1174250D02*
D03*
X1225050D02*
D03*
X1186950D02*
D03*
X1237750Y356657D02*
D03*
X1174250D02*
D03*
X1237750Y343957D02*
D03*
X1225050Y356657D02*
D03*
X1186950D02*
D03*
X1174250Y343957D02*
D03*
X1237750Y318557D02*
D03*
Y331257D02*
D03*
X1174250Y318557D02*
D03*
Y331257D02*
D03*
X1225050Y305857D02*
D03*
Y343957D02*
D03*
X1186950D02*
D03*
X1225050Y318557D02*
D03*
X1186950D02*
D03*
Y331257D02*
D03*
X956184Y502044D02*
D03*
X945184D02*
D03*
X956184Y513044D02*
D03*
X945184D02*
D03*
X1048932Y504532D02*
D03*
X1037932D02*
D03*
X1048932Y515532D02*
D03*
X1037932D02*
D03*
D93*
X565750Y46250D02*
D03*
X577000Y23750D02*
D03*
X1049750Y16250D02*
D03*
X1038500Y-6250D02*
D03*
X1356250Y145000D02*
D03*
Y55000D02*
D03*
Y77500D02*
D03*
Y100000D02*
D03*
Y122500D02*
D03*
X1333750Y111250D02*
D03*
Y88750D02*
D03*
Y66250D02*
D03*
Y133750D02*
D03*
Y283750D02*
D03*
Y216250D02*
D03*
Y238750D02*
D03*
Y261250D02*
D03*
X1356250Y272500D02*
D03*
Y250000D02*
D03*
Y227500D02*
D03*
Y205000D02*
D03*
Y295000D02*
D03*
X1333750Y433750D02*
D03*
Y366250D02*
D03*
Y388750D02*
D03*
Y411250D02*
D03*
X1356250Y422500D02*
D03*
Y400000D02*
D03*
Y377500D02*
D03*
Y355000D02*
D03*
Y445000D02*
D03*
X1333750Y583750D02*
D03*
Y516250D02*
D03*
Y538750D02*
D03*
Y561250D02*
D03*
X1356250Y572500D02*
D03*
Y550000D02*
D03*
Y527500D02*
D03*
Y505000D02*
D03*
Y595000D02*
D03*
X939750Y16250D02*
D03*
X872250D02*
D03*
X894750D02*
D03*
X917250D02*
D03*
X928500Y-6250D02*
D03*
X906000D02*
D03*
X883500D02*
D03*
X861000D02*
D03*
X951000D02*
D03*
X1094750Y16250D02*
D03*
X1027250D02*
D03*
X1072250D02*
D03*
X1083500Y-6250D02*
D03*
X1061000D02*
D03*
X1016000D02*
D03*
X1106000D02*
D03*
X1128500D02*
D03*
X1117250Y16250D02*
D03*
X1151001Y-6250D02*
D03*
X1139751Y16250D02*
D03*
Y633750D02*
D03*
X1151001Y656250D02*
D03*
X1117250Y633750D02*
D03*
X1128500Y656250D02*
D03*
X1106000D02*
D03*
X1016000D02*
D03*
X1038500D02*
D03*
X1061000D02*
D03*
X1083500D02*
D03*
X1072250Y633750D02*
D03*
X1049750D02*
D03*
X1027250D02*
D03*
X1094750D02*
D03*
X1309500Y16250D02*
D03*
X1242000D02*
D03*
X1264500D02*
D03*
X1287000D02*
D03*
X1298250Y-6250D02*
D03*
X1275750D02*
D03*
X1253250D02*
D03*
X1230750D02*
D03*
X1320750D02*
D03*
Y656250D02*
D03*
X1230750D02*
D03*
X1253250D02*
D03*
X1275750D02*
D03*
X1298250D02*
D03*
X1287000Y633750D02*
D03*
X1264500D02*
D03*
X1242000D02*
D03*
X1309500D02*
D03*
X874750Y633750D02*
D03*
X942250D02*
D03*
X919750D02*
D03*
X897250D02*
D03*
X886000Y656250D02*
D03*
X908500D02*
D03*
X931000D02*
D03*
X953500D02*
D03*
X863500D02*
D03*
X841000D02*
D03*
X852250Y633750D02*
D03*
X1356250Y656250D02*
D03*
Y-6250D02*
D03*
X789001Y21500D02*
D03*
X766500D02*
D03*
X721500D02*
D03*
X699000D02*
D03*
X676500D02*
D03*
X744000D02*
D03*
X772501Y632000D02*
D03*
X750000D02*
D03*
X705000D02*
D03*
X682500D02*
D03*
X660000D02*
D03*
X727500D02*
D03*
X577000Y611750D02*
D03*
X565750Y589250D02*
D03*
D94*
X911704Y602996D02*
Y622427D01*
X905204Y602996D02*
X911704D01*
X905204D02*
Y622427D01*
X898704Y602996D02*
X901954D01*
X905204D01*
X892204D02*
Y622427D01*
X898704Y602996D02*
Y622427D01*
X892204Y602996D02*
X898704D01*
D98*
X932000Y550250D02*
Y564250D01*
X886500Y550250D02*
X932000D01*
X886500D02*
Y564250D01*
D101*
X1250268Y89982D02*
X1262732D01*
X1250250Y90000D02*
X1250268Y89982D01*
X1255250Y95000D02*
X1262750D01*
X1262732Y89982D02*
X1262750Y90000D01*
Y100000D02*
Y106500D01*
Y73750D02*
Y80000D01*
D104*
X901954Y602996D02*
D03*
D105*
X892204Y583565D02*
D03*
X898704D02*
D03*
X905204D02*
D03*
X911704D02*
D03*
Y622427D02*
D03*
X905204D02*
D03*
X898704D02*
D03*
X892204D02*
D03*
D106*
X921385Y593246D02*
D03*
Y599746D02*
D03*
Y606246D02*
D03*
Y612746D02*
D03*
X882523D02*
D03*
Y606246D02*
D03*
Y599746D02*
D03*
Y593246D02*
D03*
D107*
X996250Y242250D02*
D03*
Y258250D02*
D03*
D108*
X1041000Y318000D02*
D03*
X1034000D02*
D03*
X1041000Y302000D02*
D03*
X1034000D02*
D03*
X1041000Y294000D02*
D03*
X1034000D02*
D03*
X994250Y350000D02*
D03*
X1001250D02*
D03*
X1018500Y302000D02*
D03*
X1025500D02*
D03*
X985500Y278000D02*
D03*
X978500D02*
D03*
X1018500Y310000D02*
D03*
X1025500D02*
D03*
X978500Y350000D02*
D03*
X985500D02*
D03*
D109*
X1042590Y327828D02*
D03*
Y337028D02*
D03*
D110*
X1302750Y100000D02*
D03*
Y95000D02*
D03*
Y90000D02*
D03*
Y85000D02*
D03*
Y80000D02*
D03*
X1262750D02*
D03*
Y85000D02*
D03*
Y90000D02*
D03*
Y95000D02*
D03*
Y100000D02*
D03*
D111*
X1292750Y70000D02*
D03*
X1287750D02*
D03*
X1282750D02*
D03*
X1277750D02*
D03*
X1272750D02*
D03*
Y110000D02*
D03*
X1277750D02*
D03*
X1282750D02*
D03*
X1287750D02*
D03*
X1292750D02*
D03*
D112*
X1282750Y90000D02*
D03*
M02*
