G04*
G04 #@! TF.GenerationSoftware,Altium Limited,Altium Designer,19.0.15 (446)*
G04*
G04 Layer_Physical_Order=5*
G04 Layer_Color=16737945*
%FSLAX44Y44*%
%MOMM*%
G71*
G01*
G75*
%ADD15C,0.4000*%
%ADD82C,0.4000*%
%ADD83C,0.1200*%
%ADD84C,0.2000*%
%ADD88C,0.2540*%
%ADD89C,4.0000*%
%ADD90C,5.0000*%
%ADD92C,0.5000*%
%ADD96C,0.1500*%
%ADD97C,0.1200*%
%ADD100C,0.1700*%
%ADD101C,0.2235*%
%ADD102C,0.1800*%
G36*
X1029055Y302684D02*
X1030576Y301667D01*
X1030630Y301656D01*
X1030825Y300673D01*
X1031577Y299549D01*
X1032701Y298797D01*
X1034028Y298533D01*
X1035355Y298797D01*
X1036479Y299549D01*
X1037231Y300673D01*
X1037357Y301310D01*
X1037743D01*
X1037876Y301283D01*
X1038047Y300423D01*
X1038799Y299299D01*
X1039923Y298547D01*
X1041250Y298283D01*
X1042577Y298547D01*
X1043701Y299299D01*
X1044453Y300423D01*
X1044579Y301060D01*
X1045795D01*
X1045783Y301000D01*
X1046047Y299673D01*
X1046799Y298549D01*
X1047923Y297797D01*
X1049250Y297533D01*
X1050577Y297797D01*
X1051701Y298549D01*
X1052453Y299673D01*
X1052717Y301000D01*
X1052705Y301060D01*
X1053600D01*
X1054845Y301308D01*
X1054783Y301000D01*
X1055047Y299673D01*
X1055799Y298549D01*
X1056923Y297797D01*
X1058250Y297533D01*
X1059577Y297797D01*
X1060701Y298549D01*
X1061453Y299673D01*
X1061717Y301000D01*
X1061708Y301042D01*
X1066500Y296250D01*
X1066500Y282500D01*
X1059000Y275000D01*
X1053628D01*
X1050411Y278218D01*
X1050025Y278475D01*
X1045312Y283188D01*
X1045851Y283549D01*
X1046603Y284673D01*
X1046867Y286000D01*
X1046603Y287327D01*
X1045851Y288451D01*
X1044727Y289203D01*
X1043400Y289467D01*
X1042073Y289203D01*
X1040949Y288451D01*
X1040197Y287327D01*
X1039933Y286000D01*
X1040182Y284750D01*
X1037246D01*
X1037495Y286000D01*
X1037231Y287327D01*
X1036479Y288451D01*
X1035355Y289203D01*
X1034028Y289467D01*
X1032701Y289203D01*
X1031577Y288451D01*
X1030825Y287327D01*
X1030748Y286937D01*
X1027685Y290000D01*
X1025995D01*
X1025344Y290973D01*
X1023001Y293316D01*
X1022028Y293967D01*
X1022028Y304250D01*
X1027488D01*
X1029055Y302684D01*
D02*
G37*
%LPC*%
G36*
X1034028Y297467D02*
X1032701Y297203D01*
X1031577Y296451D01*
X1030825Y295327D01*
X1030561Y294000D01*
X1030825Y292673D01*
X1031577Y291549D01*
X1032701Y290797D01*
X1034028Y290533D01*
X1035355Y290797D01*
X1036479Y291549D01*
X1037231Y292673D01*
X1037495Y294000D01*
X1037231Y295327D01*
X1036479Y296451D01*
X1035355Y297203D01*
X1034028Y297467D01*
D02*
G37*
G36*
X1041250Y297467D02*
X1039923Y297203D01*
X1038799Y296451D01*
X1038047Y295327D01*
X1037783Y294000D01*
X1038047Y292673D01*
X1038799Y291549D01*
X1039923Y290797D01*
X1041250Y290533D01*
X1042577Y290797D01*
X1043701Y291549D01*
X1044453Y292673D01*
X1044717Y294000D01*
X1044453Y295327D01*
X1043701Y296451D01*
X1042577Y297203D01*
X1041250Y297467D01*
D02*
G37*
G36*
X1061000Y296217D02*
X1059673Y295953D01*
X1058549Y295201D01*
X1057797Y294077D01*
X1057533Y292750D01*
X1057797Y291423D01*
X1058549Y290299D01*
X1059673Y289547D01*
X1061000Y289283D01*
X1062327Y289547D01*
X1063451Y290299D01*
X1064203Y291423D01*
X1064467Y292750D01*
X1064203Y294077D01*
X1063451Y295201D01*
X1062327Y295953D01*
X1061000Y296217D01*
D02*
G37*
G36*
X1061000Y287717D02*
X1059673Y287453D01*
X1058549Y286701D01*
X1057797Y285577D01*
X1057533Y284250D01*
X1057797Y282923D01*
X1058549Y281799D01*
X1059673Y281047D01*
X1061000Y280783D01*
X1062327Y281047D01*
X1063451Y281799D01*
X1064203Y282923D01*
X1064467Y284250D01*
X1064203Y285577D01*
X1063451Y286701D01*
X1062327Y287453D01*
X1061000Y287717D01*
D02*
G37*
G36*
X1052000D02*
X1050673Y287453D01*
X1049549Y286701D01*
X1048797Y285577D01*
X1048533Y284250D01*
X1048797Y282923D01*
X1049549Y281799D01*
X1050673Y281047D01*
X1052000Y280783D01*
X1053327Y281047D01*
X1054451Y281799D01*
X1055203Y282923D01*
X1055467Y284250D01*
X1055203Y285577D01*
X1054451Y286701D01*
X1053327Y287453D01*
X1052000Y287717D01*
D02*
G37*
%LPD*%
D15*
X962028Y286000D02*
D03*
X970028Y310000D02*
D03*
Y286000D02*
D03*
X978028Y310000D02*
D03*
X970028Y318000D02*
D03*
X962028Y310000D02*
D03*
X970028Y294000D02*
D03*
X962028Y302000D02*
D03*
X978028Y286000D02*
D03*
X986028D02*
D03*
X970028Y278000D02*
D03*
X1052000Y292750D02*
D03*
X1026028Y302000D02*
D03*
Y294000D02*
D03*
X986028Y310000D02*
D03*
Y318000D02*
D03*
X962028Y294000D02*
D03*
X970028Y302000D02*
D03*
X946028Y310000D02*
D03*
X962028Y318000D02*
D03*
X946028D02*
D03*
X954028Y326000D02*
D03*
X962028Y334000D02*
D03*
X970028Y342000D02*
D03*
X946028Y358000D02*
D03*
Y366000D02*
D03*
D82*
X1230950Y506613D02*
Y549601D01*
X1226594Y553957D02*
X1230950Y549601D01*
X1193913Y582650D02*
X1222606Y553957D01*
X1175684Y582650D02*
X1193913D01*
X1160014Y598320D02*
X1175684Y582650D01*
X1160014Y598320D02*
Y607330D01*
X1146444Y620900D02*
X1160014Y607330D01*
X735306Y620900D02*
X1146444D01*
X705906Y591500D02*
X735306Y620900D01*
X683250Y591500D02*
X705906D01*
X1222606Y553957D02*
X1226594D01*
X1119500Y224500D02*
Y240179D01*
X1243962Y503157D02*
X1291076Y456043D01*
Y439882D02*
Y456043D01*
Y439882D02*
X1316900Y414058D01*
Y208180D02*
Y414058D01*
X1308368Y199648D02*
X1316900Y208180D01*
X1307763Y199648D02*
X1308368D01*
X1306879Y198764D02*
X1307763Y199648D01*
X1306608Y198764D02*
X1306879D01*
X1119500Y240179D02*
X1120500Y241179D01*
Y257000D01*
X999200Y374800D02*
Y383700D01*
X1230950Y506613D02*
X1234406Y503157D01*
X1243962D01*
X1225050Y500713D02*
X1230950Y506613D01*
X1225050Y470957D02*
Y500713D01*
X1057533Y279250D02*
X1058000D01*
X1071250Y266000D01*
X683250Y591229D02*
Y591500D01*
X682750Y590729D02*
X683250Y591229D01*
X682750Y580000D02*
Y590729D01*
D83*
X932540Y315600D02*
G03*
X932750Y315810I0J210D01*
G01*
X932960Y317249D02*
G03*
X932750Y317039I0J-210D01*
G01*
X936950D02*
G03*
X936740Y317249I-210J0D01*
G01*
X936950Y315810D02*
G03*
X937160Y315600I210J0D01*
G01*
X915374Y323173D02*
G03*
X915671Y323173I148J148D01*
G01*
X916837Y324042D02*
G03*
X916540Y324042I-148J-148D01*
G01*
X919509Y321072D02*
G03*
X919509Y321369I-148J148D01*
G01*
X918641Y320203D02*
G03*
X918641Y319906I148J-148D01*
G01*
X939726Y398509D02*
G03*
X939936Y398299I210J0D01*
G01*
X941739Y398089D02*
G03*
X941529Y398299I-210J0D01*
G01*
Y394099D02*
G03*
X941739Y394309I0J210D01*
G01*
X939936Y394099D02*
G03*
X939726Y393889I0J-210D01*
G01*
Y390109D02*
G03*
X939936Y389899I210J0D01*
G01*
X941739Y389689D02*
G03*
X941529Y389899I-210J0D01*
G01*
Y385700D02*
G03*
X941739Y385910I0J210D01*
G01*
X939936Y385700D02*
G03*
X939726Y385490I0J-210D01*
G01*
Y381710D02*
G03*
X939936Y381500I210J0D01*
G01*
X941739Y381290D02*
G03*
X941529Y381500I-210J0D01*
G01*
Y377300D02*
G03*
X941739Y377510I0J210D01*
G01*
X939936Y377300D02*
G03*
X939726Y377090I0J-210D01*
G01*
X1000262Y118291D02*
G03*
X997999Y118291I-1131J-1131D01*
G01*
X1006965Y109325D02*
G03*
X1007434Y110456I-1131J1131D01*
G01*
D02*
G03*
X1006965Y111587I-1600J0D01*
G01*
X1043066Y103890D02*
G03*
X1041466Y105490I-1600J0D01*
G01*
X1024107Y103890D02*
G03*
X1022507Y105490I-1600J0D01*
G01*
X1031987D02*
G03*
X1030387Y103890I0J-1600D01*
G01*
X1013027Y105490D02*
G03*
X1011427Y103890I0J-1600D01*
G01*
X1002892Y94108D02*
G03*
X1000630Y94108I-1131J-1131D01*
G01*
X1148118Y196289D02*
G03*
X1147808Y195979I0J-310D01*
G01*
X1147498Y187850D02*
G03*
X1147808Y188160I0J310D01*
G01*
X1141608D02*
G03*
X1141918Y187850I310J0D01*
G01*
X1141608Y195979D02*
G03*
X1141298Y196289I-310J0D01*
G01*
X1133438Y216230D02*
G03*
X1131368Y218300I-2070J0D01*
G01*
X1122908D02*
G03*
X1120838Y216230I0J-2070D01*
G01*
X1114638Y197419D02*
G03*
X1112569Y199489I-2070J0D01*
G01*
X1130238Y198359D02*
G03*
X1132308Y196289I2070J0D01*
G01*
X1121968Y190092D02*
G03*
X1124038Y192162I0J2070D01*
G01*
X1111439D02*
G03*
X1113509Y190092I2070J0D01*
G01*
X1113303Y219872D02*
G03*
X1113909Y221336I-1464J1464D01*
G01*
D02*
G03*
X1113303Y222799I-2070J0D01*
G01*
X1107321Y228781D02*
G03*
X1104393Y228781I-1464J-1464D01*
G01*
X1100010Y233165D02*
G03*
X1100616Y234629I-1464J1464D01*
G01*
D02*
G03*
X1100010Y236093I-2070J0D01*
G01*
X1094028Y242075D02*
G03*
X1091100Y242075I-1464J-1464D01*
G01*
X1085746Y245488D02*
G03*
X1086352Y246952I-1464J1464D01*
G01*
D02*
G03*
X1085746Y248415I-2070J0D01*
G01*
X1079764Y254397D02*
G03*
X1076836Y254397I-1464J-1464D01*
G01*
X1070815Y257144D02*
G03*
X1071422Y258608I-1464J1464D01*
G01*
D02*
G03*
X1070815Y260072I-2070J0D01*
G01*
X1064833Y266054D02*
G03*
X1061906Y266054I-1464J-1464D01*
G01*
X1053076Y265992D02*
G03*
X1053682Y267455I-1464J1464D01*
G01*
D02*
G03*
X1053076Y268919I-2070J0D01*
G01*
X1047094Y274901D02*
G03*
X1044167Y274901I-1464J-1464D01*
G01*
X1096799Y207894D02*
G03*
X1096799Y204966I1464J-1464D01*
G01*
X1074582Y197372D02*
G03*
X1077509Y197372I1464J1464D01*
G01*
X1068600Y206281D02*
G03*
X1068600Y203354I1464J-1464D01*
G01*
X1061289Y210665D02*
G03*
X1064216Y210665I1464J1464D01*
G01*
X1055307Y219574D02*
G03*
X1055307Y216647I1464J-1464D01*
G01*
X1047995Y223958D02*
G03*
X1050923Y223958I1464J1464D01*
G01*
X1042013Y232868D02*
G03*
X1042013Y229940I1464J-1464D01*
G01*
X1036029Y238579D02*
G03*
X1038957Y238579I1464J1464D01*
G01*
X1030047Y247488D02*
G03*
X1030047Y244561I1464J-1464D01*
G01*
X1036315Y265451D02*
G03*
X1039242Y265451I1464J1464D01*
G01*
X1126489Y133910D02*
G03*
X1126649Y134069I0J160D01*
G01*
X1123450D02*
G03*
X1123610Y133910I160J0D01*
G01*
X1120090Y133910D02*
G03*
X1120250Y134070I0J160D01*
G01*
X1117050D02*
G03*
X1117210Y133910I160J0D01*
G01*
X1044674Y160390D02*
G03*
X1043074Y161990I-1600J0D01*
G01*
X1052554Y153457D02*
G03*
X1050954Y151857I0J-1600D01*
G01*
X1101687Y147400D02*
G03*
X1099613Y149474I-2074J0D01*
G01*
X1091082D02*
G03*
X1089008Y147400I0J-2074D01*
G01*
X1063634Y151857D02*
G03*
X1062034Y153457I-1600J0D01*
G01*
X1025715Y160390D02*
G03*
X1024115Y161990I-1600J0D01*
G01*
X1033594D02*
G03*
X1031994Y160390I0J-1600D01*
G01*
X1014884Y179377D02*
G03*
X1012810Y181451I-2074J0D01*
G01*
Y168771D02*
G03*
X1014884Y170845I0J2074D01*
G01*
X1014635Y161990D02*
G03*
X1013035Y160390I0J-1600D01*
G01*
X1146343Y141000D02*
G03*
X1144269Y138926I0J-2074D01*
G01*
X1137989D02*
G03*
X1135915Y141000I-2074J0D01*
G01*
X1005977Y225510D02*
G03*
X1004377Y227110I-1600J0D01*
G01*
X1005979Y206551D02*
G03*
X1004379Y208151I-1600J0D01*
G01*
X1004377Y214430D02*
G03*
X1005977Y216030I0J1600D01*
G01*
X1004379Y195471D02*
G03*
X1005979Y197071I0J1600D01*
G01*
X1000250Y187591D02*
G03*
X998650Y189191I-1600J0D01*
G01*
X1000250Y160418D02*
G03*
X998176Y162492I-2074J0D01*
G01*
X1134789Y134007D02*
G03*
X1136863Y131933I2074J0D01*
G01*
X1145395D02*
G03*
X1147469Y134007I0J2074D01*
G01*
X1098487Y139874D02*
G03*
X1100562Y137800I2074J0D01*
G01*
X1090134D02*
G03*
X1092208Y139874I0J2074D01*
G01*
X1052554Y128310D02*
G03*
X1054154Y129910I0J1600D01*
G01*
X1041474D02*
G03*
X1043074Y128310I1600J0D01*
G01*
X1060434Y129910D02*
G03*
X1062034Y128310I1600J0D01*
G01*
X1022515Y129910D02*
G03*
X1024115Y128310I1600J0D01*
G01*
X1033594D02*
G03*
X1035194Y129910I0J1600D01*
G01*
X997050Y225510D02*
G03*
X998650Y223910I1600J0D01*
G01*
X997050Y180325D02*
G03*
X999124Y178251I2074J0D01*
G01*
X1014635Y143550D02*
G03*
X1016235Y145150I0J1600D01*
G01*
X983410Y198671D02*
G03*
X981810Y197071I0J-1600D01*
G01*
Y187591D02*
G03*
X983410Y185991I1600J0D01*
G01*
Y217630D02*
G03*
X981810Y216030I0J-1600D01*
G01*
Y206551D02*
G03*
X983410Y204951I1600J0D01*
G01*
X989962Y161366D02*
G03*
X992036Y159292I2074J0D01*
G01*
Y171971D02*
G03*
X989962Y169897I0J-2074D01*
G01*
X1083700Y346717D02*
G03*
X1083860Y346557I160J0D01*
G01*
X1086740D02*
G03*
X1086900Y346717I0J160D01*
G01*
X1153170Y247236D02*
G03*
X1153330Y247076I160J0D01*
G01*
Y250276D02*
G03*
X1153170Y250116I0J-160D01*
G01*
X1249694Y206450D02*
G03*
X1249854Y206610I0J160D01*
G01*
Y209490D02*
G03*
X1249694Y209650I-160J0D01*
G01*
X1047361Y172708D02*
G03*
X1047361Y172934I-113J113D01*
G01*
X1045098Y170672D02*
G03*
X1045324Y170672I113J113D01*
G01*
X979207Y228800D02*
G03*
X979367Y228960I0J160D01*
G01*
Y231840D02*
G03*
X979207Y232000I-160J0D01*
G01*
X974833Y235200D02*
G03*
X974993Y235360I0J160D01*
G01*
Y238240D02*
G03*
X974833Y238400I-160J0D01*
G01*
X1205416Y173657D02*
G03*
X1205576Y173497I160J0D01*
G01*
Y176697D02*
G03*
X1205416Y176537I0J-160D01*
G01*
Y180056D02*
G03*
X1205576Y179897I160J0D01*
G01*
Y183096D02*
G03*
X1205416Y182936I0J-160D01*
G01*
X1018751Y262357D02*
G03*
X1016676Y264431I-2074J0D01*
G01*
Y251751D02*
G03*
X1018751Y253825I0J2074D01*
G01*
X1019047Y243397D02*
G03*
X1016973Y245471I-2074J0D01*
G01*
Y232792D02*
G03*
X1019047Y234866I0J2074D01*
G01*
X1008577Y263305D02*
G03*
X1010651Y261231I2074J0D01*
G01*
X1008123Y254951D02*
G03*
X1006049Y252877I0J-2074D01*
G01*
Y244345D02*
G03*
X1008123Y242271I2074J0D01*
G01*
X1010651Y235992D02*
G03*
X1008577Y233918I0J-2074D01*
G01*
X1157649Y150842D02*
G03*
X1159249Y152442I0J1600D01*
G01*
X1144030D02*
G03*
X1145630Y150842I1600J0D01*
G01*
X1133610Y149350D02*
G03*
X1135210Y150950I0J1600D01*
G01*
X1119990D02*
G03*
X1121590Y149350I1600J0D01*
G01*
X1109570Y154750D02*
G03*
X1111170Y156349I0J1600D01*
G01*
X1095950D02*
G03*
X1097551Y154750I1600J0D01*
G01*
X1085531Y155272D02*
G03*
X1087131Y156872I0J1600D01*
G01*
X1071911D02*
G03*
X1073511Y155272I1600J0D01*
G01*
X1058233Y179742D02*
G03*
X1058233Y177479I1131J-1131D01*
G01*
X1027100Y163344D02*
G03*
X1029362Y163344I1131J1131D01*
G01*
X1018600Y174106D02*
G03*
X1018600Y171843I1131J-1131D01*
G01*
X1017546Y187788D02*
G03*
X1019809Y187788I1131J1131D01*
G01*
X1009047Y198550D02*
G03*
X1009047Y196287I1131J-1131D01*
G01*
X1157649Y174274D02*
G03*
X1156049Y172674I0J-1600D01*
G01*
X1147230Y176868D02*
G03*
X1145630Y178468I-1600J0D01*
G01*
X1133610D02*
G03*
X1132010Y176868I0J-1600D01*
G01*
X1123190Y176946D02*
G03*
X1121590Y178546I-1600J0D01*
G01*
X1109570D02*
G03*
X1107970Y176946I0J-1600D01*
G01*
X1099150Y176423D02*
G03*
X1097551Y178023I-1600J0D01*
G01*
X1085531D02*
G03*
X1083931Y176423I0J-1600D01*
G01*
X1075111Y172674D02*
G03*
X1073511Y174274I-1600J0D01*
G01*
X1062714Y179697D02*
G03*
X1063182Y180828I-1131J1131D01*
G01*
D02*
G03*
X1062714Y181959I-1600J0D01*
G01*
X1054214Y190459D02*
G03*
X1051952Y190459I-1131J-1131D01*
G01*
X1052739Y203719D02*
G03*
X1053208Y204851I-1131J1131D01*
G01*
D02*
G03*
X1052739Y205982I-1600J0D01*
G01*
X1044240Y214481D02*
G03*
X1041977Y214481I-1131J-1131D01*
G01*
X1026499Y211476D02*
G03*
X1026967Y212607I-1131J1131D01*
G01*
D02*
G03*
X1026499Y213739I-1600J0D01*
G01*
X987223Y105252D02*
G03*
X989486Y105252I1131J1131D01*
G01*
X983627Y90512D02*
G03*
X983627Y88249I1131J-1131D01*
G01*
X990330Y81546D02*
G03*
X992593Y81546I1131J1131D01*
G01*
X1013027Y87050D02*
G03*
X1014627Y88650I0J1600D01*
G01*
X1020907Y73410D02*
G03*
X1022507Y71810I1600J0D01*
G01*
X1031987D02*
G03*
X1033587Y73410I0J1600D01*
G01*
X1039866Y88650D02*
G03*
X1041466Y87050I1600J0D01*
G01*
X943628Y315600D02*
X946028Y318000D01*
X943250Y315600D02*
X943628D01*
X922947D02*
X932540D01*
X932750Y315810D02*
Y317039D01*
X932960Y317249D02*
X936740D01*
X936950Y315810D02*
Y317039D01*
X937160Y315600D02*
X941150D01*
X943250D01*
X899850Y338697D02*
X915374Y323173D01*
X915671D02*
X916540Y324042D01*
X916837D02*
X919509Y321369D01*
X918641Y320203D02*
X919509Y321072D01*
X918641Y319906D02*
X921462Y317085D01*
X922947Y315600D01*
X899850Y338697D02*
Y341600D01*
X904000Y345750D01*
X941954Y435459D02*
X945797D01*
X939726Y433230D02*
X941954Y435459D01*
X939726Y366624D02*
Y371000D01*
Y398509D02*
Y433230D01*
X939936Y398299D02*
X941529D01*
X941739Y394309D02*
Y398089D01*
X939936Y394099D02*
X941529D01*
X939726Y390109D02*
Y393889D01*
X939936Y389899D02*
X941529D01*
X941739Y385910D02*
Y389689D01*
X939936Y385700D02*
X941529D01*
X939726Y381710D02*
Y385490D01*
X939936Y381500D02*
X941529D01*
X941739Y377510D02*
Y381290D01*
X939936Y377300D02*
X941529D01*
X939726Y373100D02*
Y377090D01*
Y371000D02*
Y373100D01*
Y366624D02*
X942750Y363600D01*
X1148175Y307200D02*
X1156825D01*
X1103975Y263000D02*
X1148175Y307200D01*
X1156825D02*
X1165200Y298825D01*
X1105300Y259800D02*
X1149500Y304000D01*
X1155500D01*
X1162000Y297500D01*
X1165200Y291175D02*
Y298825D01*
X1139200Y265175D02*
X1165200Y291175D01*
X1136000Y266500D02*
X1162000Y292500D01*
Y297500D01*
X1038500Y313750D02*
X1054100D01*
X1056250Y311600D01*
X1070675D01*
X1077450Y304825D01*
Y273300D02*
Y304825D01*
Y273300D02*
X1078675Y272075D01*
X1081325D01*
X1117200Y307950D01*
X1123075D01*
X1127200Y303825D01*
Y298425D02*
Y303825D01*
X1097750Y268975D02*
X1127200Y298425D01*
X1097750Y267250D02*
Y268975D01*
Y267250D02*
X1102000Y263000D01*
X1103975D01*
X1139200Y249675D02*
Y265175D01*
X1134025Y244500D02*
X1139200Y249675D01*
X1132250Y244500D02*
X1134025D01*
X1128500Y240750D02*
X1132250Y244500D01*
X1128500Y229496D02*
Y240750D01*
Y229496D02*
X1134120Y223876D01*
X1141238D01*
X1146250Y218865D01*
Y211746D02*
Y218865D01*
Y211746D02*
X1150704Y207293D01*
X1166397D01*
X1171061Y211957D01*
X1177439D01*
X1178777Y210619D01*
X1039000Y305750D02*
X1053600D01*
X1056250Y308400D01*
X1069350D01*
X1074250Y303500D01*
Y271975D02*
Y303500D01*
Y271975D02*
X1077349Y268876D01*
X1082651D01*
X1118525Y304750D01*
X1121750D01*
X1124000Y302500D01*
Y299750D02*
Y302500D01*
X1094550Y270300D02*
X1124000Y299750D01*
X1094550Y265925D02*
Y270300D01*
Y265925D02*
X1100675Y259800D01*
X1105300D01*
X1136000Y251000D02*
Y266500D01*
X1132700Y247700D02*
X1136000Y251000D01*
X1130925Y247700D02*
X1132700D01*
X1125300Y242075D02*
X1130925Y247700D01*
X1125300Y228171D02*
Y242075D01*
Y228171D02*
X1132794Y220677D01*
X1139913D01*
X1143050Y217539D01*
Y210421D02*
Y217539D01*
Y210421D02*
X1149378Y204093D01*
X1167722D01*
X1172386Y208757D01*
X1176114D01*
X1177452Y207419D01*
X1202068Y339457D02*
X1206950Y334575D01*
X1202083Y323557D02*
X1206950Y328425D01*
Y334575D01*
X1200743Y336257D02*
X1203750Y333250D01*
Y329750D02*
Y333250D01*
X1200757Y326757D02*
X1203750Y329750D01*
X1119918Y323557D02*
X1202083D01*
X1121243Y326757D02*
X1200757D01*
X1128290Y339457D02*
X1202068D01*
X1126965Y336257D02*
X1200743D01*
X1215950Y321175D02*
X1217832Y323057D01*
X1215950Y315825D02*
Y321175D01*
Y315825D02*
X1217718Y314057D01*
X1212750Y322500D02*
X1216507Y326257D01*
X1212750Y314500D02*
Y322500D01*
Y314500D02*
X1216393Y310857D01*
X1217718Y314057D02*
X1245693D01*
X1216393Y310857D02*
X1244368D01*
X1217832Y323057D02*
X1245458D01*
X1216507Y326257D02*
X1244132D01*
X1114225Y329250D02*
X1119918Y323557D01*
X1115550Y332450D02*
X1121243Y326757D01*
X1166325Y317700D02*
X1170275Y313750D01*
X1079050Y317700D02*
X1166325D01*
X1076200Y320550D02*
X1079050Y317700D01*
X1165000Y314500D02*
X1168950Y310550D01*
X1077725Y314500D02*
X1165000D01*
X1073000Y319224D02*
X1077725Y314500D01*
X1170275Y313750D02*
X1193000D01*
X1168950Y310550D02*
X1191675D01*
X1154803Y271579D02*
X1165748D01*
X1144887Y261663D02*
X1154803Y271579D01*
X1077425Y332450D02*
X1115550D01*
X1073000Y319224D02*
Y328026D01*
X1077425Y332450D01*
X1078750Y329250D02*
X1114225D01*
X1076200Y326700D02*
X1078750Y329250D01*
X1076200Y320550D02*
Y326700D01*
X1194828Y295635D02*
Y307396D01*
X1191675Y310550D02*
X1194828Y307396D01*
X1198028Y294310D02*
Y308722D01*
X1193000Y313750D02*
X1198028Y308722D01*
X1182450Y269621D02*
X1185566Y272737D01*
X1187263D01*
X1184261Y275957D02*
X1188814D01*
X1179250Y270946D02*
X1184261Y275957D01*
X1179250Y266393D02*
Y270946D01*
X1182450Y265068D02*
Y269621D01*
X1177439Y260057D02*
X1182450Y265068D01*
X1176114Y263257D02*
X1179250Y266393D01*
X1187282Y272757D02*
X1190139D01*
X1198000Y280618D01*
X1187263Y272737D02*
X1187282Y272757D01*
X1198000Y294281D02*
X1198028Y294310D01*
X1198000Y280618D02*
Y294281D01*
X1194800Y295607D02*
X1194828Y295635D01*
X1194800Y281943D02*
Y295607D01*
X1188814Y275957D02*
X1194800Y281943D01*
X1071022Y338585D02*
X1075137Y342700D01*
X1125047D01*
X1128290Y339457D01*
X1076463Y339500D02*
X1123722D01*
X1126965Y336257D01*
X1072348Y335385D02*
X1076463Y339500D01*
X1213300Y211575D02*
Y216300D01*
X1200982Y199257D02*
X1213300Y211575D01*
X1185586Y199257D02*
X1200982D01*
X1216500Y210250D02*
Y214975D01*
X1202307Y196057D02*
X1216500Y210250D01*
X1184261Y196057D02*
X1202307D01*
X1222425Y199950D02*
X1226969D01*
X1210500Y188025D02*
X1222425Y199950D01*
X1210500Y187896D02*
Y188025D01*
X1223750Y196750D02*
X1228294D01*
X1213700Y186700D02*
X1223750Y196750D01*
X1213700Y135959D02*
Y186700D01*
X1228294Y196750D02*
X1231276Y199732D01*
X1120251Y60300D02*
X1152450Y92499D01*
X938250Y100159D02*
X978109Y60300D01*
X1120251D01*
X1118926Y63500D02*
X1149250Y93824D01*
X979435Y63500D02*
X1118926D01*
X941450Y101485D02*
X979435Y63500D01*
X1066910Y338585D02*
X1071022D01*
X1064567Y332928D02*
X1067024Y335385D01*
X1072348D01*
X1064567Y340928D02*
X1066910Y338585D01*
X1061253Y340928D02*
X1064567D01*
X1000262Y118291D02*
X1006965Y111587D01*
X1031987Y105490D02*
X1041466D01*
X1043066Y90250D02*
Y103890D01*
X1030387Y75010D02*
Y103890D01*
X1013027Y105490D02*
X1022507D01*
X1024107Y75010D02*
Y103890D01*
X1011427Y90250D02*
Y103890D01*
X1002892Y94108D02*
X1006750Y90250D01*
X991461Y84940D02*
X1000630Y94108D01*
X988354Y108646D02*
X997999Y118291D01*
X987021Y89380D02*
X1006965Y109325D01*
X1077325Y114300D02*
X1149325D01*
X1164025Y129000D02*
X1180275D01*
X1149325Y114300D02*
X1164025Y129000D01*
X1162700Y132200D02*
X1178950D01*
X1148000Y117500D02*
X1162700Y132200D01*
X1076000Y117500D02*
X1148000D01*
X1167250Y196289D02*
X1170808D01*
X1148118D02*
X1167250D01*
X1147808Y188160D02*
Y195979D01*
X1141918Y187850D02*
X1147498D01*
X1141608Y188160D02*
Y195979D01*
X1135408Y196289D02*
X1141298D01*
X1132308D02*
X1135408D01*
X1133438Y199489D02*
X1169482D01*
X1133438D02*
Y216230D01*
X1122908Y218300D02*
X1131368D01*
X1120838Y193292D02*
Y216230D01*
X1114638Y193292D02*
X1120838D01*
X1114638D02*
Y197419D01*
X1106801Y199489D02*
X1112569D01*
X1130238Y198359D02*
Y215100D01*
X1124038D02*
X1130238D01*
X1124038Y192162D02*
Y215100D01*
X1113509Y190092D02*
X1121968D01*
X1111439Y192162D02*
Y196289D01*
X1105476D02*
X1111439D01*
X1099861Y206430D02*
X1106801Y199489D01*
X1099861Y206430D02*
X1113303Y219872D01*
X1107321Y228781D02*
X1113303Y222799D01*
X1076046Y200434D02*
X1104393Y228781D01*
X1071662Y204817D02*
X1076046Y200434D01*
X1071662Y204817D02*
X1100010Y233165D01*
X1094028Y242075D02*
X1100010Y236093D01*
X1062752Y213727D02*
X1091100Y242075D01*
X1058368Y218111D02*
X1062752Y213727D01*
X1058368Y218111D02*
X1085746Y245488D01*
X1079764Y254397D02*
X1085746Y248415D01*
X1049459Y227020D02*
X1076836Y254397D01*
X1045075Y231404D02*
X1049459Y227020D01*
X1045075Y231404D02*
X1070815Y257144D01*
X1064833Y266054D02*
X1070815Y260072D01*
X1037493Y241640D02*
X1061906Y266054D01*
X1033109Y246024D02*
X1037493Y241640D01*
X1033109Y246024D02*
X1053076Y265992D01*
X1047094Y274901D02*
X1053076Y268919D01*
X1037778Y268512D02*
X1044167Y274901D01*
X1034031Y272260D02*
X1037778Y268512D01*
X1096799Y204966D02*
X1105476Y196289D01*
X1096799Y207894D02*
X1110241Y221336D01*
X1105857Y225720D02*
X1110241Y221336D01*
X1077509Y197372D02*
X1105857Y225720D01*
X1068600Y203354D02*
X1074582Y197372D01*
X1068600Y206281D02*
X1096948Y234629D01*
X1092564Y239013D02*
X1096948Y234629D01*
X1064216Y210665D02*
X1092564Y239013D01*
X1055307Y216647D02*
X1061289Y210665D01*
X1055307Y219574D02*
X1082684Y246952D01*
X1078300Y251336D02*
X1082684Y246952D01*
X1050923Y223958D02*
X1078300Y251336D01*
X1042013Y229940D02*
X1047995Y223958D01*
X1042013Y232868D02*
X1067754Y258608D01*
X1063370Y262992D02*
X1067754Y258608D01*
X1038957Y238579D02*
X1063370Y262992D01*
X1030047Y244561D02*
X1036029Y238579D01*
X1030047Y247488D02*
X1050014Y267455D01*
X1045631Y271839D02*
X1050015Y267455D01*
X1039242Y265451D02*
X1045631Y271839D01*
X1031768Y269997D02*
X1036315Y265451D01*
X1028374Y269997D02*
X1031768D01*
X1022028Y276343D02*
X1028374Y269997D01*
X1022028Y276343D02*
Y279657D01*
X1019685Y282000D02*
X1022028Y279657D01*
X1016371Y282000D02*
X1019685D01*
X1014028Y284343D02*
X1016371Y282000D01*
X1014028Y284343D02*
Y287818D01*
X1011846Y290000D02*
X1014028Y287818D01*
X1008371Y290000D02*
X1011846D01*
X1006028Y292343D02*
X1008371Y290000D01*
X1006028Y292343D02*
Y295818D01*
X1003846Y298000D02*
X1006028Y295818D01*
X976371Y298000D02*
X1003846D01*
X972907Y294536D02*
X976371Y298000D01*
X970564Y294536D02*
X972907D01*
X1030028Y276263D02*
X1034031Y272260D01*
X1030028Y276263D02*
Y279657D01*
X1027685Y282000D02*
X1030028Y279657D01*
X1024371Y282000D02*
X1027685D01*
X1022028Y284343D02*
X1024371Y282000D01*
X1022028Y284343D02*
Y287657D01*
X1019685Y290000D02*
X1022028Y287657D01*
X1016371Y290000D02*
X1019685D01*
X1014028Y292343D02*
X1016371Y290000D01*
X1014028Y292343D02*
Y295657D01*
X1011685Y298000D02*
X1014028Y295657D01*
X1008371Y298000D02*
X1011685D01*
X1006028Y300343D02*
X1008371Y298000D01*
X1006028Y300343D02*
Y303657D01*
X1003685Y306000D02*
X1006028Y303657D01*
X976371Y306000D02*
X1003685D01*
X974028Y303657D02*
X976371Y306000D01*
X974028Y300182D02*
Y303657D01*
X971846Y298000D02*
X974028Y300182D01*
X966028Y298000D02*
X971846D01*
X962028Y302000D02*
X966028Y298000D01*
X1169482Y199489D02*
X1169500Y199507D01*
X1173547D01*
X1174250Y200210D01*
X1170808Y196289D02*
X1170825Y196307D01*
X1173547D01*
X1174250Y191557D02*
Y195604D01*
X1134789Y134007D02*
Y137800D01*
X1129849D02*
X1134789D01*
X1126649D02*
X1129849D01*
X1126649Y134069D02*
Y137800D01*
X1123610Y133910D02*
X1126489D01*
X1123450Y134069D02*
Y137800D01*
X1120250D02*
X1123450D01*
X1120250Y134070D02*
Y137800D01*
X1117210Y133910D02*
X1120090D01*
X1117050Y134070D02*
Y137800D01*
X1113850D02*
X1117050D01*
X1112250D02*
X1113850D01*
X1100562D02*
X1112250D01*
X1169128Y153457D02*
X1174250D01*
X1153472Y137800D02*
X1169128Y153457D01*
X1147469Y137800D02*
X1153472D01*
X1147469Y134007D02*
Y137800D01*
X921621Y312400D02*
X943628D01*
X896650Y337371D02*
X921621Y312400D01*
X896650Y337371D02*
Y341600D01*
X892500Y345750D02*
X896650Y341600D01*
X936526Y434556D02*
X940629Y438658D01*
X936526Y365299D02*
Y434556D01*
X988250Y250907D02*
X992450Y255107D01*
X988250Y238250D02*
Y250907D01*
X992450Y255107D02*
Y264393D01*
X989250Y256432D02*
Y263068D01*
X985050Y252232D02*
X989250Y256432D01*
X985050Y236925D02*
Y252232D01*
X1091082Y149474D02*
X1099613D01*
X1052554Y153457D02*
X1062034D01*
X1014884Y170845D02*
Y179377D01*
X1005979Y197071D02*
Y206551D01*
X1033594Y161990D02*
X1043074D01*
X1014635D02*
X1024115D01*
X1013035Y146750D02*
Y160390D01*
X1146343Y141000D02*
X1152146D01*
X1089008D02*
Y147400D01*
X1101687Y141000D02*
Y147400D01*
X1137989Y135133D02*
Y138926D01*
X1144269Y135133D02*
Y138926D01*
X1101687Y141000D02*
X1135915D01*
X1063634Y131510D02*
Y151857D01*
X1050954Y131510D02*
Y151857D01*
X1031994Y131510D02*
Y160390D01*
X1025715Y131510D02*
Y160390D01*
X1044674Y131510D02*
Y160390D01*
X1005977Y216030D02*
Y225510D01*
X985010Y214430D02*
X1004377D01*
X985010Y208151D02*
X1004379D01*
X1000250Y181451D02*
X1012810D01*
X985010Y195471D02*
X1004379D01*
X993162Y168771D02*
X1012810D01*
X1000250Y227110D02*
X1004377D01*
X985010Y189191D02*
X998650D01*
X1000250Y181451D02*
Y187591D01*
Y154858D02*
Y160418D01*
X993162Y162492D02*
X998176D01*
X985050Y236925D02*
X986925Y235050D01*
X988250Y238250D02*
X994650D01*
X1136863Y131933D02*
X1145395D01*
X1098487Y139874D02*
Y146274D01*
X1084450Y137800D02*
X1090134D01*
X1060434Y129910D02*
Y130185D01*
X1022515Y129910D02*
Y158790D01*
X1041474Y129910D02*
Y158790D01*
X1043074Y128310D02*
X1052554D01*
X1024115D02*
X1033594D01*
X997050Y225510D02*
Y231325D01*
X998650Y223910D02*
X1002777D01*
X983410Y204951D02*
X1002779D01*
X983410Y217630D02*
X1002777D01*
X983410Y198671D02*
X1002779D01*
X1007032Y143550D02*
X1014635D01*
X992036Y171971D02*
X1011684D01*
X999124Y178251D02*
X1011684D01*
X981810Y187591D02*
Y197071D01*
X997050Y180325D02*
Y185991D01*
X981810Y206551D02*
Y216030D01*
X992036Y159292D02*
X997050D01*
X983410Y185991D02*
X997050D01*
X989962Y161366D02*
Y169897D01*
X986925Y235050D02*
X993325D01*
X997050Y231325D01*
X982028Y276343D02*
X985309Y273062D01*
X986344D01*
X989625Y269782D01*
Y267218D02*
Y269782D01*
Y267218D02*
X992450Y264393D01*
X979376Y274000D02*
X981250Y272126D01*
Y266843D02*
Y272126D01*
Y266843D02*
X983593Y264500D01*
X987818D01*
X989250Y263068D01*
X976371Y274000D02*
X979376D01*
X962028Y286000D02*
X966468Y281560D01*
X967931D01*
X968371Y282000D01*
X971006D01*
X971006Y282000D01*
X976371D01*
X976371Y282000D01*
X979685D01*
X982028Y279657D01*
Y276343D02*
Y279657D01*
X970028Y278000D02*
X970564Y278536D01*
X971867D01*
X972131Y278800D01*
X972331D01*
X972331Y278800D01*
X973828D01*
X974028Y278600D01*
Y276343D02*
Y278600D01*
Y276343D02*
X976371Y274000D01*
X994650Y238250D02*
X1000250Y232650D01*
Y227110D02*
Y232650D01*
X1002777Y217630D02*
Y223910D01*
X1002779Y198671D02*
Y204951D01*
X1011684Y171971D02*
Y178251D01*
X997050Y153532D02*
Y159292D01*
Y153532D02*
X1007032Y143550D01*
X1016235Y145150D02*
Y158790D01*
X1022515D01*
X1035194Y129910D02*
Y158790D01*
X1041474D01*
X1054154Y129910D02*
Y150257D01*
X1060434D01*
Y130185D02*
Y150257D01*
X985010Y208151D02*
Y214430D01*
Y189191D02*
Y195471D01*
X993162Y162492D02*
Y168771D01*
X1000250Y154858D02*
X1008358Y146750D01*
X1013035D01*
X1025715Y131510D02*
X1031994D01*
X1044674D02*
X1050954D01*
X1063634D02*
X1079260D01*
X1081250Y133500D01*
Y139364D01*
X1082886Y141000D01*
X1089008D01*
X1137989Y135133D02*
X1144269D01*
X1152146Y141000D02*
X1168455Y157308D01*
Y160362D01*
X1174250Y166157D01*
X1207221Y235603D02*
Y241471D01*
X1215250Y249500D01*
Y256146D01*
X1232895Y273791D01*
X1240983D01*
X1243250Y276058D01*
Y283083D01*
X1241376Y284957D02*
X1243250Y283083D01*
X1211342Y284957D02*
X1241376D01*
X1207000Y289299D02*
X1211342Y284957D01*
X1207000Y289299D02*
Y297000D01*
X1211357Y301357D01*
X1244342D01*
X1247734Y304750D01*
Y307490D01*
X1244368Y310857D02*
X1247734Y307490D01*
X1244132Y326257D02*
X1246750Y328875D01*
Y333250D01*
X1244200Y335800D02*
X1246750Y333250D01*
X1217171Y335800D02*
X1244200D01*
X1204221Y348750D02*
X1217171Y335800D01*
X1088500Y348750D02*
X1204221D01*
X1064500D02*
X1071750D01*
X1080500D01*
X1083700D01*
Y346717D02*
Y348750D01*
X1083860Y346557D02*
X1086740D01*
X1086900Y346717D02*
Y348750D01*
X1088500D01*
X1061864Y345500D02*
X1064500Y348136D01*
X1058136Y345500D02*
X1061864D01*
X1055500Y348136D02*
X1058136Y345500D01*
X1049472Y332928D02*
X1064567D01*
X1166432Y263257D02*
X1176114D01*
X1158250Y255075D02*
X1166432Y263257D01*
X1158250Y241475D02*
Y243876D01*
Y247076D01*
X1153330D02*
X1158250D01*
X1153170Y247236D02*
Y250116D01*
X1153330Y250276D02*
X1158250D01*
Y253475D01*
Y255075D01*
X1159187Y240537D02*
X1165318Y234407D01*
X1158250Y241475D02*
X1159187Y240537D01*
X1165318Y234407D02*
X1173547D01*
X1163900Y216603D02*
Y218764D01*
X1167093Y221957D01*
X1193075D01*
X1196750Y225632D01*
Y256229D01*
X1189972Y263007D02*
X1196750Y256229D01*
X1187653Y263007D02*
X1189972D01*
X1178881Y210619D02*
X1182450Y207050D01*
Y202393D02*
Y207050D01*
Y202393D02*
X1185586Y199257D01*
X1213300Y216300D02*
X1222157Y225157D01*
X1242093D01*
X1247500Y219750D01*
Y211250D02*
Y219750D01*
Y189000D02*
Y190750D01*
Y206450D01*
X1249694D01*
X1249854Y206610D02*
Y209490D01*
X1247500Y209650D02*
X1249694D01*
X1247500D02*
Y211250D01*
X1242357Y183857D02*
X1247500Y189000D01*
X1222107Y183857D02*
X1242357D01*
X1220627Y182377D02*
X1222107Y183857D01*
X1220627Y176833D02*
Y182377D01*
X1217427Y175508D02*
X1219582Y173353D01*
X1217427Y175508D02*
Y183702D01*
X1220782Y187057D01*
X1241032D01*
X1244300Y190325D01*
Y218425D01*
X1240768Y221957D02*
X1244300Y218425D01*
X1223483Y221957D02*
X1240768D01*
X1216500Y214975D02*
X1223483Y221957D01*
X1179250Y201068D02*
X1184261Y196057D01*
X1179250Y201068D02*
Y205725D01*
X1177555Y207419D02*
X1179250Y205725D01*
X1058233Y179742D02*
X1059320Y180828D01*
X1053083Y187065D02*
X1059320Y180828D01*
X1051259Y185241D02*
X1053083Y187065D01*
X1029362Y163344D02*
X1037500Y171482D01*
X1045419Y179401D02*
X1051259Y185241D01*
X1043157Y177138D02*
X1045419Y179401D01*
X1043157Y177138D02*
X1047361Y172934D01*
X1045324Y170672D02*
X1047361Y172708D01*
X1040894Y174876D02*
X1045098Y170672D01*
X1038631Y172613D02*
X1040894Y174876D01*
X1037500Y171482D02*
X1038631Y172613D01*
X1011777Y228461D02*
X1026499Y213739D01*
X1011777Y232792D02*
X1011777Y228461D01*
X1011777Y232792D02*
X1016973D01*
X960371Y290000D02*
X963685D01*
X958028Y287657D02*
X960371Y290000D01*
X958028Y275879D02*
Y287657D01*
Y275879D02*
X963750Y270157D01*
Y267093D02*
Y270157D01*
Y267093D02*
X966343Y264500D01*
X968657D01*
X972750Y260407D01*
Y240000D02*
Y260407D01*
Y124250D02*
Y204500D01*
Y225600D01*
Y228800D01*
X979207D01*
X979367Y228960D02*
Y231840D01*
X972750Y232000D02*
X979207D01*
X972750D02*
Y235200D01*
X974833D01*
X974993Y235360D02*
Y238240D01*
X972750Y238400D02*
X974833D01*
X972750D02*
Y240000D01*
Y124250D02*
X988354Y108646D01*
X1226969Y199950D02*
X1228076Y201057D01*
X1210500Y137284D02*
Y170297D01*
Y173497D01*
X1205576D02*
X1210500D01*
X1205416Y173657D02*
Y176537D01*
X1205576Y176697D02*
X1210500D01*
Y179897D01*
X1205576D02*
X1210500D01*
X1205416Y180056D02*
Y182936D01*
X1205576Y183096D02*
X1210500D01*
Y186296D01*
Y187896D01*
X1196773Y123557D02*
X1208207Y134991D01*
X1209369Y136153D01*
X1210500Y137284D01*
X1168057Y123557D02*
X1196773D01*
X1149250Y104750D02*
X1168057Y123557D01*
X1149250Y93824D02*
Y104750D01*
X941450Y101485D02*
Y287079D01*
X944371Y290000D01*
X947685D01*
X950028Y292343D01*
Y295657D01*
X952371Y298000D01*
X955685D01*
X958028Y300343D01*
Y303657D01*
X960371Y306000D01*
X966028D01*
X970028Y302000D01*
X1198098Y120357D02*
X1213700Y135959D01*
X1187653Y183607D02*
X1190703D01*
X1195000Y179310D01*
Y142443D02*
Y179310D01*
X1188814Y136257D02*
X1195000Y142443D01*
X1183007Y136257D02*
X1188814D01*
X1178950Y132200D02*
X1183007Y136257D01*
X1048750Y90250D02*
X1076000Y117500D01*
X1043066Y90250D02*
X1048750D01*
X959149Y309464D02*
X961492D01*
X955685Y306000D02*
X959149Y309464D01*
X952371Y306000D02*
X955685D01*
X950028Y303657D02*
X952371Y306000D01*
X950028Y300343D02*
Y303657D01*
X947685Y298000D02*
X950028Y300343D01*
X944371Y298000D02*
X947685D01*
X942028Y295657D02*
X944371Y298000D01*
X942028Y292182D02*
Y295657D01*
X938250Y288404D02*
X942028Y292182D01*
X938250Y100159D02*
Y288404D01*
X1152450Y92499D02*
Y103425D01*
X1169382Y120357D01*
X1198098D01*
X1231276Y199732D02*
Y205954D01*
X1225050Y212180D02*
X1231276Y205954D01*
X1225050Y212180D02*
Y216957D01*
X1084450Y132175D02*
Y137800D01*
X1080585Y128310D02*
X1084450Y132175D01*
X1062308Y128310D02*
X1080585D01*
X1242217Y270500D02*
X1246450Y274733D01*
X1234129Y270500D02*
X1242217D01*
X1218450Y254821D02*
X1234129Y270500D01*
X1218450Y248174D02*
Y254821D01*
X1246450Y274733D02*
Y285707D01*
X1243999Y288157D02*
X1246450Y285707D01*
X1212668Y288157D02*
X1243999D01*
X1210200Y290625D02*
X1212668Y288157D01*
X1210200Y290625D02*
Y295126D01*
X1213232Y298157D01*
X1245667D01*
X1092208Y146274D02*
X1098487D01*
X1092208Y139874D02*
Y146274D01*
X1064414Y351950D02*
X1205546D01*
X1218496Y339000D02*
X1245525D01*
X1205546Y351950D02*
X1218496Y339000D01*
X1245693Y314057D02*
X1250934Y308816D01*
Y303425D02*
Y308816D01*
X1245667Y298157D02*
X1250934Y303425D01*
X1245458Y323057D02*
X1249950Y327549D01*
Y334575D01*
X1245525Y339000D02*
X1249950Y334575D01*
X1061864Y354500D02*
X1064414Y351950D01*
X1058136Y354500D02*
X1061864D01*
X1055586Y351950D02*
X1058136Y354500D01*
X1031750Y351950D02*
X1055586D01*
X1029700Y354000D02*
X1031750Y351950D01*
X984371Y354000D02*
X1029700D01*
X982028Y351657D02*
X984371Y354000D01*
X982028Y348343D02*
Y351657D01*
X979685Y346000D02*
X982028Y348343D01*
X976371Y346000D02*
X979685D01*
X974028Y343657D02*
X976371Y346000D01*
X974028Y340343D02*
Y343657D01*
X971685Y338000D02*
X974028Y340343D01*
X968371Y338000D02*
X971685D01*
X966028Y335657D02*
X968371Y338000D01*
X966028Y332182D02*
Y335657D01*
X963846Y330000D02*
X966028Y332182D01*
X960371Y330000D02*
X963846D01*
X958028Y327657D02*
X960371Y330000D01*
X958028Y322000D02*
Y327657D01*
Y322000D02*
X962028Y318000D01*
X1166643Y237607D02*
X1173547D01*
X1161450Y242800D02*
X1166643Y237607D01*
X1161450Y242800D02*
Y253750D01*
X1167757Y260057D01*
X1177439D01*
X1006028Y276182D02*
X1011777Y270434D01*
X1003685Y274000D02*
X1008577Y269108D01*
X1011777Y264431D02*
X1011777Y270434D01*
X1011777Y264431D02*
X1016676D01*
X1018751Y253825D02*
Y262357D01*
X1009249Y251751D02*
X1016676D01*
X1009249Y245471D02*
Y251751D01*
Y245471D02*
X1016973D01*
X1019047Y234866D02*
Y243397D01*
X1008577Y263305D02*
X1008577Y269108D01*
X1010651Y261231D02*
X1015551D01*
Y254951D02*
Y261231D01*
X1008123Y254951D02*
X1015551D01*
X1006049Y244345D02*
Y252877D01*
X1008123Y242271D02*
X1015847D01*
Y235992D02*
Y242271D01*
X1010651Y235992D02*
X1015847D01*
X1008577Y233918D02*
X1008577Y227136D01*
X1023105Y212607D01*
X1183928Y145507D02*
X1186247D01*
X1179250Y150185D02*
X1183928Y145507D01*
X1179250Y150185D02*
Y167521D01*
X1175697Y171074D02*
X1179250Y167521D01*
X1159249Y171074D02*
X1175697D01*
X1159249Y152442D02*
Y171074D01*
X1145630Y150842D02*
X1157649D01*
X1144030Y152442D02*
Y175268D01*
X1135210D02*
X1144030D01*
X1135210Y150950D02*
Y175268D01*
X1121590Y149350D02*
X1133610D01*
X1119990Y150950D02*
Y175346D01*
X1111170D02*
X1119990D01*
X1111170Y156349D02*
Y175346D01*
X1097551Y154750D02*
X1109570D01*
X1095950Y156349D02*
Y174823D01*
X1087131D02*
X1095950D01*
X1087131Y156872D02*
Y174823D01*
X1073511Y155272D02*
X1085531D01*
X1071911Y156872D02*
Y171074D01*
X1064638D02*
X1071911D01*
X1058233Y177479D02*
X1064638Y171074D01*
X1018600Y171843D02*
X1027100Y163344D01*
X1018600Y174106D02*
X1049345Y204851D01*
X1043109Y211087D02*
X1049345Y204851D01*
X1019809Y187788D02*
X1043109Y211087D01*
X1009047Y196287D02*
X1017546Y187788D01*
X1009047Y198550D02*
X1023105Y212607D01*
X1000371Y274000D02*
X1003685D01*
X998028Y276343D02*
X1000371Y274000D01*
X998028Y276343D02*
Y279657D01*
X995685Y282000D02*
X998028Y279657D01*
X990028Y282000D02*
X995685D01*
X986028Y286000D02*
X990028Y282000D01*
X1182450Y151510D02*
X1185253Y148707D01*
X1182450Y151510D02*
Y168846D01*
X1177022Y174274D02*
X1182450Y168846D01*
X1157649Y174274D02*
X1177022D01*
X1156049Y154042D02*
Y172674D01*
X1147230Y154042D02*
X1156049D01*
X1147230D02*
Y176868D01*
X1133610Y178468D02*
X1145630D01*
X1132010Y152549D02*
Y176868D01*
X1123190Y152549D02*
X1132010D01*
X1123190D02*
Y176946D01*
X1109570Y178546D02*
X1121590D01*
X1107970Y157949D02*
Y176946D01*
X1099150Y157949D02*
X1107970D01*
X1099150D02*
Y176423D01*
X1085531Y178023D02*
X1097551D01*
X1083931Y158472D02*
Y176423D01*
X1075111Y158472D02*
X1083931D01*
X1075111D02*
Y172674D01*
X1065964Y174274D02*
X1073511D01*
X1061627Y178610D02*
X1065964Y174274D01*
X1061627Y178610D02*
X1062714Y179697D01*
X1054214Y190459D02*
X1062714Y181959D01*
X1028231Y166738D02*
X1051952Y190459D01*
X1021994Y172974D02*
X1028231Y166738D01*
X1021994Y172974D02*
X1052739Y203719D01*
X1044240Y214481D02*
X1052739Y205982D01*
X1018678Y191182D02*
X1041977Y214481D01*
X1012441Y197418D02*
X1018678Y191182D01*
X1012441Y197418D02*
X1026499Y211476D01*
X1006028Y276182D02*
Y279657D01*
X1003685Y282000D02*
X1006028Y279657D01*
X1000371Y282000D02*
X1003685D01*
X998028Y284343D02*
X1000371Y282000D01*
X998028Y284343D02*
Y287657D01*
X995685Y290000D02*
X998028Y287657D01*
X982028Y290000D02*
X995685D01*
X978028Y286000D02*
X982028Y290000D01*
X969550Y122925D02*
Y252293D01*
Y122925D02*
X987223Y105252D01*
X955685Y290000D02*
X958885Y293200D01*
X952371Y290000D02*
X955685D01*
X950028Y287657D02*
X952371Y290000D01*
X950028Y272565D02*
Y287657D01*
Y272565D02*
X958093Y264500D01*
X960407D01*
X963750Y261157D01*
Y258093D02*
Y261157D01*
Y258093D02*
X969550Y252293D01*
X989486Y105252D02*
X999131Y114897D01*
X1003571Y110456D01*
X983627Y90512D02*
X1003571Y110456D01*
X983627Y88249D02*
X990330Y81546D01*
X992593D02*
X1001761Y90714D01*
X1005425Y87050D01*
X1013027D01*
X1014627Y88650D02*
Y102290D01*
X1020907D01*
Y73410D02*
Y102290D01*
X1022507Y71810D02*
X1031987D01*
X1033587Y73410D02*
Y102290D01*
X1039866D01*
Y88650D02*
Y102290D01*
X1041466Y87050D02*
X1050075D01*
X1077325Y114300D01*
X1180275Y129000D02*
X1184333Y133057D01*
X1190139D01*
X1198200Y141118D01*
Y180636D01*
X1192029Y186807D02*
X1198200Y180636D01*
X1187653Y186807D02*
X1192029D01*
X987021Y89380D02*
X991461Y84940D01*
X1006750Y90250D02*
X1011427D01*
X1024107Y75010D02*
X1030387D01*
X1188647Y259807D02*
X1193550Y254904D01*
Y226957D02*
Y254904D01*
X1191750Y225157D02*
X1193550Y226957D01*
X1210421Y240146D02*
X1218450Y248174D01*
X1210421Y235603D02*
Y240146D01*
Y235603D02*
X1212021Y234003D01*
Y233000D02*
Y234003D01*
X1205621D02*
X1207221Y235603D01*
X1205621Y233000D02*
Y234003D01*
X1220627Y176833D02*
X1221330Y176131D01*
X1222324D01*
X1225050Y178857D01*
X1219582Y173353D02*
Y173353D01*
Y173353D02*
X1222028Y170907D01*
X1224347D01*
X1225050Y170204D01*
Y166157D02*
Y170204D01*
X1226015Y204257D02*
X1228076Y202196D01*
Y201057D02*
Y202196D01*
X1174250Y200210D02*
Y204257D01*
X1173547Y196307D02*
X1174250Y195604D01*
X1156129Y268379D02*
X1167074D01*
X1148087Y260337D02*
X1156129Y268379D01*
X1160700Y220089D02*
X1165768Y225157D01*
X1191750D01*
X1144887Y233078D02*
Y261663D01*
X1148087Y232853D02*
Y260337D01*
X1142974Y230474D02*
Y231165D01*
X1144887Y233078D01*
X1150000Y230250D02*
Y230940D01*
X1148087Y232853D02*
X1150000Y230940D01*
X1163900Y216603D02*
X1165500Y215003D01*
Y214000D02*
Y215003D01*
X1160700Y216603D02*
Y220089D01*
X1159100Y215003D02*
X1160700Y216603D01*
X1159100Y214000D02*
Y215003D01*
X1178777Y210619D02*
X1178881D01*
X1177452Y207419D02*
X1177555D01*
X1186950Y263710D02*
Y267757D01*
Y263710D02*
X1187653Y263007D01*
X1186950Y255057D02*
Y259104D01*
X1187653Y259807D01*
X1188647D01*
X1165748Y271579D02*
X1169877Y275707D01*
X1173547D01*
X1174250Y276410D01*
Y280457D01*
X1167074Y268379D02*
X1171202Y272507D01*
X1173547D01*
X1174250Y271804D01*
Y267757D02*
Y271804D01*
X1224206Y178857D02*
X1225050D01*
X943744Y363600D02*
X946028Y365884D01*
X942750Y363600D02*
X943744D01*
Y360400D02*
X946028Y358116D01*
X941425Y360400D02*
X943744D01*
X936526Y365299D02*
X941425Y360400D01*
X946500Y439361D02*
Y443617D01*
X945797Y438658D02*
X946500Y439361D01*
X940629Y438658D02*
X945797D01*
X946500Y430500D02*
Y434756D01*
X945797Y435459D02*
X946500Y434756D01*
X992371Y338000D02*
X1036878D01*
X1038028Y336850D01*
X1048047D01*
X1048750Y337553D01*
Y338657D01*
X1051093Y341000D01*
X1054407D01*
X990028Y327737D02*
X992291Y330000D01*
X1035685D01*
X1038028Y332343D01*
Y332947D01*
X1038731Y333650D01*
X1048750D01*
X1049472Y332928D01*
X990028Y332263D02*
Y335657D01*
X987765Y330000D02*
X990028Y332263D01*
X974028Y322000D02*
X979765D01*
X982028Y324263D01*
X990028Y335657D02*
X992371Y338000D01*
X982028Y324263D02*
Y327657D01*
X984371Y330000D02*
X987765D01*
X984291Y322000D02*
X987685D01*
X982028Y327657D02*
X984371Y330000D01*
X982028Y319737D02*
X984291Y322000D01*
X987685D02*
X990028Y324343D01*
X1064500Y348136D02*
Y348750D01*
X946028Y358000D02*
Y358116D01*
Y365884D02*
Y366000D01*
X1055500Y348136D02*
Y348750D01*
X1031750D02*
X1055500D01*
X943628Y312400D02*
X946028Y310000D01*
X961492Y309464D02*
X962028Y310000D01*
X1060434Y130185D02*
X1062308Y128310D01*
X1225050Y204257D02*
X1226015D01*
X1029000Y346000D02*
X1031750Y348750D01*
X984371Y346000D02*
X1029000D01*
X982028Y343657D02*
X984371Y346000D01*
X982028Y340343D02*
Y343657D01*
X979685Y338000D02*
X982028Y340343D01*
X976371Y338000D02*
X979685D01*
X974028Y335657D02*
X976371Y338000D01*
X974028Y332343D02*
Y335657D01*
X971685Y330000D02*
X974028Y332343D01*
X968371Y330000D02*
X971685D01*
X966028Y327657D02*
X968371Y330000D01*
X966028Y314000D02*
Y327657D01*
Y314000D02*
X970028Y310000D01*
X1173547Y237607D02*
X1174250Y238310D01*
Y242357D01*
X1173547Y234407D02*
X1174250Y233704D01*
Y229657D02*
Y233704D01*
X1185253Y148707D02*
X1186247D01*
X1186950Y149410D01*
Y153457D01*
X1186247Y145507D02*
X1186950Y144804D01*
Y140757D02*
Y144804D01*
Y191557D02*
X1187279D01*
X1186950Y182904D02*
X1187653Y183607D01*
X1186950Y178857D02*
Y182904D01*
Y187510D02*
Y191557D01*
Y187510D02*
X1187653Y186807D01*
X958885Y293200D02*
X959925D01*
X960189Y293464D01*
X961492D01*
X962028Y294000D01*
X963685Y290000D02*
X964125Y290440D01*
X965588D01*
X970028Y286000D01*
X1038250Y314000D02*
X1038500Y313750D01*
X1038750Y306000D02*
X1039000Y305750D01*
X1032371Y306000D02*
X1038750D01*
X1032371Y314000D02*
X1038250D01*
X1030028Y316343D02*
X1032371Y314000D01*
X1027846D02*
X1030028Y311818D01*
Y308343D02*
Y311818D01*
Y308343D02*
X1032371Y306000D01*
X992371Y322000D02*
X1027685D01*
X1030028Y319657D01*
Y316343D02*
Y319657D01*
X990028Y314000D02*
X1027846D01*
X986028Y318000D02*
X986564Y318536D01*
X988907D01*
X992371Y322000D01*
X986028Y310000D02*
X990028Y314000D01*
X1056541Y338866D02*
X1059191D01*
X1061253Y340928D01*
X1054407Y341000D02*
X1056541Y338866D01*
X990028Y324343D02*
Y327737D01*
X970028Y318000D02*
X974028Y322000D01*
X978028Y310000D02*
X982028Y314000D01*
Y319737D01*
X970028Y294000D02*
X970564Y294536D01*
D84*
X922750Y461500D02*
G03*
X923000Y461250I250J0D01*
G01*
X922750Y463048D02*
G03*
X922500Y463298I-250J0D01*
G01*
X918000D02*
G03*
X917750Y463048I0J-250D01*
G01*
X917500Y459202D02*
G03*
X917750Y459452I0J250D01*
G01*
X912750D02*
G03*
X913000Y459202I250J0D01*
G01*
X912750Y463048D02*
G03*
X912500Y463298I-250J0D01*
G01*
X908000D02*
G03*
X907750Y463048I0J-250D01*
G01*
X907500Y459202D02*
G03*
X907750Y459452I0J250D01*
G01*
X902750D02*
G03*
X903000Y459202I250J0D01*
G01*
X902750Y463048D02*
G03*
X902500Y463298I-250J0D01*
G01*
X898000D02*
G03*
X897750Y463048I0J-250D01*
G01*
X897500Y461250D02*
G03*
X897750Y461500I0J250D01*
G01*
X1047250Y432198D02*
G03*
X1047500Y431948I250J0D01*
G01*
X1047250Y433778D02*
G03*
X1047000Y434028I-250J0D01*
G01*
X1042500D02*
G03*
X1042250Y433778I0J-250D01*
G01*
X1042000Y429868D02*
G03*
X1042250Y430118I0J250D01*
G01*
X1037250D02*
G03*
X1037500Y429868I250J0D01*
G01*
X1037250Y433778D02*
G03*
X1037000Y434028I-250J0D01*
G01*
X1032500D02*
G03*
X1032250Y433778I0J-250D01*
G01*
X1032000Y429868D02*
G03*
X1032250Y430118I0J250D01*
G01*
X1027250D02*
G03*
X1027500Y429868I250J0D01*
G01*
X1027250Y433778D02*
G03*
X1027000Y434028I-250J0D01*
G01*
X1022500D02*
G03*
X1022250Y433778I0J-250D01*
G01*
X1022000Y429868D02*
G03*
X1022250Y430118I0J250D01*
G01*
X1017250D02*
G03*
X1017500Y429868I250J0D01*
G01*
X1017250Y433778D02*
G03*
X1017000Y434028I-250J0D01*
G01*
X1012500D02*
G03*
X1012250Y433778I0J-250D01*
G01*
X1012000Y431948D02*
G03*
X1012250Y432198I0J250D01*
G01*
X926000Y535850D02*
G03*
X926250Y535600I250J0D01*
G01*
X926000Y537030D02*
G03*
X925750Y537280I-250J0D01*
G01*
X921250D02*
G03*
X921000Y537030I0J-250D01*
G01*
X920750Y535600D02*
G03*
X921000Y535850I0J250D01*
G01*
X996250Y535600D02*
G03*
X996000Y535350I0J-250D01*
G01*
X995750Y531520D02*
G03*
X996000Y531770I0J250D01*
G01*
X991000D02*
G03*
X991250Y531520I250J0D01*
G01*
X991000Y538242D02*
G03*
X990750Y538492I-250J0D01*
G01*
X986250D02*
G03*
X986000Y538242I0J-250D01*
G01*
X985750Y535600D02*
G03*
X986000Y535850I0J250D01*
G01*
X1020000Y473124D02*
G03*
X1020250Y472874I250J0D01*
G01*
X1020000Y474745D02*
G03*
X1019750Y474995I-250J0D01*
G01*
X1015250D02*
G03*
X1015000Y474745I0J-250D01*
G01*
X1014750Y472874D02*
G03*
X1015000Y473124I0J250D01*
G01*
X970267Y431948D02*
X1009750D01*
X962942Y439274D02*
X970267Y431948D01*
X962942Y439274D02*
Y443308D01*
X945000Y461250D02*
X962942Y443308D01*
X939750Y461250D02*
X945000D01*
X884724D02*
X895250D01*
X923000D02*
X939750D01*
X922750Y461500D02*
Y463048D01*
X918000Y463298D02*
X922500D01*
X917750Y461250D02*
Y463048D01*
Y459452D02*
Y461250D01*
X913000Y459202D02*
X917500D01*
X912750Y459452D02*
Y461250D01*
Y463048D01*
X908000Y463298D02*
X912500D01*
X907750Y461250D02*
Y463048D01*
Y459452D02*
Y461250D01*
X903000Y459202D02*
X907500D01*
X902750Y459452D02*
Y461250D01*
Y463048D01*
X898000Y463298D02*
X902500D01*
X897750Y461500D02*
Y463048D01*
X895250Y461250D02*
X897500D01*
X867530Y478444D02*
X884724Y461250D01*
X859070Y478444D02*
X867530D01*
X804014Y533500D02*
X859070Y478444D01*
X666250Y533500D02*
X804014D01*
X660500Y527750D02*
X666250Y533500D01*
X1128415Y463222D02*
X1174250Y509057D01*
X1084760Y463222D02*
X1128415D01*
X1080188Y458649D02*
X1084760Y463222D01*
X1080188Y447008D02*
Y458649D01*
X1065128Y431948D02*
X1080188Y447008D01*
X1050250Y431948D02*
X1065128D01*
X1047500D02*
X1050250D01*
X1047250Y432198D02*
Y433778D01*
X1042500Y434028D02*
X1047000D01*
X1042250Y431948D02*
Y433778D01*
Y430118D02*
Y431948D01*
X1037500Y429868D02*
X1042000D01*
X1037250Y430118D02*
Y431948D01*
Y433778D01*
X1032500Y434028D02*
X1037000D01*
X1032250Y431948D02*
Y433778D01*
Y430118D02*
Y431948D01*
X1027500Y429868D02*
X1032000D01*
X1027250Y430118D02*
Y431948D01*
Y433778D01*
X1022500Y434028D02*
X1027000D01*
X1022250Y431948D02*
Y433778D01*
Y430118D02*
Y431948D01*
X1017500Y429868D02*
X1022000D01*
X1017250Y430118D02*
Y431948D01*
Y433778D01*
X1012500Y434028D02*
X1017000D01*
X1012250Y432198D02*
Y433778D01*
X1009750Y431948D02*
X1012000D01*
X970500Y535600D02*
X983500D01*
X910196D02*
X918500D01*
X926250D02*
X970500D01*
X926000Y535850D02*
Y537030D01*
X921250Y537280D02*
X925750D01*
X921000Y535850D02*
Y537030D01*
X918500Y535600D02*
X920750D01*
X873396Y572400D02*
X910196Y535600D01*
X650000Y572400D02*
X873396D01*
X642500Y564900D02*
X650000Y572400D01*
X637900Y564900D02*
X642500D01*
X600500Y527500D02*
X637900Y564900D01*
X1149943Y510150D02*
X1174250Y534457D01*
X1081100Y510150D02*
X1149943D01*
X1055650Y535600D02*
X1081100Y510150D01*
X1007000Y535600D02*
X1055650D01*
X996250D02*
X1007000D01*
X996000Y531770D02*
Y535350D01*
X991250Y531520D02*
X995750D01*
X991000Y531770D02*
Y535600D01*
Y538242D01*
X986250Y538492D02*
X990750D01*
X986000Y535850D02*
Y538242D01*
X983500Y535600D02*
X985750D01*
X1106694Y483944D02*
X1118000Y495250D01*
X1083076Y483944D02*
X1106694D01*
X1072006Y472874D02*
X1083076Y483944D01*
X1067750Y472874D02*
X1072006D01*
X944374D02*
X1012500D01*
X1020250D02*
X1067750D01*
X1020000Y473124D02*
Y474745D01*
X1015250Y474995D02*
X1019750D01*
X1015000Y473124D02*
Y474745D01*
X1012500Y472874D02*
X1014750D01*
X939748Y477500D02*
X944374Y472874D01*
X939748Y477500D02*
Y485072D01*
X936100Y488720D02*
X939748Y485072D01*
X936100Y488720D02*
Y499420D01*
X938900Y502220D01*
Y519280D01*
X930580Y527600D02*
X938900Y519280D01*
X836150Y527600D02*
X930580D01*
X813750Y550000D02*
X836150Y527600D01*
X643000Y550000D02*
X813750D01*
X620750Y527750D02*
X643000Y550000D01*
X1174250Y496357D02*
X1179872Y501979D01*
X1186802D01*
X1191850Y507027D01*
Y511087D01*
X1188980Y513957D02*
X1191850Y511087D01*
X1165073Y513957D02*
X1188980D01*
X1125069Y473954D02*
X1165073Y513957D01*
X1084316Y473954D02*
X1125069D01*
X1076788Y466425D02*
X1084316Y473954D01*
X1076788Y464028D02*
Y466425D01*
X1071410Y458650D02*
X1076788Y464028D01*
X1008128Y458650D02*
X1071410D01*
X1004148Y462629D02*
X1008128Y458650D01*
X988464Y462629D02*
X1004148D01*
X984196Y466898D02*
X988464Y462629D01*
X928602Y466898D02*
X984196D01*
X887250Y508250D02*
X928602Y466898D01*
X842500Y508250D02*
X887250D01*
X808250Y542500D02*
X842500Y508250D01*
X655250Y542500D02*
X808250D01*
X640500Y527750D02*
X655250Y542500D01*
X1047400Y550850D02*
Y552850D01*
X1030100Y570150D02*
X1047400Y552850D01*
X964400Y570150D02*
X1030100D01*
X954600Y560350D02*
X964400Y570150D01*
X894342Y560350D02*
X954600D01*
X1189425Y566025D02*
X1206000Y549450D01*
X1163443Y566025D02*
X1189425D01*
X1113090Y515672D02*
X1163443Y566025D01*
X1206000Y469750D02*
Y549450D01*
X1289008Y165658D02*
X1294490Y160176D01*
X1289008Y165658D02*
Y200794D01*
X1291964Y203750D01*
X600500Y527500D02*
X600982D01*
X819746Y586715D02*
X867977D01*
X819631Y586600D02*
X819746Y586715D01*
X867977D02*
X894342Y560350D01*
X1192078Y578250D02*
X1215900Y554428D01*
X1157820Y578250D02*
X1192078D01*
X1105350Y525780D02*
X1157820Y578250D01*
X1079914Y525780D02*
X1105350D01*
X1068750Y536944D02*
X1079914Y525780D01*
X1068750Y536944D02*
Y546316D01*
X1047400Y550850D02*
X1082578Y515672D01*
X1113090D01*
X1027528Y577222D02*
X1037844D01*
X1016400Y588350D02*
X1027528Y577222D01*
X971383Y588350D02*
X1016400D01*
X955632Y572600D02*
X971383Y588350D01*
X1037844Y577222D02*
X1068750Y546316D01*
X886900Y572600D02*
X955632D01*
X859100Y600400D02*
X886900Y572600D01*
X845600Y600400D02*
X859100D01*
X841175Y604825D02*
X845600Y600400D01*
X815245Y604825D02*
X841175D01*
X1186950Y445557D02*
X1191850Y450457D01*
Y460287D01*
X1188980Y463157D02*
X1191850Y460287D01*
X1145208Y463157D02*
X1188980D01*
X1131897Y449846D02*
X1145208Y463157D01*
X1087314Y449846D02*
X1131897D01*
X1215900Y473177D02*
Y554428D01*
Y473177D02*
X1223020Y466057D01*
X1224791D01*
X1232250Y458598D01*
X1237410D01*
X1237750Y458257D01*
X1213209Y449541D02*
X1222093Y440657D01*
X1227080D01*
X1231980Y445557D01*
X1237750D01*
X1213209Y449541D02*
Y462541D01*
X1206000Y469750D02*
X1213209Y462541D01*
X1239250Y376000D02*
X1253500Y390250D01*
X1231693Y376000D02*
X1239250D01*
X1225050Y369357D02*
X1231693Y376000D01*
X769830Y586600D02*
X819631D01*
X759170Y596400D02*
X760030D01*
X769830Y586600D01*
X1312250Y246250D02*
X1312350Y246150D01*
X1309750Y248750D02*
X1312250Y246250D01*
Y246250D01*
Y209752D02*
Y246250D01*
X1311250Y247250D02*
X1312250Y246250D01*
X1306546Y204048D02*
X1312250Y209752D01*
X1304962Y204048D02*
X1306546D01*
X1300000Y199086D02*
X1304962Y204048D01*
X1300000Y163790D02*
Y199086D01*
Y163790D02*
X1305010Y158780D01*
X1299250Y203750D02*
X1306540Y211040D01*
X1291964Y203750D02*
X1299250D01*
X1306540Y211040D02*
X1306608D01*
X1294500Y153000D02*
X1299750Y147750D01*
X1294490Y153010D02*
X1294500Y153000D01*
X1294490Y153010D02*
Y160176D01*
X1312350Y246150D02*
Y246150D01*
Y246150D02*
X1312500Y246000D01*
X1305010Y152650D02*
X1309910Y147750D01*
X1317150Y140510D01*
X1305010Y152650D02*
Y158780D01*
X1301708Y248750D02*
X1309750D01*
X1299250Y251208D02*
X1301708Y248750D01*
X1299250Y251208D02*
Y258450D01*
X810670Y609400D02*
X815245Y604825D01*
X786996Y609400D02*
X810670D01*
X782096Y604500D02*
X786996Y609400D01*
X758000Y604500D02*
X782096D01*
X750500Y605070D02*
X759170Y596400D01*
X750500Y605070D02*
Y611000D01*
X735000Y598000D02*
Y603750D01*
X747150Y615900D01*
X755600D01*
X758000Y613500D01*
Y604500D02*
Y613500D01*
X744500Y596500D02*
Y605000D01*
X750500Y611000D01*
X739500Y591500D02*
X744500Y596500D01*
X727250Y591500D02*
X739500D01*
X719671Y586929D02*
X726850Y579750D01*
X719671Y586929D02*
Y596921D01*
X727250Y604500D01*
X1310164Y114996D02*
Y125978D01*
Y114996D02*
X1312250Y112910D01*
Y98500D02*
Y112910D01*
X1317150Y94900D02*
Y140510D01*
X1312250Y90000D02*
X1317150Y94900D01*
X1293908Y263792D02*
X1299250Y258450D01*
X1289590Y147750D02*
X1294750Y142590D01*
Y122500D02*
Y142590D01*
X1290750Y118500D02*
X1294750Y122500D01*
X1299750Y147750D02*
X1305000Y142500D01*
Y118906D02*
Y142500D01*
X1302750Y116656D02*
X1305000Y118906D01*
X1302750Y105750D02*
Y116656D01*
D88*
X730582Y53997D02*
X725250D01*
Y49999D01*
X727916Y51332D01*
X729249D01*
X730582Y49999D01*
Y47333D01*
X729249Y46000D01*
X726583D01*
X725250Y47333D01*
D89*
X607000Y43000D02*
D03*
Y593000D02*
D03*
D90*
X640000Y35000D02*
D03*
Y600500D02*
D03*
D92*
X904000Y345750D02*
D03*
X892500Y345750D02*
D03*
X1205621Y233000D02*
D03*
X1212021D02*
D03*
X1150000Y230250D02*
D03*
X1159100Y214000D02*
D03*
X1165500D02*
D03*
X1186950Y267757D02*
D03*
X1142974Y230474D02*
D03*
X1174250Y204257D02*
D03*
X1225050Y178857D02*
D03*
X832500Y316250D02*
D03*
X832250Y422000D02*
D03*
X882750Y264750D02*
D03*
X915792Y217993D02*
D03*
X922900Y348400D02*
D03*
X928000Y342250D02*
D03*
X921545Y399770D02*
D03*
X916000Y405000D02*
D03*
X1118000Y495250D02*
D03*
X1120500Y257000D02*
D03*
X1141500Y433750D02*
D03*
X946500Y443617D02*
D03*
X1208309Y454772D02*
D03*
X1237750Y445557D02*
D03*
Y458257D02*
D03*
X1225050Y445557D02*
D03*
Y458257D02*
D03*
X1253500Y390250D02*
D03*
X981000Y408000D02*
D03*
X1119500Y224500D02*
D03*
X1071250Y266000D02*
D03*
X1087314Y449846D02*
D03*
X882750Y254000D02*
D03*
X946500Y430500D02*
D03*
X727250Y591500D02*
D03*
X735000Y598000D02*
D03*
X727250Y604500D02*
D03*
X1250250Y90000D02*
D03*
X1255250Y95000D02*
D03*
X1262750Y106500D02*
D03*
Y73750D02*
D03*
X1290750Y118500D02*
D03*
X1312250Y98500D02*
D03*
Y90000D02*
D03*
X1302750Y105750D02*
D03*
X1310164Y125978D02*
D03*
X1309910Y147750D02*
D03*
X1299750D02*
D03*
X1289590D02*
D03*
X1306608Y198764D02*
D03*
Y211040D02*
D03*
X1293908Y263792D02*
D03*
X750500Y611000D02*
D03*
X758000Y604500D02*
D03*
X726850Y579750D02*
D03*
X682750Y580000D02*
D03*
X683250Y591500D02*
D03*
X660500Y527750D02*
D03*
X640500D02*
D03*
X620750D02*
D03*
X600500Y527500D02*
D03*
X1131805Y392769D02*
D03*
X1127750Y375250D02*
D03*
X1186950Y153457D02*
D03*
Y255057D02*
D03*
X1174250Y267757D02*
D03*
Y280457D02*
D03*
X1186950Y140757D02*
D03*
X1174250Y166157D02*
D03*
X1186950Y178857D02*
D03*
X1174250Y191557D02*
D03*
X1186950D02*
D03*
X999150Y374750D02*
D03*
X999250Y383750D02*
D03*
X1174250Y153457D02*
D03*
Y534457D02*
D03*
Y509057D02*
D03*
X1237750Y496357D02*
D03*
X1174250D02*
D03*
X1225050Y166157D02*
D03*
Y470957D02*
D03*
X1174250Y458257D02*
D03*
X1225050Y204257D02*
D03*
X1186950Y445557D02*
D03*
X1225050Y216957D02*
D03*
X1174250Y229657D02*
D03*
X1237750Y407457D02*
D03*
X1174250Y242357D02*
D03*
X1237750Y394757D02*
D03*
X1174250Y382057D02*
D03*
X1225050Y369357D02*
D03*
X1174250Y356657D02*
D03*
X1237750Y343957D02*
D03*
D96*
X1100000Y362375D02*
G03*
X1100375Y362000I375J0D01*
G01*
X1100000Y386658D02*
G03*
X1099625Y387033I-375J0D01*
G01*
X1092875D02*
G03*
X1092500Y386658I0J-375D01*
G01*
X1092125Y356746D02*
G03*
X1092500Y357121I0J375D01*
G01*
X1085000D02*
G03*
X1085375Y356746I375J0D01*
G01*
X1085000Y386658D02*
G03*
X1084625Y387033I-375J0D01*
G01*
X1077875D02*
G03*
X1077500Y386658I0J-375D01*
G01*
X1077125Y356746D02*
G03*
X1077500Y357121I0J375D01*
G01*
X1070000D02*
G03*
X1070375Y356746I375J0D01*
G01*
X1070000Y386658D02*
G03*
X1069625Y387033I-375J0D01*
G01*
X1062875D02*
G03*
X1062500Y386658I0J-375D01*
G01*
X1062125Y359296D02*
G03*
X1062500Y359672I0J375D01*
G01*
X1055000D02*
G03*
X1055375Y359296I375J0D01*
G01*
X1055000Y386658D02*
G03*
X1054625Y387033I-375J0D01*
G01*
X1047875D02*
G03*
X1047500Y386658I0J-375D01*
G01*
X1047125Y362000D02*
G03*
X1047500Y362375I0J375D01*
G01*
X1064000Y423675D02*
G03*
X1063625Y424050I-375J0D01*
G01*
X1064000Y405401D02*
G03*
X1064375Y405026I375J0D01*
G01*
X1071125D02*
G03*
X1071500Y405401I0J375D01*
G01*
X1071875Y432202D02*
G03*
X1071500Y431827I0J-375D01*
G01*
X1079000D02*
G03*
X1078625Y432202I-375J0D01*
G01*
X1079000Y399278D02*
G03*
X1079375Y398903I375J0D01*
G01*
X1086125D02*
G03*
X1086500Y399278I0J375D01*
G01*
X1086875Y424050D02*
G03*
X1086500Y423675I0J-375D01*
G01*
X1231493Y388500D02*
X1236509Y393516D01*
X1222000Y388500D02*
X1231493D01*
X1213750Y380250D02*
X1222000Y388500D01*
X1207000Y380250D02*
X1213750D01*
X1201250Y374500D02*
X1207000Y380250D01*
X1171750Y374500D02*
X1201250D01*
X1159250Y362000D02*
X1171750Y374500D01*
X1124250Y362000D02*
X1159250D01*
X1039250D02*
X1043750D01*
X1100375D02*
X1124250D01*
X1100000Y362375D02*
Y386658D01*
X1092875Y387033D02*
X1099625D01*
X1092500Y362000D02*
Y386658D01*
Y357121D02*
Y362000D01*
X1085375Y356746D02*
X1092125D01*
X1085000Y357121D02*
Y362000D01*
Y386658D01*
X1077875Y387033D02*
X1084625D01*
X1077500Y362000D02*
Y386658D01*
Y357121D02*
Y362000D01*
X1070375Y356746D02*
X1077125D01*
X1070000Y357121D02*
Y362000D01*
Y386658D01*
X1062875Y387033D02*
X1069625D01*
X1062500Y362000D02*
Y386658D01*
Y359672D02*
Y362000D01*
X1055375Y359296D02*
X1062125D01*
X1055000Y359672D02*
Y362000D01*
Y386658D01*
X1047875Y387033D02*
X1054625D01*
X1047500Y362375D02*
Y386658D01*
X1043750Y362000D02*
X1047125D01*
X1090250Y424050D02*
X1091750D01*
X1048500D02*
X1063625D01*
X1064000Y405401D02*
Y423675D01*
X1064375Y405026D02*
X1071125D01*
X1071500Y405401D02*
Y424050D01*
Y431827D01*
X1071875Y432202D02*
X1078625D01*
X1079000Y424050D02*
Y431827D01*
Y399278D02*
Y424050D01*
X1079375Y398903D02*
X1086125D01*
X1086500Y399278D02*
Y423675D01*
X1086875Y424050D02*
X1090250D01*
X975550D02*
X1048500D01*
X965250Y413750D02*
X975550Y424050D01*
X1188876Y377407D02*
X1206000Y394531D01*
X1139169Y377407D02*
X1188876D01*
X1092526Y424050D02*
X1139169Y377407D01*
X1091750Y424050D02*
X1092526D01*
X992055Y394119D02*
X1109093D01*
X986600Y399574D02*
X992055Y394119D01*
X1109093D02*
X1127750Y375463D01*
X986600Y399574D02*
Y402400D01*
X981000Y408000D02*
X986600Y402400D01*
X922300Y389525D02*
Y394938D01*
Y389525D02*
X928000Y383825D01*
X921545Y395693D02*
X922300Y394938D01*
X928000Y342250D02*
Y383825D01*
X921545Y395693D02*
Y399770D01*
X918900Y381280D02*
Y393530D01*
X916000Y396430D02*
X918900Y393530D01*
X1275500Y203093D02*
X1277116Y204709D01*
X1250232Y147982D02*
X1260200Y157950D01*
X1250232Y90018D02*
Y147982D01*
X1262750Y136750D02*
X1275500Y149500D01*
X1262750Y106500D02*
Y136750D01*
X1260200Y157950D02*
Y410550D01*
X1275500Y149500D02*
Y203093D01*
X1255250Y141301D02*
X1268500Y154551D01*
X1286700Y205373D02*
Y210408D01*
X1282750Y201423D02*
X1286700Y205373D01*
X1237750Y445557D02*
X1268500Y414807D01*
Y154551D02*
Y414807D01*
X1237750Y458257D02*
X1277116Y418891D01*
Y204709D02*
Y418891D01*
X1286786Y210408D02*
Y421964D01*
X1249250Y459500D02*
X1286786Y421964D01*
X1243750Y427000D02*
X1260200Y410550D01*
X1227500Y427000D02*
X1243750D01*
X1249250Y459500D02*
Y484857D01*
X1237750Y496357D02*
X1249250Y484857D01*
X1282750Y145576D02*
Y201423D01*
X1255250Y95000D02*
Y141301D01*
X1268100Y130926D02*
X1282750Y145576D01*
X1262750Y73750D02*
X1268100Y79100D01*
Y130926D01*
X1206000Y394531D02*
Y394983D01*
X1223124Y412107D01*
X1233100D01*
X1172743Y458257D02*
X1173009Y457991D01*
X1159431Y458257D02*
X1172743D01*
X1128600Y427426D02*
X1159431Y458257D01*
X1128600Y396281D02*
Y427426D01*
Y396281D02*
X1131805Y393076D01*
Y392769D02*
Y393076D01*
X922900Y348400D02*
Y377280D01*
X918900Y381280D02*
X922900Y377280D01*
X916000Y396430D02*
Y405000D01*
X976500Y391000D02*
Y403500D01*
X981000Y408000D01*
X1208309Y446191D02*
Y454772D01*
Y446191D02*
X1227500Y427000D01*
X1127750Y375250D02*
Y375463D01*
X1233100Y412107D02*
X1237500Y407707D01*
Y407500D02*
Y407707D01*
X1250232Y90018D02*
X1250250Y90000D01*
X1250000Y90250D02*
X1250232Y90018D01*
X1180343Y362750D02*
X1240518D01*
X1174250Y356657D02*
X1180343Y362750D01*
X1240518D02*
X1245250Y358018D01*
Y351457D02*
Y358018D01*
X1237750Y343957D02*
X1245250Y351457D01*
X1236509Y393516D02*
X1237484D01*
X1237500Y393500D01*
D97*
X857000Y280512D02*
G03*
X849560Y298473I-25400J0D01*
G01*
X857000Y269271D02*
G03*
X864439Y251311I25400J0D01*
G01*
X890317Y225433D02*
G03*
X908278Y217993I17960J17960D01*
G01*
X1039000Y362000D02*
X1039250D01*
X976371D02*
X1039000D01*
X974028Y359657D02*
X976371Y362000D01*
X974028Y348343D02*
Y359657D01*
X970564Y344879D02*
X974028Y348343D01*
X970564Y342536D02*
Y344879D01*
X965250Y378843D02*
Y413750D01*
X956907Y370500D02*
X965250Y378843D01*
X952871Y370500D02*
X956907D01*
X950028Y367657D02*
X952871Y370500D01*
X950028Y356343D02*
Y367657D01*
Y356343D02*
X952371Y354000D01*
X955685D01*
X832500Y315533D02*
Y316250D01*
Y315533D02*
X849560Y298473D01*
X908278Y217993D02*
X915792D01*
X857000Y269271D02*
Y280512D01*
X864439Y251311D02*
X890317Y225433D01*
X1141500Y414807D02*
X1174250Y382057D01*
X1141500Y414807D02*
Y433750D01*
X955685Y354000D02*
X956331Y354646D01*
X957325D01*
X958028Y353943D01*
Y332343D02*
Y353943D01*
X954564Y328879D02*
X958028Y332343D01*
X954564Y326536D02*
Y328879D01*
X954028Y326000D02*
X954564Y326536D01*
X966000Y356343D02*
X966028Y356315D01*
Y340343D02*
Y356315D01*
X962564Y336879D02*
X966028Y340343D01*
X962564Y334536D02*
Y336879D01*
X962028Y334000D02*
X962564Y334536D01*
X976500Y370129D02*
Y391000D01*
X974028Y367657D02*
X976500Y370129D01*
X974028Y364343D02*
Y367657D01*
X971685Y362000D02*
X974028Y364343D01*
X968371Y362000D02*
X971685D01*
X966000Y359629D02*
X968371Y362000D01*
X966000Y356343D02*
Y359629D01*
X970028Y342000D02*
X970564Y342536D01*
D100*
X874750Y282771D02*
G03*
X882189Y264811I25400J0D01*
G01*
X876500Y350500D02*
G03*
X874750Y346275I4225J-4225D01*
G01*
X879250Y374479D02*
G03*
X871811Y392439I-25400J0D01*
G01*
X876500Y350500D02*
G03*
X879250Y357139I-6639J6639D01*
G01*
X849589Y414660D02*
G03*
X831629Y422100I-17960J-17960D01*
G01*
X882750Y254000D02*
Y264750D01*
X882189Y264811D02*
X882500Y264500D01*
X874750Y282771D02*
Y346275D01*
X879250Y357139D02*
Y374479D01*
X849589Y414660D02*
X871811Y392439D01*
X831729Y422000D02*
X832250D01*
X831629Y422100D02*
X831729Y422000D01*
D101*
X1225050Y445557D02*
Y458257D01*
D102*
X1294500Y153000D02*
Y160250D01*
M02*
