G04*
G04 #@! TF.GenerationSoftware,Altium Limited,Altium Designer,19.0.15 (446)*
G04*
G04 Layer_Color=8388736*
%FSLAX44Y44*%
%MOMM*%
G71*
G01*
G75*
%ADD42C,0.8000*%
%ADD43C,0.5500*%
%ADD44R,8.4000X1.5750*%
%ADD45R,2.0032X1.3532*%
%ADD46R,2.0000X1.3500*%
%ADD47R,1.3532X2.0032*%
%ADD48R,1.3500X2.0000*%
%ADD49R,0.7832X0.8232*%
%ADD50C,0.6032*%
%ADD51R,0.8232X0.7832*%
%ADD52R,1.2032X1.2032*%
%ADD53R,1.2032X1.2032*%
%ADD54R,0.9632X1.8532*%
%ADD55R,0.8232X0.8232*%
%ADD56R,1.8532X0.9632*%
%ADD57R,1.7032X0.6532*%
%ADD58R,1.1532X1.1532*%
%ADD59R,0.8232X0.8232*%
%ADD60R,1.2032X1.1532*%
%ADD61R,1.0532X2.5032*%
%ADD62R,1.4532X2.0032*%
%ADD63R,1.1032X1.2032*%
%ADD64R,1.2032X1.1532*%
%ADD65R,1.1832X3.9032*%
%ADD66R,1.3532X2.0032*%
%ADD67R,2.0032X1.3532*%
%ADD68R,2.3032X2.3032*%
%ADD69O,0.5032X1.0532*%
%ADD70O,1.0532X0.5032*%
%ADD71R,2.5032X1.0532*%
%ADD72R,1.1532X1.2032*%
%ADD73R,0.6032X0.6532*%
%ADD74R,1.3532X1.6032*%
%ADD75R,1.9832X1.2232*%
%ADD76R,1.2032X1.1032*%
%ADD77C,0.8432*%
%ADD78C,4.2000*%
%ADD79C,5.2000*%
%ADD80C,1.6000*%
G36*
X1370001Y-19500D02*
X533745Y-19500D01*
X533745Y71500D01*
X533765D01*
X533748Y82250D01*
X828000Y82250D01*
Y93250D01*
X850229D01*
Y113000D01*
X857000D01*
X857000Y202250D01*
X849000D01*
Y246750D01*
X857000D01*
X857000Y352000D01*
X850750D01*
X836500Y366250D01*
X823750D01*
Y386750D01*
X842379D01*
X853129Y397500D01*
X857000D01*
Y558000D01*
X585500D01*
Y521000D01*
X566083Y521000D01*
X566083Y521000D01*
X563980Y521000D01*
X559810Y521549D01*
X555748Y522637D01*
X551862Y524247D01*
X548220Y526350D01*
X544883Y528910D01*
X541909Y531884D01*
X539349Y535221D01*
X537246Y538863D01*
X535637Y542749D01*
X534548Y546811D01*
X533999Y550981D01*
Y553084D01*
X533995Y669602D01*
X534893Y670500D01*
X585500D01*
Y670500D01*
X1370001Y670500D01*
X1370001Y-19500D01*
D02*
G37*
%LPC*%
G36*
X1101750Y560750D02*
Y559000D01*
X871500D01*
Y369595D01*
X870750Y369594D01*
X870750Y113000D01*
X871500D01*
Y82000D01*
X879048D01*
Y79637D01*
X1068514D01*
Y83875D01*
X1075970Y91330D01*
X1078014D01*
X1086764Y82580D01*
X1083820Y79637D01*
X1099250D01*
X1099250Y388747D01*
X1103984Y388740D01*
X1103984Y521250D01*
X1103750D01*
X1094812Y530188D01*
Y538750D01*
X1103984D01*
Y560750D01*
X1101750D01*
D02*
G37*
G36*
X668250Y616000D02*
X668250Y571000D01*
X585500Y571000D01*
Y570250D01*
X871500Y570250D01*
Y569086D01*
X1101750D01*
Y565250D01*
X1109750D01*
X1109750Y214747D01*
X1112899D01*
X1113000Y214500D01*
Y98438D01*
X1107250Y92688D01*
X1107250Y71883D01*
X870750Y71883D01*
Y68500D01*
X668250Y68500D01*
X668250Y34000D01*
X1315750D01*
X1315750Y616000D01*
X668250Y616000D01*
D02*
G37*
%LPD*%
D42*
X715087Y90950D02*
G03*
X727787Y78250I12700J0D01*
G01*
X821750D02*
G03*
X830305Y86805I0J8555D01*
G01*
X662840Y78500D02*
G03*
X675540Y91200I0J12700D01*
G01*
X593692Y561692D02*
G03*
X581500Y549500I0J-12192D01*
G01*
X830336Y548992D02*
G03*
X817636Y561692I-12700J0D01*
G01*
X1072705Y548550D02*
G03*
X1060005Y561250I-12700J0D01*
G01*
Y78000D02*
G03*
X1072705Y90700I0J12700D01*
G01*
X715087Y92750D02*
G03*
X675540Y92750I-19774J-3000D01*
G01*
X707813Y89750D02*
G03*
X707813Y89750I-12500J0D01*
G01*
X862579Y550336D02*
G03*
X862579Y550336I-12500J0D01*
G01*
X847086Y244752D02*
G03*
X847086Y205249I3143J-19751D01*
G01*
X862809Y225000D02*
G03*
X862809Y225000I-12500J0D01*
G01*
X572559Y550000D02*
G03*
X572559Y550000I-12500J0D01*
G01*
X1112314Y554750D02*
G03*
X1097314Y569750I-15000J0D01*
G01*
X1072705Y547000D02*
G03*
X1089527Y530219I19774J3000D01*
G01*
X1097314Y70000D02*
G03*
X1112314Y85000I0J15000D01*
G01*
X1089527Y109531D02*
G03*
X1072591Y87640I2952J-19781D01*
G01*
X830336Y547144D02*
G03*
X847022Y530571I19744J3192D01*
G01*
X859729Y515748D02*
G03*
X847022Y530571I-15000J0D01*
G01*
Y394515D02*
G03*
X859729Y409339I-2293J14824D01*
G01*
X862579Y374750D02*
G03*
X862579Y374750I-12500J0D01*
G01*
X847086Y244752D02*
G03*
X859729Y259565I-2357J14814D01*
G01*
Y190435D02*
G03*
X847086Y205249I-15000J0D01*
G01*
X847022Y109515D02*
G03*
X859729Y124339I-2293J14824D01*
G01*
X847022Y109515D02*
G03*
X830305Y92750I3057J-19765D01*
G01*
X862579Y89750D02*
G03*
X862579Y89750I-12500J0D01*
G01*
X561553Y530150D02*
G03*
X579725Y547037I-1594J19936D01*
G01*
X883039Y561096D02*
G03*
X868229Y546286I0J-14810D01*
G01*
Y96052D02*
G03*
X885750Y78531I17521J0D01*
G01*
X847022Y394515D02*
G03*
X834079Y386750I3057J-19765D01*
G01*
X1100479Y550000D02*
G03*
X1100479Y550000I-8000J0D01*
G01*
X1102314Y515383D02*
G03*
X1089527Y530219I-15000J0D01*
G01*
Y109531D02*
G03*
X1102314Y124367I-2214J14836D01*
G01*
X1100559Y90000D02*
G03*
X1100559Y90000I-8000J0D01*
G01*
X1112314Y547431D02*
G03*
X1112314Y552569I-19834J2569D01*
G01*
Y87181D02*
G03*
X1112314Y92319I-19834J2569D01*
G01*
X835057Y362107D02*
G03*
X823750Y367250I-11307J-9857D01*
G01*
X727787Y78250D02*
X821750D01*
X830305Y86805D02*
Y92750D01*
X675540Y91200D02*
Y92750D01*
X593692Y561692D02*
X594579D01*
X815558D02*
X817636D01*
X1057875Y561250D02*
X1060005D01*
X1058180Y78000D02*
X1060005D01*
X823750Y386750D02*
X834079D01*
X538064Y569750D02*
X1097314D01*
X537317Y70000D02*
X1097314D01*
X883039Y561250D02*
X1057875D01*
X885750Y78000D02*
X1058180D01*
X594579Y561692D02*
X815558D01*
X729918Y78000D02*
X815475D01*
X537317Y78500D02*
X660710D01*
X551457Y530150D02*
X561553D01*
X1112314Y92319D02*
Y547431D01*
X1102314Y124367D02*
Y515383D01*
X868229Y96052D02*
Y546286D01*
X859729Y409339D02*
Y515748D01*
Y124339D02*
Y190435D01*
X1112314Y552569D02*
Y554750D01*
Y85000D02*
Y87181D01*
D43*
X835004Y361607D02*
G03*
X847022Y354985I15075J13143D01*
G01*
X859729Y340161D02*
G03*
X847022Y354985I-15000J0D01*
G01*
X859729Y259565D02*
Y340161D01*
D44*
X724750Y50375D02*
D03*
D45*
X1297500Y335000D02*
D03*
X888923Y144185D02*
D03*
X1085500Y152522D02*
D03*
X1297500Y442500D02*
D03*
X889360Y517500D02*
D03*
X1085414Y300000D02*
D03*
D46*
X1297500Y365000D02*
D03*
X888923Y174185D02*
D03*
X1085500Y182523D02*
D03*
X1297500Y472500D02*
D03*
X889360Y547500D02*
D03*
X1085414Y330000D02*
D03*
D47*
X1075000Y50000D02*
D03*
X850000Y49750D02*
D03*
X627500Y547157D02*
D03*
X612500Y97500D02*
D03*
X1025000Y50000D02*
D03*
X836750Y485850D02*
D03*
Y155850D02*
D03*
D48*
X1105000Y50000D02*
D03*
X820000Y49750D02*
D03*
X597500Y547157D02*
D03*
X582500Y97500D02*
D03*
X995000Y50000D02*
D03*
D49*
X892200Y264750D02*
D03*
X882800D02*
D03*
X1000950Y400250D02*
D03*
X991550D02*
D03*
X998050Y580750D02*
D03*
X1007450D02*
D03*
X977646Y477774D02*
D03*
X968246D02*
D03*
X934848Y477520D02*
D03*
X925448D02*
D03*
X1029082Y481076D02*
D03*
X1019682D02*
D03*
X726850Y579750D02*
D03*
X736250D02*
D03*
X971600Y408000D02*
D03*
X981000D02*
D03*
D50*
X1002028Y278000D02*
D03*
X1010028Y286000D02*
D03*
X970028Y318000D02*
D03*
X1034028Y366000D02*
D03*
Y358000D02*
D03*
Y350000D02*
D03*
Y342000D02*
D03*
Y334000D02*
D03*
Y326000D02*
D03*
Y318000D02*
D03*
Y310000D02*
D03*
Y302000D02*
D03*
Y294000D02*
D03*
Y286000D02*
D03*
Y278000D02*
D03*
X1026028Y366000D02*
D03*
Y358000D02*
D03*
Y350000D02*
D03*
Y342000D02*
D03*
Y334000D02*
D03*
Y326000D02*
D03*
Y318000D02*
D03*
Y310000D02*
D03*
Y302000D02*
D03*
Y294000D02*
D03*
Y286000D02*
D03*
Y278000D02*
D03*
X1018028Y366000D02*
D03*
Y358000D02*
D03*
Y350000D02*
D03*
Y342000D02*
D03*
Y334000D02*
D03*
Y326000D02*
D03*
Y318000D02*
D03*
Y310000D02*
D03*
Y302000D02*
D03*
Y294000D02*
D03*
Y286000D02*
D03*
Y278000D02*
D03*
X1010028Y366000D02*
D03*
Y358000D02*
D03*
Y350000D02*
D03*
Y342000D02*
D03*
Y334000D02*
D03*
Y326000D02*
D03*
Y318000D02*
D03*
Y310000D02*
D03*
Y302000D02*
D03*
Y294000D02*
D03*
Y278000D02*
D03*
X1002028Y366000D02*
D03*
Y358000D02*
D03*
Y350000D02*
D03*
Y342000D02*
D03*
Y334000D02*
D03*
Y326000D02*
D03*
Y318000D02*
D03*
Y310000D02*
D03*
Y302000D02*
D03*
Y294000D02*
D03*
Y286000D02*
D03*
X994028Y366000D02*
D03*
Y358000D02*
D03*
Y350000D02*
D03*
Y342000D02*
D03*
Y334000D02*
D03*
Y326000D02*
D03*
Y318000D02*
D03*
Y310000D02*
D03*
Y302000D02*
D03*
Y294000D02*
D03*
Y286000D02*
D03*
Y278000D02*
D03*
X986028Y366000D02*
D03*
Y358000D02*
D03*
Y350000D02*
D03*
Y342000D02*
D03*
Y334000D02*
D03*
Y326000D02*
D03*
Y318000D02*
D03*
Y310000D02*
D03*
Y302000D02*
D03*
Y294000D02*
D03*
Y286000D02*
D03*
Y278000D02*
D03*
X978028Y366000D02*
D03*
Y358000D02*
D03*
Y350000D02*
D03*
Y342000D02*
D03*
Y334000D02*
D03*
Y326000D02*
D03*
Y318000D02*
D03*
Y310000D02*
D03*
Y302000D02*
D03*
Y294000D02*
D03*
Y286000D02*
D03*
Y278000D02*
D03*
X970028Y366000D02*
D03*
Y358000D02*
D03*
Y350000D02*
D03*
Y342000D02*
D03*
Y334000D02*
D03*
Y326000D02*
D03*
Y310000D02*
D03*
Y302000D02*
D03*
Y294000D02*
D03*
Y286000D02*
D03*
Y278000D02*
D03*
X962028Y366000D02*
D03*
Y358000D02*
D03*
Y350000D02*
D03*
Y342000D02*
D03*
Y334000D02*
D03*
Y326000D02*
D03*
Y318000D02*
D03*
Y310000D02*
D03*
Y302000D02*
D03*
Y294000D02*
D03*
Y286000D02*
D03*
Y278000D02*
D03*
X954028Y366000D02*
D03*
Y358000D02*
D03*
Y350000D02*
D03*
Y342000D02*
D03*
Y334000D02*
D03*
Y326000D02*
D03*
Y318000D02*
D03*
Y310000D02*
D03*
Y302000D02*
D03*
Y294000D02*
D03*
Y286000D02*
D03*
Y278000D02*
D03*
X946028Y366000D02*
D03*
Y358000D02*
D03*
Y350000D02*
D03*
Y342000D02*
D03*
Y334000D02*
D03*
Y326000D02*
D03*
Y318000D02*
D03*
Y310000D02*
D03*
Y302000D02*
D03*
Y294000D02*
D03*
Y286000D02*
D03*
Y278000D02*
D03*
D51*
X933750Y293025D02*
D03*
Y302425D02*
D03*
Y274000D02*
D03*
Y283400D02*
D03*
X1023250Y254750D02*
D03*
Y245350D02*
D03*
X1072896Y499744D02*
D03*
Y509144D02*
D03*
Y490094D02*
D03*
Y480694D02*
D03*
X1293908Y167688D02*
D03*
Y177088D02*
D03*
X1306608Y167688D02*
D03*
Y177088D02*
D03*
X1293908Y276068D02*
D03*
Y285468D02*
D03*
Y220440D02*
D03*
Y211040D02*
D03*
X1306608D02*
D03*
Y220440D02*
D03*
X1293908Y254392D02*
D03*
Y263792D02*
D03*
Y242116D02*
D03*
Y232716D02*
D03*
X1306608Y242116D02*
D03*
Y232716D02*
D03*
X980186Y495934D02*
D03*
Y505334D02*
D03*
X1293908Y189364D02*
D03*
Y198764D02*
D03*
X1306608Y189364D02*
D03*
Y198764D02*
D03*
D52*
X620750Y527750D02*
D03*
X680500D02*
D03*
X660500D02*
D03*
X700500D02*
D03*
X780500D02*
D03*
X600500Y527500D02*
D03*
X740500Y527750D02*
D03*
X720500D02*
D03*
X760500D02*
D03*
X640500D02*
D03*
D53*
X832250Y200350D02*
D03*
Y180350D02*
D03*
Y263350D02*
D03*
Y342750D02*
D03*
Y316283D02*
D03*
Y422100D02*
D03*
Y452350D02*
D03*
Y289803D02*
D03*
X929000Y391500D02*
D03*
X914000D02*
D03*
D54*
X910950Y289350D02*
D03*
X898250D02*
D03*
X885550D02*
D03*
Y321150D02*
D03*
X898250D02*
D03*
X910950D02*
D03*
D55*
X892500Y336750D02*
D03*
Y345750D02*
D03*
X904000Y336750D02*
D03*
Y345750D02*
D03*
X989250Y552392D02*
D03*
Y543392D02*
D03*
X999250Y552392D02*
D03*
Y543392D02*
D03*
X1312418Y564498D02*
D03*
Y555498D02*
D03*
X1311910Y539750D02*
D03*
Y530750D02*
D03*
X1312164Y473782D02*
D03*
Y482782D02*
D03*
X1013714Y509342D02*
D03*
Y518342D02*
D03*
X882000Y398500D02*
D03*
Y389500D02*
D03*
X1289844Y134978D02*
D03*
Y125978D02*
D03*
X1309910Y156750D02*
D03*
Y147750D02*
D03*
X1310164Y134978D02*
D03*
Y125978D02*
D03*
X1299750Y156750D02*
D03*
Y147750D02*
D03*
X1289590Y156750D02*
D03*
Y147750D02*
D03*
X933750Y321250D02*
D03*
Y312250D02*
D03*
X893250Y398500D02*
D03*
Y389500D02*
D03*
D56*
X889360Y424050D02*
D03*
Y436750D02*
D03*
Y449450D02*
D03*
X921160D02*
D03*
Y436750D02*
D03*
Y424050D02*
D03*
D57*
X754082Y591468D02*
D03*
Y597968D02*
D03*
Y604468D02*
D03*
Y610968D02*
D03*
X812082D02*
D03*
Y604468D02*
D03*
Y597968D02*
D03*
Y591468D02*
D03*
X687168D02*
D03*
Y597968D02*
D03*
Y604468D02*
D03*
Y610968D02*
D03*
X731168D02*
D03*
Y604468D02*
D03*
Y597968D02*
D03*
Y591468D02*
D03*
D58*
X897750Y254000D02*
D03*
X882750D02*
D03*
D59*
X1146000Y613000D02*
D03*
X1137000D02*
D03*
X1078666Y578358D02*
D03*
X1069666D02*
D03*
X1094812Y579120D02*
D03*
X1103812D02*
D03*
X911606Y515874D02*
D03*
X920606D02*
D03*
X999494Y478113D02*
D03*
X990494D02*
D03*
X999494Y456946D02*
D03*
X990494D02*
D03*
X999494Y467529D02*
D03*
X990494D02*
D03*
X999494Y488696D02*
D03*
X990494D02*
D03*
X946404Y477774D02*
D03*
X955404D02*
D03*
X1094414Y479044D02*
D03*
X1085414D02*
D03*
X1094414Y489458D02*
D03*
X1085414D02*
D03*
X1094414Y456946D02*
D03*
X1085414D02*
D03*
X1094414Y468122D02*
D03*
X1085414D02*
D03*
X1039500Y480750D02*
D03*
X1048500D02*
D03*
X749750Y579750D02*
D03*
X758750D02*
D03*
X691750Y580000D02*
D03*
X682750D02*
D03*
X937500Y430500D02*
D03*
X946500D02*
D03*
X937500Y443617D02*
D03*
X946500D02*
D03*
D60*
X1122250Y611000D02*
D03*
Y595000D02*
D03*
X1055624Y611758D02*
D03*
Y595758D02*
D03*
X1106678Y610742D02*
D03*
Y594742D02*
D03*
X993394Y517778D02*
D03*
Y501778D02*
D03*
X1088314Y520572D02*
D03*
Y504572D02*
D03*
X1304250Y40250D02*
D03*
Y56250D02*
D03*
X1290750Y40250D02*
D03*
Y56250D02*
D03*
D61*
X1071020Y599694D02*
D03*
X1090520D02*
D03*
D62*
X1038606Y608122D02*
D03*
Y582122D02*
D03*
X1298448Y608122D02*
D03*
Y582122D02*
D03*
D63*
X857000Y595500D02*
D03*
X841000D02*
D03*
X857000Y581815D02*
D03*
X841000D02*
D03*
X976750Y443500D02*
D03*
X992750D02*
D03*
X1070500Y449000D02*
D03*
X1054500D02*
D03*
D64*
X999250Y595250D02*
D03*
Y611250D02*
D03*
D65*
X933640Y596250D02*
D03*
X957340D02*
D03*
D66*
X945956Y545492D02*
D03*
X975956D02*
D03*
X1042500Y545500D02*
D03*
X1012500D02*
D03*
D67*
X979500Y581250D02*
D03*
Y611250D02*
D03*
X1294638Y562130D02*
D03*
Y532130D02*
D03*
X1297500Y387500D02*
D03*
Y417500D02*
D03*
D68*
X950684Y507544D02*
D03*
X1043432Y510032D02*
D03*
D69*
X940934Y525794D02*
D03*
X947434D02*
D03*
X953934D02*
D03*
X960434D02*
D03*
Y489294D02*
D03*
X953934D02*
D03*
X947434D02*
D03*
X940934D02*
D03*
X1033682Y528282D02*
D03*
X1040182D02*
D03*
X1046682D02*
D03*
X1053182D02*
D03*
Y491782D02*
D03*
X1046682D02*
D03*
X1040182D02*
D03*
X1033682D02*
D03*
D70*
X968934Y517294D02*
D03*
Y510794D02*
D03*
Y504294D02*
D03*
Y497794D02*
D03*
X932434D02*
D03*
Y504294D02*
D03*
Y510794D02*
D03*
Y517294D02*
D03*
X1061682Y519782D02*
D03*
Y513282D02*
D03*
Y506782D02*
D03*
Y500282D02*
D03*
X1025182D02*
D03*
Y506782D02*
D03*
Y513282D02*
D03*
Y519782D02*
D03*
D71*
X1298702Y516226D02*
D03*
Y496726D02*
D03*
D72*
X960884Y459446D02*
D03*
X976884D02*
D03*
X1054396Y464566D02*
D03*
X1070396D02*
D03*
D73*
X903500Y388750D02*
D03*
Y395750D02*
D03*
D74*
X914250Y253500D02*
D03*
Y231500D02*
D03*
X930250D02*
D03*
Y253500D02*
D03*
D75*
X887500Y360100D02*
D03*
Y377900D02*
D03*
X910000Y360100D02*
D03*
Y377900D02*
D03*
D76*
X951500Y408321D02*
D03*
Y392321D02*
D03*
D77*
X1174250Y572557D02*
D03*
Y559857D02*
D03*
Y547157D02*
D03*
Y534457D02*
D03*
Y521757D02*
D03*
Y509057D02*
D03*
Y496357D02*
D03*
Y483657D02*
D03*
Y470957D02*
D03*
Y458257D02*
D03*
Y445557D02*
D03*
Y432857D02*
D03*
Y420157D02*
D03*
Y407457D02*
D03*
Y394757D02*
D03*
Y382057D02*
D03*
Y369357D02*
D03*
Y356657D02*
D03*
Y343957D02*
D03*
Y331257D02*
D03*
Y318557D02*
D03*
Y305857D02*
D03*
Y293157D02*
D03*
Y280457D02*
D03*
Y267757D02*
D03*
Y255057D02*
D03*
Y242357D02*
D03*
Y229657D02*
D03*
Y216957D02*
D03*
Y204257D02*
D03*
Y191557D02*
D03*
Y178857D02*
D03*
Y166157D02*
D03*
Y153457D02*
D03*
Y140757D02*
D03*
Y128057D02*
D03*
Y115357D02*
D03*
Y102657D02*
D03*
Y89957D02*
D03*
Y77257D02*
D03*
X1186950Y572557D02*
D03*
Y559857D02*
D03*
Y547157D02*
D03*
Y534457D02*
D03*
Y521757D02*
D03*
Y509057D02*
D03*
Y496357D02*
D03*
Y483657D02*
D03*
Y470957D02*
D03*
Y458257D02*
D03*
Y445557D02*
D03*
Y432857D02*
D03*
Y420157D02*
D03*
Y407457D02*
D03*
Y394757D02*
D03*
Y382057D02*
D03*
Y369357D02*
D03*
Y356657D02*
D03*
Y343957D02*
D03*
Y331257D02*
D03*
Y318557D02*
D03*
Y305857D02*
D03*
Y293157D02*
D03*
Y280457D02*
D03*
Y267757D02*
D03*
Y255057D02*
D03*
Y242357D02*
D03*
Y229657D02*
D03*
Y216957D02*
D03*
Y204257D02*
D03*
Y191557D02*
D03*
Y178857D02*
D03*
Y166157D02*
D03*
Y153457D02*
D03*
Y140757D02*
D03*
Y128057D02*
D03*
Y115357D02*
D03*
Y102657D02*
D03*
Y89957D02*
D03*
Y77257D02*
D03*
X1225050Y572557D02*
D03*
Y559857D02*
D03*
Y547157D02*
D03*
Y534457D02*
D03*
Y521757D02*
D03*
Y509057D02*
D03*
Y496357D02*
D03*
Y483657D02*
D03*
Y470957D02*
D03*
Y458257D02*
D03*
Y445557D02*
D03*
Y432857D02*
D03*
Y420157D02*
D03*
Y407457D02*
D03*
Y394757D02*
D03*
Y382057D02*
D03*
Y369357D02*
D03*
Y356657D02*
D03*
Y343957D02*
D03*
Y331257D02*
D03*
Y318557D02*
D03*
Y305857D02*
D03*
Y293157D02*
D03*
Y280457D02*
D03*
Y267757D02*
D03*
Y255057D02*
D03*
Y242357D02*
D03*
Y229657D02*
D03*
Y216957D02*
D03*
Y204257D02*
D03*
Y191557D02*
D03*
Y178857D02*
D03*
Y166157D02*
D03*
Y153457D02*
D03*
Y140757D02*
D03*
Y128057D02*
D03*
Y115357D02*
D03*
Y102657D02*
D03*
Y89957D02*
D03*
Y77257D02*
D03*
X1237750Y572557D02*
D03*
Y559857D02*
D03*
Y547157D02*
D03*
Y534457D02*
D03*
Y521757D02*
D03*
Y509057D02*
D03*
Y496357D02*
D03*
Y483657D02*
D03*
Y470957D02*
D03*
Y458257D02*
D03*
Y445557D02*
D03*
Y432857D02*
D03*
Y420157D02*
D03*
Y407457D02*
D03*
Y394757D02*
D03*
Y382057D02*
D03*
Y369357D02*
D03*
Y356657D02*
D03*
Y343957D02*
D03*
Y331257D02*
D03*
Y318557D02*
D03*
Y305857D02*
D03*
Y293157D02*
D03*
Y280457D02*
D03*
Y267757D02*
D03*
Y255057D02*
D03*
Y242357D02*
D03*
Y229657D02*
D03*
Y216957D02*
D03*
Y204257D02*
D03*
Y191557D02*
D03*
Y178857D02*
D03*
Y166157D02*
D03*
Y153457D02*
D03*
Y140757D02*
D03*
Y128057D02*
D03*
Y115357D02*
D03*
Y102657D02*
D03*
Y89957D02*
D03*
Y77257D02*
D03*
D78*
X1092500Y550000D02*
D03*
Y90000D02*
D03*
X1345000Y625000D02*
D03*
X986000Y645000D02*
D03*
X826000Y5000D02*
D03*
X986000D02*
D03*
X1345000Y25000D02*
D03*
Y325000D02*
D03*
Y175000D02*
D03*
Y475000D02*
D03*
X806000Y645000D02*
D03*
X607000Y43000D02*
D03*
Y593000D02*
D03*
X850000Y375000D02*
D03*
Y550000D02*
D03*
Y225000D02*
D03*
Y90000D02*
D03*
X695000D02*
D03*
X560000Y550000D02*
D03*
D79*
X640000Y35000D02*
D03*
Y600500D02*
D03*
X1186000Y640000D02*
D03*
Y10000D02*
D03*
D80*
X1175520Y596814D02*
D03*
X1206000Y53000D02*
D03*
M02*
