G04*
G04 #@! TF.GenerationSoftware,Altium Limited,Altium Designer,19.0.15 (446)*
G04*
G04 Layer_Color=128*
%FSLAX44Y44*%
%MOMM*%
G71*
G01*
G75*
%ADD10C,0.1778*%
%ADD13R,0.5800X0.6200*%
%ADD19R,0.6200X0.6200*%
%ADD23R,0.6200X0.6200*%
%ADD24R,1.0000X0.9500*%
%ADD27R,0.9000X1.0000*%
%ADD37R,0.4000X0.4500*%
%ADD104R,0.3556X0.8128*%
%ADD105R,0.8128X0.3556*%
%ADD106R,1.0000X0.9000*%
%ADD107R,0.4500X0.4000*%
%ADD108R,0.6200X0.6000*%
%ADD109O,0.8000X0.3000*%
%ADD110O,0.3000X0.8000*%
%ADD111R,2.7500X2.7500*%
%ADD121R,0.0254X0.0254*%
G36*
X900954Y590788D02*
X889746D01*
Y601996D01*
X900954D01*
Y590788D01*
D02*
G37*
G36*
Y603996D02*
X889746D01*
Y615204D01*
X900954D01*
Y603996D01*
D02*
G37*
G36*
X914162Y590788D02*
X902954D01*
Y601996D01*
X914162D01*
Y590788D01*
D02*
G37*
G36*
Y603996D02*
X902954D01*
Y615204D01*
X914162D01*
Y603996D01*
D02*
G37*
D10*
X1422599Y-365653D02*
Y-384699D01*
Y-365653D02*
X1414436D01*
X1411716Y-366560D01*
X1410809Y-367467D01*
X1409902Y-369281D01*
Y-371095D01*
X1410809Y-372909D01*
X1411716Y-373815D01*
X1414436Y-374722D01*
X1422599D02*
X1414436D01*
X1411716Y-375629D01*
X1410809Y-376536D01*
X1409902Y-378350D01*
Y-381071D01*
X1410809Y-382885D01*
X1411716Y-383792D01*
X1414436Y-384699D01*
X1422599D01*
X1401104Y-372001D02*
X1402918Y-372909D01*
X1404732Y-374722D01*
X1405639Y-377443D01*
Y-379257D01*
X1404732Y-381978D01*
X1402918Y-383792D01*
X1401104Y-384699D01*
X1398383D01*
X1396570Y-383792D01*
X1394756Y-381978D01*
X1393849Y-379257D01*
Y-377443D01*
X1394756Y-374722D01*
X1396570Y-372909D01*
X1398383Y-372001D01*
X1401104D01*
X1386956Y-365653D02*
Y-381071D01*
X1386049Y-383792D01*
X1384235Y-384699D01*
X1382421D01*
X1389677Y-372001D02*
X1383328D01*
X1376979Y-365653D02*
Y-381071D01*
X1376072Y-383792D01*
X1374259Y-384699D01*
X1372445D01*
X1379700Y-372001D02*
X1373352D01*
X1365189D02*
X1367003Y-372909D01*
X1368817Y-374722D01*
X1369724Y-377443D01*
Y-379257D01*
X1368817Y-381978D01*
X1367003Y-383792D01*
X1365189Y-384699D01*
X1362468D01*
X1360654Y-383792D01*
X1358840Y-381978D01*
X1357934Y-379257D01*
Y-377443D01*
X1358840Y-374722D01*
X1360654Y-372909D01*
X1362468Y-372001D01*
X1365189D01*
X1353761D02*
Y-384699D01*
Y-375629D02*
X1351041Y-372909D01*
X1349227Y-372001D01*
X1346506D01*
X1344692Y-372909D01*
X1343785Y-375629D01*
Y-384699D01*
Y-375629D02*
X1341064Y-372909D01*
X1339250Y-372001D01*
X1336530D01*
X1334716Y-372909D01*
X1333809Y-375629D01*
Y-384699D01*
X1312858Y-375629D02*
X1304696D01*
X1301975Y-374722D01*
X1301068Y-373815D01*
X1300161Y-372001D01*
Y-369281D01*
X1301068Y-367467D01*
X1301975Y-366560D01*
X1304696Y-365653D01*
X1312858D01*
Y-384699D01*
X1285015Y-372001D02*
Y-384699D01*
Y-374722D02*
X1286829Y-372909D01*
X1288643Y-372001D01*
X1291363D01*
X1293177Y-372909D01*
X1294991Y-374722D01*
X1295898Y-377443D01*
Y-379257D01*
X1294991Y-381978D01*
X1293177Y-383792D01*
X1291363Y-384699D01*
X1288643D01*
X1286829Y-383792D01*
X1285015Y-381978D01*
X1269959Y-374722D02*
X1270866Y-372909D01*
X1273587Y-372001D01*
X1276308D01*
X1279029Y-372909D01*
X1279936Y-374722D01*
X1279029Y-376536D01*
X1277215Y-377443D01*
X1272680Y-378350D01*
X1270866Y-379257D01*
X1269959Y-381071D01*
Y-381978D01*
X1270866Y-383792D01*
X1273587Y-384699D01*
X1276308D01*
X1279029Y-383792D01*
X1279936Y-381978D01*
X1263248Y-365653D02*
Y-381071D01*
X1262341Y-383792D01*
X1260527Y-384699D01*
X1258713D01*
X1265969Y-372001D02*
X1259620D01*
X1255992Y-377443D02*
X1245109D01*
Y-375629D01*
X1246016Y-373815D01*
X1246923Y-372909D01*
X1248737Y-372001D01*
X1251458D01*
X1253272Y-372909D01*
X1255086Y-374722D01*
X1255992Y-377443D01*
Y-379257D01*
X1255086Y-381978D01*
X1253272Y-383792D01*
X1251458Y-384699D01*
X1248737D01*
X1246923Y-383792D01*
X1245109Y-381978D01*
D13*
X870150Y615000D02*
D03*
X860750D02*
D03*
X860900Y606250D02*
D03*
X851500D02*
D03*
X999150Y374750D02*
D03*
X989750D02*
D03*
X1043400Y286000D02*
D03*
X1034000D02*
D03*
X1133150Y422250D02*
D03*
X1123750D02*
D03*
D19*
X732351Y84500D02*
D03*
Y75500D02*
D03*
X775000Y84500D02*
D03*
Y75500D02*
D03*
X817649Y84500D02*
D03*
Y75500D02*
D03*
X586101Y85000D02*
D03*
Y76000D02*
D03*
X652500Y85000D02*
D03*
Y76000D02*
D03*
X619300Y85000D02*
D03*
Y76000D02*
D03*
X975000Y85000D02*
D03*
Y76000D02*
D03*
X767500Y555250D02*
D03*
Y564250D02*
D03*
X730000Y555250D02*
D03*
Y564250D02*
D03*
X617500Y555250D02*
D03*
Y564250D02*
D03*
X932500Y85000D02*
D03*
Y76000D02*
D03*
X1057500Y556250D02*
D03*
Y565250D02*
D03*
X946161Y556250D02*
D03*
Y565250D02*
D03*
X1017500Y85000D02*
D03*
Y76000D02*
D03*
X890000Y85000D02*
D03*
Y76000D02*
D03*
X805000Y555250D02*
D03*
Y564250D02*
D03*
X692500Y555250D02*
D03*
Y564250D02*
D03*
X655000Y555250D02*
D03*
Y564250D02*
D03*
X1020387Y556250D02*
D03*
Y565250D02*
D03*
X983274Y556250D02*
D03*
Y565250D02*
D03*
X1060000Y85000D02*
D03*
Y76000D02*
D03*
X1272750Y59250D02*
D03*
Y50250D02*
D03*
X946500Y586500D02*
D03*
Y577500D02*
D03*
X870250Y606250D02*
D03*
Y597250D02*
D03*
X976750Y268500D02*
D03*
Y259500D02*
D03*
X985250Y268500D02*
D03*
Y259500D02*
D03*
X1008000Y374500D02*
D03*
Y383500D02*
D03*
X937250Y337028D02*
D03*
Y346028D02*
D03*
X982000Y383750D02*
D03*
Y392750D02*
D03*
X959750Y268500D02*
D03*
Y259500D02*
D03*
X968000Y268500D02*
D03*
Y259500D02*
D03*
X1052750Y328000D02*
D03*
Y337000D02*
D03*
X1062910Y327928D02*
D03*
Y336928D02*
D03*
D23*
X876367Y525474D02*
D03*
X867367D02*
D03*
X1098080Y442600D02*
D03*
X1107079D02*
D03*
X876500Y155000D02*
D03*
X867500D02*
D03*
X1098080Y363950D02*
D03*
X1107079D02*
D03*
X1098080Y521250D02*
D03*
X1107079D02*
D03*
X876500Y302500D02*
D03*
X867500D02*
D03*
X1098750Y167325D02*
D03*
X1107750D02*
D03*
X1098750Y245975D02*
D03*
X1107750D02*
D03*
X876367Y487816D02*
D03*
X867367D02*
D03*
X876367Y450158D02*
D03*
X867367D02*
D03*
X876367Y187500D02*
D03*
X867367D02*
D03*
X876500Y122500D02*
D03*
X867500D02*
D03*
X1098080Y324625D02*
D03*
X1107079D02*
D03*
X1098080Y481925D02*
D03*
X1107079D02*
D03*
X876500Y412500D02*
D03*
X867500D02*
D03*
X876367Y337500D02*
D03*
X867367D02*
D03*
X876500Y276000D02*
D03*
X867500D02*
D03*
X1098080Y403275D02*
D03*
X1107079D02*
D03*
X1098750Y128000D02*
D03*
X1107750D02*
D03*
X1098750Y206650D02*
D03*
X1107750D02*
D03*
X1098750Y285300D02*
D03*
X1107750D02*
D03*
X955500Y596250D02*
D03*
X946500D02*
D03*
X955500Y606664D02*
D03*
X946500D02*
D03*
X994000Y268500D02*
D03*
X1003000D02*
D03*
X1049250Y301000D02*
D03*
X1058250D02*
D03*
X955250Y374500D02*
D03*
X946250D02*
D03*
X955404Y383250D02*
D03*
X946404D02*
D03*
X1052000Y292750D02*
D03*
X1061000D02*
D03*
X1042500Y309750D02*
D03*
X1051500D02*
D03*
X1052750Y319250D02*
D03*
X1061750D02*
D03*
X1061000Y284250D02*
D03*
X1052000D02*
D03*
X990250Y383750D02*
D03*
X999250D02*
D03*
D24*
X1260750Y44750D02*
D03*
Y60750D02*
D03*
X948500Y266750D02*
D03*
Y250750D02*
D03*
D27*
X900500Y570000D02*
D03*
X916500D02*
D03*
D37*
X1010028Y365000D02*
D03*
Y358000D02*
D03*
X994000Y285750D02*
D03*
Y278750D02*
D03*
X962000Y349000D02*
D03*
Y342000D02*
D03*
X970000Y357500D02*
D03*
Y350500D02*
D03*
X994028Y366000D02*
D03*
Y359000D02*
D03*
X1026000Y278500D02*
D03*
Y285500D02*
D03*
D104*
X892204Y583565D02*
D03*
X898704D02*
D03*
X905204D02*
D03*
X911704D02*
D03*
Y622427D02*
D03*
X905204D02*
D03*
X898704D02*
D03*
X892204D02*
D03*
D105*
X921385Y593246D02*
D03*
Y599746D02*
D03*
Y606246D02*
D03*
Y612746D02*
D03*
X882523D02*
D03*
Y606246D02*
D03*
Y599746D02*
D03*
Y593246D02*
D03*
D106*
X996250Y242250D02*
D03*
Y258250D02*
D03*
D107*
X1041000Y318000D02*
D03*
X1034000D02*
D03*
X1041000Y302000D02*
D03*
X1034000D02*
D03*
X1041000Y294000D02*
D03*
X1034000D02*
D03*
X994250Y350000D02*
D03*
X1001250D02*
D03*
X1018500Y302000D02*
D03*
X1025500D02*
D03*
X985500Y278000D02*
D03*
X978500D02*
D03*
X1018500Y310000D02*
D03*
X1025500D02*
D03*
X978500Y350000D02*
D03*
X985500D02*
D03*
D108*
X1042590Y327828D02*
D03*
Y337028D02*
D03*
D109*
X1302750Y100000D02*
D03*
Y95000D02*
D03*
Y90000D02*
D03*
Y85000D02*
D03*
Y80000D02*
D03*
X1262750D02*
D03*
Y85000D02*
D03*
Y90000D02*
D03*
Y95000D02*
D03*
Y100000D02*
D03*
D110*
X1292750Y70000D02*
D03*
X1287750D02*
D03*
X1282750D02*
D03*
X1277750D02*
D03*
X1272750D02*
D03*
Y110000D02*
D03*
X1277750D02*
D03*
X1282750D02*
D03*
X1287750D02*
D03*
X1292750D02*
D03*
D111*
X1282750Y90000D02*
D03*
D121*
X901954Y602996D02*
D03*
M02*
