G04*
G04 #@! TF.GenerationSoftware,Altium Limited,Altium Designer,19.0.15 (446)*
G04*
G04 Layer_Physical_Order=1*
G04 Layer_Color=255*
%FSLAX44Y44*%
%MOMM*%
G71*
G01*
G75*
%ADD11R,1.8000X1.1500*%
%ADD12R,1.1500X1.8000*%
%ADD13R,0.5800X0.6200*%
%ADD14C,0.4000*%
%ADD15R,0.6200X0.5800*%
%ADD16R,1.0000X1.0000*%
%ADD17R,1.0000X1.0000*%
%ADD18R,0.7600X1.6500*%
%ADD19R,0.6200X0.6200*%
%ADD20R,1.6500X0.7600*%
%ADD21R,1.5000X0.4500*%
%ADD22R,0.9500X0.9500*%
%ADD23R,0.6200X0.6200*%
%ADD24R,1.0000X0.9500*%
%ADD25R,0.8500X2.3000*%
%ADD26R,1.2500X1.8000*%
%ADD27R,0.9000X1.0000*%
%ADD28R,1.0000X0.9500*%
%ADD29R,0.9800X3.7000*%
%ADD30R,1.1500X1.8000*%
%ADD31R,1.8000X1.1500*%
%ADD32R,2.1000X2.1000*%
%ADD33O,0.3000X0.8500*%
%ADD34O,0.8500X0.3000*%
%ADD35R,2.3000X0.8500*%
%ADD36R,0.9500X1.0000*%
%ADD37R,0.4000X0.4500*%
%ADD38R,1.1500X1.4000*%
%ADD39R,1.7800X1.0200*%
%ADD40R,1.0000X0.9000*%
%ADD41C,0.6400*%
%ADD81C,0.4000*%
%ADD82C,0.5000*%
%ADD83C,0.2000*%
%ADD84C,0.2400*%
%ADD85C,0.1800*%
%ADD86C,0.1200*%
%ADD87C,0.2540*%
%ADD88C,4.0000*%
%ADD89C,5.0000*%
%ADD90C,1.0000*%
%ADD91C,0.5000*%
%ADD92C,0.6000*%
G36*
X1198056Y603828D02*
X1197822Y603263D01*
X1197392Y600000D01*
X1197416Y599820D01*
X1195334Y597738D01*
X1191240Y601832D01*
X1191095Y602311D01*
X1194934Y606150D01*
X1195579Y606305D01*
X1198056Y603828D01*
D02*
G37*
G36*
X780640Y602144D02*
X776234Y597738D01*
X771828Y602144D01*
X776234Y606550D01*
X780640Y602144D01*
D02*
G37*
G36*
X793340D02*
X788934Y597738D01*
X784528Y602144D01*
X788934Y606550D01*
X793340Y602144D01*
D02*
G37*
G36*
X1237694Y602290D02*
X1237649Y601954D01*
X1233434Y597738D01*
X1229028Y602144D01*
X1233434Y606550D01*
X1237694Y602290D01*
D02*
G37*
G36*
X710790Y595794D02*
X707240Y592244D01*
X706737Y592178D01*
X705929Y591843D01*
X704850Y592922D01*
Y593100D01*
X704672D01*
X704668Y593104D01*
Y598484D01*
X706384Y600200D01*
X710790Y595794D01*
D02*
G37*
G36*
X1267697Y597687D02*
X1267822Y596737D01*
X1268616Y594820D01*
X1265434Y591639D01*
X1265080Y591492D01*
X1261492Y595080D01*
X1262178Y596737D01*
X1262248Y597264D01*
X1265184Y600200D01*
X1267697Y597687D01*
D02*
G37*
G36*
X786990Y595794D02*
X782584Y591388D01*
X778178Y595794D01*
X782584Y600200D01*
X786990Y595794D01*
D02*
G37*
G36*
X1231490D02*
X1227084Y591388D01*
X1222678Y595794D01*
X1227084Y600200D01*
X1231490Y595794D01*
D02*
G37*
G36*
X1237840Y589444D02*
X1233465Y585070D01*
X1233421Y585051D01*
X1229028Y589444D01*
X1233434Y593850D01*
X1237840Y589444D01*
D02*
G37*
G36*
X793340D02*
X788934Y585038D01*
X784528Y589444D01*
X788934Y593850D01*
X793340Y589444D01*
D02*
G37*
G36*
X1199740D02*
X1195334Y585038D01*
X1190928Y589444D01*
X1195334Y593850D01*
X1199740Y589444D01*
D02*
G37*
G36*
X1160023Y591061D02*
X1160202Y590470D01*
X1161060Y588865D01*
X1157234Y585038D01*
X1152828Y589444D01*
X1157234Y593850D01*
X1160023Y591061D01*
D02*
G37*
G36*
X780640Y589444D02*
X776234Y585038D01*
X771850Y589422D01*
Y589467D01*
X776234Y593850D01*
X780640Y589444D01*
D02*
G37*
G36*
X786990Y583094D02*
X783458Y579562D01*
X781710D01*
X778178Y583094D01*
X782584Y587500D01*
X786990Y583094D01*
D02*
G37*
G36*
X1256890D02*
X1252484Y578688D01*
X1248078Y583094D01*
X1252484Y587500D01*
X1256890Y583094D01*
D02*
G37*
G36*
X1161640Y576744D02*
X1157234Y572338D01*
X1152828Y576744D01*
X1157234Y581150D01*
X1161640Y576744D01*
D02*
G37*
G36*
X1148940D02*
X1144534Y572338D01*
X1141167Y575706D01*
X1140919Y576304D01*
X1140384Y577001D01*
X1140893Y577510D01*
X1143263Y577822D01*
X1146304Y579081D01*
X1146473Y579211D01*
X1148940Y576744D01*
D02*
G37*
G36*
X1097841Y569850D02*
Y569850D01*
X1099293Y569850D01*
X1102142Y569283D01*
X1104825Y568172D01*
X1107239Y566558D01*
X1108266Y565532D01*
X1109259Y564538D01*
X1110819Y562203D01*
X1111894Y559608D01*
X1112442Y556854D01*
Y555449D01*
X1112442Y210016D01*
X1112349Y210016D01*
X1112349Y84659D01*
X1112349Y84659D01*
X1112349Y83207D01*
X1111783Y80358D01*
X1110672Y77675D01*
X1109058Y75261D01*
X1108031Y74234D01*
X1107038Y73241D01*
X1104703Y71681D01*
X1102108Y70606D01*
X1099354Y70058D01*
X1097949D01*
X843012Y70058D01*
Y70058D01*
X560014Y70058D01*
X560000Y79060D01*
X846322Y79060D01*
X846322D01*
X847682Y79127D01*
X850350Y79657D01*
X852863Y80698D01*
X855125Y82210D01*
X856133Y83124D01*
X856133Y83124D01*
X857205Y84307D01*
X858977Y86958D01*
X860197Y89904D01*
X860819Y93031D01*
X860898Y94625D01*
X860898Y369578D01*
X860643Y369578D01*
Y545948D01*
X860643Y545948D01*
X860576Y547308D01*
X860045Y549976D01*
X859005Y552489D01*
X857493Y554751D01*
X856579Y555760D01*
X856579Y555760D01*
X855396Y556832D01*
X852745Y558603D01*
X849799Y559823D01*
X846672Y560446D01*
X845077Y560524D01*
X558993Y560524D01*
X559008Y569476D01*
X793773Y569476D01*
X793774Y569850D01*
X1097841Y569850D01*
D02*
G37*
G36*
X1155290Y570394D02*
X1150884Y565988D01*
X1146478Y570394D01*
X1150884Y574800D01*
X1155290Y570394D01*
D02*
G37*
G36*
X1256890D02*
X1252484Y565988D01*
X1250244Y568228D01*
X1250610Y569111D01*
X1251064Y572557D01*
X1250968Y573285D01*
X1252484Y574800D01*
X1256890Y570394D01*
D02*
G37*
G36*
X1208954Y567530D02*
X1212440Y564044D01*
X1208034Y559638D01*
X1203628Y564044D01*
X1207327Y567744D01*
X1208954Y567530D01*
D02*
G37*
G36*
X1263240Y564044D02*
X1258834Y559638D01*
X1254428Y564044D01*
X1258834Y568450D01*
X1263240Y564044D01*
D02*
G37*
G36*
X1275638Y564346D02*
Y563743D01*
X1271534Y559638D01*
X1267128Y564044D01*
X1270548Y567464D01*
X1272290Y567694D01*
X1275638Y564346D01*
D02*
G37*
G36*
X1148940Y564044D02*
X1144534Y559638D01*
X1140726Y563446D01*
X1140919Y563696D01*
X1141724Y565641D01*
X1144534Y568450D01*
X1148940Y564044D01*
D02*
G37*
G36*
X1161640D02*
X1157234Y559638D01*
X1152828Y564044D01*
X1157234Y568450D01*
X1161640Y564044D01*
D02*
G37*
G36*
X1256890Y557694D02*
X1252484Y553288D01*
X1250244Y555528D01*
X1250610Y556411D01*
X1251064Y559857D01*
X1250968Y560585D01*
X1252484Y562100D01*
X1256890Y557694D01*
D02*
G37*
G36*
X1206090D02*
X1201684Y553288D01*
X1199444Y555528D01*
X1199810Y556411D01*
X1200264Y559857D01*
X1200168Y560585D01*
X1201684Y562100D01*
X1206090Y557694D01*
D02*
G37*
G36*
X1269590D02*
X1265184Y553288D01*
X1260778Y557694D01*
X1265184Y562100D01*
X1269590Y557694D01*
D02*
G37*
G36*
X1142590D02*
X1138184Y553288D01*
X1133778Y557694D01*
X1134359Y558276D01*
X1136304Y559081D01*
X1138915Y561085D01*
X1139038Y561246D01*
X1142590Y557694D01*
D02*
G37*
G36*
X1155290D02*
X1150884Y553288D01*
X1146478Y557694D01*
X1150884Y562100D01*
X1155290Y557694D01*
D02*
G37*
G36*
X1212440Y551344D02*
X1208034Y546938D01*
X1203628Y551344D01*
X1208034Y555750D01*
X1212440Y551344D01*
D02*
G37*
G36*
X1136240D02*
X1131834Y546938D01*
X1127428Y551344D01*
X1131834Y555750D01*
X1136240Y551344D01*
D02*
G37*
G36*
X1263240D02*
X1258834Y546938D01*
X1254428Y551344D01*
X1258834Y555750D01*
X1263240Y551344D01*
D02*
G37*
G36*
X1148940D02*
X1144534Y546938D01*
X1140128Y551344D01*
X1144534Y555750D01*
X1148940Y551344D01*
D02*
G37*
G36*
X1161640D02*
X1157234Y546938D01*
X1152828Y551344D01*
X1157234Y555750D01*
X1161640Y551344D01*
D02*
G37*
G36*
X693864Y549220D02*
X694081Y548696D01*
X696085Y546085D01*
X697836Y544741D01*
X695845Y542750D01*
X691522D01*
X689278Y544994D01*
X693684Y549400D01*
X693864Y549220D01*
D02*
G37*
G36*
X669389Y548295D02*
X671085Y546085D01*
X672610Y544915D01*
X670445Y542750D01*
X666122D01*
X663878Y544994D01*
X668284Y549400D01*
X669389Y548295D01*
D02*
G37*
G36*
X1206090Y544994D02*
X1201684Y540588D01*
X1199444Y542828D01*
X1199810Y543711D01*
X1200264Y547157D01*
X1200168Y547885D01*
X1201684Y549400D01*
X1206090Y544994D01*
D02*
G37*
G36*
X1142590D02*
X1138184Y540588D01*
X1133778Y544994D01*
X1138184Y549400D01*
X1142590Y544994D01*
D02*
G37*
G36*
X1155290D02*
X1150884Y540588D01*
X1146478Y544994D01*
X1150884Y549400D01*
X1155290Y544994D01*
D02*
G37*
G36*
X1256890D02*
X1252484Y540588D01*
X1250244Y542828D01*
X1250610Y543711D01*
X1251064Y547157D01*
X1250968Y547885D01*
X1252484Y549400D01*
X1256890Y544994D01*
D02*
G37*
G36*
X1129890D02*
X1125484Y540588D01*
X1122528Y543544D01*
Y546445D01*
X1125484Y549400D01*
X1129890Y544994D01*
D02*
G37*
G36*
X1161640Y538644D02*
X1157234Y534238D01*
X1152828Y538644D01*
X1157234Y543050D01*
X1161640Y538644D01*
D02*
G37*
G36*
X818740D02*
X814334Y534238D01*
X809928Y538644D01*
X814334Y543050D01*
X818740Y538644D01*
D02*
G37*
G36*
X1212440D02*
X1208034Y534238D01*
X1203628Y538644D01*
X1208034Y543050D01*
X1212440Y538644D01*
D02*
G37*
G36*
X1148940D02*
X1144534Y534238D01*
X1140128Y538644D01*
X1144534Y543050D01*
X1148940Y538644D01*
D02*
G37*
G36*
X1136240D02*
X1131834Y534238D01*
X1127428Y538644D01*
X1131834Y543050D01*
X1136240Y538644D01*
D02*
G37*
G36*
X1155290Y532294D02*
X1150884Y527888D01*
X1146478Y532294D01*
X1150884Y536700D01*
X1155290Y532294D01*
D02*
G37*
G36*
X1206090D02*
X1201684Y527888D01*
X1199444Y530128D01*
X1199810Y531011D01*
X1200264Y534457D01*
X1200168Y535185D01*
X1201684Y536700D01*
X1206090Y532294D01*
D02*
G37*
G36*
X825090D02*
X820684Y527888D01*
X816278Y532294D01*
X820684Y536700D01*
X825090Y532294D01*
D02*
G37*
G36*
X1256890D02*
X1252484Y527888D01*
X1250244Y530128D01*
X1250610Y531011D01*
X1251064Y534457D01*
X1250968Y535185D01*
X1252484Y536700D01*
X1256890Y532294D01*
D02*
G37*
G36*
X1129890D02*
X1125484Y527888D01*
X1122528Y530844D01*
Y533745D01*
X1125484Y536700D01*
X1129890Y532294D01*
D02*
G37*
G36*
X1142590D02*
X1138184Y527888D01*
X1133778Y532294D01*
X1138184Y536700D01*
X1142590Y532294D01*
D02*
G37*
G36*
X1275638Y526246D02*
Y525643D01*
X1272300Y522305D01*
X1270535Y522537D01*
X1267128Y525944D01*
X1268741Y527558D01*
X1270000Y527392D01*
X1273263Y527822D01*
X1273828Y528056D01*
X1275638Y526246D01*
D02*
G37*
G36*
X1212440Y525944D02*
X1208034Y521538D01*
X1203628Y525944D01*
X1208034Y530350D01*
X1212440Y525944D01*
D02*
G37*
G36*
X831440D02*
X827034Y521538D01*
X822628Y525944D01*
X827034Y530350D01*
X831440Y525944D01*
D02*
G37*
G36*
X1148940D02*
X1144534Y521538D01*
X1140128Y525944D01*
X1144534Y530350D01*
X1148940Y525944D01*
D02*
G37*
G36*
X1161640D02*
X1157234Y521538D01*
X1152828Y525944D01*
X1157234Y530350D01*
X1161640Y525944D01*
D02*
G37*
G36*
X1136240D02*
X1131834Y521538D01*
X1127428Y525944D01*
X1131834Y530350D01*
X1136240Y525944D01*
D02*
G37*
G36*
X1263240D02*
X1258834Y521538D01*
X1254428Y525944D01*
X1258834Y530350D01*
X1263240Y525944D01*
D02*
G37*
G36*
X837790Y519594D02*
X833384Y515188D01*
X828978Y519594D01*
X833384Y524000D01*
X837790Y519594D01*
D02*
G37*
G36*
X1206090D02*
X1201684Y515188D01*
X1199444Y517428D01*
X1199810Y518311D01*
X1200264Y521757D01*
X1200168Y522485D01*
X1201684Y524000D01*
X1206090Y519594D01*
D02*
G37*
G36*
X825090D02*
X820684Y515188D01*
X816278Y519594D01*
X820684Y524000D01*
X825090Y519594D01*
D02*
G37*
G36*
X1142590D02*
X1138184Y515188D01*
X1133778Y519594D01*
X1138184Y524000D01*
X1142590Y519594D01*
D02*
G37*
G36*
X1129890D02*
X1125484Y515188D01*
X1122528Y518144D01*
Y521045D01*
X1125484Y524000D01*
X1129890Y519594D01*
D02*
G37*
G36*
X1256890D02*
X1252484Y515188D01*
X1250244Y517428D01*
X1250610Y518311D01*
X1251064Y521757D01*
X1250968Y522485D01*
X1252484Y524000D01*
X1256890Y519594D01*
D02*
G37*
G36*
X1155290D02*
X1150884Y515188D01*
X1146478Y519594D01*
X1150884Y524000D01*
X1155290Y519594D01*
D02*
G37*
G36*
X1212440Y513244D02*
X1208460Y509264D01*
X1206304Y510919D01*
X1205706Y511167D01*
X1203628Y513244D01*
X1208034Y517650D01*
X1212440Y513244D01*
D02*
G37*
G36*
X1136240D02*
X1131834Y508838D01*
X1127428Y513244D01*
X1131834Y517650D01*
X1136240Y513244D01*
D02*
G37*
G36*
X844140D02*
X839734Y508838D01*
X835328Y513244D01*
X839734Y517650D01*
X844140Y513244D01*
D02*
G37*
G36*
X1161640D02*
X1157234Y508838D01*
X1152828Y513244D01*
X1157234Y517650D01*
X1161640Y513244D01*
D02*
G37*
G36*
X1148940D02*
X1144534Y508838D01*
X1140128Y513244D01*
X1144534Y517650D01*
X1148940Y513244D01*
D02*
G37*
G36*
X850490Y506894D02*
X848445Y504850D01*
X843722D01*
X841678Y506894D01*
X846084Y511300D01*
X850490Y506894D01*
D02*
G37*
G36*
X1256890D02*
X1252484Y502488D01*
X1250244Y504728D01*
X1250610Y505611D01*
X1251064Y509057D01*
X1250968Y509785D01*
X1252484Y511300D01*
X1256890Y506894D01*
D02*
G37*
G36*
X1155290D02*
X1150884Y502488D01*
X1146478Y506894D01*
X1150884Y511300D01*
X1155290Y506894D01*
D02*
G37*
G36*
X1142590D02*
X1138184Y502488D01*
X1133778Y506894D01*
X1138184Y511300D01*
X1142590Y506894D01*
D02*
G37*
G36*
X1148940Y500544D02*
X1144534Y496138D01*
X1140128Y500544D01*
X1144534Y504950D01*
X1148940Y500544D01*
D02*
G37*
G36*
X1259081Y503696D02*
X1261085Y501085D01*
X1262610Y499915D01*
X1258834Y496138D01*
X1254428Y500544D01*
X1258641Y504758D01*
X1259081Y503696D01*
D02*
G37*
G36*
X1136240Y500544D02*
X1131834Y496138D01*
X1130287Y497685D01*
X1130178Y498513D01*
X1128919Y501554D01*
X1128710Y501826D01*
X1131834Y504950D01*
X1136240Y500544D01*
D02*
G37*
G36*
X1161640D02*
X1157234Y496138D01*
X1152828Y500544D01*
X1157234Y504950D01*
X1161640Y500544D01*
D02*
G37*
G36*
X1265415Y498369D02*
X1269590Y494194D01*
X1265184Y489788D01*
X1260778Y494194D01*
X1265088Y498505D01*
X1265415Y498369D01*
D02*
G37*
G36*
X1142590Y494194D02*
X1138184Y489788D01*
X1133778Y494194D01*
X1138184Y498600D01*
X1142590Y494194D01*
D02*
G37*
G36*
X1256890D02*
X1252484Y489788D01*
X1250244Y492028D01*
X1250610Y492911D01*
X1251064Y496357D01*
X1250968Y497085D01*
X1252484Y498600D01*
X1256890Y494194D01*
D02*
G37*
G36*
X1155290D02*
X1150884Y489788D01*
X1146478Y494194D01*
X1150884Y498600D01*
X1155290Y494194D01*
D02*
G37*
G36*
X1212440Y487844D02*
X1208034Y483438D01*
X1203628Y487844D01*
X1203847Y488064D01*
X1206304Y489081D01*
X1208915Y491085D01*
X1209038Y491246D01*
X1212440Y487844D01*
D02*
G37*
G36*
X1263240D02*
X1258834Y483438D01*
X1254428Y487844D01*
X1258834Y492250D01*
X1263240Y487844D01*
D02*
G37*
G36*
X1136240D02*
X1131834Y483438D01*
X1127793Y487479D01*
X1128919Y488946D01*
X1129194Y489610D01*
X1131834Y492250D01*
X1136240Y487844D01*
D02*
G37*
G36*
X1275940D02*
X1271534Y483438D01*
X1267128Y487844D01*
X1271534Y492250D01*
X1275940Y487844D01*
D02*
G37*
G36*
X1148940D02*
X1144534Y483438D01*
X1140128Y487844D01*
X1144534Y492250D01*
X1148940Y487844D01*
D02*
G37*
G36*
X1161640D02*
X1157234Y483438D01*
X1152828Y487844D01*
X1157234Y492250D01*
X1161640Y487844D01*
D02*
G37*
G36*
X1256890Y481494D02*
X1252484Y477088D01*
X1250244Y479328D01*
X1250610Y480211D01*
X1251064Y483657D01*
X1250968Y484385D01*
X1252484Y485900D01*
X1256890Y481494D01*
D02*
G37*
G36*
X1129890D02*
X1125484Y477088D01*
X1122528Y480044D01*
Y482945D01*
X1123640Y484056D01*
X1124304Y484331D01*
X1125859Y485525D01*
X1129890Y481494D01*
D02*
G37*
G36*
X1155290D02*
X1150884Y477088D01*
X1146478Y481494D01*
X1150884Y485900D01*
X1155290Y481494D01*
D02*
G37*
G36*
X1269590D02*
X1265184Y477088D01*
X1260778Y481494D01*
X1265184Y485900D01*
X1269590Y481494D01*
D02*
G37*
G36*
X1142590D02*
X1138184Y477088D01*
X1133778Y481494D01*
X1138184Y485900D01*
X1142590Y481494D01*
D02*
G37*
G36*
X1263240Y475144D02*
X1258834Y470738D01*
X1254428Y475144D01*
X1258834Y479550D01*
X1263240Y475144D01*
D02*
G37*
G36*
X1136240D02*
X1131834Y470738D01*
X1127428Y475144D01*
X1131834Y479550D01*
X1136240Y475144D01*
D02*
G37*
G36*
X1161640D02*
X1157234Y470738D01*
X1152828Y475144D01*
X1157234Y479550D01*
X1161640Y475144D01*
D02*
G37*
G36*
X1275940D02*
X1271534Y470738D01*
X1267128Y475144D01*
X1271534Y479550D01*
X1275940Y475144D01*
D02*
G37*
G36*
X1148940D02*
X1144534Y470738D01*
X1140128Y475144D01*
X1144534Y479550D01*
X1148940Y475144D01*
D02*
G37*
G36*
X1269590Y468794D02*
X1265184Y464388D01*
X1260778Y468794D01*
X1265184Y473200D01*
X1269590Y468794D01*
D02*
G37*
G36*
X1142590D02*
X1138184Y464388D01*
X1133778Y468794D01*
X1138184Y473200D01*
X1142590Y468794D01*
D02*
G37*
G36*
X1256890D02*
X1252484Y464388D01*
X1250244Y466628D01*
X1250610Y467511D01*
X1251064Y470957D01*
X1250968Y471685D01*
X1252484Y473200D01*
X1256890Y468794D01*
D02*
G37*
G36*
X1129890D02*
X1125484Y464388D01*
X1122528Y467344D01*
Y470245D01*
X1125484Y473200D01*
X1129890Y468794D01*
D02*
G37*
G36*
X1155290D02*
X1150884Y464388D01*
X1146478Y468794D01*
X1150884Y473200D01*
X1155290Y468794D01*
D02*
G37*
G36*
X1275940Y462444D02*
X1271534Y458038D01*
X1267128Y462444D01*
X1271534Y466850D01*
X1275940Y462444D01*
D02*
G37*
G36*
X1148940D02*
X1144534Y458038D01*
X1140128Y462444D01*
X1144534Y466850D01*
X1148940Y462444D01*
D02*
G37*
G36*
X1161640D02*
X1157234Y458038D01*
X1152828Y462444D01*
X1157234Y466850D01*
X1161640Y462444D01*
D02*
G37*
G36*
X1263240D02*
X1258834Y458038D01*
X1254428Y462444D01*
X1258834Y466850D01*
X1263240Y462444D01*
D02*
G37*
G36*
X1136240D02*
X1131834Y458038D01*
X1127428Y462444D01*
X1131834Y466850D01*
X1136240Y462444D01*
D02*
G37*
G36*
X1155290Y456094D02*
X1151378Y452183D01*
X1150240Y452332D01*
X1146478Y456094D01*
X1150884Y460500D01*
X1155290Y456094D01*
D02*
G37*
G36*
X1256890D02*
X1252484Y451688D01*
X1250244Y453928D01*
X1250610Y454811D01*
X1251064Y458257D01*
X1250968Y458985D01*
X1252484Y460500D01*
X1256890Y456094D01*
D02*
G37*
G36*
X1129890D02*
X1125484Y451688D01*
X1122528Y454644D01*
Y457545D01*
X1125484Y460500D01*
X1129890Y456094D01*
D02*
G37*
G36*
X1269590D02*
X1265184Y451688D01*
X1260778Y456094D01*
X1265184Y460500D01*
X1269590Y456094D01*
D02*
G37*
G36*
X1142590D02*
X1138184Y451688D01*
X1133778Y456094D01*
X1138184Y460500D01*
X1142590Y456094D01*
D02*
G37*
G36*
X1275940Y449744D02*
X1271534Y445338D01*
X1267128Y449744D01*
X1271534Y454150D01*
X1275940Y449744D01*
D02*
G37*
G36*
X1263240D02*
X1258834Y445338D01*
X1254428Y449744D01*
X1258834Y454150D01*
X1263240Y449744D01*
D02*
G37*
G36*
X1136240D02*
X1131834Y445338D01*
X1127428Y449744D01*
X1131834Y454150D01*
X1136240Y449744D01*
D02*
G37*
G36*
X1269590Y443394D02*
X1265184Y438988D01*
X1260778Y443394D01*
X1265184Y447800D01*
X1269590Y443394D01*
D02*
G37*
G36*
X1256890D02*
X1252484Y438988D01*
X1250244Y441228D01*
X1250610Y442111D01*
X1251064Y445557D01*
X1250968Y446285D01*
X1252484Y447800D01*
X1256890Y443394D01*
D02*
G37*
G36*
X1129890D02*
X1125484Y438988D01*
X1122528Y441944D01*
Y444845D01*
X1125484Y447800D01*
X1129890Y443394D01*
D02*
G37*
G36*
X1212440Y437044D02*
X1208034Y432638D01*
X1203628Y437044D01*
X1208034Y441450D01*
X1212440Y437044D01*
D02*
G37*
G36*
X1263240D02*
X1258834Y432638D01*
X1254428Y437044D01*
X1258834Y441450D01*
X1263240Y437044D01*
D02*
G37*
G36*
X1275940D02*
X1271534Y432638D01*
X1267128Y437044D01*
X1271534Y441450D01*
X1275940Y437044D01*
D02*
G37*
G36*
X1256890Y430694D02*
X1252484Y426288D01*
X1250244Y428528D01*
X1250610Y429411D01*
X1251064Y432857D01*
X1250968Y433585D01*
X1252484Y435100D01*
X1256890Y430694D01*
D02*
G37*
G36*
X1206090D02*
X1201684Y426288D01*
X1199444Y428528D01*
X1199810Y429411D01*
X1200264Y432857D01*
X1200168Y433585D01*
X1201684Y435100D01*
X1206090Y430694D01*
D02*
G37*
G36*
X1269590D02*
X1265184Y426288D01*
X1260778Y430694D01*
X1265184Y435100D01*
X1269590Y430694D01*
D02*
G37*
G36*
X1212440Y424344D02*
X1208034Y419938D01*
X1203628Y424344D01*
X1208034Y428750D01*
X1212440Y424344D01*
D02*
G37*
G36*
X1263240D02*
X1258834Y419938D01*
X1254428Y424344D01*
X1258834Y428750D01*
X1263240Y424344D01*
D02*
G37*
G36*
X1275940D02*
X1271534Y419938D01*
X1267128Y424344D01*
X1271534Y428750D01*
X1275940Y424344D01*
D02*
G37*
G36*
X1161640D02*
X1157234Y419938D01*
X1152828Y424344D01*
X1157234Y428750D01*
X1161640Y424344D01*
D02*
G37*
G36*
X1206090Y417994D02*
X1201684Y413588D01*
X1199444Y415828D01*
X1199810Y416711D01*
X1200264Y420157D01*
X1200168Y420885D01*
X1201684Y422400D01*
X1206090Y417994D01*
D02*
G37*
G36*
X1269590D02*
X1265184Y413588D01*
X1260778Y417994D01*
X1265184Y422400D01*
X1269590Y417994D01*
D02*
G37*
G36*
X1155290D02*
X1150884Y413588D01*
X1146478Y417994D01*
X1150884Y422400D01*
X1155290Y417994D01*
D02*
G37*
G36*
X1256890D02*
X1252484Y413588D01*
X1250244Y415828D01*
X1250610Y416711D01*
X1251064Y420157D01*
X1250968Y420885D01*
X1252484Y422400D01*
X1256890Y417994D01*
D02*
G37*
G36*
X1161640Y411644D02*
X1157234Y407238D01*
X1152828Y411644D01*
X1157234Y416050D01*
X1161640Y411644D01*
D02*
G37*
G36*
X1212440D02*
X1208034Y407238D01*
X1203628Y411644D01*
X1208034Y416050D01*
X1212440Y411644D01*
D02*
G37*
G36*
X1275940D02*
X1271534Y407238D01*
X1267128Y411644D01*
X1271534Y416050D01*
X1275940Y411644D01*
D02*
G37*
G36*
X1148940D02*
X1144534Y407238D01*
X1140128Y411644D01*
X1140675Y412192D01*
X1142165Y413335D01*
X1143308Y414825D01*
X1144534Y416050D01*
X1148940Y411644D01*
D02*
G37*
G36*
X1263240D02*
X1258834Y407238D01*
X1254428Y411644D01*
X1258834Y416050D01*
X1263240Y411644D01*
D02*
G37*
G36*
X1142590Y405294D02*
X1139735Y402440D01*
X1138109Y403688D01*
X1135068Y404948D01*
X1133982Y405090D01*
X1133778Y405294D01*
X1138184Y409700D01*
X1142590Y405294D01*
D02*
G37*
G36*
X1155290D02*
X1150884Y400888D01*
X1146478Y405294D01*
X1150884Y409700D01*
X1155290Y405294D01*
D02*
G37*
G36*
X1206090D02*
X1201684Y400888D01*
X1199444Y403128D01*
X1199810Y404011D01*
X1200264Y407457D01*
X1200168Y408185D01*
X1201684Y409700D01*
X1206090Y405294D01*
D02*
G37*
G36*
X1269590D02*
X1265184Y400888D01*
X1260778Y405294D01*
X1265184Y409700D01*
X1269590Y405294D01*
D02*
G37*
G36*
X1212440Y398944D02*
X1208034Y394538D01*
X1203628Y398944D01*
X1208034Y403350D01*
X1212440Y398944D01*
D02*
G37*
G36*
X1275940D02*
X1271534Y394538D01*
X1267128Y398944D01*
X1271534Y403350D01*
X1275940Y398944D01*
D02*
G37*
G36*
X1148940D02*
X1144534Y394538D01*
X1144127Y394946D01*
X1143984Y396032D01*
X1142724Y399073D01*
X1141653Y400469D01*
X1144534Y403350D01*
X1148940Y398944D01*
D02*
G37*
G36*
X1161640D02*
X1157234Y394538D01*
X1152828Y398944D01*
X1157234Y403350D01*
X1161640Y398944D01*
D02*
G37*
G36*
X1206090Y392594D02*
X1201684Y388188D01*
X1199444Y390428D01*
X1199810Y391311D01*
X1200264Y394757D01*
X1200168Y395485D01*
X1201684Y397000D01*
X1206090Y392594D01*
D02*
G37*
G36*
X1155290D02*
X1150884Y388188D01*
X1146478Y392594D01*
X1150884Y397000D01*
X1155290Y392594D01*
D02*
G37*
G36*
X1212440Y386244D02*
X1208034Y381838D01*
X1203628Y386244D01*
X1208034Y390650D01*
X1212440Y386244D01*
D02*
G37*
G36*
X1161640D02*
X1157234Y381838D01*
X1152828Y386244D01*
X1157234Y390650D01*
X1161640Y386244D01*
D02*
G37*
G36*
X1148940D02*
X1144534Y381838D01*
X1141501Y384871D01*
X1142724Y386465D01*
X1143984Y389506D01*
X1144074Y390190D01*
X1144534Y390650D01*
X1148940Y386244D01*
D02*
G37*
G36*
X1275940D02*
X1271534Y381838D01*
X1267128Y386244D01*
X1271534Y390650D01*
X1275940Y386244D01*
D02*
G37*
G36*
X1206090Y379894D02*
X1201684Y375488D01*
X1199444Y377728D01*
X1199810Y378611D01*
X1200264Y382057D01*
X1200168Y382785D01*
X1201684Y384300D01*
X1206090Y379894D01*
D02*
G37*
G36*
X1155290D02*
X1150884Y375488D01*
X1146478Y379894D01*
X1150884Y384300D01*
X1155290Y379894D01*
D02*
G37*
G36*
X1269590D02*
X1265184Y375488D01*
X1260778Y379894D01*
X1261570Y380686D01*
X1262415Y381335D01*
X1263064Y382180D01*
X1265184Y384300D01*
X1269590Y379894D01*
D02*
G37*
G36*
X1212440Y373544D02*
X1208034Y369138D01*
X1203628Y373544D01*
X1208034Y377950D01*
X1212440Y373544D01*
D02*
G37*
G36*
X1148940D02*
X1144534Y369138D01*
X1140133Y373540D01*
X1140134Y373551D01*
X1144534Y377950D01*
X1148940Y373544D01*
D02*
G37*
G36*
X1275940D02*
X1271534Y369138D01*
X1267128Y373544D01*
X1271534Y377950D01*
X1275940Y373544D01*
D02*
G37*
G36*
X1263240D02*
X1258834Y369138D01*
X1254428Y373544D01*
X1258834Y377950D01*
X1263240Y373544D01*
D02*
G37*
G36*
X1161640D02*
X1157234Y369138D01*
X1152828Y373544D01*
X1157234Y377950D01*
X1161640Y373544D01*
D02*
G37*
G36*
X1269590Y367194D02*
X1265184Y362788D01*
X1260778Y367194D01*
X1265184Y371600D01*
X1269590Y367194D01*
D02*
G37*
G36*
X1206090D02*
X1201684Y362788D01*
X1199444Y365028D01*
X1199810Y365911D01*
X1200264Y369357D01*
X1200168Y370085D01*
X1201684Y371600D01*
X1206090Y367194D01*
D02*
G37*
G36*
X1256890D02*
X1252484Y362788D01*
X1250244Y365028D01*
X1250610Y365911D01*
X1251064Y369357D01*
X1250968Y370085D01*
X1252484Y371600D01*
X1256890Y367194D01*
D02*
G37*
G36*
X1155290D02*
X1150884Y362788D01*
X1146478Y367194D01*
X1150884Y371600D01*
X1155290Y367194D01*
D02*
G37*
G36*
X1212440Y360844D02*
X1208034Y356438D01*
X1203628Y360844D01*
X1208034Y365250D01*
X1212440Y360844D01*
D02*
G37*
G36*
X1136240D02*
X1131834Y356438D01*
X1127428Y360844D01*
X1129449Y362866D01*
X1131013Y363072D01*
X1133134Y363950D01*
X1136240Y360844D01*
D02*
G37*
G36*
X1263240D02*
X1258834Y356438D01*
X1254428Y360844D01*
X1258834Y365250D01*
X1263240Y360844D01*
D02*
G37*
G36*
X1275940D02*
X1271534Y356438D01*
X1267128Y360844D01*
X1271534Y365250D01*
X1275940Y360844D01*
D02*
G37*
G36*
X1148940D02*
X1144534Y356438D01*
X1140128Y360844D01*
X1144534Y365250D01*
X1148940Y360844D01*
D02*
G37*
G36*
X1161640D02*
X1157234Y356438D01*
X1152828Y360844D01*
X1157234Y365250D01*
X1161640Y360844D01*
D02*
G37*
G36*
X1256890Y354494D02*
X1252484Y350088D01*
X1250244Y352328D01*
X1250610Y353211D01*
X1251064Y356657D01*
X1250968Y357385D01*
X1252484Y358900D01*
X1256890Y354494D01*
D02*
G37*
G36*
X1129890D02*
X1125484Y350088D01*
X1122528Y353044D01*
Y355945D01*
X1125484Y358900D01*
X1129890Y354494D01*
D02*
G37*
G36*
X1206090D02*
X1201684Y350088D01*
X1199444Y352328D01*
X1199810Y353211D01*
X1200264Y356657D01*
X1200168Y357385D01*
X1201684Y358900D01*
X1206090Y354494D01*
D02*
G37*
G36*
X1155290D02*
X1150884Y350088D01*
X1146478Y354494D01*
X1150884Y358900D01*
X1155290Y354494D01*
D02*
G37*
G36*
X1142590D02*
X1138184Y350088D01*
X1133778Y354494D01*
X1138184Y358900D01*
X1142590Y354494D01*
D02*
G37*
G36*
X1269590D02*
X1265184Y350088D01*
X1260778Y354494D01*
X1265184Y358900D01*
X1269590Y354494D01*
D02*
G37*
G36*
X1212440Y348144D02*
X1208034Y343738D01*
X1203628Y348144D01*
X1208034Y352550D01*
X1212440Y348144D01*
D02*
G37*
G36*
X1263240D02*
X1258834Y343738D01*
X1254428Y348144D01*
X1258834Y352550D01*
X1263240Y348144D01*
D02*
G37*
G36*
X1136240D02*
X1131834Y343738D01*
X1127428Y348144D01*
X1131834Y352550D01*
X1136240Y348144D01*
D02*
G37*
G36*
X1161640D02*
X1157234Y343738D01*
X1152828Y348144D01*
X1157234Y352550D01*
X1161640Y348144D01*
D02*
G37*
G36*
X1148940D02*
X1144534Y343738D01*
X1140128Y348144D01*
X1144534Y352550D01*
X1148940Y348144D01*
D02*
G37*
G36*
X1275940D02*
X1271534Y343738D01*
X1267128Y348144D01*
X1271534Y352550D01*
X1275940Y348144D01*
D02*
G37*
G36*
X1206090Y341794D02*
X1201684Y337388D01*
X1199444Y339628D01*
X1199810Y340511D01*
X1200264Y343957D01*
X1200168Y344685D01*
X1201684Y346200D01*
X1206090Y341794D01*
D02*
G37*
G36*
X1269590D02*
X1265184Y337388D01*
X1260778Y341794D01*
X1265184Y346200D01*
X1269590Y341794D01*
D02*
G37*
G36*
X1142590D02*
X1138184Y337388D01*
X1133778Y341794D01*
X1138184Y346200D01*
X1142590Y341794D01*
D02*
G37*
G36*
X1256890D02*
X1252484Y337388D01*
X1250244Y339628D01*
X1250610Y340511D01*
X1251064Y343957D01*
X1250968Y344685D01*
X1252484Y346200D01*
X1256890Y341794D01*
D02*
G37*
G36*
X1129890D02*
X1125484Y337388D01*
X1122528Y340344D01*
Y343245D01*
X1125484Y346200D01*
X1129890Y341794D01*
D02*
G37*
G36*
X1155290D02*
X1150884Y337388D01*
X1146478Y341794D01*
X1150884Y346200D01*
X1155290Y341794D01*
D02*
G37*
G36*
X1212440Y335444D02*
X1208034Y331038D01*
X1203628Y335444D01*
X1208034Y339850D01*
X1212440Y335444D01*
D02*
G37*
G36*
X1275940D02*
X1271534Y331038D01*
X1267128Y335444D01*
X1271534Y339850D01*
X1275940Y335444D01*
D02*
G37*
G36*
X1148940D02*
X1144534Y331038D01*
X1140128Y335444D01*
X1144534Y339850D01*
X1148940Y335444D01*
D02*
G37*
G36*
X1161640D02*
X1157234Y331038D01*
X1152828Y335444D01*
X1157234Y339850D01*
X1161640Y335444D01*
D02*
G37*
G36*
X1263240D02*
X1258834Y331038D01*
X1254428Y335444D01*
X1258834Y339850D01*
X1263240Y335444D01*
D02*
G37*
G36*
X1136240D02*
X1131834Y331038D01*
X1127428Y335444D01*
X1131834Y339850D01*
X1136240Y335444D01*
D02*
G37*
G36*
X1155290Y329094D02*
X1150884Y324688D01*
X1146478Y329094D01*
X1150884Y333500D01*
X1155290Y329094D01*
D02*
G37*
G36*
X1206090D02*
X1201684Y324688D01*
X1199444Y326928D01*
X1199810Y327811D01*
X1200264Y331257D01*
X1200168Y331985D01*
X1201684Y333500D01*
X1206090Y329094D01*
D02*
G37*
G36*
X1256890D02*
X1252484Y324688D01*
X1250244Y326928D01*
X1250610Y327811D01*
X1251064Y331257D01*
X1250968Y331985D01*
X1252484Y333500D01*
X1256890Y329094D01*
D02*
G37*
G36*
X1129890D02*
X1125484Y324688D01*
X1122528Y327644D01*
Y330545D01*
X1125484Y333500D01*
X1129890Y329094D01*
D02*
G37*
G36*
X1269590D02*
X1265184Y324688D01*
X1260778Y329094D01*
X1265184Y333500D01*
X1269590Y329094D01*
D02*
G37*
G36*
X1142590D02*
X1138184Y324688D01*
X1133778Y329094D01*
X1138184Y333500D01*
X1142590Y329094D01*
D02*
G37*
G36*
X1161640Y322744D02*
X1157234Y318338D01*
X1152828Y322744D01*
X1157234Y327150D01*
X1161640Y322744D01*
D02*
G37*
G36*
X1212440D02*
X1208034Y318338D01*
X1203628Y322744D01*
X1208034Y327150D01*
X1212440Y322744D01*
D02*
G37*
G36*
X1275940D02*
X1271534Y318338D01*
X1267128Y322744D01*
X1271534Y327150D01*
X1275940Y322744D01*
D02*
G37*
G36*
X1148940D02*
X1144534Y318338D01*
X1140128Y322744D01*
X1144534Y327150D01*
X1148940Y322744D01*
D02*
G37*
G36*
X1263240D02*
X1258834Y318338D01*
X1254428Y322744D01*
X1258834Y327150D01*
X1263240Y322744D01*
D02*
G37*
G36*
X1136240D02*
X1131834Y318338D01*
X1127428Y322744D01*
X1131834Y327150D01*
X1136240Y322744D01*
D02*
G37*
G36*
X1307690Y316394D02*
X1303412Y312117D01*
X1303263Y312178D01*
X1303068Y312204D01*
X1298878Y316394D01*
X1301734Y319250D01*
X1304834D01*
X1307690Y316394D01*
D02*
G37*
G36*
X1294990D02*
X1290584Y311988D01*
X1286178Y316394D01*
X1289034Y319250D01*
X1292134D01*
X1294990Y316394D01*
D02*
G37*
G36*
X1206090D02*
X1201684Y311988D01*
X1199444Y314228D01*
X1199810Y315111D01*
X1200264Y318557D01*
X1200168Y319285D01*
X1201684Y320800D01*
X1206090Y316394D01*
D02*
G37*
G36*
X1269590D02*
X1265184Y311988D01*
X1260778Y316394D01*
X1265184Y320800D01*
X1269590Y316394D01*
D02*
G37*
G36*
X1142590D02*
X1138184Y311988D01*
X1133778Y316394D01*
X1138184Y320800D01*
X1142590Y316394D01*
D02*
G37*
G36*
X1278500Y320184D02*
Y319250D01*
X1279434D01*
X1282290Y316394D01*
X1277884Y311988D01*
X1273478Y316394D01*
X1277884Y320800D01*
X1278500Y320184D01*
D02*
G37*
G36*
X1155290Y316394D02*
X1150884Y311988D01*
X1146478Y316394D01*
X1150884Y320800D01*
X1155290Y316394D01*
D02*
G37*
G36*
X1129890D02*
X1125484Y311988D01*
X1122528Y314944D01*
Y317845D01*
X1125484Y320800D01*
X1129890Y316394D01*
D02*
G37*
G36*
X1256890D02*
X1252484Y311988D01*
X1250244Y314228D01*
X1250610Y315111D01*
X1251064Y318557D01*
X1250968Y319285D01*
X1252484Y320800D01*
X1256890Y316394D01*
D02*
G37*
G36*
X1212440Y310044D02*
X1208034Y305638D01*
X1203628Y310044D01*
X1208034Y314450D01*
X1212440Y310044D01*
D02*
G37*
G36*
X1136240D02*
X1131834Y305638D01*
X1127428Y310044D01*
X1131834Y314450D01*
X1136240Y310044D01*
D02*
G37*
G36*
X1263240D02*
X1258834Y305638D01*
X1254428Y310044D01*
X1258834Y314450D01*
X1263240Y310044D01*
D02*
G37*
G36*
X1275940D02*
X1271534Y305638D01*
X1267128Y310044D01*
X1271534Y314450D01*
X1275940Y310044D01*
D02*
G37*
G36*
X1148940D02*
X1144534Y305638D01*
X1140128Y310044D01*
X1144534Y314450D01*
X1148940Y310044D01*
D02*
G37*
G36*
X1161640D02*
X1157234Y305638D01*
X1152828Y310044D01*
X1157234Y314450D01*
X1161640Y310044D01*
D02*
G37*
G36*
X1288640D02*
X1284234Y305638D01*
X1279828Y310044D01*
X1284234Y314450D01*
X1288640Y310044D01*
D02*
G37*
G36*
X1206090Y303694D02*
X1202626Y300230D01*
X1202500Y300247D01*
X1200932Y300040D01*
X1199444Y301528D01*
X1199810Y302411D01*
X1200264Y305857D01*
X1200168Y306585D01*
X1201684Y308100D01*
X1206090Y303694D01*
D02*
G37*
G36*
X1256890D02*
X1252484Y299288D01*
X1250244Y301528D01*
X1250610Y302411D01*
X1251064Y305857D01*
X1250968Y306585D01*
X1252484Y308100D01*
X1256890Y303694D01*
D02*
G37*
G36*
X1129890D02*
X1125484Y299288D01*
X1122528Y302244D01*
Y305145D01*
X1125484Y308100D01*
X1129890Y303694D01*
D02*
G37*
G36*
X1269590D02*
X1265184Y299288D01*
X1260778Y303694D01*
X1265184Y308100D01*
X1269590Y303694D01*
D02*
G37*
G36*
X1142590D02*
X1138184Y299288D01*
X1133778Y303694D01*
X1138184Y308100D01*
X1142590Y303694D01*
D02*
G37*
G36*
X1282290D02*
X1277884Y299288D01*
X1273478Y303694D01*
X1277884Y308100D01*
X1282290Y303694D01*
D02*
G37*
G36*
X1155290D02*
X1150884Y299288D01*
X1146478Y303694D01*
X1150884Y308100D01*
X1155290Y303694D01*
D02*
G37*
G36*
X1263240Y297344D02*
X1258834Y292938D01*
X1254428Y297344D01*
X1258834Y301750D01*
X1263240Y297344D01*
D02*
G37*
G36*
X1136240D02*
X1131834Y292938D01*
X1127428Y297344D01*
X1131834Y301750D01*
X1136240Y297344D01*
D02*
G37*
G36*
X1275940D02*
X1271534Y292938D01*
X1267128Y297344D01*
X1271534Y301750D01*
X1275940Y297344D01*
D02*
G37*
G36*
X1148940D02*
X1144534Y292938D01*
X1140128Y297344D01*
X1144534Y301750D01*
X1148940Y297344D01*
D02*
G37*
G36*
X1161640D02*
X1157234Y292938D01*
X1152828Y297344D01*
X1157234Y301750D01*
X1161640Y297344D01*
D02*
G37*
G36*
X1269590Y290994D02*
X1265184Y286588D01*
X1260778Y290994D01*
X1265184Y295400D01*
X1269590Y290994D01*
D02*
G37*
G36*
X1142590D02*
X1138184Y286588D01*
X1133778Y290994D01*
X1138184Y295400D01*
X1142590Y290994D01*
D02*
G37*
G36*
X1280808Y292476D02*
Y289513D01*
X1277884Y286588D01*
X1273478Y290994D01*
X1277884Y295400D01*
X1280808Y292476D01*
D02*
G37*
G36*
X1155290Y290994D02*
X1150884Y286588D01*
X1146478Y290994D01*
X1150884Y295400D01*
X1155290Y290994D01*
D02*
G37*
G36*
X1129890D02*
X1125484Y286588D01*
X1122528Y289544D01*
Y292445D01*
X1125484Y295400D01*
X1129890Y290994D01*
D02*
G37*
G36*
X1161640Y284644D02*
X1157234Y280238D01*
X1152828Y284644D01*
X1157234Y289050D01*
X1161640Y284644D01*
D02*
G37*
G36*
X1275940D02*
X1271534Y280238D01*
X1267128Y284644D01*
X1271534Y289050D01*
X1275940Y284644D01*
D02*
G37*
G36*
X1148940D02*
X1144534Y280238D01*
X1140128Y284644D01*
X1144534Y289050D01*
X1148940Y284644D01*
D02*
G37*
G36*
X1263240D02*
X1258834Y280238D01*
X1254428Y284644D01*
X1258834Y289050D01*
X1263240Y284644D01*
D02*
G37*
G36*
X1136240D02*
X1131834Y280238D01*
X1127428Y284644D01*
X1131834Y289050D01*
X1136240Y284644D01*
D02*
G37*
G36*
X1280808Y279776D02*
Y276813D01*
X1277884Y273888D01*
X1273478Y278294D01*
X1277884Y282700D01*
X1280808Y279776D01*
D02*
G37*
G36*
X1155290Y278294D02*
X1150884Y273888D01*
X1146478Y278294D01*
X1150884Y282700D01*
X1155290Y278294D01*
D02*
G37*
G36*
X1129890D02*
X1125484Y273888D01*
X1122528Y276844D01*
Y279745D01*
X1125484Y282700D01*
X1129890Y278294D01*
D02*
G37*
G36*
X1269590D02*
X1265184Y273888D01*
X1260778Y278294D01*
X1265184Y282700D01*
X1269590Y278294D01*
D02*
G37*
G36*
X1142590D02*
X1138184Y273888D01*
X1133778Y278294D01*
X1138184Y282700D01*
X1142590Y278294D01*
D02*
G37*
G36*
X1275940Y271944D02*
X1271534Y267538D01*
X1267128Y271944D01*
X1271534Y276350D01*
X1275940Y271944D01*
D02*
G37*
G36*
X1148901Y271983D02*
X1147835Y271165D01*
X1146761Y269765D01*
X1144534Y267538D01*
X1140128Y271944D01*
X1144534Y276350D01*
X1148901Y271983D01*
D02*
G37*
G36*
X1263240Y271944D02*
X1258834Y267538D01*
X1254428Y271944D01*
X1258834Y276350D01*
X1263240Y271944D01*
D02*
G37*
G36*
X1136240D02*
X1131834Y267538D01*
X1127428Y271944D01*
X1131834Y276350D01*
X1136240Y271944D01*
D02*
G37*
G36*
X1269590Y265594D02*
X1266815Y262820D01*
X1264250Y263158D01*
X1263335Y263037D01*
X1260778Y265594D01*
X1265184Y270000D01*
X1269590Y265594D01*
D02*
G37*
G36*
X1241750Y286500D02*
X1244250Y284000D01*
Y266000D01*
X1241000Y262750D01*
X1214750Y262750D01*
X1211750Y265750D01*
X1211750Y270250D01*
X1214250Y272750D01*
X1227000D01*
X1231500Y277250D01*
Y283500D01*
X1234500Y286500D01*
X1241750Y286500D01*
D02*
G37*
G36*
X1142590Y265594D02*
X1138184Y261188D01*
X1133778Y265594D01*
X1138184Y270000D01*
X1142590Y265594D01*
D02*
G37*
G36*
X1280808Y267076D02*
Y264113D01*
X1277884Y261188D01*
X1273478Y265594D01*
X1277884Y270000D01*
X1280808Y267076D01*
D02*
G37*
G36*
X1161640Y246544D02*
X1157234Y242138D01*
X1152828Y246544D01*
X1156022Y249738D01*
X1156750Y249642D01*
X1158334Y249851D01*
X1161640Y246544D01*
D02*
G37*
G36*
X1206090Y252894D02*
X1201684Y248488D01*
X1199444Y250728D01*
X1199810Y251611D01*
X1200264Y255057D01*
X1200168Y255785D01*
X1201684Y257300D01*
X1206090Y252894D01*
D02*
G37*
G36*
X1142590D02*
X1138184Y248488D01*
X1133778Y252894D01*
X1138184Y257300D01*
X1142590Y252894D01*
D02*
G37*
G36*
X1212440Y246544D02*
X1208034Y242138D01*
X1203628Y246544D01*
X1208034Y250950D01*
X1212440Y246544D01*
D02*
G37*
G36*
X1148940D02*
X1144534Y242138D01*
X1140128Y246544D01*
X1144534Y250950D01*
X1148940Y246544D01*
D02*
G37*
G36*
X1136240D02*
X1131834Y242138D01*
X1127428Y246544D01*
X1127495Y246612D01*
X1129415Y248085D01*
X1130888Y250005D01*
X1131834Y250950D01*
X1136240Y246544D01*
D02*
G37*
G36*
X1142590Y240194D02*
X1138184Y235788D01*
X1133778Y240194D01*
X1138184Y244600D01*
X1142590Y240194D01*
D02*
G37*
G36*
X1206090D02*
X1201684Y235788D01*
X1199444Y238028D01*
X1199810Y238911D01*
X1200264Y242357D01*
X1200168Y243085D01*
X1201684Y244600D01*
X1206090Y240194D01*
D02*
G37*
G36*
X1129890D02*
X1125484Y235788D01*
X1122528Y238744D01*
Y241645D01*
X1125484Y244600D01*
X1129890Y240194D01*
D02*
G37*
G36*
X1155290D02*
X1150884Y235788D01*
X1146478Y240194D01*
X1150884Y244600D01*
X1155290Y240194D01*
D02*
G37*
G36*
X1212440Y233844D02*
X1208034Y229438D01*
X1203628Y233844D01*
X1208034Y238250D01*
X1212440Y233844D01*
D02*
G37*
G36*
X1136240D02*
X1131834Y229438D01*
X1130255Y231017D01*
X1128415Y233415D01*
X1127614Y234030D01*
X1131834Y238250D01*
X1136240Y233844D01*
D02*
G37*
G36*
X1148940D02*
X1144534Y229438D01*
X1140128Y233844D01*
X1144534Y238250D01*
X1148940Y233844D01*
D02*
G37*
G36*
X1161640D02*
X1157234Y229438D01*
X1152828Y233844D01*
X1157234Y238250D01*
X1161640Y233844D01*
D02*
G37*
G36*
X1206090Y227494D02*
X1201684Y223088D01*
X1199444Y225328D01*
X1199810Y226211D01*
X1200264Y229657D01*
X1200168Y230385D01*
X1201684Y231900D01*
X1206090Y227494D01*
D02*
G37*
G36*
X1280808Y228976D02*
Y226013D01*
X1277884Y223088D01*
X1275220Y225752D01*
X1275358Y226800D01*
X1275058Y229075D01*
X1277884Y231900D01*
X1280808Y228976D01*
D02*
G37*
G36*
X1155290Y227494D02*
X1150884Y223088D01*
X1146478Y227494D01*
X1150884Y231900D01*
X1155290Y227494D01*
D02*
G37*
G36*
X1142590D02*
X1138184Y223088D01*
X1133778Y227494D01*
X1138184Y231900D01*
X1142590Y227494D01*
D02*
G37*
G36*
X1212440Y221144D02*
X1208034Y216738D01*
X1203628Y221144D01*
X1208034Y225550D01*
X1212440Y221144D01*
D02*
G37*
G36*
X1161640D02*
X1157234Y216738D01*
X1152828Y221144D01*
X1157234Y225550D01*
X1161640Y221144D01*
D02*
G37*
G36*
X1148940D02*
X1144534Y216738D01*
X1140128Y221144D01*
X1144534Y225550D01*
X1148940Y221144D01*
D02*
G37*
G36*
X1206090Y214794D02*
X1201684Y210388D01*
X1199444Y212628D01*
X1199810Y213511D01*
X1200264Y216957D01*
X1200168Y217685D01*
X1201684Y219200D01*
X1206090Y214794D01*
D02*
G37*
G36*
X1142590D02*
X1138184Y210388D01*
X1133778Y214794D01*
X1138184Y219200D01*
X1142590Y214794D01*
D02*
G37*
G36*
X1280808Y216276D02*
Y213313D01*
X1277884Y210388D01*
X1273817Y214455D01*
X1274298Y215614D01*
X1277884Y219200D01*
X1280808Y216276D01*
D02*
G37*
G36*
X1155290Y214794D02*
X1150884Y210388D01*
X1146478Y214794D01*
X1150884Y219200D01*
X1155290Y214794D01*
D02*
G37*
G36*
X1212440Y208444D02*
X1208034Y204038D01*
X1203628Y208444D01*
X1208034Y212850D01*
X1212440Y208444D01*
D02*
G37*
G36*
X1275940D02*
X1271534Y204038D01*
X1267128Y208444D01*
X1267536Y208852D01*
X1269054Y209481D01*
X1271665Y211485D01*
X1272201Y212183D01*
X1275940Y208444D01*
D02*
G37*
G36*
X1148940D02*
X1144534Y204038D01*
X1140128Y208444D01*
X1144534Y212850D01*
X1148940Y208444D01*
D02*
G37*
G36*
X1161640D02*
X1157234Y204038D01*
X1152828Y208444D01*
X1157234Y212850D01*
X1161640Y208444D01*
D02*
G37*
G36*
X1136240D02*
X1131834Y204038D01*
X1127428Y208444D01*
X1131834Y212850D01*
X1136240Y208444D01*
D02*
G37*
G36*
X1280808Y203576D02*
Y200613D01*
X1277884Y197688D01*
X1273478Y202094D01*
X1277884Y206500D01*
X1280808Y203576D01*
D02*
G37*
G36*
X1155290Y202094D02*
X1150884Y197688D01*
X1146478Y202094D01*
X1150884Y206500D01*
X1155290Y202094D01*
D02*
G37*
G36*
X1206090D02*
X1201684Y197688D01*
X1199444Y199928D01*
X1199810Y200811D01*
X1200264Y204257D01*
X1200168Y204985D01*
X1201684Y206500D01*
X1206090Y202094D01*
D02*
G37*
G36*
X1256890D02*
X1252484Y197688D01*
X1250244Y199928D01*
X1250610Y200811D01*
X1251064Y204257D01*
X1250968Y204985D01*
X1252484Y206500D01*
X1256890Y202094D01*
D02*
G37*
G36*
X1129890D02*
X1125484Y197688D01*
X1122436Y200736D01*
Y203452D01*
X1125484Y206500D01*
X1129890Y202094D01*
D02*
G37*
G36*
X1269590D02*
X1265184Y197688D01*
X1260778Y202094D01*
X1265184Y206500D01*
X1269590Y202094D01*
D02*
G37*
G36*
X1142590D02*
X1138184Y197688D01*
X1133778Y202094D01*
X1138184Y206500D01*
X1142590Y202094D01*
D02*
G37*
G36*
X1161640Y195744D02*
X1157234Y191338D01*
X1152828Y195744D01*
X1157234Y200150D01*
X1161640Y195744D01*
D02*
G37*
G36*
X1212440D02*
X1208034Y191338D01*
X1203628Y195744D01*
X1208034Y200150D01*
X1212440Y195744D01*
D02*
G37*
G36*
X1275940D02*
X1271534Y191338D01*
X1267128Y195744D01*
X1271534Y200150D01*
X1275940Y195744D01*
D02*
G37*
G36*
X1148940D02*
X1144534Y191338D01*
X1140128Y195744D01*
X1144534Y200150D01*
X1148940Y195744D01*
D02*
G37*
G36*
X1263240D02*
X1258834Y191338D01*
X1254428Y195744D01*
X1258834Y200150D01*
X1263240Y195744D01*
D02*
G37*
G36*
X1136240D02*
X1131834Y191338D01*
X1127428Y195744D01*
X1131834Y200150D01*
X1136240Y195744D01*
D02*
G37*
G36*
X1206090Y189394D02*
X1201684Y184988D01*
X1199444Y187228D01*
X1199810Y188111D01*
X1200264Y191557D01*
X1200168Y192285D01*
X1201684Y193800D01*
X1206090Y189394D01*
D02*
G37*
G36*
X1269590D02*
X1265184Y184988D01*
X1260778Y189394D01*
X1265184Y193800D01*
X1269590Y189394D01*
D02*
G37*
G36*
X1142590D02*
X1138184Y184988D01*
X1133778Y189394D01*
X1138184Y193800D01*
X1142590Y189394D01*
D02*
G37*
G36*
X1280808Y190876D02*
Y187913D01*
X1277884Y184988D01*
X1273478Y189394D01*
X1277884Y193800D01*
X1280808Y190876D01*
D02*
G37*
G36*
X1155290Y189394D02*
X1150884Y184988D01*
X1146478Y189394D01*
X1150884Y193800D01*
X1155290Y189394D01*
D02*
G37*
G36*
X1256890D02*
X1252484Y184988D01*
X1250244Y187228D01*
X1250610Y188111D01*
X1251064Y191557D01*
X1250968Y192285D01*
X1252484Y193800D01*
X1256890Y189394D01*
D02*
G37*
G36*
X1129890D02*
X1125484Y184988D01*
X1122436Y188036D01*
Y190752D01*
X1125484Y193800D01*
X1129890Y189394D01*
D02*
G37*
G36*
X1212440Y183044D02*
X1208034Y178638D01*
X1203628Y183044D01*
X1208034Y187450D01*
X1212440Y183044D01*
D02*
G37*
G36*
X1136240D02*
X1131834Y178638D01*
X1127428Y183044D01*
X1131834Y187450D01*
X1136240Y183044D01*
D02*
G37*
G36*
X1263240D02*
X1258834Y178638D01*
X1254428Y183044D01*
X1258834Y187450D01*
X1263240Y183044D01*
D02*
G37*
G36*
X1275940D02*
X1271534Y178638D01*
X1267128Y183044D01*
X1271534Y187450D01*
X1275940Y183044D01*
D02*
G37*
G36*
X1148940D02*
X1144534Y178638D01*
X1140128Y183044D01*
X1144534Y187450D01*
X1148940Y183044D01*
D02*
G37*
G36*
X1161640D02*
X1157234Y178638D01*
X1152828Y183044D01*
X1157234Y187450D01*
X1161640Y183044D01*
D02*
G37*
G36*
X1256890Y176694D02*
X1252484Y172288D01*
X1250244Y174528D01*
X1250610Y175411D01*
X1251064Y178857D01*
X1250968Y179585D01*
X1252484Y181100D01*
X1256890Y176694D01*
D02*
G37*
G36*
X1129890D02*
X1125484Y172288D01*
X1122436Y175336D01*
X1122436Y178052D01*
X1125484Y181100D01*
X1129890Y176694D01*
D02*
G37*
G36*
X1206090D02*
X1201684Y172288D01*
X1199444Y174528D01*
X1199810Y175411D01*
X1200264Y178857D01*
X1200168Y179585D01*
X1201684Y181100D01*
X1206090Y176694D01*
D02*
G37*
G36*
X1269590D02*
X1265184Y172288D01*
X1260778Y176694D01*
X1265184Y181100D01*
X1269590Y176694D01*
D02*
G37*
G36*
X1142590D02*
X1138184Y172288D01*
X1133778Y176694D01*
X1138184Y181100D01*
X1142590Y176694D01*
D02*
G37*
G36*
X1280808Y178176D02*
Y175213D01*
X1277884Y172288D01*
X1273478Y176694D01*
X1277884Y181100D01*
X1280808Y178176D01*
D02*
G37*
G36*
X1155290Y176694D02*
X1150884Y172288D01*
X1146478Y176694D01*
X1150884Y181100D01*
X1155290Y176694D01*
D02*
G37*
G36*
X1212440Y170344D02*
X1208034Y165938D01*
X1203628Y170344D01*
X1208034Y174750D01*
X1212440Y170344D01*
D02*
G37*
G36*
X1263240D02*
X1258834Y165938D01*
X1254428Y170344D01*
X1258834Y174750D01*
X1263240Y170344D01*
D02*
G37*
G36*
X1136240D02*
X1131834Y165938D01*
X1127428Y170344D01*
X1131834Y174750D01*
X1136240Y170344D01*
D02*
G37*
G36*
X1275940D02*
X1271534Y165938D01*
X1267128Y170344D01*
X1271534Y174750D01*
X1275940Y170344D01*
D02*
G37*
G36*
X1148940D02*
X1144534Y165938D01*
X1140128Y170344D01*
X1144534Y174750D01*
X1148940Y170344D01*
D02*
G37*
G36*
X1161640D02*
X1157234Y165938D01*
X1152828Y170344D01*
X1157234Y174750D01*
X1161640Y170344D01*
D02*
G37*
G36*
X1206090Y163994D02*
X1201684Y159588D01*
X1199444Y161828D01*
X1199810Y162711D01*
X1200264Y166157D01*
X1200168Y166885D01*
X1201684Y168400D01*
X1206090Y163994D01*
D02*
G37*
G36*
X1269590D02*
X1265184Y159588D01*
X1260778Y163994D01*
X1265184Y168400D01*
X1269590Y163994D01*
D02*
G37*
G36*
X1142590D02*
X1138184Y159588D01*
X1133778Y163994D01*
X1138184Y168400D01*
X1142590Y163994D01*
D02*
G37*
G36*
X1155290D02*
X1150884Y159588D01*
X1146478Y163994D01*
X1150884Y168400D01*
X1155290Y163994D01*
D02*
G37*
G36*
X1256890D02*
X1252484Y159588D01*
X1250244Y161828D01*
X1250610Y162711D01*
X1251064Y166157D01*
X1250968Y166885D01*
X1252484Y168400D01*
X1256890Y163994D01*
D02*
G37*
G36*
X1129890D02*
X1125484Y159588D01*
X1122436Y162636D01*
Y165352D01*
X1125484Y168400D01*
X1129890Y163994D01*
D02*
G37*
G36*
X1161640Y157644D02*
X1157234Y153238D01*
X1152828Y157644D01*
X1157234Y162050D01*
X1161640Y157644D01*
D02*
G37*
G36*
X1212440D02*
X1208034Y153238D01*
X1203628Y157644D01*
X1208034Y162050D01*
X1212440Y157644D01*
D02*
G37*
G36*
X1148940D02*
X1144534Y153238D01*
X1140128Y157644D01*
X1144534Y162050D01*
X1148940Y157644D01*
D02*
G37*
G36*
X1275940D02*
X1271534Y153238D01*
X1267128Y157644D01*
X1271534Y162050D01*
X1275940Y157644D01*
D02*
G37*
G36*
X1263240D02*
X1258834Y153238D01*
X1254428Y157644D01*
X1258834Y162050D01*
X1263240Y157644D01*
D02*
G37*
G36*
X1136240D02*
X1131834Y153238D01*
X1127428Y157644D01*
X1131834Y162050D01*
X1136240Y157644D01*
D02*
G37*
G36*
X1155290Y151294D02*
X1150884Y146888D01*
X1146478Y151294D01*
X1150884Y155700D01*
X1155290Y151294D01*
D02*
G37*
G36*
X1206090D02*
X1201684Y146888D01*
X1199444Y149128D01*
X1199810Y150011D01*
X1200264Y153457D01*
X1200168Y154185D01*
X1201684Y155700D01*
X1206090Y151294D01*
D02*
G37*
G36*
X1129890D02*
X1125484Y146888D01*
X1122436Y149936D01*
Y152652D01*
X1125484Y155700D01*
X1129890Y151294D01*
D02*
G37*
G36*
X1256890D02*
X1252484Y146888D01*
X1250244Y149128D01*
X1250610Y150011D01*
X1251064Y153457D01*
X1250968Y154185D01*
X1252484Y155700D01*
X1256890Y151294D01*
D02*
G37*
G36*
X1142590D02*
X1138184Y146888D01*
X1133778Y151294D01*
X1138184Y155700D01*
X1142590Y151294D01*
D02*
G37*
G36*
X1269590D02*
X1265184Y146888D01*
X1260778Y151294D01*
X1265184Y155700D01*
X1269590Y151294D01*
D02*
G37*
G36*
X1275940Y144944D02*
X1275081Y144086D01*
X1271987Y143678D01*
X1269446Y142626D01*
X1267128Y144944D01*
X1271534Y149350D01*
X1275940Y144944D01*
D02*
G37*
G36*
X1212440D02*
X1208034Y140538D01*
X1203628Y144944D01*
X1208034Y149350D01*
X1212440Y144944D01*
D02*
G37*
G36*
X1148940D02*
X1144534Y140538D01*
X1140128Y144944D01*
X1144534Y149350D01*
X1148940Y144944D01*
D02*
G37*
G36*
X1161640D02*
X1157234Y140538D01*
X1152828Y144944D01*
X1157234Y149350D01*
X1161640Y144944D01*
D02*
G37*
G36*
X1263240D02*
X1258834Y140538D01*
X1254428Y144944D01*
X1258834Y149350D01*
X1263240Y144944D01*
D02*
G37*
G36*
X1136240D02*
X1131834Y140538D01*
X1127428Y144944D01*
X1131834Y149350D01*
X1136240Y144944D01*
D02*
G37*
G36*
X1206090Y138594D02*
X1201684Y134188D01*
X1199444Y136428D01*
X1199810Y137311D01*
X1200264Y140757D01*
X1200168Y141485D01*
X1201684Y143000D01*
X1206090Y138594D01*
D02*
G37*
G36*
X1142590D02*
X1138184Y134188D01*
X1133778Y138594D01*
X1138184Y143000D01*
X1142590Y138594D01*
D02*
G37*
G36*
X1256890D02*
X1252484Y134188D01*
X1250244Y136428D01*
X1250610Y137311D01*
X1251064Y140757D01*
X1250968Y141485D01*
X1252484Y143000D01*
X1256890Y138594D01*
D02*
G37*
G36*
X1129890D02*
X1125484Y134188D01*
X1122436Y137236D01*
Y139952D01*
X1125484Y143000D01*
X1129890Y138594D01*
D02*
G37*
G36*
X1155290D02*
X1150884Y134188D01*
X1146478Y138594D01*
X1150884Y143000D01*
X1155290Y138594D01*
D02*
G37*
G36*
X1212440Y132244D02*
X1208034Y127838D01*
X1203628Y132244D01*
X1208034Y136650D01*
X1212440Y132244D01*
D02*
G37*
G36*
X1262798Y132686D02*
X1262664Y131669D01*
X1258834Y127838D01*
X1254428Y132244D01*
X1258834Y136650D01*
X1262798Y132686D01*
D02*
G37*
G36*
X1136240Y132244D02*
X1131834Y127838D01*
X1127428Y132244D01*
X1131834Y136650D01*
X1136240Y132244D01*
D02*
G37*
G36*
X1161640D02*
X1157234Y127838D01*
X1152828Y132244D01*
X1157234Y136650D01*
X1161640Y132244D01*
D02*
G37*
G36*
X1148940D02*
X1144534Y127838D01*
X1140128Y132244D01*
X1144534Y136650D01*
X1148940Y132244D01*
D02*
G37*
G36*
X1256890Y125894D02*
X1252484Y121488D01*
X1250244Y123728D01*
X1250610Y124611D01*
X1251064Y128057D01*
X1250968Y128785D01*
X1252484Y130300D01*
X1256890Y125894D01*
D02*
G37*
G36*
X1129890D02*
X1125484Y121488D01*
X1122436Y124536D01*
Y127252D01*
X1125484Y130300D01*
X1129890Y125894D01*
D02*
G37*
G36*
X1206090D02*
X1201684Y121488D01*
X1199444Y123728D01*
X1199810Y124611D01*
X1200264Y128057D01*
X1200168Y128785D01*
X1201684Y130300D01*
X1206090Y125894D01*
D02*
G37*
G36*
X1155290D02*
X1150884Y121488D01*
X1146478Y125894D01*
X1150884Y130300D01*
X1155290Y125894D01*
D02*
G37*
G36*
X1142590D02*
X1138184Y121488D01*
X1133778Y125894D01*
X1138184Y130300D01*
X1142590Y125894D01*
D02*
G37*
G36*
X1212440Y119544D02*
X1208034Y115138D01*
X1203628Y119544D01*
X1208034Y123950D01*
X1212440Y119544D01*
D02*
G37*
G36*
X831440D02*
X827034Y115138D01*
X822628Y119544D01*
X827034Y123950D01*
X831440Y119544D01*
D02*
G37*
G36*
X1148940D02*
X1144534Y115138D01*
X1140128Y119544D01*
X1144534Y123950D01*
X1148940Y119544D01*
D02*
G37*
G36*
X1136240D02*
X1131834Y115138D01*
X1127428Y119544D01*
X1131834Y123950D01*
X1136240Y119544D01*
D02*
G37*
G36*
X1161640D02*
X1157234Y115138D01*
X1152828Y119544D01*
X1157234Y123950D01*
X1161640Y119544D01*
D02*
G37*
G36*
X1142590Y113194D02*
X1138573Y109178D01*
X1136304Y110919D01*
X1135876Y111096D01*
X1133778Y113194D01*
X1138184Y117600D01*
X1142590Y113194D01*
D02*
G37*
G36*
X1206090D02*
X1203898Y111002D01*
X1203696Y110919D01*
X1201352Y109120D01*
X1199444Y111028D01*
X1199810Y111911D01*
X1200264Y115357D01*
X1200168Y116085D01*
X1201684Y117600D01*
X1206090Y113194D01*
D02*
G37*
G36*
X1155290D02*
X1150884Y108788D01*
X1146478Y113194D01*
X1150884Y117600D01*
X1155290Y113194D01*
D02*
G37*
G36*
X797697Y115188D02*
X797822Y114237D01*
X798674Y112179D01*
X795284Y108788D01*
X792487Y111585D01*
X792608Y112500D01*
X792326Y114642D01*
X795284Y117600D01*
X797697Y115188D01*
D02*
G37*
G36*
X1148940Y106844D02*
X1144534Y102438D01*
X1141096Y105876D01*
X1140919Y106304D01*
X1140341Y107057D01*
X1144534Y111250D01*
X1148940Y106844D01*
D02*
G37*
G36*
X1161640D02*
X1157234Y102438D01*
X1152828Y106844D01*
X1157234Y111250D01*
X1161640Y106844D01*
D02*
G37*
G36*
X748890Y100494D02*
X744484Y96088D01*
X742371Y98201D01*
X742608Y100000D01*
X742256Y102673D01*
X744484Y104900D01*
X748890Y100494D01*
D02*
G37*
G36*
X1155290D02*
X1150884Y96088D01*
X1146478Y100494D01*
X1150884Y104900D01*
X1155290Y100494D01*
D02*
G37*
G36*
X797717Y102467D02*
X797392Y100000D01*
X797602Y98406D01*
X795284Y96088D01*
X790878Y100494D01*
X795284Y104900D01*
X797717Y102467D01*
D02*
G37*
G36*
X659990Y100494D02*
X655584Y96088D01*
X652499Y99173D01*
X652608Y100000D01*
X652472Y101030D01*
X653804Y101581D01*
X656415Y103585D01*
X656625Y103859D01*
X659990Y100494D01*
D02*
G37*
G36*
X1161640Y94144D02*
X1157234Y89738D01*
X1152828Y94144D01*
X1157234Y98550D01*
X1161640Y94144D01*
D02*
G37*
G36*
X1148940D02*
X1144534Y89738D01*
X1140770Y93502D01*
X1140919Y93696D01*
X1141795Y95811D01*
X1144534Y98550D01*
X1148940Y94144D01*
D02*
G37*
G36*
X1142590Y87794D02*
X1138184Y83388D01*
X1133778Y87794D01*
X1134189Y88205D01*
X1136304Y89081D01*
X1138915Y91085D01*
X1139082Y91302D01*
X1142590Y87794D01*
D02*
G37*
G36*
X1155290D02*
X1150884Y83388D01*
X1146478Y87794D01*
X1150884Y92200D01*
X1155290Y87794D01*
D02*
G37*
G36*
X1212440Y81444D02*
X1208034Y77038D01*
X1203628Y81444D01*
X1208034Y85850D01*
X1212440Y81444D01*
D02*
G37*
G36*
X1136240D02*
X1131834Y77038D01*
X1127428Y81444D01*
X1131834Y85850D01*
X1136240Y81444D01*
D02*
G37*
G36*
X1206090Y75094D02*
X1201684Y70688D01*
X1199444Y72928D01*
X1199810Y73811D01*
X1200264Y77257D01*
X1200168Y77985D01*
X1201684Y79500D01*
X1206090Y75094D01*
D02*
G37*
G36*
X1129890D02*
X1125484Y70688D01*
X1121078Y75094D01*
X1125484Y79500D01*
X1129890Y75094D01*
D02*
G37*
G36*
X1136240Y68744D02*
X1131834Y64338D01*
X1127428Y68744D01*
X1131834Y73150D01*
X1136240Y68744D01*
D02*
G37*
G36*
X1244190Y62394D02*
X1239784Y57988D01*
X1235378Y62394D01*
X1237022Y64039D01*
X1237750Y63943D01*
X1241196Y64397D01*
X1241897Y64687D01*
X1244190Y62394D01*
D02*
G37*
G36*
X1231490D02*
X1227084Y57988D01*
X1222678Y62394D01*
X1224323Y64039D01*
X1225050Y63943D01*
X1228496Y64397D01*
X1229197Y64687D01*
X1231490Y62394D01*
D02*
G37*
G36*
X1192827Y62957D02*
X1192214Y62211D01*
X1191075Y60079D01*
X1188984Y57988D01*
X1184578Y62394D01*
X1186223Y64039D01*
X1186950Y63943D01*
X1190396Y64397D01*
X1191097Y64687D01*
X1192827Y62957D01*
D02*
G37*
G36*
X1237840Y56044D02*
X1233434Y51638D01*
X1229028Y56044D01*
X1233434Y60450D01*
X1237840Y56044D01*
D02*
G37*
G36*
X919515Y56869D02*
X919081Y56304D01*
X918008Y53712D01*
X915934Y51638D01*
X911528Y56044D01*
X915455Y59971D01*
X916413D01*
X919515Y56869D01*
D02*
G37*
G36*
X958440Y56044D02*
X954034Y51638D01*
X949628Y56044D01*
X953555Y59971D01*
X954512D01*
X958440Y56044D01*
D02*
G37*
G36*
X1143696Y59081D02*
X1146737Y57822D01*
X1147227Y57757D01*
X1148940Y56044D01*
X1144534Y51638D01*
X1142232Y53940D01*
X1142178Y54348D01*
X1141081Y56997D01*
X1143395Y59312D01*
X1143696Y59081D01*
D02*
G37*
G36*
X907640Y56044D02*
X903234Y51638D01*
X902265Y52608D01*
X902178Y53263D01*
X900919Y56304D01*
X900124Y57340D01*
X902755Y59971D01*
X903712D01*
X907640Y56044D01*
D02*
G37*
G36*
X1160079Y57605D02*
X1159081Y56304D01*
X1157822Y53263D01*
X1157664Y52069D01*
X1157234Y51638D01*
X1152828Y56044D01*
X1155554Y58771D01*
X1156304Y59081D01*
X1157605Y60079D01*
X1160079Y57605D01*
D02*
G37*
G36*
X1187040Y56044D02*
X1182634Y51638D01*
X1182355Y51917D01*
X1182178Y53263D01*
X1180919Y56304D01*
X1179863Y57680D01*
X1182634Y60450D01*
X1187040Y56044D01*
D02*
G37*
G36*
X875890Y49694D02*
X871484Y45288D01*
X867078Y49694D01*
X871484Y54100D01*
X875890Y49694D01*
D02*
G37*
G36*
X952090D02*
X947684Y45288D01*
X943278Y49694D01*
X947684Y54100D01*
X952090Y49694D01*
D02*
G37*
G36*
X1231490D02*
X1227084Y45288D01*
X1222678Y49694D01*
X1227084Y54100D01*
X1231490Y49694D01*
D02*
G37*
G36*
X1155290D02*
X1150884Y45288D01*
X1146478Y49694D01*
X1150884Y54100D01*
X1155290Y49694D01*
D02*
G37*
G36*
X913990D02*
X909584Y45288D01*
X905178Y49694D01*
X909584Y54100D01*
X913990Y49694D01*
D02*
G37*
G36*
X1237840Y43344D02*
X1234582Y40086D01*
X1232286D01*
X1229028Y43344D01*
X1233434Y47750D01*
X1237840Y43344D01*
D02*
G37*
G36*
X1157757Y47227D02*
X1157822Y46737D01*
X1159081Y43696D01*
X1160345Y42049D01*
X1158382Y40086D01*
X1156086D01*
X1152828Y43344D01*
X1157234Y47750D01*
X1157757Y47227D01*
D02*
G37*
G36*
X1148940Y43344D02*
X1145682Y40086D01*
X1143386D01*
X1140128Y43344D01*
X1144534Y47750D01*
X1148940Y43344D01*
D02*
G37*
G36*
X958440D02*
X955182Y40086D01*
X952886D01*
X949628Y43344D01*
X954034Y47750D01*
X958440Y43344D01*
D02*
G37*
G36*
X918440Y45244D02*
X919081Y43696D01*
X919780Y42785D01*
X917082Y40086D01*
X914786D01*
X911528Y43344D01*
X915934Y47750D01*
X918440Y45244D01*
D02*
G37*
G36*
X907640Y43344D02*
X904382Y40086D01*
X902086D01*
X899858Y42314D01*
X900919Y43696D01*
X902149Y46665D01*
X903234Y47750D01*
X907640Y43344D01*
D02*
G37*
G36*
X1370000Y-19500D02*
X547499Y-19500D01*
X547499Y60000D01*
X664250Y60000D01*
X664250Y30000D01*
X1319750Y30000D01*
X1319750Y620000D01*
X664250D01*
Y575000D01*
X547500Y575000D01*
X547500Y670500D01*
X1370000Y670500D01*
X1370000Y-19500D01*
D02*
G37*
%LPC*%
G36*
X868408Y560898D02*
X869097Y559235D01*
X869645Y556480D01*
X869645Y555076D01*
X869645Y388727D01*
X869850Y388726D01*
X869849Y84659D01*
X869849Y84659D01*
X869849Y83207D01*
X869283Y80358D01*
X868745Y79060D01*
X1088822Y79060D01*
X1088822D01*
X1090182Y79127D01*
X1092850Y79657D01*
X1095363Y80698D01*
X1097625Y82210D01*
X1098633Y83124D01*
X1098633Y83124D01*
X1099705Y84307D01*
X1101477Y86958D01*
X1102697Y89904D01*
X1103319Y93031D01*
X1103398Y94625D01*
X1103398Y388741D01*
X1103440Y388741D01*
Y546322D01*
X1103440Y546322D01*
X1103373Y547682D01*
X1102842Y550350D01*
X1101802Y552863D01*
X1100290Y555125D01*
X1099376Y556133D01*
X1099376Y556133D01*
X1098193Y557205D01*
X1095542Y558977D01*
X1092596Y560197D01*
X1089469Y560819D01*
X1087875Y560897D01*
X868408Y560898D01*
D02*
G37*
%LPD*%
G36*
X926690Y544994D02*
X922284Y540588D01*
X917878Y544994D01*
X922284Y549400D01*
X926690Y544994D01*
D02*
G37*
G36*
X930206Y541478D02*
Y540875D01*
X930111Y540154D01*
X930206Y539433D01*
Y535811D01*
X928634Y534238D01*
X924228Y538644D01*
X928634Y543050D01*
X930206Y541478D01*
D02*
G37*
G36*
X920340Y538644D02*
X915934Y534238D01*
X911528Y538644D01*
X915934Y543050D01*
X920340Y538644D01*
D02*
G37*
G36*
X926690Y532294D02*
X923369Y528974D01*
X921198D01*
X917878Y532294D01*
X922284Y536700D01*
X926690Y532294D01*
D02*
G37*
G36*
X918311Y502573D02*
X918480Y501292D01*
X918583Y501044D01*
X918480Y500796D01*
X918160Y498364D01*
X915934Y496138D01*
X911528Y500544D01*
X913757Y502774D01*
X918110D01*
X918311Y502573D01*
D02*
G37*
G36*
X913990Y494194D02*
X909584Y489788D01*
X905178Y494194D01*
X909584Y498600D01*
X913990Y494194D01*
D02*
G37*
G36*
X912548Y482936D02*
Y480052D01*
X909584Y477088D01*
X906756Y479916D01*
X906901Y481023D01*
X906646Y482963D01*
X909584Y485900D01*
X912548Y482936D01*
D02*
G37*
G36*
Y470236D02*
Y467353D01*
X909584Y464388D01*
X905178Y468794D01*
X909584Y473200D01*
X912548Y470236D01*
D02*
G37*
G36*
X1021940Y462444D02*
X1017534Y458038D01*
X1013128Y462444D01*
X1017534Y466850D01*
X1021940Y462444D01*
D02*
G37*
G36*
X1034640D02*
X1030234Y458038D01*
X1025828Y462444D01*
X1030234Y466850D01*
X1034640Y462444D01*
D02*
G37*
G36*
X1028290Y456094D02*
X1023884Y451688D01*
X1019478Y456094D01*
X1023884Y460500D01*
X1028290Y456094D01*
D02*
G37*
G36*
X1039646Y457438D02*
Y454751D01*
X1036584Y451688D01*
X1032178Y456094D01*
X1036584Y460500D01*
X1039646Y457438D01*
D02*
G37*
G36*
X1034640Y449744D02*
X1030234Y445338D01*
X1025828Y449744D01*
X1030234Y454150D01*
X1034640Y449744D01*
D02*
G37*
G36*
X1021940D02*
X1017534Y445338D01*
X1013128Y449744D01*
X1017534Y454150D01*
X1021940Y449744D01*
D02*
G37*
G36*
X1040000Y444384D02*
Y442405D01*
X1036584Y438988D01*
X1032178Y443394D01*
X1036584Y447800D01*
X1040000Y444384D01*
D02*
G37*
G36*
X1028290Y443394D02*
X1023884Y438988D01*
X1019478Y443394D01*
X1023884Y447800D01*
X1028290Y443394D01*
D02*
G37*
G36*
X1021940Y437044D02*
X1017534Y432638D01*
X1013128Y437044D01*
X1017534Y441450D01*
X1021940Y437044D01*
D02*
G37*
G36*
X1034640D02*
X1030234Y432638D01*
X1025828Y437044D01*
X1030234Y441450D01*
X1034640Y437044D01*
D02*
G37*
G36*
X1048196Y433331D02*
X1051237Y432072D01*
X1052475Y431909D01*
X1053690Y430694D01*
X1049284Y426288D01*
X1044878Y430694D01*
X1047811Y433627D01*
X1048196Y433331D01*
D02*
G37*
G36*
X1079090Y430694D02*
X1074684Y426288D01*
X1070278Y430694D01*
X1071336Y431752D01*
X1073763Y432072D01*
X1076556Y433228D01*
X1079090Y430694D01*
D02*
G37*
G36*
X1015590D02*
X1011184Y426288D01*
X1007250Y430222D01*
Y431166D01*
X1011184Y435100D01*
X1015590Y430694D01*
D02*
G37*
G36*
X1066390D02*
X1061984Y426288D01*
X1057578Y430694D01*
X1059798Y432915D01*
X1060804Y433331D01*
X1061675Y434000D01*
X1063084D01*
X1066390Y430694D01*
D02*
G37*
G36*
X1028290D02*
X1023884Y426288D01*
X1019478Y430694D01*
X1023884Y435100D01*
X1028290Y430694D01*
D02*
G37*
G36*
X1040990D02*
X1036584Y426288D01*
X1032178Y430694D01*
X1036584Y435100D01*
X1040990Y430694D01*
D02*
G37*
G36*
X992750Y426142D02*
X994510Y426374D01*
X996540Y424344D01*
X993295Y421100D01*
X990972D01*
X987728Y424344D01*
X989901Y426517D01*
X992750Y426142D01*
D02*
G37*
G36*
X983840Y424344D02*
X980595Y421100D01*
X978272D01*
X975028Y424344D01*
X976837Y426154D01*
X980013Y426572D01*
X981144Y427040D01*
X983840Y424344D01*
D02*
G37*
G36*
X971140D02*
X967895Y421100D01*
X966500D01*
Y422821D01*
X963851D01*
X962328Y424344D01*
X966484Y428500D01*
X966984D01*
X971140Y424344D01*
D02*
G37*
G36*
X1047340D02*
X1042934Y419938D01*
X1038528Y424344D01*
X1042934Y428750D01*
X1047340Y424344D01*
D02*
G37*
G36*
X1072740D02*
X1068334Y419938D01*
X1063928Y424344D01*
X1068334Y428750D01*
X1072740Y424344D01*
D02*
G37*
G36*
X1085440D02*
X1081034Y419938D01*
X1076628Y424344D01*
X1081034Y428750D01*
X1085440Y424344D01*
D02*
G37*
G36*
X1009240D02*
X1004834Y419938D01*
X1000428Y424344D01*
X1004584Y428500D01*
X1005084D01*
X1009240Y424344D01*
D02*
G37*
G36*
X1021940D02*
X1017534Y419938D01*
X1013128Y424344D01*
X1017534Y428750D01*
X1021940Y424344D01*
D02*
G37*
G36*
X1034640D02*
X1030234Y419938D01*
X1025828Y424344D01*
X1030234Y428750D01*
X1034640Y424344D01*
D02*
G37*
G36*
X1060040D02*
X1055634Y419938D01*
X1051228Y424344D01*
X1055634Y428750D01*
X1060040Y424344D01*
D02*
G37*
G36*
X1040990Y417994D02*
X1036584Y413588D01*
X1032178Y417994D01*
X1036584Y422400D01*
X1040990Y417994D01*
D02*
G37*
G36*
X1079090D02*
X1074684Y413588D01*
X1070278Y417994D01*
X1074684Y422400D01*
X1079090Y417994D01*
D02*
G37*
G36*
X1015590D02*
X1011184Y413588D01*
X1006778Y417994D01*
X1011184Y422400D01*
X1015590Y417994D01*
D02*
G37*
G36*
X1028290D02*
X1023884Y413588D01*
X1019478Y417994D01*
X1023884Y422400D01*
X1028290Y417994D01*
D02*
G37*
G36*
X1066390D02*
X1061984Y413588D01*
X1057578Y417994D01*
X1061984Y422400D01*
X1066390Y417994D01*
D02*
G37*
G36*
X1002890D02*
X998484Y413588D01*
X994078Y417994D01*
X998484Y422400D01*
X1002890Y417994D01*
D02*
G37*
G36*
X1053690D02*
X1049284Y413588D01*
X1044878Y417994D01*
X1049284Y422400D01*
X1053690Y417994D01*
D02*
G37*
G36*
X1034640Y411644D02*
X1030234Y407238D01*
X1025828Y411644D01*
X1030234Y416050D01*
X1034640Y411644D01*
D02*
G37*
G36*
X1082439Y414645D02*
X1082822Y411737D01*
X1083616Y409820D01*
X1081034Y407238D01*
X1076628Y411644D01*
X1081034Y416050D01*
X1082439Y414645D01*
D02*
G37*
G36*
X1021940Y411644D02*
X1017534Y407238D01*
X1013850Y410922D01*
Y412366D01*
X1017534Y416050D01*
X1021940Y411644D01*
D02*
G37*
G36*
X1028290Y405294D02*
X1023884Y400888D01*
X1019478Y405294D01*
X1023884Y409700D01*
X1028290Y405294D01*
D02*
G37*
G36*
X1079090D02*
X1074684Y400888D01*
X1072839Y402733D01*
X1072737Y403513D01*
X1071495Y406511D01*
X1074684Y409700D01*
X1079090Y405294D01*
D02*
G37*
G36*
X1085440Y398944D02*
X1081034Y394538D01*
X1076628Y398944D01*
X1081034Y403350D01*
X1085440Y398944D01*
D02*
G37*
G36*
X1021940D02*
X1017534Y394538D01*
X1013850Y398222D01*
Y399666D01*
X1017534Y403350D01*
X1021940Y398944D01*
D02*
G37*
G36*
X1091790Y392594D02*
X1087384Y388188D01*
X1082978Y392594D01*
X1087384Y397000D01*
X1091790Y392594D01*
D02*
G37*
G36*
X1079090D02*
X1074684Y388188D01*
X1070369Y392503D01*
X1070974Y393290D01*
X1074684Y397000D01*
X1079090Y392594D01*
D02*
G37*
G36*
X1028290D02*
X1023884Y388188D01*
X1019478Y392594D01*
X1023884Y397000D01*
X1028290Y392594D01*
D02*
G37*
G36*
X1072740Y386244D02*
X1068334Y381838D01*
X1063928Y386244D01*
X1067518Y389835D01*
X1068441Y390543D01*
X1072740Y386244D01*
D02*
G37*
G36*
X1085440D02*
X1081034Y381838D01*
X1076628Y386244D01*
X1081034Y390650D01*
X1085440Y386244D01*
D02*
G37*
G36*
X1034173Y386711D02*
X1033136Y385915D01*
X1031132Y383304D01*
X1030731Y382336D01*
X1030234Y381838D01*
X1025828Y386244D01*
X1030234Y390650D01*
X1034173Y386711D01*
D02*
G37*
G36*
X1057295Y388072D02*
X1058351Y387933D01*
X1060040Y386244D01*
X1055634Y381838D01*
X1051228Y386244D01*
X1054297Y389314D01*
X1057295Y388072D01*
D02*
G37*
G36*
X1028290Y379894D02*
X1026890Y378494D01*
X1026028Y378608D01*
X1022765Y378178D01*
X1022584Y378104D01*
X1021269D01*
X1019873Y379499D01*
X1020178Y380237D01*
X1020232Y380649D01*
X1023884Y384300D01*
X1028290Y379894D01*
D02*
G37*
G36*
X1066390D02*
X1061984Y375488D01*
X1057578Y379894D01*
X1061984Y384300D01*
X1066390Y379894D01*
D02*
G37*
G36*
X1079090D02*
X1074684Y375488D01*
X1070278Y379894D01*
X1074684Y384300D01*
X1079090Y379894D01*
D02*
G37*
G36*
X1091790D02*
X1087384Y375488D01*
X1082978Y379894D01*
X1087384Y384300D01*
X1091790Y379894D01*
D02*
G37*
G36*
X1072740Y373544D02*
X1068334Y369138D01*
X1063928Y373544D01*
X1068334Y377950D01*
X1072740Y373544D01*
D02*
G37*
G36*
X1085440D02*
X1081034Y369138D01*
X1076628Y373544D01*
X1081034Y377950D01*
X1085440Y373544D01*
D02*
G37*
G36*
X1060040D02*
X1055634Y369138D01*
X1053294Y371479D01*
X1054229Y373737D01*
X1054655Y376971D01*
X1055634Y377950D01*
X1060040Y373544D01*
D02*
G37*
G36*
X1066390Y367194D02*
X1061984Y362788D01*
X1057578Y367194D01*
X1061984Y371600D01*
X1066390Y367194D01*
D02*
G37*
G36*
X1079090D02*
X1074684Y362788D01*
X1070278Y367194D01*
X1074684Y371600D01*
X1079090Y367194D01*
D02*
G37*
G36*
X1091790D02*
X1087384Y362788D01*
X1082978Y367194D01*
X1087384Y371600D01*
X1091790Y367194D01*
D02*
G37*
G36*
X1085440Y360844D02*
X1081034Y356438D01*
X1076628Y360844D01*
X1081034Y365250D01*
X1085440Y360844D01*
D02*
G37*
G36*
X1079090Y354494D02*
X1074684Y350088D01*
X1072280Y352492D01*
X1072178Y353263D01*
X1071261Y355477D01*
X1074684Y358900D01*
X1079090Y354494D01*
D02*
G37*
G36*
X1091790Y278294D02*
X1087384Y273888D01*
X1082978Y278294D01*
X1087384Y282700D01*
X1091790Y278294D01*
D02*
G37*
G36*
X1053690Y265594D02*
X1049284Y261188D01*
X1044878Y265594D01*
X1049284Y270000D01*
X1053690Y265594D01*
D02*
G37*
G36*
X1047340Y259244D02*
X1042934Y254838D01*
X1038528Y259244D01*
X1042934Y263650D01*
X1047340Y259244D01*
D02*
G37*
G36*
X1060040D02*
X1055634Y254838D01*
X1051228Y259244D01*
X1055634Y263650D01*
X1060040Y259244D01*
D02*
G37*
G36*
X1066390Y252894D02*
X1061984Y248488D01*
X1057578Y252894D01*
X1061984Y257300D01*
X1066390Y252894D01*
D02*
G37*
G36*
X1053690D02*
X1049284Y248488D01*
X1044878Y252894D01*
X1049284Y257300D01*
X1053690Y252894D01*
D02*
G37*
G36*
X1047340Y246544D02*
X1043168Y242373D01*
X1041410Y244665D01*
X1038799Y246669D01*
X1038695Y246712D01*
X1042934Y250950D01*
X1047340Y246544D01*
D02*
G37*
G36*
X1072740D02*
X1068334Y242138D01*
X1063928Y246544D01*
X1068334Y250950D01*
X1072740Y246544D01*
D02*
G37*
G36*
X1060040D02*
X1055634Y242138D01*
X1051228Y246544D01*
X1055634Y250950D01*
X1060040Y246544D01*
D02*
G37*
G36*
X1066390Y240194D02*
X1061984Y235788D01*
X1057578Y240194D01*
X1061984Y244600D01*
X1066390Y240194D01*
D02*
G37*
G36*
X1079090D02*
X1074684Y235788D01*
X1070278Y240194D01*
X1074684Y244600D01*
X1079090Y240194D01*
D02*
G37*
G36*
X1091790D02*
X1087384Y235788D01*
X1082978Y240194D01*
X1087384Y244600D01*
X1091790Y240194D01*
D02*
G37*
G36*
X977490D02*
X973084Y235788D01*
X968678Y240194D01*
X973084Y244600D01*
X977490Y240194D01*
D02*
G37*
G36*
X1053690D02*
X1049284Y235788D01*
X1044878Y240194D01*
X1049284Y244600D01*
X1053690Y240194D01*
D02*
G37*
G36*
X1072740Y233844D02*
X1068334Y229438D01*
X1063928Y233844D01*
X1068334Y238250D01*
X1072740Y233844D01*
D02*
G37*
G36*
X1085440D02*
X1081034Y229438D01*
X1076628Y233844D01*
X1081034Y238250D01*
X1085440Y233844D01*
D02*
G37*
G36*
X1060040D02*
X1055634Y229438D01*
X1051228Y233844D01*
X1055634Y238250D01*
X1060040Y233844D01*
D02*
G37*
G36*
X1079090Y227494D02*
X1074684Y223088D01*
X1070278Y227494D01*
X1074684Y231900D01*
X1079090Y227494D01*
D02*
G37*
G36*
X1091790D02*
X1087384Y223088D01*
X1082978Y227494D01*
X1087384Y231900D01*
X1091790Y227494D01*
D02*
G37*
G36*
X1066390D02*
X1061984Y223088D01*
X1057578Y227494D01*
X1061984Y231900D01*
X1066390Y227494D01*
D02*
G37*
G36*
X1015590D02*
X1011184Y223088D01*
X1006778Y227494D01*
X1011184Y231900D01*
X1015590Y227494D01*
D02*
G37*
G36*
X1072740Y221144D02*
X1068334Y216738D01*
X1063928Y221144D01*
X1068334Y225550D01*
X1072740Y221144D01*
D02*
G37*
G36*
X1085440D02*
X1081034Y216738D01*
X1076628Y221144D01*
X1081034Y225550D01*
X1085440Y221144D01*
D02*
G37*
G36*
X1009240D02*
X1004834Y216738D01*
X1000428Y221144D01*
X1004834Y225550D01*
X1009240Y221144D01*
D02*
G37*
G36*
X1029231Y223572D02*
X1032495Y223142D01*
X1032625Y223159D01*
X1034640Y221144D01*
X1030234Y216738D01*
X1025828Y221144D01*
X1028541Y223858D01*
X1029231Y223572D01*
D02*
G37*
G36*
X1021940Y221144D02*
X1017534Y216738D01*
X1013128Y221144D01*
X1017534Y225550D01*
X1021940Y221144D01*
D02*
G37*
G36*
X1091790Y214794D02*
X1087384Y210388D01*
X1082978Y214794D01*
X1087384Y219200D01*
X1091790Y214794D01*
D02*
G37*
G36*
X1079090D02*
X1074684Y210388D01*
X1070278Y214794D01*
X1074684Y219200D01*
X1079090Y214794D01*
D02*
G37*
G36*
X1015590D02*
X1011184Y210388D01*
X1006778Y214794D01*
X1011184Y219200D01*
X1015590Y214794D01*
D02*
G37*
G36*
X977490D02*
X973084Y210388D01*
X972599Y210873D01*
X972483Y211755D01*
X971223Y214795D01*
X970119Y216235D01*
X973084Y219200D01*
X977490Y214794D01*
D02*
G37*
G36*
X1002890D02*
X998484Y210388D01*
X994078Y214794D01*
X998484Y219200D01*
X1002890Y214794D01*
D02*
G37*
G36*
X1028290D02*
X1023884Y210388D01*
X1019478Y214794D01*
X1023884Y219200D01*
X1028290Y214794D01*
D02*
G37*
G36*
X1085440Y208444D02*
X1081034Y204038D01*
X1076628Y208444D01*
X1081034Y212850D01*
X1085440Y208444D01*
D02*
G37*
G36*
X1072740D02*
X1068334Y204038D01*
X1063928Y208444D01*
X1068334Y212850D01*
X1072740Y208444D01*
D02*
G37*
G36*
X1021940D02*
X1017534Y204038D01*
X1013128Y208444D01*
X1017534Y212850D01*
X1021940Y208444D01*
D02*
G37*
G36*
X983840D02*
X979434Y204038D01*
X975028Y208444D01*
X979434Y212850D01*
X983840Y208444D01*
D02*
G37*
G36*
X1034640D02*
X1030234Y204038D01*
X1025828Y208444D01*
X1030234Y212850D01*
X1034640Y208444D01*
D02*
G37*
G36*
X996540D02*
X992134Y204038D01*
X987728Y208444D01*
X992134Y212850D01*
X996540Y208444D01*
D02*
G37*
G36*
X1009240D02*
X1004834Y204038D01*
X1000428Y208444D01*
X1004834Y212850D01*
X1009240Y208444D01*
D02*
G37*
G36*
X1091790Y202094D02*
X1087968Y198272D01*
X1086800D01*
X1082978Y202094D01*
X1087384Y206500D01*
X1091790Y202094D01*
D02*
G37*
G36*
X1079090D02*
X1075268Y198272D01*
X1074100D01*
X1070278Y202094D01*
X1074684Y206500D01*
X1079090Y202094D01*
D02*
G37*
G36*
X1028290D02*
X1023884Y197688D01*
X1019478Y202094D01*
X1023884Y206500D01*
X1028290Y202094D01*
D02*
G37*
G36*
X977490D02*
X973084Y197688D01*
X970078Y200695D01*
X971223Y202188D01*
X972483Y205228D01*
X972584Y206001D01*
X973084Y206500D01*
X977490Y202094D01*
D02*
G37*
G36*
X948000Y206184D02*
X948126Y205228D01*
X949386Y202188D01*
X950600Y200605D01*
X947684Y197688D01*
X943278Y202094D01*
X947684Y206500D01*
X948000Y206184D01*
D02*
G37*
G36*
X1040990Y202094D02*
X1036584Y197688D01*
X1032178Y202094D01*
X1036584Y206500D01*
X1040990Y202094D01*
D02*
G37*
G36*
X990190D02*
X985784Y197688D01*
X981378Y202094D01*
X985784Y206500D01*
X990190Y202094D01*
D02*
G37*
G36*
X1002890D02*
X998484Y197688D01*
X994078Y202094D01*
X998484Y206500D01*
X1002890Y202094D01*
D02*
G37*
G36*
X1015590D02*
X1011184Y197688D01*
X1006778Y202094D01*
X1011184Y206500D01*
X1015590Y202094D01*
D02*
G37*
G36*
X1034640Y195744D02*
X1030234Y191338D01*
X1025828Y195744D01*
X1030234Y200150D01*
X1034640Y195744D01*
D02*
G37*
G36*
X907640D02*
X903234Y191338D01*
X898828Y195744D01*
X901216Y198133D01*
X903835Y198477D01*
X904593Y198791D01*
X907640Y195744D01*
D02*
G37*
G36*
X983840D02*
X979434Y191338D01*
X975028Y195744D01*
X979434Y200150D01*
X983840Y195744D01*
D02*
G37*
G36*
X945740D02*
X941334Y191338D01*
X939436Y193236D01*
X938915Y193915D01*
X938236Y194436D01*
X936928Y195744D01*
X941334Y200150D01*
X945740Y195744D01*
D02*
G37*
G36*
X1021940D02*
X1017534Y191338D01*
X1013128Y195744D01*
X1017534Y200150D01*
X1021940Y195744D01*
D02*
G37*
G36*
X996540D02*
X992134Y191338D01*
X987728Y195744D01*
X992134Y200150D01*
X996540Y195744D01*
D02*
G37*
G36*
X1009240D02*
X1004834Y191338D01*
X1000428Y195744D01*
X1004834Y200150D01*
X1009240Y195744D01*
D02*
G37*
G36*
X990190Y189394D02*
X985784Y184988D01*
X981378Y189394D01*
X985784Y193800D01*
X990190Y189394D01*
D02*
G37*
G36*
X1040990D02*
X1036584Y184988D01*
X1032178Y189394D01*
X1036584Y193800D01*
X1040990Y189394D01*
D02*
G37*
G36*
X913990D02*
X909584Y184988D01*
X907923Y186650D01*
Y189935D01*
X905719D01*
X909584Y193800D01*
X913990Y189394D01*
D02*
G37*
G36*
X1015590D02*
X1011184Y184988D01*
X1006778Y189394D01*
X1011184Y193800D01*
X1015590Y189394D01*
D02*
G37*
G36*
X1028290D02*
X1023884Y184988D01*
X1019478Y189394D01*
X1023884Y193800D01*
X1028290Y189394D01*
D02*
G37*
G36*
X1002890D02*
X998484Y184988D01*
X994078Y189394D01*
X998484Y193800D01*
X1002890Y189394D01*
D02*
G37*
G36*
X983840Y183044D02*
X979434Y178638D01*
X975028Y183044D01*
X979434Y187450D01*
X983840Y183044D01*
D02*
G37*
G36*
X996540D02*
X992134Y178638D01*
X987728Y183044D01*
X992134Y187450D01*
X996540Y183044D01*
D02*
G37*
G36*
X1047340D02*
X1042934Y178638D01*
X1038528Y183044D01*
X1042934Y187450D01*
X1047340Y183044D01*
D02*
G37*
G36*
X917507Y185877D02*
X917392Y185000D01*
X917822Y181737D01*
X918176Y180881D01*
X915934Y178638D01*
X911528Y183044D01*
X915934Y187450D01*
X917507Y185877D01*
D02*
G37*
G36*
X1009240Y183044D02*
X1004834Y178638D01*
X1000428Y183044D01*
X1004834Y187450D01*
X1009240Y183044D01*
D02*
G37*
G36*
X1021940D02*
X1017534Y178638D01*
X1013128Y183044D01*
X1017534Y187450D01*
X1021940Y183044D01*
D02*
G37*
G36*
X1034640D02*
X1030234Y178638D01*
X1025828Y183044D01*
X1030234Y187450D01*
X1034640Y183044D01*
D02*
G37*
G36*
X990190Y176694D02*
X985975Y172479D01*
X985535Y172537D01*
X981378Y176694D01*
X985784Y181100D01*
X990190Y176694D01*
D02*
G37*
G36*
X1002890D02*
X998484Y172288D01*
X994078Y176694D01*
X998484Y181100D01*
X1002890Y176694D01*
D02*
G37*
G36*
X1053690D02*
X1049284Y172288D01*
X1044878Y176694D01*
X1049284Y181100D01*
X1053690Y176694D01*
D02*
G37*
G36*
X948369Y180415D02*
X949081Y178696D01*
X951085Y176085D01*
X951309Y175913D01*
X947684Y172288D01*
X943278Y176694D01*
X947684Y181100D01*
X948369Y180415D01*
D02*
G37*
G36*
X977490Y176694D02*
X973084Y172288D01*
X969077Y176296D01*
X970919Y178696D01*
X971088Y179104D01*
X973084Y181100D01*
X977490Y176694D01*
D02*
G37*
G36*
X1015590D02*
X1011184Y172288D01*
X1006778Y176694D01*
X1011184Y181100D01*
X1015590Y176694D01*
D02*
G37*
G36*
X1066390D02*
X1061984Y172288D01*
X1057578Y176694D01*
X1061984Y181100D01*
X1066390Y176694D01*
D02*
G37*
G36*
X1028290D02*
X1023884Y172288D01*
X1019478Y176694D01*
X1023884Y181100D01*
X1028290Y176694D01*
D02*
G37*
G36*
X1040990D02*
X1036584Y172288D01*
X1032178Y176694D01*
X1036584Y181100D01*
X1040990Y176694D01*
D02*
G37*
G36*
X913990D02*
X909584Y172288D01*
X907923Y173950D01*
Y179439D01*
X909584Y181100D01*
X913990Y176694D01*
D02*
G37*
G36*
X920340Y170344D02*
X915934Y165938D01*
X911528Y170344D01*
X915934Y174750D01*
X920340Y170344D01*
D02*
G37*
G36*
X1047340D02*
X1042934Y165938D01*
X1038528Y170344D01*
X1042934Y174750D01*
X1047340Y170344D01*
D02*
G37*
G36*
X945740D02*
X941334Y165938D01*
X940755Y166517D01*
X938915Y168915D01*
X936982Y170399D01*
X941334Y174750D01*
X945740Y170344D01*
D02*
G37*
G36*
X1009240D02*
X1004834Y165938D01*
X1000428Y170344D01*
X1004834Y174750D01*
X1009240Y170344D01*
D02*
G37*
G36*
X1021940D02*
X1017534Y165938D01*
X1013128Y170344D01*
X1017534Y174750D01*
X1021940Y170344D01*
D02*
G37*
G36*
X1034640D02*
X1030234Y165938D01*
X1025828Y170344D01*
X1030234Y174750D01*
X1034640Y170344D01*
D02*
G37*
G36*
X1060040D02*
X1055634Y165938D01*
X1051228Y170344D01*
X1055634Y174750D01*
X1060040Y170344D01*
D02*
G37*
G36*
X1040990Y163994D02*
X1036584Y159588D01*
X1032178Y163994D01*
X1036584Y168400D01*
X1040990Y163994D01*
D02*
G37*
G36*
X913990D02*
X909584Y159588D01*
X907923Y161250D01*
Y166739D01*
X909584Y168400D01*
X913990Y163994D01*
D02*
G37*
G36*
X1015590D02*
X1011184Y159588D01*
X1006778Y163994D01*
X1011184Y168400D01*
X1015590Y163994D01*
D02*
G37*
G36*
X1028290D02*
X1023884Y159588D01*
X1019478Y163994D01*
X1023884Y168400D01*
X1028290Y163994D01*
D02*
G37*
G36*
X1066390D02*
X1061984Y159588D01*
X1057578Y163994D01*
X1061984Y168400D01*
X1066390Y163994D01*
D02*
G37*
G36*
X1002890D02*
X998484Y159588D01*
X997538Y160535D01*
X997178Y163263D01*
X996056Y165972D01*
X998484Y168400D01*
X1002890Y163994D01*
D02*
G37*
G36*
X1053690D02*
X1049284Y159588D01*
X1044878Y163994D01*
X1049284Y168400D01*
X1053690Y163994D01*
D02*
G37*
G36*
X1034640Y157644D02*
X1030234Y153238D01*
X1025828Y157644D01*
X1030234Y162050D01*
X1034640Y157644D01*
D02*
G37*
G36*
X1060040D02*
X1055634Y153238D01*
X1051228Y157644D01*
X1055634Y162050D01*
X1060040Y157644D01*
D02*
G37*
G36*
X1021940D02*
X1017534Y153238D01*
X1013128Y157644D01*
X1017534Y162050D01*
X1021940Y157644D01*
D02*
G37*
G36*
X1009240D02*
X1004834Y153238D01*
X1000428Y157644D01*
X1004834Y162050D01*
X1009240Y157644D01*
D02*
G37*
G36*
X917461Y160523D02*
X917392Y160000D01*
X917822Y156737D01*
X918293Y155598D01*
X915934Y153238D01*
X911528Y157644D01*
X915934Y162050D01*
X917461Y160523D01*
D02*
G37*
G36*
X1047340Y157644D02*
X1042934Y153238D01*
X1038528Y157644D01*
X1042934Y162050D01*
X1047340Y157644D01*
D02*
G37*
G36*
X1028290Y151294D02*
X1023884Y146888D01*
X1019478Y151294D01*
X1023884Y155700D01*
X1028290Y151294D01*
D02*
G37*
G36*
X973369Y155415D02*
X974081Y153696D01*
X976085Y151085D01*
X976761Y150566D01*
X973084Y146888D01*
X968899Y151073D01*
X968915Y151085D01*
X970388Y153005D01*
X973084Y155700D01*
X973369Y155415D01*
D02*
G37*
G36*
X948652Y154732D02*
X949081Y153696D01*
X951085Y151085D01*
X951535Y150739D01*
X947684Y146888D01*
X943278Y151294D01*
X947684Y155700D01*
X948652Y154732D01*
D02*
G37*
G36*
X1053690Y151294D02*
X1049284Y146888D01*
X1044878Y151294D01*
X1049284Y155700D01*
X1053690Y151294D01*
D02*
G37*
G36*
X1040990D02*
X1036584Y146888D01*
X1032178Y151294D01*
X1036584Y155700D01*
X1040990Y151294D01*
D02*
G37*
G36*
X913990D02*
X909584Y146888D01*
X907923Y148550D01*
Y154039D01*
X909584Y155700D01*
X913990Y151294D01*
D02*
G37*
G36*
X1066390D02*
X1061984Y146888D01*
X1057578Y151294D01*
X1061984Y155700D01*
X1066390Y151294D01*
D02*
G37*
G36*
X1002890D02*
X998484Y146888D01*
X994078Y151294D01*
X998484Y155700D01*
X1002890Y151294D01*
D02*
G37*
G36*
X1015590D02*
X1011184Y146888D01*
X1006778Y151294D01*
X1011184Y155700D01*
X1015590Y151294D01*
D02*
G37*
G36*
X930000Y147392D02*
X930523Y147461D01*
X933040Y144944D01*
X930621Y142526D01*
X930000Y142608D01*
X926964Y142208D01*
X924228Y144944D01*
X927062Y147779D01*
X930000Y147392D01*
D02*
G37*
G36*
X980415Y148369D02*
X983840Y144944D01*
X981328Y142433D01*
X980000Y142608D01*
X977671Y142301D01*
X975028Y144944D01*
X979027Y148944D01*
X980415Y148369D01*
D02*
G37*
G36*
X1009240Y144944D02*
X1006288Y141992D01*
X1004232Y141141D01*
X1000428Y144944D01*
X1004834Y149350D01*
X1009240Y144944D01*
D02*
G37*
G36*
X1047340D02*
X1042934Y140538D01*
X1038528Y144944D01*
X1042934Y149350D01*
X1047340Y144944D01*
D02*
G37*
G36*
X954732Y148652D02*
X958440Y144944D01*
X954034Y140538D01*
X949628Y144944D01*
X953745Y149061D01*
X954732Y148652D01*
D02*
G37*
G36*
X920340Y144944D02*
X915934Y140538D01*
X911528Y144944D01*
X915934Y149350D01*
X920340Y144944D01*
D02*
G37*
G36*
X971140D02*
X966734Y140538D01*
X962328Y144944D01*
X966734Y149350D01*
X971140Y144944D01*
D02*
G37*
G36*
X945740D02*
X941334Y140538D01*
X936928Y144944D01*
X941334Y149350D01*
X945740Y144944D01*
D02*
G37*
G36*
X1021940D02*
X1017534Y140538D01*
X1013128Y144944D01*
X1017534Y149350D01*
X1021940Y144944D01*
D02*
G37*
G36*
X1034640D02*
X1030234Y140538D01*
X1025828Y144944D01*
X1030234Y149350D01*
X1034640Y144944D01*
D02*
G37*
G36*
X996540D02*
X992134Y140538D01*
X987728Y144944D01*
X992134Y149350D01*
X996540Y144944D01*
D02*
G37*
G36*
X1060040D02*
X1055634Y140538D01*
X1051228Y144944D01*
X1055634Y149350D01*
X1060040Y144944D01*
D02*
G37*
G36*
X1001925Y139559D02*
X1001085Y138915D01*
X999081Y136304D01*
X998287Y134385D01*
X994078Y138594D01*
X998484Y143000D01*
X1001925Y139559D01*
D02*
G37*
G36*
X1040990Y138594D02*
X1036584Y134188D01*
X1032178Y138594D01*
X1036584Y143000D01*
X1040990Y138594D01*
D02*
G37*
G36*
X964790D02*
X960384Y134188D01*
X955978Y138594D01*
X960384Y143000D01*
X964790Y138594D01*
D02*
G37*
G36*
X913990D02*
X909584Y134188D01*
X907923Y135850D01*
Y141339D01*
X909584Y143000D01*
X913990Y138594D01*
D02*
G37*
G36*
X952090D02*
X947684Y134188D01*
X943278Y138594D01*
X947684Y143000D01*
X952090Y138594D01*
D02*
G37*
G36*
X1053690D02*
X1049284Y134188D01*
X1044878Y138594D01*
X1049284Y143000D01*
X1053690Y138594D01*
D02*
G37*
G36*
X1064531Y140453D02*
X1064142Y137500D01*
X1064276Y136481D01*
X1061984Y134188D01*
X1057578Y138594D01*
X1061984Y143000D01*
X1064531Y140453D01*
D02*
G37*
G36*
X1028290Y138594D02*
X1023884Y134188D01*
X1019478Y138594D01*
X1023884Y143000D01*
X1028290Y138594D01*
D02*
G37*
G36*
X1047328Y132256D02*
X1046737Y132178D01*
X1043696Y130919D01*
X1041522Y129250D01*
X1038528Y132244D01*
X1042934Y136650D01*
X1047328Y132256D01*
D02*
G37*
G36*
X958440Y132244D02*
X954034Y127838D01*
X949628Y132244D01*
X954034Y136650D01*
X958440Y132244D01*
D02*
G37*
G36*
X1034640D02*
X1030234Y127838D01*
X1025828Y132244D01*
X1030234Y136650D01*
X1034640Y132244D01*
D02*
G37*
G36*
X918261Y134323D02*
X917822Y133263D01*
X917392Y130000D01*
X917474Y129378D01*
X915934Y127838D01*
X911528Y132244D01*
X915934Y136650D01*
X918261Y134323D01*
D02*
G37*
G36*
X952090Y125894D02*
X947684Y121488D01*
X943278Y125894D01*
X947684Y130300D01*
X952090Y125894D01*
D02*
G37*
G36*
X1028290D02*
X1023884Y121488D01*
X1021141Y124232D01*
X1022178Y126737D01*
X1022460Y128876D01*
X1023884Y130300D01*
X1028290Y125894D01*
D02*
G37*
G36*
X1091790D02*
X1087384Y121488D01*
X1082978Y125894D01*
X1087384Y130300D01*
X1091790Y125894D01*
D02*
G37*
G36*
X964790D02*
X960384Y121488D01*
X955978Y125894D01*
X960384Y130300D01*
X964790Y125894D01*
D02*
G37*
G36*
X913990D02*
X909584Y121488D01*
X905178Y125894D01*
X907719Y128435D01*
X907923D01*
Y128639D01*
X909584Y130300D01*
X913990Y125894D01*
D02*
G37*
G36*
X1039732Y127152D02*
X1039081Y126304D01*
X1037822Y123263D01*
X1037740Y122645D01*
X1036584Y121488D01*
X1032178Y125894D01*
X1036584Y130300D01*
X1039732Y127152D01*
D02*
G37*
G36*
X1085440Y119544D02*
X1084931Y119035D01*
X1083201Y118620D01*
X1079207Y116966D01*
X1076628Y119544D01*
X1081034Y123950D01*
X1085440Y119544D01*
D02*
G37*
G36*
X1072740D02*
X1068334Y115138D01*
X1063928Y119544D01*
X1068334Y123950D01*
X1072740Y119544D01*
D02*
G37*
G36*
X945740D02*
X941334Y115138D01*
X936928Y119544D01*
X936995Y119612D01*
X938915Y121085D01*
X940388Y123005D01*
X941334Y123950D01*
X945740Y119544D01*
D02*
G37*
G36*
X996540D02*
X992134Y115138D01*
X987728Y119544D01*
X992134Y123950D01*
X996540Y119544D01*
D02*
G37*
G36*
X958440D02*
X954034Y115138D01*
X949628Y119544D01*
X954034Y123950D01*
X958440Y119544D01*
D02*
G37*
G36*
X971140D02*
X966734Y115138D01*
X962328Y119544D01*
X966734Y123950D01*
X971140Y119544D01*
D02*
G37*
G36*
X1034640D02*
X1030234Y115138D01*
X1025828Y119544D01*
X1030234Y123950D01*
X1034640Y119544D01*
D02*
G37*
G36*
X907640D02*
X903234Y115138D01*
X898828Y119544D01*
X903234Y123950D01*
X907640Y119544D01*
D02*
G37*
G36*
X920340D02*
X915934Y115138D01*
X911528Y119544D01*
X915934Y123950D01*
X920340Y119544D01*
D02*
G37*
G36*
X939390Y113194D02*
X936762Y110567D01*
X936304Y110919D01*
X933263Y112178D01*
X931341Y112431D01*
X930578Y113194D01*
X934984Y117600D01*
X939390Y113194D01*
D02*
G37*
G36*
X901290D02*
X897838Y109742D01*
X896304Y110919D01*
X893657Y112015D01*
X892478Y113194D01*
X896884Y117600D01*
X901290Y113194D01*
D02*
G37*
G36*
X926690D02*
X924922Y111427D01*
X923696Y110919D01*
X921692Y109381D01*
X917878Y113194D01*
X922284Y117600D01*
X926690Y113194D01*
D02*
G37*
G36*
X1015590D02*
X1011184Y108788D01*
X1006778Y113194D01*
X1011124Y117540D01*
X1011230Y117554D01*
X1015590Y113194D01*
D02*
G37*
G36*
X990190D02*
X985784Y108788D01*
X981378Y113194D01*
X985784Y117600D01*
X990190Y113194D01*
D02*
G37*
G36*
X952090D02*
X947684Y108788D01*
X943278Y113194D01*
X947684Y117600D01*
X952090Y113194D01*
D02*
G37*
G36*
X964790D02*
X960384Y108788D01*
X955978Y113194D01*
X960384Y117600D01*
X964790Y113194D01*
D02*
G37*
G36*
X1002890D02*
X998484Y108788D01*
X994078Y113194D01*
X998484Y117600D01*
X1002890Y113194D01*
D02*
G37*
G36*
X1028290D02*
X1023884Y108788D01*
X1019478Y113194D01*
X1023884Y117600D01*
X1028290Y113194D01*
D02*
G37*
G36*
X1038086Y116097D02*
X1039081Y113696D01*
X1040128Y112332D01*
X1036584Y108788D01*
X1032178Y113194D01*
X1036584Y117600D01*
X1038086Y116097D01*
D02*
G37*
G36*
X913990Y113194D02*
X909584Y108788D01*
X905178Y113194D01*
X909584Y117600D01*
X913990Y113194D01*
D02*
G37*
G36*
X996540Y106844D02*
X992134Y102438D01*
X987728Y106844D01*
X992134Y111250D01*
X996540Y106844D01*
D02*
G37*
G36*
X958440D02*
X954034Y102438D01*
X949628Y106844D01*
X954034Y111250D01*
X958440Y106844D01*
D02*
G37*
G36*
X1009240D02*
X1004834Y102438D01*
X1000428Y106844D01*
X1004834Y111250D01*
X1009240Y106844D01*
D02*
G37*
G36*
X1021940D02*
X1017534Y102438D01*
X1013128Y106844D01*
X1017534Y111250D01*
X1021940Y106844D01*
D02*
G37*
G36*
X1034640D02*
X1030234Y102438D01*
X1025828Y106844D01*
X1030234Y111250D01*
X1034640Y106844D01*
D02*
G37*
G36*
X907640D02*
X903234Y102438D01*
X902015Y103657D01*
X900919Y106304D01*
X899776Y107793D01*
X903234Y111250D01*
X907640Y106844D01*
D02*
G37*
G36*
X919862Y107322D02*
X919081Y106304D01*
X918573Y105078D01*
X915934Y102438D01*
X911528Y106844D01*
X915934Y111250D01*
X919862Y107322D01*
D02*
G37*
G36*
X913990Y100494D02*
X909922Y96427D01*
X909444Y96228D01*
X905178Y100494D01*
X909584Y104900D01*
X913990Y100494D01*
D02*
G37*
G36*
X1002890D02*
X998484Y96088D01*
X994078Y100494D01*
X998484Y104900D01*
X1002890Y100494D01*
D02*
G37*
G36*
X952090D02*
X947684Y96088D01*
X943278Y100494D01*
X947684Y104900D01*
X952090Y100494D01*
D02*
G37*
G36*
X1028290D02*
X1023884Y96088D01*
X1019478Y100494D01*
X1023884Y104900D01*
X1028290Y100494D01*
D02*
G37*
G36*
X990190D02*
X985784Y96088D01*
X982522Y99350D01*
X982608Y100000D01*
X982407Y101524D01*
X985784Y104900D01*
X990190Y100494D01*
D02*
G37*
G36*
X1015590D02*
X1011184Y96088D01*
X1006778Y100494D01*
X1011184Y104900D01*
X1015590Y100494D01*
D02*
G37*
G36*
X958440Y94144D02*
X954034Y89738D01*
X949628Y94144D01*
X954034Y98550D01*
X958440Y94144D01*
D02*
G37*
G36*
X1009240D02*
X1004834Y89738D01*
X1000428Y94144D01*
X1004834Y98550D01*
X1009240Y94144D01*
D02*
G37*
G36*
X996540D02*
X992134Y89738D01*
X987728Y94144D01*
X992134Y98550D01*
X996540Y94144D01*
D02*
G37*
G36*
X1034640D02*
X1030234Y89738D01*
X1025828Y94144D01*
X1030234Y98550D01*
X1034640Y94144D01*
D02*
G37*
G36*
X1021940D02*
X1017534Y89738D01*
X1013128Y94144D01*
X1017534Y98550D01*
X1021940Y94144D01*
D02*
G37*
D11*
X1297500Y335000D02*
D03*
Y365000D02*
D03*
X888923Y144185D02*
D03*
Y174185D02*
D03*
X1085500Y152522D02*
D03*
Y182523D02*
D03*
X1297500Y442500D02*
D03*
Y472500D02*
D03*
X889360Y517500D02*
D03*
Y547500D02*
D03*
X1085414Y300000D02*
D03*
Y330000D02*
D03*
D12*
X1075000Y50000D02*
D03*
X1105000D02*
D03*
X850000Y49750D02*
D03*
X820000D02*
D03*
X627500Y547157D02*
D03*
X597500D02*
D03*
X612500Y97500D02*
D03*
X582500D02*
D03*
X1025000Y50000D02*
D03*
X995000D02*
D03*
X836750Y485850D02*
D03*
Y155850D02*
D03*
D13*
X892200Y264750D02*
D03*
X882800D02*
D03*
X1000950Y400250D02*
D03*
X991550D02*
D03*
X998050Y580750D02*
D03*
X1007450D02*
D03*
X977646Y477774D02*
D03*
X968246D02*
D03*
X934848Y477520D02*
D03*
X925448D02*
D03*
X1029082Y481076D02*
D03*
X1019682D02*
D03*
X726850Y579750D02*
D03*
X736250D02*
D03*
X971600Y408000D02*
D03*
X981000D02*
D03*
D14*
X1002028Y278000D02*
D03*
X1010028Y286000D02*
D03*
X970028Y318000D02*
D03*
X1034028Y366000D02*
D03*
Y358000D02*
D03*
Y350000D02*
D03*
Y342000D02*
D03*
Y334000D02*
D03*
Y326000D02*
D03*
Y318000D02*
D03*
Y310000D02*
D03*
Y302000D02*
D03*
Y294000D02*
D03*
Y286000D02*
D03*
Y278000D02*
D03*
X1026028Y366000D02*
D03*
Y358000D02*
D03*
Y350000D02*
D03*
Y342000D02*
D03*
Y334000D02*
D03*
Y326000D02*
D03*
Y318000D02*
D03*
Y310000D02*
D03*
Y302000D02*
D03*
Y294000D02*
D03*
Y286000D02*
D03*
Y278000D02*
D03*
X1018028Y366000D02*
D03*
Y358000D02*
D03*
Y350000D02*
D03*
Y342000D02*
D03*
Y334000D02*
D03*
Y326000D02*
D03*
Y318000D02*
D03*
Y310000D02*
D03*
Y302000D02*
D03*
Y294000D02*
D03*
Y286000D02*
D03*
Y278000D02*
D03*
X1010028Y366000D02*
D03*
Y358000D02*
D03*
Y350000D02*
D03*
Y342000D02*
D03*
Y334000D02*
D03*
Y326000D02*
D03*
Y318000D02*
D03*
Y310000D02*
D03*
Y302000D02*
D03*
Y294000D02*
D03*
Y278000D02*
D03*
X1002028Y366000D02*
D03*
Y358000D02*
D03*
Y350000D02*
D03*
Y342000D02*
D03*
Y334000D02*
D03*
Y326000D02*
D03*
Y318000D02*
D03*
Y310000D02*
D03*
Y302000D02*
D03*
Y294000D02*
D03*
Y286000D02*
D03*
X994028Y366000D02*
D03*
Y358000D02*
D03*
Y350000D02*
D03*
Y342000D02*
D03*
Y334000D02*
D03*
Y326000D02*
D03*
Y318000D02*
D03*
Y310000D02*
D03*
Y302000D02*
D03*
Y294000D02*
D03*
Y286000D02*
D03*
Y278000D02*
D03*
X986028Y366000D02*
D03*
Y358000D02*
D03*
Y350000D02*
D03*
Y342000D02*
D03*
Y334000D02*
D03*
Y326000D02*
D03*
Y318000D02*
D03*
Y310000D02*
D03*
Y302000D02*
D03*
Y294000D02*
D03*
Y286000D02*
D03*
Y278000D02*
D03*
X978028Y366000D02*
D03*
Y358000D02*
D03*
Y350000D02*
D03*
Y342000D02*
D03*
Y334000D02*
D03*
Y326000D02*
D03*
Y318000D02*
D03*
Y310000D02*
D03*
Y302000D02*
D03*
Y294000D02*
D03*
Y286000D02*
D03*
Y278000D02*
D03*
X970028Y366000D02*
D03*
Y358000D02*
D03*
Y350000D02*
D03*
Y342000D02*
D03*
Y334000D02*
D03*
Y326000D02*
D03*
Y310000D02*
D03*
Y302000D02*
D03*
Y294000D02*
D03*
Y286000D02*
D03*
Y278000D02*
D03*
X962028Y366000D02*
D03*
Y358000D02*
D03*
Y350000D02*
D03*
Y342000D02*
D03*
Y334000D02*
D03*
Y326000D02*
D03*
Y318000D02*
D03*
Y310000D02*
D03*
Y302000D02*
D03*
Y294000D02*
D03*
Y286000D02*
D03*
Y278000D02*
D03*
X954028Y366000D02*
D03*
Y358000D02*
D03*
Y350000D02*
D03*
Y342000D02*
D03*
Y334000D02*
D03*
Y326000D02*
D03*
Y318000D02*
D03*
Y310000D02*
D03*
Y302000D02*
D03*
Y294000D02*
D03*
Y286000D02*
D03*
Y278000D02*
D03*
X946028Y366000D02*
D03*
Y358000D02*
D03*
Y350000D02*
D03*
Y342000D02*
D03*
Y334000D02*
D03*
Y326000D02*
D03*
Y318000D02*
D03*
Y310000D02*
D03*
Y302000D02*
D03*
Y294000D02*
D03*
Y286000D02*
D03*
Y278000D02*
D03*
D15*
X933750Y293025D02*
D03*
Y302425D02*
D03*
Y274000D02*
D03*
Y283400D02*
D03*
X1023250Y254750D02*
D03*
Y245350D02*
D03*
X1072896Y499744D02*
D03*
Y509144D02*
D03*
Y490094D02*
D03*
Y480694D02*
D03*
X1293908Y167688D02*
D03*
Y177088D02*
D03*
X1306608Y167688D02*
D03*
Y177088D02*
D03*
X1293908Y276068D02*
D03*
Y285468D02*
D03*
Y220440D02*
D03*
Y211040D02*
D03*
X1306608D02*
D03*
Y220440D02*
D03*
X1293908Y254392D02*
D03*
Y263792D02*
D03*
Y242116D02*
D03*
Y232716D02*
D03*
X1306608Y242116D02*
D03*
Y232716D02*
D03*
X980186Y495934D02*
D03*
Y505334D02*
D03*
X1293908Y189364D02*
D03*
Y198764D02*
D03*
X1306608Y189364D02*
D03*
Y198764D02*
D03*
D16*
X620750Y527750D02*
D03*
X680500D02*
D03*
X660500D02*
D03*
X700500D02*
D03*
X780500D02*
D03*
X600500Y527500D02*
D03*
X740500Y527750D02*
D03*
X720500D02*
D03*
X760500D02*
D03*
X640500D02*
D03*
D17*
X832250Y200350D02*
D03*
Y180350D02*
D03*
Y263350D02*
D03*
Y342750D02*
D03*
Y316283D02*
D03*
Y422100D02*
D03*
Y452350D02*
D03*
Y289803D02*
D03*
X929000Y391500D02*
D03*
X914000D02*
D03*
D18*
X910950Y289350D02*
D03*
X898250D02*
D03*
X885550D02*
D03*
Y321150D02*
D03*
X898250D02*
D03*
X910950D02*
D03*
D19*
X892500Y336750D02*
D03*
Y345750D02*
D03*
X904000Y336750D02*
D03*
Y345750D02*
D03*
X989250Y552392D02*
D03*
Y543392D02*
D03*
X999250Y552392D02*
D03*
Y543392D02*
D03*
X1312418Y564498D02*
D03*
Y555498D02*
D03*
X1311910Y539750D02*
D03*
Y530750D02*
D03*
X1312164Y473782D02*
D03*
Y482782D02*
D03*
X1013714Y509342D02*
D03*
Y518342D02*
D03*
X882000Y398500D02*
D03*
Y389500D02*
D03*
X1289844Y134978D02*
D03*
Y125978D02*
D03*
X1309910Y156750D02*
D03*
Y147750D02*
D03*
X1310164Y134978D02*
D03*
Y125978D02*
D03*
X1299750Y156750D02*
D03*
Y147750D02*
D03*
X1289590Y156750D02*
D03*
Y147750D02*
D03*
X933750Y321250D02*
D03*
Y312250D02*
D03*
X893250Y398500D02*
D03*
Y389500D02*
D03*
D20*
X889360Y424050D02*
D03*
Y436750D02*
D03*
Y449450D02*
D03*
X921160D02*
D03*
Y436750D02*
D03*
Y424050D02*
D03*
D21*
X754082Y591468D02*
D03*
Y597968D02*
D03*
Y604468D02*
D03*
Y610968D02*
D03*
X812082D02*
D03*
Y604468D02*
D03*
Y597968D02*
D03*
Y591468D02*
D03*
X687168D02*
D03*
Y597968D02*
D03*
Y604468D02*
D03*
Y610968D02*
D03*
X731168D02*
D03*
Y604468D02*
D03*
Y597968D02*
D03*
Y591468D02*
D03*
D22*
X897750Y254000D02*
D03*
X882750D02*
D03*
D23*
X1146000Y613000D02*
D03*
X1137000D02*
D03*
X1078666Y578358D02*
D03*
X1069666D02*
D03*
X1094812Y579120D02*
D03*
X1103812D02*
D03*
X911606Y515874D02*
D03*
X920606D02*
D03*
X999494Y478113D02*
D03*
X990494D02*
D03*
X999494Y456946D02*
D03*
X990494D02*
D03*
X999494Y467529D02*
D03*
X990494D02*
D03*
X999494Y488696D02*
D03*
X990494D02*
D03*
X946404Y477774D02*
D03*
X955404D02*
D03*
X1094414Y479044D02*
D03*
X1085414D02*
D03*
X1094414Y489458D02*
D03*
X1085414D02*
D03*
X1094414Y456946D02*
D03*
X1085414D02*
D03*
X1094414Y468122D02*
D03*
X1085414D02*
D03*
X1039500Y480750D02*
D03*
X1048500D02*
D03*
X749750Y579750D02*
D03*
X758750D02*
D03*
X691750Y580000D02*
D03*
X682750D02*
D03*
X937500Y430500D02*
D03*
X946500D02*
D03*
X937500Y443617D02*
D03*
X946500D02*
D03*
D24*
X1122250Y611000D02*
D03*
Y595000D02*
D03*
X1055624Y611758D02*
D03*
Y595758D02*
D03*
X1106678Y610742D02*
D03*
Y594742D02*
D03*
X993394Y517778D02*
D03*
Y501778D02*
D03*
X1088314Y520572D02*
D03*
Y504572D02*
D03*
X1304250Y40250D02*
D03*
Y56250D02*
D03*
X1290750Y40250D02*
D03*
Y56250D02*
D03*
D25*
X1071020Y599694D02*
D03*
X1090520D02*
D03*
D26*
X1038606Y608122D02*
D03*
Y582122D02*
D03*
X1298448Y608122D02*
D03*
Y582122D02*
D03*
D27*
X857000Y595500D02*
D03*
X841000D02*
D03*
X857000Y581815D02*
D03*
X841000D02*
D03*
X976750Y443500D02*
D03*
X992750D02*
D03*
X1070500Y449000D02*
D03*
X1054500D02*
D03*
D28*
X999250Y595250D02*
D03*
Y611250D02*
D03*
D29*
X933640Y596250D02*
D03*
X957340D02*
D03*
D30*
X945956Y545492D02*
D03*
X975956D02*
D03*
X1042500Y545500D02*
D03*
X1012500D02*
D03*
D31*
X979500Y581250D02*
D03*
Y611250D02*
D03*
X1294638Y562130D02*
D03*
Y532130D02*
D03*
X1297500Y387500D02*
D03*
Y417500D02*
D03*
D32*
X950684Y507544D02*
D03*
X1043432Y510032D02*
D03*
D33*
X940934Y525794D02*
D03*
X947434D02*
D03*
X953934D02*
D03*
X960434D02*
D03*
Y489294D02*
D03*
X953934D02*
D03*
X947434D02*
D03*
X940934D02*
D03*
X1033682Y528282D02*
D03*
X1040182D02*
D03*
X1046682D02*
D03*
X1053182D02*
D03*
Y491782D02*
D03*
X1046682D02*
D03*
X1040182D02*
D03*
X1033682D02*
D03*
D34*
X968934Y517294D02*
D03*
Y510794D02*
D03*
Y504294D02*
D03*
Y497794D02*
D03*
X932434D02*
D03*
Y504294D02*
D03*
Y510794D02*
D03*
Y517294D02*
D03*
X1061682Y519782D02*
D03*
Y513282D02*
D03*
Y506782D02*
D03*
Y500282D02*
D03*
X1025182D02*
D03*
Y506782D02*
D03*
Y513282D02*
D03*
Y519782D02*
D03*
D35*
X1298702Y516226D02*
D03*
Y496726D02*
D03*
D36*
X960884Y459446D02*
D03*
X976884D02*
D03*
X1054396Y464566D02*
D03*
X1070396D02*
D03*
D37*
X903500Y388750D02*
D03*
Y395750D02*
D03*
D38*
X914250Y253500D02*
D03*
Y231500D02*
D03*
X930250D02*
D03*
Y253500D02*
D03*
D39*
X887500Y360100D02*
D03*
Y377900D02*
D03*
X910000Y360100D02*
D03*
Y377900D02*
D03*
D40*
X951500Y408321D02*
D03*
Y392321D02*
D03*
D41*
X1174250Y572557D02*
D03*
Y559857D02*
D03*
Y547157D02*
D03*
Y534457D02*
D03*
Y521757D02*
D03*
Y509057D02*
D03*
Y496357D02*
D03*
Y483657D02*
D03*
Y470957D02*
D03*
Y458257D02*
D03*
Y445557D02*
D03*
Y432857D02*
D03*
Y420157D02*
D03*
Y407457D02*
D03*
Y394757D02*
D03*
Y382057D02*
D03*
Y369357D02*
D03*
Y356657D02*
D03*
Y343957D02*
D03*
Y331257D02*
D03*
Y318557D02*
D03*
Y305857D02*
D03*
Y293157D02*
D03*
Y280457D02*
D03*
Y267757D02*
D03*
Y255057D02*
D03*
Y242357D02*
D03*
Y229657D02*
D03*
Y216957D02*
D03*
Y204257D02*
D03*
Y191557D02*
D03*
Y178857D02*
D03*
Y166157D02*
D03*
Y153457D02*
D03*
Y140757D02*
D03*
Y128057D02*
D03*
Y115357D02*
D03*
Y102657D02*
D03*
Y89957D02*
D03*
Y77257D02*
D03*
X1186950Y572557D02*
D03*
Y559857D02*
D03*
Y547157D02*
D03*
Y534457D02*
D03*
Y521757D02*
D03*
Y509057D02*
D03*
Y496357D02*
D03*
Y483657D02*
D03*
Y470957D02*
D03*
Y458257D02*
D03*
Y445557D02*
D03*
Y432857D02*
D03*
Y420157D02*
D03*
Y407457D02*
D03*
Y394757D02*
D03*
Y382057D02*
D03*
Y369357D02*
D03*
Y356657D02*
D03*
Y343957D02*
D03*
Y331257D02*
D03*
Y318557D02*
D03*
Y305857D02*
D03*
Y293157D02*
D03*
Y280457D02*
D03*
Y267757D02*
D03*
Y255057D02*
D03*
Y242357D02*
D03*
Y229657D02*
D03*
Y216957D02*
D03*
Y204257D02*
D03*
Y191557D02*
D03*
Y178857D02*
D03*
Y166157D02*
D03*
Y153457D02*
D03*
Y140757D02*
D03*
Y128057D02*
D03*
Y115357D02*
D03*
Y102657D02*
D03*
Y89957D02*
D03*
Y77257D02*
D03*
X1225050Y572557D02*
D03*
Y559857D02*
D03*
Y547157D02*
D03*
Y534457D02*
D03*
Y521757D02*
D03*
Y509057D02*
D03*
Y496357D02*
D03*
Y483657D02*
D03*
Y470957D02*
D03*
Y458257D02*
D03*
Y445557D02*
D03*
Y432857D02*
D03*
Y420157D02*
D03*
Y407457D02*
D03*
Y394757D02*
D03*
Y382057D02*
D03*
Y369357D02*
D03*
Y356657D02*
D03*
Y343957D02*
D03*
Y331257D02*
D03*
Y318557D02*
D03*
Y305857D02*
D03*
Y293157D02*
D03*
Y280457D02*
D03*
Y267757D02*
D03*
Y255057D02*
D03*
Y242357D02*
D03*
Y229657D02*
D03*
Y216957D02*
D03*
Y204257D02*
D03*
Y191557D02*
D03*
Y178857D02*
D03*
Y166157D02*
D03*
Y153457D02*
D03*
Y140757D02*
D03*
Y128057D02*
D03*
Y115357D02*
D03*
Y102657D02*
D03*
Y89957D02*
D03*
Y77257D02*
D03*
X1237750Y572557D02*
D03*
Y559857D02*
D03*
Y547157D02*
D03*
Y534457D02*
D03*
Y521757D02*
D03*
Y509057D02*
D03*
Y496357D02*
D03*
Y483657D02*
D03*
Y470957D02*
D03*
Y458257D02*
D03*
Y445557D02*
D03*
Y432857D02*
D03*
Y420157D02*
D03*
Y407457D02*
D03*
Y394757D02*
D03*
Y382057D02*
D03*
Y369357D02*
D03*
Y356657D02*
D03*
Y343957D02*
D03*
Y331257D02*
D03*
Y318557D02*
D03*
Y305857D02*
D03*
Y293157D02*
D03*
Y280457D02*
D03*
Y267757D02*
D03*
Y255057D02*
D03*
Y242357D02*
D03*
Y229657D02*
D03*
Y216957D02*
D03*
Y204257D02*
D03*
Y191557D02*
D03*
Y178857D02*
D03*
Y166157D02*
D03*
Y153457D02*
D03*
Y140757D02*
D03*
Y128057D02*
D03*
Y115357D02*
D03*
Y102657D02*
D03*
Y89957D02*
D03*
Y77257D02*
D03*
D81*
X882250Y390000D02*
G03*
X883457Y389500I1207J1207D01*
G01*
X894069Y377900D02*
G03*
X892500Y377250I0J-2219D01*
G01*
X881250Y377500D02*
G03*
X882000Y379311I-1811J1811D01*
G01*
X1010028Y366000D02*
X1018028D01*
X1026028D01*
X962028Y350000D02*
X970028D01*
D82*
X1085414Y330000D02*
X1106678D01*
D83*
X941294Y550154D02*
X945956Y545492D01*
X941206Y540154D02*
X945956Y544904D01*
X894069Y377900D02*
X910000D01*
X883457Y389500D02*
X893250D01*
X882000Y379311D02*
Y389500D01*
X933750Y302425D02*
Y312250D01*
X945956Y544904D02*
Y545492D01*
X933750Y321250D02*
X946028Y333528D01*
Y334000D01*
D84*
X933750Y283400D02*
Y293025D01*
D85*
X891700Y346550D02*
X892500Y345750D01*
X891700Y346550D02*
Y355900D01*
X887500Y360100D02*
X891700Y355900D01*
X904000Y345750D02*
Y358500D01*
D86*
X932060Y430500D02*
X937500D01*
X925610Y424050D02*
X932060Y430500D01*
X921160Y424050D02*
X925610D01*
X931443Y443617D02*
X937500D01*
X925610Y449450D02*
X931443Y443617D01*
X921160Y449450D02*
X925610D01*
X888303Y323903D02*
Y332553D01*
X885550Y321150D02*
X888303Y323903D01*
Y332553D02*
X892500Y336750D01*
X908197Y323903D02*
Y332553D01*
Y323903D02*
X910950Y321150D01*
X904000Y336750D02*
X908197Y332553D01*
D87*
X689413Y45361D02*
X692078D01*
X690745D01*
Y53359D01*
X689413Y52026D01*
D88*
X1092500Y550000D02*
D03*
Y90000D02*
D03*
X1345000Y625000D02*
D03*
X986000Y645000D02*
D03*
X826000Y5000D02*
D03*
X986000D02*
D03*
X1345000Y25000D02*
D03*
Y325000D02*
D03*
Y175000D02*
D03*
Y475000D02*
D03*
X806000Y645000D02*
D03*
X607000Y43000D02*
D03*
Y593000D02*
D03*
X850000Y375000D02*
D03*
Y550000D02*
D03*
Y225000D02*
D03*
Y90000D02*
D03*
X695000D02*
D03*
X560000Y550000D02*
D03*
D89*
X640000Y35000D02*
D03*
Y600500D02*
D03*
X1186000Y640000D02*
D03*
Y10000D02*
D03*
D90*
X1175520Y596814D02*
D03*
X1206000Y53000D02*
D03*
D91*
X1122172Y595250D02*
D03*
Y611250D02*
D03*
X1174250Y204257D02*
D03*
X1225050Y178857D02*
D03*
Y394757D02*
D03*
X1085439Y150772D02*
D03*
X1075000Y50000D02*
D03*
X1105000D02*
D03*
X875000Y120000D02*
D03*
X1297500Y335000D02*
D03*
Y365000D02*
D03*
X820000Y49750D02*
D03*
X1090000Y50000D02*
D03*
X1130000Y51085D02*
D03*
X1085414Y300000D02*
D03*
X1085500Y182523D02*
D03*
X1025000Y50000D02*
D03*
X995000D02*
D03*
X1297500Y442500D02*
D03*
Y472500D02*
D03*
X889360Y517500D02*
D03*
Y547500D02*
D03*
X627500Y547157D02*
D03*
X597500D02*
D03*
X888923Y144185D02*
D03*
Y174185D02*
D03*
X612500Y97500D02*
D03*
X582500D02*
D03*
X655000Y555000D02*
D03*
X807500Y75000D02*
D03*
X782500D02*
D03*
X757500D02*
D03*
X732500D02*
D03*
X662500D02*
D03*
X637500D02*
D03*
X612500D02*
D03*
X587500D02*
D03*
X565000D02*
D03*
X807500Y85000D02*
D03*
X782500D02*
D03*
X757500D02*
D03*
X732500D02*
D03*
X662500D02*
D03*
X637500D02*
D03*
X612500D02*
D03*
X565000D02*
D03*
X825000Y565000D02*
D03*
X802500D02*
D03*
Y555000D02*
D03*
X777500D02*
D03*
Y565000D02*
D03*
X752500Y555000D02*
D03*
X730000Y565000D02*
D03*
Y555000D02*
D03*
X705000D02*
D03*
Y565000D02*
D03*
X680000Y555000D02*
D03*
Y565000D02*
D03*
X655000D02*
D03*
X630000D02*
D03*
X540000Y-7500D02*
D03*
Y17500D02*
D03*
Y37500D02*
D03*
Y60000D02*
D03*
Y85000D02*
D03*
X552500Y107500D02*
D03*
X575000Y112500D02*
D03*
X600000D02*
D03*
X622500D02*
D03*
X647500D02*
D03*
X670000D02*
D03*
X717500D02*
D03*
X730000D02*
D03*
X755000D02*
D03*
X780000D02*
D03*
X810000Y117500D02*
D03*
X830000Y140000D02*
D03*
Y170000D02*
D03*
Y190000D02*
D03*
Y250000D02*
D03*
Y277500D02*
D03*
Y302500D02*
D03*
Y330000D02*
D03*
Y355000D02*
D03*
Y392500D02*
D03*
Y402500D02*
D03*
Y412500D02*
D03*
Y432500D02*
D03*
Y442500D02*
D03*
Y462500D02*
D03*
Y472500D02*
D03*
Y500250D02*
D03*
X801072Y528000D02*
D03*
X770500Y527750D02*
D03*
X750500Y527500D02*
D03*
X730500D02*
D03*
X710500D02*
D03*
X690500D02*
D03*
X670750D02*
D03*
X650500D02*
D03*
X630500D02*
D03*
X610750D02*
D03*
X590500D02*
D03*
X540000Y580000D02*
D03*
Y600000D02*
D03*
Y620000D02*
D03*
Y640000D02*
D03*
Y660000D02*
D03*
X1092500Y342750D02*
D03*
X1095000Y415000D02*
D03*
Y440000D02*
D03*
X1025000Y550000D02*
D03*
X875000Y545000D02*
D03*
Y520000D02*
D03*
Y500000D02*
D03*
Y435000D02*
D03*
X1095000Y315000D02*
D03*
X970000Y85000D02*
D03*
X940000D02*
D03*
X915000D02*
D03*
X890000D02*
D03*
X875000Y105000D02*
D03*
Y135000D02*
D03*
Y150000D02*
D03*
Y165000D02*
D03*
Y175000D02*
D03*
Y195000D02*
D03*
Y210000D02*
D03*
X881500Y410550D02*
D03*
X881250Y477774D02*
D03*
X832500Y180250D02*
D03*
Y200250D02*
D03*
X832250Y263250D02*
D03*
Y289750D02*
D03*
X832500Y316250D02*
D03*
X832250Y342750D02*
D03*
Y422000D02*
D03*
Y452250D02*
D03*
X841000Y581815D02*
D03*
X1260750Y44750D02*
D03*
Y60750D02*
D03*
X882750Y264750D02*
D03*
X892250D02*
D03*
X840133Y351235D02*
D03*
X852500Y334250D02*
D03*
X885000Y160000D02*
D03*
X930000D02*
D03*
X960000D02*
D03*
X985000D02*
D03*
X960000Y185000D02*
D03*
X930000D02*
D03*
X885000D02*
D03*
X850000D02*
D03*
Y430000D02*
D03*
Y325000D02*
D03*
X840000Y275000D02*
D03*
Y330000D02*
D03*
Y400000D02*
D03*
Y440000D02*
D03*
Y470000D02*
D03*
X710000Y580000D02*
D03*
X1020000Y600000D02*
D03*
Y610000D02*
D03*
X1200000Y470000D02*
D03*
Y500000D02*
D03*
X1130000Y570000D02*
D03*
X1140000Y590000D02*
D03*
X1270000Y580000D02*
D03*
Y510000D02*
D03*
Y540000D02*
D03*
X1280000Y600000D02*
D03*
X1250000D02*
D03*
X1210000Y580000D02*
D03*
Y600000D02*
D03*
X1305236Y400000D02*
D03*
X1310000Y350000D02*
D03*
X1300000Y300000D02*
D03*
X1210000Y100000D02*
D03*
X1130000D02*
D03*
X1150000Y70000D02*
D03*
X1250000Y50000D02*
D03*
X1170000D02*
D03*
X1050000D02*
D03*
X1010000D02*
D03*
X970000D02*
D03*
X850000D02*
D03*
X890000D02*
D03*
X930000D02*
D03*
X970000Y100000D02*
D03*
X930000D02*
D03*
X890000D02*
D03*
X1050000D02*
D03*
Y120000D02*
D03*
X1010000Y130000D02*
D03*
X980000D02*
D03*
X930000D02*
D03*
X890000D02*
D03*
X840000D02*
D03*
X810000Y100000D02*
D03*
X770000D02*
D03*
X730000D02*
D03*
X640000D02*
D03*
X600000D02*
D03*
X560000D02*
D03*
X1054500Y444250D02*
D03*
X1070500D02*
D03*
Y453750D02*
D03*
X1054500D02*
D03*
X992750Y438750D02*
D03*
X976750D02*
D03*
X992750Y448250D02*
D03*
X976750D02*
D03*
X1055876Y194750D02*
D03*
X1032495Y235750D02*
D03*
X848786Y277948D02*
D03*
X844500Y254581D02*
D03*
X876367Y227766D02*
D03*
X887135Y217323D02*
D03*
X900572Y210656D02*
D03*
X915316Y207897D02*
D03*
X930304Y208491D02*
D03*
X960304D02*
D03*
X1048623Y216462D02*
D03*
X986030Y227495D02*
D03*
X956030D02*
D03*
X896589Y230854D02*
D03*
X885944Y241423D02*
D03*
X853835Y305815D02*
D03*
X843228Y316422D02*
D03*
X836250Y161000D02*
D03*
Y150750D02*
D03*
X836750Y491000D02*
D03*
Y480750D02*
D03*
X860750Y615000D02*
D03*
X870250Y614750D02*
D03*
X884000Y599750D02*
D03*
Y612750D02*
D03*
X923000D02*
D03*
X919750Y606250D02*
D03*
X905250Y585000D02*
D03*
X892250D02*
D03*
X892750Y593500D02*
D03*
Y612250D02*
D03*
X901954Y602996D02*
D03*
X881000Y593250D02*
D03*
Y606250D02*
D03*
X923000Y599750D02*
D03*
X919750Y593250D02*
D03*
X911750Y582000D02*
D03*
X898750D02*
D03*
X911250Y593750D02*
D03*
Y612250D02*
D03*
X851500Y606500D02*
D03*
X861000Y606311D02*
D03*
X857000Y595500D02*
D03*
X870250Y597250D02*
D03*
X915792Y217993D02*
D03*
X1001500Y609250D02*
D03*
X946500Y577500D02*
D03*
X946490Y586500D02*
D03*
X1042500Y342250D02*
D03*
X922900Y348400D02*
D03*
X928000Y342250D02*
D03*
X921545Y399770D02*
D03*
X916000Y405000D02*
D03*
X1060558Y400250D02*
D03*
X1107750Y357250D02*
D03*
Y218750D02*
D03*
X865500Y175500D02*
D03*
Y311500D02*
D03*
Y136750D02*
D03*
Y521907D02*
D03*
Y497725D02*
D03*
Y473544D02*
D03*
Y425181D02*
D03*
Y328455D02*
D03*
Y280092D02*
D03*
Y159185D02*
D03*
Y110822D02*
D03*
Y449362D02*
D03*
Y352637D02*
D03*
X1107750Y189000D02*
D03*
Y150250D02*
D03*
Y128000D02*
D03*
X1108750Y456750D02*
D03*
X1108250Y416500D02*
D03*
X1107750Y505250D02*
D03*
Y521250D02*
D03*
X903230Y75000D02*
D03*
X999955D02*
D03*
X1118000Y495250D02*
D03*
X1120500Y257000D02*
D03*
X583440Y565250D02*
D03*
X1067068D02*
D03*
X1042887D02*
D03*
X1018705D02*
D03*
X994524D02*
D03*
X970343D02*
D03*
X946161D02*
D03*
X873617D02*
D03*
X752710D02*
D03*
X607621D02*
D03*
X879048Y75000D02*
D03*
X927411D02*
D03*
X951593D02*
D03*
X975774D02*
D03*
X1048318D02*
D03*
X1072500D02*
D03*
X1141500Y433750D02*
D03*
X1148148Y440000D02*
D03*
X1042051Y377000D02*
D03*
X1002028Y334000D02*
D03*
X1023250Y245350D02*
D03*
Y254750D02*
D03*
X1186950Y229657D02*
D03*
X982000Y383750D02*
D03*
X946500Y443617D02*
D03*
X1076750Y137500D02*
D03*
X1208309Y454772D02*
D03*
X1237750Y432857D02*
D03*
Y445557D02*
D03*
Y458257D02*
D03*
X1225050Y445557D02*
D03*
Y458257D02*
D03*
X1253500Y390250D02*
D03*
X1042051Y398769D02*
D03*
X991500Y400500D02*
D03*
X1000750Y400250D02*
D03*
X971600Y408000D02*
D03*
X981000D02*
D03*
X1119500Y224500D02*
D03*
X1156750Y262250D02*
D03*
X1078500Y259500D02*
D03*
X1071250Y266000D02*
D03*
X1311910Y530750D02*
D03*
X1272750Y59250D02*
D03*
X1202500Y287639D02*
D03*
X1264250Y250550D02*
D03*
Y244150D02*
D03*
X986028Y302000D02*
D03*
X1262750Y226800D02*
D03*
Y220400D02*
D03*
X994028Y294000D02*
D03*
X997000Y597250D02*
D03*
Y613250D02*
D03*
X1001500Y593250D02*
D03*
X1311910Y429914D02*
D03*
X691750Y580000D02*
D03*
X933750Y293025D02*
D03*
X894294Y481023D02*
D03*
X1087314Y449846D02*
D03*
X1060000Y350000D02*
D03*
X882750Y254000D02*
D03*
X1054396Y464566D02*
D03*
X1033750Y493250D02*
D03*
X1040250Y490250D02*
D03*
X1046750Y493250D02*
D03*
X1060250Y500250D02*
D03*
X1063000Y506750D02*
D03*
X1060250Y513250D02*
D03*
X1063250Y519750D02*
D03*
X1053250Y526750D02*
D03*
X1046750Y529750D02*
D03*
X1040250Y526750D02*
D03*
X1033750Y529750D02*
D03*
X1026750Y519750D02*
D03*
X1023750Y513250D02*
D03*
X1026750Y506750D02*
D03*
X1023750Y500250D02*
D03*
X1039500Y480750D02*
D03*
X1070396Y464566D02*
D03*
X1085414Y456946D02*
D03*
Y468122D02*
D03*
Y479044D02*
D03*
Y489458D02*
D03*
X1094414Y456946D02*
D03*
Y468122D02*
D03*
Y479044D02*
D03*
Y489458D02*
D03*
X1088314Y504572D02*
D03*
Y520572D02*
D03*
X1072896Y480694D02*
D03*
Y490094D02*
D03*
Y499744D02*
D03*
Y509144D02*
D03*
X1048500Y480750D02*
D03*
X1029082Y481076D02*
D03*
X999250Y543392D02*
D03*
X989250D02*
D03*
Y552392D02*
D03*
X999250D02*
D03*
X1042500Y540750D02*
D03*
Y550500D02*
D03*
X1012500Y540500D02*
D03*
Y550500D02*
D03*
X976000Y540500D02*
D03*
Y550500D02*
D03*
X946000Y540500D02*
D03*
Y550250D02*
D03*
X1019682Y481076D02*
D03*
X1013714Y509342D02*
D03*
Y518342D02*
D03*
X993394Y501778D02*
D03*
X990494Y467529D02*
D03*
Y478113D02*
D03*
Y488696D02*
D03*
X999494D02*
D03*
Y478113D02*
D03*
Y467529D02*
D03*
Y456946D02*
D03*
X990494D02*
D03*
X976884Y459446D02*
D03*
X960884D02*
D03*
X977646Y477774D02*
D03*
X968246D02*
D03*
X955404D02*
D03*
X946404D02*
D03*
X934848Y477520D02*
D03*
X925448D02*
D03*
X941000Y490750D02*
D03*
X947500Y487750D02*
D03*
X954000Y490750D02*
D03*
X967500Y497750D02*
D03*
X970500Y504250D02*
D03*
X967500Y510750D02*
D03*
X970500Y517250D02*
D03*
X960500Y524250D02*
D03*
X954000Y527250D02*
D03*
X947500Y524250D02*
D03*
X941000Y527250D02*
D03*
X931000Y497750D02*
D03*
X934000Y504250D02*
D03*
X931000Y510750D02*
D03*
X934000Y517250D02*
D03*
X980186Y495934D02*
D03*
Y505334D02*
D03*
X993394Y517778D02*
D03*
X920606Y515874D02*
D03*
X911606D02*
D03*
X1069666Y578358D02*
D03*
X998050Y580750D02*
D03*
X1055624Y611758D02*
D03*
X951500Y408321D02*
D03*
Y392321D02*
D03*
X946500Y430500D02*
D03*
X921160Y436750D02*
D03*
X889360Y424050D02*
D03*
Y436750D02*
D03*
Y449450D02*
D03*
X903500Y388500D02*
D03*
X882000Y398500D02*
D03*
X893250Y389500D02*
D03*
Y398500D02*
D03*
X929000Y391500D02*
D03*
X903500Y396000D02*
D03*
X914000Y391500D02*
D03*
X915250Y378000D02*
D03*
X904750D02*
D03*
X892500D02*
D03*
X898250Y321150D02*
D03*
Y289350D02*
D03*
X910950D02*
D03*
X914250Y231500D02*
D03*
X930250Y253500D02*
D03*
X933750Y274000D02*
D03*
X857000Y581815D02*
D03*
X841000Y595500D02*
D03*
X727250Y591500D02*
D03*
X735000Y598000D02*
D03*
X727250Y604500D02*
D03*
X735000Y611000D02*
D03*
X1250250Y90000D02*
D03*
X1255250Y95000D02*
D03*
X1262750Y106500D02*
D03*
Y73750D02*
D03*
X1290750Y118500D02*
D03*
X1282750Y120750D02*
D03*
X1275250Y131500D02*
D03*
Y122500D02*
D03*
X1292500Y99750D02*
D03*
X1272750D02*
D03*
Y80250D02*
D03*
X1282750Y90000D02*
D03*
X1292500Y80250D02*
D03*
X1272750Y49750D02*
D03*
X1290750Y56250D02*
D03*
Y40250D02*
D03*
X1304250Y56250D02*
D03*
Y40250D02*
D03*
X1312250Y98500D02*
D03*
Y90000D02*
D03*
X1302750Y105750D02*
D03*
X1310164Y125978D02*
D03*
X1289844D02*
D03*
Y134978D02*
D03*
X1310164D02*
D03*
X1309910Y147750D02*
D03*
X1299750D02*
D03*
X1289590D02*
D03*
Y156750D02*
D03*
X1299750D02*
D03*
X1309910D02*
D03*
X1306608Y167688D02*
D03*
X1293908D02*
D03*
Y177088D02*
D03*
Y189364D02*
D03*
X1306608D02*
D03*
Y177088D02*
D03*
Y198764D02*
D03*
X1293908D02*
D03*
Y211040D02*
D03*
X1306608D02*
D03*
Y220440D02*
D03*
X1293908D02*
D03*
Y232716D02*
D03*
X1306608D02*
D03*
Y242116D02*
D03*
X1293908D02*
D03*
Y254392D02*
D03*
X1306608D02*
D03*
X1293908Y263792D02*
D03*
Y276068D02*
D03*
Y285468D02*
D03*
X1302588Y387434D02*
D03*
X1292338D02*
D03*
X1312164Y473782D02*
D03*
Y482782D02*
D03*
X1292338Y417434D02*
D03*
X1302588D02*
D03*
X1291000Y496750D02*
D03*
X1306500D02*
D03*
X1298702Y496726D02*
D03*
X1291000Y516250D02*
D03*
X1306250D02*
D03*
X1298702Y516226D02*
D03*
X1299750Y532250D02*
D03*
X1289500D02*
D03*
X1311910Y539750D02*
D03*
X1312418Y555498D02*
D03*
Y564498D02*
D03*
X1298448Y582122D02*
D03*
X1299750Y562250D02*
D03*
X1289500D02*
D03*
X1298448Y608122D02*
D03*
X1146000Y613000D02*
D03*
X1137000D02*
D03*
X1106678Y610742D02*
D03*
X1103812Y579120D02*
D03*
X1094812D02*
D03*
X1106678Y594742D02*
D03*
X1090500Y592250D02*
D03*
Y607250D02*
D03*
X1078666Y578358D02*
D03*
X1071000Y592000D02*
D03*
Y607250D02*
D03*
X1055624Y595758D02*
D03*
X1038606Y582122D02*
D03*
Y608122D02*
D03*
X1007450Y580750D02*
D03*
X974250Y611500D02*
D03*
X984750D02*
D03*
Y581250D02*
D03*
X974250D02*
D03*
X933750Y586500D02*
D03*
Y596250D02*
D03*
Y606750D02*
D03*
X955500Y596250D02*
D03*
Y606664D02*
D03*
X870250Y606250D02*
D03*
X946500Y606664D02*
D03*
Y596250D02*
D03*
X816000Y611000D02*
D03*
X808250Y604500D02*
D03*
X816000Y598000D02*
D03*
X808250Y591500D02*
D03*
X750500Y611000D02*
D03*
Y598000D02*
D03*
X758000Y591500D02*
D03*
Y604500D02*
D03*
X758750Y579750D02*
D03*
X749750D02*
D03*
X736250D02*
D03*
X726850D02*
D03*
X682750Y580000D02*
D03*
X683250Y591500D02*
D03*
X691000Y598000D02*
D03*
X683500Y604500D02*
D03*
X690750Y611000D02*
D03*
X897750Y254000D02*
D03*
X930250Y231500D02*
D03*
X914250Y253500D02*
D03*
X660500Y527750D02*
D03*
X680500D02*
D03*
X780500D02*
D03*
X760500D02*
D03*
X740500D02*
D03*
X720500D02*
D03*
X700500D02*
D03*
X640500D02*
D03*
X620750D02*
D03*
X600500Y527500D02*
D03*
X885550Y289350D02*
D03*
X892500Y345750D02*
D03*
X904000Y345750D02*
D03*
X948500Y250750D02*
D03*
X1131805Y392769D02*
D03*
X1127750Y375250D02*
D03*
X1123750Y422250D02*
D03*
X1133250D02*
D03*
X982000Y392750D02*
D03*
X1010028Y318000D02*
D03*
X1217250Y267750D02*
D03*
X1010028Y310000D02*
D03*
X1237750Y305857D02*
D03*
Y293157D02*
D03*
X1010028Y302000D02*
D03*
X986028Y294000D02*
D03*
X1002028Y318000D02*
D03*
Y310000D02*
D03*
Y286000D02*
D03*
X1010028Y294000D02*
D03*
X1002028Y278000D02*
D03*
X1010028Y286000D02*
D03*
X970028Y310000D02*
D03*
X1186950Y153457D02*
D03*
Y255057D02*
D03*
X1174250Y267757D02*
D03*
X1186950D02*
D03*
X1174250Y280457D02*
D03*
X1225050Y293157D02*
D03*
Y280457D02*
D03*
X1237750Y242357D02*
D03*
Y255057D02*
D03*
Y166157D02*
D03*
X1186950Y140757D02*
D03*
X1174250Y166157D02*
D03*
X1186950D02*
D03*
X1174250Y178857D02*
D03*
X1186950D02*
D03*
X1174250Y191557D02*
D03*
X1186950D02*
D03*
X970028Y286000D02*
D03*
X1041250Y301750D02*
D03*
X978028Y310000D02*
D03*
X970028Y318000D02*
D03*
X962028Y310000D02*
D03*
X970028Y294000D02*
D03*
X962028Y286000D02*
D03*
Y302000D02*
D03*
X978028Y286000D02*
D03*
X986028D02*
D03*
X970028Y278000D02*
D03*
X1041250Y294000D02*
D03*
Y318000D02*
D03*
X1003000Y268500D02*
D03*
X996250Y242250D02*
D03*
Y258250D02*
D03*
X994000Y268500D02*
D03*
X976750Y259500D02*
D03*
X985250D02*
D03*
Y268500D02*
D03*
X976750D02*
D03*
X968000Y259500D02*
D03*
X959750Y259500D02*
D03*
X968000Y268500D02*
D03*
X959750Y268500D02*
D03*
X948500Y266750D02*
D03*
X937250Y346028D02*
D03*
Y337028D02*
D03*
X946250Y374500D02*
D03*
X955250D02*
D03*
X990250Y383750D02*
D03*
X1008000Y374500D02*
D03*
Y383500D02*
D03*
X1061000Y284250D02*
D03*
X1052000D02*
D03*
X1043400Y286000D02*
D03*
X1052000Y292750D02*
D03*
X1061000D02*
D03*
X1058250Y301000D02*
D03*
X1049250D02*
D03*
X1051500Y309750D02*
D03*
X1042500D02*
D03*
X1042590Y327828D02*
D03*
X1052750Y319250D02*
D03*
X1061750D02*
D03*
X1052750Y328000D02*
D03*
X1062910Y327928D02*
D03*
X1052750Y337000D02*
D03*
X1062910Y336928D02*
D03*
X1026028Y310000D02*
D03*
X1018028D02*
D03*
X962000Y358000D02*
D03*
X962028Y342000D02*
D03*
X946028D02*
D03*
X1034028Y310000D02*
D03*
X1018028Y318000D02*
D03*
X1034028Y286000D02*
D03*
Y294000D02*
D03*
X989750Y374750D02*
D03*
X999150D02*
D03*
X999250Y383750D02*
D03*
X1010028Y350000D02*
D03*
X1034028Y278000D02*
D03*
Y302000D02*
D03*
Y318000D02*
D03*
Y326000D02*
D03*
Y334000D02*
D03*
Y342000D02*
D03*
Y358000D02*
D03*
Y366000D02*
D03*
X1026028D02*
D03*
Y358000D02*
D03*
Y350000D02*
D03*
Y342000D02*
D03*
Y334000D02*
D03*
Y326000D02*
D03*
Y318000D02*
D03*
Y302000D02*
D03*
Y294000D02*
D03*
Y286000D02*
D03*
Y278000D02*
D03*
X1018028D02*
D03*
Y286000D02*
D03*
Y294000D02*
D03*
Y302000D02*
D03*
Y326000D02*
D03*
Y334000D02*
D03*
Y342000D02*
D03*
Y350000D02*
D03*
Y358000D02*
D03*
X1010028Y366000D02*
D03*
Y358000D02*
D03*
Y342000D02*
D03*
Y334000D02*
D03*
Y326000D02*
D03*
Y278000D02*
D03*
X1002028Y294000D02*
D03*
Y302000D02*
D03*
Y326000D02*
D03*
Y342000D02*
D03*
Y350000D02*
D03*
Y358000D02*
D03*
Y366000D02*
D03*
X994028D02*
D03*
Y358000D02*
D03*
Y350000D02*
D03*
Y342000D02*
D03*
Y334000D02*
D03*
Y326000D02*
D03*
Y318000D02*
D03*
Y310000D02*
D03*
Y302000D02*
D03*
Y286000D02*
D03*
Y278000D02*
D03*
X986028D02*
D03*
X978028D02*
D03*
Y294000D02*
D03*
Y302000D02*
D03*
X986028Y310000D02*
D03*
Y318000D02*
D03*
X978028D02*
D03*
Y326000D02*
D03*
X986028D02*
D03*
Y334000D02*
D03*
X978028D02*
D03*
Y342000D02*
D03*
X986028D02*
D03*
Y350000D02*
D03*
Y358000D02*
D03*
Y366000D02*
D03*
X962028Y278000D02*
D03*
X954028D02*
D03*
X946028D02*
D03*
X954028Y286000D02*
D03*
X946028D02*
D03*
X962028Y294000D02*
D03*
X954028D02*
D03*
X946028D02*
D03*
Y302000D02*
D03*
X954028D02*
D03*
X970028D02*
D03*
X954028Y310000D02*
D03*
X946028D02*
D03*
X962028Y318000D02*
D03*
X954028D02*
D03*
X946028D02*
D03*
X970028Y326000D02*
D03*
X962028D02*
D03*
X954028D02*
D03*
X946028D02*
D03*
X970028Y334000D02*
D03*
X962028D02*
D03*
X954028D02*
D03*
X946028D02*
D03*
X970028Y342000D02*
D03*
X954028D02*
D03*
Y350000D02*
D03*
X970028D02*
D03*
X978028D02*
D03*
Y358000D02*
D03*
Y366000D02*
D03*
X970028D02*
D03*
Y358000D02*
D03*
X962028Y366000D02*
D03*
X946028Y358000D02*
D03*
X954028D02*
D03*
Y366000D02*
D03*
X946028D02*
D03*
X1186950Y280457D02*
D03*
Y293157D02*
D03*
X1174250Y305857D02*
D03*
Y293157D02*
D03*
X1186950Y305857D02*
D03*
X1237750Y280457D02*
D03*
X1186950Y89957D02*
D03*
X1174250Y153457D02*
D03*
X1237750Y77257D02*
D03*
Y572557D02*
D03*
X1174250D02*
D03*
X1225050Y77257D02*
D03*
Y572557D02*
D03*
X1186950Y77257D02*
D03*
Y572557D02*
D03*
X1237750Y559857D02*
D03*
X1174250Y89957D02*
D03*
Y559857D02*
D03*
X1225050Y89957D02*
D03*
Y559857D02*
D03*
X1186950D02*
D03*
X1237750Y547157D02*
D03*
X1174250Y102657D02*
D03*
Y547157D02*
D03*
X1225050Y102657D02*
D03*
Y547157D02*
D03*
X1186950Y102657D02*
D03*
Y547157D02*
D03*
X1237750Y115357D02*
D03*
Y534457D02*
D03*
X1174250Y115357D02*
D03*
Y534457D02*
D03*
X1225050D02*
D03*
X1186950Y115357D02*
D03*
X1237750Y128057D02*
D03*
Y521757D02*
D03*
X1174250D02*
D03*
X1225050D02*
D03*
X1186950Y128057D02*
D03*
X1237750Y509057D02*
D03*
X1174250Y140757D02*
D03*
Y509057D02*
D03*
X1225050Y140757D02*
D03*
Y509057D02*
D03*
X1186950D02*
D03*
X1237750Y496357D02*
D03*
X1174250D02*
D03*
X1225050Y153457D02*
D03*
X1186950Y496357D02*
D03*
X1237750Y483657D02*
D03*
X1174250D02*
D03*
X1225050Y166157D02*
D03*
X1186950Y483657D02*
D03*
X1237750Y178857D02*
D03*
Y470957D02*
D03*
X1174250D02*
D03*
X1225050D02*
D03*
X1186950D02*
D03*
X1237750Y191557D02*
D03*
X1174250Y458257D02*
D03*
X1225050Y191557D02*
D03*
X1186950Y458257D02*
D03*
X1237750Y204257D02*
D03*
X1174250Y445557D02*
D03*
X1225050Y204257D02*
D03*
X1186950D02*
D03*
Y445557D02*
D03*
X1237750Y216957D02*
D03*
X1174250D02*
D03*
Y432857D02*
D03*
X1225050Y216957D02*
D03*
X1186950D02*
D03*
Y432857D02*
D03*
X1237750Y229657D02*
D03*
Y420157D02*
D03*
X1174250Y229657D02*
D03*
Y420157D02*
D03*
X1225050Y229657D02*
D03*
Y420157D02*
D03*
X1186950D02*
D03*
X1237750Y407457D02*
D03*
X1174250Y242357D02*
D03*
Y407457D02*
D03*
X1225050Y242357D02*
D03*
Y407457D02*
D03*
X1186950Y242357D02*
D03*
Y407457D02*
D03*
X1237750Y394757D02*
D03*
X1174250Y255057D02*
D03*
Y394757D02*
D03*
X1225050Y255057D02*
D03*
X1186950Y394757D02*
D03*
X1237750Y382057D02*
D03*
X1174250D02*
D03*
X1225050D02*
D03*
X1186950D02*
D03*
X1237750Y369357D02*
D03*
X1174250D02*
D03*
X1225050D02*
D03*
X1186950D02*
D03*
X1237750Y356657D02*
D03*
X1174250D02*
D03*
X1237750Y343957D02*
D03*
X1225050Y356657D02*
D03*
X1186950D02*
D03*
X1174250Y343957D02*
D03*
X1237750Y318557D02*
D03*
Y331257D02*
D03*
X1174250Y318557D02*
D03*
Y331257D02*
D03*
X1225050Y305857D02*
D03*
Y343957D02*
D03*
X1186950D02*
D03*
X1225050Y318557D02*
D03*
X1186950D02*
D03*
Y331257D02*
D03*
X956184Y502044D02*
D03*
X945184D02*
D03*
X956184Y513044D02*
D03*
X945184D02*
D03*
X1048932Y504532D02*
D03*
X1037932D02*
D03*
X1048932Y515532D02*
D03*
X1037932D02*
D03*
D92*
X565750Y46250D02*
D03*
X577000Y23750D02*
D03*
X1049750Y16250D02*
D03*
X1038500Y-6250D02*
D03*
X1356250Y145000D02*
D03*
Y55000D02*
D03*
Y77500D02*
D03*
Y100000D02*
D03*
Y122500D02*
D03*
X1333750Y111250D02*
D03*
Y88750D02*
D03*
Y66250D02*
D03*
Y133750D02*
D03*
Y283750D02*
D03*
Y216250D02*
D03*
Y238750D02*
D03*
Y261250D02*
D03*
X1356250Y272500D02*
D03*
Y250000D02*
D03*
Y227500D02*
D03*
Y205000D02*
D03*
Y295000D02*
D03*
X1333750Y433750D02*
D03*
Y366250D02*
D03*
Y388750D02*
D03*
Y411250D02*
D03*
X1356250Y422500D02*
D03*
Y400000D02*
D03*
Y377500D02*
D03*
Y355000D02*
D03*
Y445000D02*
D03*
X1333750Y583750D02*
D03*
Y516250D02*
D03*
Y538750D02*
D03*
Y561250D02*
D03*
X1356250Y572500D02*
D03*
Y550000D02*
D03*
Y527500D02*
D03*
Y505000D02*
D03*
Y595000D02*
D03*
X939750Y16250D02*
D03*
X872250D02*
D03*
X894750D02*
D03*
X917250D02*
D03*
X928500Y-6250D02*
D03*
X906000D02*
D03*
X883500D02*
D03*
X861000D02*
D03*
X951000D02*
D03*
X1094750Y16250D02*
D03*
X1027250D02*
D03*
X1072250D02*
D03*
X1083500Y-6250D02*
D03*
X1061000D02*
D03*
X1016000D02*
D03*
X1106000D02*
D03*
X1128500D02*
D03*
X1117250Y16250D02*
D03*
X1151001Y-6250D02*
D03*
X1139751Y16250D02*
D03*
Y633750D02*
D03*
X1151001Y656250D02*
D03*
X1117250Y633750D02*
D03*
X1128500Y656250D02*
D03*
X1106000D02*
D03*
X1016000D02*
D03*
X1038500D02*
D03*
X1061000D02*
D03*
X1083500D02*
D03*
X1072250Y633750D02*
D03*
X1049750D02*
D03*
X1027250D02*
D03*
X1094750D02*
D03*
X1309500Y16250D02*
D03*
X1242000D02*
D03*
X1264500D02*
D03*
X1287000D02*
D03*
X1298250Y-6250D02*
D03*
X1275750D02*
D03*
X1253250D02*
D03*
X1230750D02*
D03*
X1320750D02*
D03*
Y656250D02*
D03*
X1230750D02*
D03*
X1253250D02*
D03*
X1275750D02*
D03*
X1298250D02*
D03*
X1287000Y633750D02*
D03*
X1264500D02*
D03*
X1242000D02*
D03*
X1309500D02*
D03*
X874750Y633750D02*
D03*
X942250D02*
D03*
X919750D02*
D03*
X897250D02*
D03*
X886000Y656250D02*
D03*
X908500D02*
D03*
X931000D02*
D03*
X953500D02*
D03*
X863500D02*
D03*
X841000D02*
D03*
X852250Y633750D02*
D03*
X1356250Y656250D02*
D03*
Y-6250D02*
D03*
X789001Y21500D02*
D03*
X766500D02*
D03*
X721500D02*
D03*
X699000D02*
D03*
X676500D02*
D03*
X744000D02*
D03*
X772501Y632000D02*
D03*
X750000D02*
D03*
X705000D02*
D03*
X682500D02*
D03*
X660000D02*
D03*
X727500D02*
D03*
X577000Y611750D02*
D03*
X565750Y589250D02*
D03*
M02*
