G04*
G04 #@! TF.GenerationSoftware,Altium Limited,Altium Designer,19.0.15 (446)*
G04*
G04 Layer_Physical_Order=4*
G04 Layer_Color=16440176*
%FSLAX44Y44*%
%MOMM*%
G71*
G01*
G75*
%ADD15C,0.4000*%
%ADD82C,0.4000*%
%ADD83C,0.1200*%
%ADD84C,0.2000*%
%ADD88C,0.2540*%
%ADD89C,4.0000*%
%ADD90C,5.0000*%
%ADD92C,0.5000*%
%ADD94C,0.3000*%
%ADD96C,0.1500*%
%ADD97C,0.1200*%
%ADD100C,0.1700*%
D15*
X996250Y253250D02*
D03*
X1042500Y342250D02*
D03*
X986028Y302000D02*
D03*
X994028Y294000D02*
D03*
X1010028Y318000D02*
D03*
Y310000D02*
D03*
Y302000D02*
D03*
X986028Y294000D02*
D03*
X1002028Y318000D02*
D03*
Y310000D02*
D03*
Y286000D02*
D03*
X1010028Y294000D02*
D03*
X1002028Y278000D02*
D03*
X1010028Y286000D02*
D03*
X1049250Y301000D02*
D03*
X1042500Y309750D02*
D03*
X1026028Y310000D02*
D03*
X1034028Y278000D02*
D03*
X1002028Y294000D02*
D03*
Y302000D02*
D03*
X994028Y310000D02*
D03*
X978028Y302000D02*
D03*
X986028Y366000D02*
D03*
X970028Y326000D02*
D03*
X962028D02*
D03*
X970028Y334000D02*
D03*
X954028D02*
D03*
D82*
X1036000Y371665D02*
Y392719D01*
X1042051Y398769D01*
X1036000Y371665D02*
X1042500Y365165D01*
Y342250D02*
Y365165D01*
D83*
X1220551Y382808D02*
G03*
X1218477Y384882I-2074J0D01*
G01*
Y372203D02*
G03*
X1220551Y374277I0J2074D01*
G01*
Y363849D02*
G03*
X1218477Y365923I-2074J0D01*
G01*
Y353243D02*
G03*
X1220551Y355317I0J2074D01*
G01*
Y344889D02*
G03*
X1218477Y346963I-2074J0D01*
G01*
Y334284D02*
G03*
X1220551Y336357I0J2074D01*
G01*
X1204890Y325930D02*
G03*
X1202816Y328004I-2074J0D01*
G01*
X1201691Y383756D02*
G03*
X1203764Y381683I2074J0D01*
G01*
X1193523Y375403D02*
G03*
X1191450Y373329I0J-2074D01*
G01*
X1193523Y337483D02*
G03*
X1191450Y335410I0J-2074D01*
G01*
Y364797D02*
G03*
X1193523Y362723I2074J0D01*
G01*
X1193249Y356443D02*
G03*
X1191175Y354369I0J-2074D01*
G01*
Y345837D02*
G03*
X1193249Y343763I2074J0D01*
G01*
X1191450Y326878D02*
G03*
X1193523Y324804I2074J0D01*
G01*
X1146450Y158397D02*
G03*
X1146660Y158187I210J0D01*
G01*
X1146450Y161169D02*
G03*
X1146240Y161379I-210J0D01*
G01*
X1142460D02*
G03*
X1142250Y161169I0J-210D01*
G01*
X1142040Y158187D02*
G03*
X1142250Y158397I0J210D01*
G01*
X1113950Y158397D02*
G03*
X1114160Y158187I210J0D01*
G01*
X1113950Y161353D02*
G03*
X1113740Y161563I-210J0D01*
G01*
X1109960D02*
G03*
X1109750Y161353I0J-210D01*
G01*
X1109540Y158187D02*
G03*
X1109750Y158397I0J210D01*
G01*
X1105550Y158397D02*
G03*
X1105760Y158187I210J0D01*
G01*
X1105550Y161040D02*
G03*
X1105340Y161250I-210J0D01*
G01*
X1101560D02*
G03*
X1101350Y161040I0J-210D01*
G01*
X1101140Y158187D02*
G03*
X1101350Y158397I0J210D01*
G01*
X1004351Y171566D02*
G03*
X1003744Y173032I-2074J0D01*
G01*
Y170100D02*
G03*
X1004351Y171566I-1467J1467D01*
G01*
X984949Y178118D02*
G03*
X985557Y179584I-1467J1467D01*
G01*
D02*
G03*
X984949Y181051I-2074J0D01*
G01*
X997711Y179065D02*
G03*
X994778Y179065I-1467J-1467D01*
G01*
X1012627Y159176D02*
G03*
X1010553Y161250I-2074J0D01*
G01*
X1020981Y168870D02*
G03*
X1018907Y166796I0J-2074D01*
G01*
X1031587D02*
G03*
X1029513Y168870I-2074J0D01*
G01*
X980846Y196576D02*
G03*
X978772Y198650I-2074J0D01*
G01*
X986392Y204930D02*
G03*
X988466Y207004I0J2074D01*
G01*
Y215536D02*
G03*
X986392Y217610I-2074J0D01*
G01*
X1039940Y168870D02*
G03*
X1037867Y166796I0J-2074D01*
G01*
X1050546D02*
G03*
X1048472Y168870I-2074J0D01*
G01*
X1088465Y166796D02*
G03*
X1086391Y168870I-2074J0D01*
G01*
X1119800Y156217D02*
G03*
X1117831Y158187I-1970J0D01*
G01*
X1125970D02*
G03*
X1124000Y156217I0J-1970D01*
G01*
X1058900Y168870D02*
G03*
X1056826Y166796I0J-2074D01*
G01*
X1069506D02*
G03*
X1067432Y168870I-2074J0D01*
G01*
X1077860D02*
G03*
X1075786Y166796I0J-2074D01*
G01*
X1191450Y198370D02*
G03*
X1193419Y196401I1970J0D01*
G01*
X1197020Y192201D02*
G03*
X1195050Y190231I0J-1970D01*
G01*
X1193419Y207000D02*
G03*
X1191450Y205030I0J-1970D01*
G01*
X1195050Y213170D02*
G03*
X1197020Y211200I1970J0D01*
G01*
X1125230Y150907D02*
G03*
X1127200Y152877I0J1970D01*
G01*
X1116600D02*
G03*
X1118570Y150907I1970J0D01*
G01*
X1202330Y212430D02*
G03*
X1200360Y214400I-1970J0D01*
G01*
Y203800D02*
G03*
X1202330Y205770I0J1970D01*
G01*
Y197631D02*
G03*
X1200360Y199601I-1970J0D01*
G01*
Y189001D02*
G03*
X1202330Y190971I0J1970D01*
G01*
X1076912Y150430D02*
G03*
X1078986Y152504I0J2074D01*
G01*
X1066306D02*
G03*
X1068380Y150430I2074J0D01*
G01*
X1057952D02*
G03*
X1060026Y152504I0J2074D01*
G01*
X1047346D02*
G03*
X1049420Y150430I2074J0D01*
G01*
X1038992D02*
G03*
X1041066Y152504I0J2074D01*
G01*
X1028387D02*
G03*
X1030461Y150430I2074J0D01*
G01*
X1020033D02*
G03*
X1022107Y152504I0J2074D01*
G01*
X1009427D02*
G03*
X1011501Y150430I2074J0D01*
G01*
X996763Y167644D02*
G03*
X996763Y164711I1467J-1467D01*
G01*
X984002Y166697D02*
G03*
X986935Y166697I1467J1467D01*
G01*
X977969Y175663D02*
G03*
X977969Y172730I1467J-1467D01*
G01*
X971099Y197525D02*
G03*
X973173Y195451I2074J0D01*
G01*
Y208130D02*
G03*
X971099Y206056I0J-2074D01*
G01*
X977646Y216484D02*
G03*
X979720Y214410I2074J0D01*
G01*
X1149065Y249029D02*
G03*
X1149076Y248819I2074J0D01*
G01*
X1150929Y246966D02*
G03*
X1151139Y246955I210J2063D01*
G01*
X1149076Y248819D02*
G03*
X1150929Y246966I2063J210D01*
G01*
X1140712Y235000D02*
G03*
X1142786Y237073I0J2074D01*
G01*
X1130106D02*
G03*
X1132180Y235000I2074J0D01*
G01*
X1111146Y231073D02*
G03*
X1113220Y229000I2074J0D01*
G01*
X1121752D02*
G03*
X1123826Y231073I0J2074D01*
G01*
X1102793Y226635D02*
G03*
X1104866Y228709I0J2074D01*
G01*
X1092187D02*
G03*
X1094261Y226635I2074J0D01*
G01*
X1083833Y229920D02*
G03*
X1085907Y231994I0J2074D01*
G01*
X1057244Y206137D02*
G03*
X1057034Y206347I-210J0D01*
G01*
X1056218Y206557D02*
G03*
X1056429Y206347I210J0D01*
G01*
Y210546D02*
G03*
X1056218Y210336I0J-210D01*
G01*
X1057034Y210546D02*
G03*
X1057244Y210756I0J210D01*
G01*
Y214536D02*
G03*
X1057034Y214746I-210J0D01*
G01*
X1056218Y214956D02*
G03*
X1056429Y214746I210J0D01*
G01*
Y218946D02*
G03*
X1056218Y218736I0J-210D01*
G01*
X1057034Y218946D02*
G03*
X1057244Y219156I0J210D01*
G01*
X1136844Y212402D02*
G03*
X1137054Y212612I0J210D01*
G01*
X1132184Y212402D02*
G03*
X1131974Y212192I0J-210D01*
G01*
Y208413D02*
G03*
X1132184Y208203I210J0D01*
G01*
X1137054Y207993D02*
G03*
X1136844Y208203I-210J0D01*
G01*
Y204003D02*
G03*
X1137054Y204213I0J210D01*
G01*
X1132184Y204003D02*
G03*
X1131974Y203793I0J-210D01*
G01*
Y200013D02*
G03*
X1132184Y199803I210J0D01*
G01*
X1137054Y199593D02*
G03*
X1136844Y199803I-210J0D01*
G01*
X1116197Y220000D02*
G03*
X1114123Y217927I0J-2074D01*
G01*
X1126803D02*
G03*
X1124729Y220000I-2074J0D01*
G01*
X1107843Y212482D02*
G03*
X1105769Y214556I-2074J0D01*
G01*
X1097237D02*
G03*
X1095163Y212482I0J-2074D01*
G01*
X1016148Y253386D02*
G03*
X1018222Y255460I0J2074D01*
G01*
Y245033D02*
G03*
X1016148Y247107I-2074J0D01*
G01*
X1044067Y234757D02*
G03*
X1041134Y234757I-1467J-1467D01*
G01*
X1088884Y225246D02*
G03*
X1086810Y227320I-2074J0D01*
G01*
X1078278D02*
G03*
X1076204Y225246I0J-2074D01*
G01*
X1059318Y227320D02*
G03*
X1057244Y225246I0J-2074D01*
G01*
X1069924D02*
G03*
X1067850Y227320I-2074J0D01*
G01*
X1050100Y225791D02*
G03*
X1050708Y227257I-1467J1467D01*
G01*
D02*
G03*
X1050100Y228724I-2074J0D01*
G01*
X1050964Y204926D02*
G03*
X1048890Y207000I-2074J0D01*
G01*
X1104643Y195574D02*
G03*
X1106717Y193500I2074J0D01*
G01*
X1115249D02*
G03*
X1117323Y195574I0J2074D01*
G01*
X1096289Y186622D02*
G03*
X1098363Y188696I0J2074D01*
G01*
X1010231Y256586D02*
G03*
X1008157Y254513I0J-2074D01*
G01*
Y245981D02*
G03*
X1010231Y243907I2074J0D01*
G01*
X1058370Y199250D02*
G03*
X1060444Y201324I0J2074D01*
G01*
X1077330Y191851D02*
G03*
X1079404Y193925I0J2074D01*
G01*
X1085684Y188696D02*
G03*
X1087757Y186622I2074J0D01*
G01*
X1066724Y193925D02*
G03*
X1068798Y191851I2074J0D01*
G01*
X1034139Y214356D02*
G03*
X1034139Y211423I1467J-1467D01*
G01*
X1026766Y218796D02*
G03*
X1029699Y218796I1467J1467D01*
G01*
X1047765Y201324D02*
G03*
X1049838Y199250I2074J0D01*
G01*
X1111237Y405824D02*
G03*
X1111397Y405664I160J0D01*
G01*
X1114277D02*
G03*
X1114437Y405824I0J160D01*
G01*
X1117637Y405824D02*
G03*
X1117797Y405664I160J0D01*
G01*
X1120677D02*
G03*
X1120837Y405824I0J160D01*
G01*
X1152265Y257176D02*
G03*
X1150191Y259250I-2074J0D01*
G01*
X1141660D02*
G03*
X1139586Y257176I0J-2074D01*
G01*
X1103740Y259250D02*
G03*
X1101667Y257176I0J-2074D01*
G01*
X1095387D02*
G03*
X1093313Y259250I-2074J0D01*
G01*
X1114346Y257176D02*
G03*
X1112272Y259250I-2074J0D01*
G01*
X1133306Y250806D02*
G03*
X1131232Y252880I-2074J0D01*
G01*
X1122700D02*
G03*
X1120626Y250806I0J-2074D01*
G01*
X1084781Y259250D02*
G03*
X1082707Y257176I0J-2074D01*
G01*
X1133628Y324590D02*
G03*
X1133468Y324750I-160J0D01*
G01*
Y321550D02*
G03*
X1133628Y321710I0J160D01*
G01*
X1156882Y319448D02*
G03*
X1157042Y319288I160J0D01*
G01*
Y322488D02*
G03*
X1156882Y322328I0J-160D01*
G01*
X1142051Y369813D02*
G03*
X1139977Y371887I-2074J0D01*
G01*
X1131445D02*
G03*
X1129371Y369813I0J-2074D01*
G01*
X1123091Y352691D02*
G03*
X1121017Y354765I-2074J0D01*
G01*
X1112485D02*
G03*
X1110411Y352691I0J-2074D01*
G01*
X1104131Y353963D02*
G03*
X1102057Y356037I-2074J0D01*
G01*
X1093526D02*
G03*
X1091452Y353963I0J-2074D01*
G01*
X1085172Y391906D02*
G03*
X1083098Y393980I-2074J0D01*
G01*
X1074566D02*
G03*
X1072492Y391906I0J-2074D01*
G01*
X1138851Y336974D02*
G03*
X1140925Y334900I2074J0D01*
G01*
X1130497Y306049D02*
G03*
X1132571Y308123I0J2074D01*
G01*
X1119891D02*
G03*
X1121965Y306049I2074J0D01*
G01*
X1111537D02*
G03*
X1113611Y308123I0J2074D01*
G01*
X1100932D02*
G03*
X1103006Y306049I2074J0D01*
G01*
X1092578Y319037D02*
G03*
X1094652Y321111I0J2074D01*
G01*
X1081972D02*
G03*
X1084046Y319037I2074J0D01*
G01*
X1073618Y334900D02*
G03*
X1075692Y336974I0J2074D01*
G01*
X1148764Y329820D02*
G03*
X1148924Y329980I0J160D01*
G01*
X1145724D02*
G03*
X1145884Y329820I160J0D01*
G01*
X1081024Y294310D02*
G03*
X1081024Y294537I-113J113D01*
G01*
X1078987Y296573D02*
G03*
X1078761Y296573I-113J-113D01*
G01*
X1076472Y300376D02*
G03*
X1076632Y300536I0J160D01*
G01*
Y303416D02*
G03*
X1076472Y303576I-160J0D01*
G01*
X1040022Y253670D02*
G03*
X1040182Y253830I0J160D01*
G01*
Y256710D02*
G03*
X1040022Y256870I-160J0D01*
G01*
Y260070D02*
G03*
X1040182Y260229I0J160D01*
G01*
Y263109D02*
G03*
X1040022Y263269I-160J0D01*
G01*
X1005471Y188146D02*
G03*
X1005471Y188373I-113J113D01*
G01*
X1003434Y190409D02*
G03*
X1003208Y190409I-113J-113D01*
G01*
X971779Y229344D02*
G03*
X971939Y229504I0J160D01*
G01*
Y232384D02*
G03*
X971779Y232544I-160J0D01*
G01*
Y235744D02*
G03*
X971939Y235904I0J160D01*
G01*
Y238784D02*
G03*
X971779Y238944I-160J0D01*
G01*
Y242144D02*
G03*
X971939Y242304I0J160D01*
G01*
Y245184D02*
G03*
X971779Y245343I-160J0D01*
G01*
X1145182Y175272D02*
G03*
X1147102Y173352I1920J0D01*
G01*
X1132346Y175426D02*
G03*
X1134420Y173352I2074J0D01*
G01*
X1140062D02*
G03*
X1141982Y175272I0J1920D01*
G01*
X1123992Y163850D02*
G03*
X1126066Y165924I0J2074D01*
G01*
X1075467Y175426D02*
G03*
X1077541Y173352I2074J0D01*
G01*
X1105032Y163850D02*
G03*
X1107106Y165924I0J2074D01*
G01*
X1113386D02*
G03*
X1115460Y163850I2074J0D01*
G01*
X1094427Y165924D02*
G03*
X1096500Y163850I2074J0D01*
G01*
X995438Y222609D02*
G03*
X997512Y220535I2074J0D01*
G01*
X1067113Y173352D02*
G03*
X1069187Y175426I0J2074D01*
G01*
X1056507D02*
G03*
X1058581Y173352I2074J0D01*
G01*
X1048154D02*
G03*
X1050228Y175426I0J2074D01*
G01*
X1037548D02*
G03*
X1039622Y173352I2074J0D01*
G01*
X993139Y214255D02*
G03*
X991065Y212181I0J-2074D01*
G01*
Y203649D02*
G03*
X993139Y201575I2074J0D01*
G01*
X1029194Y173352D02*
G03*
X1031268Y175426I0J2074D01*
G01*
X1135546Y187178D02*
G03*
X1133472Y189252I-2074J0D01*
G01*
X1078667Y187178D02*
G03*
X1076593Y189252I-2074J0D01*
G01*
X1124940D02*
G03*
X1122866Y187178I0J-2074D01*
G01*
X1068061Y189252D02*
G03*
X1065987Y187178I0J-2074D01*
G01*
X1148382Y182712D02*
G03*
X1146462Y184632I-1920J0D01*
G01*
X1140702D02*
G03*
X1138783Y182712I0J-1920D01*
G01*
X1116586Y182427D02*
G03*
X1114512Y184501I-2074J0D01*
G01*
X1105980D02*
G03*
X1103906Y182427I0J-2074D01*
G01*
X1097626Y174478D02*
G03*
X1095553Y176552I-2074J0D01*
G01*
X1010894Y221661D02*
G03*
X1008820Y223735I-2074J0D01*
G01*
X1059707Y187178D02*
G03*
X1057633Y189252I-2074J0D01*
G01*
X1040748Y187178D02*
G03*
X1038674Y189252I-2074J0D01*
G01*
X1049102D02*
G03*
X1047028Y187178I0J-2074D01*
G01*
X1008820Y211055D02*
G03*
X1010894Y213129I0J2074D01*
G01*
X998638Y202701D02*
G03*
X996564Y204775I-2074J0D01*
G01*
X1030142Y189252D02*
G03*
X1028068Y187178I0J-2074D01*
G01*
X1160960Y286610D02*
G03*
X1162560Y285010I1600J0D01*
G01*
X1153080Y269770D02*
G03*
X1154680Y271370I0J1600D01*
G01*
X1142000D02*
G03*
X1143600Y269770I1600J0D01*
G01*
X1134120D02*
G03*
X1135720Y271370I0J1600D01*
G01*
X1104081D02*
G03*
X1105681Y269770I1600J0D01*
G01*
X1115161D02*
G03*
X1116760Y271370I0J1600D01*
G01*
X1123040D02*
G03*
X1124640Y269770I1600J0D01*
G01*
X1145200Y301850D02*
G03*
X1143600Y303450I-1600J0D01*
G01*
X1134120D02*
G03*
X1132520Y301850I0J-1600D01*
G01*
X1164159D02*
G03*
X1162560Y303450I-1600J0D01*
G01*
X1153080D02*
G03*
X1151480Y301850I0J-1600D01*
G01*
X1126240D02*
G03*
X1124640Y303450I-1600J0D01*
G01*
X1107281Y301850D02*
G03*
X1105681Y303450I-1600J0D01*
G01*
X1115161D02*
G03*
X1113561Y301850I0J-1600D01*
G01*
X1096201Y303450D02*
G03*
X1094601Y301850I0J-1600D01*
G01*
X1096201Y285010D02*
G03*
X1097801Y286610I0J1600D01*
G01*
X1204890Y384882D02*
X1218477D01*
X1220551Y374277D02*
Y382808D01*
X1194650Y372203D02*
X1218477D01*
X1194650Y365923D02*
X1218477D01*
X1220551Y355317D02*
Y363849D01*
Y336357D02*
Y344889D01*
X1194650Y334284D02*
X1218477D01*
X1194375Y346963D02*
X1218477D01*
X1194375Y353243D02*
X1218477D01*
X1204890Y325930D02*
X1204890Y298135D01*
X1194650Y328004D02*
X1202816D01*
X1064874Y410500D02*
X1093136D01*
X1064825Y410550D02*
X1064874Y410500D01*
X1056292Y410550D02*
X1064825D01*
X1056242Y410500D02*
X1056292Y410550D01*
X1040475Y410500D02*
X1056242D01*
X1063549Y407300D02*
X1094461D01*
X1063499Y407350D02*
X1063549Y407300D01*
X1057617Y407350D02*
X1063499D01*
X1057568Y407300D02*
X1057617Y407350D01*
X1041800Y407300D02*
X1057568D01*
X1094462Y407300D02*
X1098189D01*
X1094461Y407300D02*
X1094462Y407300D01*
X1030765Y396265D02*
X1041800Y407300D01*
X1093136Y410500D02*
X1093136Y410500D01*
X1027500Y397525D02*
X1040475Y410500D01*
X1201691Y383756D02*
X1201691Y389560D01*
X1193523Y375403D02*
X1217351D01*
X1203764Y381683D02*
X1217351D01*
X1193523Y362723D02*
X1217351D01*
X1191450Y364797D02*
Y373329D01*
X1193249Y343763D02*
X1217351D01*
X1193249Y356443D02*
X1217351D01*
X1193523Y337483D02*
X1217351D01*
X1191450Y326878D02*
Y335410D01*
X1191175Y345837D02*
Y354369D01*
X1201691Y316804D02*
Y324804D01*
Y311750D02*
Y316804D01*
X1193523Y324804D02*
X1201691D01*
X1147825Y122550D02*
X1171032Y145757D01*
X1113189Y122550D02*
X1147825D01*
X1113139Y122500D02*
X1113189Y122550D01*
X1146500Y125750D02*
X1169707Y148957D01*
X1111864Y125750D02*
X1146500D01*
X1111814Y125700D02*
X1111864Y125750D01*
X1098114Y122500D02*
X1113139D01*
X1195050Y164579D02*
Y190231D01*
X1191721Y161250D02*
X1195050Y164579D01*
X1154011Y161250D02*
X1191721D01*
X1150948Y158187D02*
X1154011Y161250D01*
X1131500Y158187D02*
X1131750D01*
X1146660D02*
X1150948D01*
X1146450Y158397D02*
Y161169D01*
X1142460Y161379D02*
X1146240D01*
X1142250Y158397D02*
Y161169D01*
X1138050Y158187D02*
X1142040D01*
X1133850D02*
X1138050D01*
X1131750D02*
X1133850D01*
X1125970Y158187D02*
X1131500Y158187D01*
X1116500Y158187D02*
X1117831D01*
X1091528Y158187D02*
X1099250D01*
X1114160Y158187D02*
X1116500D01*
X1113950Y158397D02*
Y161353D01*
X1109960Y161563D02*
X1113740D01*
X1109750Y158397D02*
Y161353D01*
X1105760Y158187D02*
X1109540Y158187D01*
X1105550Y158397D02*
Y161040D01*
X1101560Y161250D02*
X1105340D01*
X1101350Y158397D02*
Y161040D01*
X1099250Y158187D02*
X1101140D01*
X1088465Y161250D02*
X1091528Y158187D01*
X1088465Y161250D02*
Y166796D01*
X980809Y254309D02*
X981250Y254750D01*
X980809Y254309D02*
X980846Y254273D01*
X981250Y254750D02*
Y270157D01*
X981028Y174196D02*
X984949Y178118D01*
X999822Y166178D02*
X1003744Y170100D01*
X980846Y185154D02*
X984949Y181051D01*
X985468Y169755D02*
X994778Y179065D01*
X997711D02*
X1003744Y173032D01*
X1004750Y161250D02*
X1010553D01*
X1012627Y153630D02*
Y159176D01*
X1018907Y153630D02*
Y166796D01*
X1020981Y168870D02*
X1029513D01*
X1037867Y153630D02*
Y166796D01*
X1031587Y153630D02*
Y166796D01*
X974299Y198650D02*
X978772D01*
X980846Y185154D02*
Y196576D01*
X974299Y204930D02*
X986392D01*
X980846Y217610D02*
X986392D01*
X988466Y207004D02*
Y215536D01*
X1050546Y153630D02*
Y166796D01*
X1056826Y153630D02*
Y166796D01*
X1069506Y153630D02*
Y166796D01*
X1075786Y153630D02*
Y166796D01*
X1119800Y154107D02*
Y156217D01*
X1124000Y154107D02*
Y156217D01*
X1039940Y168870D02*
X1048472D01*
X1058900D02*
X1067432D01*
X1077860D02*
X1086391D01*
X1191450Y198370D02*
Y205030D01*
X1193419Y207000D02*
X1199130D01*
X1193419Y196401D02*
X1199130D01*
X1197020Y192201D02*
X1199130D01*
X1197020Y211200D02*
X1199130D01*
X977646Y216484D02*
Y252947D01*
X972750Y257843D02*
X977646Y252947D01*
X980846Y217610D02*
X980846D01*
X1198250Y163253D02*
Y189001D01*
X1193047Y158050D02*
X1198250Y163253D01*
X1155336Y158050D02*
X1193047D01*
X1152273Y154987D02*
X1155336Y158050D01*
X1131500Y154987D02*
X1152273D01*
X1127200Y154987D02*
X1131500Y154987D01*
X1127200Y152877D02*
Y154987D01*
X1118570Y150907D02*
X1125230D01*
X1116600Y152877D02*
Y154987D01*
X1090203Y154987D02*
X1116600Y154987D01*
X1119800Y154107D02*
X1124000D01*
X1085265Y159925D02*
X1090203Y154987D01*
X1085265Y159925D02*
Y165670D01*
X1187653Y221707D02*
X1191531D01*
X1195050Y218188D01*
Y213170D02*
Y218188D01*
X1199130Y207000D02*
Y211200D01*
Y192201D02*
Y196401D01*
X1069506Y153630D02*
X1075786D01*
X1050546D02*
X1056826D01*
X1031587D02*
X1037867D01*
X1012627D02*
X1018907D01*
X999822Y166178D02*
X1004750Y161250D01*
X981028Y174196D02*
X985468Y169755D01*
X974299Y198650D02*
Y204930D01*
X980846Y217610D02*
Y254273D01*
X1187653Y224907D02*
X1192856D01*
X1198250Y219513D01*
Y214400D02*
Y219513D01*
X1198250Y214400D02*
X1200360D01*
X1202330Y205770D02*
Y212430D01*
X1194650Y203800D02*
X1200360D01*
X1194650Y199601D02*
Y203800D01*
Y199601D02*
X1200360D01*
X1202330Y190971D02*
Y197631D01*
X1198250Y189001D02*
X1200360D01*
X1078986Y165670D02*
X1085265D01*
X1078986Y152504D02*
Y165670D01*
X1068380Y150430D02*
X1076912D01*
X1066306Y152504D02*
Y165670D01*
X1060026D02*
X1066306D01*
X1060026Y152504D02*
Y165670D01*
X1049420Y150430D02*
X1057952D01*
X1047346Y152504D02*
Y165670D01*
X1041066D02*
X1047346D01*
X1041066Y152504D02*
Y165670D01*
X1030461Y150430D02*
X1038992D01*
X1028387Y152504D02*
Y165670D01*
X1022107D02*
X1028387D01*
X1022107Y152504D02*
Y165670D01*
X1011501Y150430D02*
X1020033D01*
X1009427Y152504D02*
Y158050D01*
X1003425D02*
X1009427D01*
X996763Y164711D02*
X1003425Y158050D01*
X996763Y167644D02*
X1000685Y171566D01*
X996245Y176007D02*
X1000685Y171566D01*
X986935Y166697D02*
X996245Y176007D01*
X977969Y172730D02*
X984002Y166697D01*
X977969Y175663D02*
X981890Y179584D01*
X977646Y183829D02*
X981890Y179584D01*
X977646Y183829D02*
Y195451D01*
X973173D02*
X977646D01*
X971099Y197525D02*
Y206056D01*
X973173Y208130D02*
X985266D01*
Y214410D01*
X979720D02*
X985266D01*
X972750Y257843D02*
Y270157D01*
X974028Y271435D01*
Y279657D01*
X976371Y282000D01*
X979685D01*
X982028Y284343D01*
Y290000D01*
X986028Y294000D01*
X1210125Y164125D02*
X1220250Y174250D01*
X1210099Y164125D02*
X1210125D01*
X1194932Y148957D02*
X1210099Y164125D01*
X1169707Y148957D02*
X1194932D01*
X1211425Y160925D02*
X1211450D01*
X1196257Y145757D02*
X1211425Y160925D01*
X1171032Y145757D02*
X1196257D01*
X1221575Y171050D02*
X1241825D01*
X1211450Y160925D02*
X1221575Y171050D01*
X1220250Y174250D02*
X1240500D01*
X1256050Y189800D01*
X1241825Y171050D02*
X1259250Y188475D01*
Y258525D01*
X1256050Y189800D02*
Y257200D01*
X1194650Y328004D02*
Y334284D01*
X1132180Y235000D02*
X1140712D01*
X1133306Y238199D02*
X1139586D01*
X1133306D02*
Y250806D01*
X1233799Y264625D02*
X1253151D01*
X1259250Y258525D01*
X1251825Y261425D02*
X1256050Y257200D01*
X1235125Y261425D02*
X1251825D01*
X955750Y257843D02*
X958093Y255500D01*
X955750Y257843D02*
Y270157D01*
X1099439Y125700D02*
X1111814D01*
X1079939Y145200D02*
X1099439Y125700D01*
X1078614Y142000D02*
X1098114Y122500D01*
X1149065Y248830D02*
Y249029D01*
Y256050D01*
X1149076Y248819D02*
X1150929Y246966D01*
X1151140Y246755D01*
X1149065Y248830D02*
X1149076Y248819D01*
X1130106Y237073D02*
Y249680D01*
X1111146Y231073D02*
Y256050D01*
X1092187Y228709D02*
Y256050D01*
X1113220Y229000D02*
X1121752D01*
X1094261Y226635D02*
X1102793D01*
X1075102Y229920D02*
X1083833D01*
X1220187Y226338D02*
Y246695D01*
X1195880Y250155D02*
X1216727D01*
X1220187Y246695D01*
X1216987Y225013D02*
Y245370D01*
X1215402Y246955D02*
X1216987Y245370D01*
X1197205Y246955D02*
X1215402D01*
X1057244Y202449D02*
Y206137D01*
X1056429Y206347D02*
X1057034D01*
X1056218Y206557D02*
Y210336D01*
X1056429Y210546D02*
X1057034D01*
X1057244Y210756D02*
Y214536D01*
X1056429Y214746D02*
X1057034D01*
X1056218Y214956D02*
Y218736D01*
X1056429Y218946D02*
X1057034D01*
X1057244Y219156D02*
Y223146D01*
Y225246D01*
X1050964Y202449D02*
X1057244D01*
X1050964D02*
Y204926D01*
X1097237Y214556D02*
X1105769D01*
X1018222Y231865D02*
X1028232Y221855D01*
X1041134Y234757D01*
X1148087Y232853D02*
X1150000Y230940D01*
X1148087Y232853D02*
X1153734Y238500D01*
X1159687D01*
X1163122Y235065D01*
Y227872D02*
Y235065D01*
X1156950Y221700D02*
X1163122Y227872D01*
X1141724Y221700D02*
X1156950D01*
X1137054Y217029D02*
X1141724Y221700D01*
X1137054Y215500D02*
Y217029D01*
X1016997Y273293D02*
X1018222Y272069D01*
Y255460D02*
Y272069D01*
Y231865D02*
Y245033D01*
X1137054Y212612D02*
Y215500D01*
X1132184Y212402D02*
X1136844D01*
X1131974Y208413D02*
Y212192D01*
X1132184Y208203D02*
X1136844D01*
X1137054Y204213D02*
Y207993D01*
X1132184Y204003D02*
X1136844D01*
X1131974Y200013D02*
Y203793D01*
X1132184Y199803D02*
X1136844D01*
X1137054Y197703D02*
Y199593D01*
X1116197Y220000D02*
X1124729D01*
X1126803Y197000D02*
Y217927D01*
X1114123Y196699D02*
Y217927D01*
X1088884Y189822D02*
Y225246D01*
X1107843Y196699D02*
Y212482D01*
X1095163Y189822D02*
Y212482D01*
X1059318Y227320D02*
X1067850D01*
X1078278D02*
X1086810D01*
X1044067Y234757D02*
X1050100Y228724D01*
X1011357Y253386D02*
X1016148D01*
X1011357Y247107D02*
X1016148D01*
X1076204Y195051D02*
Y225246D01*
X1069924Y195051D02*
Y225246D01*
X1037198Y212889D02*
X1050100Y225791D01*
X1043087Y207000D02*
X1048890D01*
X1143050Y218500D02*
X1158275D01*
X1166322Y226547D01*
X1142265Y231184D02*
X1142946Y231864D01*
X1104643Y195574D02*
Y211356D01*
X1106717Y193500D02*
X1115249D01*
X1087757Y186622D02*
X1096289D01*
X1010231Y256586D02*
X1015022D01*
X1010231Y243907D02*
X1015022D01*
Y230540D02*
X1026766Y218796D01*
X1008157Y245981D02*
Y254513D01*
X1066724Y193925D02*
Y224120D01*
X1085684Y188696D02*
Y224120D01*
X1068798Y191851D02*
X1077330D01*
X1034139Y214356D02*
X1047041Y227257D01*
X1034139Y211423D02*
X1041762Y203800D01*
X1029699Y218796D02*
X1042601Y231698D01*
X1049838Y199250D02*
X1058370D01*
X1047765Y201324D02*
Y203800D01*
X1140254Y215704D02*
X1143050Y218500D01*
X1166322Y226547D02*
Y236390D01*
X1142265Y231184D02*
X1142974Y230474D01*
X1152409Y241700D02*
X1161012D01*
X1144887Y233078D02*
Y234178D01*
X1142974Y231165D02*
X1144887Y233078D01*
X1150000Y230250D02*
Y230940D01*
X1144887Y234178D02*
X1152409Y241700D01*
X1140254Y196378D02*
Y215704D01*
X1137676Y193800D02*
X1140254Y196378D01*
X1125477Y193800D02*
X1137676D01*
X1136351Y197000D02*
X1137054Y197703D01*
X1161012Y241700D02*
X1166322Y236390D01*
X1122437Y407350D02*
X1133940D01*
X1098239D02*
X1105500D01*
X1111237D01*
Y405824D02*
Y407350D01*
X1111397Y405664D02*
X1114277D01*
X1114437Y405824D02*
Y407350D01*
X1117637D01*
Y405824D02*
Y407350D01*
X1117797Y405664D02*
X1120677D01*
X1120837Y405824D02*
Y407350D01*
X1122437D01*
X1213293Y285207D02*
X1224347D01*
X1201691Y296810D02*
X1213293Y285207D01*
X1204890Y298135D02*
X1214618Y288407D01*
X1224347D01*
X1098189Y407300D02*
X1098239Y407350D01*
X1096864Y410500D02*
X1096914Y410550D01*
X1093136Y410500D02*
X1096864D01*
X1204890Y384882D02*
X1204890Y390885D01*
X1192818Y402957D02*
X1204890Y390885D01*
X1172386Y402957D02*
X1192818D01*
X1164793Y410550D02*
X1172386Y402957D01*
X1096914Y410550D02*
X1164793D01*
X1191493Y399757D02*
X1201691Y389560D01*
X1171061Y399757D02*
X1191493D01*
X1163468Y407350D02*
X1171061Y399757D01*
X1133940Y407350D02*
X1163468D01*
X1195950Y240468D02*
Y245700D01*
X1190139Y234657D02*
X1195950Y240468D01*
Y245700D02*
X1197205Y246955D01*
X1184480Y237857D02*
X1188814D01*
X1192750Y241793D01*
Y247025D01*
X1195880Y250155D01*
X1141660Y259250D02*
X1150191D01*
X1122700Y252880D02*
X1131232D01*
X1152265Y250155D02*
Y257176D01*
X1103740Y259250D02*
X1112272D01*
X1139586Y238199D02*
Y257176D01*
X1114346Y232199D02*
Y257176D01*
X1101667Y229835D02*
Y257176D01*
X1095387Y229835D02*
Y257176D01*
X1120626Y232199D02*
Y250806D01*
X1084781Y259250D02*
X1093313D01*
X1082707Y233119D02*
Y257176D01*
X1178750Y239062D02*
Y270500D01*
Y239062D02*
X1183155Y234657D01*
X1176493Y272757D02*
X1178750Y270500D01*
X1181950Y240387D02*
X1184480Y237857D01*
X1181950Y240387D02*
Y271825D01*
X1169707Y275957D02*
X1177818D01*
X1181950Y271825D01*
X1171032Y272757D02*
X1176493D01*
X1183155Y234657D02*
X1190139D01*
X1167450Y269175D02*
X1171032Y272757D01*
X1167450Y250692D02*
Y269175D01*
X1164250Y270500D02*
X1169707Y275957D01*
X1164250Y252018D02*
Y270500D01*
X1163512Y246755D02*
X1167450Y250692D01*
X1162187Y249955D02*
X1164250Y252018D01*
X1151140Y246755D02*
X1163512D01*
X1152466Y249955D02*
X1162187D01*
X1152265Y250155D02*
X1152466Y249955D01*
X1030765Y369237D02*
Y396265D01*
X1027565Y370563D02*
Y397525D01*
X1027344Y370341D02*
X1027565Y370563D01*
X1030028Y368500D02*
X1030765Y369237D01*
X1014028Y359657D02*
X1024712Y370341D01*
X1027344D01*
X1019685Y354000D02*
X1022028Y356343D01*
Y359657D01*
X1024371Y362000D01*
X1027685D01*
X1030028Y364343D01*
Y368500D01*
X990028Y335657D02*
X992371Y338000D01*
X995685D01*
X998028Y340343D01*
Y343657D01*
X1000371Y346000D01*
X1003765D01*
X1006028Y348263D01*
Y351657D01*
X1008371Y354000D01*
X1011685D01*
X1014028Y356343D01*
Y359657D01*
X995685Y330000D02*
X998028Y332343D01*
Y335657D01*
X1000371Y338000D01*
X1003685D01*
X1006028Y340343D01*
Y343737D01*
X1008291Y346000D01*
X1011685D01*
X1014028Y348343D01*
Y351657D01*
X1016371Y354000D01*
X1019685D01*
X992371Y330000D02*
X995685D01*
X990028Y327657D02*
X992371Y330000D01*
X987685Y330000D02*
X990028Y332343D01*
Y335657D01*
X982028Y308343D02*
X984371Y306000D01*
X982028Y308343D02*
Y327657D01*
X984371Y330000D01*
X987685D01*
X990028Y308343D02*
Y327657D01*
X992371Y298000D02*
X995685D01*
X990028Y300343D02*
X992371Y298000D01*
X990028Y300343D02*
Y303657D01*
X987685Y306000D02*
X990028Y303657D01*
X984371Y306000D02*
X987685D01*
X998028Y300343D02*
X1000371Y298000D01*
X998028Y300343D02*
Y303657D01*
X995685Y306000D02*
X998028Y303657D01*
X992371Y306000D02*
X995685D01*
X990028Y308343D02*
X992371Y306000D01*
X995685Y298000D02*
X998885Y294800D01*
X1001492Y294536D02*
X1002028Y294000D01*
X1000189Y294536D02*
X1001492D01*
X999925Y294800D02*
X1000189Y294536D01*
X998885Y294800D02*
X999925D01*
X1005588Y297560D02*
X1010028Y302000D01*
X1004125Y297560D02*
X1005588D01*
X1003685Y298000D02*
X1004125Y297560D01*
X1000371Y298000D02*
X1003685D01*
X1138851Y336974D02*
Y368687D01*
X1132571D02*
X1138851D01*
X1132571Y308123D02*
Y316750D01*
Y324750D02*
Y368687D01*
Y324750D02*
X1133468D01*
X1133628Y321710D02*
Y324590D01*
X1132571Y321550D02*
X1133468D01*
X1132571Y318350D02*
Y321550D01*
Y316750D02*
Y318350D01*
X1167337Y310607D02*
X1173547D01*
X1161962Y315982D02*
X1167337Y310607D01*
X1161962Y315982D02*
Y316250D01*
Y319288D01*
X1157042D02*
X1161962D01*
X1156882Y319448D02*
Y322328D01*
X1157042Y322488D02*
X1161962D01*
Y325688D01*
Y327288D01*
X1157511Y331739D02*
X1161962Y327288D01*
X1155481Y333769D02*
X1157511Y331739D01*
X1154350Y334900D02*
X1155481Y333769D01*
X1152124Y334900D02*
X1154350D01*
X1148924D02*
X1152124D01*
X1067395Y338100D02*
X1072492D01*
X1066910Y334900D02*
X1073618D01*
X1168663Y313807D02*
X1173547D01*
X1165162Y317308D02*
X1168663Y313807D01*
X1165162Y317308D02*
Y328613D01*
X1159774Y334002D02*
X1165162Y328613D01*
X1157744Y336031D02*
X1159774Y334002D01*
X1155676Y338100D02*
X1157744Y336031D01*
X1152124Y338100D02*
X1155676D01*
X1148924D02*
X1152124D01*
X1145724D02*
X1148924D01*
X1142051D02*
X1145724D01*
X1142051D02*
Y369813D01*
X1131445Y371887D02*
X1139977D01*
X1129371Y309249D02*
Y369813D01*
X1123091Y309249D02*
X1129371D01*
X1123091D02*
Y352691D01*
X1112485Y354765D02*
X1121017D01*
X1110411Y309249D02*
Y352691D01*
X1104131Y309249D02*
X1110411D01*
X1104131D02*
Y353963D01*
X1093526Y356037D02*
X1102057D01*
X1091452Y322237D02*
Y353963D01*
X1085172Y322237D02*
X1091452D01*
X1085172D02*
Y391906D01*
X1074566Y393980D02*
X1083098D01*
X1072492Y338100D02*
Y391906D01*
X1064495Y341000D02*
X1067395Y338100D01*
X1049500Y341000D02*
X1064495D01*
X1046500Y338000D02*
X1049500Y341000D01*
X1008371Y338000D02*
X1046500D01*
X1006028Y335657D02*
X1008371Y338000D01*
X1006028Y332182D02*
Y335657D01*
X1003846Y330000D02*
X1006028Y332182D01*
X1000371Y330000D02*
X1003846D01*
X998028Y327657D02*
X1000371Y330000D01*
X998028Y314000D02*
Y327657D01*
X994028Y310000D02*
X998028Y314000D01*
X1145724Y329980D02*
Y334900D01*
X1142525D02*
X1145724D01*
X1140925D02*
X1142525D01*
X1121965Y306049D02*
X1130497D01*
X1119891Y308123D02*
Y351565D01*
X1113611D02*
X1119891D01*
X1113611Y308123D02*
Y351565D01*
X1103006Y306049D02*
X1111537D01*
X1100932Y308123D02*
Y352837D01*
X1094652D02*
X1100932D01*
X1094652Y321111D02*
Y352837D01*
X1084046Y319037D02*
X1092578D01*
X1081972Y321111D02*
Y390780D01*
X1075692D02*
X1081972D01*
X1075692Y336974D02*
Y390780D01*
X1064010Y332000D02*
X1066910Y334900D01*
X1041105Y332000D02*
X1064010D01*
X1039105Y330000D02*
X1041105Y332000D01*
X1008371Y330000D02*
X1039105D01*
X1006028Y327657D02*
X1008371Y330000D01*
X1006028Y322000D02*
Y327657D01*
X1002028Y318000D02*
X1006028Y322000D01*
X1148924Y329980D02*
Y334900D01*
X1201691Y316804D02*
X1201691Y296810D01*
X1145884Y329820D02*
X1148764D01*
X1081843Y288157D02*
X1094601D01*
X1080619Y289381D02*
X1081843Y288157D01*
X1078357Y291643D02*
X1080619Y289381D01*
X1078357Y291643D02*
X1081024Y294310D01*
X1078987Y296573D02*
X1081024Y294537D01*
X1076094Y293906D02*
X1078761Y296573D01*
X1073831Y296169D02*
X1076094Y293906D01*
X1072700Y297300D02*
X1073831Y296169D01*
X1072700Y297300D02*
Y300376D01*
X1076472D01*
X1076632Y300536D02*
Y303416D01*
X1072700Y303576D02*
X1076472D01*
X1072700D02*
Y306776D01*
Y309975D01*
Y311575D01*
X1071406Y312869D02*
X1072700Y311575D01*
X1069144Y315131D02*
X1071406Y312869D01*
X1066881Y317394D02*
X1069144Y315131D01*
X1065750Y318525D02*
X1066881Y317394D01*
X1065750Y318525D02*
Y320907D01*
X1063407Y323250D02*
X1065750Y320907D01*
X1051093Y323250D02*
X1063407D01*
X1049843Y322000D02*
X1051093Y323250D01*
X1014028Y322000D02*
X1049843D01*
X1010028Y318000D02*
X1014028Y322000D01*
X1076427Y233119D02*
X1082707D01*
X1070000Y239547D02*
X1076427Y233119D01*
X1070000Y239547D02*
Y244653D01*
X1063220Y251433D02*
X1070000Y244653D01*
X1050181Y251433D02*
X1063220D01*
X1044747Y246000D02*
X1050181Y251433D01*
X1039216Y246000D02*
X1044747D01*
X1035102Y250114D02*
X1039216Y246000D01*
X1035102Y250114D02*
Y250470D01*
Y253670D01*
X1040022D01*
X1040182Y253830D02*
Y256710D01*
X1035102Y256870D02*
X1040022D01*
X1035102D02*
Y260070D01*
X1040022D01*
X1040182Y260229D02*
Y263109D01*
X1035102Y263269D02*
X1040022D01*
X1035102D02*
Y266469D01*
Y269669D01*
Y271269D01*
X1030028Y276343D02*
X1035102Y271269D01*
X1061072Y248234D02*
X1066800Y242506D01*
X1051506Y248234D02*
X1061072D01*
X1046073Y242800D02*
X1051506Y248234D01*
X1066800Y238221D02*
Y242506D01*
X1031902Y248788D02*
Y269944D01*
Y248788D02*
X1037890Y242800D01*
X1046073D01*
X1066800Y238221D02*
X1075102Y229920D01*
X1126803Y197000D02*
X1136351D01*
X1028068Y176552D02*
Y187178D01*
X1013911Y176552D02*
X1028068D01*
X998638Y191826D02*
X1000500Y189963D01*
X1003894Y186569D02*
X1013911Y176552D01*
X1003894Y186569D02*
X1005471Y188146D01*
X1003434Y190409D02*
X1005471Y188373D01*
X1001631Y188832D02*
X1003208Y190409D01*
X1000500Y189963D02*
X1001631Y188832D01*
X998638Y191826D02*
Y202701D01*
X983149Y301464D02*
X985492D01*
X979685Y298000D02*
X983149Y301464D01*
X976371Y298000D02*
X979685D01*
X974028Y295657D02*
X976371Y298000D01*
X974028Y284343D02*
Y295657D01*
X971685Y282000D02*
X974028Y284343D01*
X968210Y282000D02*
X971685D01*
X966028Y279818D02*
X968210Y282000D01*
X966028Y272185D02*
Y279818D01*
X963875Y270032D02*
X966028Y272185D01*
X963875Y257968D02*
Y270032D01*
Y257968D02*
X968500Y253343D01*
Y155250D02*
Y215500D01*
Y229344D01*
X971779D01*
X971939Y229504D02*
Y232384D01*
X968500Y232544D02*
X971779D01*
X968500D02*
Y235744D01*
X971779D01*
X971939Y235904D02*
Y238784D01*
X968500Y238944D02*
X971779D01*
X968500D02*
Y242144D01*
X971779D01*
X971939Y242304D02*
Y245184D01*
X968500Y245343D02*
X971779D01*
X968500D02*
Y248543D01*
Y251743D01*
Y253343D01*
Y155250D02*
X978550Y145200D01*
X1079939D01*
X971685Y298000D02*
X974885Y301200D01*
X968371Y298000D02*
X971685D01*
X966028Y295657D02*
X968371Y298000D01*
X966028Y284343D02*
Y295657D01*
X963685Y282000D02*
X966028Y284343D01*
X960371Y282000D02*
X963685D01*
X958028Y279657D02*
X960371Y282000D01*
X958028Y272435D02*
Y279657D01*
X955750Y270157D02*
X958028Y272435D01*
X958093Y255500D02*
X961818D01*
X965300Y252018D01*
Y153925D02*
Y252018D01*
Y153925D02*
X977225Y142000D01*
X1078614D01*
X1132346Y175426D02*
Y186052D01*
X1145182Y175272D02*
Y181432D01*
X1134420Y173352D02*
X1140062Y173352D01*
X1147102D02*
X1166282Y173352D01*
X1115460Y163850D02*
X1123992D01*
X1094427Y165924D02*
Y173352D01*
X1113386Y165924D02*
Y181301D01*
X1075467Y175426D02*
Y186052D01*
X1096500Y163850D02*
X1105032D01*
X1077541Y173352D02*
X1094427D01*
X997512Y220535D02*
X1007694D01*
X1056507Y175426D02*
Y186052D01*
X1037548Y175426D02*
Y186052D01*
X1058581Y173352D02*
X1067113D01*
X1039622D02*
X1048154D01*
X993139Y214255D02*
X1007694D01*
X993139Y201575D02*
X995438D01*
X991065Y203649D02*
Y212181D01*
X1012586Y173352D02*
X1029194D01*
X1168700Y175770D02*
Y209797D01*
X1165500Y212997D02*
X1168700Y209797D01*
X1124940Y189252D02*
X1133472D01*
X1140702Y184632D02*
X1146462D01*
X1068061Y189252D02*
X1076593D01*
X1148382Y176552D02*
Y182712D01*
X1135546Y176552D02*
Y187178D01*
X1138783Y176552D02*
Y182712D01*
X1105980Y184501D02*
X1114512D01*
X1122866Y167049D02*
Y187178D01*
X1078667Y176552D02*
Y187178D01*
X1103906Y167049D02*
Y182427D01*
X1097626Y167049D02*
Y174478D01*
X1116586Y167049D02*
Y182427D01*
X1078667Y176552D02*
X1095553D01*
X1010894Y213129D02*
Y221661D01*
X998638Y223735D02*
X1008820D01*
X1049102Y189252D02*
X1057633D01*
X1059707Y176552D02*
Y187178D01*
X1030142Y189252D02*
X1038674D01*
X1047028Y176552D02*
Y187178D01*
X1065987Y176552D02*
Y187178D01*
X1040748Y176552D02*
Y187178D01*
X994265Y211055D02*
X1008820D01*
X994265Y204775D02*
X996564D01*
X1148382Y176552D02*
X1164957Y176552D01*
X1165500Y177095D01*
X1141982Y181432D02*
X1145182D01*
X1166282Y173352D02*
X1168700Y175770D01*
X1165500Y177095D02*
Y207600D01*
X1159100Y214000D02*
X1165500Y207600D01*
X1141982Y175272D02*
Y181432D01*
X1135546Y176552D02*
X1138783Y176552D01*
X1126066Y186052D02*
X1132346D01*
X1126066Y165924D02*
Y186052D01*
X1107106Y181301D02*
X1113386D01*
X1107106Y165924D02*
Y181301D01*
X1069187Y186052D02*
X1075467D01*
X1069187Y175426D02*
Y186052D01*
X1050228D02*
X1056507D01*
X1050228Y175426D02*
Y186052D01*
X1031268D02*
X1037548D01*
X1031268Y175426D02*
Y186052D01*
X995438Y190500D02*
X1012586Y173352D01*
X995438Y190500D02*
Y201575D01*
X1007694Y214255D02*
Y220535D01*
X995438Y222609D02*
Y228412D01*
X986550Y237299D02*
X995438Y228412D01*
X986550Y237299D02*
Y255143D01*
X989250Y257843D01*
Y264426D01*
X990336Y265513D01*
X1135546Y176552D02*
Y176552D01*
X998638Y223735D02*
X998638D01*
X1116586Y167049D02*
X1122866D01*
X1097626D02*
X1103906D01*
X1059707Y176552D02*
X1065987D01*
X1040748D02*
X1047028D01*
X994265Y204775D02*
Y211055D01*
X998638Y223735D02*
Y229737D01*
X989750Y238625D02*
X998638Y229737D01*
X989750Y238625D02*
Y253818D01*
X992450Y256518D01*
Y263101D01*
X993849Y264500D01*
X995657D01*
X998028Y266871D01*
Y279657D01*
X1000371Y282000D01*
X1003685D01*
X1006028Y284343D01*
Y287657D01*
X1123603Y195675D02*
Y216800D01*
Y195675D02*
X1125477Y193800D01*
X1210421Y203768D02*
X1214682Y199507D01*
X1237047D01*
X1237750Y200210D01*
Y204257D01*
X1207221Y202443D02*
X1213357Y196307D01*
X1237047D01*
X1237750Y195604D01*
Y191557D02*
Y195604D01*
X1212021Y231997D02*
Y233000D01*
X1210421Y230397D02*
X1212021Y231997D01*
X1210421Y203768D02*
Y230397D01*
X1205621Y231997D02*
Y233000D01*
Y231997D02*
X1207221Y230397D01*
Y202443D02*
Y230397D01*
X1194650Y365923D02*
Y372203D01*
X1194375Y346963D02*
Y353243D01*
X1217351Y375403D02*
Y381683D01*
Y356443D02*
Y362723D01*
Y337483D02*
Y343763D01*
X1201691Y296750D02*
Y296810D01*
X1160960Y286610D02*
Y300250D01*
X1142000Y271370D02*
Y300250D01*
X1143600Y269770D02*
X1153080D01*
X1124640D02*
X1134120D01*
X1123040Y271370D02*
Y300250D01*
X1105681Y269770D02*
X1115161D01*
X1104081Y271370D02*
Y300250D01*
X1263175Y324800D02*
X1266057Y321917D01*
Y284783D02*
Y321917D01*
X1257232Y275957D02*
X1266057Y284783D01*
X1264500Y328000D02*
X1269257Y323243D01*
Y283457D02*
Y323243D01*
X1258557Y272757D02*
X1269257Y283457D01*
X1207818Y275957D02*
X1257232D01*
X1206493Y272757D02*
X1258557D01*
X1255300Y324800D02*
X1263175D01*
X1253975Y328000D02*
X1264500D01*
X1251000Y320500D02*
X1255300Y324800D01*
X1247800Y321825D02*
X1253975Y328000D01*
X1134120Y303450D02*
X1143600D01*
X1153080D02*
X1162560D01*
X1164159Y288210D02*
Y301850D01*
X1151480Y272970D02*
Y301850D01*
X1145200Y272970D02*
Y301850D01*
X1096201Y303450D02*
X1105681D01*
X1115161D02*
X1124640D01*
X1126240Y272970D02*
Y301850D01*
X1132520Y272970D02*
Y301850D01*
X1113561Y272970D02*
Y301850D01*
X1107281Y272970D02*
Y301850D01*
X1094601Y288210D02*
Y301850D01*
X1247800Y304816D02*
Y321825D01*
X1251000Y303490D02*
Y320500D01*
X1245010Y297500D02*
X1251000Y303490D01*
X1237750Y297500D02*
X1245010D01*
X1237500Y300700D02*
X1243684D01*
X1247800Y304816D01*
X1186950Y221004D02*
X1187653Y221707D01*
X1238453Y250307D02*
X1243523D01*
X1238453Y247107D02*
X1242197D01*
X1243523Y250307D02*
X1248629Y245201D01*
X1242197Y247107D02*
X1245429Y243876D01*
X1248629Y227853D02*
Y245201D01*
X1245429Y229179D02*
Y243876D01*
X1242563Y221787D02*
X1248629Y227853D01*
X1241237Y224987D02*
X1245429Y229179D01*
X1220213Y221787D02*
X1242563D01*
X1221538Y224987D02*
X1241237D01*
X1216987Y225013D02*
X1220213Y221787D01*
X1220187Y226338D02*
X1221538Y224987D01*
X1142786Y256050D02*
X1149065D01*
X1142786Y237073D02*
Y256050D01*
X1123826Y249680D02*
X1130106D01*
X1123826Y231073D02*
Y249680D01*
X1104866Y256050D02*
X1111146D01*
X1104866Y228709D02*
Y256050D01*
X1085907D02*
X1092187D01*
X1085907Y231994D02*
Y256050D01*
X1027846Y274000D02*
X1031902Y269944D01*
X1024371Y274000D02*
X1027846D01*
X1022028Y276343D02*
X1024371Y274000D01*
X1022028Y276343D02*
Y287657D01*
X1019685Y290000D02*
X1022028Y287657D01*
X1016371Y290000D02*
X1019685D01*
X1014028Y292343D02*
X1016371Y290000D01*
X1014028Y292343D02*
Y303657D01*
X1011685Y306000D02*
X1014028Y303657D01*
X1008371Y306000D02*
X1011685D01*
X1114346Y232199D02*
X1120626D01*
X1095387Y229835D02*
X1101667D01*
X1015022Y256586D02*
Y270743D01*
Y230540D02*
Y243907D01*
X1011357Y247107D02*
Y253386D01*
X1042601Y231698D02*
X1047041Y227257D01*
X1037198Y212889D02*
X1043087Y207000D01*
X1041762Y203800D02*
X1047765D01*
X1060444Y201324D02*
Y224120D01*
X1066724D01*
X1079404Y193925D02*
Y224120D01*
X1085684D01*
X1098363Y188696D02*
Y211356D01*
X1104643D01*
X1117323Y195574D02*
Y216800D01*
X1123603D01*
X1069924Y195051D02*
X1076204D01*
X1088884Y189822D02*
X1095163D01*
X1107843Y196699D02*
X1114123D01*
X1013798Y271968D02*
X1015022Y270743D01*
X1013798Y271968D02*
Y271968D01*
X1014028Y276263D02*
X1016997Y273293D01*
X1014028Y276263D02*
Y282000D01*
X990336Y265513D02*
Y266507D01*
X990000Y266843D02*
X990336Y266507D01*
X990000Y266843D02*
Y273236D01*
X1142974Y230474D02*
Y231165D01*
X1237750Y251010D02*
Y255057D01*
Y251010D02*
X1238453Y250307D01*
X1237750Y242357D02*
Y246404D01*
X1238453Y247107D01*
X1225050Y251010D02*
Y255057D01*
Y251010D02*
X1225753Y250307D01*
X1226747D01*
X1229737Y253297D01*
X1225050Y242357D02*
Y246404D01*
X1225753Y247107D01*
X1228072D01*
X1232937Y251972D01*
Y259237D01*
X1229737Y253297D02*
Y260563D01*
X1233799Y264625D01*
X1232937Y259237D02*
X1235125Y261425D01*
X1186950Y225610D02*
Y229657D01*
Y225610D02*
X1187653Y224907D01*
X1186950Y216957D02*
Y221004D01*
X1165500Y212997D02*
Y214000D01*
X1010028Y286000D02*
X1014028Y282000D01*
X974885Y301200D02*
X975925D01*
X976189Y301464D01*
X977492D01*
X978028Y302000D01*
X985492Y301464D02*
X986028Y302000D01*
X981250Y270157D02*
X982028Y270935D01*
Y279657D01*
X984371Y282000D01*
X987685D01*
X990028Y284343D01*
Y290000D01*
X994028Y294000D01*
X990000Y273236D02*
X990028Y273264D01*
Y279657D01*
X992371Y282000D01*
X995846D01*
X999046Y285200D01*
X999925D01*
X1000189Y285464D01*
X1001492D01*
X1002028Y286000D01*
X1005588Y288097D02*
X1006028Y287657D01*
X1005588Y288097D02*
Y289560D01*
X1010028Y294000D01*
X1011765Y274000D02*
X1013798Y271968D01*
X1006028Y274000D02*
X1011765D01*
X1002028Y278000D02*
X1006028Y274000D01*
X1016997Y273293D02*
Y273293D01*
X1030028Y276343D02*
Y277200D01*
X1030028D02*
X1030028D01*
X1030028D02*
Y287657D01*
X1027685Y290000D02*
X1030028Y287657D01*
X1024371Y290000D02*
X1027685D01*
X1022028Y292343D02*
X1024371Y290000D01*
X1022028Y292343D02*
Y295657D01*
X1022028Y295657D02*
Y303657D01*
Y295657D02*
X1022028Y295657D01*
X1019685Y306000D02*
X1022028Y303657D01*
X1016210Y306000D02*
X1019685D01*
X1013010Y309200D02*
X1016210Y306000D01*
X1007931Y306440D02*
X1008371Y306000D01*
X1006468Y306440D02*
X1007931D01*
X1002028Y302000D02*
X1006468Y306440D01*
X1012131Y309200D02*
X1013010D01*
X1011867Y309464D02*
X1012131Y309200D01*
X1010564Y309464D02*
X1011867D01*
X1010028Y310000D02*
X1010564Y309464D01*
X1173547Y313807D02*
X1174250Y314510D01*
Y318557D01*
X1173547Y310607D02*
X1174250Y309904D01*
Y305857D02*
Y309904D01*
X1042947Y313960D02*
X1065790D01*
X1042907Y314000D02*
X1042947Y313960D01*
X1065790D02*
X1069500Y310250D01*
X1135720Y300250D02*
X1142000D01*
X1116760D02*
X1123040D01*
X1154680D02*
X1160960D01*
X1097801D02*
X1104081D01*
X1080518Y284957D02*
X1096201D01*
X1162560D02*
X1194293D01*
X1154680Y271370D02*
Y300250D01*
X1116760Y271370D02*
Y300250D01*
X1069500Y295975D02*
Y310250D01*
X1107281Y272970D02*
X1113561D01*
X1042907Y314000D02*
X1045475D01*
X1006028D02*
X1042907D01*
X1194293Y284957D02*
X1206493Y272757D01*
X1195619Y288157D02*
X1207818Y275957D01*
X1135720Y271370D02*
Y300250D01*
X1097801Y286610D02*
Y300250D01*
X1164159Y288157D02*
X1195619D01*
X1145200Y272970D02*
X1151480D01*
X1126240D02*
X1132520D01*
X1069500Y295975D02*
X1080518Y284957D01*
X1237500Y300700D02*
Y305607D01*
X1002028Y310000D02*
X1006028Y314000D01*
X1237750Y294185D02*
Y297500D01*
X1237500Y305607D02*
X1237750Y305857D01*
X1237250Y293685D02*
X1237750Y294185D01*
X1237250Y293500D02*
Y293685D01*
X1224347Y288407D02*
X1225050Y289110D01*
Y293157D01*
X1224347Y285207D02*
X1225050Y284504D01*
Y280457D02*
Y284504D01*
D84*
X1203588Y552057D02*
X1239780D01*
X1179131Y527600D02*
X1203588Y552057D01*
X1079165Y527600D02*
X1179131D01*
X1225050Y77257D02*
X1233457Y68850D01*
X1272780D01*
X1318464Y114534D01*
Y408488D01*
X1265100Y461852D02*
X1318464Y408488D01*
X1211480Y564757D02*
X1239780D01*
X1188980Y542257D02*
X1211480Y564757D01*
X1131921Y542257D02*
X1188980D01*
X1101778Y572400D02*
X1131921Y542257D01*
X908350Y572400D02*
X1101778D01*
X1237750Y496357D02*
X1242650Y501257D01*
Y549187D01*
X1239780Y552057D02*
X1242650Y549187D01*
X1049473Y557292D02*
X1079165Y527600D01*
X918650Y557292D02*
X1049473D01*
X900142Y575800D02*
X918650Y557292D01*
X1156750Y262250D02*
X1156750Y262250D01*
X1098982Y262250D02*
X1156750D01*
X1066500Y294732D02*
X1098982Y262250D01*
X1066500Y294732D02*
Y298972D01*
X1060072Y305400D02*
X1066500Y298972D01*
X1053650Y305400D02*
X1060072D01*
X841000Y611250D02*
X855500Y625750D01*
X962400D02*
X965550Y622600D01*
X855500Y625750D02*
X962400D01*
X1208250Y455000D02*
X1208750Y454500D01*
X1225000Y494750D02*
Y509000D01*
X1208250Y478000D02*
X1225000Y494750D01*
X1208250Y455000D02*
Y478000D01*
X1265100Y461852D02*
Y539437D01*
X1239780Y564757D02*
X1265100Y539437D01*
X765500Y591500D02*
X808250D01*
X916000Y405000D02*
Y459317D01*
X1060558Y361058D02*
Y400250D01*
X1168400Y612600D02*
X1217051D01*
X691000Y598000D02*
X727680D01*
X922183Y535600D02*
X948030D01*
X905383Y552400D02*
X922183Y535600D01*
X879537Y552400D02*
X905383D01*
X808250Y591500D02*
X808719D01*
X1033420Y534650D02*
X1067306D01*
X1022670Y545400D02*
X1033420Y534650D01*
X1008188Y545400D02*
X1022670D01*
X1001280Y538492D02*
X1008188Y545400D01*
X984938Y538492D02*
X1001280D01*
X827820Y572400D02*
X859537D01*
X808719Y591500D02*
X827820Y572400D01*
X1217351Y513957D02*
X1220150D01*
X859537Y572400D02*
X879537Y552400D01*
X824930Y543392D02*
X841515Y526807D01*
X756142Y543392D02*
X824930D01*
X740500Y527750D02*
X756142Y543392D01*
X808250Y533250D02*
X854500Y487000D01*
X766000Y533250D02*
X808250D01*
X760500Y527750D02*
X766000Y533250D01*
X841000Y595500D02*
Y611250D01*
X816000Y598000D02*
X838200Y575800D01*
X900142D01*
X931373Y526807D02*
X940236Y517944D01*
X964264D01*
X970970Y524650D01*
X1028780D01*
X841515Y526807D02*
X931373D01*
X917270Y482850D02*
X988302D01*
X913120Y487000D02*
X917270Y482850D01*
X854500Y487000D02*
X913120D01*
X865100Y619900D02*
X870250Y614750D01*
X870125Y614875D02*
X881063D01*
X858720Y619900D02*
X865100D01*
X855850Y610850D02*
Y617030D01*
X851500Y606500D02*
X855850Y610850D01*
Y617030D02*
X858720Y619900D01*
X857000Y595500D02*
X857574Y594926D01*
X857000Y581815D02*
Y595500D01*
X857574Y594926D02*
X862324D01*
X865250Y592000D01*
X872094D01*
X873344Y593250D01*
X881000D01*
X898750Y582000D02*
X908350Y572400D01*
X881063Y614875D02*
X883188Y612750D01*
X884000D01*
X911750Y582000D02*
X912250Y582500D01*
X1138600Y500150D02*
X1139707Y501257D01*
X1176280D01*
X1181328Y496209D01*
Y489279D02*
Y496209D01*
Y489279D02*
X1186950Y483657D01*
X1103396Y500150D02*
X1138600D01*
X1102918Y499672D02*
X1103396Y500150D01*
X1086284Y499672D02*
X1102918D01*
X1083414Y502542D02*
X1086284Y499672D01*
X1083414Y502542D02*
Y506516D01*
X1065280Y524650D02*
X1083414Y506516D01*
X1058080Y524650D02*
X1065280D01*
X1055280Y521850D02*
X1058080Y524650D01*
X1031580Y521850D02*
X1055280D01*
X1028780Y524650D02*
X1031580Y521850D01*
X1193922Y483699D02*
Y489385D01*
X1186950Y496357D02*
X1193922Y489385D01*
X1187530Y477307D02*
X1193922Y483699D01*
X1186370Y477307D02*
X1187530D01*
X1182050Y472987D02*
X1186370Y477307D01*
X1182050Y471827D02*
Y472987D01*
X1176280Y466057D02*
X1182050Y471827D01*
X1114836Y466057D02*
X1176280D01*
X1107871Y473022D02*
X1114836Y466057D01*
X1073638Y473022D02*
X1107871D01*
X1070810Y475850D02*
X1073638Y473022D01*
X1037470Y475850D02*
X1070810D01*
X1034291Y479029D02*
X1037470Y475850D01*
X1034291Y479029D02*
Y482797D01*
X1031112Y485976D02*
X1034291Y482797D01*
X1003704Y485976D02*
X1031112D01*
X1001524Y483796D02*
X1003704Y485976D01*
X989248Y483796D02*
X1001524D01*
X988302Y482850D02*
X989248Y483796D01*
X1149957Y495250D02*
X1174250Y470957D01*
X1118000Y495250D02*
X1149957D01*
X1087999Y513957D02*
X1217351D01*
X1067306Y534650D02*
X1087999Y513957D01*
X978030Y545400D02*
X984938Y538492D01*
X957830Y545400D02*
X978030D01*
X948030Y535600D02*
X957830Y545400D01*
X1060000Y350000D02*
Y360500D01*
X1060558Y361058D01*
X1026028Y310000D02*
X1030028Y306000D01*
X1039098Y306889D02*
X1041959Y309750D01*
X1042500D01*
X1306949Y205353D02*
X1312350Y199952D01*
X1305365Y205353D02*
X1306949D01*
X1299964Y210754D02*
X1305365Y205353D01*
X1299964Y210754D02*
Y214384D01*
X1293908Y220440D02*
X1299964Y214384D01*
X1300346Y141417D02*
X1305010Y146080D01*
X1299513Y141417D02*
X1300346D01*
X1294849Y136753D02*
X1299513Y141417D01*
X1294849Y130983D02*
Y136753D01*
X1289844Y125978D02*
X1294849Y130983D01*
X1311508Y165278D02*
Y172188D01*
X1305010Y158780D02*
X1311508Y165278D01*
X1305010Y146080D02*
Y158780D01*
X1315064Y130878D02*
Y173440D01*
X1312350Y176154D02*
X1315064Y173440D01*
X1312350Y176154D02*
Y199952D01*
X1049250Y301000D02*
X1053650Y305400D01*
X1310164Y125978D02*
X1315064Y130878D01*
X1306608Y177088D02*
X1311508Y172188D01*
X727680Y598000D02*
X733430Y592250D01*
X1220150Y513957D02*
X1225050Y509057D01*
X751680Y592250D02*
X755830Y596400D01*
X760600D01*
X733430Y592250D02*
X751680D01*
X760600Y596400D02*
X765500Y591500D01*
X774500Y617250D02*
X793750Y598000D01*
X706750Y604500D02*
X719500Y617250D01*
X774500D01*
X793750Y598000D02*
X816000D01*
X683500Y604500D02*
X706750D01*
X1311910Y429914D02*
Y456090D01*
X1304625Y463375D02*
X1311910Y456090D01*
X1294125Y463375D02*
X1304625D01*
X1281750Y475750D02*
X1294125Y463375D01*
X1281750Y475750D02*
Y547901D01*
X1217051Y612600D02*
X1281750Y547901D01*
X1158400Y622600D02*
X1168400Y612600D01*
X965550Y622600D02*
X1158400D01*
X1306608Y232716D02*
X1311508Y227816D01*
Y215940D02*
Y227816D01*
X1306608Y211040D02*
X1311508Y215940D01*
X894294Y481023D02*
X916000Y459317D01*
X1293908Y177088D02*
Y189364D01*
Y177088D02*
X1299500Y171496D01*
Y164500D02*
Y171496D01*
X1297788Y162788D02*
X1299500Y164500D01*
X1289328Y162788D02*
X1297788D01*
X1289013Y163103D02*
X1289328Y162788D01*
X1306608Y177088D02*
Y189364D01*
X1289008Y163109D02*
X1289013Y163103D01*
X1284690Y158780D02*
X1289013Y163103D01*
X1284690Y152650D02*
Y158780D01*
Y152650D02*
X1289590Y147750D01*
X1293908Y263792D02*
Y276068D01*
Y220440D02*
Y232716D01*
D88*
X719999Y45500D02*
Y53497D01*
X716000Y49499D01*
X721332D01*
D89*
X607000Y43000D02*
D03*
Y593000D02*
D03*
D90*
X640000Y35000D02*
D03*
Y600500D02*
D03*
D92*
X1017000Y383750D02*
D03*
Y374250D02*
D03*
X991250Y401500D02*
D03*
X1205621Y233000D02*
D03*
X1212021D02*
D03*
X1150000Y230250D02*
D03*
X1159100Y214000D02*
D03*
X1165500D02*
D03*
X1142974Y230474D02*
D03*
X1225050Y394757D02*
D03*
X832250Y263250D02*
D03*
Y289750D02*
D03*
Y342750D02*
D03*
Y452250D02*
D03*
X1055876Y194750D02*
D03*
X870250Y614750D02*
D03*
X884000Y612750D02*
D03*
X881000Y593250D02*
D03*
X911750Y582000D02*
D03*
X898750D02*
D03*
X851500Y606500D02*
D03*
X857000Y595500D02*
D03*
X922900Y348400D02*
D03*
X928000Y342250D02*
D03*
X921545Y399770D02*
D03*
X916000Y405000D02*
D03*
X1060558Y400250D02*
D03*
X1118000Y495250D02*
D03*
X1148148Y440000D02*
D03*
X1042051Y377000D02*
D03*
X1186950Y229657D02*
D03*
X1208309Y454772D02*
D03*
X1042051Y398769D02*
D03*
X1000750Y400250D02*
D03*
X971600Y408000D02*
D03*
X1156750Y262250D02*
D03*
X1078500Y259500D02*
D03*
X1202500Y287639D02*
D03*
X1311910Y429914D02*
D03*
X933750Y293025D02*
D03*
X894294Y481023D02*
D03*
X1060000Y350000D02*
D03*
X1019682Y481076D02*
D03*
X889360Y449450D02*
D03*
X857000Y581815D02*
D03*
X841000Y595500D02*
D03*
X1310164Y125978D02*
D03*
X1289844D02*
D03*
X1289590Y147750D02*
D03*
X1293908Y177088D02*
D03*
Y189364D02*
D03*
X1306608D02*
D03*
Y177088D02*
D03*
Y211040D02*
D03*
X1293908Y220440D02*
D03*
Y232716D02*
D03*
X1306608D02*
D03*
X1293908Y263792D02*
D03*
Y276068D02*
D03*
X816000Y598000D02*
D03*
X808250Y591500D02*
D03*
X691000Y598000D02*
D03*
X683500Y604500D02*
D03*
X760500Y527750D02*
D03*
X740500D02*
D03*
X885550Y289350D02*
D03*
X1131805Y392769D02*
D03*
X1127750Y375250D02*
D03*
X1237750Y305857D02*
D03*
Y293157D02*
D03*
X1225050D02*
D03*
Y280457D02*
D03*
X1237750Y242357D02*
D03*
Y255057D02*
D03*
X1174250Y305857D02*
D03*
X1186950D02*
D03*
X1225050Y77257D02*
D03*
X1174250Y115357D02*
D03*
X1225050Y509057D02*
D03*
X1237750Y496357D02*
D03*
X1186950D02*
D03*
Y483657D02*
D03*
X1174250Y470957D02*
D03*
X1237750Y191557D02*
D03*
Y204257D02*
D03*
X1186950Y216957D02*
D03*
X1225050Y242357D02*
D03*
Y407457D02*
D03*
Y255057D02*
D03*
Y356657D02*
D03*
X1174250Y343957D02*
D03*
Y318557D02*
D03*
D94*
X1019682Y429932D02*
Y481076D01*
X991250Y401500D02*
X1019682Y429932D01*
X978100Y401500D02*
X991250D01*
X971600Y408000D02*
X978100Y401500D01*
X1038140Y194750D02*
X1055876D01*
X1030755Y202136D02*
X1038140Y194750D01*
X1014071Y224292D02*
X1021457Y216907D01*
Y211434D02*
Y216907D01*
X1014071Y224292D02*
Y224447D01*
X1011607Y226911D02*
X1014071Y224447D01*
X1011452Y226911D02*
X1011607D01*
X1004809Y233555D02*
X1011452Y226911D01*
X1004809Y233555D02*
Y244692D01*
X1021457Y211434D02*
X1030755Y202136D01*
X996250Y253250D02*
X1004809Y244692D01*
X996250Y253250D02*
Y253250D01*
D96*
X1128875Y429100D02*
G03*
X1128500Y428725I0J-375D01*
G01*
X1128125Y418020D02*
G03*
X1128500Y418395I0J375D01*
G01*
X1121000D02*
G03*
X1121375Y418020I375J0D01*
G01*
X1121000Y439805D02*
G03*
X1120625Y440180I-375J0D01*
G01*
X1113875D02*
G03*
X1113500Y439805I0J-375D01*
G01*
X1113125Y421150D02*
G03*
X1113500Y421525I0J375D01*
G01*
X1106000D02*
G03*
X1106375Y421150I375J0D01*
G01*
X1106000Y436801D02*
G03*
X1105625Y437176I-375J0D01*
G01*
X1098875D02*
G03*
X1098500Y436801I0J-375D01*
G01*
X1098125Y419650D02*
G03*
X1098500Y420025I0J375D01*
G01*
X1091000D02*
G03*
X1091375Y419650I375J0D01*
G01*
X1091000Y437529D02*
G03*
X1090625Y437904I-375J0D01*
G01*
X1083875D02*
G03*
X1083500Y437529I0J-375D01*
G01*
X1083125Y418020D02*
G03*
X1083500Y418395I0J375D01*
G01*
X1076000D02*
G03*
X1076375Y418020I375J0D01*
G01*
X1076000Y439226D02*
G03*
X1075625Y439600I-375J0D01*
G01*
X1068875D02*
G03*
X1068500Y439226I0J-375D01*
G01*
X1068125Y418020D02*
G03*
X1068500Y418395I0J375D01*
G01*
X1061000D02*
G03*
X1061375Y418020I375J0D01*
G01*
X1061000Y439226D02*
G03*
X1060625Y439600I-375J0D01*
G01*
X1053875D02*
G03*
X1053500Y439226I0J-375D01*
G01*
X1053125Y429100D02*
G03*
X1053500Y429475I0J375D01*
G01*
X1049850Y446176D02*
X1052774Y449100D01*
X1057850D02*
X1067750Y459000D01*
X1052774Y449100D02*
X1057850D01*
X1207226Y407500D02*
X1225000D01*
X1200726Y414000D02*
X1207226Y407500D01*
X1171233Y414000D02*
X1200726D01*
X1156133Y429100D02*
X1171233Y414000D01*
X1131750Y429100D02*
X1156133D01*
X1047999D02*
X1049750D01*
X1128875D02*
X1131750D01*
X1128500Y418395D02*
Y428725D01*
X1121375Y418020D02*
X1128125D01*
X1121000Y418395D02*
Y429100D01*
Y439805D01*
X1113875Y440180D02*
X1120625D01*
X1113500Y429100D02*
Y439805D01*
Y421525D02*
Y429100D01*
X1106375Y421150D02*
X1113125D01*
X1106000Y421525D02*
Y429100D01*
Y436801D01*
X1098875Y437176D02*
X1105625D01*
X1098500Y429100D02*
Y436801D01*
Y420025D02*
Y429100D01*
X1091375Y419650D02*
X1098125D01*
X1091000Y420025D02*
Y429100D01*
Y437529D01*
X1083875Y437904D02*
X1090625D01*
X1083500Y429100D02*
Y437529D01*
Y418395D02*
Y429100D01*
X1076375Y418020D02*
X1083125D01*
X1076000Y418395D02*
Y429100D01*
Y439226D01*
X1068875Y439600D02*
X1075625D01*
X1068500Y429100D02*
Y439226D01*
Y418395D02*
Y429100D01*
X1061375Y418020D02*
X1068125D01*
X1061000Y418395D02*
Y429100D01*
Y439226D01*
X1053875Y439600D02*
X1060625D01*
X1053500Y429475D02*
Y439226D01*
X1049750Y429100D02*
X1053125D01*
X1017000Y398101D02*
X1047999Y429100D01*
X1017000Y384000D02*
Y398101D01*
Y384000D02*
X1017250Y383750D01*
X1225250Y394500D02*
X1225748Y394998D01*
X1083488Y461596D02*
X1110480D01*
X1125076Y447000D01*
X1164816D01*
X1049850Y441100D02*
Y446176D01*
X1009000Y400250D02*
X1049850Y441100D01*
X1080892Y459000D02*
X1083488Y461596D01*
X1067750Y459000D02*
X1080892D01*
X1164816Y447000D02*
X1172816Y439000D01*
X1242000D01*
X1225748Y394998D02*
X1230550D01*
X1235552Y400000D01*
X1240000D01*
X1247750Y407750D01*
Y433250D01*
X1242000Y439000D02*
X1247750Y433250D01*
X1000750Y400250D02*
X1009000D01*
X1173857Y115357D02*
X1174250D01*
X1165250Y106750D02*
X1173857Y115357D01*
X1165250Y65250D02*
Y106750D01*
X1174250Y115357D02*
X1174500Y115607D01*
Y116000D01*
X1135250Y35250D02*
X1165250Y65250D01*
X960585Y35250D02*
X1135250D01*
X922761Y73074D02*
X960585Y35250D01*
X922761Y73074D02*
Y253011D01*
X932309Y262560D01*
X938440D01*
X944500Y268619D01*
X985372Y395600D02*
X995631D01*
X980178Y397150D02*
X983822D01*
X985372Y395600D01*
X978627D02*
X980178Y397150D01*
X963650Y395600D02*
X978627D01*
X959481Y399770D02*
X963650Y395600D01*
X1000281Y400250D02*
X1000750D01*
X921545Y399770D02*
X959481D01*
X1168553Y426000D02*
X1229000D01*
X1231000Y424000D01*
Y405879D02*
Y424000D01*
X1226121Y401000D02*
X1231000Y405879D01*
X1221250Y401000D02*
X1226121D01*
X1217500Y397250D02*
X1221250Y401000D01*
X1231500Y363107D02*
Y384500D01*
X1227500Y388500D02*
X1231500Y384500D01*
X1220750Y388500D02*
X1227500D01*
X1217500Y391750D02*
X1220750Y388500D01*
X1217500Y391750D02*
Y397250D01*
X995631Y395600D02*
X1000281Y400250D01*
X1154553Y440000D02*
X1168553Y426000D01*
X1148148Y440000D02*
X1154553D01*
X944500Y268619D02*
Y270815D01*
X1225050Y356657D02*
X1231500Y363107D01*
X935531Y341878D02*
X940281D01*
X929009Y348400D02*
X935531Y341878D01*
X922900Y348400D02*
X929009D01*
X1127750Y388714D02*
X1131805Y392769D01*
X1127750Y375250D02*
Y388714D01*
D97*
X1057588Y262162D02*
G03*
X1071257Y256500I13669J13669D01*
G01*
D02*
G03*
X1078500Y259500I0J10243D01*
G01*
X1047210Y272540D02*
G03*
X1034028Y278000I-13182J-13182D01*
G01*
X1062422Y404750D02*
X1066672Y400500D01*
X1042051Y388107D02*
X1058694Y404750D01*
X1062422D01*
X1017000Y367315D02*
Y374250D01*
X1011685Y362000D02*
X1017000Y367315D01*
X1000371Y362000D02*
X1011685D01*
X998028Y359657D02*
X1000371Y362000D01*
X998028Y356343D02*
Y359657D01*
X995685Y354000D02*
X998028Y356343D01*
X992371Y354000D02*
X995685D01*
X990028Y351657D02*
X992371Y354000D01*
X990028Y348343D02*
Y351657D01*
X987685Y346000D02*
X990028Y348343D01*
X984371Y346000D02*
X987685D01*
X982028Y343657D02*
X984371Y346000D01*
X982028Y340343D02*
Y343657D01*
X979685Y338000D02*
X982028Y340343D01*
X974028Y338000D02*
X979685D01*
X970028Y334000D02*
X974028Y338000D01*
X1130438Y400500D02*
X1153596Y377342D01*
X1066672Y400500D02*
X1130438D01*
X1153596Y364611D02*
Y377342D01*
Y364611D02*
X1174250Y343957D01*
X1042051Y377000D02*
Y388107D01*
X1047210Y272540D02*
X1057588Y262162D01*
X940281Y341878D02*
X944159Y338000D01*
X950028D01*
X954028Y334000D01*
X928000Y336007D02*
X934007Y330000D01*
X958028D01*
X962028Y326000D01*
X928000Y336007D02*
Y342250D01*
X1030028Y306000D02*
X1038209D01*
X1039098Y306889D01*
X958028Y319657D02*
X960371Y322000D01*
X958028Y316343D02*
Y319657D01*
X955685Y314000D02*
X958028Y316343D01*
X944500Y270815D02*
X950028Y276343D01*
X1186950Y305857D02*
X1196750Y296057D01*
X1186750Y306057D02*
X1186950Y305857D01*
X1196750Y293389D02*
Y296057D01*
X1186750Y306057D02*
Y306250D01*
X1196750Y293389D02*
X1202500Y287639D01*
X950028Y276343D02*
Y311657D01*
X952371Y314000D02*
X955685D01*
X950028Y311657D02*
X952371Y314000D01*
X960371Y322000D02*
X966028D01*
X970028Y326000D01*
D100*
X885750Y453060D02*
G03*
X867789Y460500I-17960J-17960D01*
G01*
X851021D02*
G03*
X833061Y453060I0J-25400D01*
G01*
X903954Y273750D02*
G03*
X921915Y281189I0J25400D01*
G01*
X878175Y273750D02*
G03*
X861500Y266843I0J-23581D01*
G01*
X853067Y263350D02*
G03*
X861500Y266843I0J11927D01*
G01*
X862229Y342750D02*
G03*
X880190Y350190I0J25400D01*
G01*
X901471Y360950D02*
G03*
X883510Y353510I0J-25400D01*
G01*
X905929Y360950D02*
G03*
X923889Y368389I0J25400D01*
G01*
X949271Y383250D02*
G03*
X931311Y375811I0J-25400D01*
G01*
X976217D02*
G03*
X958257Y383250I-17960J-17960D01*
G01*
X855213Y289350D02*
X885550D01*
X832250Y289507D02*
X855056D01*
X855213Y289350D01*
X832250Y289507D02*
Y289750D01*
X885750Y453060D02*
X889360Y449450D01*
X851021Y460500D02*
X867789D01*
X832250Y452250D02*
X833061Y453060D01*
X832250Y263250D02*
X852967D01*
X853067Y263350D01*
X832250Y342750D02*
X862229D01*
X921915Y281189D02*
X933750Y293025D01*
X878175Y273750D02*
X903954D01*
X880190Y350190D02*
X883510Y353510D01*
X901471Y360950D02*
X905929D01*
X923889Y368389D02*
X931311Y375811D01*
X949271Y383250D02*
X958257D01*
X976217Y375811D02*
X986028Y366000D01*
M02*
