G04*
G04 #@! TF.GenerationSoftware,Altium Limited,Altium Designer,19.0.15 (446)*
G04*
G04 Layer_Physical_Order=4*
G04 Layer_Color=16440176*
%FSLAX44Y44*%
%MOMM*%
G71*
G01*
G75*
%ADD14C,0.4000*%
%ADD81C,0.4000*%
%ADD83C,0.2000*%
%ADD86C,0.1200*%
%ADD87C,0.2540*%
%ADD88C,4.0000*%
%ADD89C,5.0000*%
%ADD91C,0.5000*%
%ADD93C,0.3000*%
%ADD95C,0.1500*%
%ADD97C,0.1200*%
%ADD99C,0.1700*%
D14*
X1042500Y342250D02*
D03*
X986028Y302000D02*
D03*
X994028Y294000D02*
D03*
X1010028Y318000D02*
D03*
Y310000D02*
D03*
Y302000D02*
D03*
X986028Y294000D02*
D03*
X1002028Y318000D02*
D03*
Y310000D02*
D03*
Y286000D02*
D03*
X1010028Y294000D02*
D03*
X1002028Y278000D02*
D03*
X1010028Y286000D02*
D03*
X996250Y258250D02*
D03*
X1049250Y301000D02*
D03*
X1042500Y309750D02*
D03*
X1026028Y310000D02*
D03*
X1034028Y278000D02*
D03*
X1002028Y294000D02*
D03*
Y302000D02*
D03*
X994028Y310000D02*
D03*
X978028Y302000D02*
D03*
X986028Y366000D02*
D03*
X970028Y326000D02*
D03*
X962028D02*
D03*
X970028Y334000D02*
D03*
X954028D02*
D03*
D81*
X1036000Y371665D02*
Y392719D01*
X1042051Y398769D01*
X1036000Y371665D02*
X1042500Y365165D01*
Y342250D02*
Y365165D01*
D83*
X1225250Y394500D02*
X1225748Y394998D01*
X962100Y397150D02*
X983822D01*
X959481Y399770D02*
X962100Y397150D01*
X983822D02*
X985372Y395600D01*
X1000750Y400250D02*
X1014250D01*
X1000281D02*
X1000750D01*
X921545Y399770D02*
X959481D01*
X922183Y535600D02*
X948030D01*
X905383Y552400D02*
X922183Y535600D01*
X879537Y552400D02*
X905383D01*
X808250Y591500D02*
X808719D01*
X765500D02*
X808719D01*
X1033420Y534650D02*
X1067306D01*
X1022670Y545400D02*
X1033420Y534650D01*
X1008188Y545400D02*
X1022670D01*
X1001280Y538492D02*
X1008188Y545400D01*
X984938Y538492D02*
X1001280D01*
X827820Y572400D02*
X859537D01*
X808719Y591500D02*
X827820Y572400D01*
X1217351Y513957D02*
X1218250D01*
X1220150D01*
X859537Y572400D02*
X879537Y552400D01*
X1244074Y554500D02*
X1265100Y533474D01*
Y461852D02*
X1317250Y409702D01*
X1265100Y461852D02*
Y533474D01*
X1317250Y262500D02*
Y409702D01*
X824930Y543392D02*
X841515Y526807D01*
X756142Y543392D02*
X824930D01*
X740500Y527750D02*
X756142Y543392D01*
X808250Y533250D02*
X854500Y487000D01*
X766000Y533250D02*
X808250D01*
X760500Y527750D02*
X766000Y533250D01*
X841000Y611250D02*
X855400Y625650D01*
X841000Y595500D02*
Y611250D01*
X816000Y598000D02*
X838200Y575800D01*
X900142D01*
X931373Y526807D02*
X940236Y517944D01*
X964264D01*
X970970Y524650D01*
X1028780D01*
X841515Y526807D02*
X931373D01*
X917270Y482850D02*
X988302D01*
X913120Y487000D02*
X917270Y482850D01*
X854500Y487000D02*
X913120D01*
X1235552Y400000D02*
X1240000D01*
X1230550Y394998D02*
X1235552Y400000D01*
X1225748Y394998D02*
X1230550D01*
X1240000Y400000D02*
X1247750Y407750D01*
Y433250D01*
X1242000Y439000D02*
X1247750Y433250D01*
X1172816Y439000D02*
X1242000D01*
X995631Y395600D02*
X1000281Y400250D01*
X985372Y395600D02*
X995631D01*
X1164816Y447000D02*
X1172816Y439000D01*
X865100Y619900D02*
X870250Y614750D01*
X870125Y614875D02*
X881063D01*
X858720Y619900D02*
X865100D01*
X855850Y610850D02*
Y617030D01*
X851500Y606500D02*
X855850Y610850D01*
Y617030D02*
X858720Y619900D01*
X855400Y625650D02*
X920350D01*
X857000Y595500D02*
X857574Y594926D01*
X857000Y581815D02*
Y595500D01*
X857574Y594926D02*
X862324D01*
X865250Y592000D01*
X872094D01*
X873344Y593250D01*
X881000D01*
X898750Y582000D02*
X908350Y572400D01*
X1319250Y105500D02*
X1341500Y127750D01*
X1225050Y77257D02*
X1235057Y67250D01*
X1271859D01*
X1322600Y160900D02*
Y187350D01*
Y160900D02*
X1341500Y142000D01*
X1271859Y67250D02*
X1310109Y105500D01*
X1341500Y127750D02*
Y142000D01*
X1310109Y105500D02*
X1319250D01*
X1322600Y187350D02*
X1345250Y210000D01*
Y240650D01*
X1328750Y257150D02*
X1345250Y240650D01*
X1322600Y257150D02*
X1328750D01*
X1317250Y262500D02*
X1322600Y257150D01*
X1217500Y554500D02*
X1244074D01*
X1202357Y539357D02*
X1217500Y554500D01*
X1172220Y539357D02*
X1202357D01*
X908350Y572400D02*
X1103600D01*
X1172113Y539250D02*
X1172220Y539357D01*
X1136750Y539250D02*
X1172113D01*
X1103600Y572400D02*
X1136750Y539250D01*
X881063Y614875D02*
X883188Y612750D01*
X884000D01*
X911750Y582000D02*
X912250Y582500D01*
X1138600Y500150D02*
X1139707Y501257D01*
X1176280D01*
X1181328Y496209D01*
Y489279D02*
Y496209D01*
Y489279D02*
X1186950Y483657D01*
X1103396Y500150D02*
X1138600D01*
X1102918Y499672D02*
X1103396Y500150D01*
X1086284Y499672D02*
X1102918D01*
X1083414Y502542D02*
X1086284Y499672D01*
X1083414Y502542D02*
Y506516D01*
X1065280Y524650D02*
X1083414Y506516D01*
X1058080Y524650D02*
X1065280D01*
X1055280Y521850D02*
X1058080Y524650D01*
X1031580Y521850D02*
X1055280D01*
X1028780Y524650D02*
X1031580Y521850D01*
X1193922Y483699D02*
Y489385D01*
X1186950Y496357D02*
X1193922Y489385D01*
X1187530Y477307D02*
X1193922Y483699D01*
X1186370Y477307D02*
X1187530D01*
X1182050Y472987D02*
X1186370Y477307D01*
X1182050Y471827D02*
Y472987D01*
X1176280Y466057D02*
X1182050Y471827D01*
X1114836Y466057D02*
X1176280D01*
X1107871Y473022D02*
X1114836Y466057D01*
X1073638Y473022D02*
X1107871D01*
X1070810Y475850D02*
X1073638Y473022D01*
X1037470Y475850D02*
X1070810D01*
X1034291Y479029D02*
X1037470Y475850D01*
X1034291Y479029D02*
Y482797D01*
X1031112Y485976D02*
X1034291Y482797D01*
X1003704Y485976D02*
X1031112D01*
X1001524Y483796D02*
X1003704Y485976D01*
X989248Y483796D02*
X1001524D01*
X988302Y482850D02*
X989248Y483796D01*
X1055182Y558250D02*
X1067402Y546030D01*
X917692Y558250D02*
X1055182D01*
X900142Y575800D02*
X917692Y558250D01*
X1149957Y495250D02*
X1174250Y470957D01*
X1118000Y495250D02*
X1149957D01*
X1087999Y513957D02*
X1217351D01*
X1067306Y534650D02*
X1087999Y513957D01*
X978030Y545400D02*
X984938Y538492D01*
X957830Y545400D02*
X978030D01*
X948030Y535600D02*
X957830Y545400D01*
X1060000Y350000D02*
Y360500D01*
X1060558Y361058D01*
Y400250D01*
X1040750Y432000D02*
X1116000D01*
X1131000Y447000D02*
X1164816D01*
X1116000Y432000D02*
X1131000Y447000D01*
X1014500Y405750D02*
X1040750Y432000D01*
X1026028Y310000D02*
X1030028Y306000D01*
X1039098Y306889D02*
X1041959Y309750D01*
X1042500D01*
X1014500Y400000D02*
Y405750D01*
X1014250Y400250D02*
X1014500Y400000D01*
X1306949Y205353D02*
X1312350Y199952D01*
X1305365Y205353D02*
X1306949D01*
X1299964Y210754D02*
X1305365Y205353D01*
X1299964Y210754D02*
Y214384D01*
X1293908Y220440D02*
X1299964Y214384D01*
X1300346Y141417D02*
X1305010Y146080D01*
X1299513Y141417D02*
X1300346D01*
X1294849Y136753D02*
X1299513Y141417D01*
X1294849Y130983D02*
Y136753D01*
X1289844Y125978D02*
X1294849Y130983D01*
X1311508Y165278D02*
Y172188D01*
X1305010Y158780D02*
X1311508Y165278D01*
X1305010Y146080D02*
Y158780D01*
X1315064Y130878D02*
Y173440D01*
X1312350Y176154D02*
X1315064Y173440D01*
X1312350Y176154D02*
Y199952D01*
X1237750Y496357D02*
X1250150Y508757D01*
Y533088D01*
X1240981Y542257D02*
X1250150Y533088D01*
X1210065Y542257D02*
X1240981D01*
X1195408Y527600D02*
X1210065Y542257D01*
X1083222Y527600D02*
X1195408D01*
X1067402Y543420D02*
X1083222Y527600D01*
X1067402Y543420D02*
Y546030D01*
X1090107Y262250D02*
X1156750D01*
X1075357Y277000D02*
X1090107Y262250D01*
X1075357Y277000D02*
Y277019D01*
X1066500Y285875D02*
X1075357Y277019D01*
X1066500Y285875D02*
Y300000D01*
X1061100Y305400D02*
X1066500Y300000D01*
X1053650Y305400D02*
X1061100D01*
X1049250Y301000D02*
X1053650Y305400D01*
X1049250Y301000D02*
X1049511D01*
X1310164Y125978D02*
X1315064Y130878D01*
X1306608Y177088D02*
X1311508Y172188D01*
X727680Y598000D02*
X733430Y592250D01*
X1220150Y513957D02*
X1225050Y509057D01*
X751680Y592250D02*
X755830Y596400D01*
X760600D01*
X733430Y592250D02*
X751680D01*
X691000Y598000D02*
X727680D01*
X760600Y596400D02*
X765500Y591500D01*
X774500Y617250D02*
X793750Y598000D01*
X706750Y604500D02*
X719500Y617250D01*
X774500D01*
X793750Y598000D02*
X816000D01*
X683500Y604500D02*
X706750D01*
X1311910Y429914D02*
Y456090D01*
X1304625Y463375D02*
X1311910Y456090D01*
X1294125Y463375D02*
X1304625D01*
X1281750Y475750D02*
X1294125Y463375D01*
X1281750Y475750D02*
Y547901D01*
X1217051Y612600D02*
X1281750Y547901D01*
X1168400Y612600D02*
X1217051D01*
X1158400Y622600D02*
X1168400Y612600D01*
X965550Y622600D02*
X1158400D01*
X959200Y616250D02*
X965550Y622600D01*
X929750Y616250D02*
X959200D01*
X920350Y625650D02*
X929750Y616250D01*
X1306608Y232716D02*
X1311508Y227816D01*
Y215940D02*
Y227816D01*
X1306608Y211040D02*
X1311508Y215940D01*
X916000Y405000D02*
Y459317D01*
X894294Y481023D02*
X916000Y459317D01*
X1293908Y177088D02*
Y189364D01*
Y177088D02*
X1299500Y171496D01*
Y164500D02*
Y171496D01*
X1297788Y162788D02*
X1299500Y164500D01*
X1289328Y162788D02*
X1297788D01*
X1289013Y163103D02*
X1289328Y162788D01*
X1306608Y177088D02*
Y189364D01*
X1289008Y163109D02*
X1289013Y163103D01*
X1284690Y158780D02*
X1289013Y163103D01*
X1284690Y152650D02*
Y158780D01*
Y152650D02*
X1289590Y147750D01*
X1293908Y263792D02*
Y276068D01*
Y220440D02*
Y232716D01*
D86*
X1160960Y286610D02*
G03*
X1162560Y285010I1600J0D01*
G01*
X1153080Y269770D02*
G03*
X1154680Y271370I0J1600D01*
G01*
X1142000D02*
G03*
X1143600Y269770I1600J0D01*
G01*
X1134120D02*
G03*
X1135720Y271370I0J1600D01*
G01*
X1123040D02*
G03*
X1124640Y269770I1600J0D01*
G01*
X1115161D02*
G03*
X1116760Y271370I0J1600D01*
G01*
X1104081D02*
G03*
X1105681Y269770I1600J0D01*
G01*
X1145200Y301850D02*
G03*
X1143600Y303450I-1600J0D01*
G01*
X1134120D02*
G03*
X1132520Y301850I0J-1600D01*
G01*
X1164159D02*
G03*
X1162560Y303450I-1600J0D01*
G01*
X1153080D02*
G03*
X1151480Y301850I0J-1600D01*
G01*
X1096201Y303450D02*
G03*
X1094601Y301850I0J-1600D01*
G01*
X1115161Y303450D02*
G03*
X1113561Y301850I0J-1600D01*
G01*
X1126240D02*
G03*
X1124640Y303450I-1600J0D01*
G01*
X1107281Y301850D02*
G03*
X1105681Y303450I-1600J0D01*
G01*
X1096201Y285010D02*
G03*
X1097801Y286610I0J1600D01*
G01*
X1038601Y247164D02*
G03*
X1040863Y247164I1131J1131D01*
G01*
X1038556Y232383D02*
G03*
X1038556Y230121I1131J-1131D01*
G01*
X1047055Y221621D02*
G03*
X1049318Y221621I1131J1131D01*
G01*
X1064053Y204623D02*
G03*
X1066316Y204623I1131J1131D01*
G01*
X1055554Y215385D02*
G03*
X1055554Y213122I1131J-1131D01*
G01*
X1053771Y243736D02*
G03*
X1053302Y244867I-1600J0D01*
G01*
X1044803Y253367D02*
G03*
X1042540Y253367I-1131J-1131D01*
G01*
X1053302Y242605D02*
G03*
X1053771Y243736I-1131J1131D01*
G01*
X1061802Y236368D02*
G03*
X1059539Y236368I-1131J-1131D01*
G01*
X1074861Y215430D02*
G03*
X1072598Y215430I-1131J-1131D01*
G01*
X1070301Y225606D02*
G03*
X1070769Y226737I-1131J1131D01*
G01*
D02*
G03*
X1070301Y227869I-1600J0D01*
G01*
X1201691Y376510D02*
G03*
X1203290Y374910I1600J0D01*
G01*
X1191384Y357551D02*
G03*
X1192984Y355951I1600J0D01*
G01*
Y368630D02*
G03*
X1191384Y367030I0J-1600D01*
G01*
X1105329Y230940D02*
G03*
X1106929Y229340I1600J0D01*
G01*
X1154328Y219417D02*
G03*
X1155928Y221017I0J1600D01*
G01*
X1143249D02*
G03*
X1144848Y219417I1600J0D01*
G01*
X1116409Y229340D02*
G03*
X1118009Y230940I0J1600D01*
G01*
X1135369Y219417D02*
G03*
X1136969Y221017I0J1600D01*
G01*
X1124289D02*
G03*
X1125889Y219417I1600J0D01*
G01*
X1097449Y227929D02*
G03*
X1099049Y229529I0J1600D01*
G01*
X1086370D02*
G03*
X1087970Y227929I1600J0D01*
G01*
X1078490Y234657D02*
G03*
X1080090Y236257I0J1600D01*
G01*
X1220551Y376510D02*
G03*
X1218951Y378110I-1600J0D01*
G01*
Y365430D02*
G03*
X1220551Y367030I0J1600D01*
G01*
X1204890Y357551D02*
G03*
X1203290Y359151I-1600J0D01*
G01*
X1146448Y251497D02*
G03*
X1144848Y253097I-1600J0D01*
G01*
X1135369D02*
G03*
X1133769Y251497I0J-1600D01*
G01*
X1127489D02*
G03*
X1125889Y253097I-1600J0D01*
G01*
X1116409D02*
G03*
X1114809Y251497I0J-1600D01*
G01*
X1154328Y237857D02*
G03*
X1152728Y236257I0J-1600D01*
G01*
X1108529Y251497D02*
G03*
X1106929Y253097I-1600J0D01*
G01*
X1089570Y251497D02*
G03*
X1087970Y253097I-1600J0D01*
G01*
X1097449D02*
G03*
X1095850Y251497I0J-1600D01*
G01*
X1078490Y253097D02*
G03*
X1076890Y251497I0J-1600D01*
G01*
X1106450Y368568D02*
Y383599D01*
X1075320Y389700D02*
X1100349D01*
X1106450Y383599D01*
X1103250Y369894D02*
Y382274D01*
X1099024Y386500D02*
X1103250Y382274D01*
X1076645Y386500D02*
X1099024D01*
X1087314Y349433D02*
X1106450Y368568D01*
X1084114Y350758D02*
X1103250Y369894D01*
X1087314Y340186D02*
Y349433D01*
X1084114Y338861D02*
Y350758D01*
X1068388Y352024D02*
Y382769D01*
X1061864Y345500D02*
X1068388Y352024D01*
X1063189Y342300D02*
X1071588Y350699D01*
X1262700Y202416D02*
Y214086D01*
X1259500Y203741D02*
Y212761D01*
X1243641Y183357D02*
X1262700Y202416D01*
X1242315Y186557D02*
X1259500Y203741D01*
X1187653Y263007D02*
X1226257D01*
X1186950Y263710D02*
X1187653Y263007D01*
X1186950Y263710D02*
Y267450D01*
X1150549Y183357D02*
X1243641D01*
X1148492Y181300D02*
X1150549Y183357D01*
X1149223Y186557D02*
X1242315D01*
X1147167Y184500D02*
X1149223Y186557D01*
X1099151Y181300D02*
X1148492D01*
X1100476Y184500D02*
X1147167D01*
X1092226Y192750D02*
X1100476Y184500D01*
X1090901Y189550D02*
X1099151Y181300D01*
X1064240Y189550D02*
X1090901D01*
X1065565Y192750D02*
X1092226D01*
X1060376Y193414D02*
X1064240Y189550D01*
X1060376Y193414D02*
Y196614D01*
X1057740Y199250D02*
X1060376Y196614D01*
X1063576Y194739D02*
X1065565Y192750D01*
X1063576Y194739D02*
Y197939D01*
X1186950Y256050D02*
X1187000Y256000D01*
X1072250Y139364D02*
X1074886Y142000D01*
X1072250Y138800D02*
Y139364D01*
X1054925Y138800D02*
X1072250D01*
X1091725Y331250D02*
X1146187D01*
X1084114Y338861D02*
X1091725Y331250D01*
X1093050Y334450D02*
X1147513D01*
X1087314Y340186D02*
X1093050Y334450D01*
X1220551Y367030D02*
Y376510D01*
X1217351Y368630D02*
Y374910D01*
X1192984Y368630D02*
X1217351D01*
X1059065Y202450D02*
X1063576Y197939D01*
X1054939Y202450D02*
X1059065D01*
X1019200Y238189D02*
X1054939Y202450D01*
X1054012Y199250D02*
X1057740D01*
X1053813Y199051D02*
X1054012Y199250D01*
X1016000Y236864D02*
X1053813Y199051D01*
X1019200Y238189D02*
Y239775D01*
X1016000Y236864D02*
Y238450D01*
X1065185Y208017D02*
X1072598Y215430D01*
X1058948Y214254D02*
X1065185Y208017D01*
X1055554Y213122D02*
X1064053Y204623D01*
X1147513Y334450D02*
X1160007Y321955D01*
X1146187Y331250D02*
X1156807Y320630D01*
X1160007Y319943D02*
Y321955D01*
Y319943D02*
X1166496Y313454D01*
X1156807Y318617D02*
Y320630D01*
X1068388Y382769D02*
X1075320Y389700D01*
X1071588Y381443D02*
X1076645Y386500D01*
X1071588Y350699D02*
Y381443D01*
X1160960Y286610D02*
Y300250D01*
X1143600Y269770D02*
X1153080D01*
X1142000Y271370D02*
Y300250D01*
X1124640Y269770D02*
X1134120D01*
X1123040Y271370D02*
Y300250D01*
X1105681Y269770D02*
X1115161D01*
X1104081Y271370D02*
Y300250D01*
X1042947Y313960D02*
X1065790D01*
X1042907Y314000D02*
X1042947Y313960D01*
X1065790D02*
X1069500Y310250D01*
X1049843Y322000D02*
X1051093Y323250D01*
X1014028Y322000D02*
X1049843D01*
X1051093Y323250D02*
X1063407D01*
X1053407Y332000D02*
X1058910Y337503D01*
X1041105Y332000D02*
X1053407D01*
X1056497Y341000D02*
X1060997Y345500D01*
X1049500Y341000D02*
X1056497D01*
X1046500Y338000D02*
X1049500Y341000D01*
X1008371Y338000D02*
X1046500D01*
X1134120Y303450D02*
X1143600D01*
X1153080D02*
X1162560D01*
X1164159Y288210D02*
Y301850D01*
X1151480Y272970D02*
Y301850D01*
X1145200Y272970D02*
Y301850D01*
X1132520Y272970D02*
Y301850D01*
X1126240Y272970D02*
Y301850D01*
X1096201Y303450D02*
X1105681D01*
X1115161D02*
X1124640D01*
X1107281Y272970D02*
Y301850D01*
X1113561Y272970D02*
Y301850D01*
X1094601Y288210D02*
Y301850D01*
X1065750Y318525D02*
X1072700Y311575D01*
X1065750Y318525D02*
Y320907D01*
X1135720Y300250D02*
X1142000D01*
X1116760D02*
X1123040D01*
X1154680D02*
X1160960D01*
X1097801D02*
X1104081D01*
X1080518Y284957D02*
X1096201D01*
X1162560D02*
X1194293D01*
X1154680Y271370D02*
Y300250D01*
X1116760Y271370D02*
Y300250D01*
X1040863Y247164D02*
X1043672Y249973D01*
X1013798Y271968D02*
X1038601Y247164D01*
X1038556Y232383D02*
X1049908Y243736D01*
X1055554Y215385D02*
X1066907Y226737D01*
X1066316Y204623D02*
X1073729Y212036D01*
X1049318Y221621D02*
X1060670Y232974D01*
X1038556Y230121D02*
X1047055Y221621D01*
X1077465Y208300D02*
X1169038D01*
X1073729Y212036D02*
X1077465Y208300D01*
X1169038D02*
X1169750Y209012D01*
X1044803Y253367D02*
X1053302Y244867D01*
X1039732Y250558D02*
X1042540Y253367D01*
X1041950Y231252D02*
X1053302Y242605D01*
X1074861Y215430D02*
X1078791Y211500D01*
X1061802Y236368D02*
X1070301Y227869D01*
X1048186Y225016D02*
X1059539Y236368D01*
X1058948Y214254D02*
X1070301Y225606D01*
X1078791Y211500D02*
X1163538D01*
X1164250Y212212D01*
X1243462D01*
X1169750Y209012D02*
X1244788D01*
X1252000Y216225D01*
X1243462Y212212D02*
X1248800Y217550D01*
X1139146Y161657D02*
X1248407D01*
X1132325Y168477D02*
X1139146Y161657D01*
X1057341Y168477D02*
X1132325D01*
X978350Y247468D02*
X1057341Y168477D01*
X1137820Y158457D02*
X1249733D01*
X1131000Y165278D02*
X1137820Y158457D01*
X1056015Y165278D02*
X1131000D01*
X975150Y246143D02*
X1056015Y165278D01*
X1249733Y158457D02*
X1281200Y189925D01*
X1248407Y161657D02*
X1278000Y191250D01*
X1203290Y374910D02*
X1217351D01*
X1201691Y376510D02*
X1201691Y389560D01*
X1191384Y357551D02*
Y367030D01*
X1192984Y355951D02*
X1201691D01*
X1068984Y406391D02*
X1168952D01*
X1064825Y410550D02*
X1068984Y406391D01*
X1167627Y403191D02*
X1171061Y399757D01*
X1067658Y403191D02*
X1167627D01*
X1142302Y137700D02*
X1153560Y148957D01*
X1087439Y137700D02*
X1142302D01*
X1079939Y145200D02*
X1087439Y137700D01*
X1143628Y134500D02*
X1154885Y145757D01*
X1086114Y134500D02*
X1143628D01*
X1078614Y142000D02*
X1086114Y134500D01*
X975150Y246143D02*
Y255443D01*
X978350Y247468D02*
Y255443D01*
X1201691Y296810D02*
X1213293Y285207D01*
X1201691Y355951D02*
X1201691Y296810D01*
X1213293Y285207D02*
X1224347D01*
Y288407D02*
X1225050Y289110D01*
X1214618Y288407D02*
X1224347D01*
X1207818Y275957D02*
X1242457D01*
X1206493Y272757D02*
X1243783D01*
X1187653Y259807D02*
X1227934D01*
X1230050Y258246D02*
X1234561Y262757D01*
X1230050Y254550D02*
Y258246D01*
X1229550Y254050D02*
X1230050Y254550D01*
X1229550Y253193D02*
Y254050D01*
X1226414Y250057D02*
X1229550Y253193D01*
X1215958Y250057D02*
X1226414D01*
X1233250Y256921D02*
X1235886Y259557D01*
X1233250Y253225D02*
Y256921D01*
X1232750Y252724D02*
X1233250Y253225D01*
X1232750Y251868D02*
Y252724D01*
X1227739Y246857D02*
X1232750Y251868D01*
X1217284Y246857D02*
X1227739D01*
X1154328Y237857D02*
X1241857D01*
X1155928Y234657D02*
X1243183D01*
X1248800Y217550D02*
Y253575D01*
X1074886Y142000D02*
X1078614D01*
X1105329Y230940D02*
Y249897D01*
X1143249Y221017D02*
Y249897D01*
X1144848Y219417D02*
X1154328D01*
X1124289Y221017D02*
Y249897D01*
X1106929Y229340D02*
X1116409D01*
X1125889Y219417D02*
X1135369D01*
X1087970Y227929D02*
X1097449D01*
X1086370Y229529D02*
Y249897D01*
X1067189Y234657D02*
X1078490D01*
X1204890Y378110D02*
X1218951D01*
X1194584Y365430D02*
X1218951D01*
X1194584Y359151D02*
X1203290D01*
X1204890Y357551D02*
X1204890Y298135D01*
X1135369Y253097D02*
X1144848D01*
X1236385Y243115D02*
X1239474D01*
X1122961Y253097D02*
X1125889D01*
X1116409D02*
X1118039D01*
X1152728Y222617D02*
Y236257D01*
X1133769Y222617D02*
Y251497D01*
X1146448Y222617D02*
Y251497D01*
X1108529Y232540D02*
Y251497D01*
X1127489Y222617D02*
Y251497D01*
X1114809Y232540D02*
Y251497D01*
X1097449Y253097D02*
X1106929D01*
X1089570Y231129D02*
Y251497D01*
X1095850Y231129D02*
Y251497D01*
X1078490Y253097D02*
X1087970D01*
X1076890Y237857D02*
Y251497D01*
X1069500Y295975D02*
Y310250D01*
X1049025Y410550D02*
X1064825D01*
X1046425Y407950D02*
X1049025Y410550D01*
X1037925Y407950D02*
X1046425D01*
X1050350Y407350D02*
X1063499D01*
X1047750Y404750D02*
X1050350Y407350D01*
X1039250Y404750D02*
X1047750D01*
X1027500Y397525D02*
X1037925Y407950D01*
X1030700Y396200D02*
X1039250Y404750D01*
X1172386Y402957D02*
X1192818D01*
X1168952Y406391D02*
X1172386Y402957D01*
X1171061Y399757D02*
X1191493D01*
X1201691Y389560D01*
X1192818Y402957D02*
X1204890Y390885D01*
X1063499Y407350D02*
X1067658Y403191D01*
X1204890Y378110D02*
X1204890Y390885D01*
X1027500Y379289D02*
Y397525D01*
X1030700Y377964D02*
Y396200D01*
X1029178Y376443D02*
X1030700Y377964D01*
X1014028Y359657D02*
X1025979Y371608D01*
Y377768D01*
X1027500Y379289D01*
X1030028Y364343D02*
Y371908D01*
X1029178Y372757D02*
X1030028Y371908D01*
X1029178Y372757D02*
Y376443D01*
X1000371Y354000D02*
X1011685D01*
X1014028Y356343D01*
Y359657D01*
X1000371Y346000D02*
X1011685D01*
X1014028Y348343D01*
Y351657D01*
X1016371Y354000D01*
X1019685D01*
X1022028Y356343D01*
Y359657D01*
X1024371Y362000D01*
X1027685D01*
X1030028Y364343D01*
X1008371Y330000D02*
X1039105D01*
X1041105Y332000D01*
X1006028Y327657D02*
X1008371Y330000D01*
X1006028Y332182D02*
Y335657D01*
X1003846Y330000D02*
X1006028Y332182D01*
X994028Y310000D02*
X998028Y314000D01*
X1006028Y322000D02*
Y327657D01*
X1000371Y330000D02*
X1003846D01*
X1002028Y318000D02*
X1006028Y322000D01*
X998028Y327657D02*
X1000371Y330000D01*
X998028Y314000D02*
Y327657D01*
X1006028Y335657D02*
X1008371Y338000D01*
X1008791Y250184D02*
Y256250D01*
X1005591Y248859D02*
Y254925D01*
X1008791Y250184D02*
X1019200Y239775D01*
X1005591Y248859D02*
X1016000Y238450D01*
X1107281Y272970D02*
X1113561D01*
X1060670Y232974D02*
X1066907Y226737D01*
X1043672Y249973D02*
X1049908Y243736D01*
X1041950Y231252D02*
X1048186Y225016D01*
X1016997Y273293D02*
X1039732Y250558D01*
X1068514Y237857D02*
X1076890D01*
X1027846Y274000D02*
X1067189Y234657D01*
X1030028Y276343D02*
X1068514Y237857D01*
X1118009Y249300D02*
X1123689D01*
X1118009Y230940D02*
Y249300D01*
X1099049Y249897D02*
X1105329D01*
X1099049Y229529D02*
Y249897D01*
X1080090D02*
X1086370D01*
X1080090Y236257D02*
Y249897D01*
X1024371Y274000D02*
X1027846D01*
X1022028Y276343D02*
X1024371Y274000D01*
X1022028Y276343D02*
Y287657D01*
X1019685Y290000D02*
X1022028Y287657D01*
X1016371Y290000D02*
X1019685D01*
X1014028Y292343D02*
X1016371Y290000D01*
X1014028Y292343D02*
Y303657D01*
X1011685Y306000D02*
X1014028Y303657D01*
X1008371Y306000D02*
X1011685D01*
X1108529Y232540D02*
X1114809D01*
X1089570Y231129D02*
X1095850D01*
X1030028Y276343D02*
Y287657D01*
X1027685Y290000D02*
X1030028Y287657D01*
X1024371Y290000D02*
X1027685D01*
X1022028Y292343D02*
X1024371Y290000D01*
X1022028Y292343D02*
Y295657D01*
X962737Y230987D02*
X1054925Y138800D01*
X1073561Y145200D02*
X1079939D01*
X1070361Y142000D02*
X1073561Y145200D01*
X1056250Y142000D02*
X1070361D01*
X1154885Y145757D02*
X1262032D01*
X965937Y232313D02*
X1056250Y142000D01*
X1124286Y249897D02*
X1124289D01*
X1123689Y249300D02*
X1124286Y249897D01*
X1122364Y252500D02*
X1122961Y253097D01*
X1118636Y252500D02*
X1122364D01*
X1118039Y253097D02*
X1118636Y252500D01*
X1072700Y297300D02*
Y311575D01*
X1042907Y314000D02*
X1045475D01*
X1006028D02*
X1042907D01*
X1063407Y323250D02*
X1065750Y320907D01*
X1022028Y295657D02*
Y303657D01*
Y295657D02*
X1022028Y295657D01*
X1014028Y276263D02*
Y282000D01*
X1010028Y286000D02*
X1014028Y282000D01*
X1264250Y250550D02*
X1265024D01*
X1266625Y248950D01*
X1264250Y244150D02*
X1265024D01*
X1266625Y245750D01*
X1270000D01*
X1266625Y248950D02*
X1271325D01*
X1289408Y230867D01*
X1258250Y229000D02*
X1259750Y230500D01*
Y260775D01*
X1258250Y224936D02*
Y228664D01*
X1256550Y231489D02*
Y259450D01*
X1255050Y229989D02*
X1256550Y231489D01*
X1255050Y226325D02*
Y229989D01*
X1250200Y265800D02*
X1256550Y259450D01*
X1251526Y269000D02*
X1259750Y260775D01*
X1289408Y173133D02*
Y230867D01*
X1270000Y245750D02*
X1286208Y229542D01*
X1262032Y145757D02*
X1289408Y173133D01*
X1286208Y174458D02*
Y229542D01*
X1260707Y148957D02*
X1286208Y174458D01*
X1153560Y148957D02*
X1260707D01*
X965937Y232313D02*
Y255906D01*
X962737Y230987D02*
Y254581D01*
X961818Y255500D02*
X962737Y254581D01*
X958093Y255500D02*
X961818D01*
X955750Y257843D02*
X958093Y255500D01*
X955750Y257843D02*
Y270157D01*
X958028Y272435D01*
Y279657D01*
X960371Y282000D01*
X963685D01*
X966028Y284343D01*
X963875Y257968D02*
X965937Y255906D01*
X963875Y257968D02*
Y270032D01*
X966028Y272185D01*
Y279818D01*
X968210Y282000D01*
X966028Y284343D02*
Y295657D01*
X968371Y298000D01*
X971685D01*
X974885Y301200D01*
X975925D01*
X968210Y282000D02*
X971685D01*
X974028Y284343D01*
Y295657D01*
X976371Y298000D01*
X975925Y301200D02*
X976189Y301464D01*
X977492D01*
X978028Y302000D01*
X976371Y298000D02*
X979685D01*
X983149Y301464D01*
X985492D01*
X986028Y302000D01*
X978350Y255443D02*
X981250Y258343D01*
Y270157D01*
X972750Y257843D02*
X975150Y255443D01*
X972750Y257843D02*
Y270157D01*
X974028Y271435D01*
Y279657D01*
X976371Y282000D01*
X979685D01*
X982028Y284343D01*
Y290000D01*
X986028Y294000D01*
X1255050Y217211D02*
Y223611D01*
Y217211D02*
X1259500Y212761D01*
X1260950Y215836D02*
X1262700Y214086D01*
X1255018Y223643D02*
X1255050Y223611D01*
X1255018Y223643D02*
Y226294D01*
X1255050Y226325D01*
X1258218Y224968D02*
X1258250Y224936D01*
Y218536D02*
Y224936D01*
X1252000Y216225D02*
Y254901D01*
X1260950Y215836D02*
Y215900D01*
X1258250Y218536D02*
X1260886Y215900D01*
X1260950D01*
X1267500Y222000D02*
X1271750D01*
X1266627Y221127D02*
X1267500Y222000D01*
X1263477Y221127D02*
X1266627D01*
X1271750Y222000D02*
X1278000Y215750D01*
X1262750Y226800D02*
X1263477Y226073D01*
X1266627D01*
X1267500Y225200D01*
X1262750Y220400D02*
X1263477Y221127D01*
X1267500Y225200D02*
X1273075D01*
X1281200Y217075D01*
X1278000Y191250D02*
Y215750D01*
X1281200Y189925D02*
Y217075D01*
X981250Y270157D02*
X982028Y270935D01*
Y279657D01*
X984371Y282000D01*
X987685D01*
X990028Y284343D01*
Y290000D01*
X994028Y294000D01*
X1062625Y342300D02*
X1063189D01*
X1058910Y338585D02*
X1062625Y342300D01*
X1060997Y345500D02*
X1061864D01*
X1058910Y337503D02*
Y338585D01*
X1232601Y269000D02*
X1251526D01*
X1233927Y265800D02*
X1250200D01*
X1243701Y263200D02*
X1252000Y254901D01*
X1238700Y263200D02*
X1243701D01*
X1242376Y260000D02*
X1248800Y253575D01*
X1240025Y260000D02*
X1242376D01*
X1239582Y259557D02*
X1240025Y260000D01*
X1235886Y259557D02*
X1239582D01*
X1237750Y255057D02*
X1245760Y247047D01*
Y237235D02*
Y247047D01*
X1243183Y234657D02*
X1245760Y237235D01*
X1239474Y243115D02*
X1241235Y244876D01*
X1242560D01*
Y238560D02*
Y244876D01*
X1241857Y237857D02*
X1242560Y238560D01*
X1166496Y313454D02*
X1167911D01*
X1165171Y310254D02*
X1169922D01*
X1156807Y318617D02*
X1165171Y310254D01*
X1194584Y359151D02*
Y365430D01*
X1204890Y298135D02*
X1214618Y288407D01*
X998028Y351657D02*
X1000371Y354000D01*
X998028Y348343D02*
Y351657D01*
X995685Y346000D02*
X998028Y348343D01*
X992371Y346000D02*
X995685D01*
X990028Y343657D02*
X992371Y346000D01*
X990028Y340343D02*
Y343657D01*
X987685Y338000D02*
X990028Y340343D01*
X984371Y338000D02*
X987685D01*
X982028Y335657D02*
X984371Y338000D01*
X982028Y308343D02*
Y335657D01*
Y308343D02*
X984371Y306000D01*
X987846D01*
X990028Y303818D01*
Y300343D02*
Y303818D01*
Y300343D02*
X992371Y298000D01*
X995846D01*
X999046Y294800D01*
X1225050Y289110D02*
Y293157D01*
X1224347Y285207D02*
X1225050Y284504D01*
Y280457D02*
Y284504D01*
X1167911Y313454D02*
X1168264Y313807D01*
X1173547D01*
X1174250Y314510D01*
Y318557D01*
X1169922Y310254D02*
X1170275Y310607D01*
X1173547D01*
X1174250Y309904D01*
Y305857D02*
Y309904D01*
X1227934Y259807D02*
X1233927Y265800D01*
X1237500Y300700D02*
X1243876D01*
X1237750Y297500D02*
X1242550D01*
X1243876Y300700D02*
X1250125Y294451D01*
X1242550Y297500D02*
X1246925Y293125D01*
X1250125Y279099D02*
Y294451D01*
X1246925Y280425D02*
Y293125D01*
X1243783Y272757D02*
X1250125Y279099D01*
X1242457Y275957D02*
X1246925Y280425D01*
X1194293Y284957D02*
X1206493Y272757D01*
X1195619Y288157D02*
X1207818Y275957D01*
X1135720Y271370D02*
Y300250D01*
X1097801Y286610D02*
Y300250D01*
X1164159Y288157D02*
X1195619D01*
X1145200Y272970D02*
X1151480D01*
X1126240D02*
X1132520D01*
X1081843Y288157D02*
X1094601D01*
X1069500Y295975D02*
X1080518Y284957D01*
X1072700Y297300D02*
X1081843Y288157D01*
X1237500Y300700D02*
Y305607D01*
X1002028Y310000D02*
X1006028Y314000D01*
X1237750Y294185D02*
Y297500D01*
X1010028Y318000D02*
X1014028Y322000D01*
X1237500Y305607D02*
X1237750Y305857D01*
X1237250Y293685D02*
X1237750Y294185D01*
X1237250Y293500D02*
Y293685D01*
X1155928Y221017D02*
Y234657D01*
X1136969Y249897D02*
X1143249D01*
X1136969Y221017D02*
Y249897D01*
X1146448Y222617D02*
X1152728D01*
X1127489D02*
X1133769D01*
X1019685Y306000D02*
X1022028Y303657D01*
X1016210Y306000D02*
X1019685D01*
X1013010Y309200D02*
X1016210Y306000D01*
X996994Y263521D02*
X1005591Y254925D01*
X998028Y267013D02*
X1008791Y256250D01*
X998028Y267013D02*
Y279657D01*
X1000371Y282000D01*
X1003685D01*
X1006028Y284343D01*
Y287657D01*
X1230569Y266968D02*
X1232601Y269000D01*
X993322Y263521D02*
X996994D01*
X990000Y266843D02*
X993322Y263521D01*
X990000Y266843D02*
Y273236D01*
X1226257Y263007D02*
X1230000Y266750D01*
X990028Y335657D02*
X992371Y338000D01*
X995685D01*
X998028Y340343D01*
Y343657D01*
X1000371Y346000D01*
X990028Y308343D02*
Y335657D01*
X1001492Y294536D02*
X1002028Y294000D01*
X1000189Y294536D02*
X1001492D01*
X999925Y294800D02*
X1000189Y294536D01*
X999046Y294800D02*
X999925D01*
X1005588Y297560D02*
X1010028Y302000D01*
X1004125Y297560D02*
X1005588D01*
X1003685Y298000D02*
X1004125Y297560D01*
X1000371Y298000D02*
X1003685D01*
X998028Y300343D02*
X1000371Y298000D01*
X998028Y300343D02*
Y303657D01*
X995685Y306000D02*
X998028Y303657D01*
X992371Y306000D02*
X995685D01*
X990028Y308343D02*
X992371Y306000D01*
X1236250Y243250D02*
X1236385Y243115D01*
X1007931Y306440D02*
X1008371Y306000D01*
X1006468Y306440D02*
X1007931D01*
X1002028Y302000D02*
X1006468Y306440D01*
X1012131Y309200D02*
X1013010D01*
X1011867Y309464D02*
X1012131Y309200D01*
X1010564Y309464D02*
X1011867D01*
X1010028Y310000D02*
X1010564Y309464D01*
X1238257Y262757D02*
X1238700Y263200D01*
X1234561Y262757D02*
X1238257D01*
X1190196Y250000D02*
X1215902D01*
X1190139Y250057D02*
X1190196Y250000D01*
X1185586Y250057D02*
X1190139D01*
X1182450Y253193D02*
X1185586Y250057D01*
X1188871Y246800D02*
X1217227D01*
X1188814Y246857D02*
X1188871Y246800D01*
X1185086Y246857D02*
X1188814D01*
X1185029Y246800D02*
X1185086Y246857D01*
X1184318Y246800D02*
X1185029D01*
X1217227D02*
X1217284Y246857D01*
X1215902Y250000D02*
X1215958Y250057D01*
X1179250Y251868D02*
X1184318Y246800D01*
X1174250Y267757D02*
Y271804D01*
Y267500D02*
Y267757D01*
Y276410D02*
Y280457D01*
Y276410D02*
X1174953Y275707D01*
X1177272D01*
X1182450Y270529D01*
Y253193D02*
Y270529D01*
X1174000Y267250D02*
X1174250Y267500D01*
Y271804D02*
X1174953Y272507D01*
X1175947D01*
X1179250Y269204D01*
Y251868D02*
Y269204D01*
X990000Y273236D02*
X990028Y273264D01*
Y279657D01*
X992371Y282000D01*
X995846D01*
X999046Y285200D01*
X999925D01*
X1000189Y285464D01*
X1001492D01*
X1002028Y286000D01*
X1005588Y288097D02*
X1006028Y287657D01*
X1005588Y288097D02*
Y289560D01*
X1010028Y294000D01*
X1013798Y271968D02*
Y271968D01*
X1011765Y274000D02*
X1013798Y271968D01*
X1006028Y274000D02*
X1011765D01*
X1002028Y278000D02*
X1006028Y274000D01*
X1016997Y273293D02*
Y273293D01*
X1014028Y276263D02*
X1016997Y273293D01*
X1186950Y255057D02*
Y256050D01*
Y259104D01*
X1187653Y259807D01*
X1186950Y267450D02*
Y267757D01*
Y267450D02*
X1187000Y267500D01*
D87*
X719999Y45500D02*
Y53497D01*
X716000Y49499D01*
X721332D01*
D88*
X607000Y43000D02*
D03*
Y593000D02*
D03*
D89*
X640000Y35000D02*
D03*
Y600500D02*
D03*
D91*
X1225050Y394757D02*
D03*
X832250Y263250D02*
D03*
Y289750D02*
D03*
Y342750D02*
D03*
Y452250D02*
D03*
X1055876Y194750D02*
D03*
X870250Y614750D02*
D03*
X884000Y612750D02*
D03*
X881000Y593250D02*
D03*
X911750Y582000D02*
D03*
X898750D02*
D03*
X851500Y606500D02*
D03*
X857000Y595500D02*
D03*
X922900Y348400D02*
D03*
X928000Y342250D02*
D03*
X921545Y399770D02*
D03*
X916000Y405000D02*
D03*
X1060558Y400250D02*
D03*
X1118000Y495250D02*
D03*
X1148148Y440000D02*
D03*
X1042051Y377000D02*
D03*
X1208309Y454772D02*
D03*
X1042051Y398769D02*
D03*
X991500Y400500D02*
D03*
X1000750Y400250D02*
D03*
X971600Y408000D02*
D03*
X1156750Y262250D02*
D03*
X1078500Y259500D02*
D03*
X1202500Y287639D02*
D03*
X1264250Y250550D02*
D03*
Y244150D02*
D03*
X1262750Y226800D02*
D03*
Y220400D02*
D03*
X1311910Y429914D02*
D03*
X933750Y293025D02*
D03*
X894294Y481023D02*
D03*
X1060000Y350000D02*
D03*
X1019682Y481076D02*
D03*
X889360Y449450D02*
D03*
X857000Y581815D02*
D03*
X841000Y595500D02*
D03*
X1310164Y125978D02*
D03*
X1289844D02*
D03*
X1289590Y147750D02*
D03*
X1293908Y177088D02*
D03*
Y189364D02*
D03*
X1306608D02*
D03*
Y177088D02*
D03*
Y211040D02*
D03*
X1293908Y220440D02*
D03*
Y232716D02*
D03*
X1306608D02*
D03*
X1293908Y263792D02*
D03*
Y276068D02*
D03*
X816000Y598000D02*
D03*
X808250Y591500D02*
D03*
X691000Y598000D02*
D03*
X683500Y604500D02*
D03*
X760500Y527750D02*
D03*
X740500D02*
D03*
X885550Y289350D02*
D03*
X1131805Y392769D02*
D03*
X1127750Y375250D02*
D03*
X1123750Y422250D02*
D03*
X1133250D02*
D03*
X1237750Y305857D02*
D03*
Y293157D02*
D03*
X1186950Y255057D02*
D03*
X1174250Y267757D02*
D03*
X1186950D02*
D03*
X1174250Y280457D02*
D03*
X1225050Y293157D02*
D03*
Y280457D02*
D03*
X1237750Y242357D02*
D03*
Y255057D02*
D03*
X1174250Y305857D02*
D03*
X1186950D02*
D03*
X1225050Y77257D02*
D03*
X1174250Y115357D02*
D03*
X1225050Y509057D02*
D03*
X1237750Y496357D02*
D03*
X1186950D02*
D03*
Y483657D02*
D03*
X1174250Y470957D02*
D03*
X1225050Y407457D02*
D03*
Y356657D02*
D03*
X1174250Y343957D02*
D03*
Y318557D02*
D03*
D93*
X996250Y253250D02*
Y258250D01*
X1012500Y225863D02*
X1043613Y194750D01*
X1012500Y225863D02*
Y237000D01*
X996250Y253250D02*
X1012500Y237000D01*
X991117Y400883D02*
X991500Y400500D01*
X985605Y400883D02*
X991117D01*
X985438Y401050D02*
X985605Y400883D01*
X978550Y401050D02*
X985438D01*
X1009250Y418250D02*
Y470644D01*
X991500Y400500D02*
X1009250Y418250D01*
X971600Y408000D02*
X978550Y401050D01*
X1043613Y194750D02*
X1055876D01*
X1009250Y470644D02*
X1019682Y481076D01*
D95*
X944350Y217870D02*
Y268469D01*
Y217870D02*
X1046870Y115350D01*
X1174243D01*
X1168553Y426000D02*
X1229000D01*
X1231000Y424000D01*
Y405879D02*
Y424000D01*
X1226121Y401000D02*
X1231000Y405879D01*
X1221250Y401000D02*
X1226121D01*
X1217500Y397250D02*
X1221250Y401000D01*
X1231500Y363107D02*
Y384500D01*
X1227500Y388500D02*
X1231500Y384500D01*
X1220750Y388500D02*
X1227500D01*
X1217500Y391750D02*
X1220750Y388500D01*
X1217500Y391750D02*
Y397250D01*
X1207226Y407500D02*
X1225000D01*
X1200726Y414000D02*
X1207226Y407500D01*
X1141500Y414000D02*
X1200726D01*
X1154553Y440000D02*
X1168553Y426000D01*
X1148148Y440000D02*
X1154553D01*
X1174243Y115350D02*
X1174250Y115357D01*
X944350Y268469D02*
X944500Y268619D01*
Y270815D01*
X1225050Y356657D02*
X1231500Y363107D01*
X1045250Y422250D02*
X1123750D01*
X935531Y341878D02*
X940281D01*
X929009Y348400D02*
X935531Y341878D01*
X922900Y348400D02*
X929009D01*
X1205500Y458528D02*
Y466831D01*
Y458528D02*
X1208309Y455719D01*
Y454772D02*
Y455719D01*
X1205500Y466831D02*
X1233100Y494431D01*
X1218250Y534250D02*
X1223107Y539107D01*
X1233100Y494431D02*
Y498283D01*
X1218250Y514856D02*
Y534250D01*
X1247000Y510062D02*
Y531783D01*
X1223107Y539107D02*
X1239676D01*
X1240701Y503763D02*
X1247000Y510062D01*
X1239676Y539107D02*
X1247000Y531783D01*
X1233100Y498283D02*
X1238580Y503763D01*
X1240701D01*
X1217351Y513957D02*
X1218250Y514856D01*
X1133250Y422250D02*
X1141500Y414000D01*
X1022028Y399028D02*
X1045250Y422250D01*
X1127750Y388714D02*
X1131805Y392769D01*
X1127750Y375250D02*
Y388714D01*
D97*
X1057588Y262162D02*
G03*
X1071257Y256500I13669J13669D01*
G01*
D02*
G03*
X1078500Y259500I0J10243D01*
G01*
X1047210Y272540D02*
G03*
X1034028Y278000I-13182J-13182D01*
G01*
X1042051Y377000D02*
Y388107D01*
X1058694Y404750D01*
X1153596Y364611D02*
Y377342D01*
Y364611D02*
X1174250Y343957D01*
X1069903Y397269D02*
X1133669D01*
X1062422Y404750D02*
X1069903Y397269D01*
X1133669D02*
X1153596Y377342D01*
X1047210Y272540D02*
X1057588Y262162D01*
X1022028Y372343D02*
Y399028D01*
X1011685Y362000D02*
X1022028Y372343D01*
X1000371Y362000D02*
X1011685D01*
X940281Y341878D02*
X944159Y338000D01*
X950028D01*
X954028Y334000D01*
X928000Y336007D02*
X934007Y330000D01*
X958028D01*
X962028Y326000D01*
X928000Y336007D02*
Y342250D01*
X1058694Y404750D02*
X1062422D01*
X1030028Y306000D02*
X1038209D01*
X1039098Y306889D01*
X958028Y319657D02*
X960371Y322000D01*
X958028Y316343D02*
Y319657D01*
X955685Y314000D02*
X958028Y316343D01*
X944500Y270815D02*
X950028Y276343D01*
X1186950Y305857D02*
X1196750Y296057D01*
X1186750Y306057D02*
X1186950Y305857D01*
X1196750Y293389D02*
Y296057D01*
X1186750Y306057D02*
Y306250D01*
X1196750Y293389D02*
X1202500Y287639D01*
X950028Y276343D02*
Y311657D01*
X952371Y314000D02*
X955685D01*
X950028Y311657D02*
X952371Y314000D01*
X960371Y322000D02*
X966028D01*
X970028Y326000D01*
X998028Y359657D02*
X1000371Y362000D01*
X998028Y356343D02*
Y359657D01*
X995685Y354000D02*
X998028Y356343D01*
X992371Y354000D02*
X995685D01*
X990028Y351657D02*
X992371Y354000D01*
X990028Y348343D02*
Y351657D01*
X987685Y346000D02*
X990028Y348343D01*
X984371Y346000D02*
X987685D01*
X982028Y343657D02*
X984371Y346000D01*
X982028Y340343D02*
Y343657D01*
X979685Y338000D02*
X982028Y340343D01*
X974028Y338000D02*
X979685D01*
X970028Y334000D02*
X974028Y338000D01*
D99*
X885750Y453060D02*
G03*
X867789Y460500I-17960J-17960D01*
G01*
X851021D02*
G03*
X833061Y453060I0J-25400D01*
G01*
X903954Y273750D02*
G03*
X921915Y281189I0J25400D01*
G01*
X878175Y273750D02*
G03*
X861500Y266843I0J-23581D01*
G01*
X853067Y263350D02*
G03*
X861500Y266843I0J11927D01*
G01*
X862229Y342750D02*
G03*
X880190Y350190I0J25400D01*
G01*
X901471Y360950D02*
G03*
X883510Y353510I0J-25400D01*
G01*
X905929Y360950D02*
G03*
X923889Y368389I0J25400D01*
G01*
X949271Y383250D02*
G03*
X931311Y375811I0J-25400D01*
G01*
X976217D02*
G03*
X958257Y383250I-17960J-17960D01*
G01*
X832250Y289507D02*
X855056D01*
X855213Y289350D01*
X885550D01*
X885750Y453060D02*
X889360Y449450D01*
X851021Y460500D02*
X867789D01*
X832250Y452250D02*
X833061Y453060D01*
X832250Y263250D02*
X852967D01*
X853067Y263350D01*
X832250Y289507D02*
Y289750D01*
Y342750D02*
X862229D01*
X921915Y281189D02*
X933750Y293025D01*
X878175Y273750D02*
X903954D01*
X880190Y350190D02*
X883510Y353510D01*
X901471Y360950D02*
X905929D01*
X923889Y368389D02*
X931311Y375811D01*
X949271Y383250D02*
X958257D01*
X976217Y375811D02*
X986028Y366000D01*
M02*
